<svg xmlns="http://www.w3.org/2000/svg" xmlns:xlink="http://www.w3.org/1999/xlink" viewBox="0 0 40 40"><defs><style>.cls-1{fill:none;}.cls-2{fill:#d6b082;}.cls-3{clip-path:url(#clip-path);}.cls-4{fill:#fff;}</style><clipPath id="clip-path"><rect class="cls-1" x="8" y="8.56" width="24" height="22.89"/></clipPath></defs><title>播放 (2)</title><g id="图层_2" data-name="图层 2"><g id="图层_1-2" data-name="图层 1"><g id="播放"><circle class="cls-2" cx="20" cy="20" r="20"/><g class="cls-3"><path class="cls-4" d="M19.94,31.41a2.9,2.9,0,0,1-1.91-1L13,25.3h-2.3A2.66,2.66,0,0,1,8,22.64V17.31a2.66,2.66,0,0,1,2.66-2.66H13L18,9.58a2.92,2.92,0,0,1,1.92-1c.63,0,1.38.44,1.38,1.66V29.74c0,1.23-.75,1.67-1.38,1.67ZM24.41,26a.88.88,0,0,1-.72-1.4l.35-.48A6.51,6.51,0,0,0,25.76,20a5.88,5.88,0,0,0-1.6-4c-.16-.2-.31-.41-.47-.63a.89.89,0,0,1,1.45-1c.14.21.29.41.44.6a7.55,7.55,0,0,1,2,5.09,8.18,8.18,0,0,1-2.06,5.23l-.33.47a.9.9,0,0,1-.73.36Z"/></g><path class="cls-4" d="M27.43,29.05a.89.89,0,0,1-.58-.22.88.88,0,0,1-.08-1.25c1.78-2,3.43-4.36,3.43-7.61s-1.65-5.57-3.43-7.6a.88.88,0,0,1,.08-1.25.89.89,0,0,1,1.25.08C30,13.39,32,16.13,32,20S30,26.56,28.1,28.75a.89.89,0,0,1-.67.3Z"/></g></g></g></svg>