<svg xmlns="http://www.w3.org/2000/svg" xmlns:xlink="http://www.w3.org/1999/xlink" viewBox="0 0 40 40"><defs><style>.cls-1{fill:none;}.cls-2{fill:#d6b082;}.cls-3{clip-path:url(#clip-path);}.cls-4{fill:#fff;}</style><clipPath id="clip-path"><rect class="cls-1" x="8" y="8.43" width="24" height="23.14"/></clipPath></defs><title>静音 (2)</title><g id="图层_2" data-name="图层 2"><g id="图层_1-2" data-name="图层 1"><g id="静音"><circle class="cls-2" cx="20" cy="20" r="20"/><g class="cls-3"><path class="cls-4" d="M10.66,14.66A2.6,2.6,0,0,0,8,17.24v5.41a2.62,2.62,0,0,0,2.66,2.67H13L18,30.56a2.75,2.75,0,0,0,1.87,1,1.25,1.25,0,0,0,.53-.08A1.6,1.6,0,0,0,21.32,30V23.81l-9.51-9.15ZM31.71,28.25l-1.6-1.51A13.79,13.79,0,0,0,32,20a13.5,13.5,0,0,0-3.28-8.79.88.88,0,0,0-1.34,1.15A12.11,12.11,0,0,1,30.2,20a11.31,11.31,0,0,1-1.42,5.42L26.2,22.92A11,11,0,0,0,26.64,20a9.47,9.47,0,0,0-1.86-5.68.89.89,0,1,0-1.42,1.06A8,8,0,0,1,24.87,20a7.71,7.71,0,0,1-.18,1.51l-3.37-3.2V10a1.41,1.41,0,0,0-.89-1.42,2.25,2.25,0,0,0-2.4.89L15.1,12.44,11.28,8.71A.88.88,0,0,0,10,10L30.46,29.49a.86.86,0,0,0,1.25,0,.86.86,0,0,0,0-1.24Z"/></g></g></g></g></svg>