<svg xmlns="http://www.w3.org/2000/svg" xmlns:xlink="http://www.w3.org/1999/xlink" viewBox="0 0 22.31 23.94"><defs><style>.cls-1{fill:none;}.cls-2{clip-path:url(#clip-path);}.cls-3{fill:#b7b7b7;}.cls-4{fill:#c63424;}</style><clipPath id="clip-path" transform="translate(0 -0.03)"><rect class="cls-1" width="22.31" height="24"/></clipPath></defs><title>资源 13</title><g id="图层_2" data-name="图层 2"><g id="顶层"><g class="cls-2"><path class="cls-3" d="M20.91,21.4h-1.4V18.83A7.63,7.63,0,0,0,15,12a7.65,7.65,0,0,0,4.55-6.83V2.6h1.4a1.39,1.39,0,0,0,1.4-1.29A1.38,1.38,0,0,0,20.91,0H1.4A1.38,1.38,0,0,0,0,1.31,1.38,1.38,0,0,0,1.4,2.6H2.8V5.17A7.63,7.63,0,0,0,7.35,12,7.64,7.64,0,0,0,2.8,18.83V21.4H1.4A1.29,1.29,0,1,0,1.4,24H20.9a1.39,1.39,0,0,0,1.4-1.29,1.37,1.37,0,0,0-1.39-1.28ZM4.66,18.84a6,6,0,0,1,3.52-5.3A1.61,1.61,0,0,0,9.2,12a1.78,1.78,0,0,0-1-1.54A6,6,0,0,1,4.66,5.15V2.6h13V5.17a6,6,0,0,1-3.52,5.3,1.61,1.61,0,0,0-1,1.54,1.78,1.78,0,0,0,1,1.54,6,6,0,0,1,3.52,5.3v2.57h-13Z" transform="translate(0 -0.03)"/></g><path class="cls-4" d="M13.2,15a13.64,13.64,0,0,1-1.86-1.11l-.19-.25L11,13.8a5.81,5.81,0,0,1-1.85,1.11,4.48,4.48,0,0,0-2.6,3.93v.85H15.8v-.85A4.25,4.25,0,0,0,13.2,15Zm-2-4.62.28-.25a9,9,0,0,1,1.86-1.2,3.64,3.64,0,0,0,1.58-1.28H7.44A5.66,5.66,0,0,0,9,8.93a8.88,8.88,0,0,1,1.85,1.2Z" transform="translate(0 -0.03)"/></g></g></svg>