<svg xmlns="http://www.w3.org/2000/svg" xmlns:xlink="http://www.w3.org/1999/xlink" viewBox="0 0 11998.11 1335.65"><defs><style>.cls-1{fill:none;}.cls-2{isolation:isolate;}.cls-3{clip-path:url(#clip-path);}.cls-4{clip-path:url(#clip-path-2);}.cls-5{fill:url(#未命名的渐变_21);}.cls-6{fill:#c63424;}.cls-7{fill:#ff5e52;}.cls-8{fill:#3d1125;}.cls-9{fill:#bcbbbb;}.cls-10{fill:#440e0e;}.cls-11{fill:#0a1c49;}.cls-12{font-size:47.88px;fill:#7594d3;font-family:SourceHanSansCN-Medium-GBpc-EUC-H, Source Han Sans CN;}.cls-13,.cls-14,.cls-15,.cls-16{fill:#fff;mix-blend-mode:overlay;}.cls-13{opacity:0.18;}.cls-14{opacity:0.34;}.cls-15{opacity:0.49;}.cls-17{fill:url(#未命名的渐变_11);}.cls-18{fill:#9e6254;}.cls-19{fill:#db3a2e;}.cls-20{fill:#c45b26;}.cls-21{fill:#db982c;}.cls-22{fill:#ffb31a;}.cls-23{fill:#f24541;}.cls-24{clip-path:url(#clip-path-3);}.cls-25{fill:#ba2f24;}.cls-26{clip-path:url(#clip-path-4);}</style><clipPath id="clip-path" transform="translate(0 -7.27)"><rect class="cls-1" x="227.68" y="8.92" width="11770.43" height="1031"/></clipPath><clipPath id="clip-path-2" transform="translate(0 -7.27)"><rect class="cls-1" x="228" y="8.42" width="11770.11" height="1334.5"/></clipPath><linearGradient id="未命名的渐变_21" x1="3359.59" y1="1335.15" x2="3359.59" y2="2.15" gradientUnits="userSpaceOnUse"><stop offset="0" stop-color="#394579"/><stop offset="1" stop-color="#20305c"/></linearGradient><linearGradient id="未命名的渐变_11" x1="436.04" y1="679.11" x2="436.04" y2="667.11" gradientUnits="userSpaceOnUse"><stop offset="0" stop-color="#334472"/><stop offset="1" stop-color="#223058"/></linearGradient><clipPath id="clip-path-3" transform="translate(0 -7.27)"><rect class="cls-1" x="228" y="8.42" width="1328.48" height="1008.46"/></clipPath><clipPath id="clip-path-4" transform="translate(0 -7.27)"><rect class="cls-1" x="10408.6" width="410.96" height="820.48"/></clipPath></defs><title>资源 276</title><g class="cls-2"><g id="图层_2" data-name="图层 2"><g id="背景层"><g class="cls-3"><g id="背景层-2" data-name="背景层"><g class="cls-4"><rect class="cls-5" x="1566.42" y="2.15" width="3586.34" height="1333"/><rect class="cls-6" x="8838.37" y="2.15" width="3159.73" height="1333"/><path class="cls-7" d="M935,120.78a22,22,0,0,0-10.84,2.86,22.06,22.06,0,0,0-18.61-10.22h-.18a25,25,0,0,0-49.7.11,24.91,24.91,0,0,0-26.06-6.07A27.2,27.2,0,0,0,776,113.29a26.23,26.23,0,0,0-11.82-2.81,26.5,26.5,0,0,0-26.5,26.5,28.64,28.64,0,0,0,.17,2.94H955.57C955.57,128.14,946.15,120.78,935,120.78Z" transform="translate(0 -7.27)"/><path class="cls-7" d="M1153,297.78a22,22,0,0,0-10.84,2.86,22.06,22.06,0,0,0-18.61-10.22h-.18a25,25,0,0,0-49.7.11,24.91,24.91,0,0,0-26.06-6.07A27.2,27.2,0,0,0,994,290.29a26.23,26.23,0,0,0-11.82-2.81,26.5,26.5,0,0,0-26.5,26.5,28.64,28.64,0,0,0,.17,2.94h217.72C1173.57,305.14,1164.15,297.78,1153,297.78Z" transform="translate(0 -7.27)"/><path class="cls-7" d="M6976,489.78a22,22,0,0,0-10.84,2.86,22.06,22.06,0,0,0-18.61-10.22h-.18a25,25,0,0,0-49.7.11,24.91,24.91,0,0,0-26.06-6.07,27.2,27.2,0,0,0-53.57,5.82,26.23,26.23,0,0,0-11.82-2.81,26.5,26.5,0,0,0-26.5,26.5,28.64,28.64,0,0,0,.17,2.94h217.72C6996.57,497.14,6987.15,489.78,6976,489.78Z" transform="translate(0 -7.27)"/><rect class="cls-8" x="5124.87" width="5694.69" height="1054.88"/><rect class="cls-9" x="5124.87" y="693.3" width="5694.69" height="205.46"/><rect class="cls-10" x="5124.87" y="899.49" width="4580.4" height="4.88"/><rect class="cls-11" x="5344.47" y="230.64" width="757.39" height="375.34"/><text class="cls-12" transform="translate(5531.66 414.32)">明源云创年终总结</text><rect class="cls-1" x="5124.87" y="899.22" width="1054.88" height="155.67"/><polygon class="cls-13" points="6213.2 0 6161.15 0 6109.58 0 5879.96 778.5 6161.15 778.5 6442.82 778.5 6213.2 0"/><ellipse class="cls-14" cx="6160.32" cy="777.46" rx="280.36" ry="21.71"/><polygon class="cls-13" points="5383.4 0 5331.36 0 5279.78 0 5050.16 778.5 5331.36 778.5 5613.02 778.5 5383.4 0"/><ellipse class="cls-14" cx="5330.52" cy="777.46" rx="280.36" ry="21.71"/><polygon class="cls-15" points="5817.07 0 5755.07 0 5693.63 0 5411.54 824.92 5746.52 824.92 6082.06 824.92 5817.07 0"/><ellipse class="cls-16" cx="5747.63" cy="826.08" rx="333.98" ry="25.87"/><polygon class="cls-13" points="7443.89 0 7391.84 0 7340.27 0 7110.65 778.5 7391.84 778.5 7673.51 778.5 7443.89 0"/><ellipse class="cls-14" cx="7391.01" cy="777.46" rx="280.36" ry="21.71"/><polygon class="cls-13" points="6614.09 0 6562.05 0 6510.47 0 6280.85 778.5 6562.05 778.5 6843.71 778.5 6614.09 0"/><ellipse class="cls-14" cx="6561.21" cy="777.46" rx="280.36" ry="21.71"/><polygon class="cls-15" points="7047.76 0 6985.76 0 6924.32 0 6642.23 824.92 6977.2 824.92 7312.74 824.92 7047.76 0"/><ellipse class="cls-16" cx="6978.32" cy="826.08" rx="333.98" ry="25.87"/><polygon class="cls-13" points="8266.36 0 8214.31 0 8162.74 0 7933.12 778.5 8214.31 778.5 8495.98 778.5 8266.36 0"/><ellipse class="cls-14" cx="8213.48" cy="777.46" rx="280.36" ry="21.71"/><polygon class="cls-13" points="7436.56 0 7384.52 0 7332.94 0 7103.32 778.5 7384.52 778.5 7666.18 778.5 7436.56 0"/><ellipse class="cls-14" cx="7383.68" cy="777.46" rx="280.36" ry="21.71"/><polygon class="cls-15" points="7870.23 0 7808.23 0 7746.79 0 7464.7 824.92 7799.68 824.92 8135.22 824.92 7870.23 0"/><ellipse class="cls-16" cx="7800.79" cy="826.08" rx="333.98" ry="25.87"/><polygon class="cls-15" points="8715.53 0 8653.53 0 8592.09 0 8310 824.92 8644.98 824.92 8980.52 824.92 8715.53 0"/><ellipse class="cls-16" cx="8646.09" cy="826.08" rx="333.98" ry="25.87"/><polygon class="cls-13" points="9934.13 0 9882.08 0 9830.51 0 9600.89 778.5 9882.08 778.5 10163.75 778.5 9934.13 0"/><ellipse class="cls-14" cx="9881.25" cy="777.46" rx="280.36" ry="21.71"/><polygon class="cls-13" points="9104.33 0 9052.29 0 9000.72 0 8771.1 778.5 9052.29 778.5 9333.95 778.5 9104.33 0"/><ellipse class="cls-14" cx="9051.45" cy="777.46" rx="280.36" ry="21.71"/><polygon class="cls-15" points="9538 0 9476 0 9414.57 0 9132.47 824.92 9467.45 824.92 9802.99 824.92 9538 0"/><ellipse class="cls-16" cx="9468.56" cy="826.08" rx="333.98" ry="25.87"/><polygon class="cls-15" points="10462.19 0 10400.19 0 10338.76 0 10056.66 824.92 10391.64 824.92 10727.18 824.92 10462.19 0"/><ellipse class="cls-16" cx="10392.76" cy="826.08" rx="333.98" ry="25.87"/><rect class="cls-1" x="5124.87" width="1054.88" height="1054.88"/><rect class="cls-17" x="430.04" y="667.11" width="12" height="12"/><rect class="cls-18" x="228.68" y="1032.65" width="11769.43" height="303"/><rect class="cls-6" x="227.68" y="2.15" width="1338.74" height="1032.86"/><path class="cls-19" d="M392,319.84a43.61,43.61,0,0,0-21.54,5.68,43.81,43.81,0,0,0-37-20.31l-.37,0a49.71,49.71,0,0,0-98.77.22,49.45,49.45,0,0,0-51.78-12.06A54.06,54.06,0,0,0,76.15,304.94,52.58,52.58,0,0,0,0,352a53.74,53.74,0,0,0,.34,5.85H433C433,334.47,414.29,319.84,392,319.84Z" transform="translate(0 -7.27)"/><path class="cls-19" d="M1196,616.88a27.65,27.65,0,0,0-13.65,3.6,27.76,27.76,0,0,0-23.43-12.87h-.23a31.5,31.5,0,0,0-62.58.14,31.34,31.34,0,0,0-32.81-7.64,34.25,34.25,0,0,0-67.45,7.32,33.32,33.32,0,0,0-48.26,29.83,34.87,34.87,0,0,0,.22,3.71h274.14C1221.91,626.15,1210.06,616.88,1196,616.88Z" transform="translate(0 -7.27)"/><path class="cls-19" d="M1464,337.41a17.46,17.46,0,0,0-8.64,2.28,17.58,17.58,0,0,0-14.83-8.15h-.15a19.94,19.94,0,0,0-39.62.09A19.81,19.81,0,0,0,1380,326.8a21.68,21.68,0,0,0-42.7,4.63,21.11,21.11,0,0,0-30.55,18.89,22.81,22.81,0,0,0,.14,2.35h173.55C1480.44,343.28,1472.94,337.41,1464,337.41Z" transform="translate(0 -7.27)"/><path class="cls-19" d="M1103.08,230a21.51,21.51,0,0,0-10.64,2.8,21.66,21.66,0,0,0-18.28-10H1074a24.57,24.57,0,0,0-48.81.12,24.49,24.49,0,0,0-25.6-6A26.72,26.72,0,0,0,947,222.6a26,26,0,0,0-37.64,23.27,25.06,25.06,0,0,0,.17,2.89h213.84C1123.33,237.2,1114.08,230,1103.08,230Z" transform="translate(0 -7.27)"/><path class="cls-20" d="M1257.43,377.79A89.45,89.45,0,1,1,1168,288.21,89.51,89.51,0,0,1,1257.43,377.79Z" transform="translate(0 -7.27)"/><path class="cls-21" d="M1240.86,377.79a72.88,72.88,0,1,1-72.88-73A72.92,72.92,0,0,1,1240.86,377.79Z" transform="translate(0 -7.27)"/><path class="cls-22" d="M1225.45,377.79A57.47,57.47,0,1,1,1168,320.24,57.51,57.51,0,0,1,1225.45,377.79Z" transform="translate(0 -7.27)"/><path class="cls-23" d="M1421.37,107.46a36.17,36.17,0,0,1,5,.35v-.35A37.35,37.35,0,0,1,1480,73.79a43.66,43.66,0,0,1,83.54,13.57,43.57,43.57,0,0,1,5.39-.35,42.29,42.29,0,0,1,42.26,42.32v15.1H1384.45A36.94,36.94,0,0,1,1421.37,107.46Z" transform="translate(0 -7.27)"/><g class="cls-24"><path class="cls-25" d="M1015.71,557.55V841.06h42.6V437.3h0c64.3,60.06,103.35,165.2,103.35,278.3v56.52h14.28V404.78h9.5V371.42h78.28v33.36h15.57V772.12h53.14V404.78l104.82,75.89V772.12h224.22V546.6h14.87V533.83h-8.49l37.8-41.88h33.21l37.79,41.88h-8.49V546.6H1783V772.12h23.37V437.3h10.29V406.73h17.46v-26H1849l17.54-41.64h21.93L1906,380.71h14.85v26h17.46V437.3h10.29V841.06h32.58V560.2h52.19v475.14H1799.91v-4.74H1207v4.74H973.54V557.55Z" transform="translate(0 -7.27)"/><path class="cls-25" d="M944.05,557.55v361H914V675.93h0c-45.32,36.1-72.84,99.28-72.84,167.25v34H831.13V656.39h-6.69v-20H769.27v20h-11V877.15H720.84V656.39L647,702V877.15H489V741.62H478.46v-7.68h6l-26.64-25.16H434.4l-26.63,25.16h6v7.68H403.27V877.15H386.8V675.93h-7.26V657.56h-12.3V641.92H356.78l-12.37-25H329l-12.37,25H306.13v15.64h-12.3v18.37h-7.26V918.58h-23V749.79H226.83v285.55H391.38v-2.85H809.23v2.85H973.77V557.55Z" transform="translate(0 -7.27)"/></g><path class="cls-23" d="M2048.79,1066.67c7.72,0,7.73-12,0-12s-7.74,12,0,12Z" transform="translate(0 -7.27)"/><path class="cls-19" d="M11497.73,436.2a17.54,17.54,0,0,0-8.64,2.28,17.58,17.58,0,0,0-14.83-8.14h-.15a19.94,19.94,0,0,0-39.62.09,19.88,19.88,0,0,0-20.77-4.84,21.68,21.68,0,0,0-42.7,4.64,21.09,21.09,0,0,0-30.55,18.88,20.18,20.18,0,0,0,.14,2.35h173.55C11514.16,442.07,11506.66,436.2,11497.73,436.2Z" transform="translate(0 -7.27)"/><path class="cls-19" d="M11136.8,328.76a21.68,21.68,0,0,0-10.65,2.8,21.65,21.65,0,0,0-18.27-10h-.18a24.57,24.57,0,0,0-48.82.11,24.48,24.48,0,0,0-25.59-6,26.72,26.72,0,0,0-52.61,5.72,26,26,0,0,0-37.64,23.27,25.19,25.19,0,0,0,.17,2.89H11157C11157,336,11147.8,328.76,11136.8,328.76Z" transform="translate(0 -7.27)"/><g class="cls-26"><polygon class="cls-13" points="10871.36 0 10819.32 0 10767.75 0 10538.13 778.5 10819.32 778.5 11100.98 778.5 10871.36 0"/><ellipse class="cls-14" cx="10818.48" cy="777.46" rx="280.36" ry="21.71"/></g></g></g></g></g></g></g></svg>