<svg xmlns="http://www.w3.org/2000/svg" xmlns:xlink="http://www.w3.org/1999/xlink" viewBox="0 0 80 80"><defs><style>.cls-1{fill:none;}.cls-2{fill:#0db535;}.cls-3{clip-path:url(#clip-path);}.cls-4{fill:#fff;}</style><clipPath id="clip-path"><rect class="cls-1" x="14.76" y="17.14" width="46.44" height="46.51"/></clipPath></defs><title>资源 14</title><g id="图层_2" data-name="图层 2"><g id="顶层"><g id="导航图标"><circle class="cls-2" cx="40" cy="40" r="40"/><g class="cls-3"><path class="cls-4" d="M61.09,19.4,45.26,62.49a1.67,1.67,0,0,1-2.14,1,1.64,1.64,0,0,1-1.06-1.26L38.24,41.44A1.67,1.67,0,0,0,36.9,40.1L16.13,36.29a1.67,1.67,0,0,1-1.34-1.94,1.69,1.69,0,0,1,1.07-1.27L58.94,17.26a1.68,1.68,0,0,1,2.15,1,1.74,1.74,0,0,1,0,1.15Zm-4.71,3a.39.39,0,0,0-.1-.43.4.4,0,0,0-.43-.1L24.18,33.32a.42.42,0,0,0-.27.43.41.41,0,0,0,.34.38l16.42,3.13a.44.44,0,0,1,.34.34l3,17a.42.42,0,0,0,.81.07Z"/></g><rect class="cls-4" x="28.69" y="44.51" width="3.95" height="10.89" rx="1.48" ry="1.48" transform="translate(18.98 -7.49) rotate(20.04)"/></g></g></g></svg>