<svg xmlns="http://www.w3.org/2000/svg" viewBox="0 0 324.87 438.96"><defs><style>.cls-1{fill:none;stroke:#cdcfd3;stroke-miterlimit:10;}.cls-2{fill:#fff;}.cls-3{fill:#2374c3;}.cls-4{fill:#48474f;}.cls-5{fill:#ff7872;}.cls-6{fill:#f6921e;}.cls-7{fill:#f05a24;}.cls-8{fill:#303030;}.cls-9{fill:#6d6d6d;}.cls-10{fill:#dadada;}</style></defs><title>右站立-闭眼</title><g id="图层_2" data-name="图层 2"><g id="图层_1-2" data-name="图层 1"><g id="右站立-闭眼"><path class="cls-1" d="M133.82,24.36a1.4,1.4,0,0,0,1.8-.4l4.3-6.5a1.37,1.37,0,0,0-2.3-1.5l-4.3,6.5A1.4,1.4,0,0,0,133.82,24.36Z"/><path class="cls-1" d="M117.62,20.46a10.91,10.91,0,0,0,15.1-3,10.71,10.71,0,0,0,.5-11.3,1.41,1.41,0,1,0-2.5,1.3,8.52,8.52,0,0,1,1,4.7,8.18,8.18,0,1,1-7.4-8.9,1.41,1.41,0,0,0,1.4-1.1,1.39,1.39,0,0,0-1.1-1.6,11,11,0,0,0-10.2,4.8A11.05,11.05,0,0,0,117.62,20.46Z"/><path class="cls-1" d="M321.22,206.56c-9.4-32-27.5-46-36.3-51.1-.6-.5-1.2-1-1.9-1.5l.4-1.8a4.83,4.83,0,0,0-3.6-5.81l-1.3-.3a5.08,5.08,0,0,0-4.8,1.61,70.62,70.62,0,0,0-14.4-6.4A91.54,91.54,0,0,0,171.72,59a39.42,39.42,0,0,0-4.5-15.7,41.68,41.68,0,0,0-10.6-12.6,49.21,49.21,0,0,0-15.2-8.4l.3-.4a1.33,1.33,0,0,0-.4-1.9h0a1.33,1.33,0,0,0-1.9.4h0l-1.4,2.1a1.37,1.37,0,0,0,2.3,1.5l.2-.2c.1,0,.1.1.2.1a48.81,48.81,0,0,1,15,8.2,40.17,40.17,0,0,1,10.1,12,38.18,38.18,0,0,1,4.2,14.8h-1.7a91.56,91.56,0,0,0-91.1,82.69c-.5.2-.9.3-1.4.5l-.7-.7a4.68,4.68,0,0,0-6.8-.19l-1,.89a4.8,4.8,0,0,0-1.4,4.5,69.84,69.84,0,0,0-10.7,6.9v-.4s-23.5,3.11-48.4,32.41c-10.5,12.39-5.9,21.3-.6,31.1a148.14,148.14,0,0,0,17.2,24.7c-.3,0-.6-.1-.9-.1a3,3,0,0,1,.4.8c.6,1.7,1.5,5.5-2.2,4.3-6-2-4.5,5.6-5.7,6.1s-6.2,6.4-1.4,8.6c6.9,3.2,11.3-1.71,14.6-6.5a14.65,14.65,0,0,0,1.8-3.8,47.84,47.84,0,0,0,46.7,37.09h8.5a9.44,9.44,0,0,1,8.4,5,9.68,9.68,0,0,0,8.3,5h10.9v1.4a6.44,6.44,0,0,0,6.4,6.4h14.5a6.44,6.44,0,0,0,6.4-6.4v-1.4h1.1a3.9,3.9,0,0,0,3.9-3.9A1.89,1.89,0,0,1,147,292h43.2a1.89,1.89,0,0,1,1.9,1.89,3.9,3.9,0,0,0,3.9,3.9h1.1v1.4a6.44,6.44,0,0,0,6.4,6.4H218a6.44,6.44,0,0,0,6.4-6.4v-1.4h10.9a9.29,9.29,0,0,0,8.3-5,9.56,9.56,0,0,1,8.4-5h8.6a48,48,0,0,0,46.7-37.1c.1,10.8.2,21.5.3,27.7l-1-.29c-.1,1.29,2.8,5.7-1.8,5.2s-3.7,7.8-3.7,7.8c-2.8,2.2-2.4,8.6,2.6,8.7s9.1-6.2,10.2-8.6,2.5-12.4,2.5-12.4h-.7C320.22,265.35,329.12,233.26,321.22,206.56ZM27.72,192.85a78.15,78.15,0,0,0-3.4,22.81,75.5,75.5,0,0,0,.5,8.3c-3.8-10.3-7.9-22-7.9-23.5S20.62,197.56,27.72,192.85Z"/><circle class="cls-2" cx="168.32" cy="150.35" r="91.5"/><path class="cls-2" d="M55.22,153s-23.5,3.1-48.4,32.39c-10.5,12.4-5.8,21.31-.6,31.11,7.1,13.2,17.8,25.39,17.8,25.39l6.8-1.8s-13.9-36.7-13.9-39.5,13-5.5,36.4-28.6A67.38,67.38,0,0,0,55.22,153Z"/><path class="cls-2" d="M171.22,64H171a.9.9,0,0,1-.9-.9,38.22,38.22,0,0,0-4.4-19,40.17,40.17,0,0,0-10.1-12,48.81,48.81,0,0,0-15-8.2.89.89,0,0,1,.5-1.7,49.83,49.83,0,0,1,15.5,8.5,39.08,39.08,0,0,1,10.6,12.59,40.48,40.48,0,0,1,4.6,19.91A.64.64,0,0,1,171.22,64Z"/><path class="cls-2" d="M139.62,15.66a1.33,1.33,0,0,0-1.9.4l-4.3,6.5a1.34,1.34,0,0,0,.5,1.9,1.4,1.4,0,0,0,1.8-.4l4.3-6.5A1.4,1.4,0,0,0,139.62,15.66Z"/><path class="cls-2" d="M132.72,17.46a10.89,10.89,0,0,1-18.1-12.1,10.77,10.77,0,0,1,10.2-4.8,1.26,1.26,0,0,1,1.1,1.6,1.24,1.24,0,0,1-1.4,1.1,8.18,8.18,0,1,0,7.4,8.9,7.74,7.74,0,0,0-1-4.7,1.41,1.41,0,1,1,2.5-1.3A11.18,11.18,0,0,1,132.72,17.46Z"/><path class="cls-2" d="M141.32,20a1.33,1.33,0,0,0-1.9.4h0l-1.4,2.1a1.37,1.37,0,0,0,2.3,1.5h0l1.4-2.1a1.42,1.42,0,0,0-.4-1.9Z"/><path class="cls-2" d="M234.82,287H102.72c-43.3,0-78.4-27.9-78.4-71.2h0a78.41,78.41,0,0,1,78.4-78.41h132.1a78.41,78.41,0,0,1,78.4,78.4h0C313.22,259,278.12,287,234.82,287Z"/><path class="cls-2" d="M198.32,256.16a10.93,10.93,0,0,1-10.9-10.9,10.79,10.79,0,0,1,9.4-10.7,1.58,1.58,0,0,1,1.7,1.5,1.71,1.71,0,0,1-1.3,1.7,7.69,7.69,0,0,0,1.1,15.3h.8a1.56,1.56,0,0,1,.3,3.1h-1.1Zm31-10.9a10.92,10.92,0,0,0-7.9-10.5,1.61,1.61,0,0,0-1.9,1.2,1.67,1.67,0,0,0,1,1.89,7.7,7.7,0,0,1-2.1,15.11h-.8a1.55,1.55,0,1,0-.3,3.09c.4,0,.7.11,1.1.11a10.93,10.93,0,0,0,10.9-10.9Zm-14.9,9.3a1.58,1.58,0,0,0-1.6-1.6h-9.1a1.6,1.6,0,1,0-.2,3.2h9.4a1.56,1.56,0,0,0,1.5-1.6Zm-3,4.4a1.59,1.59,0,0,0-1.6-1.61h-2.9a1.53,1.53,0,0,0-1.7,1.5,1.6,1.6,0,0,0,1.5,1.71h3.2a1.57,1.57,0,0,0,1.5-1.6Z"/><path class="cls-2" d="M208.32,249.06a12.65,12.65,0,1,1,11.2-18.6,1.54,1.54,0,0,1-.8,2.1,1.59,1.59,0,0,1-2-.6,9.46,9.46,0,1,0-3.9,12.8,9.76,9.76,0,0,0,3.9-3.9,1.63,1.63,0,0,1,2.9,1.5A12.8,12.8,0,0,1,208.32,249.06Z"/><path class="cls-2" d="M133.92,305.35h-14.5A6.44,6.44,0,0,1,113,299v-1.8a6.44,6.44,0,0,1,6.4-6.4h14.5a6.44,6.44,0,0,1,6.4,6.4V299A6.31,6.31,0,0,1,133.92,305.35Z"/><path class="cls-2" d="M203.62,290.75h14.5a6.44,6.44,0,0,1,6.4,6.4V299a6.44,6.44,0,0,1-6.4,6.4h-14.5a6.44,6.44,0,0,1-6.4-6.4v-1.8A6.39,6.39,0,0,1,203.62,290.75Z"/><path class="cls-3" d="M308.72,239.66h5.4c-15.1,0-32.4-12.2-32.4-27.31h0a10.07,10.07,0,0,0-10.1-10.1H136.12a10.07,10.07,0,0,0-10.1,10.1h0a27.27,27.27,0,0,1-27.3,27.31H28.92a47.91,47.91,0,0,0,47.9,47.9h8.6a9.44,9.44,0,0,1,8.4,5h0a9.68,9.68,0,0,0,8.3,5h39.3a3.91,3.91,0,0,0,3.9-3.9h0a1.9,1.9,0,0,1,1.9-1.9h43.1a1.9,1.9,0,0,1,1.9,1.9h0a3.9,3.9,0,0,0,3.9,3.9h39.3a9.29,9.29,0,0,0,8.3-5h0a9.56,9.56,0,0,1,8.4-5h8.6A47.93,47.93,0,0,0,308.72,239.66Z"/><path class="cls-2" d="M208.82,271.06a29.66,29.66,0,0,1-4.2-.3,27.27,27.27,0,0,1-4.1-1,32,32,0,0,1-3.9-1.6,21.22,21.22,0,0,1-3.6-2.1,30.45,30.45,0,0,1-6.1-5.8,26.37,26.37,0,0,1-2.3-3.5,23,23,0,0,1-1.7-3.9,27.46,27.46,0,0,1-1.1-4.1l-.1-.5v-.6l-.1-1.1-.1-1V219.05h.3l54.5-.2h.2v26.81l-.1,1.1-.1,1.1v.6l-.1.5a27.46,27.46,0,0,1-1.1,4.1,33.89,33.89,0,0,1-1.8,3.9c-.7,1.2-1.5,2.4-2.3,3.5a28,28,0,0,1-6.1,5.8,33.54,33.54,0,0,1-3.6,2.1c-1.3.6-2.6,1.1-3.9,1.6a27.13,27.13,0,0,1-4.1.9C211.72,271,210.32,271.06,208.82,271.06Zm0-.1a31.22,31.22,0,0,0,4.2-.3,30.59,30.59,0,0,0,4.1-1,27.26,27.26,0,0,0,7.4-3.8,26.62,26.62,0,0,0,9.7-13.2,26,26,0,0,0,1-4l.1-.5.1-.3v-.3l.1-1c0-.7.1-1.4.1-2.1v-25.2l.5.4-54.5-.2.3-.3v26.2a3.4,3.4,0,0,0,.1,1l.1,1v.6l.1.5a28.43,28.43,0,0,0,2.7,7.9c.7,1.2,1.4,2.4,2.2,3.5a20.64,20.64,0,0,0,2.8,3.1,26.92,26.92,0,0,0,3.2,2.7A25.64,25.64,0,0,0,208.82,271Z"/><path class="cls-2" d="M200.62,252.76a9,9,0,0,1-9.1-9,9.17,9.17,0,0,1,7.9-9.1,1.33,1.33,0,0,1,1.5,1.1,1.34,1.34,0,0,1-1.1,1.5,6.43,6.43,0,0,0,.9,12.8h.6a1.36,1.36,0,1,1,.3,2.7Zm25.8-9.1a9,9,0,0,0-6.6-8.7,1.3,1.3,0,1,0-.7,2.5,6.48,6.48,0,0,1-1.8,12.7h-.7a1.35,1.35,0,1,0-.3,2.69h.9A9.22,9.22,0,0,0,226.42,243.66Zm-12.3,7.8a1.32,1.32,0,0,0-1.3-1.3h-7.6a1.3,1.3,0,0,0,0,2.6h7.6a1.32,1.32,0,0,0,1.3-1.3Zm-2.6,3.7a1.33,1.33,0,0,0-1.3-1.31h-2.4a1.31,1.31,0,0,0,0,2.61h2.4a1.21,1.21,0,0,0,1.3-1.3Z"/><path class="cls-2" d="M208.92,246.85a10.6,10.6,0,1,1,9.3-15.6,1.35,1.35,0,0,1-.6,1.8,1.31,1.31,0,0,1-1.8-.6,7.92,7.92,0,1,0-3.3,10.7,8.07,8.07,0,0,0,3.3-3.3,1.32,1.32,0,0,1,2.3,1.3A9.85,9.85,0,0,1,208.92,246.85Z"/><path class="cls-4" d="M188.62,101.26c-.1-1-.4-3-.8-2.8-1.1.7-.4,3.9-1.3,5.9s-3,2.9-4.9,4.1h0a13.6,13.6,0,0,1-4.5.1c-2.4-.2-4-1.2-6.1-2a11.06,11.06,0,0,1-3.3-6.31.2.2,0,1,0-.4,0c-.9,3.91.9,6.91,3.8,9.1a11.85,11.85,0,0,0,6.2,2.81c1.9.3,5.1.3,6.4-1.41C187.12,109.26,189.12,104.86,188.62,101.26Z"/><path class="cls-4" d="M226.82,100.56c-.1-1-.4-3-.8-2.81-1.1.7-.4,3.91-1.3,5.91s-3,2.9-4.9,4.09h0a13.09,13.09,0,0,1-4.5.1c-2.4-.19-4-1.19-6.1-2a11,11,0,0,1-3.3-6.3.2.2,0,1,0-.4,0c-.9,3.9.9,6.9,3.8,9.1a11.76,11.76,0,0,0,6.2,2.8c1.9.3,5.1.3,6.4-1.4C225.42,108.56,227.42,104.16,226.82,100.56Z"/><path class="cls-4" d="M199.72,107.86a5.37,5.37,0,0,0-.5-2.1,3,3,0,0,0-3.4-1,3.11,3.11,0,0,0-2,2.3,2,2,0,0,0,1.2,2.4.72.72,0,0,0,.9-.5.62.62,0,0,0-.2-.7c.1.1.1-.3.1-.4.1-.3.1-.2.3-.4s.6-.5.9-.3a4.38,4.38,0,0,0,.6,2.3l.1.1a1,1,0,0,0,1.3.3l.3-.3.1-.1A2.88,2.88,0,0,0,199.72,107.86Z"/><path class="cls-4" d="M202.82,124.06a.89.89,0,0,0-1.2,0c-1.2,1.1-.9,2.6-1.2,4.19a4.11,4.11,0,0,1-5.2,2.71,5.21,5.21,0,0,0-.5-.2,4.58,4.58,0,0,1-2.8-3.5c-.3-1.4-.2-2.7-1.1-3.9-.1-.2-.4-.2-.6,0h0a6.46,6.46,0,0,0-.6,6.3,7.68,7.68,0,0,0,5.9,4.39,6.9,6.9,0,0,0,6.4-2.6C203.42,129.76,204.82,125.86,202.82,124.06Z"/><path class="cls-5" d="M248.72,134.35c2.7-2.6,2.4-6.19-2.1-8.1-4.1-1.69-10.6-1.3-14.2.81-5.1,2.9-2.6,8.29,3.6,9.7l.6.1a15.38,15.38,0,0,0,9-.6A8.13,8.13,0,0,0,248.72,134.35Z"/><path class="cls-5" d="M166.52,134.35c3.6-2.6,3.2-6.19-2.7-8.1-5.3-1.69-13.7-1.3-18.4.81-6.7,2.9-3.4,8.29,4.7,9.7l.7.1a25.72,25.72,0,0,0,11.7-.6A12.29,12.29,0,0,0,166.52,134.35Z"/><path class="cls-3" d="M67.32,142l1-.9a4.86,4.86,0,0,1,6.8.2l63.5,68.4a4.86,4.86,0,0,1-.2,6.8l-1,.9a4.86,4.86,0,0,1-6.8-.2l-63.5-68.4A4.86,4.86,0,0,1,67.32,142Z"/><circle class="cls-6" cx="134.12" cy="211.46" r="3.5"/><path class="cls-7" d="M134.12,215.66a4.2,4.2,0,1,1,4.2-4.2A4.23,4.23,0,0,1,134.12,215.66Zm0-7.1a2.9,2.9,0,1,0,2.9,2.9h0A2.9,2.9,0,0,0,134.12,208.56Z"/><path class="cls-2" d="M22.52,241.06a7,7,0,0,0,4.5-.6c1.7-.7,3.4-1.5,3.8-1.61s.1,1.4.2,2.4a18.55,18.55,0,0,1-2.7,13c-3.3,4.9-7.7,9.8-14.6,6.6-4.8-2.2.1-8,1.4-8.6,1.1-.5-.3-8.1,5.7-6.1,3.6,1.2,2.8-2.5,2.2-4.3A6,6,0,0,0,22.52,241.06Z"/><path class="cls-2" d="M279.92,152.85s28.5,10.5,41.3,53.7c10.2,34.7-7.7,78.1-7.7,78.1l-5.7-.9s-.8-65.5-.8-68-20.2-19.3-28.4-49.6C276,156.46,279.92,152.85,279.92,152.85Z"/><path class="cls-2" d="M306.72,277.75s2.2,1.21,9.7.71c0,0-1.3,10-2.5,12.39s-5.3,8.71-10.2,8.61-5.4-6.5-2.6-8.71c0,0-.9-8.4,3.7-7.79S306.62,279.16,306.72,277.75Z"/><path class="cls-3" d="M264.42,214.56l-1.3-.3a4.82,4.82,0,0,1-3.6-5.8l13.3-58.9a4.82,4.82,0,0,1,5.8-3.6l1.3.3a4.82,4.82,0,0,1,3.6,5.8L270.22,211A4.82,4.82,0,0,1,264.42,214.56Z"/><circle class="cls-6" cx="265.42" cy="207.06" r="3.5"/><path class="cls-7" d="M265.42,211.26a4.2,4.2,0,1,1,4.2-4.2h0a4.23,4.23,0,0,1-4.2,4.2Zm0-7.1a2.9,2.9,0,1,0,2.9,2.89h0A2.9,2.9,0,0,0,265.42,204.16Z"/><circle class="cls-8" cx="167.12" cy="356.96" r="82"/><circle class="cls-9" cx="167.12" cy="356.96" r="65.6"/><circle class="cls-2" cx="167.12" cy="356.96" r="62.6"/><path class="cls-10" d="M167.12,268.46a93.53,93.53,0,0,0-68.6,29.89,7.76,7.76,0,0,0,.5,11c.2.21.4.3.5.5h0a3.85,3.85,0,0,0,5.2-.5A82,82,0,0,1,220.32,300a83.35,83.35,0,0,1,9.4,9.39,3.76,3.76,0,0,0,5.2.5h0a7.91,7.91,0,0,0,1.4-11,2.43,2.43,0,0,0-.4-.5A93.88,93.88,0,0,0,167.12,268.46Z"/></g></g></g></svg>