<svg xmlns="http://www.w3.org/2000/svg" viewBox="0 0 316.47 441.19"><defs><style>.cls-1{fill:none;stroke:#cdcfd3;stroke-linecap:round;stroke-linejoin:round;}.cls-2{fill:#fff;}.cls-3{fill:#2374c3;}.cls-4{fill:#48474f;}.cls-5{fill:#ff7872;}.cls-6{fill:#f6921e;}.cls-7{fill:#f05a24;}.cls-8{fill:#303030;}.cls-9{fill:#6d6d6d;}.cls-10{fill:#dadada;}</style></defs><title>右走-睁眼</title><g id="图层_2" data-name="图层 2"><g id="图层_1-2" data-name="图层 1"><g id="右走-睁眼"><path class="cls-1" d="M162.6,26a1.4,1.4,0,0,0,1.84-.08l5.37-5.66a1.37,1.37,0,1,0-2-1.87L162.44,24A1.34,1.34,0,0,0,162.6,26Z"/><path class="cls-1" d="M147.32,19.29A10.91,10.91,0,0,0,162.71,19a10.72,10.72,0,0,0,2.46-11,1.41,1.41,0,1,0-2.69.85,8.43,8.43,0,0,1,.17,4.8,8.18,8.18,0,1,1-5.74-10,1.41,1.41,0,0,0,1.57-.84,1.39,1.39,0,0,0-.81-1.77,11,11,0,0,0-10.88,3A11.07,11.07,0,0,0,147.32,19.29Z"/><path class="cls-1" d="M315.53,237.82c-3.7-33.14-19.09-50.07-26.87-56.62a36.28,36.28,0,0,0-2.64-2.91l.71-1.7a4.88,4.88,0,0,0-2.64-6.35l-1.23-.52a4.78,4.78,0,0,0-5.14.92,73.82,73.82,0,0,0-11.83-7.77,91.55,91.55,0,0,0-72-96.27,39.44,39.44,0,0,0-1.71-16.24A41.86,41.86,0,0,0,184,36.11,49.33,49.33,0,0,0,170.45,25.2l.36-.34a1.33,1.33,0,0,0-.06-1.94h0a1.33,1.33,0,0,0-1.94.06h0l-1.74,1.83a1.37,1.37,0,1,0,2,1.87l.23-.16c.1,0,.08.12.18.13a48.92,48.92,0,0,1,13.35,10.68,40.25,40.25,0,0,1,7.86,13.58,38,38,0,0,1,1.57,15.3l-1.68-.3A91.57,91.57,0,0,0,86.51,131.54c-.53.11-.94.14-1.47.25l-.57-.81a4.69,4.69,0,0,0-6.66-1.38l-1.14.71a4.8,4.8,0,0,0-2.16,4.19,69.55,69.55,0,0,0-11.73,4.94l.07-.4s-23.69-1-53.3,23.51c-12.49,10.39-9.5,19.95-6,30.52a148.26,148.26,0,0,0,12.65,27.31c-.29,0-.57-.2-.87-.25a3,3,0,0,1,.26.85c.29,1.78.52,5.68-2.91,3.86-5.57-3-5.41,4.73-6.68,5s-7.21,5.23-2.87,8.23c6.24,4.35,11.42.29,15.51-3.86a15,15,0,0,0,2.43-3.43,47.85,47.85,0,0,0,39.55,44.64L69,276.91a9.41,9.41,0,0,1,7.4,6.38,9.71,9.71,0,0,0,7.31,6.37l10.73,1.89-.24,1.38a6.44,6.44,0,0,0,5.19,7.41l14.28,2.52a6.45,6.45,0,0,0,7.42-5.19l.24-1.38,1.08.19a3.91,3.91,0,0,0,4.52-3.16,1.9,1.9,0,0,1,2.2-1.55l42.54,7.51a1.9,1.9,0,0,1,1.55,2.2,3.9,3.9,0,0,0,3.16,4.52l1.08.19-.24,1.38a6.44,6.44,0,0,0,5.19,7.41l14.28,2.52a6.45,6.45,0,0,0,7.41-5.19l.25-1.38,10.73,1.89a9.28,9.28,0,0,0,9-3.48,9.57,9.57,0,0,1,9.15-3.47l8.46,1.5a48,48,0,0,0,52.44-28.43c-1.78,10.65-3.54,21.21-4.52,27.33l-.93-.47c-.32,1.26,1.77,6.1-2.68,4.81s-5,7-5,7c-3.14,1.68-3.86,8.05,1.05,9s10-4.53,11.53-6.7,4.62-11.78,4.62-11.78l-.69-.12C304.34,295.56,318.66,265.59,315.53,237.82ZM28.85,173.46a78.68,78.68,0,0,0-7.31,21.87,76,76,0,0,0-.94,8.26c-2-10.81-4-23-3.7-24.52S21.06,176.76,28.85,173.46Z"/><circle class="cls-2" cx="174.71" cy="155.93" r="91.5"/><path class="cls-2" d="M62.88,138.85s-23.68-1-53.29,23.5c-12.49,10.39-9.41,20-6,30.52C8.3,207.11,16.72,221,16.72,221l7-.59s-7.32-38.56-6.83-41.32,13.75-3.16,40.81-21.84A67.82,67.82,0,0,0,62.88,138.85Z"/><path class="cls-2" d="M192.56,71.44l-.2,0a.9.9,0,0,1-.73-1,38.22,38.22,0,0,0-1-19.47,39.94,39.94,0,0,0-7.86-13.57,48.59,48.59,0,0,0-13.35-10.68.89.89,0,0,1-.28-1.27.87.87,0,0,1,1.07-.32A49.94,49.94,0,0,1,184,36.11a39,39,0,0,1,8.25,14.25,40.56,40.56,0,0,1,1.08,20.4C193.33,71.07,193,71.41,192.56,71.44Z"/><path class="cls-2" d="M169.74,18.27a1.33,1.33,0,0,0-1.94.07L162.44,24a1.34,1.34,0,0,0,.16,2,1.4,1.4,0,0,0,1.84-.08l5.37-5.66A1.34,1.34,0,0,0,169.74,18.27Z"/><path class="cls-2" d="M162.73,18.86A10.88,10.88,0,1,1,147,3.8,10.77,10.77,0,0,1,157.89.85a1.26,1.26,0,0,1,.8,1.77,1.25,1.25,0,0,1-1.57.84,8.18,8.18,0,1,0,5.74,10.05,7.76,7.76,0,0,0-.16-4.81,1.4,1.4,0,1,1,2.68-.84A11.15,11.15,0,0,1,162.73,18.86Z"/><path class="cls-2" d="M170.77,22.82a1.33,1.33,0,0,0-1.94.06h0l-1.75,1.83a1.43,1.43,0,0,0,.07,1.94,1.41,1.41,0,0,0,1.94-.07h0l1.74-1.82a1.44,1.44,0,0,0-.06-1.94Z"/><path class="cls-2" d="M216.48,302,86.39,279.06C43.75,271.54,14,238,21.54,195.33h0a78.41,78.41,0,0,1,90.83-63.6l130.09,22.94a78.41,78.41,0,0,1,63.6,90.82h0C298.54,288.14,259.12,309.52,216.48,302Z"/><path class="cls-2" d="M185.79,265.31A10.92,10.92,0,0,1,177,252.68a10.78,10.78,0,0,1,11.11-8.9,1.58,1.58,0,0,1,1.41,1.77A1.7,1.7,0,0,1,187.9,247a7.69,7.69,0,0,0-1.57,15.26l.78.14a1.55,1.55,0,1,1-.24,3.1h0ZM218.21,260a10.91,10.91,0,0,0-6-11.71,1.61,1.61,0,0,0-2.08.85,1.68,1.68,0,0,0,.66,2,7.7,7.7,0,0,1-4.69,14.51l-.79-.14a1.56,1.56,0,1,0-.83,3c.39.07.67.22,1.06.29A10.86,10.86,0,0,0,218.21,260ZM202,266.55a1.58,1.58,0,0,0-1.3-1.86l-9-1.58a1.6,1.6,0,1,0-.75,3.12l.29,0,9,1.58a1.57,1.57,0,0,0,1.76-1.31Zm-3.74,3.91a1.57,1.57,0,0,0-1.29-1.85h0l-2.86-.51a1.54,1.54,0,0,0-1.94,1.18,1.6,1.6,0,0,0,1.19,1.94l.29,0,2.86.5a1.61,1.61,0,0,0,1.75-1.31Z"/><path class="cls-2" d="M197,260.17a12.65,12.65,0,1,1,14.26-16.37,1.54,1.54,0,0,1-1.15,1.93,1.6,1.6,0,0,1-1.87-.94,9.46,9.46,0,1,0-6.06,11.93,9.8,9.8,0,0,0,4.52-3.17,1.63,1.63,0,0,1,2.59,2A13,13,0,0,1,197,260.17Z"/><path class="cls-2" d="M113.9,302.7l-14.28-2.52a6.45,6.45,0,0,1-5.19-7.42l.31-1.77a6.45,6.45,0,0,1,7.42-5.19l14.28,2.52a6.44,6.44,0,0,1,5.19,7.41l-.31,1.78A6.39,6.39,0,0,1,113.9,302.7Z"/><path class="cls-2" d="M185.1,300.32l14.28,2.52a6.45,6.45,0,0,1,5.19,7.42l-.31,1.77a6.45,6.45,0,0,1-7.42,5.19l-14.28-2.52a6.44,6.44,0,0,1-5.19-7.41l.31-1.78A6.46,6.46,0,0,1,185.1,300.32Z"/><path class="cls-3" d="M297.38,268.23l5.31.94c-14.87-2.62-29.79-17.64-27.16-32.51h0a10.07,10.07,0,0,0-8.2-11.7L134,201.45a10.06,10.06,0,0,0-11.7,8.19h0a27.27,27.27,0,0,1-31.63,22.14h0L21.92,219.66a47.91,47.91,0,0,0,38.86,55.49l8.47,1.5a9.41,9.41,0,0,1,7.4,6.38h0A9.68,9.68,0,0,0,84,289.39l38.7,6.83a3.91,3.91,0,0,0,4.52-3.16h0a1.9,1.9,0,0,1,2.2-1.55h0L171.83,299a1.9,1.9,0,0,1,1.54,2.2h0a3.9,3.9,0,0,0,3.16,4.52h0l38.7,6.82a9.31,9.31,0,0,0,9.05-3.48h0a9.57,9.57,0,0,1,9.14-3.47l8.37,1.48A47.8,47.8,0,0,0,297.38,268.23Z"/><path class="cls-2" d="M193.64,281.83a31,31,0,0,1-4.09-1,27.35,27.35,0,0,1-3.86-1.7,31.08,31.08,0,0,1-3.56-2.25,20.91,20.91,0,0,1-3.18-2.69,30.43,30.43,0,0,1-5-6.77,26,26,0,0,1-1.66-3.85,23,23,0,0,1-1-4.14,27.82,27.82,0,0,1-.37-4.22v-.51l.05-.3,0-.3.1-1.1.07-1,.18-1,.36-2.07,1.09-6.21,2.92-16.54.05-.3.3.06,53.71,9.26.19,0-4.1,23.24-.36,2.07-.19,1.08-.29,1.07-.29,1.06-.05.3,0,.29-.19.48a27.64,27.64,0,0,1-1.8,3.85,31.44,31.44,0,0,1-2.45,3.52,39.59,39.59,0,0,1-2.87,3.05,27.77,27.77,0,0,1-7,4.65,35.31,35.31,0,0,1-3.91,1.45c-1.39.36-2.75.63-4.12.9a27.65,27.65,0,0,1-4.19.17C196.51,282.23,195.12,282.09,193.64,281.83Zm0-.1a30.52,30.52,0,0,0,4.18.43,30.19,30.19,0,0,0,4.22-.27,27.41,27.41,0,0,0,7.94-2.46,25.53,25.53,0,0,0,6.84-4.79,25,25,0,0,0,2.77-3.06,25.58,25.58,0,0,0,2.24-3.46,26.67,26.67,0,0,0,1.68-3.77l.18-.48.15-.27.06-.3.27-1c.12-.69.34-1.36.46-2.05l.37-2.06,4-22.75.42.48-53.64-9.66.35-.25-2.92,16.55-1.09,6.2-.37,2.07-.17,1a3.4,3.4,0,0,0-.07,1l-.08,1-.05.29,0,.3V255a28.5,28.5,0,0,0,1.28,8.25c.49,1.3,1,2.61,1.56,3.83a20.85,20.85,0,0,0,2.22,3.54,27,27,0,0,0,2.69,3.21A25.39,25.39,0,0,0,193.66,281.73Z"/><path class="cls-2" d="M188.63,262.46a9,9,0,0,1-7.4-10.44,9.17,9.17,0,0,1,9.36-7.59,1.32,1.32,0,0,1-.06,2.63,6.43,6.43,0,0,0-1.34,12.76l.59.1a1.42,1.42,0,0,1,1.27,1.45,1.4,1.4,0,0,1-1.44,1.26ZM215.71,258a9,9,0,0,0-5-9.72,1.3,1.3,0,0,0-1.12,2.34,6.49,6.49,0,0,1-4,12.2l-.69-.12a1.35,1.35,0,1,0-.76,2.6l.88.16A9.31,9.31,0,0,0,215.71,258Zm-13.55,5.43a1.32,1.32,0,0,0-1-1.51l-7.49-1.32a1.3,1.3,0,0,0-.45,2.56l7.49,1.32a1.2,1.2,0,0,0,1.5-1.05Zm-3.12,3.3a1.31,1.31,0,0,0-1-1.5l-2.37-.42a1.3,1.3,0,0,0-.45,2.56l2.37.42a1.33,1.33,0,0,0,1.5-1.06Z"/><path class="cls-2" d="M197.92,258.11a10.6,10.6,0,1,1,11.87-13.75,1.35,1.35,0,0,1-.9,1.67,1.32,1.32,0,0,1-1.67-.9,7.92,7.92,0,1,0-5.11,10,8.09,8.09,0,0,0,3.82-2.68,1.32,1.32,0,1,1,2,1.68A10.22,10.22,0,0,1,197.92,258.11Z"/><path class="cls-4" d="M241,117.14a12.63,12.63,0,0,0-2.23-7.5c-1.68-2.53-4.22-3.69-7.06-4.29-4.41-.88-9.08,2.56-11,6.17-2.12,4-.84,7.67,1.71,10.46a11.78,11.78,0,0,0,5.62,3.83c1.82.63,5,1.18,6.55-.26C238.2,124.68,240.82,120.77,241,117.14Z"/><path class="cls-2" d="M231.83,124.57c-.1,0-.22.06-.32,0A11,11,0,0,1,228,124a19.09,19.09,0,0,1-5.29-2.86,9.8,9.8,0,0,1-1-8.3,8.7,8.7,0,0,1,8.83-5.75c4.72.32,7.7,4.71,8.17,9,.23,2.18-.66,3.75-1.79,5.58S233.61,123.66,231.83,124.57Z"/><path class="cls-4" d="M233.31,115.59a4.3,4.3,0,0,0-.16-2.57,3.76,3.76,0,0,0-2.94-2.34l-.19,0a3.32,3.32,0,0,0-2,.26,3.42,3.42,0,0,0-1.79,1.51,4.68,4.68,0,0,0-.74,4.24c.06.21,0,.31.11.53a3.66,3.66,0,0,0,2.8,2.52l.1,0a3.54,3.54,0,0,0,3.64-1.08A3.76,3.76,0,0,0,233.31,115.59Z"/><path class="cls-4" d="M203.21,111.2a12.68,12.68,0,0,0-2.23-7.51c-1.68-2.53-4.22-3.69-7.06-4.29-4.41-.88-9.08,2.56-11,6.18-2.13,4-.83,7.57,1.71,10.46a11.8,11.8,0,0,0,5.62,3.83c1.82.62,5,1.18,6.55-.27C200.36,118.72,203.1,114.73,203.21,111.2Z"/><path class="cls-2" d="M194,118.61l-.32,0a11,11,0,0,1-3.54-.62,19.16,19.16,0,0,1-5.28-2.86,10,10,0,0,1-1-8.2,8.69,8.69,0,0,1,8.85-5.85c4.72.32,7.7,4.71,8.17,8.95.23,2.17-.66,3.74-1.79,5.58S195.87,117.72,194,118.61Z"/><path class="cls-4" d="M197,109.18a5.3,5.3,0,0,0-1.58-3.12,4,4,0,0,0-3.71-.86,4,4,0,0,0-2.6,3.2,5.18,5.18,0,0,0,.63,4,2.18,2.18,0,0,0,.42.48,3.85,3.85,0,0,0,2.93,1.23,4.54,4.54,0,0,0,2.77-1.34A4.37,4.37,0,0,0,197,109.18Z"/><path class="cls-4" d="M212.9,119.61a5.32,5.32,0,0,0-.13-2.16,3,3,0,0,0-3.17-1.57,3.1,3.1,0,0,0-2.37,1.91,2,2,0,0,0,.76,2.58.73.73,0,0,0,1-.34.63.63,0,0,0-.08-.73c.08.12.15-.27.17-.37.15-.28.13-.18.36-.34s.68-.39.94-.14a4.48,4.48,0,0,0,.19,2.37l.09.11a.94.94,0,0,0,1.22.52l.35-.24.12-.08A1.89,1.89,0,0,0,212.9,119.61Z"/><path class="cls-4" d="M213.24,136.12a.9.9,0,0,0-1.18-.21c-1.38.87-1.34,2.4-1.91,3.92a4.12,4.12,0,0,1-5.59,1.76c-.18-.13-.28-.15-.46-.28a4.6,4.6,0,0,1-2.15-3.94c0-1.43.27-2.69-.41-4-.06-.21-.36-.26-.59-.1h0a6.46,6.46,0,0,0-1.68,6.1,7.69,7.69,0,0,0,5,5.36,6.92,6.92,0,0,0,6.76-1.45C212.84,141.83,214.91,138.14,213.24,136.12Z"/><path class="cls-5" d="M256.67,154.13c3.11-2.09,3.44-5.69-.66-8.34-3.74-2.39-10.21-3.12-14.12-1.68-5.53,2-4,7.72,1.86,10.18l.57.2a15.39,15.39,0,0,0,9,1A7,7,0,0,0,256.67,154.13Z"/><path class="cls-5" d="M175.72,139.86c4-1.94,4.23-5.55-1.25-8.45-4.93-2.59-13.27-3.66-18.26-2.41-7.1,1.7-4.79,7.59,2.94,10.37l.67.22A25.6,25.6,0,0,0,171.45,141,10.62,10.62,0,0,0,175.72,139.86Z"/><path class="cls-3" d="M76.71,130.12l1.14-.72a4.87,4.87,0,0,1,6.66,1.38l50.66,78.39a4.87,4.87,0,0,1-1.38,6.66l-1.14.71a4.85,4.85,0,0,1-6.66-1.38L75.33,136.78A4.86,4.86,0,0,1,76.71,130.12Z"/><circle class="cls-6" cx="130.41" cy="210.26" r="3.5"/><path class="cls-7" d="M129.69,214.3a4.2,4.2,0,1,1,4.87-3.41A4.18,4.18,0,0,1,129.69,214.3Zm1.22-6.9a2.9,2.9,0,1,0,2.35,3.36h0A2.91,2.91,0,0,0,130.91,207.4Z"/><path class="cls-2" d="M15.38,219.93a7,7,0,0,0,4.53.19c1.8-.39,3.61-.89,4-.91s-.14,1.39-.22,2.39a18.55,18.55,0,0,1-4.91,12.34c-4.1,4.25-9.29,8.31-15.53,4-4.34-3,1.49-7.86,2.88-8.22,1.17-.31,1.11-8,6.67-5,3.34,1.8,3.19-2,2.91-3.85A5,5,0,0,0,15.38,219.93Z"/><path class="cls-2" d="M284.17,177.87s26.24,15.29,31.34,60c4,36-21.14,75.58-21.14,75.58l-5.46-1.88s10.59-64.64,11-67.1S283.39,222,280.58,190.74C279.72,180.64,284.17,177.87,284.17,177.87Z"/><path class="cls-2" d="M288.87,305.52s2,1.57,9.43,2.38c0,0-3,9.62-4.61,11.77s-6.73,7.65-11.54,6.7-4.19-7.34-1-9c0,0,.57-8.43,5-7S288.55,306.79,288.87,305.52Z"/><path class="cls-3" d="M257.13,235l-1.23-.52a5,5,0,0,1-2.64-6.36l23.38-56a5,5,0,0,1,6.36-2.63l1.22.52a5,5,0,0,1,2.64,6.35l-23.38,56A4.81,4.81,0,0,1,257.13,235Z"/><circle class="cls-6" cx="260.48" cy="228.72" r="3.5"/><path class="cls-7" d="M259.76,232.76a4.2,4.2,0,1,1,4.87-3.4h0a4.23,4.23,0,0,1-4.87,3.4Zm1.22-6.89a2.9,2.9,0,1,0,2.35,3.36h0A2.9,2.9,0,0,0,261,225.87Z"/><circle class="cls-8" cx="137.66" cy="359.18" r="82"/><circle class="cls-9" cx="137.66" cy="359.18" r="65.6"/><circle class="cls-2" cx="137.66" cy="359.18" r="62.6"/><path class="cls-10" d="M153,272a93.55,93.55,0,0,0-72.75,17.54,7.76,7.76,0,0,0-1.41,10.92c.16.23.34.36.4.58h0a3.86,3.86,0,0,0,5.21.41A82.06,82.06,0,0,1,200,312.28a83.71,83.71,0,0,1,7.62,10.89,3.75,3.75,0,0,0,5,1.4h0A7.91,7.91,0,0,0,215.89,314a1.93,1.93,0,0,0-.3-.56A94.33,94.33,0,0,0,153,272Z"/></g></g></g></svg>