<svg xmlns="http://www.w3.org/2000/svg" viewBox="0 0 316.46 441.29"><defs><style>.cls-1{fill:none;stroke:#cdcfd3;stroke-miterlimit:10;}.cls-2{fill:#fff;}.cls-3{fill:#2374c3;}.cls-4{fill:#48474f;}.cls-5{fill:#ff7872;}.cls-6{fill:#f6921e;}.cls-7{fill:#f05a24;}.cls-8{fill:#303030;}.cls-9{fill:#6d6d6d;}.cls-10{fill:#dadada;}</style></defs><title>右走-闭眼</title><g id="图层_2" data-name="图层 2"><g id="图层_1-2" data-name="图层 1"><g id="右走-闭眼"><path class="cls-1" d="M162.6,26a1.4,1.4,0,0,0,1.84-.08l5.37-5.66a1.37,1.37,0,1,0-2-1.87L162.44,24A1.4,1.4,0,0,0,162.6,26Z"/><path class="cls-1" d="M147.32,19.29A10.91,10.91,0,0,0,162.71,19a10.72,10.72,0,0,0,2.46-11,1.41,1.41,0,1,0-2.69.85,8.43,8.43,0,0,1,.17,4.8,8.18,8.18,0,1,1-5.74-10,1.41,1.41,0,0,0,1.57-.84,1.39,1.39,0,0,0-.81-1.77,11,11,0,0,0-10.88,3A11,11,0,0,0,147.32,19.29Z"/><path class="cls-1" d="M315.51,237.92c-3.7-33.14-19.09-50.07-26.87-56.63-.51-.59-1-1.19-1.61-1.8l.7-1.71a4.81,4.81,0,0,0-2.53-6.33l-1.23-.52a5.08,5.08,0,0,0-5,.74,71.55,71.55,0,0,0-13.07-8.8,91.55,91.55,0,0,0-72-96.27,39.44,39.44,0,0,0-1.71-16.24A41.86,41.86,0,0,0,184,36.11,49.33,49.33,0,0,0,170.45,25.2l.36-.34a1.33,1.33,0,0,0-.06-1.94h0a1.33,1.33,0,0,0-1.94.06h0l-1.74,1.83a1.37,1.37,0,1,0,2,1.87l.23-.16c.1,0,.08.12.18.13a48.92,48.92,0,0,1,13.35,10.68,40.25,40.25,0,0,1,7.86,13.58,38,38,0,0,1,1.57,15.3l-1.68-.3A91.57,91.57,0,0,0,86.51,131.54c-.53.11-.94.14-1.47.25l-.57-.81a4.69,4.69,0,0,0-6.66-1.38l-1.14.71a4.8,4.8,0,0,0-2.16,4.19,69.55,69.55,0,0,0-11.73,4.94l.07-.4s-23.69-1-53.3,23.51c-12.49,10.39-9.5,19.95-6,30.52a148.26,148.26,0,0,0,12.65,27.31c-.29,0-.57-.2-.87-.25a3,3,0,0,1,.26.85c.29,1.78.52,5.68-2.91,3.86-5.57-3-5.41,4.73-6.68,5s-7.21,5.23-2.87,8.23c6.24,4.35,11.42.29,15.51-3.86a15,15,0,0,0,2.43-3.43,47.85,47.85,0,0,0,39.55,44.64L69,276.91a9.41,9.41,0,0,1,7.4,6.38,9.71,9.71,0,0,0,7.31,6.37l10.73,1.89-.24,1.38a6.44,6.44,0,0,0,5.19,7.41l14.28,2.52a6.45,6.45,0,0,0,7.42-5.19l.24-1.38,1.08.19a3.91,3.91,0,0,0,4.52-3.16,1.9,1.9,0,0,1,2.2-1.55l42.54,7.51a1.9,1.9,0,0,1,1.55,2.2,3.9,3.9,0,0,0,3.16,4.52l1.08.19-.24,1.38a6.44,6.44,0,0,0,5.19,7.41l14.28,2.52a6.44,6.44,0,0,0,7.41-5.19l.25-1.38,10.73,1.89a9.28,9.28,0,0,0,9-3.48,9.57,9.57,0,0,1,9.15-3.47l8.46,1.5a48,48,0,0,0,52.44-28.43c-1.78,10.65-3.54,21.21-4.52,27.33l-.93-.47c-.32,1.26,1.77,6.1-2.68,4.81s-5,7-5,7c-3.14,1.68-3.86,8.05,1.05,9s10-4.53,11.53-6.7,4.62-11.78,4.62-11.78l-.69-.12C304.32,295.65,318.66,265.59,315.51,237.92ZM28.85,173.46a78.68,78.68,0,0,0-7.31,21.87,76,76,0,0,0-.94,8.26c-2-10.81-4-23-3.7-24.52S21,176.86,28.85,173.46Z"/><circle class="cls-2" cx="174.7" cy="156.02" r="91.5"/><path class="cls-2" d="M62.86,139s-23.68-1-53.29,23.5c-12.49,10.39-9.41,20-6,30.52,4.7,14.23,13.12,28.11,13.12,28.11l7-.59s-7.32-38.56-6.83-41.32S30.64,176,57.69,157.33A67.11,67.11,0,0,0,62.86,139Z"/><path class="cls-2" d="M192.56,71.44l-.2,0a.9.9,0,0,1-.73-1,38.22,38.22,0,0,0-1-19.47,39.94,39.94,0,0,0-7.86-13.57,48.59,48.59,0,0,0-13.35-10.68.89.89,0,0,1-.28-1.27.87.87,0,0,1,1.07-.32A49.94,49.94,0,0,1,184,36.11a39,39,0,0,1,8.25,14.25,40.45,40.45,0,0,1,1.07,20.4A.63.63,0,0,1,192.56,71.44Z"/><path class="cls-2" d="M169.82,18.39a1.33,1.33,0,0,0-1.94.06l-5.36,5.66a1.33,1.33,0,0,0,.16,1.95,1.4,1.4,0,0,0,1.84-.08l5.37-5.65A1.41,1.41,0,0,0,169.82,18.39Z"/><path class="cls-2" d="M162.71,19A10.88,10.88,0,1,1,147,3.9,10.77,10.77,0,0,1,157.87,1a1.25,1.25,0,0,1,.8,1.76,1.23,1.23,0,0,1-1.56.84,8.19,8.19,0,1,0,5.74,10.05,7.8,7.8,0,0,0-.17-4.8A1.41,1.41,0,1,1,165.37,8,11.18,11.18,0,0,1,162.71,19Z"/><path class="cls-2" d="M170.75,22.92a1.33,1.33,0,0,0-1.94.06h0l-1.74,1.83a1.37,1.37,0,1,0,2,1.87h0l1.74-1.82a1.42,1.42,0,0,0-.06-1.94Z"/><path class="cls-2" d="M216.47,302.1,86.37,279.16C43.73,271.64,14,238.07,21.53,195.43h0a78.39,78.39,0,0,1,90.82-63.6l130.09,22.94A78.39,78.39,0,0,1,306,245.59h0C298.54,288.14,259.11,309.62,216.47,302.1Z"/><path class="cls-2" d="M185.87,265.43A10.92,10.92,0,0,1,177,252.8a10.79,10.79,0,0,1,11.11-8.91,1.59,1.59,0,0,1,1.42,1.78,1.73,1.73,0,0,1-1.58,1.45,7.69,7.69,0,0,0-1.57,15.25l.78.14a1.56,1.56,0,1,1-.24,3.11h0Zm32.42-5.35a10.93,10.93,0,0,0-6-11.72,1.61,1.61,0,0,0-2.08.86,1.69,1.69,0,0,0,.66,2,7.7,7.7,0,0,1-4.69,14.51l-.79-.14a1.56,1.56,0,1,0-.83,3c.39.07.67.22,1.06.29a10.93,10.93,0,0,0,12.63-8.84ZM202,266.65a1.58,1.58,0,0,0-1.3-1.86l-9-1.58a1.6,1.6,0,0,0-.75,3.12l.29.05,9,1.58a1.56,1.56,0,0,0,1.75-1.31Zm-3.72,3.81a1.57,1.57,0,0,0-1.29-1.85h0l-2.86-.51a1.54,1.54,0,0,0-1.94,1.18,1.6,1.6,0,0,0,1.19,1.94l.29,0,2.86.5a1.54,1.54,0,0,0,1.75-1.31Z"/><path class="cls-2" d="M197,260.17a12.65,12.65,0,1,1,14.26-16.37,1.54,1.54,0,0,1-1.15,1.93,1.59,1.59,0,0,1-1.87-.94,9.46,9.46,0,1,0-6.06,11.93,9.8,9.8,0,0,0,4.52-3.17,1.63,1.63,0,0,1,2.59,2A12.8,12.8,0,0,1,197,260.17Z"/><path class="cls-2" d="M113.9,302.7l-14.28-2.52a6.45,6.45,0,0,1-5.19-7.42l.31-1.77a6.45,6.45,0,0,1,7.42-5.19l14.28,2.52a6.44,6.44,0,0,1,5.19,7.41l-.31,1.78A6.33,6.33,0,0,1,113.9,302.7Z"/><path class="cls-2" d="M185.08,300.42l14.28,2.52a6.44,6.44,0,0,1,5.19,7.41l-.31,1.78a6.45,6.45,0,0,1-7.42,5.19l-14.28-2.52a6.46,6.46,0,0,1-5.19-7.41l.32-1.78A6.37,6.37,0,0,1,185.08,300.42Z"/><path class="cls-3" d="M297.46,268.35l5.31.94c-14.87-2.63-29.79-17.64-27.16-32.52h0a10.08,10.08,0,0,0-8.2-11.7L134,201.54a10.08,10.08,0,0,0-11.7,8.2h0a27.26,27.26,0,0,1-31.62,22.14h0L21.91,219.76a47.9,47.9,0,0,0,38.85,55.49l8.47,1.49a9.46,9.46,0,0,1,7.41,6.39h0a9.65,9.65,0,0,0,7.3,6.36l38.7,6.83a3.91,3.91,0,0,0,4.52-3.17h0a1.91,1.91,0,0,1,2.2-1.54h0l42.45,7.49a1.9,1.9,0,0,1,1.54,2.2h0a3.91,3.91,0,0,0,3.16,4.52h0l38.71,6.82a9.3,9.3,0,0,0,9-3.48h0a9.55,9.55,0,0,1,9.14-3.47l8.47,1.5A47.93,47.93,0,0,0,297.46,268.35Z"/><path class="cls-2" d="M193.62,281.92a29,29,0,0,1-4.08-1,27,27,0,0,1-3.87-1.7,32,32,0,0,1-3.56-2.25,20.91,20.91,0,0,1-3.18-2.69,30.66,30.66,0,0,1-5-6.77,26,26,0,0,1-1.66-3.85,22.17,22.17,0,0,1-1-4.14,28,28,0,0,1-.38-4.23v-.51l.05-.29.06-.3.09-1.1.07-1,.18-1,.36-2.07,1.1-6.21,2.91-16.54.06-.3.29.06,53.71,9.26.19,0-4.09,23.24-.37,2.07-.19,1.08-.29,1.07-.29,1.06,0,.3-.05.29-.19.48a27.48,27.48,0,0,1-1.79,3.84,34.43,34.43,0,0,1-2.45,3.53,41.76,41.76,0,0,1-2.88,3,27.77,27.77,0,0,1-7,4.65,34.59,34.59,0,0,1-3.91,1.45c-1.38.36-2.75.63-4.12.89a27.64,27.64,0,0,1-4.19.18C196.49,282.33,195.1,282.18,193.62,281.92Zm0-.09a30.66,30.66,0,0,0,4.19.43A30.14,30.14,0,0,0,202,282a27.57,27.57,0,0,0,8-2.46,25.48,25.48,0,0,0,6.83-4.79,25.1,25.1,0,0,0,2.78-3.06,26.63,26.63,0,0,0,2.23-3.47,26,26,0,0,0,1.68-3.76l.19-.48.15-.27.05-.3.27-1c.12-.69.34-1.36.46-2.05l.37-2.07,4-22.75.42.49-53.64-9.67.35-.24-2.91,16.55-1.1,6.2-.36,2.07-.18,1a3.4,3.4,0,0,0-.07,1l-.08,1-.05.29,0,.3v.51a28.23,28.23,0,0,0,1.29,8.25c.48,1.3,1,2.6,1.56,3.83a19.79,19.79,0,0,0,2.22,3.53,26.3,26.3,0,0,0,2.68,3.22A25.65,25.65,0,0,0,193.64,281.83Z"/><path class="cls-2" d="M188.72,262.48a9.06,9.06,0,0,1-7.4-10.45,9.17,9.17,0,0,1,9.36-7.59,1.35,1.35,0,0,1,1.29,1.35,1.33,1.33,0,0,1-1.34,1.28,6.43,6.43,0,0,0-1.34,12.77l.59.1a1.36,1.36,0,0,1-.17,2.71Zm27-4.48a9,9,0,0,0-5-9.72,1.3,1.3,0,0,0-1.12,2.34,6.49,6.49,0,0,1-4,12.2l-.69-.12a1.35,1.35,0,1,0-.76,2.6l.88.16A9.24,9.24,0,0,0,215.71,258Zm-13.47,5.54a1.31,1.31,0,0,0-1.05-1.5l-7.48-1.32a1.3,1.3,0,0,0-.46,2.56l7.49,1.32a1.32,1.32,0,0,0,1.5-1.06Zm-3.2,3.19a1.31,1.31,0,0,0-1-1.5l-2.37-.42a1.3,1.3,0,0,0-.45,2.56l2.37.42a1.2,1.2,0,0,0,1.5-1.06Z"/><path class="cls-2" d="M197.92,258.11a10.6,10.6,0,1,1,11.87-13.75,1.35,1.35,0,0,1-.9,1.67,1.32,1.32,0,0,1-1.67-.9,7.92,7.92,0,1,0-5.11,10,8.09,8.09,0,0,0,3.82-2.68,1.32,1.32,0,1,1,2,1.68A9.89,9.89,0,0,1,197.92,258.11Z"/><path class="cls-4" d="M203.21,111.2c.08-1,.13-3-.3-2.9-1.2.5-1.07,3.77-2.3,5.58s-3.46,2.34-5.54,3.19h0a13.4,13.4,0,0,1-4.45-.68c-2.33-.62-3.73-1.88-5.66-3a11.09,11.09,0,0,1-2.16-6.78.2.2,0,1,0-.39-.07c-1.56,3.69-.31,6.95,2.16,9.62a11.8,11.8,0,0,0,5.62,3.84c1.82.62,5,1.18,6.55-.27C200.35,118.81,203.08,114.83,203.21,111.2Z"/><path class="cls-4" d="M241,117.14c.08-1,.13-3-.3-2.9-1.2.5-1.07,3.77-2.3,5.59s-3.46,2.33-5.54,3.18h0a13.4,13.4,0,0,1-4.45-.68c-2.33-.61-3.73-1.87-5.66-3a11,11,0,0,1-2.15-6.77.2.2,0,1,0-.4-.07c-1.56,3.68-.31,7,2.16,9.62a11.78,11.78,0,0,0,5.62,3.83c1.82.63,5,1.18,6.55-.27C238.19,124.78,240.92,120.79,241,117.14Z"/><path class="cls-4" d="M213,119.62a5.27,5.27,0,0,0-.13-2.15,3,3,0,0,0-3.17-1.58,3.11,3.11,0,0,0-2.37,1.92,2,2,0,0,0,.76,2.57.72.72,0,0,0,1-.33.63.63,0,0,0-.08-.73c.08.12.15-.28.17-.37.15-.28.13-.18.36-.35s.68-.38.94-.14a4.36,4.36,0,0,0,.19,2.37l.08.12a1,1,0,0,0,1.23.52l.35-.24.12-.08A3,3,0,0,0,213,119.62Z"/><path class="cls-4" d="M213.24,136.12a.9.9,0,0,0-1.18-.21c-1.38.87-1.34,2.4-1.91,3.92a4.12,4.12,0,0,1-5.59,1.76c-.18-.13-.28-.15-.46-.28a4.6,4.6,0,0,1-2.15-3.94c0-1.43.27-2.69-.41-4-.06-.21-.36-.26-.59-.1h0a6.46,6.46,0,0,0-1.68,6.1,7.69,7.69,0,0,0,5,5.36,6.92,6.92,0,0,0,6.76-1.45C212.84,141.83,214.9,138.24,213.24,136.12Z"/><path class="cls-5" d="M256.65,154.23c3.11-2.09,3.44-5.69-.66-8.34-3.74-2.39-10.21-3.12-14.12-1.68-5.53,2-4,7.72,1.86,10.18l.57.2a15.39,15.39,0,0,0,9,1A8,8,0,0,0,256.65,154.23Z"/><path class="cls-5" d="M175.7,140c4-1.94,4.23-5.55-1.25-8.45-4.92-2.6-13.27-3.66-18.26-2.41-7.1,1.69-4.79,7.59,2.94,10.37l.68.22a25.56,25.56,0,0,0,11.62,1.44A12.41,12.41,0,0,0,175.7,140Z"/><path class="cls-3" d="M76.69,130.21l1.14-.71a4.87,4.87,0,0,1,6.66,1.38l50.66,78.39a4.85,4.85,0,0,1-1.38,6.66l-1.14.71a4.85,4.85,0,0,1-6.66-1.38L75.31,136.88A4.88,4.88,0,0,1,76.69,130.21Z"/><circle class="cls-6" cx="130.41" cy="210.26" r="3.5"/><path class="cls-7" d="M129.68,214.39a4.2,4.2,0,1,1,4.86-3.4A4.22,4.22,0,0,1,129.68,214.39Zm1.23-7a2.9,2.9,0,1,0,2.35,3.36h0A2.91,2.91,0,0,0,130.91,207.4Z"/><path class="cls-2" d="M15.36,220a7.06,7.06,0,0,0,4.54.19c1.79-.39,3.61-.89,4-.92s-.15,1.4-.22,2.4A18.56,18.56,0,0,1,18.78,234c-4.1,4.25-9.28,8.31-15.52,4-4.35-3,1.48-7.86,2.87-8.23,1.17-.3,1.11-8,6.67-5,3.34,1.8,3.19-2,2.91-3.86A5.23,5.23,0,0,0,15.36,220Z"/><path class="cls-2" d="M284.17,177.87s26.24,15.29,31.34,60c4,36-21.14,75.58-21.14,75.58l-5.46-1.88s10.59-64.64,11-67.1S283.39,222,280.58,190.74C279.7,180.73,284.17,177.87,284.17,177.87Z"/><path class="cls-2" d="M288.87,305.52s2,1.57,9.43,2.38c0,0-3,9.62-4.61,11.77s-6.73,7.65-11.54,6.7-4.19-7.34-1-9c0,0,.57-8.43,5-7S288.53,306.88,288.87,305.52Z"/><path class="cls-3" d="M258.19,235.94l-1.23-.52a4.83,4.83,0,0,1-2.54-6.34l23.33-55.7a4.81,4.81,0,0,1,6.33-2.53l1.23.52a4.82,4.82,0,0,1,2.54,6.33l-23.33,55.7A4.82,4.82,0,0,1,258.19,235.94Z"/><circle class="cls-6" cx="260.47" cy="228.72" r="3.5"/><path class="cls-7" d="M259.75,232.86a4.2,4.2,0,1,1,4.86-3.41h0a4.22,4.22,0,0,1-4.86,3.41Zm1.23-7a2.9,2.9,0,1,0,2.35,3.36h0A2.9,2.9,0,0,0,261,225.87Z"/><circle class="cls-8" cx="137.64" cy="359.28" r="82"/><circle class="cls-9" cx="137.64" cy="359.28" r="65.6"/><circle class="cls-2" cx="137.64" cy="359.28" r="62.6"/><path class="cls-10" d="M153,272.12a93.53,93.53,0,0,0-72.75,17.54,7.75,7.75,0,0,0-1.42,10.92c.16.23.34.36.4.57h0a3.86,3.86,0,0,0,5.21.42,82.06,82.06,0,0,1,115.48,10.81,83.71,83.71,0,0,1,7.62,10.89,3.77,3.77,0,0,0,5,1.4h0a7.91,7.91,0,0,0,3.29-10.59,2.47,2.47,0,0,0-.31-.57A94,94,0,0,0,153,272.12Z"/></g></g></g></svg>