<svg xmlns="http://www.w3.org/2000/svg" viewBox="0 0 324.87 438.96"><defs><style>.cls-1{fill:none;stroke:#cdcfd3;stroke-miterlimit:10;}.cls-2{fill:#fff;}.cls-3{fill:#2374c3;}.cls-4{fill:#48474f;}.cls-5{fill:#ff7872;}.cls-6{fill:#f6921e;}.cls-7{fill:#f05a24;}.cls-8{fill:#303030;}.cls-9{fill:#6d6d6d;}.cls-10{fill:#dadada;}</style></defs><title>左站立-闭眼</title><g id="图层_2" data-name="图层 2"><g id="图层_1-2" data-name="图层 1"><g id="左站立-闭眼"><path class="cls-1" d="M191.55,22.46l-4.3-6.5a1.37,1.37,0,0,0-2.3,1.5l4.3,6.5a1.37,1.37,0,0,0,2.3-1.5Z"/><path class="cls-1" d="M210.45,5.36a11,11,0,0,0-10.2-4.8,1.39,1.39,0,0,0-1.1,1.6,1.41,1.41,0,0,0,1.4,1.1,8.18,8.18,0,1,1-7.4,8.9,8.52,8.52,0,0,1,1-4.7,1.41,1.41,0,1,0-2.5-1.3,10.71,10.71,0,0,0,.5,11.3,10.91,10.91,0,0,0,15.1,3A11.05,11.05,0,0,0,210.45,5.36Z"/><path class="cls-1" d="M9.15,278.76h-.7s1.4,10,2.5,12.4,5.3,8.7,10.2,8.6,5.4-6.5,2.6-8.7c0,0,.9-8.3-3.7-7.8s-1.7-3.91-1.8-5.2l-1,.29c.1-6.2.2-16.9.3-27.7a48,48,0,0,0,46.7,37.1h8.6a9.56,9.56,0,0,1,8.4,5,9.29,9.29,0,0,0,8.3,5h10.9v1.4a6.44,6.44,0,0,0,6.4,6.4h14.5a6.44,6.44,0,0,0,6.4-6.4v-1.4h1.1a3.9,3.9,0,0,0,3.9-3.9,1.89,1.89,0,0,1,1.9-1.89h43.2a1.89,1.89,0,0,1,1.9,1.89,3.9,3.9,0,0,0,3.9,3.9h1.1v1.4a6.44,6.44,0,0,0,6.4,6.4h14.5a6.44,6.44,0,0,0,6.4-6.4v-1.4H223a9.68,9.68,0,0,0,8.3-5,9.44,9.44,0,0,1,8.4-5h8.5a47.84,47.84,0,0,0,46.7-37.09,14.65,14.65,0,0,0,1.8,3.8c3.3,4.79,7.7,9.7,14.6,6.5,4.8-2.2-.1-8-1.4-8.6s.3-8.1-5.7-6.1c-3.7,1.2-2.8-2.6-2.2-4.3a3,3,0,0,1,.4-.8c-.3,0-.6.1-.9.1a148.14,148.14,0,0,0,17.2-24.7c5.3-9.8,9.9-18.71-.6-31.1-24.9-29.3-48.4-32.41-48.4-32.41v.4a69.84,69.84,0,0,0-10.7-6.9,4.8,4.8,0,0,0-1.4-4.5l-1-.89a4.68,4.68,0,0,0-6.8.19l-.7.7c-.5-.2-.9-.3-1.4-.5a91.56,91.56,0,0,0-91.1-82.69h-1.7a38.18,38.18,0,0,1,4.2-14.8,40.17,40.17,0,0,1,10.1-12,48.81,48.81,0,0,1,15-8.2c.1,0,.1-.1.2-.1l.2.2a1.37,1.37,0,0,0,2.3-1.5l-1.4-2.1h0a1.33,1.33,0,0,0-1.9-.4h0a1.33,1.33,0,0,0-.4,1.9l.3.4a49.21,49.21,0,0,0-15.2,8.4,41.68,41.68,0,0,0-10.6,12.6,39.42,39.42,0,0,0-4.5,15.7,91.54,91.54,0,0,0-87.6,82.3,70.62,70.62,0,0,0-14.4,6.4,5.08,5.08,0,0,0-4.8-1.61l-1.3.3a4.83,4.83,0,0,0-3.6,5.81l.4,1.8c-.7.5-1.3,1-1.9,1.5-8.8,5.1-26.9,19.1-36.3,51.1C-4.25,233.26,4.65,265.35,9.15,278.76ZM308,200.46c0,1.5-4.1,13.2-7.9,23.5a75.5,75.5,0,0,0,.5-8.3,78.15,78.15,0,0,0-3.4-22.81C304.25,197.56,308.05,199,308,200.46Z"/><circle class="cls-2" cx="156.55" cy="150.35" r="91.5"/><path class="cls-2" d="M271.55,172c23.4,23.1,36.4,25.8,36.4,28.6s-13.9,39.5-13.9,39.5l6.8,1.8s10.7-12.19,17.8-25.39c5.2-9.8,9.9-18.71-.6-31.11-24.9-29.29-48.4-32.39-48.4-32.39A67.38,67.38,0,0,0,271.55,172Z"/><path class="cls-2" d="M153.05,63.16a40.48,40.48,0,0,1,4.6-19.91,39.08,39.08,0,0,1,10.6-12.59,49.83,49.83,0,0,1,15.5-8.5.89.89,0,0,1,.5,1.7,48.81,48.81,0,0,0-15,8.2,40.17,40.17,0,0,0-10.1,12,38.22,38.22,0,0,0-4.4,19,.9.9,0,0,1-.9.9h-.2A.64.64,0,0,1,153.05,63.16Z"/><path class="cls-2" d="M184.85,17.56l4.3,6.5a1.4,1.4,0,0,0,1.8.4,1.34,1.34,0,0,0,.5-1.9l-4.3-6.5a1.33,1.33,0,0,0-1.9-.4A1.4,1.4,0,0,0,184.85,17.56Z"/><path class="cls-2" d="M191.45,6.16a1.41,1.41,0,1,1,2.5,1.3,7.74,7.74,0,0,0-1,4.7,8.18,8.18,0,1,0,7.4-8.9,1.24,1.24,0,0,1-1.4-1.1,1.26,1.26,0,0,1,1.1-1.6,10.77,10.77,0,0,1,10.2,4.8,10.89,10.89,0,1,1-18.1,12.1A11.18,11.18,0,0,1,191.45,6.16Z"/><path class="cls-2" d="M183.55,20a1.42,1.42,0,0,0-.4,1.9l1.4,2.1h0a1.37,1.37,0,0,0,2.3-1.5l-1.4-2.1h0a1.33,1.33,0,0,0-1.9-.4Z"/><path class="cls-2" d="M11.65,215.75h0a78.41,78.41,0,0,1,78.4-78.4h132.1a78.41,78.41,0,0,1,78.4,78.41h0c0,43.3-35.1,71.2-78.4,71.2H90.05C46.75,287,11.65,259,11.65,215.75Z"/><path class="cls-2" d="M125.45,256.16h0a1.56,1.56,0,0,1,.3-3.1h.8a7.69,7.69,0,0,0,1.1-15.3,1.71,1.71,0,0,1-1.3-1.7,1.58,1.58,0,0,1,1.7-1.5,10.79,10.79,0,0,1,9.4,10.7,10.93,10.93,0,0,1-10.9,10.9Zm-29.9-10.9h0a10.93,10.93,0,0,0,10.9,10.9c.4,0,.7-.11,1.1-.11a1.55,1.55,0,1,0-.3-3.09h-.8a7.7,7.7,0,0,1-2.1-15.11,1.67,1.67,0,0,0,1-1.89,1.61,1.61,0,0,0-1.9-1.2,10.92,10.92,0,0,0-7.9,10.5Zm14.9,9.3a1.56,1.56,0,0,0,1.5,1.6h9.4a1.6,1.6,0,0,0-.2-3.2h-9.1a1.58,1.58,0,0,0-1.6,1.6Zm3,4.4a1.57,1.57,0,0,0,1.5,1.6h3.2a1.6,1.6,0,0,0,1.5-1.71,1.53,1.53,0,0,0-1.7-1.5h-2.9a1.59,1.59,0,0,0-1.6,1.61Z"/><path class="cls-2" d="M105.25,242.36a1.63,1.63,0,1,1,2.9-1.5,9.76,9.76,0,0,0,3.9,3.9,9.46,9.46,0,1,0-3.9-12.8,1.59,1.59,0,0,1-2,.6,1.54,1.54,0,0,1-.8-2.1,12.65,12.65,0,1,1,11.2,18.6A12.8,12.8,0,0,1,105.25,242.36Z"/><path class="cls-2" d="M184.55,299v-1.8a6.44,6.44,0,0,1,6.4-6.4h14.5a6.44,6.44,0,0,1,6.4,6.4V299a6.44,6.44,0,0,1-6.4,6.39H191A6.31,6.31,0,0,1,184.55,299Z"/><path class="cls-2" d="M127.65,297.15V299a6.44,6.44,0,0,1-6.4,6.4h-14.5a6.44,6.44,0,0,1-6.4-6.4v-1.8a6.44,6.44,0,0,1,6.4-6.4h14.5A6.39,6.39,0,0,1,127.65,297.15Z"/><path class="cls-3" d="M64.15,287.56h8.6a9.56,9.56,0,0,1,8.4,5h0a9.29,9.29,0,0,0,8.3,5h39.3a3.9,3.9,0,0,0,3.9-3.9h0a1.9,1.9,0,0,1,1.9-1.9h43.1a1.9,1.9,0,0,1,1.9,1.9h0a3.91,3.91,0,0,0,3.9,3.9h39.3a9.68,9.68,0,0,0,8.3-5h0a9.44,9.44,0,0,1,8.4-5h8.6a47.91,47.91,0,0,0,47.9-47.9h-69.8a27.27,27.27,0,0,1-27.3-27.31h0a10.07,10.07,0,0,0-10.1-10.1H53.25a10.07,10.07,0,0,0-10.1,10.1h0c0,15.11-17.3,27.31-32.4,27.31h5.4A47.93,47.93,0,0,0,64.15,287.56Z"/><path class="cls-2" d="M111.55,270.86a27.13,27.13,0,0,1-4.1-.9c-1.3-.5-2.6-1-3.9-1.6a33.54,33.54,0,0,1-3.6-2.1,28,28,0,0,1-6.1-5.8c-.8-1.1-1.6-2.3-2.3-3.5a33.89,33.89,0,0,1-1.8-3.9,27.46,27.46,0,0,1-1.1-4.1l-.1-.5v-.6l-.1-1.1-.1-1.1V218.85h.2l54.5.2h.3v26.51l-.1,1-.1,1.1v.6l-.1.5a27.46,27.46,0,0,1-1.1,4.1,23,23,0,0,1-1.7,3.9,26.37,26.37,0,0,1-2.3,3.5,30.45,30.45,0,0,1-6.1,5.8,21.22,21.22,0,0,1-3.6,2.1,32,32,0,0,1-3.9,1.6,27.27,27.27,0,0,1-4.1,1,29.66,29.66,0,0,1-4.2.3C114.55,271.06,113.15,271,111.55,270.86Zm20.2-5.2A26.92,26.92,0,0,0,135,263a20.64,20.64,0,0,0,2.8-3.1c.8-1.1,1.5-2.3,2.2-3.5a28.43,28.43,0,0,0,2.7-7.9l.1-.5v-.6l.1-1a3.4,3.4,0,0,0,.1-1v-26.2l.3.3-54.5.2.5-.4v25.2c0,.7.1,1.4.1,2.1l.1,1v.3l.1.3.1.5a26,26,0,0,0,1,4,27.24,27.24,0,0,0,9.7,13.2,27.26,27.26,0,0,0,7.4,3.8,30.59,30.59,0,0,0,4.1,1,31.22,31.22,0,0,0,4.2.3A25.64,25.64,0,0,0,131.75,265.66Z"/><path class="cls-2" d="M107.55,252.76a9,9,0,0,1-9.1-9,9.17,9.17,0,0,1,7.9-9.1,1.33,1.33,0,0,1,1.5,1.1,1.34,1.34,0,0,1-1.1,1.5,6.43,6.43,0,0,0,.9,12.8h.6a1.36,1.36,0,1,1,.3,2.7Zm25.8-9.1a9,9,0,0,0-6.6-8.7,1.3,1.3,0,1,0-.7,2.5,6.48,6.48,0,0,1-1.8,12.7h-.7a1.35,1.35,0,1,0-.3,2.69h.9A9.22,9.22,0,0,0,133.35,243.66Zm-12.3,7.8a1.32,1.32,0,0,0-1.3-1.3h-7.6a1.3,1.3,0,0,0,0,2.6h7.6a1.32,1.32,0,0,0,1.3-1.3Zm-2.6,3.7a1.33,1.33,0,0,0-1.3-1.31h-2.4a1.31,1.31,0,0,0,0,2.61h2.4a1.21,1.21,0,0,0,1.3-1.3Z"/><path class="cls-2" d="M115.85,246.85a10.6,10.6,0,1,1,9.3-15.6,1.35,1.35,0,0,1-.6,1.8,1.31,1.31,0,0,1-1.8-.6,7.92,7.92,0,1,0-3.3,10.7,8.07,8.07,0,0,0,3.3-3.3,1.32,1.32,0,0,1,2.3,1.3A9.85,9.85,0,0,1,115.85,246.85Z"/><path class="cls-4" d="M141.15,110.75c1.3,1.71,4.5,1.71,6.4,1.41a11.85,11.85,0,0,0,6.2-2.81c2.9-2.19,4.7-5.19,3.8-9.1a.2.2,0,1,0-.4,0,11.06,11.06,0,0,1-3.3,6.31c-2.1.8-3.7,1.8-6.1,2a13.6,13.6,0,0,1-4.5-.1h0c-1.9-1.2-4-2.1-4.9-4.1s-.2-5.2-1.3-5.9c-.4-.2-.7,1.8-.8,2.8C135.75,104.86,137.75,109.26,141.15,110.75Z"/><path class="cls-4" d="M103,110.05c1.3,1.7,4.5,1.7,6.4,1.4a11.76,11.76,0,0,0,6.2-2.8c2.9-2.2,4.7-5.2,3.8-9.1a.2.2,0,1,0-.4,0,11,11,0,0,1-3.3,6.3c-2.1.81-3.7,1.81-6.1,2a13.09,13.09,0,0,1-4.5-.1h0c-1.9-1.19-4-2.09-4.9-4.09s-.2-5.21-1.3-5.91c-.4-.19-.7,1.81-.8,2.81C97.45,104.16,99.45,108.56,103,110.05Z"/><path class="cls-4" d="M125.45,109.46l.1.1.3.3a1,1,0,0,0,1.3-.3l.1-.1a4.38,4.38,0,0,0,.6-2.3c.3-.2.7.1.9.3s.2.1.3.4c0,.1,0,.5.1.4a.62.62,0,0,0-.2.7.72.72,0,0,0,.9.5,2,2,0,0,0,1.2-2.4,3.11,3.11,0,0,0-2-2.3,3,3,0,0,0-3.4,1,5.37,5.37,0,0,0-.5,2.1A2.88,2.88,0,0,0,125.45,109.46Z"/><path class="cls-4" d="M123,131.45a6.9,6.9,0,0,0,6.4,2.6,7.68,7.68,0,0,0,5.9-4.39,6.46,6.46,0,0,0-.6-6.3h0c-.2-.2-.5-.2-.6,0-.9,1.2-.8,2.5-1.1,3.9a4.58,4.58,0,0,1-2.8,3.5,5.21,5.21,0,0,0-.5.2,4.11,4.11,0,0,1-5.2-2.71c-.3-1.59,0-3.09-1.2-4.19a.89.89,0,0,0-1.2,0C120.05,125.86,121.45,129.76,123,131.45Z"/><path class="cls-5" d="M79.25,136.26a15.38,15.38,0,0,0,9,.6l.6-.1c6.2-1.41,8.7-6.8,3.6-9.7-3.6-2.11-10.1-2.5-14.2-.81-4.5,1.91-4.8,5.5-2.1,8.1A8.13,8.13,0,0,0,79.25,136.26Z"/><path class="cls-5" d="M162.35,136.26a25.72,25.72,0,0,0,11.7.6l.7-.1c8.1-1.41,11.4-6.8,4.7-9.7-4.7-2.11-13.1-2.5-18.4-.81-5.9,1.91-6.3,5.5-2.7,8.1A12.29,12.29,0,0,0,162.35,136.26Z"/><path class="cls-3" d="M257.75,148.76l-63.5,68.4a4.86,4.86,0,0,1-6.8.2l-1-.9a4.86,4.86,0,0,1-.2-6.8l63.5-68.4a4.86,4.86,0,0,1,6.8-.2l1,.9A4.86,4.86,0,0,1,257.75,148.76Z"/><circle class="cls-6" cx="190.75" cy="211.46" r="3.5"/><path class="cls-7" d="M186.55,211.46a4.2,4.2,0,1,1,4.2,4.2A4.23,4.23,0,0,1,186.55,211.46Zm1.3,0h0a2.9,2.9,0,1,0,2.9-2.9A2.9,2.9,0,0,0,187.85,211.46Z"/><path class="cls-2" d="M301.85,241.85c-.6,1.8-1.4,5.5,2.2,4.3,6-2,4.6,5.6,5.7,6.1,1.3.6,6.2,6.4,1.4,8.6-6.9,3.2-11.3-1.7-14.6-6.6a18.55,18.55,0,0,1-2.7-13c.1-1-.2-2.5.2-2.4s2.1.91,3.8,1.61a7,7,0,0,0,4.5.6A6,6,0,0,0,301.85,241.85Z"/><path class="cls-2" d="M46.25,166.15c-8.2,30.3-28.4,47.1-28.4,49.6s-.8,68-.8,68l-5.7.9s-17.9-43.4-7.7-78.1c12.8-43.2,41.3-53.7,41.3-53.7S48.85,156.46,46.25,166.15Z"/><path class="cls-2" d="M20.05,283c4.6-.61,3.7,7.79,3.7,7.79,2.8,2.21,2.3,8.6-2.6,8.71s-9-6.21-10.2-8.61-2.5-12.39-2.5-12.39c7.5.5,9.7-.71,9.7-.71C18.25,279.16,15.45,283.56,20.05,283Z"/><path class="cls-3" d="M54.65,211l-13.3-58.9a4.82,4.82,0,0,1,3.6-5.8l1.3-.3a4.82,4.82,0,0,1,5.8,3.6l13.3,58.9a4.82,4.82,0,0,1-3.6,5.8l-1.3.3A4.82,4.82,0,0,1,54.65,211Z"/><circle class="cls-6" cx="59.45" cy="207.06" r="3.5"/><path class="cls-7" d="M59.45,211.26a4.23,4.23,0,0,1-4.2-4.2h0a4.2,4.2,0,1,1,4.2,4.2Zm-2.9-4.21h0a2.9,2.9,0,1,0,2.9-2.89A2.9,2.9,0,0,0,56.55,207.05Z"/><circle class="cls-8" cx="157.75" cy="356.96" r="82"/><circle class="cls-9" cx="157.75" cy="356.96" r="65.6"/><circle class="cls-2" cx="157.75" cy="356.96" r="62.6"/><path class="cls-10" d="M89,298.35a2.43,2.43,0,0,0-.4.5,7.91,7.91,0,0,0,1.4,11h0a3.76,3.76,0,0,0,5.2-.5,83.35,83.35,0,0,1,9.4-9.39,82,82,0,0,1,115.6,9.39,3.85,3.85,0,0,0,5.2.5h0c.1-.2.3-.29.5-.5a7.76,7.76,0,0,0,.5-11,93.9,93.9,0,0,0-137.4,0Z"/></g></g></g></svg>