<svg xmlns="http://www.w3.org/2000/svg" viewBox="0 0 316.46 441.29"><defs><style>.cls-1{fill:none;stroke:#cdcfd3;stroke-miterlimit:10;}.cls-2{fill:#fff;}.cls-3{fill:#2374c3;}.cls-4{fill:#48474f;}.cls-5{fill:#ff7872;}.cls-6{fill:#f6921e;}.cls-7{fill:#f05a24;}.cls-8{fill:#303030;}.cls-9{fill:#6d6d6d;}.cls-10{fill:#dadada;}</style></defs><title>左走-闭眼</title><g id="图层_2" data-name="图层 2"><g id="图层_1-2" data-name="图层 1"><g id="左走-闭眼"><path class="cls-1" d="M154,24l-5.36-5.65a1.37,1.37,0,1,0-2,1.87L152,25.87A1.37,1.37,0,0,0,154,24Z"/><path class="cls-1" d="M169.66,3.87a10.94,10.94,0,0,0-10.87-3A1.38,1.38,0,0,0,158,2.68a1.41,1.41,0,0,0,1.57.84,8.18,8.18,0,1,1-5.74,10.05,8.43,8.43,0,0,1,.17-4.8,1.41,1.41,0,1,0-2.69-.85,10.71,10.71,0,0,0,2.45,11,10.92,10.92,0,0,0,15.4.33A11,11,0,0,0,169.66,3.87Z"/><path class="cls-1" d="M18.9,308.07l-.69.12s3.11,9.61,4.61,11.78,6.73,7.65,11.54,6.7,4.19-7.34,1-9c0,0-.55-8.33-5-7s-2.35-3.55-2.67-4.81l-.93.47c-1-6.12-2.74-16.68-4.52-27.33a48,48,0,0,0,52.43,28.43l8.47-1.5a9.55,9.55,0,0,1,9.14,3.47,9.31,9.31,0,0,0,9,3.48l10.73-1.89.24,1.38a6.45,6.45,0,0,0,7.42,5.19L134.05,315a6.45,6.45,0,0,0,5.19-7.41l-.24-1.38,1.08-.19a3.9,3.9,0,0,0,3.16-4.52,1.9,1.9,0,0,1,1.54-2.2l42.55-7.51a1.91,1.91,0,0,1,2.2,1.55,3.91,3.91,0,0,0,4.52,3.16l1.08-.19.24,1.38a6.45,6.45,0,0,0,7.42,5.19l14.28-2.52a6.45,6.45,0,0,0,5.19-7.41l-.25-1.38,10.74-1.89a9.68,9.68,0,0,0,7.3-6.37,9.44,9.44,0,0,1,7.41-6.38l8.37-1.48a47.86,47.86,0,0,0,39.55-44.64,14.7,14.7,0,0,0,2.43,3.43c4.08,4.15,9.27,8.21,15.51,3.86,4.34-3-1.49-7.86-2.87-8.23s-1.12-8-6.68-5c-3.43,1.82-3.21-2.08-2.91-3.86a3.25,3.25,0,0,1,.25-.85c-.29.05-.57.2-.86.25a148.26,148.26,0,0,0,12.65-27.31c3.51-10.57,6.5-20.13-6-30.52C277.29,138,253.61,139,253.61,139l.07.4A69.55,69.55,0,0,0,242,134.5a4.82,4.82,0,0,0-2.16-4.19l-1.14-.71A4.7,4.7,0,0,0,232,131l-.56.81c-.53-.11-.94-.14-1.47-.25A91.57,91.57,0,0,0,125.87,65.91l-1.67.3a38,38,0,0,1,1.57-15.3,40.08,40.08,0,0,1,7.86-13.58A48.77,48.77,0,0,1,147,26.65c.09,0,.08-.11.18-.13l.23.16a1.37,1.37,0,1,0,2-1.87L147.65,23h0a1.33,1.33,0,0,0-1.94-.06h0a1.34,1.34,0,0,0-.07,1.94l.37.34A49.33,49.33,0,0,0,132.5,36.11a41.7,41.7,0,0,0-8.25,14.25,39.44,39.44,0,0,0-1.71,16.24,91.55,91.55,0,0,0-72,96.27,71.9,71.9,0,0,0-13.07,8.8,5.06,5.06,0,0,0-5-.74l-1.23.52a4.83,4.83,0,0,0-2.54,6.33l.71,1.71c-.6.61-1.11,1.21-1.61,1.8C20,187.85,4.64,204.78.94,237.92-2.2,265.59,12.14,295.65,18.9,308.07Zm280.66-129c.26,1.48-1.74,13.71-3.7,24.52a73.6,73.6,0,0,0-.95-8.26,78.34,78.34,0,0,0-7.3-21.87C295.41,176.86,299.4,177.58,299.56,179.07Z"/><circle class="cls-2" cx="141.76" cy="156.02" r="91.5"/><path class="cls-2" d="M258.77,157.33c27.05,18.68,40.32,19.08,40.81,21.84s-6.83,41.32-6.83,41.32l7,.59s8.42-13.88,13.12-28.11c3.42-10.55,6.5-20.13-6-30.52C277.28,137.92,253.6,139,253.6,139A67.11,67.11,0,0,0,258.77,157.33Z"/><path class="cls-2" d="M123.17,70.76a40.56,40.56,0,0,1,1.08-20.4,39,39,0,0,1,8.25-14.25,49.8,49.8,0,0,1,13.79-11.06.87.87,0,0,1,1.07.32.89.89,0,0,1-.29,1.27,48.69,48.69,0,0,0-13.34,10.68,40.13,40.13,0,0,0-7.87,13.57,38.33,38.33,0,0,0-1,19.47.9.9,0,0,1-.73,1l-.2,0A.64.64,0,0,1,123.17,70.76Z"/><path class="cls-2" d="M146.57,20.33,151.94,26a1.4,1.4,0,0,0,1.84.08,1.33,1.33,0,0,0,.16-1.95l-5.36-5.66a1.33,1.33,0,0,0-1.94-.06A1.4,1.4,0,0,0,146.57,20.33Z"/><path class="cls-2" d="M151.09,8a1.41,1.41,0,1,1,2.69.84,7.8,7.8,0,0,0-.17,4.8,8.18,8.18,0,1,0,5.74-10,1.24,1.24,0,0,1-1.57-.84A1.26,1.26,0,0,1,158.59,1a10.77,10.77,0,0,1,10.88,3A10.89,10.89,0,0,1,153.74,19,11.18,11.18,0,0,1,151.09,8Z"/><path class="cls-2" d="M145.71,22.92a1.43,1.43,0,0,0-.07,1.94l1.75,1.82h0a1.37,1.37,0,1,0,2-1.87L147.65,23h0a1.33,1.33,0,0,0-1.94-.06Z"/><path class="cls-2" d="M10.42,245.59h0A78.39,78.39,0,0,1,74,154.77l130.09-22.94a78.39,78.39,0,0,1,90.82,63.6h0c7.52,42.64-22.2,76.21-64.84,83.73L100,302.1C57.35,309.62,17.92,288.14,10.42,245.59Z"/><path class="cls-2" d="M129.51,265.62h0a1.56,1.56,0,1,1-.25-3.11l.79-.14a7.69,7.69,0,0,0-1.57-15.25,1.73,1.73,0,0,1-1.58-1.45,1.58,1.58,0,0,1,1.42-1.78,10.79,10.79,0,0,1,11.11,8.91,10.93,10.93,0,0,1-8.84,12.63Zm-31.34-5.54h0a10.93,10.93,0,0,0,12.63,8.84c.39-.07.67-.22,1.06-.29a1.56,1.56,0,0,0-.83-3l-.79.14a7.7,7.7,0,0,1-4.69-14.51,1.67,1.67,0,0,0,.65-2,1.6,1.6,0,0,0-2.08-.86,10.93,10.93,0,0,0-6,11.72Zm16.29,6.57a1.55,1.55,0,0,0,1.75,1.31l9-1.58.3-.05a1.6,1.6,0,0,0-.75-3.12l-9,1.58a1.58,1.58,0,0,0-1.29,1.86Zm3.72,3.81a1.54,1.54,0,0,0,1.75,1.31l2.86-.5.29,0a1.59,1.59,0,0,0,1.18-1.94,1.52,1.52,0,0,0-1.93-1.18l-2.86.51h0a1.57,1.57,0,0,0-1.29,1.85Z"/><path class="cls-2" d="M107.22,255.54a1.63,1.63,0,0,1,2.59-2,9.8,9.8,0,0,0,4.52,3.17,9.46,9.46,0,1,0-6.06-11.93,1.6,1.6,0,0,1-1.87.94,1.54,1.54,0,0,1-1.15-1.93,12.64,12.64,0,1,1,14.26,16.37A12.8,12.8,0,0,1,107.22,255.54Z"/><path class="cls-2" d="M195.14,297.51l-.31-1.78a6.44,6.44,0,0,1,5.19-7.41l14.28-2.52a6.44,6.44,0,0,1,7.41,5.19l.32,1.77a6.46,6.46,0,0,1-5.2,7.42l-14.27,2.52A6.33,6.33,0,0,1,195.14,297.51Z"/><path class="cls-2" d="M138.79,305.61l.32,1.78a6.46,6.46,0,0,1-5.2,7.41l-14.28,2.52a6.45,6.45,0,0,1-7.41-5.19l-.31-1.78a6.44,6.44,0,0,1,5.19-7.41l14.28-2.52A6.37,6.37,0,0,1,138.79,305.61Z"/><path class="cls-3" d="M74.59,307.19l8.47-1.5a9.55,9.55,0,0,1,9.14,3.47h0a9.29,9.29,0,0,0,9,3.48L140,305.82h0a3.92,3.92,0,0,0,3.16-4.52h0a1.9,1.9,0,0,1,1.54-2.2l42.45-7.49h0a1.91,1.91,0,0,1,2.2,1.54h0a3.91,3.91,0,0,0,4.51,3.17l38.71-6.83a9.65,9.65,0,0,0,7.3-6.36h0a9.46,9.46,0,0,1,7.41-6.39l8.47-1.49a47.9,47.9,0,0,0,38.85-55.49l-68.74,12.12h0a27.26,27.26,0,0,1-31.62-22.14h0a10.08,10.08,0,0,0-11.7-8.2L49,225.07a10.08,10.08,0,0,0-8.19,11.7h0c2.62,14.88-12.3,29.89-27.17,32.52l5.32-.94A47.93,47.93,0,0,0,74.59,307.19Z"/><path class="cls-2" d="M118.37,282.51a27.64,27.64,0,0,1-4.19-.18c-1.37-.26-2.74-.53-4.12-.89a34.59,34.59,0,0,1-3.91-1.45,28,28,0,0,1-7-4.65,41.64,41.64,0,0,1-2.87-3,34.43,34.43,0,0,1-2.45-3.53A26.38,26.38,0,0,1,92,264.92l-.19-.48,0-.29,0-.3-.29-1.06-.29-1.07L91,260.64l-.37-2.07-4.1-23.24.2,0L140.4,226l.29-.06.05.3,2.92,16.54,1.1,6.21.36,2.07.17,1,.08,1,.09,1.1,0,.3.06.29,0,.51a26.72,26.72,0,0,1-.37,4.23,23,23,0,0,1-1,4.14,27.09,27.09,0,0,1-1.66,3.85,30.66,30.66,0,0,1-5,6.77,21.93,21.93,0,0,1-3.18,2.69,32,32,0,0,1-3.56,2.25,28,28,0,0,1-3.87,1.7,29,29,0,0,1-4.08,1C121.36,282.18,120,282.33,118.37,282.51Zm19-8.63a26.3,26.3,0,0,0,2.68-3.22,19.79,19.79,0,0,0,2.22-3.53c.6-1.23,1.08-2.53,1.56-3.83a28.57,28.57,0,0,0,1.29-8.25v-.51l-.05-.3,0-.29-.08-1a3.4,3.4,0,0,0-.07-1l-.18-1-.36-2.07-1.1-6.2-2.91-16.55.34.24L87,236.05l.42-.49,4,22.75.36,2.07c.13.69.35,1.36.47,2.05l.27,1,0,.3.15.27.19.48a26,26,0,0,0,1.68,3.76,25.62,25.62,0,0,0,2.23,3.47,25.1,25.1,0,0,0,2.78,3.06,25.48,25.48,0,0,0,6.83,4.79,27.48,27.48,0,0,0,8,2.46,30.14,30.14,0,0,0,4.21.27,30.83,30.83,0,0,0,4.19-.43A25.68,25.68,0,0,0,137.36,273.88Z"/><path class="cls-2" d="M111.29,265.38a9.05,9.05,0,0,1-10.53-7.29,9.17,9.17,0,0,1,6.2-10.33,1.32,1.32,0,0,1,.85,2.49,6.43,6.43,0,0,0,3.11,12.45l.59-.1a1.35,1.35,0,1,1,.76,2.6Zm23.83-13.44a9,9,0,0,0-8-7.43,1.3,1.3,0,0,0-.26,2.59,6.48,6.48,0,0,1,.43,12.82l-.69.12a1.36,1.36,0,1,0,.18,2.71l.88-.16A9.24,9.24,0,0,0,135.12,251.94Zm-10.76,9.81a1.32,1.32,0,0,0-1.51-1.05L115.37,262a1.3,1.3,0,1,0,.45,2.56l7.48-1.32a1.33,1.33,0,0,0,1.06-1.51Zm-1.92,4.1a1.33,1.33,0,0,0-1.51-1.06l-2.36.42a1.3,1.3,0,0,0,.45,2.56l2.36-.42a1.2,1.2,0,0,0,1.06-1.5Z"/><path class="cls-2" d="M118.44,258.13a10.6,10.6,0,1,1,6.45-17,1.35,1.35,0,0,1-.28,1.88,1.33,1.33,0,0,1-1.88-.28,7.92,7.92,0,1,0-1.39,11.11A8.14,8.14,0,0,0,124,250a1.32,1.32,0,0,1,2.49.89A9.88,9.88,0,0,1,118.44,258.13Z"/><path class="cls-4" d="M119.72,119.7c1.58,1.45,4.73.89,6.55.27a11.8,11.8,0,0,0,5.62-3.84c2.47-2.67,3.72-5.93,2.16-9.62a.2.2,0,1,0-.4.07,11.08,11.08,0,0,1-2.15,6.78c-1.93,1.15-3.33,2.41-5.66,3a13.44,13.44,0,0,1-4.45.68h0c-2.08-.85-4.31-1.37-5.54-3.19s-1.1-5.08-2.3-5.58c-.43-.13-.38,1.89-.31,2.9C113.38,114.83,116.11,118.81,119.72,119.7Z"/><path class="cls-4" d="M82,125.64c1.57,1.45,4.73.9,6.54.27a11.68,11.68,0,0,0,5.62-3.83c2.48-2.67,3.73-5.94,2.17-9.62a.2.2,0,1,0-.4.07,11,11,0,0,1-2.15,6.77c-1.93,1.16-3.33,2.42-5.66,3a13.44,13.44,0,0,1-4.45.68h0c-2.08-.85-4.31-1.37-5.54-3.18s-1.1-5.09-2.31-5.59c-.42-.12-.37,1.9-.3,2.9C75.54,120.79,78.27,124.78,82,125.64Z"/><path class="cls-4" d="M104,121.15l.12.08.35.24a.94.94,0,0,0,1.22-.52l.09-.12a4.46,4.46,0,0,0,.19-2.37c.26-.24.7,0,.94.14s.21.07.36.35c0,.09.09.49.17.37a.63.63,0,0,0-.08.73.72.72,0,0,0,1,.33,2,2,0,0,0,.76-2.57,3.11,3.11,0,0,0-2.37-1.92,3,3,0,0,0-3.17,1.58,5.27,5.27,0,0,0-.13,2.15A2.88,2.88,0,0,0,104,121.15Z"/><path class="cls-4" d="M105.39,143.25a6.92,6.92,0,0,0,6.76,1.45,7.71,7.71,0,0,0,5-5.36,6.46,6.46,0,0,0-1.68-6.1h0c-.24-.16-.53-.11-.59.1-.68,1.34-.36,2.6-.41,4a4.6,4.6,0,0,1-2.15,3.94c-.18.13-.28.15-.46.28a4.12,4.12,0,0,1-5.59-1.76c-.57-1.52-.54-3.05-1.91-3.92a.9.9,0,0,0-1.18.21C101.56,138.24,103.62,141.83,105.39,143.25Z"/><path class="cls-5" d="M63.19,155.56a15.39,15.39,0,0,0,9-1l.57-.2c5.86-2.46,7.39-8.21,1.86-10.18-3.91-1.44-10.38-.71-14.12,1.68-4.1,2.65-3.78,6.25-.66,8.34A8,8,0,0,0,63.19,155.56Z"/><path class="cls-5" d="M145,141.13a25.56,25.56,0,0,0,11.62-1.44l.67-.22c7.74-2.78,10.05-8.68,3-10.37-5-1.25-13.34-.19-18.26,2.41-5.48,2.9-5.25,6.51-1.25,8.45A12.35,12.35,0,0,0,145,141.13Z"/><path class="cls-3" d="M241.15,136.88l-50.66,78.38a4.85,4.85,0,0,1-6.66,1.38l-1.14-.71a4.85,4.85,0,0,1-1.38-6.66L232,130.88a4.87,4.87,0,0,1,6.66-1.38l1.14.71A4.88,4.88,0,0,1,241.15,136.88Z"/><circle class="cls-6" cx="186.05" cy="210.26" r="3.5"/><path class="cls-7" d="M181.92,211a4.2,4.2,0,1,1,4.86,3.4A4.23,4.23,0,0,1,181.92,211Zm1.28-.23h0a2.9,2.9,0,1,0,2.35-3.36A2.89,2.89,0,0,0,183.2,210.76Z"/><path class="cls-2" d="M300.74,220.9c-.27,1.88-.42,5.66,2.92,3.86,5.56-3,5.5,4.71,6.67,5,1.38.37,7.22,5.23,2.87,8.23-6.24,4.35-11.42.29-15.52-4a18.56,18.56,0,0,1-4.92-12.34c-.07-1-.63-2.43-.22-2.4s2.23.53,4,.92a7.06,7.06,0,0,0,4.54-.19A5.2,5.2,0,0,0,300.74,220.9Z"/><path class="cls-2" d="M35.88,190.74C33.07,222,16.09,242.05,16.53,244.52s11,67.1,11,67.1l-5.46,1.88S-3.08,273.87.94,237.92c5.11-44.76,31.35-60,31.35-60S36.76,180.73,35.88,190.74Z"/><path class="cls-2" d="M30.36,310.31c4.43-1.39,5,7,5,7,3.14,1.68,3.76,8.07-1,9s-9.94-4.54-11.54-6.7-4.61-11.77-4.61-11.77c7.47-.81,9.43-2.38,9.43-2.38C27.93,306.88,25.94,311.7,30.36,310.31Z"/><path class="cls-3" d="M51.93,233.4,28.61,177.7a4.82,4.82,0,0,1,2.54-6.33l1.22-.52a4.82,4.82,0,0,1,6.34,2.53L62,229.08a4.84,4.84,0,0,1-2.54,6.34l-1.23.52A4.83,4.83,0,0,1,51.93,233.4Z"/><circle class="cls-6" cx="55.98" cy="228.72" r="3.5"/><path class="cls-7" d="M56.71,232.86a4.22,4.22,0,0,1-4.86-3.41h0a4.2,4.2,0,1,1,4.86,3.41Zm-3.58-3.63h0a2.9,2.9,0,1,0,2.35-3.36A2.9,2.9,0,0,0,53.13,229.23Z"/><circle class="cls-8" cx="178.82" cy="359.28" r="82"/><circle class="cls-9" cx="178.82" cy="359.28" r="65.6"/><circle class="cls-2" cx="178.82" cy="359.28" r="62.6"/><path class="cls-10" d="M100.89,313.51a2.47,2.47,0,0,0-.31.57,7.91,7.91,0,0,0,3.29,10.59h0a3.77,3.77,0,0,0,5-1.4,83.71,83.71,0,0,1,7.62-10.89A82.06,82.06,0,0,1,232,301.57a3.85,3.85,0,0,0,5.2-.42h0c.07-.21.25-.34.41-.57a7.76,7.76,0,0,0-1.42-10.92,93.87,93.87,0,0,0-135.31,23.85Z"/></g></g></g></svg>