<svg xmlns="http://www.w3.org/2000/svg" viewBox="0 0 316.47 441.19"><defs><style>.cls-1{fill:none;stroke:#cdcfd3;stroke-linecap:round;stroke-linejoin:round;}.cls-2{fill:#fff;}.cls-3{fill:#2374c3;}.cls-4{fill:#48474f;}.cls-5{fill:#ff7872;}.cls-6{fill:#f6921e;}.cls-7{fill:#f05a24;}.cls-8{fill:#303030;}.cls-9{fill:#6d6d6d;}.cls-10{fill:#dadada;}</style></defs><title>左走-睁眼</title><g id="图层_2" data-name="图层 2"><g id="图层_1-2" data-name="图层 1"><g id="左走-睁眼"><path class="cls-1" d="M154,24l-5.36-5.65a1.37,1.37,0,1,0-2,1.87L152,25.87a1.4,1.4,0,0,0,1.84.08A1.34,1.34,0,0,0,154,24Z"/><path class="cls-1" d="M169.68,3.87a11,11,0,0,0-10.88-3A1.4,1.4,0,0,0,158,2.68a1.42,1.42,0,0,0,1.57.84,8.18,8.18,0,1,1-5.74,10.05,8.52,8.52,0,0,1,.17-4.8,1.41,1.41,0,0,0-2.69-.85,10.72,10.72,0,0,0,2.46,11,10.91,10.91,0,0,0,15.39.33A11.07,11.07,0,0,0,169.68,3.87Z"/><path class="cls-1" d="M18.91,308.07l-.69.12s3.12,9.61,4.62,11.78,6.73,7.65,11.54,6.7,4.18-7.34,1-9c0,0-.56-8.33-5-7s-2.35-3.55-2.68-4.81l-.93.47c-1-6.12-2.74-16.68-4.52-27.33a48,48,0,0,0,52.44,28.43l8.47-1.5a9.56,9.56,0,0,1,9.14,3.47,9.28,9.28,0,0,0,9,3.48l10.73-1.89.25,1.38a6.45,6.45,0,0,0,7.41,5.19L134.06,315a6.44,6.44,0,0,0,5.19-7.41l-.24-1.38,1.08-.19a3.92,3.92,0,0,0,3.17-4.52,1.88,1.88,0,0,1,1.54-2.2l42.54-7.51a1.9,1.9,0,0,1,2.2,1.55,3.91,3.91,0,0,0,4.52,3.16l1.08-.19.25,1.38a6.44,6.44,0,0,0,7.41,5.19l14.28-2.52a6.44,6.44,0,0,0,5.19-7.41l-.24-1.38,10.73-1.89a9.71,9.71,0,0,0,7.31-6.37,9.44,9.44,0,0,1,7.4-6.38l8.37-1.48a47.85,47.85,0,0,0,39.55-44.64,15,15,0,0,0,2.43,3.43c4.09,4.15,9.27,8.21,15.51,3.86,4.35-3-1.49-7.86-2.87-8.23s-1.11-8-6.67-5c-3.44,1.82-3.21-2.08-2.92-3.86a3,3,0,0,1,.26-.85c-.3.05-.58.2-.87.25a148.26,148.26,0,0,0,12.65-27.31c3.52-10.57,6.5-20.13-6-30.52C277.31,138,253.63,139,253.63,139l.07.4A70,70,0,0,0,242,134.5a4.8,4.8,0,0,0-2.16-4.19l-1.14-.71A4.69,4.69,0,0,0,232,131l-.57.81c-.53-.11-.94-.14-1.47-.25A91.57,91.57,0,0,0,125.89,65.91l-1.68.3a38,38,0,0,1,1.57-15.3,40.25,40.25,0,0,1,7.86-13.58A48.92,48.92,0,0,1,147,26.65c.1,0,.08-.11.18-.13l.23.16a1.37,1.37,0,1,0,2-1.87L147.66,23h0a1.33,1.33,0,0,0-1.94-.06h0a1.33,1.33,0,0,0-.06,1.94l.36.34a49.48,49.48,0,0,0-13.51,10.91,41.86,41.86,0,0,0-8.25,14.25,39.27,39.27,0,0,0-1.7,16.24,91.55,91.55,0,0,0-72,96.27,74.27,74.27,0,0,0-11.83,7.77,4.78,4.78,0,0,0-5.14-.92l-1.23.52a4.89,4.89,0,0,0-2.64,6.35l.71,1.7a34.36,34.36,0,0,0-2.63,2.91C20,187.75,4.64,204.68.94,237.82-2.19,265.59,12.14,295.56,18.91,308.07Zm280.67-129c.26,1.48-1.75,13.71-3.7,24.52a75.62,75.62,0,0,0-8.26-30.13C295.41,176.76,299.41,177.58,299.58,179.07Z"/><circle class="cls-2" cx="141.76" cy="155.93" r="91.5"/><path class="cls-2" d="M258.76,157.23c27.06,18.68,40.33,19.09,40.82,21.84s-6.83,41.32-6.83,41.32l7,.59s8.42-13.87,13.12-28.11c3.42-10.55,6.51-20.13-6-30.52-29.61-24.53-53.29-23.5-53.29-23.5A67.82,67.82,0,0,0,258.76,157.23Z"/><path class="cls-2" d="M123.19,70.76a40.45,40.45,0,0,1,1.07-20.4,39,39,0,0,1,8.25-14.25A49.94,49.94,0,0,1,146.3,25.05a.87.87,0,0,1,1.07.32.88.88,0,0,1-.28,1.27,48.74,48.74,0,0,0-13.35,10.68,40.11,40.11,0,0,0-7.86,13.57,38.22,38.22,0,0,0-1,19.47.89.89,0,0,1-.73,1l-.19,0C123.51,71.41,123.14,71.07,123.19,70.76Z"/><path class="cls-2" d="M146.67,20.21,152,25.87a1.4,1.4,0,0,0,1.84.08,1.34,1.34,0,0,0,.16-2l-5.36-5.65a1.37,1.37,0,1,0-2,1.87Z"/><path class="cls-2" d="M151.09,7.86a1.41,1.41,0,0,1,2.69.84,7.69,7.69,0,0,0-.17,4.81,8.18,8.18,0,1,0,5.74-10,1.25,1.25,0,0,1-1.57-.84,1.26,1.26,0,0,1,.8-1.77A10.77,10.77,0,0,1,169.46,3.8a10.88,10.88,0,1,1-15.72,15.06A11.15,11.15,0,0,1,151.09,7.86Z"/><path class="cls-2" d="M145.7,22.82a1.44,1.44,0,0,0-.06,1.94l1.74,1.82h0a1.37,1.37,0,1,0,2-1.87l-1.75-1.83h0a1.33,1.33,0,0,0-1.94-.06Z"/><path class="cls-2" d="M10.42,245.49h0A78.4,78.4,0,0,1,74,154.67L204.1,131.73a78.41,78.41,0,0,1,90.83,63.6h0c7.52,42.64-22.21,76.21-64.85,83.73L100,302C57.35,309.52,17.94,288.14,10.42,245.49Z"/><path class="cls-2" d="M129.6,265.5h0a1.55,1.55,0,1,1-.24-3.1l.79-.14A7.69,7.69,0,0,0,128.57,247a1.71,1.71,0,0,1-1.57-1.45,1.58,1.58,0,0,1,1.41-1.77,10.8,10.8,0,0,1,11.12,8.9,10.93,10.93,0,0,1-8.85,12.63ZM98.26,260h0a10.86,10.86,0,0,0,12.63,8.84c.39-.07.67-.22,1.07-.29a1.56,1.56,0,0,0-.84-3l-.79.14a7.7,7.7,0,0,1-4.69-14.51,1.68,1.68,0,0,0,.66-2,1.61,1.61,0,0,0-2.08-.85,10.91,10.91,0,0,0-6,11.71Zm16.19,6.59a1.57,1.57,0,0,0,1.76,1.31l9-1.58.29,0a1.6,1.6,0,1,0-.75-3.12l-9,1.58a1.59,1.59,0,0,0-1.3,1.86Zm3.74,3.91a1.61,1.61,0,0,0,1.75,1.31l2.86-.5.29,0a1.6,1.6,0,0,0,1.19-1.94,1.54,1.54,0,0,0-1.94-1.18l-2.85.51h0a1.57,1.57,0,0,0-1.3,1.85Z"/><path class="cls-2" d="M107.23,255.54a1.64,1.64,0,0,1,2.6-2,9.72,9.72,0,0,0,4.51,3.17,9.46,9.46,0,1,0-6.06-11.93,1.58,1.58,0,0,1-1.86.94,1.55,1.55,0,0,1-1.16-1.93,12.65,12.65,0,1,1,14.26,16.37A13,13,0,0,1,107.23,255.54Z"/><path class="cls-2" d="M195.15,297.51l-.31-1.78a6.45,6.45,0,0,1,5.19-7.41l14.28-2.52a6.45,6.45,0,0,1,7.42,5.19l.31,1.77a6.45,6.45,0,0,1-5.19,7.42l-14.28,2.52A6.39,6.39,0,0,1,195.15,297.51Z"/><path class="cls-2" d="M138.79,305.51l.31,1.78a6.44,6.44,0,0,1-5.19,7.41l-14.28,2.52a6.44,6.44,0,0,1-7.41-5.19l-.32-1.77a6.46,6.46,0,0,1,5.19-7.42l14.28-2.52A6.46,6.46,0,0,1,138.79,305.51Z"/><path class="cls-3" d="M74.68,307.07l8.38-1.48a9.58,9.58,0,0,1,9.14,3.47h0a9.28,9.28,0,0,0,9,3.48l38.7-6.82h0a3.91,3.91,0,0,0,3.17-4.52h0a1.89,1.89,0,0,1,1.54-2.2l42.44-7.49h0a1.9,1.9,0,0,1,2.2,1.55h0a3.91,3.91,0,0,0,4.52,3.16l38.7-6.83a9.68,9.68,0,0,0,7.31-6.36h0a9.44,9.44,0,0,1,7.4-6.38l8.47-1.5a47.91,47.91,0,0,0,38.86-55.49l-68.74,12.12h0a27.27,27.27,0,0,1-31.63-22.14h0a10.06,10.06,0,0,0-11.7-8.19L49.14,225A10.06,10.06,0,0,0,41,236.66h0c2.62,14.87-12.3,29.89-27.17,32.51l5.32-.94A47.79,47.79,0,0,0,74.68,307.07Z"/><path class="cls-2" d="M118.37,282.41a27.73,27.73,0,0,1-4.2-.17c-1.36-.27-2.73-.54-4.12-.9a35.31,35.31,0,0,1-3.91-1.45,28,28,0,0,1-7-4.65,39.59,39.59,0,0,1-2.87-3.05,31.44,31.44,0,0,1-2.45-3.52,27.64,27.64,0,0,1-1.8-3.85l-.18-.48-.06-.29,0-.3-.29-1.06-.29-1.07L91,260.54l-.36-2.07-4.1-23.24.2,0,53.7-9.26.3-.06.05.3,2.92,16.54,1.09,6.21.37,2.07.17,1,.08,1,.09,1.1,0,.3.05.3v.51a26.59,26.59,0,0,1-.37,4.22,23,23,0,0,1-1,4.14,26,26,0,0,1-1.66,3.85,30.43,30.43,0,0,1-5,6.77,20.91,20.91,0,0,1-3.18,2.69,31.08,31.08,0,0,1-3.56,2.25,27.35,27.35,0,0,1-3.86,1.7,31,31,0,0,1-4.09,1C121.36,282.09,120,282.23,118.37,282.41Zm19-8.63a28,28,0,0,0,2.68-3.21,20.85,20.85,0,0,0,2.22-3.54,40.37,40.37,0,0,0,1.56-3.83A28.5,28.5,0,0,0,145.1,255l0-.51-.06-.3-.05-.29-.07-1a3.76,3.76,0,0,0-.08-1l-.17-1-.37-2.07-1.09-6.2L140.31,226l.35.25L87,236l.42-.48,4,22.75.36,2.06c.12.69.34,1.36.46,2.05l.28,1,0,.3.15.27.18.48a26.67,26.67,0,0,0,1.68,3.77,25.58,25.58,0,0,0,2.24,3.46,25,25,0,0,0,2.77,3.06,25.68,25.68,0,0,0,6.84,4.79,27.38,27.38,0,0,0,8,2.46,30,30,0,0,0,4.21.27,30.83,30.83,0,0,0,4.19-.43A25.45,25.45,0,0,0,137.36,273.78Z"/><path class="cls-2" d="M111.3,265.38a9,9,0,0,1-10.52-7.29,9.16,9.16,0,0,1,6.2-10.33,1.31,1.31,0,0,1,.84,2.49,6.43,6.43,0,0,0,3.11,12.45l.59-.1a1.36,1.36,0,1,1,.77,2.6Zm23.93-13.46a9,9,0,0,0-8-7.42,1.3,1.3,0,0,0-.26,2.58,6.48,6.48,0,0,1,.43,12.82l-.68.12a1.36,1.36,0,1,0,.17,2.71l.89-.15A9.31,9.31,0,0,0,135.23,251.92Zm-10.88,9.73a1.32,1.32,0,0,0-1.5-1l-7.49,1.32a1.3,1.3,0,0,0,.45,2.56l7.49-1.32a1.2,1.2,0,0,0,1-1.51Zm-1.8,4.18a1.32,1.32,0,0,0-1.5-1.05l-2.37.41a1.33,1.33,0,0,0-1.05,1.51,1.31,1.31,0,0,0,1.5,1.05l2.37-.41a1.32,1.32,0,0,0,1-1.51Z"/><path class="cls-2" d="M118.55,258.11a10.6,10.6,0,1,1,6.45-17,1.35,1.35,0,0,1-.28,1.88,1.32,1.32,0,0,1-1.88-.28,7.92,7.92,0,1,0-1.39,11.11,8.11,8.11,0,0,0,2.68-3.82,1.32,1.32,0,1,1,2.49.88A10.23,10.23,0,0,1,118.55,258.11Z"/><path class="cls-4" d="M82,125.55c1.58,1.44,4.73.89,6.55.26A11.73,11.73,0,0,0,94.14,122c2.55-2.79,3.84-6.46,1.71-10.46-2-3.61-6.63-7-11-6.17-2.84.6-5.38,1.76-7.06,4.29a12.63,12.63,0,0,0-2.23,7.5C75.65,120.77,78.27,124.68,82,125.55Z"/><path class="cls-2" d="M79.55,121.61c-1.13-1.83-2-3.4-1.79-5.58.47-4.24,3.45-8.63,8.17-9a8.7,8.7,0,0,1,8.83,5.75,9.8,9.8,0,0,1-1,8.3A19.09,19.09,0,0,1,88.5,124a10.94,10.94,0,0,1-3.54.62c-.1,0-.22-.06-.31,0C82.86,123.66,80.69,123.44,79.55,121.61Z"/><path class="cls-4" d="M84.31,118.64A3.54,3.54,0,0,0,88,119.72l.1,0a3.69,3.69,0,0,0,2.81-2.52c.06-.22,0-.32.11-.53a4.71,4.71,0,0,0-.75-4.24,3.39,3.39,0,0,0-1.79-1.51,3.32,3.32,0,0,0-2-.26l-.19,0A3.76,3.76,0,0,0,83.32,113a4.3,4.3,0,0,0-.16,2.57A3.76,3.76,0,0,0,84.31,118.64Z"/><path class="cls-4" d="M119.72,119.6c1.57,1.45,4.72.89,6.54.27a11.8,11.8,0,0,0,5.62-3.83c2.54-2.89,3.84-6.47,1.71-10.46-2-3.62-6.62-7.06-11-6.18-2.84.6-5.37,1.76-7.06,4.29a12.68,12.68,0,0,0-2.23,7.51C113.37,114.73,116.11,118.72,119.72,119.6Z"/><path class="cls-2" d="M117.39,115.65c-1.13-1.84-2-3.41-1.79-5.58.47-4.24,3.45-8.63,8.17-8.95a8.69,8.69,0,0,1,8.85,5.85,10,10,0,0,1-1,8.2,19.36,19.36,0,0,1-5.29,2.86,10.94,10.94,0,0,1-3.54.62l-.32,0C120.6,117.72,118.53,117.48,117.39,115.65Z"/><path class="cls-4" d="M120.64,112.74a4.57,4.57,0,0,0,2.77,1.34,3.85,3.85,0,0,0,2.93-1.23,2.26,2.26,0,0,0,.43-.48,5.22,5.22,0,0,0,.62-4,3.75,3.75,0,0,0-6.31-2.34,5.3,5.3,0,0,0-1.58,3.12A4.37,4.37,0,0,0,120.64,112.74Z"/><path class="cls-4" d="M104.14,121.13l.12.08.35.24a1,1,0,0,0,1.23-.52l.08-.11a4.38,4.38,0,0,0,.19-2.37c.26-.25.71,0,.94.14s.21.06.36.34c0,.1.09.49.17.37a.63.63,0,0,0-.08.73.73.73,0,0,0,1,.34,2,2,0,0,0,.76-2.58,3.1,3.1,0,0,0-2.37-1.91,3,3,0,0,0-3.17,1.57,5.32,5.32,0,0,0-.13,2.16A1.89,1.89,0,0,0,104.14,121.13Z"/><path class="cls-4" d="M105.4,143.25a6.92,6.92,0,0,0,6.76,1.45,7.69,7.69,0,0,0,5-5.36,6.46,6.46,0,0,0-1.68-6.1h0c-.23-.16-.53-.11-.59.1-.68,1.34-.35,2.6-.41,4a4.56,4.56,0,0,1-2.15,3.94c-.18.13-.28.15-.45.28a4.11,4.11,0,0,1-5.59-1.76c-.58-1.52-.54-3.05-1.92-3.92a.9.9,0,0,0-1.18.21C101.56,138.14,103.63,141.83,105.4,143.25Z"/><path class="cls-5" d="M63.18,155.46a15.39,15.39,0,0,0,9-1l.58-.2c5.86-2.46,7.38-8.21,1.86-10.18-3.91-1.44-10.38-.71-14.13,1.68-4.1,2.65-3.77,6.25-.66,8.34A7,7,0,0,0,63.18,155.46Z"/><path class="cls-5" d="M145,141a25.6,25.6,0,0,0,11.63-1.44l.67-.22c7.73-2.78,10.05-8.67,2.94-10.37-5-1.25-13.33-.18-18.26,2.41-5.48,2.9-5.24,6.51-1.25,8.45A10.62,10.62,0,0,0,145,141Z"/><path class="cls-3" d="M241.14,136.78l-50.65,78.38a4.86,4.86,0,0,1-6.67,1.38l-1.14-.71a4.87,4.87,0,0,1-1.38-6.66L232,130.78a4.87,4.87,0,0,1,6.66-1.38l1.15.72A4.85,4.85,0,0,1,241.14,136.78Z"/><circle class="cls-6" cx="186.07" cy="210.26" r="3.5"/><path class="cls-7" d="M181.91,210.89a4.2,4.2,0,1,1,4.87,3.41A4.18,4.18,0,0,1,181.91,210.89Zm1.3-.13h0a2.9,2.9,0,1,0,2.35-3.36A2.9,2.9,0,0,0,183.21,210.76Z"/><path class="cls-2" d="M300.74,220.81c-.28,1.87-.42,5.65,2.91,3.85,5.56-3,5.51,4.71,6.68,5,1.38.36,7.21,5.22,2.87,8.22-6.24,4.35-11.43.29-15.53-4a18.55,18.55,0,0,1-4.91-12.34c-.08-1-.63-2.42-.22-2.39s2.22.52,4,.91a7,7,0,0,0,4.53-.19A5,5,0,0,0,300.74,220.81Z"/><path class="cls-2" d="M35.89,190.74C33.08,222,16.11,242.05,16.54,244.52s11,67.1,11,67.1L22.1,313.5S-3.06,273.87,1,237.92c5.1-44.76,31.35-60,31.35-60S36.75,180.64,35.89,190.74Z"/><path class="cls-2" d="M30.37,310.31c4.43-1.39,5,7,5,7,3.14,1.68,3.76,8.07-1,9s-9.94-4.54-11.53-6.7-4.62-11.77-4.62-11.77c7.47-.81,9.43-2.38,9.43-2.38C27.93,306.79,26,311.7,30.37,310.31Z"/><path class="cls-3" d="M53,232.4l-23.38-56a5,5,0,0,1,2.64-6.35l1.23-.52a5,5,0,0,1,6.35,2.63l23.38,56a5,5,0,0,1-2.64,6.36l-1.23.52A4.81,4.81,0,0,1,53,232.4Z"/><circle class="cls-6" cx="56" cy="228.72" r="3.5"/><path class="cls-7" d="M56.71,232.76a4.23,4.23,0,0,1-4.87-3.4h0a4.2,4.2,0,1,1,4.87,3.4Zm-3.57-3.53h0a2.9,2.9,0,1,0,2.35-3.36A2.9,2.9,0,0,0,53.14,229.23Z"/><circle class="cls-8" cx="178.82" cy="359.18" r="82"/><circle class="cls-9" cx="178.82" cy="359.18" r="65.6"/><circle class="cls-2" cx="178.82" cy="359.18" r="62.6"/><path class="cls-10" d="M100.89,313.42a1.72,1.72,0,0,0-.31.56,7.91,7.91,0,0,0,3.29,10.59h0a3.75,3.75,0,0,0,5-1.4,83.78,83.78,0,0,1,7.63-10.89A82,82,0,0,1,232,301.47a3.86,3.86,0,0,0,5.21-.41h0c.06-.22.24-.35.41-.58a7.77,7.77,0,0,0-1.42-10.92,93.86,93.86,0,0,0-135.31,23.86Z"/></g></g></g></svg>