<svg xmlns="http://www.w3.org/2000/svg" viewBox="0 0 62.2 62.2"><defs><style>.cls-1,.cls-2{fill:#4a7eff;}.cls-1{opacity:0.2;isolation:isolate;}.cls-3{fill:#69f4ff;}.cls-4{fill:#e84646;}.cls-5{fill:#8e2828;}.cls-6{fill:#fff;}.cls-7{fill:#c1b7b4;}</style></defs><title>车轴</title><g id="图层_2" data-name="图层 2"><g id="图层_1-2" data-name="图层 1"><g id="车轴"><circle class="cls-1" cx="31.1" cy="31.1" r="31.1"/><circle class="cls-1" cx="31.1" cy="31.1" r="30.1"/><circle class="cls-2" cx="31.1" cy="31.1" r="28.9"/><circle class="cls-3" cx="31.1" cy="31.1" r="28.1"/><circle class="cls-4" cx="31.1" cy="31.1" r="27.9"/><circle class="cls-5" cx="31.1" cy="31.1" r="18.4"/><circle class="cls-6" cx="31.1" cy="31.1" r="17.4"/><path class="cls-5" d="M30.3,48.4A17.37,17.37,0,1,1,48.5,31.9l10.5.5A27.88,27.88,0,1,0,29.9,59Z"/><path class="cls-7" d="M31.1,48.4A17.35,17.35,0,1,1,48.5,31.1H59A27.9,27.9,0,1,0,31.1,59h0Z"/><circle class="cls-2" cx="52.9" cy="37.5" r="1"/><circle class="cls-2" cx="50.7" cy="42.3" r="1"/><circle class="cls-2" cx="47.5" cy="46.4" r="1.1"/><circle class="cls-3" cx="47.5" cy="46.4" r="1"/><circle class="cls-2" cx="43.6" cy="49.7" r="1"/><circle class="cls-2" cx="37.7" cy="52.6" r="1"/></g></g></g></svg>