<?xml version="1.0" encoding="utf-8"?>
<!-- Generator: Adobe Illustrator 22.1.0, SVG Export Plug-In . SVG Version: 6.00 Build 0)  -->
<svg version="1.1" id="图层_1" xmlns="http://www.w3.org/2000/svg" xmlns:xlink="http://www.w3.org/1999/xlink" x="0px" y="0px"
	 viewBox="0 0 325 448.4" style="enable-background:new 0 0 325 448.4;" xml:space="preserve">
<style type="text/css">
	.st0{fill:#FFFFFF;}
	.st1{fill:none;stroke:#CDCFD3;stroke-linecap:round;stroke-linejoin:round;stroke-miterlimit:10;}
	.st2{fill:#2374C3;}
	.st3{fill:#48474F;}
	.st4{fill:#FF7872;}
	.st5{fill:#F6921E;}
	.st6{fill:#F05A24;}
	.st7{fill:#303030;}
	.st8{fill:#6D6D6D;}
	.st9{fill:#DADADA;}
	.st10{opacity:0.2;fill:#4A7EFF;enable-background:new    ;}
	.st11{fill:#4A7EFF;}
	.st12{fill:#69F4FF;}
	.st13{fill:#E84646;}
	.st14{fill:#8E2828;}
	.st15{fill:#C1B7B4;}
</style>
<title>向前站立</title>
<path class="st0" d="M134,311h-14.5c-3.5,0-6.4-2.9-6.4-6.4v-1.8c0-3.5,2.9-6.4,6.4-6.4H134c3.5,0,6.4,2.9,6.4,6.4v1.8
	C140.4,308.1,137.6,311,134,311z"/>
<path class="st0" d="M203.7,296.4h14.5c3.5,0,6.4,2.9,6.4,6.4v1.8c0,3.5-2.9,6.4-6.4,6.4h-14.5c-3.5,0-6.4-2.9-6.4-6.4v-1.8
	C197.3,299.2,200.2,296.4,203.7,296.4z"/>
<g>
	<path class="st1" d="M133.9,30c0.6,0.3,1.4,0.2,1.8-0.4l4.3-6.5c0.4-0.6,0.3-1.5-0.4-1.9c-0.6-0.4-1.5-0.3-1.9,0.4l-4.3,6.5
		C133,28.8,133.3,29.7,133.9,30z"/>
	<path class="st1" d="M117.7,26.1c5,3.3,11.8,2,15.1-3c2.3-3.4,2.5-7.7,0.5-11.3c-0.4-0.7-1.2-0.9-1.9-0.6c-0.7,0.4-0.9,1.2-0.6,1.9
		c0.8,1.4,1.1,3.1,1,4.7c-0.4,4.5-4.4,7.8-8.9,7.4c-4.5-0.4-7.8-4.4-7.4-8.9s4.4-7.8,8.9-7.4c0.7,0,1.3-0.5,1.4-1.1
		c0.1-0.8-0.4-1.5-1.1-1.6c-4-0.4-7.9,1.4-10.2,4.8C111.3,16,112.7,22.8,117.7,26.1z"/>
	<path class="st1" d="M321.3,212.2c-9.4-32-27.5-46-36.3-51.1c-0.6-0.5-1.2-1-1.9-1.5l0.4-1.8c0.6-2.6-1-5.2-3.6-5.8l-1.3-0.3
		c-1.8-0.4-3.6,0.3-4.8,1.6c-4.5-2.6-9.3-4.8-14.4-6.4c-4.5-45.1-41.7-80.6-87.6-82.3c-0.4-5.5-1.9-10.8-4.5-15.7
		c-2.7-4.9-6.3-9.2-10.6-12.6c-4.5-3.7-9.7-6.5-15.2-8.4l0.3-0.4c0.4-0.6,0.3-1.5-0.4-1.9c0,0,0,0,0,0c-0.6-0.4-1.5-0.3-1.9,0.4
		c0,0,0,0,0,0l-1.4,2.1c-0.4,0.6-0.2,1.5,0.4,1.9c0.6,0.4,1.5,0.2,1.9-0.4l0.2-0.2c0.1,0,0.1,0.1,0.2,0.1c5.4,1.8,10.5,4.6,15,8.2
		c4.1,3.3,7.6,7.4,10.1,12c2.4,4.6,3.8,9.6,4.2,14.8c-0.6,0-1.1,0-1.7,0c-47.6,0-86.6,36.3-91.1,82.7c-0.5,0.2-0.9,0.3-1.4,0.5
		l-0.7-0.7c-1.8-2-4.9-2.1-6.8-0.2l-1,0.9c-1.3,1.2-1.7,2.9-1.4,4.5c-3.8,2-7.4,4.3-10.7,6.9c0-0.1,0-0.3,0-0.4
		c0,0-23.5,3.1-48.4,32.4c-10.5,12.4-5.9,21.3-0.6,31.1c6.1,11.4,14.8,22,17.2,24.7c-0.3,0-0.6-0.1-0.9-0.1c0.2,0.3,0.3,0.5,0.4,0.8
		c0.6,1.7,1.5,5.5-2.2,4.3c-6-2-4.5,5.6-5.7,6.1c-1.3,0.6-6.2,6.4-1.4,8.6c6.9,3.2,11.3-1.7,14.6-6.5c0.8-1.2,1.4-2.5,1.8-3.8
		c4.9,21.3,23.9,37.1,46.7,37.1h8.5c3.5,0,6.8,1.9,8.4,5c1.6,3,4.8,4.9,8.3,5h39.3c2.1,0,3.9-1.7,3.9-3.9c0-1,0.8-1.9,1.9-1.9h43.2
		c1,0,1.9,0.8,1.9,1.9c0,2.1,1.7,3.9,3.9,3.9h39.3c3.5,0,6.7-1.9,8.3-5c1.7-3.1,4.9-5,8.4-5h8.6c22.8,0,41.8-15.9,46.7-37.1
		c0.1,10.8,0.2,21.5,0.3,27.7c-0.7-0.2-1-0.3-1-0.3c-0.1,1.3,2.8,5.7-1.8,5.2s-3.7,7.8-3.7,7.8c-2.8,2.2-2.4,8.6,2.6,8.7
		c4.9,0.1,9.1-6.2,10.2-8.6s2.5-12.4,2.5-12.4c-0.2,0-0.4,0-0.7,0C320.3,271,329.2,238.9,321.3,212.2z M27.8,198.5
		c-2.2,7.2-3.4,14.9-3.4,22.8c0,2.8,0.2,5.6,0.5,8.3c-3.8-10.3-7.9-22-7.9-23.5C16.9,204.6,20.7,203.2,27.8,198.5z"/>
</g>
<g>
	<circle class="st0" cx="168.4" cy="156" r="91.5"/>
	<path class="st0" d="M55.3,158.6c0,0-23.5,3.1-48.4,32.4c-10.5,12.4-5.8,21.3-0.6,31.1c7.1,13.2,17.8,25.4,17.8,25.4l6.8-1.8
		c0,0-13.9-36.7-13.9-39.5s13-5.5,36.4-28.6C54.9,171.4,55.6,165,55.3,158.6z"/>
	<path class="st0" d="M171.3,69.6h-0.2c-0.5,0-0.9-0.4-0.9-0.9c0.2-6.6-1.3-13.1-4.4-19c-2.5-4.6-6-8.7-10.1-12
		c-4.5-3.6-9.6-6.4-15-8.2c-0.5-0.2-0.7-0.7-0.5-1.2c0.2-0.4,0.6-0.6,1-0.5c5.7,1.9,10.9,4.8,15.5,8.5c4.4,3.4,8,7.7,10.6,12.6
		c3.2,6.1,4.8,13,4.6,19.9C172,69.2,171.7,69.6,171.3,69.6z"/>
	<path class="st0" d="M139.6,21.3c-0.6-0.4-1.5-0.3-1.9,0.4l-4.3,6.5c-0.4,0.7-0.2,1.5,0.5,1.9c0.6,0.3,1.4,0.2,1.8-0.4l4.3-6.5
		C140.4,22.5,140.3,21.7,139.6,21.3z"/>
	<path class="st0" d="M132.8,23.1c-3.3,5-10.1,6.4-15.1,3c-5-3.3-6.4-10.1-3-15.1c2.2-3.4,6.1-5.2,10.2-4.8c0.8,0.1,1.3,0.8,1.1,1.6
		c-0.1,0.7-0.7,1.2-1.4,1.1c-4.5-0.4-8.5,2.9-8.9,7.4s2.9,8.5,7.4,8.9c4.5,0.4,8.5-2.9,8.9-7.4c0.2-1.6-0.2-3.3-1-4.7
		c-0.4-0.7-0.1-1.5,0.6-1.9s1.5-0.1,1.9,0.6C135.3,15.4,135.1,19.7,132.8,23.1z"/>
	<path class="st0" d="M141.4,25.6c-0.6-0.4-1.5-0.3-1.9,0.4c0,0,0,0,0,0l-1.4,2.1c-0.4,0.6-0.2,1.5,0.4,1.9c0.6,0.4,1.5,0.2,1.9-0.4
		l0,0l1.4-2.1C142.2,26.9,142,26,141.4,25.6C141.4,25.6,141.4,25.6,141.4,25.6z"/>
	<path class="st0" d="M234.9,292.6H102.8c-43.3,0-78.4-27.9-78.4-71.2l0,0c0-43.3,35.1-78.4,78.4-78.4h132.1
		c43.3,0,78.4,35.1,78.4,78.4l0,0C313.3,264.7,278.2,292.6,234.9,292.6z"/>
	<path class="st0" d="M198.4,261.8c-6,0-10.9-4.9-10.9-10.9c0-5.4,4-10,9.4-10.7c0.9-0.1,1.6,0.6,1.7,1.5c0,0.8-0.5,1.5-1.3,1.7
		c-4.2,0.6-7.1,4.5-6.5,8.7c0.5,3.8,3.8,6.6,7.6,6.6c0.3,0,0.5,0,0.8,0c0.9-0.1,1.7,0.5,1.7,1.4c0.1,0.9-0.5,1.7-1.4,1.7l0,0
		C199.1,261.8,198.7,261.8,198.4,261.8z M229.4,250.9c0-4.9-3.2-9.1-7.9-10.5c-0.9-0.2-1.7,0.4-1.9,1.2c-0.2,0.8,0.3,1.6,1,1.9
		c4.1,1.2,6.5,5.4,5.3,9.5c-0.9,3.3-4,5.6-7.4,5.6c-0.3,0-0.5,0-0.8,0c-0.9-0.1-1.7,0.5-1.7,1.4c-0.1,0.9,0.5,1.7,1.4,1.7
		c0.4,0,0.7,0.1,1.1,0.1C224.5,261.8,229.4,256.9,229.4,250.9C229.3,250.9,229.3,250.9,229.4,250.9L229.4,250.9z M214.5,260.2
		c0-0.9-0.7-1.6-1.6-1.6h-9.1c-0.9-0.1-1.7,0.6-1.7,1.5s0.6,1.7,1.5,1.7c0.1,0,0.2,0,0.3,0h9.1C213.8,261.8,214.5,261.1,214.5,260.2
		L214.5,260.2z M211.5,264.6c0-0.9-0.7-1.6-1.6-1.6h0h-2.9c-0.9-0.1-1.7,0.6-1.7,1.5s0.6,1.7,1.5,1.7c0.1,0,0.2,0,0.3,0h2.9
		C210.8,266.2,211.5,265.5,211.5,264.6L211.5,264.6z"/>
	<path class="st0" d="M208.4,254.7c-7,0-12.6-5.7-12.6-12.7c0-7,5.7-12.6,12.7-12.6c4.7,0,8.9,2.6,11.1,6.7c0.4,0.8,0,1.8-0.8,2.1
		c-0.7,0.3-1.6,0.1-2-0.6c-2.5-4.6-8.2-6.4-12.8-3.9s-6.4,8.2-3.9,12.8s8.2,6.4,12.8,3.9c1.7-0.9,3-2.3,3.9-3.9
		c0.4-0.8,1.4-1.1,2.2-0.7s1.1,1.4,0.7,2.2C217.4,252.2,213.1,254.7,208.4,254.7z"/>
	<path class="st2" d="M308.8,245.3h5.4c-15.1,0-32.4-12.2-32.4-27.3l0,0c0-5.6-4.5-10.1-10.1-10.1H136.2c-5.6,0-10.1,4.5-10.1,10.1
		l0,0l0,0c0,15.1-12.2,27.3-27.3,27.3h0H29c0,26.5,21.5,47.9,47.9,47.9h8.6c3.5,0,6.8,1.9,8.4,5l0,0c1.6,3,4.8,4.9,8.3,5h39.3
		c2.1,0,3.9-1.7,3.9-3.9l0,0l0,0c0-1,0.8-1.9,1.9-1.9c0,0,0,0,0,0h43.1c1,0,1.9,0.8,1.9,1.9l0,0l0,0c0,2.1,1.7,3.9,3.9,3.9h0h39.3
		c3.5,0,6.7-1.9,8.3-5l0,0c1.7-3.1,4.9-5,8.4-5h8.6C287.3,293.2,308.8,271.8,308.8,245.3z"/>
	<path class="st0" d="M208.9,276.7c-1.4,0-2.8-0.1-4.2-0.3c-1.4-0.2-2.8-0.6-4.1-1c-1.3-0.4-2.6-1-3.9-1.6c-1.3-0.6-2.5-1.3-3.6-2.1
		c-2.3-1.6-4.3-3.6-6.1-5.8c-0.9-1.1-1.6-2.3-2.3-3.5c-0.7-1.2-1.2-2.5-1.7-3.9c-0.5-1.3-0.8-2.7-1.1-4.1l-0.1-0.5v-0.3v-0.3
		l-0.1-1.1l-0.1-1c0-0.4,0-0.7,0-1c0-0.7,0-1.4,0-2.1v-6.3V225v-0.3h0.3l54.5-0.2h0.2v23.6c0,0.7,0,1.4,0,2.1c0,0.4,0,0.7,0,1.1
		l-0.1,1.1l-0.1,1.1v0.3v0.3l-0.1,0.5c-0.3,1.4-0.6,2.8-1.1,4.1c-0.5,1.3-1.1,2.6-1.8,3.9c-0.7,1.2-1.5,2.4-2.3,3.5
		c-1.7,2.2-3.8,4.2-6.1,5.8c-1.2,0.8-2.4,1.5-3.6,2.1c-1.3,0.6-2.6,1.1-3.9,1.6c-1.3,0.4-2.7,0.7-4.1,0.9
		C211.8,276.6,210.4,276.7,208.9,276.7z M208.9,276.6c1.4,0,2.8-0.1,4.2-0.3c1.4-0.2,2.7-0.6,4.1-1c2.7-0.9,5.2-2.2,7.4-3.8
		c2.3-1.6,4.2-3.6,5.9-5.9c0.8-1.1,1.6-2.3,2.2-3.5c0.6-1.2,1.2-2.5,1.6-3.8c0.4-1.3,0.8-2.6,1-4l0.1-0.5l0.1-0.3v-0.3l0.1-1
		c0-0.7,0.1-1.4,0.1-2.1s0-1.4,0-2.1v-23.1l0.5,0.4l-54.5-0.2l0.3-0.3v16.8v6.3c0,0.7,0,1.4,0,2.1c0,0.3,0,0.7,0,1s0,0.7,0.1,1
		l0.1,1v0.3v0.3l0.1,0.5c0.5,2.7,1.4,5.4,2.7,7.9c0.7,1.2,1.4,2.4,2.2,3.5c0.8,1.1,1.8,2.2,2.8,3.1c1,1,2.1,1.9,3.2,2.7
		C197.7,274.8,203.3,276.6,208.9,276.6z"/>
	<path class="st0" d="M200.7,258.4c-5,0-9.1-4-9.1-9c0-4.6,3.4-8.5,7.9-9.1c0.7-0.1,1.4,0.4,1.5,1.1s-0.4,1.4-1.1,1.5
		c-3.5,0.5-6,3.7-5.5,7.2c0.4,3.2,3.2,5.6,6.4,5.6c0.2,0,0.4,0,0.6,0c0.7-0.1,1.4,0.5,1.5,1.2c0.1,0.7-0.5,1.4-1.2,1.5
		C201.3,258.4,201,258.4,200.7,258.4z M226.5,249.3c0-4.1-2.7-7.6-6.6-8.7c-0.7-0.2-1.4,0.2-1.6,0.9c-0.2,0.7,0.2,1.4,0.9,1.6
		c3.4,1,5.4,4.5,4.4,8c-0.8,2.8-3.3,4.7-6.2,4.7c-0.2,0-0.4,0-0.7,0c-0.7-0.1-1.4,0.5-1.5,1.2c-0.1,0.7,0.5,1.4,1.2,1.5
		c0.3,0,0.6,0,0.9,0C222.4,258.4,226.5,254.4,226.5,249.3z M214.1,257.1c0-0.7-0.6-1.3-1.3-1.3h-7.6c-0.7,0-1.3,0.6-1.3,1.3
		c0,0.7,0.6,1.3,1.3,1.3h7.6C213.6,258.4,214.1,257.8,214.1,257.1L214.1,257.1z M211.6,260.8c0-0.7-0.6-1.3-1.3-1.3h-2.4
		c-0.7,0-1.3,0.6-1.3,1.3c0,0.7,0.6,1.3,1.3,1.3h2.4C211,262.2,211.6,261.6,211.6,260.8C211.6,260.8,211.6,260.8,211.6,260.8z"/>
	<path class="st0" d="M209,252.6c-5.8,0-10.6-4.7-10.6-10.6c0-5.8,4.7-10.6,10.6-10.6c3.9,0,7.5,2.2,9.3,5.6
		c0.3,0.6,0.1,1.5-0.6,1.8s-1.5,0.1-1.8-0.6c-2-3.9-6.8-5.3-10.7-3.3s-5.3,6.8-3.3,10.7s6.8,5.3,10.7,3.3c1.4-0.7,2.5-1.9,3.3-3.3
		c0.3-0.6,1.2-0.9,1.8-0.5c0.6,0.3,0.9,1.2,0.5,1.8C216.5,250.4,212.9,252.6,209,252.6z"/>
	<path class="st3" d="M226.9,106.2c-0.4-2.6-1.6-5.1-3.5-7c-2.1-2.2-4.8-2.9-7.7-3c-4.5-0.1-8.5,4.1-9.8,8c-1.4,4.3,0.5,7.7,3.5,10
		c1.7,1.5,3.9,2.5,6.2,2.8c1.9,0.3,5.1,0.3,6.4-1.4C225.5,114.2,227.5,109.8,226.9,106.2z"/>
	<path class="st0" d="M219.2,115.2c-0.1,0-0.2,0.1-0.3,0.1c-1.2,0.2-2.4,0.2-3.6,0c-2-0.3-3.9-1-5.7-1.9c-2-2.2-2.8-5.1-2.4-8
		c0.7-3.9,3.8-6.8,7.7-7.2c4.7-0.5,8.4,3.3,9.6,7.4c0.6,2.1,0,3.8-0.8,5.8S220.8,114,219.2,115.2z"/>
	<path class="st3" d="M219.1,106.1c0.1-0.9-0.2-1.8-0.6-2.5c-0.7-1.2-2-1.8-3.3-1.8h-0.2c-0.7,0-1.3,0.2-1.9,0.6
		c-0.7,0.4-1.2,1-1.5,1.8c-0.7,1.3-0.7,2.9,0,4.3c0.1,0.2,0.1,0.3,0.2,0.5c0.6,1.2,1.9,2,3.2,2h0.1c1.4,0.1,2.7-0.5,3.4-1.7
		C219.2,108.3,219.4,107.2,219.1,106.1z"/>
	<path class="st3" d="M188.7,106.9c-0.4-2.6-1.6-5.1-3.5-7c-2.1-2.2-4.8-2.9-7.7-3c-4.5-0.1-8.5,4.1-9.8,8c-1.4,4.3,0.5,7.6,3.5,10
		c1.7,1.5,3.9,2.5,6.2,2.8c1.9,0.3,5.1,0.3,6.4-1.4C187.2,114.9,189.2,110.5,188.7,106.9z"/>
	<path class="st0" d="M181,115.8l-0.3,0.1c-1.2,0.2-2.4,0.2-3.6,0c-2-0.3-3.9-1-5.7-1.9c-1.9-2.2-2.8-5.1-2.4-7.9
		c0.6-3.9,3.8-6.9,7.7-7.3c4.7-0.5,8.4,3.3,9.6,7.4c0.6,2.1,0,3.8-0.8,5.8S182.6,114.7,181,115.8z"/>
	<path class="st3" d="M182.2,106.1c-0.3-1.1-1.1-2.1-2.1-2.8c-1.1-0.7-2.6-0.8-3.8-0.2c-1.3,0.7-2,2.1-2,3.6
		c-0.1,1.4,0.4,2.8,1.3,3.8c0.1,0.1,0.3,0.3,0.5,0.4c0.9,0.7,2,0.9,3.1,0.7c1-0.3,1.9-0.9,2.5-1.8
		C182.4,108.7,182.6,107.3,182.2,106.1z"/>
	<path class="st3" d="M199.8,113.5c0-0.7-0.2-1.4-0.5-2.1c-0.8-1-2.2-1.5-3.4-1c-1,0.4-1.8,1.2-2,2.3c-0.3,1,0.2,2,1.2,2.4
		c0.4,0.1,0.8-0.1,0.9-0.5c0.1-0.3,0-0.5-0.2-0.7c0.1,0.1,0.1-0.3,0.1-0.4c0.1-0.3,0.1-0.2,0.3-0.4s0.6-0.5,0.9-0.3
		c0.1,0.8,0.1,1.7,0.6,2.3l0.1,0.1c0.3,0.4,0.8,0.6,1.3,0.3c0.1-0.1,0.2-0.2,0.3-0.3l0.1-0.1C199.7,114.6,199.9,114.1,199.8,113.5z"
		/>
	<path class="st3" d="M202.9,129.7c-0.3-0.3-0.8-0.3-1.2,0c-1.2,1.1-0.9,2.6-1.2,4.1c-0.7,2.2-3,3.4-5.2,2.7
		c-0.2-0.1-0.3-0.1-0.5-0.2c-1.5-0.6-2.5-1.9-2.8-3.5c-0.3-1.4-0.2-2.7-1.1-3.9c-0.1-0.2-0.4-0.2-0.6,0c0,0,0,0,0,0
		c-1.4,1.7-1.4,4.4-0.6,6.3c1.1,2.4,3.3,4,5.9,4.4c2.4,0.3,4.9-0.6,6.4-2.6C203.5,135.4,204.9,131.5,202.9,129.7z"/>
	<path class="st4" d="M248.8,140c2.7-2.6,2.4-6.2-2.1-8.1c-4.1-1.7-10.6-1.3-14.2,0.8c-5.1,2.9-2.6,8.3,3.6,9.7l0.6,0.1
		c3,0.7,6.1,0.5,9-0.6C246.9,141.5,248,140.8,248.8,140z"/>
	<path class="st4" d="M166.6,140c3.6-2.6,3.2-6.2-2.7-8.1c-5.3-1.7-13.7-1.3-18.4,0.8c-6.7,2.9-3.4,8.3,4.7,9.7l0.7,0.1
		c3.9,0.7,7.9,0.5,11.7-0.6C164,141.5,165.4,140.9,166.6,140z"/>
	<path class="st2" d="M67.4,147.6l1-0.9c2-1.8,5-1.7,6.8,0.2l63.5,68.4c1.8,2,1.7,5-0.2,6.8l-1,0.9c-2,1.8-5,1.7-6.8-0.2l-63.5-68.4
		C65.4,152.5,65.5,149.4,67.4,147.6z"/>
	<circle class="st5" cx="134.2" cy="217.1" r="3.5"/>
	<path class="st6" d="M134.2,221.3c-2.3,0-4.2-1.9-4.2-4.2c0-2.3,1.9-4.2,4.2-4.2c2.3,0,4.2,1.9,4.2,4.2
		C138.4,219.4,136.5,221.3,134.2,221.3z M134.2,214.2c-1.6,0-2.9,1.3-2.9,2.9s1.3,2.9,2.9,2.9s2.9-1.3,2.9-2.9v0
		C137.1,215.5,135.8,214.2,134.2,214.2z"/>
	<path class="st0" d="M22.6,246.7c1.5,0.3,3.1,0.1,4.5-0.6c1.7-0.7,3.4-1.5,3.8-1.6s0.1,1.4,0.2,2.4c0.7,4.5-0.2,9.2-2.7,13
		c-3.3,4.9-7.7,9.8-14.6,6.6c-4.8-2.2,0.1-8,1.4-8.6c1.1-0.5-0.3-8.1,5.7-6.1c3.6,1.2,2.8-2.5,2.2-4.3
		C22.9,247.2,22.8,246.9,22.6,246.7z"/>
	<path class="st0" d="M280,158.5c0,0,28.5,10.5,41.3,53.7c10.2,34.7-7.7,78.1-7.7,78.1l-5.7-0.9c0,0-0.8-65.5-0.8-68
		S287,202,278.8,171.8C276.1,162.1,280,158.5,280,158.5z"/>
	<path class="st0" d="M306.8,283.4c0,0,2.2,1.2,9.7,0.7c0,0-1.3,10-2.5,12.4s-5.3,8.7-10.2,8.6s-5.4-6.5-2.6-8.7
		c0,0-0.9-8.4,3.7-7.8S306.7,284.8,306.8,283.4z"/>
	<path class="st2" d="M264.5,220.2l-1.3-0.3c-2.6-0.6-4.2-3.2-3.6-5.8l13.3-58.9c0.6-2.6,3.2-4.2,5.8-3.6l1.3,0.3
		c2.6,0.6,4.2,3.2,3.6,5.8l-13.3,58.9C269.7,219.2,267.1,220.8,264.5,220.2z"/>
	<circle class="st5" cx="265.5" cy="212.7" r="3.5"/>
	<path class="st6" d="M265.5,216.9c-2.3,0-4.2-1.9-4.2-4.2c0-2.3,1.9-4.2,4.2-4.2c2.3,0,4.2,1.9,4.2,4.2c0,0,0,0,0,0
		C269.6,215,267.8,216.9,265.5,216.9C265.5,216.9,265.5,216.9,265.5,216.9z M265.5,209.8c-1.6,0-2.9,1.3-2.9,2.9
		c0,1.6,1.3,2.9,2.9,2.9s2.9-1.3,2.9-2.9v0C268.4,211.1,267.1,209.8,265.5,209.8z"/>
</g>
<g>
	<circle class="st7" cx="167.2" cy="362.6" r="82"/>
	<circle class="st8" cx="167.2" cy="362.6" r="65.6"/>
	<circle class="st0" cx="167.2" cy="362.6" r="62.6"/>
	<path class="st9" d="M167.2,274.1c-26,0-50.9,10.8-68.6,29.9c-2.9,3.2-2.7,8.1,0.5,11c0.2,0.2,0.4,0.3,0.5,0.5l0,0
		c1.6,1.2,3.9,1,5.2-0.5c29.3-34.5,81.1-38.7,115.6-9.4c3.4,2.9,6.5,6,9.4,9.4c1.3,1.5,3.6,1.8,5.2,0.5l0,0c3.4-2.6,4-7.6,1.4-11
		c-0.1-0.2-0.3-0.4-0.4-0.5C218.1,284.9,193.2,274.1,167.2,274.1z"/>
</g>
<g>
	<circle class="st10" cx="167.2" cy="362.6" r="31.1"/>
	<circle class="st10" cx="167.2" cy="362.6" r="30.1"/>
	<circle class="st11" cx="167.2" cy="362.6" r="28.9"/>
	<circle class="st12" cx="167.2" cy="362.6" r="28.1"/>
	<circle class="st13" cx="167.2" cy="362.6" r="27.9"/>
	<circle class="st14" cx="167.2" cy="362.6" r="18.4"/>
	<circle class="st0" cx="167.2" cy="362.6" r="17.4"/>
	<path class="st14" d="M166.4,379.9c-9.6-0.5-17-8.6-16.5-18.2c0.5-9.6,8.6-17,18.2-16.5c9.6,0.5,17,8.6,16.5,18.2l10.5,0.5
		c0.7-15.4-11.2-28.4-26.6-29.1c-15.4-0.7-28.4,11.2-29.1,26.6c-0.7,15.4,11.2,28.4,26.6,29.1L166.4,379.9z"/>
	<path class="st15" d="M167.2,379.9c-9.6,0-17.4-7.8-17.3-17.4s7.8-17.4,17.4-17.3c9.6,0,17.3,7.8,17.3,17.4h10.5
		c0-15.4-12.5-27.9-27.9-27.9s-27.9,12.5-27.9,27.9c0,15.4,12.5,27.9,27.9,27.9c0,0,0,0,0,0L167.2,379.9z"/>
	<circle class="st11" cx="189" cy="369" r="1"/>
	<circle class="st11" cx="186.8" cy="373.8" r="1"/>
	<circle class="st11" cx="183.6" cy="377.9" r="1.1"/>
	<circle class="st12" cx="183.6" cy="377.9" r="1"/>
	<circle class="st11" cx="179.7" cy="381.2" r="1"/>
	<circle class="st11" cx="173.8" cy="384.1" r="1"/>
</g>
</svg>
