<?xml version="1.0" encoding="utf-8"?>
<!-- Generator: Adobe Illustrator 22.1.0, SVG Export Plug-In . SVG Version: 6.00 Build 0)  -->
<svg version="1.1" id="图层_1" xmlns="http://www.w3.org/2000/svg" xmlns:xlink="http://www.w3.org/1999/xlink" x="0px" y="0px"
	 viewBox="0 0 316.7 441.3" style="enable-background:new 0 0 316.7 441.3;" xml:space="preserve">
<style type="text/css">
	.st0{fill:none;stroke:#CDCFD3;stroke-linecap:round;stroke-linejoin:round;stroke-miterlimit:10;}
	.st1{fill:#FFFFFF;}
	.st2{fill:#2374C3;}
	.st3{fill:#48474F;}
	.st4{fill:#FF7872;}
	.st5{fill:#F6921E;}
	.st6{fill:#F05A24;}
	.st7{fill:#303030;}
	.st8{fill:#6D6D6D;}
	.st9{fill:#DADADA;}
	.st10{opacity:0.2;fill:#4A7EFF;enable-background:new    ;}
	.st11{fill:#4A7EFF;}
	.st12{fill:#69F4FF;}
	.st13{fill:#E84646;}
	.st14{fill:#8E2828;}
	.st15{fill:#C1B7B4;}
</style>
<title>向前走</title>
<g id="图层_2_1_">
	<g id="角色层">
		<g id="向前走">
			<g>
				<path class="st0" d="M154.2,26.1c-0.5,0.5-1.4,0.5-2,0c0,0,0,0-0.1-0.1l-5.4-5.7c-0.5-0.5-0.5-1.4,0-1.9c0.5-0.6,1.4-0.6,2,0
					c0,0,0,0,0,0l5.4,5.6C154.8,24.7,154.8,25.5,154.2,26.1z"/>
				<path class="st0" d="M153.9,19c-2.8-2.9-3.8-7.1-2.5-10.9c0.2-0.7,1-1.1,1.7-0.9c0.7,0.2,1.1,1,0.9,1.7
					c-0.5,1.5-0.5,3.2-0.1,4.8c1.2,4.3,5.7,6.9,10.1,5.7c4.3-1.2,6.9-5.7,5.7-10.1c-1.2-4.3-5.7-6.9-10.1-5.7
					c-0.7,0.2-1.5-0.2-1.7-1c0,0,0,0,0,0c-0.2-0.7,0.3-1.5,1-1.7c3.9-1.1,8.1,0,10.9,3c4.1,4.4,4,11.3-0.4,15.4
					C164.9,23.6,158,23.4,153.9,19z"/>
				<path class="st0" d="M18.9,308c-0.2,0-0.4,0.1-0.7,0.1c0,0,3,9.6,4.6,11.8c1.5,2.2,6.7,7.7,11.5,6.7c4.8-1,4.2-7.3,1-9
					c0,0-0.5-8.4-5-7.1c-4.5,1.4-2.3-3.5-2.6-4.8c0,0-0.3,0.2-1,0.5c-1-6.2-2.7-16.7-4.5-27.3c8.5,20.1,30,32.4,52.5,28.5l8.4-1.5
					c3.5-0.6,7,0.7,9.2,3.5c2.1,2.7,5.6,4,9,3.4l10.7-1.9l0.2,1.4c0.6,3.5,3.9,5.8,7.4,5.2l14.3-2.5c3.5-0.6,5.8-3.9,5.2-7.4
					l-0.2-1.4l1.1-0.2c2.1-0.4,3.5-2.4,3.1-4.5c-0.2-1,0.5-2,1.5-2.2l42.5-7.5c1-0.2,2,0.5,2.2,1.5c0.4,2.1,2.4,3.5,4.5,3.2l1.1-0.2
					l0.2,1.4c0.6,3.5,3.9,5.8,7.4,5.2l14.3-2.5c3.5-0.6,5.8-3.9,5.2-7.4l-0.2-1.4l10.7-1.9c3.4-0.6,6.2-3,7.3-6.3
					c1.1-3.3,4-5.8,7.4-6.4l8.4-1.5c0,0,0,0,0,0c22.4-4,38.4-22.9,39.5-44.6c0.7,1.2,1.5,2.3,2.5,3.4c4.1,4.2,9.3,8.3,15.5,3.9
					c4.3-3-1.5-7.9-2.9-8.2c-1.2-0.3-1.1-8-6.6-5c-3.4,1.8-3.2-2-2.9-3.8c0.1-0.3,0.2-0.6,0.4-0.9c-0.3,0.1-0.6,0.2-0.9,0.3
					c1.8-3.2,8.6-15.1,12.6-27.3c3.5-10.5,6.5-20.1-6-30.5C277.5,138,253.8,139,253.8,139c0,0.1,0,0.3,0.1,0.4
					c-3.7-1.9-7.5-3.5-11.4-4.8c0-1.5-0.8-3-2.2-3.9l-1.1-0.7c-2.2-1.4-5.2-0.8-6.7,1.4l-0.4,0.6c-0.7-0.1-1.3-0.2-2-0.3
					c-10.7-38.6-46.1-67-88.2-67c-6,0-11.9,0.6-17.6,1.7c-0.5-5.1,0.1-10.3,1.6-15.2c1.7-5,4.4-9.7,7.9-13.6
					c3.8-4.3,8.3-8,13.3-10.7c0.1-0.1,0.2-0.1,0.3-0.2l0.1,0.2c0.5,0.5,1.3,0.5,1.9,0c0.6-0.5,0.6-1.4,0.1-1.9l-1.8-1.8c0,0,0,0,0,0
					c-0.5-0.5-1.4-0.5-1.9,0c-0.5,0.5-0.6,1.4-0.1,1.9l0.4,0.4c-5.2,2.8-9.8,6.5-13.7,11c-3.7,4.2-6.5,9-8.2,14.3
					c-1.7,5.2-2.2,10.7-1.7,16.1c-41.2,8.9-72.2,45.5-72.2,89.4c0,2.3,0.1,4.6,0.3,6.8c-4.7,2.5-9,5.5-13,8.8
					c-1.3-1.1-3.2-1.5-5-0.8l-1.3,0.5c-2.5,1-3.6,3.9-2.6,6.3l0.7,1.7c-0.5,0.6-1.1,1.2-1.6,1.8c-7.7,6.5-23.2,23.5-26.9,56.7
					C-2,265.7,12.3,295.7,18.9,308z M296.1,203.5c-0.2-2.6-0.5-5.3-1-8c-1.4-7.8-3.9-15.1-7.3-21.9c7.8,3.3,11.7,4.1,12,5.6
					C300,180.7,298,192.8,296.1,203.5z"/>
			</g>
			<g>
				<circle class="st1" cx="141.9" cy="156.1" r="91.5"/>
				<path class="st1" d="M259,157.4c27,18.6,40.3,19,40.8,21.8s-6.8,41.3-6.8,41.3l7,0.6c0,0,8.4-13.9,13.1-28.1
					c3.5-10.5,6.5-20.1-6-30.5C277.5,138,253.8,139,253.8,139C254.6,145.4,256.3,151.6,259,157.4z"/>
				<path class="st1" d="M123.2,70.9c-1.4-6.8-1-13.8,1.1-20.4c1.8-5.3,4.6-10.1,8.2-14.3c3.9-4.5,8.6-8.3,13.8-11.1
					c0.4-0.2,0.9,0,1.1,0.4c0.2,0.4,0.1,1-0.3,1.2c-5,2.7-9.6,6.4-13.3,10.7c-3.5,4-6.2,8.6-7.9,13.6c-2,6.3-2.3,13-1,19.4
					c0.1,0.5-0.3,0.9-0.7,1h-0.2C123.7,71.6,123.3,71.3,123.2,70.9z"/>
				<path class="st1" d="M146.8,20.4l5.4,5.6c0,0,0,0,0.1,0.1c0.5,0.5,1.4,0.5,2,0s0.5-1.4,0-2l-5.4-5.6c0,0,0,0,0,0
					c-0.6-0.5-1.4-0.5-2,0C146.3,19,146.3,19.8,146.8,20.4z"/>
				<path class="st1" d="M151.4,8.1c0.2-0.7,1-1.1,1.7-0.9s1.1,1,0.9,1.7c-0.5,1.5-0.5,3.2-0.1,4.8c1.2,4.3,5.7,6.9,10.1,5.7
					c4.3-1.2,6.9-5.7,5.7-10.1s-5.7-6.9-10.1-5.7c-0.7,0.2-1.5-0.2-1.7-1c0,0,0,0,0,0c-0.2-0.7,0.3-1.5,1-1.7c3.9-1.1,8.1,0,10.9,3
					c4.1,4.4,4,11.3-0.4,15.4s-11.3,4-15.4-0.4C151.1,16.2,150.1,12,151.4,8.1z"/>
				<path class="st1" d="M145.8,24.9l1.8,1.8c0.5,0.5,1.3,0.5,1.9,0c0.6-0.5,0.6-1.4,0.1-1.9l-1.8-1.8c0,0,0,0,0,0
					c-0.5-0.5-1.4-0.5-1.9,0C145.4,23.6,145.3,24.4,145.8,24.9z"/>
				<path class="st1" d="M10.5,245.7L10.5,245.7C10.5,245.7,10.5,245.7,10.5,245.7c-7.5-42.7,21-83.3,63.6-90.8l130.1-22.9
					c42.7-7.5,83.3,21,90.9,63.6l0,0c7.5,42.6-22.2,76.3-64.9,83.8l-130.1,22.9C57.5,309.7,18.1,288.3,10.5,245.7z"/>
				<path class="st1" d="M129.7,265.7c-0.8,0-1.6-0.6-1.7-1.4c-0.1-0.9,0.5-1.7,1.4-1.8c0.3,0,0.5-0.1,0.8-0.1
					c3.8-0.7,6.5-4,6.4-7.9c-0.2-4.2-3.7-7.6-8-7.4c-0.8,0-1.5-0.6-1.5-1.4c-0.1-0.9,0.5-1.7,1.4-1.8c5.4-0.2,10.1,3.6,11.1,9
					c1.1,5.9-2.9,11.6-8.8,12.7C130.4,265.6,130.1,265.6,129.7,265.7z M111,269c0.4-0.1,0.7-0.1,1.1-0.2c0.7-0.3,1.2-1,1-1.8
					c-0.2-0.9-1-1.4-1.9-1.2c-0.3,0.1-0.5,0.1-0.8,0.2c-3.4,0.6-6.8-1.1-8.3-4.2c-1.9-3.8-0.3-8.4,3.6-10.3c0.7-0.4,1-1.3,0.7-2
					c-0.3-0.8-1.3-1.2-2.1-0.9c-4.4,2.1-6.8,6.9-6,11.7C99.4,266.1,105.1,270.1,111,269z M116.4,268.1l8.9-1.6c0,0,0.1,0,0.1,0
					c0.9-0.2,1.4-1,1.2-1.9c-0.2-0.9-1-1.4-1.9-1.2l-8.9,1.6c-0.9,0.2-1.4,1-1.3,1.9C114.7,267.6,115.6,268.2,116.4,268.1z
					 M120.2,271.9l2.9-0.5c0.8-0.2,1.4-1,1.3-1.8c-0.1-0.9-1-1.5-1.8-1.3l-2.9,0.5c-0.9,0.2-1.4,1-1.3,1.9
					C118.5,271.5,119.4,272.1,120.2,271.9z"/>
				<path class="st1" d="M107.5,255.7c-0.6-0.7-0.4-1.7,0.3-2.3c0.7-0.6,1.7-0.4,2.3,0.3c1.2,1.5,2.7,2.6,4.5,3.2
					c5,1.6,10.3-1.1,11.9-6.1c1.6-5-1.1-10.3-6.1-11.9c-5-1.6-10.3,1.1-11.9,6.1c0,0.1-0.1,0.2-0.1,0.3c-0.4,0.8-1.3,1.2-2.1,0.8
					s-1.2-1.3-0.8-2.1c1.4-4.5,5.2-7.7,9.9-8.6c6.9-1.2,13.4,3.4,14.7,10.3s-3.4,13.4-10.3,14.7
					C115.1,261.2,110.4,259.4,107.5,255.7z"/>
				<path class="st1" d="M195.3,297.6l-0.3-1.8c-0.6-3.5,1.7-6.8,5.2-7.4l14.3-2.5c3.5-0.6,6.8,1.7,7.4,5.2l0.3,1.8
					c0.6,3.5-1.7,6.8-5.2,7.4l-14.3,2.5C199.2,303.4,195.9,301.1,195.3,297.6z"/>
				<path class="st1" d="M139,305.7l0.3,1.8c0.6,3.5-1.7,6.8-5.2,7.4l-14.3,2.5c-3.5,0.6-6.8-1.7-7.4-5.2l-0.3-1.8
					c-0.6-3.5,1.7-6.8,5.2-7.4l14.3-2.5C135,299.9,138.3,302.2,139,305.7z"/>
				<path class="st2" d="M19.2,268.5c4.6,26.1,29.5,43.4,55.5,38.8l8.4-1.5c3.5-0.6,7,0.7,9.2,3.5l0,0c2.1,2.7,5.6,4,9,3.4l38.7-6.8
					c2.1-0.4,3.5-2.4,3.1-4.5l0,0c-0.2-1,0.5-2,1.5-2.2l42.5-7.5c1-0.2,2,0.5,2.2,1.5l0,0c0.4,2.1,2.4,3.5,4.5,3.1l38.7-6.8
					c3.4-0.6,6.2-3,7.3-6.3l0,0c1.1-3.3,4-5.8,7.4-6.4l8.4-1.5c0,0,0,0,0,0c26.1-4.6,43.5-29.4,38.9-55.5l0,0L226,232c0,0,0,0,0,0
					c-14.8,2.6-29-7.3-31.6-22.1l0,0c0,0,0,0,0,0c-1-5.5-6.2-9.1-11.7-8.2L49.2,225.2c0,0,0,0,0,0c-5.5,1-9.1,6.2-8.2,11.7l0,0
					c2.6,14.9-12.3,29.9-27.1,32.5L19.2,268.5L19.2,268.5C19.2,268.5,19.2,268.5,19.2,268.5z"/>
				<path class="st1" d="M118.8,282.4c-1.4,0-2.8,0-4.2-0.2c-1.4-0.2-2.8-0.5-4.1-0.9c-1.4-0.4-2.7-0.9-4-1.5
					c-2.6-1.2-4.9-2.8-7-4.7c-1-1-2-2-2.9-3.1c-0.9-1.1-1.7-2.3-2.4-3.5c-0.7-1.2-1.3-2.5-1.8-3.8l-0.2-0.5l-0.1-0.2l-0.1-0.3
					l-0.3-1l-0.3-1c-0.1-0.3-0.2-0.6-0.2-1c-0.1-0.7-0.3-1.4-0.4-2.1l-0.4-2.1l-0.7-4.1l-1.5-8.3l-1.4-8.3l-0.1-0.4l0.4-0.1
					l53.7-9.3l0.3-0.1l0.1,0.3l2.9,16.6l0.7,4.1l0.4,2.1c0.1,0.7,0.2,1.4,0.3,2.1c0.1,0.4,0.1,0.7,0.1,1.1s0.1,0.7,0.1,1.1v1v1.1
					c0,1.4-0.1,2.8-0.4,4.2c-0.2,1.4-0.6,2.8-1,4.1c-0.5,1.3-1,2.6-1.6,3.9c-1.3,2.5-3,4.8-4.9,6.8c-1,1-2.1,1.9-3.2,2.8
					c-1.1,0.8-2.3,1.6-3.6,2.2c-2.5,1.3-5.2,2.2-7.9,2.7C121.6,282.2,120.2,282.4,118.8,282.4z M122.9,281.9
					c5.5-1,10.6-3.8,14.5-7.9c1-1,1.9-2.1,2.7-3.2c0.8-1.1,1.5-2.3,2.2-3.6c0.6-1.2,1.1-2.5,1.6-3.9c0.4-1.3,0.8-2.7,1-4.1
					c0.2-1.4,0.3-2.8,0.3-4.2v-1v-1c0-0.3-0.1-0.7-0.1-1s-0.1-0.7-0.1-1c-0.1-0.7-0.2-1.4-0.4-2.1l-0.4-2.1l-0.7-4.1l-3-16.6
					l0.3,0.2l-53.6,9.6l0.4-0.5L89,244l1.4,8.3l0.7,4.1l0.4,2.1c0.1,0.7,0.2,1.4,0.4,2.1s0.3,1.3,0.5,2l0.3,1l0.1,0.2l0.1,0.2
					l0.2,0.5c0.5,1.3,1,2.6,1.7,3.8c0.7,1.2,1.4,2.4,2.3,3.5c0.8,1.1,1.8,2.1,2.8,3.1c2,1.9,4.3,3.5,6.8,4.7c2.5,1.2,5.2,2.1,8,2.5
					c1.4,0.2,2.8,0.3,4.2,0.3C120.2,282.3,121.6,282.2,122.9,281.9L122.9,281.9z"/>
				<path class="st1" d="M127.1,262.8c-0.7,0.1-1.4-0.5-1.4-1.2c-0.1-0.7,0.5-1.4,1.2-1.4c0.2,0,0.4,0,0.7-0.1
					c3.2-0.6,5.4-3.4,5.3-6.6c-0.1-3.5-3.1-6.3-6.7-6.2l0,0c-0.7,0-1.4-0.5-1.4-1.3s0.5-1.4,1.3-1.4c4.4,0,8.1,3,9,7.3
					c1,4.9-2.2,9.7-7.1,10.7C127.7,262.7,127.4,262.7,127.1,262.8z M100.9,258.2C100.9,258.2,100.9,258.2,100.9,258.2
					c0.9,5,5.7,8.3,10.6,7.4c0.3-0.1,0.6-0.1,0.9-0.2c0.1,0,0.1,0,0.2-0.1c0.7-0.3,1-1,0.8-1.7s-1-1-1.7-0.8
					c-0.2,0.1-0.4,0.1-0.6,0.1c-2.8,0.5-5.6-0.9-6.9-3.5c-1.6-3.2-0.2-7,2.9-8.6c0.6-0.3,0.8-1,0.6-1.6c-0.3-0.7-1-1-1.7-0.8
					C102.3,250.2,100.3,254.1,100.9,258.2L100.9,258.2z M114.4,263.7C114.4,263.7,114.4,263.7,114.4,263.7c0.1,0.7,0.9,1.2,1.6,1.1
					l7.4-1.3c0.7-0.1,1.2-0.8,1.1-1.5c-0.1-0.7-0.8-1.2-1.5-1.1l-7.4,1.3C114.8,262.2,114.3,262.9,114.4,263.7L114.4,263.7z
					 M117.6,266.9C117.6,266.9,117.6,266.9,117.6,266.9c0.2,0.7,0.9,1.2,1.6,1.1l2.4-0.4l0,0c0.7-0.1,1.2-0.8,1.1-1.5
					c-0.1-0.7-0.8-1.2-1.5-1.1l-2.4,0.4c0,0,0,0,0,0C118,265.4,117.5,266.1,117.6,266.9L117.6,266.9z"/>
				<path class="st1" d="M108.5,254.4c-0.4-0.5-0.3-1.3,0.2-1.7c0.5-0.5,1.4-0.5,1.9,0.1c1,1.2,2.3,2.2,3.8,2.6
					c4.1,1.3,8.6-0.9,10-5.1s-0.9-8.6-5.1-10c-4.1-1.3-8.6,0.9-10,5.1c0,0,0,0,0,0c-0.2,0.7-1,1.1-1.7,0.8c-0.7-0.2-1.1-1-0.8-1.7
					c1.2-3.7,4.4-6.4,8.2-7.1c5.7-1,11.2,2.8,12.2,8.6c1,5.7-2.8,11.2-8.6,12.2C114.8,259,110.9,257.5,108.5,254.4z"/>
				<path class="st3" d="M82,125.9c1.6,1.4,4.8,0.9,6.6,0.3c2.2-0.7,4.2-2,5.6-3.8c2.6-2.9,3.8-6.5,1.7-10.5
					c-1.9-3.7-6.6-7.1-11-6.2c-2.9,0.6-5.5,1.7-7.1,4.2c-1.5,2.2-2.3,4.8-2.2,7.4C75.7,120.9,78.4,124.9,82,125.9z"/>
				<path class="st1" d="M79.6,121.7c-1.1-1.8-2-3.3-1.7-5.6c0.4-4.3,3.5-8.7,8.1-9c4-0.3,7.6,2.1,8.9,5.9c0.9,2.8,0.5,5.8-1,8.2
					c-1.6,1.2-3.4,2.2-5.3,2.9c-1.1,0.4-2.4,0.6-3.6,0.6c-0.1,0-0.2,0-0.3,0C83,123.9,80.7,123.5,79.6,121.7z"/>
				<path class="st3" d="M84.4,118.7c0.9,1,2.3,1.5,3.7,1.1h0.1c1.3-0.2,2.5-1.2,2.9-2.5c0.1-0.2,0.1-0.3,0.1-0.5
					c0.5-1.4,0.2-3-0.7-4.2c-0.4-0.7-1-1.2-1.8-1.5c-0.6-0.3-1.3-0.3-1.9-0.2h-0.2c-1.4,0.2-2.5,1.1-3,2.3c-0.3,0.8-0.4,1.7-0.2,2.6
					C83.3,116.9,83.6,117.9,84.4,118.7z"/>
				<path class="st3" d="M119.8,119.9c1.6,1.4,4.8,0.9,6.6,0.3c2.2-0.7,4.2-2,5.6-3.8c2.6-2.9,3.8-6.5,1.7-10.5
					c-1.9-3.7-6.6-7.1-11-6.2c-2.9,0.6-5.5,1.7-7.1,4.2c-1.5,2.2-2.3,4.8-2.2,7.4C113.5,115,116.2,118.9,119.8,119.9z"/>
				<path class="st1" d="M117.4,115.7c-1.1-1.8-2-3.4-1.7-5.6c0.4-4.3,3.5-8.7,8.1-9c4-0.3,7.6,2.1,8.9,5.9c0.9,2.8,0.5,5.8-1,8.2
					c-1.6,1.2-3.4,2.2-5.3,2.9c-1.1,0.4-2.4,0.6-3.6,0.6c-0.1,0-0.2,0-0.3,0C120.8,117.9,118.5,117.5,117.4,115.7z"/>
				<path class="st3" d="M120.8,112.9c0.7,0.8,1.7,1.3,2.7,1.3c1.1,0.1,2.2-0.4,3-1.2c0.2-0.1,0.3-0.3,0.4-0.5
					c0.7-1.2,0.9-2.6,0.5-4c-0.2-1.4-1.2-2.7-2.5-3.2c-1.3-0.4-2.7-0.1-3.7,0.8c-0.9,0.8-1.4,1.9-1.6,3.1
					C119.5,110.7,119.9,112,120.8,112.9z"/>
				<path class="st3" d="M104.3,121.2l0.1,0.1c0.1,0.1,0.2,0.2,0.3,0.2c0.5,0.2,1,0,1.2-0.5c0,0,0-0.1,0-0.1
					c0.4-0.7,0.2-1.6,0.2-2.4c0.3-0.2,0.8-0.1,1,0.1s0.2,0.1,0.3,0.3c0,0.1,0.2,0.4,0.2,0.4c-0.4,0.6,0.2,1.4,0.9,1.1
					c0.8-0.5,1.1-1.6,0.7-2.5c-0.4-1-1.3-1.7-2.4-1.9c-1.3-0.2-2.6,0.4-3.2,1.6c-0.2,0.7-0.2,1.4-0.1,2.1
					C103.7,120.3,103.9,120.9,104.3,121.2z"/>
				<path class="st3" d="M105.6,143.4c1.8,1.6,4.4,2.2,6.7,1.4c2.5-0.8,4.4-2.8,5-5.3c0.4-2-0.1-4.7-1.7-6.1
					c-0.2-0.1-0.4-0.1-0.6,0.1c-0.7,1.3-0.5,2.6-0.5,4c0,1.6-0.8,3.1-2.1,3.9c-0.1,0.1-0.3,0.2-0.5,0.3c-2,1-4.5,0.2-5.5-1.8
					c-0.7-1.4-0.5-3-1.9-3.9c-0.4-0.3-0.9-0.2-1.1,0.2C101.7,138.3,103.8,142,105.6,143.4z"/>
				<path class="st4" d="M63.3,155.7c3,0.6,6.1,0.3,8.9-0.9l0.5-0.2c5.9-2.4,7.4-8.2,1.9-10.2c-3.9-1.4-10.3-0.7-14.1,1.7
					c-4.1,2.6-3.8,6.2-0.7,8.3C60.9,155.1,62.1,155.5,63.3,155.7z"/>
				<path class="st4" d="M145.3,141.2c3.9,0.4,7.9,0,11.6-1.4c0.2-0.1,0.5-0.2,0.7-0.2c7.7-2.8,10-8.7,2.9-10.4
					c-5-1.2-13.3-0.2-18.3,2.4c-5.5,2.9-5.3,6.4-1.3,8.4C142.3,140.8,143.7,141.2,145.3,141.2z"/>
				<path class="st2" d="M241.7,137.4l-50.4,78.4c-1.4,2.2-4.4,2.9-6.7,1.4l-1.1-0.7c-2.2-1.4-2.9-4.4-1.4-6.7l50.4-78.4
					c1.4-2.2,4.4-2.9,6.7-1.4l1.1,0.7C242.5,132.2,243.1,135.1,241.7,137.4z"/>
				<circle class="st5" cx="186.2" cy="210.4" r="3.5"/>
				<path class="st6" d="M182.1,211.1C182.1,211.1,182.1,211.1,182.1,211.1c-0.4-2.3,1.1-4.4,3.4-4.8c2.3-0.4,4.4,1.1,4.8,3.4
					c0.4,2.3-1.1,4.4-3.4,4.8C184.7,214.9,182.5,213.4,182.1,211.1z M185.7,207.6c-1.5,0.3-2.6,1.7-2.4,3.3c0,0,0,0,0,0
					c0.3,1.6,1.8,2.6,3.4,2.3c1.6-0.3,2.6-1.8,2.3-3.4c-0.3-1.6-1.8-2.6-3.4-2.3V207.6z"/>
				<path class="st1" d="M300.9,221c-0.3,1.8-0.5,5.6,2.9,3.8c5.6-3,5.4,4.7,6.6,5c1.4,0.4,7.2,5.2,2.9,8.2
					c-6.3,4.4-11.4,0.3-15.5-3.9c-3.1-3.4-4.9-7.8-4.9-12.4c0-1-0.6-2.4-0.2-2.4s2.2,0.5,4,0.9c1.5,0.5,3.1,0.4,4.6-0.2
					C301.1,220.4,301,220.7,300.9,221z"/>
				<path class="st1" d="M36,190.9c-2.8,31.2-19.8,51.3-19.3,53.7s11.1,67.1,11.1,67.1l-5.5,1.9c0,0-25.1-39.7-21.1-75.6
					c5-44.7,31.3-60,31.3-60S36.9,180.9,36,190.9z"/>
				<path class="st1" d="M30.4,310.4c4.5-1.4,5,7.1,5,7.1c3.2,1.7,3.8,8.1-1,9s-10-4.5-11.5-6.7S18.3,308,18.3,308
					c7.5-0.8,9.5-2.4,9.5-2.4C28.1,307,25.9,311.8,30.4,310.4z"/>
				<path class="st2" d="M52.1,233.5l-23.3-55.7c-1-2.5,0.1-5.3,2.6-6.3l1.3-0.5c2.5-1,5.3,0.1,6.3,2.6l23.3,55.7
					c1,2.5-0.1,5.3-2.6,6.3l-1.3,0.5C56,237.1,53.2,236,52.1,233.5z"/>
				<circle class="st5" cx="56.2" cy="228.9" r="3.5"/>
				<path class="st6" d="M52.1,229.6C52.1,229.6,52.1,229.6,52.1,229.6c-0.4-2.3,1.1-4.4,3.4-4.8c2.3-0.4,4.4,1.1,4.8,3.4
					c0.4,2.3-1.1,4.4-3.4,4.8C54.6,233.4,52.5,231.9,52.1,229.6z M55.6,226c-1.6,0.3-2.6,1.8-2.4,3.4c0.3,1.6,1.8,2.6,3.3,2.3
					c1.6-0.3,2.6-1.8,2.4-3.3C58.7,226.8,57.2,225.7,55.6,226L55.6,226z"/>
			</g>
			<g>
				<circle class="st7" cx="179" cy="359.4" r="82"/>
				<circle class="st8" cx="179" cy="359.4" r="65.6"/>
				<circle class="st1" cx="179" cy="359.4" r="62.6"/>
				<path class="st9" d="M101.2,313.6c-0.1,0.2-0.2,0.4-0.3,0.5c-2,3.8-0.6,8.6,3.2,10.6l0,0c1.8,0.9,4,0.3,5-1.4
					c2.3-3.8,4.8-7.5,7.7-10.9c28.9-34.9,80.6-39.7,115.5-10.8c1.5,1.3,3.8,1.1,5.2-0.4l0,0c0.2-0.2,0.3-0.4,0.5-0.5
					c2.6-3.4,1.9-8.3-1.5-10.9c-20.8-15.7-47.1-22-72.8-17.5C138,276.8,115.4,291.7,101.2,313.6z"/>
				<g>
					<circle class="st10" cx="179" cy="359.4" r="31.1"/>
					<circle class="st10" cx="179" cy="359.4" r="30.1"/>
					<circle class="st11" cx="179" cy="359.4" r="28.9"/>
					<circle class="st12" cx="179" cy="359.4" r="28.1"/>
					<circle class="st13" cx="179" cy="359.4" r="27.9"/>
					<circle class="st14" cx="179" cy="359.4" r="18.4"/>
					<circle class="st1" cx="179" cy="359.4" r="17.4"/>
					<path class="st14" d="M175.2,376.3c-9.4-2.1-15.3-11.4-13.2-20.8s11.4-15.3,20.8-13.2c9.4,2.1,15.3,11.4,13.2,20.8l10.2,2.3
						c3.3-15-6.1-29.9-21.2-33.3c-15-3.3-29.9,6.1-33.3,21.2c-3.3,15,6.1,29.9,21.1,33.3L175.2,376.3z"/>
					<path class="st15" d="M176,376.5c-9.5-1.7-15.8-10.7-14.1-20.1c1.7-9.5,10.7-15.8,20.1-14.1s15.8,10.7,14.1,20.1c0,0,0,0,0,0
						l10.4,1.8c2.7-15.2-7.5-29.6-22.6-32.3c-15.2-2.7-29.6,7.5-32.3,22.6c-2.7,15.2,7.5,29.6,22.6,32.3L176,376.5z"/>
					<circle class="st11" cx="199.3" cy="369.4" r="1"/>
					<circle class="st11" cx="196.3" cy="373.8" r="1"/>
					<circle class="st11" cx="192.5" cy="377.3" r="1.1"/>
					<circle class="st12" cx="192.5" cy="377.3" r="1"/>
					<circle class="st11" cx="188" cy="379.9" r="1"/>
					<circle class="st11" cx="181.7" cy="381.7" r="1"/>
				</g>
			</g>
		</g>
	</g>
</g>
</svg>
