<?xml version="1.0" encoding="utf-8"?>
<!-- Generator: Adobe Illustrator 22.1.0, SVG Export Plug-In . SVG Version: 6.00 Build 0)  -->
<svg version="1.1" id="图层_1" xmlns="http://www.w3.org/2000/svg" xmlns:xlink="http://www.w3.org/1999/xlink" x="0px" y="0px"
	 viewBox="0 0 325 448.4" style="enable-background:new 0 0 325 448.4;" xml:space="preserve">
<style type="text/css">
	.st0{fill:#FFFFFF;}
	.st1{fill:none;stroke:#CDCFD3;stroke-linecap:round;stroke-linejoin:round;stroke-miterlimit:10;}
	.st2{fill:#2374C3;}
	.st3{fill:#48474F;}
	.st4{fill:#FF7872;}
	.st5{fill:#F6921E;}
	.st6{fill:#F05A24;}
	.st7{fill:#303030;}
	.st8{fill:#6D6D6D;}
	.st9{fill:#DADADA;}
	.st10{opacity:0.2;fill:#4A7EFF;enable-background:new    ;}
	.st11{fill:#4A7EFF;}
	.st12{fill:#69F4FF;}
	.st13{fill:#E84646;}
	.st14{fill:#8E2828;}
	.st15{fill:#C1B7B4;}
</style>
<title>向前站立</title>
<path class="st0" d="M184.6,304.6v-1.8c0-3.5,2.9-6.4,6.4-6.4h14.5c3.5,0,6.4,2.9,6.4,6.4v1.8c0,3.5-2.9,6.4-6.4,6.4H191
	C187.5,311,184.6,308.1,184.6,304.6z"/>
<path class="st0" d="M127.8,302.8v1.8c0,3.5-2.9,6.4-6.4,6.4h-14.5c-3.5,0-6.4-2.9-6.4-6.4v-1.8c0-3.5,2.9-6.4,6.4-6.4h14.5
	C124.9,296.4,127.8,299.2,127.8,302.8z"/>
<g>
	<path class="st1" d="M191.1,30c-0.6,0.3-1.4,0.2-1.8-0.4l-4.3-6.5c-0.4-0.6-0.3-1.5,0.4-1.9c0.6-0.4,1.5-0.3,1.9,0.4l4.3,6.5
		C192,28.8,191.8,29.7,191.1,30z"/>
	<path class="st1" d="M207.4,26.1c-5,3.3-11.8,2-15.1-3c-2.3-3.4-2.5-7.7-0.5-11.3c0.4-0.7,1.2-0.9,1.9-0.6c0.7,0.4,0.9,1.2,0.6,1.9
		c-0.8,1.4-1.1,3.1-1,4.7c0.4,4.5,4.4,7.8,8.9,7.4c4.5-0.4,7.8-4.4,7.4-8.9s-4.4-7.8-8.9-7.4c-0.7,0-1.3-0.5-1.4-1.1
		c-0.1-0.8,0.4-1.5,1.1-1.6c4-0.4,7.9,1.4,10.2,4.8C213.7,16,212.4,22.8,207.4,26.1z"/>
	<path class="st1" d="M9.2,284.2c-0.2,0-0.4,0-0.7,0c0,0,1.3,10,2.5,12.4s5.3,8.7,10.2,8.6c4.9-0.1,5.4-6.5,2.6-8.7
		c0,0,0.9-8.4-3.7-7.8s-1.7-3.8-1.8-5.2c0,0-0.3,0.2-1,0.3c0.1-6.2,0.2-16.9,0.3-27.7c4.9,21.3,23.9,37.1,46.7,37.1h8.6
		c3.5,0,6.8,1.9,8.4,5c1.6,3,4.8,4.9,8.3,5h39.3c2.1,0,3.9-1.7,3.9-3.9c0-1,0.8-1.9,1.9-1.9h43.2c1,0,1.9,0.8,1.9,1.9
		c0,2.1,1.7,3.9,3.9,3.9h39.3c3.5,0,6.7-1.9,8.3-5c1.7-3.1,4.9-5,8.4-5h8.5c22.8,0,41.8-15.9,46.7-37.1c0.5,1.3,1.1,2.6,1.8,3.8
		c3.3,4.9,7.7,9.8,14.6,6.5c4.8-2.2-0.1-8-1.4-8.6c-1.1-0.5,0.3-8.1-5.7-6.1c-3.6,1.2-2.8-2.5-2.2-4.3c0.1-0.3,0.2-0.6,0.4-0.8
		c-0.3,0.1-0.6,0.1-0.9,0.1c2.4-2.8,11.1-13.4,17.2-24.7c5.2-9.8,9.9-18.7-0.6-31.1c-24.8-29.3-48.4-32.4-48.4-32.4
		c0,0.1,0,0.3,0,0.4c-3.4-2.6-7-4.9-10.7-6.9c0.3-1.6-0.1-3.3-1.4-4.5l-1-0.9c-2-1.8-5-1.7-6.8,0.2l-0.7,0.7
		c-0.5-0.2-0.9-0.3-1.4-0.5c-4.4-46.4-43.5-82.7-91.1-82.7c-0.6,0-1.1,0-1.7,0c0.4-5.1,1.8-10.2,4.2-14.8c2.5-4.6,6-8.7,10.1-12
		c4.5-3.6,9.6-6.4,15-8.2c0.1,0,0.1-0.1,0.2-0.1l0.2,0.2c0.4,0.6,1.3,0.8,1.9,0.4c0.6-0.4,0.8-1.3,0.4-1.9l-1.4-2.1c0,0,0,0,0,0
		c-0.4-0.6-1.3-0.8-1.9-0.4c0,0,0,0,0,0c-0.6,0.4-0.8,1.3-0.4,1.9l0.3,0.4c-5.5,1.9-10.7,4.7-15.2,8.4c-4.4,3.4-8,7.7-10.6,12.6
		c-2.6,4.9-4.1,10.2-4.5,15.7c-45.9,1.7-83.1,37.2-87.6,82.3c-5,1.7-9.8,3.8-14.4,6.4c-1.1-1.4-2.9-2.1-4.8-1.6l-1.3,0.3
		c-2.6,0.6-4.2,3.2-3.6,5.8l0.4,1.8c-0.6,0.5-1.3,1-1.9,1.5c-8.7,5.1-26.9,19.1-36.3,51.1C-4.1,238.9,4.7,271,9.2,284.2z
		 M308.1,206.2c0,1.5-4.2,13.2-7.9,23.5c0.3-2.7,0.5-5.5,0.5-8.3c0-7.9-1.2-15.6-3.4-22.8C304.4,203.2,308.1,204.6,308.1,206.2z"/>
</g>
<g>
	<circle class="st0" cx="156.7" cy="156" r="91.5"/>
	<path class="st0" d="M271.7,177.6c23.4,23,36.4,25.8,36.4,28.6s-13.9,39.5-13.9,39.5l6.8,1.8c0,0,10.7-12.2,17.8-25.4
		c5.2-9.8,9.9-18.7-0.6-31.1c-24.8-29.3-48.4-32.4-48.4-32.4C269.5,165,270.1,171.4,271.7,177.6z"/>
	<path class="st0" d="M153.1,68.8c-0.2-6.9,1.4-13.8,4.6-19.9c2.7-4.9,6.3-9.2,10.6-12.6c4.6-3.8,9.9-6.6,15.5-8.5
		c0.4-0.1,0.8,0.2,1,0.5c0.2,0.5,0,1-0.5,1.2c-5.4,1.8-10.5,4.6-15,8.2c-4.1,3.3-7.6,7.4-10.1,12c-3.1,5.9-4.6,12.4-4.4,19
		c0,0.5-0.4,0.9-0.9,0.9h-0.2C153.4,69.6,153.1,69.2,153.1,68.8z"/>
	<path class="st0" d="M185,23.2l4.3,6.5c0.4,0.5,1.2,0.7,1.8,0.4c0.7-0.4,0.9-1.2,0.5-1.9l-4.3-6.5c-0.4-0.6-1.3-0.8-1.9-0.4
		C184.8,21.7,184.6,22.5,185,23.2z"/>
	<path class="st0" d="M191.7,11.8c0.4-0.7,1.2-0.9,1.9-0.6s0.9,1.2,0.6,1.9c-0.8,1.4-1.1,3.1-1,4.7c0.4,4.5,4.4,7.8,8.9,7.4
		c4.5-0.4,7.8-4.4,7.4-8.9c-0.4-4.5-4.4-7.8-8.9-7.4c-0.7,0-1.3-0.5-1.4-1.1c-0.1-0.8,0.4-1.5,1.1-1.6c4-0.4,7.9,1.4,10.2,4.8
		c3.3,5,2,11.8-3,15.1s-11.8,2-15.1-3C190,19.7,189.8,15.4,191.7,11.8z"/>
	<path class="st0" d="M183.7,25.6c-0.6,0.4-0.8,1.3-0.4,1.9l1.4,2.1l0,0c0.4,0.6,1.3,0.8,1.9,0.4c0.6-0.4,0.8-1.3,0.4-1.9l-1.4-2.1
		c0,0,0,0,0,0C185.1,25.3,184.3,25.2,183.7,25.6C183.7,25.6,183.7,25.6,183.7,25.6z"/>
	<path class="st0" d="M11.7,221.3L11.7,221.3c0-43.3,35.1-78.4,78.4-78.4h132.1c43.3,0,78.4,35.1,78.4,78.4l0,0
		c0,43.3-35.1,71.2-78.4,71.2H90.1C46.8,292.6,11.7,264.7,11.7,221.3z"/>
	<path class="st0" d="M125.6,261.8L125.6,261.8c-0.9-0.1-1.5-0.9-1.4-1.7c0.1-0.9,0.9-1.5,1.7-1.4c0.3,0,0.5,0,0.8,0
		c3.8,0,7-2.8,7.6-6.6c0.6-4.2-2.3-8.1-6.5-8.7c-0.8-0.2-1.3-0.9-1.3-1.7c0.1-0.9,0.8-1.6,1.7-1.5c5.4,0.8,9.3,5.3,9.4,10.7
		c0,6-4.8,10.9-10.9,10.9C126.3,261.8,126,261.8,125.6,261.8z M95.7,250.9C95.7,250.9,95.7,250.9,95.7,250.9c0,6,4.9,10.9,10.9,10.9
		c0.4,0,0.7,0,1.1-0.1c0.9-0.1,1.5-0.9,1.4-1.7c-0.1-0.9-0.9-1.5-1.7-1.4c-0.3,0-0.5,0-0.8,0c-3.4,0-6.5-2.3-7.4-5.6
		c-1.2-4.1,1.2-8.4,5.3-9.5c0.8-0.3,1.2-1.1,1-1.9c-0.2-0.9-1-1.4-1.9-1.2C98.9,241.8,95.7,246,95.7,250.9L95.7,250.9z M110.5,260.2
		c0,0.9,0.7,1.6,1.6,1.6h9.1c0.1,0,0.2,0,0.3,0c0.9-0.1,1.5-0.8,1.5-1.7s-0.8-1.5-1.7-1.5h-9.1C111.2,258.6,110.5,259.3,110.5,260.2
		L110.5,260.2z M113.6,264.6c0,0.9,0.7,1.6,1.6,1.6h2.9c0.1,0,0.2,0,0.3,0c0.9-0.1,1.5-0.8,1.5-1.7s-0.8-1.5-1.7-1.5h-2.9h0
		C114.3,263,113.6,263.8,113.6,264.6L113.6,264.6z"/>
	<path class="st0" d="M105.5,248c-0.4-0.8-0.1-1.7,0.7-2.2s1.7-0.1,2.2,0.7c0.9,1.7,2.3,3,3.9,3.9c4.6,2.5,10.4,0.7,12.8-3.9
		s0.7-10.4-3.9-12.8s-10.4-0.7-12.8,3.9c-0.4,0.7-1.3,0.9-2,0.6c-0.8-0.4-1.2-1.3-0.8-2.1c2.2-4.1,6.5-6.7,11.1-6.7
		c7,0,12.7,5.6,12.7,12.6c0,7-5.6,12.7-12.6,12.7C112,254.7,107.7,252.2,105.5,248z"/>
	<path class="st2" d="M64.2,293.2h8.6c3.5,0,6.8,1.9,8.4,5l0,0c1.6,3,4.8,4.9,8.3,5h39.3h0c2.1,0,3.9-1.7,3.9-3.9l0,0l0,0
		c0-1,0.8-1.9,1.9-1.9h43.1c0,0,0,0,0,0c1,0,1.9,0.8,1.9,1.9l0,0l0,0c0,2.1,1.7,3.9,3.9,3.9h39.3c3.5,0,6.7-1.9,8.3-5l0,0
		c1.7-3.1,4.9-5,8.4-5h8.6c26.5,0,47.9-21.5,47.9-47.9h-69.8l0,0c-15.1,0-27.3-12.2-27.3-27.3l0,0l0,0c0-5.6-4.5-10.1-10.1-10.1
		H53.3c-5.6,0-10.1,4.5-10.1,10.1l0,0c0,15.1-17.3,27.3-32.4,27.3h5.4C16.3,271.8,37.8,293.2,64.2,293.2z"/>
	<path class="st0" d="M111.8,276.4c-1.4-0.2-2.8-0.5-4.1-0.9c-1.3-0.4-2.7-0.9-3.9-1.6c-1.3-0.6-2.5-1.3-3.6-2.1
		c-2.3-1.6-4.4-3.6-6.1-5.8c-0.9-1.1-1.6-2.3-2.3-3.5c-0.7-1.2-1.3-2.5-1.8-3.9c-0.5-1.3-0.9-2.7-1.1-4.1l-0.1-0.5v-0.3v-0.3
		l-0.1-1.1l-0.1-1.1c0-0.4,0-0.7,0-1.1c0-0.7,0-1.4,0-2.1v-23.6h0.2l54.5,0.2h0.3v0.3v16.8v6.3c0,0.7,0,1.4,0,2.1c0,0.3,0,0.6,0,1
		l-0.1,1l-0.1,1.1v0.3v0.3l-0.1,0.5c-0.3,1.4-0.6,2.8-1.1,4.1c-0.5,1.3-1,2.6-1.7,3.9c-0.7,1.2-1.4,2.4-2.3,3.5
		c-1.7,2.2-3.7,4.2-6.1,5.8c-1.1,0.8-2.4,1.5-3.6,2.1c-1.3,0.6-2.6,1.2-3.9,1.6c-1.3,0.4-2.7,0.8-4.1,1c-1.4,0.2-2.8,0.3-4.2,0.3
		C114.7,276.7,113.2,276.6,111.8,276.4z M131.9,271.4c1.1-0.8,2.2-1.7,3.2-2.7c1-1,1.9-2,2.8-3.1c0.8-1.1,1.6-2.3,2.2-3.5
		c1.3-2.5,2.2-5.1,2.7-7.9l0.1-0.5v-0.3v-0.3l0.1-1c0.1-0.3,0.1-0.7,0.1-1s0-0.7,0-1c0-0.7,0-1.4,0-2.1v-6.3v-16.8l0.3,0.3
		l-54.5,0.2l0.5-0.4v23.1c0,0.7,0,1.4,0,2.1s0.1,1.4,0.1,2.1l0.1,1v0.3l0.1,0.3l0.1,0.5c0.2,1.4,0.6,2.7,1,4c0.4,1.3,1,2.6,1.6,3.8
		c0.6,1.2,1.4,2.4,2.2,3.5c1.6,2.2,3.6,4.2,5.9,5.9c2.3,1.6,4.8,2.9,7.4,3.8c1.3,0.4,2.7,0.8,4.1,1c1.4,0.2,2.8,0.3,4.2,0.3
		C121.8,276.6,127.3,274.8,131.9,271.4z"/>
	<g>
		<path class="st0" d="M107.7,258.4c-5,0-9.1-4-9.1-9c0-4.6,3.4-8.5,7.9-9.1c0.7-0.1,1.4,0.4,1.5,1.1s-0.4,1.4-1.1,1.5
			c-3.5,0.5-6,3.7-5.5,7.2c0.4,3.2,3.2,5.6,6.4,5.6c0.2,0,0.4,0,0.6,0c0.7-0.1,1.4,0.5,1.5,1.2c0.1,0.7-0.5,1.4-1.2,1.5
			C108.3,258.4,108,258.4,107.7,258.4z M133.5,249.3c0-4.1-2.7-7.6-6.6-8.7c-0.7-0.2-1.4,0.2-1.6,0.9c-0.2,0.7,0.2,1.4,0.9,1.6
			c3.4,1,5.4,4.5,4.4,8c-0.8,2.8-3.3,4.7-6.2,4.7c-0.2,0-0.4,0-0.7,0c-0.7-0.1-1.4,0.5-1.5,1.2c-0.1,0.7,0.5,1.4,1.2,1.5
			c0.3,0,0.6,0,0.9,0C129.5,258.4,133.5,254.4,133.5,249.3z M121.2,257.1c0-0.7-0.6-1.3-1.3-1.3h-7.6c-0.7,0-1.3,0.6-1.3,1.3
			c0,0.7,0.6,1.3,1.3,1.3h7.6C120.6,258.4,121.2,257.8,121.2,257.1L121.2,257.1z M118.6,260.8c0-0.7-0.6-1.3-1.3-1.3h-2.4
			c-0.7,0-1.3,0.6-1.3,1.3c0,0.7,0.6,1.3,1.3,1.3h2.4C118,262.2,118.6,261.6,118.6,260.8C118.6,260.8,118.6,260.8,118.6,260.8z"/>
		<path class="st0" d="M116.1,252.6c-5.8,0-10.6-4.7-10.6-10.6c0-5.8,4.7-10.6,10.6-10.6c3.9,0,7.5,2.2,9.3,5.6
			c0.3,0.6,0.1,1.5-0.6,1.8s-1.5,0.1-1.8-0.6c-2-3.9-6.8-5.3-10.7-3.3s-5.3,6.8-3.3,10.7s6.8,5.3,10.7,3.3c1.4-0.7,2.5-1.9,3.3-3.3
			c0.3-0.6,1.2-0.9,1.8-0.5c0.6,0.3,0.9,1.2,0.5,1.8C123.6,250.4,120,252.6,116.1,252.6z"/>
	</g>
	<path class="st3" d="M102.9,115.6c1.4,1.7,4.5,1.7,6.4,1.4c2.3-0.3,4.5-1.3,6.2-2.8c3-2.3,4.9-5.7,3.5-10c-1.3-3.9-5.3-8.1-9.8-8
		c-2.9,0.1-5.7,0.8-7.7,3c-1.9,1.9-3.1,4.4-3.5,7C97.6,109.8,99.5,114.2,102.9,115.6z"/>
	<path class="st0" d="M101.3,111.3c-0.8-2-1.4-3.6-0.8-5.8c1.2-4.2,4.9-7.9,9.6-7.4c3.9,0.4,7.1,3.4,7.7,7.2c0.4,2.9-0.4,5.8-2.4,8
		c-1.8,0.9-3.7,1.6-5.7,1.9c-1.2,0.2-2.4,0.2-3.6,0c-0.1,0-0.2-0.1-0.3-0.1C104.2,114,102,113.3,101.3,111.3z"/>
	<path class="st3" d="M106.5,109.2c0.7,1.2,2,1.8,3.4,1.7h0.1c1.4,0,2.6-0.8,3.2-2c0.1-0.2,0.1-0.3,0.2-0.5c0.7-1.3,0.7-2.9,0-4.3
		c-0.3-0.7-0.8-1.4-1.5-1.8c-0.6-0.4-1.2-0.6-1.9-0.6h-0.2c-1.4,0-2.6,0.6-3.3,1.8c-0.5,0.7-0.7,1.6-0.6,2.5
		C105.7,107.2,105.9,108.3,106.5,109.2z"/>
	<path class="st3" d="M141.2,116.3c1.4,1.7,4.5,1.7,6.4,1.4c2.3-0.3,4.5-1.3,6.2-2.8c3.1-2.4,4.9-5.7,3.5-10c-1.3-3.9-5.3-8.1-9.8-8
		c-2.9,0.1-5.7,0.8-7.7,3c-1.9,1.9-3.1,4.4-3.5,7C135.9,110.5,137.8,114.9,141.2,116.3z"/>
	<path class="st0" d="M139.5,111.9c-0.8-2-1.3-3.6-0.8-5.8c1.2-4.2,4.9-7.9,9.6-7.4c3.9,0.4,7.1,3.4,7.7,7.3
		c0.4,2.9-0.5,5.8-2.4,7.9c-1.8,0.9-3.7,1.6-5.7,1.9c-1.2,0.2-2.4,0.2-3.6,0l-0.3-0.1C142.5,114.7,140.3,113.9,139.5,111.9z"/>
	<path class="st3" d="M143.4,109.8c0.6,0.9,1.4,1.5,2.5,1.8c1.1,0.3,2.2,0,3.1-0.7c0.2-0.1,0.3-0.3,0.5-0.4c0.9-1.1,1.4-2.4,1.3-3.8
		c0-1.5-0.7-2.8-2-3.6c-1.2-0.6-2.7-0.6-3.8,0.2c-1,0.7-1.7,1.7-2.1,2.8C142.5,107.3,142.7,108.7,143.4,109.8z"/>
	<path class="st3" d="M125.7,115.1l0.1,0.1c0.1,0.1,0.2,0.2,0.3,0.3c0.4,0.3,1,0.1,1.3-0.3l0.1-0.1c0.6-0.6,0.5-1.5,0.6-2.3
		c0.3-0.2,0.7,0.1,0.9,0.3s0.2,0.1,0.3,0.4c0,0.1,0.1,0.5,0.1,0.4c-0.2,0.2-0.2,0.5-0.2,0.7c0.1,0.4,0.5,0.6,0.9,0.5
		c0.9-0.4,1.4-1.4,1.2-2.4c-0.2-1.1-1-1.9-2-2.3c-1.2-0.5-2.6,0-3.4,1c-0.3,0.7-0.5,1.4-0.5,2.1
		C125.2,114.1,125.3,114.6,125.7,115.1z"/>
	<path class="st3" d="M123,137.2c1.5,1.9,4,2.9,6.4,2.6c2.6-0.3,4.8-2,5.9-4.4c0.8-1.9,0.7-4.7-0.6-6.3c0,0,0,0,0,0
		c-0.2-0.1-0.4-0.1-0.6,0c-0.9,1.1-0.9,2.5-1.1,3.9c-0.3,1.6-1.3,2.9-2.8,3.5c-0.2,0.1-0.3,0.1-0.5,0.2c-2.2,0.7-4.5-0.5-5.2-2.7
		c-0.4-1.5,0-3.1-1.2-4.1c-0.3-0.3-0.8-0.3-1.2,0C120.2,131.5,121.5,135.4,123,137.2z"/>
	<path class="st4" d="M79.3,141.9c2.9,1.1,6,1.3,9,0.6l0.6-0.1c6.2-1.4,8.8-6.8,3.6-9.7c-3.6-2-10.1-2.5-14.2-0.8
		c-4.5,1.9-4.8,5.5-2.1,8.1C77.1,140.8,78.1,141.5,79.3,141.9z"/>
	<path class="st4" d="M162.5,141.9c3.8,1.1,7.8,1.3,11.7,0.6l0.7-0.1c8.1-1.4,11.4-6.8,4.7-9.7c-4.7-2-13.1-2.5-18.4-0.8
		c-5.9,1.9-6.3,5.5-2.7,8.1C159.7,140.9,161,141.5,162.5,141.9z"/>
	<path class="st2" d="M257.9,154.4l-63.5,68.4c-1.8,2-4.9,2.1-6.8,0.2l-1-0.9c-2-1.8-2.1-4.9-0.2-6.8l63.5-68.4
		c1.8-2,4.9-2.1,6.8-0.2l1,0.9C259.6,149.4,259.7,152.5,257.9,154.4z"/>
	<circle class="st5" cx="190.8" cy="217.1" r="3.5"/>
	<path class="st6" d="M186.7,217.1c0-2.3,1.9-4.2,4.2-4.2c2.3,0,4.2,1.9,4.2,4.2c0,2.3-1.9,4.2-4.2,4.2
		C188.5,221.3,186.7,219.4,186.7,217.1z M187.9,217.1L187.9,217.1c0,1.6,1.3,2.9,2.9,2.9s2.9-1.3,2.9-2.9s-1.3-2.9-2.9-2.9
		S187.9,215.5,187.9,217.1z"/>
	<path class="st0" d="M302,247.5c-0.6,1.7-1.5,5.5,2.2,4.3c6-2,4.5,5.6,5.7,6.1c1.3,0.6,6.2,6.4,1.4,8.6c-6.9,3.2-11.3-1.7-14.6-6.6
		c-2.5-3.8-3.4-8.5-2.7-13c0.2-1-0.1-2.4,0.2-2.4s2.1,0.9,3.8,1.6c1.4,0.7,3,0.9,4.5,0.6C302.3,246.9,302.1,247.2,302,247.5z"/>
	<path class="st0" d="M46.3,171.8c-8.2,30.2-28.4,47.1-28.4,49.6s-0.8,68-0.8,68l-5.7,0.9c0,0-17.9-43.5-7.7-78.1
		C16.5,169,45,158.5,45,158.5S49,162.1,46.3,171.8z"/>
	<path class="st0" d="M20,288.6c4.6-0.6,3.7,7.8,3.7,7.8c2.8,2.2,2.4,8.6-2.6,8.7s-9.1-6.2-10.2-8.6s-2.5-12.4-2.5-12.4
		c7.5,0.6,9.7-0.7,9.7-0.7C18.4,284.8,15.4,289.2,20,288.6z"/>
	<path class="st2" d="M54.8,216.6l-13.3-58.9c-0.6-2.6,1-5.2,3.6-5.8l1.3-0.3c2.6-0.6,5.2,1,5.8,3.6l13.3,58.9
		c0.6,2.6-1,5.2-3.6,5.8l-1.3,0.3C58,220.8,55.4,219.2,54.8,216.6z"/>
	<circle class="st5" cx="59.6" cy="212.7" r="3.5"/>
	<path class="st6" d="M59.6,216.9c-2.3,0-4.1-1.9-4.1-4.2c0,0,0,0,0,0c0-2.3,1.9-4.2,4.2-4.2c2.3,0,4.2,1.9,4.2,4.2
		C63.7,215,61.9,216.9,59.6,216.9C59.6,216.9,59.6,216.9,59.6,216.9z M56.7,212.7L56.7,212.7c0,1.6,1.3,2.9,2.9,2.9s2.9-1.3,2.9-2.9
		c0-1.6-1.3-2.9-2.9-2.9S56.7,211.1,56.7,212.7z"/>
</g>
<g>
	<circle class="st7" cx="157.9" cy="362.6" r="82"/>
	<circle class="st8" cx="157.9" cy="362.6" r="65.6"/>
	<circle class="st0" cx="157.9" cy="362.6" r="62.6"/>
	<path class="st9" d="M89.2,304c-0.2,0.2-0.3,0.3-0.4,0.5c-2.6,3.4-2,8.3,1.4,11l0,0c1.6,1.2,3.9,1,5.2-0.5c2.9-3.4,6-6.5,9.4-9.4
		c34.5-29.3,86.3-25.1,115.6,9.4c1.3,1.5,3.6,1.8,5.2,0.5l0,0c0.2-0.1,0.4-0.3,0.5-0.5c3.2-2.9,3.4-7.9,0.5-11
		c-17.7-19.1-42.6-29.9-68.6-29.9C131.8,274.1,106.9,284.9,89.2,304z"/>
</g>
<g>
	<circle class="st10" cx="157.9" cy="362.6" r="31.1"/>
	<circle class="st10" cx="157.9" cy="362.6" r="30.1"/>
	<circle class="st11" cx="157.9" cy="362.6" r="28.9"/>
	<circle class="st12" cx="157.9" cy="362.6" r="28.1"/>
	<circle class="st13" cx="157.9" cy="362.6" r="27.9"/>
	<circle class="st14" cx="157.9" cy="362.6" r="18.4"/>
	<circle class="st0" cx="157.9" cy="362.6" r="17.4"/>
	<path class="st14" d="M157.1,379.9c-9.6-0.5-17-8.6-16.5-18.2c0.5-9.6,8.6-17,18.2-16.5c9.6,0.5,17,8.6,16.5,18.2l10.5,0.5
		c0.7-15.4-11.2-28.4-26.6-29.1c-15.4-0.7-28.4,11.2-29.1,26.6c-0.7,15.4,11.2,28.4,26.6,29.1L157.1,379.9z"/>
	<path class="st15" d="M157.9,379.9c-9.6,0-17.4-7.8-17.3-17.4s7.8-17.4,17.4-17.3c9.6,0,17.3,7.8,17.3,17.4h10.5
		c0-15.4-12.5-27.9-27.9-27.9S130,347.1,130,362.5c0,15.4,12.5,27.9,27.9,27.9c0,0,0,0,0,0L157.9,379.9z"/>
	<circle class="st11" cx="179.6" cy="369" r="1"/>
	<circle class="st11" cx="177.5" cy="373.8" r="1"/>
	<circle class="st11" cx="174.3" cy="377.9" r="1.1"/>
	<circle class="st12" cx="174.3" cy="377.9" r="1"/>
	<circle class="st11" cx="170.3" cy="381.2" r="1"/>
	<circle class="st11" cx="164.5" cy="384.1" r="1"/>
</g>
</svg>
