<?xml version="1.0" encoding="utf-8"?>
<!-- Generator: Adobe Illustrator 22.1.0, SVG Export Plug-In . SVG Version: 6.00 Build 0)  -->
<svg version="1.1" id="图层_1" xmlns="http://www.w3.org/2000/svg" xmlns:xlink="http://www.w3.org/1999/xlink" x="0px" y="0px"
	 viewBox="0 0 316.7 441.3" style="enable-background:new 0 0 316.7 441.3;" xml:space="preserve">
<style type="text/css">
	.st0{fill:none;stroke:#CDCFD3;stroke-linecap:round;stroke-linejoin:round;stroke-miterlimit:10;}
	.st1{fill:#FFFFFF;}
	.st2{fill:#2374C3;}
	.st3{fill:#48474F;}
	.st4{fill:#FF7872;}
	.st5{fill:#F6921E;}
	.st6{fill:#F05A24;}
	.st7{fill:#303030;}
	.st8{fill:#6D6D6D;}
	.st9{opacity:0.2;fill:#4A7EFF;enable-background:new    ;}
	.st10{fill:#4A7EFF;}
	.st11{fill:#69F4FF;}
	.st12{fill:#E84646;}
	.st13{fill:#8E2828;}
	.st14{fill:#DADADA;}
	.st15{fill:#C1B7B4;}
</style>
<title>向前走</title>
<g id="图层_2_1_">
	<g id="角色层">
		<g id="向前走">
			<g>
				<path class="st0" d="M162.5,26.1c0.5,0.5,1.4,0.5,2,0c0,0,0,0,0.1-0.1l5.4-5.7c0.5-0.5,0.5-1.4,0-1.9c-0.5-0.6-1.4-0.6-2,0
					c0,0,0,0,0,0l-5.4,5.6C162,24.7,162,25.5,162.5,26.1z"/>
				<path class="st0" d="M162.8,19c2.8-2.9,3.8-7.1,2.5-10.9c-0.2-0.7-1-1.1-1.7-0.9c-0.7,0.2-1.1,1-0.9,1.7
					c0.5,1.5,0.5,3.2,0.1,4.8c-1.2,4.3-5.7,6.9-10.1,5.7c-4.3-1.2-6.9-5.7-5.7-10.1c1.2-4.3,5.7-6.9,10.1-5.7c0.7,0.2,1.5-0.2,1.7-1
					c0,0,0,0,0,0c0.2-0.7-0.3-1.5-1-1.7c-3.9-1.1-8.1,0-10.9,3c-4.1,4.4-4,11.3,0.4,15.4C151.8,23.6,158.7,23.4,162.8,19z"/>
				<path class="st0" d="M315.6,238c-3.7-33.2-19.2-50.2-26.9-56.7c-0.5-0.6-1-1.2-1.6-1.8l0.7-1.7c1-2.5-0.1-5.3-2.6-6.3l-1.3-0.5
					c-1.7-0.7-3.6-0.3-5,0.8c-4-3.3-8.4-6.3-13-8.8c0.2-2.3,0.3-4.5,0.3-6.8c0-43.9-30.9-80.6-72.2-89.4c0.5-5.4,0-10.9-1.7-16.1
					c-1.8-5.3-4.6-10.1-8.2-14.3c-3.9-4.5-8.5-8.2-13.7-11l0.4-0.4c0.5-0.5,0.5-1.4-0.1-1.9c-0.5-0.5-1.4-0.5-1.9,0c0,0,0,0,0,0
					l-1.8,1.8c-0.5,0.6-0.5,1.4,0.1,1.9c0.5,0.5,1.4,0.5,1.9,0l0.1-0.2c0.1,0.1,0.2,0.2,0.3,0.2c5,2.7,9.6,6.4,13.3,10.7
					c3.5,4,6.2,8.6,7.9,13.6c1.6,4.9,2.1,10.1,1.6,15.2c-5.7-1.1-11.6-1.7-17.6-1.7c-42.1,0-77.5,28.4-88.2,67
					c-0.7,0.1-1.3,0.2-2,0.3l-0.4-0.6c-1.4-2.2-4.4-2.9-6.7-1.4l-1.1,0.7c-1.4,0.9-2.2,2.4-2.2,3.9c-3.9,1.3-7.7,2.9-11.4,4.8
					c0-0.1,0-0.3,0.1-0.4c0,0-23.7-1-53.2,23.5c-12.5,10.4-9.5,20-6,30.5c4,12.2,10.8,24.2,12.6,27.3c-0.3-0.1-0.6-0.2-0.9-0.3
					c0.2,0.3,0.3,0.6,0.4,0.9c0.3,1.8,0.5,5.6-2.9,3.8c-5.6-3-5.5,4.7-6.6,5c-1.4,0.3-7.2,5.2-2.9,8.2c6.3,4.3,11.4,0.3,15.5-3.9
					c1-1,1.8-2.2,2.5-3.4c1.1,21.8,17.1,40.7,39.5,44.6c0,0,0,0,0,0l8.4,1.5c3.5,0.6,6.3,3.1,7.4,6.4c1.1,3.3,3.9,5.7,7.3,6.3
					l10.7,1.9l-0.2,1.4c-0.6,3.5,1.7,6.8,5.2,7.4l14.3,2.5c3.5,0.6,6.8-1.7,7.4-5.2l0.2-1.4l1.1,0.2c2.1,0.4,4.1-1,4.5-3.2
					c0.2-1,1.1-1.7,2.2-1.5l42.5,7.5c1,0.2,1.7,1.1,1.5,2.2c-0.4,2.1,1,4.1,3.1,4.5l1.1,0.2l-0.2,1.4c-0.6,3.5,1.7,6.8,5.2,7.4
					l14.3,2.5c3.5,0.6,6.8-1.7,7.4-5.2l0.2-1.4l10.7,1.9c3.4,0.6,6.9-0.7,9-3.4c2.2-2.8,5.7-4.1,9.2-3.5l8.4,1.5
					c22.4,4,44-8.3,52.5-28.5c-1.7,10.6-3.5,21.2-4.5,27.3c-0.7-0.3-1-0.5-1-0.5c-0.3,1.3,1.8,6.1-2.6,4.8c-4.5-1.4-5,7.1-5,7.1
					c-3.2,1.7-3.8,8.1,1,9c4.8,1,10-4.5,11.5-6.7c1.5-2.2,4.6-11.8,4.6-11.8c-0.2,0-0.4,0-0.7-0.1
					C304.5,295.7,318.7,265.7,315.6,238z M17,179.2c0.3-1.5,4.2-2.3,12-5.6c-3.4,6.7-5.9,14-7.3,21.9c-0.5,2.7-0.8,5.4-1,8
					C18.7,192.8,16.7,180.7,17,179.2z"/>
			</g>
			<g>
				<circle class="st1" cx="174.8" cy="156.1" r="91.5"/>
				<path class="st1" d="M62.9,139c0,0-23.7-1-53.2,23.5c-12.5,10.4-9.5,20-6,30.5c4.7,14.3,13.1,28.1,13.1,28.1l7-0.6
					c0,0-7.3-38.6-6.8-41.3s13.8-3.2,40.8-21.8C60.4,151.6,62.2,145.4,62.9,139z"/>
				<path class="st1" d="M192.6,71.6h-0.2c-0.5-0.1-0.8-0.5-0.7-1c1.3-6.5,1-13.2-1-19.4c-1.7-5-4.4-9.7-7.9-13.6
					c-3.8-4.3-8.3-8-13.3-10.7c-0.4-0.2-0.6-0.8-0.3-1.2c0.2-0.4,0.7-0.6,1.1-0.4c5.2,2.8,9.9,6.6,13.8,11.1c3.7,4.2,6.5,9,8.2,14.3
					c2.1,6.6,2.5,13.6,1.1,20.4C193.4,71.3,193.1,71.6,192.6,71.6z"/>
				<path class="st1" d="M169.9,18.5c-0.5-0.6-1.4-0.6-2,0c0,0,0,0,0,0l-5.4,5.6c-0.5,0.5-0.5,1.4,0,2s1.4,0.5,2,0c0,0,0,0,0.1-0.1
					l5.4-5.6C170.4,19.8,170.4,19,169.9,18.5z"/>
				<path class="st1" d="M162.8,19c-4.1,4.4-11,4.6-15.4,0.4S142.9,8.4,147,4c2.8-2.9,7-4.1,10.9-3c0.7,0.2,1.2,0.9,1,1.7
					c0,0,0,0,0,0c-0.2,0.7-1,1.2-1.7,1c-4.3-1.2-8.8,1.3-10.1,5.7s1.3,8.8,5.7,10.1c4.3,1.2,8.8-1.3,10.1-5.7
					c0.4-1.6,0.4-3.2-0.1-4.8c-0.2-0.7,0.2-1.5,0.9-1.7s1.5,0.2,1.7,0.9C166.6,12,165.6,16.2,162.8,19z"/>
				<path class="st1" d="M170.8,23c-0.5-0.5-1.4-0.5-1.9,0c0,0,0,0,0,0l-1.8,1.8c-0.5,0.6-0.5,1.4,0.1,1.9c0.5,0.5,1.4,0.5,1.9,0
					l1.8-1.8C171.4,24.4,171.4,23.6,170.8,23z"/>
				<path class="st1" d="M216.6,302.2L86.5,279.3c-42.7-7.5-72.4-41.1-64.9-83.8l0,0c7.5-42.7,48.2-71.1,90.8-63.6l130.1,22.9
					c42.7,7.5,71.1,48.2,63.6,90.8c0,0,0,0,0,0l0,0C298.6,288.3,259.2,309.7,216.6,302.2z"/>
				<path class="st1" d="M185.9,265.5c-5.9-1.1-9.9-6.7-8.8-12.7c1-5.3,5.7-9.1,11.1-9c0.9,0.1,1.5,0.9,1.4,1.8
					c-0.1,0.8-0.7,1.4-1.5,1.4c-4.2-0.2-7.8,3.1-8,7.4c-0.1,3.9,2.6,7.2,6.4,7.9c0.3,0,0.5,0.1,0.8,0.1c0.9,0.1,1.5,0.9,1.4,1.8
					c-0.1,0.8-0.8,1.5-1.7,1.4C186.6,265.6,186.3,265.6,185.9,265.5z M218.3,260.2c0.8-4.8-1.6-9.6-6-11.7c-0.8-0.3-1.8,0.1-2.1,0.9
					c-0.3,0.7,0,1.6,0.7,2c3.8,1.9,5.4,6.5,3.6,10.3c-1.5,3.1-4.9,4.8-8.3,4.2c-0.3,0-0.5-0.1-0.8-0.2c-0.9-0.2-1.7,0.4-1.9,1.2
					c-0.2,0.8,0.3,1.5,1,1.8c0.4,0.1,0.7,0.2,1.1,0.2C211.6,270.1,217.3,266.1,218.3,260.2z M202.1,266.8c0.1-0.9-0.4-1.7-1.3-1.9
					l-8.9-1.6c-0.9-0.2-1.7,0.4-1.9,1.2c-0.2,0.9,0.4,1.7,1.2,1.9c0,0,0.1,0,0.1,0l8.9,1.6C201.2,268.2,202,267.6,202.1,266.8z
					 M198.3,270.6c0.2-0.9-0.4-1.7-1.3-1.9l-2.9-0.5c-0.9-0.1-1.7,0.5-1.8,1.3c-0.1,0.8,0.4,1.7,1.3,1.8l2.9,0.5
					C197.4,272.1,198.2,271.5,198.3,270.6z"/>
				<path class="st1" d="M197,260.3c-6.9-1.2-11.5-7.8-10.3-14.7s7.8-11.5,14.7-10.3c4.6,0.8,8.4,4.1,9.9,8.6c0.4,0.8,0,1.7-0.8,2.1
					s-1.7,0-2.1-0.8c0-0.1-0.1-0.2-0.1-0.3c-1.6-5-7-7.7-11.9-6.1c-5,1.6-7.7,7-6.1,11.9c1.6,5,7,7.7,11.9,6.1
					c1.8-0.6,3.4-1.7,4.5-3.2c0.6-0.7,1.6-0.8,2.3-0.3c0.7,0.6,0.8,1.6,0.3,2.3C206.4,259.4,201.7,261.2,197,260.3z"/>
				<path class="st1" d="M114,302.8l-14.3-2.5c-3.5-0.6-5.8-3.9-5.2-7.4l0.3-1.8c0.6-3.5,3.9-5.8,7.4-5.2l14.3,2.5
					c3.5,0.6,5.8,3.9,5.2,7.4l-0.3,1.8C120.9,301.1,117.5,303.4,114,302.8z"/>
				<path class="st1" d="M185.2,300.5l14.3,2.5c3.5,0.6,5.8,3.9,5.2,7.4l-0.3,1.8c-0.6,3.5-3.9,5.8-7.4,5.2l-14.3-2.5
					c-3.5-0.6-5.8-3.9-5.2-7.4l0.3-1.8C178.4,302.2,181.7,299.9,185.2,300.5z"/>
				<path class="st2" d="M297.5,268.5L297.5,268.5l5.4,0.9c-14.9-2.6-29.8-17.6-27.1-32.5l0,0c1-5.5-2.7-10.7-8.2-11.7c0,0,0,0,0,0
					l-133.5-23.5c-5.5-1-10.7,2.7-11.7,8.2c0,0,0,0,0,0l0,0c-2.6,14.8-16.8,24.8-31.6,22.1c0,0,0,0,0,0L22,219.9l0,0
					c-4.6,26.1,12.8,50.9,38.9,55.5c0,0,0,0,0,0l8.4,1.5c3.5,0.6,6.3,3.1,7.4,6.4l0,0c1.1,3.3,3.9,5.7,7.3,6.3l38.7,6.8
					c2.1,0.4,4.1-1,4.5-3.1l0,0c0.2-1,1.1-1.7,2.2-1.5l42.5,7.5c1,0.2,1.7,1.1,1.5,2.2l0,0c-0.4,2.1,1,4.1,3.1,4.5l38.7,6.8
					c3.4,0.6,6.9-0.7,9-3.4l0,0c2.2-2.8,5.7-4.1,9.2-3.5l8.4,1.5C268,311.9,292.9,294.6,297.5,268.5
					C297.5,268.5,297.5,268.5,297.5,268.5z"/>
				<path class="st1" d="M193.8,282c-2.8-0.5-5.5-1.4-7.9-2.7c-1.2-0.7-2.4-1.4-3.6-2.2c-1.1-0.8-2.2-1.7-3.2-2.8
					c-2-2-3.7-4.3-4.9-6.8c-0.6-1.3-1.2-2.6-1.6-3.9c-0.4-1.3-0.8-2.7-1-4.1c-0.2-1.4-0.4-2.8-0.4-4.2v-1.1v-1
					c0-0.4,0.1-0.7,0.1-1.1s0.1-0.7,0.1-1.1c0.1-0.7,0.2-1.4,0.3-2.1l0.4-2.1l0.7-4.1l2.9-16.6l0.1-0.3l0.3,0.1l53.7,9.3l0.4,0.1
					l-0.1,0.4l-1.4,8.3l-1.5,8.3l-0.7,4.1l-0.4,2.1c-0.1,0.7-0.2,1.4-0.4,2.1c-0.1,0.4-0.1,0.7-0.2,1l-0.3,1l-0.3,1l-0.1,0.3
					l-0.1,0.2l-0.2,0.5c-0.5,1.3-1.1,2.6-1.8,3.8c-0.7,1.2-1.5,2.4-2.4,3.5c-0.9,1.1-1.9,2.1-2.9,3.1c-2.1,1.9-4.4,3.5-7,4.7
					c-1.3,0.6-2.6,1.1-4,1.5c-1.3,0.4-2.7,0.7-4.1,0.9c-1.4,0.2-2.8,0.2-4.2,0.2C196.5,282.4,195.2,282.2,193.8,282z M193.8,281.9
					c1.4,0.2,2.8,0.4,4.2,0.4c1.4,0,2.8-0.1,4.2-0.3c2.8-0.4,5.5-1.2,8-2.5c2.5-1.2,4.8-2.8,6.8-4.7c1-1,1.9-2,2.8-3.1
					c0.8-1.1,1.6-2.3,2.3-3.5c0.7-1.2,1.2-2.5,1.7-3.8l0.2-0.5l0.1-0.2l0.1-0.2l0.3-1c0.2-0.7,0.4-1.3,0.5-2s0.2-1.4,0.4-2.1
					l0.4-2.1l0.7-4.1l1.4-8.3l1.5-8.3l0.4,0.5l-53.6-9.6l0.3-0.2l-3,16.6l-0.7,4.1l-0.4,2.1c-0.1,0.7-0.2,1.4-0.4,2.1
					c0,0.3-0.1,0.7-0.1,1s-0.1,0.7-0.1,1v1v1c0,1.4,0.1,2.8,0.3,4.2c0.2,1.4,0.6,2.7,1,4.1c0.4,1.3,1,2.6,1.6,3.9
					c0.6,1.2,1.4,2.4,2.2,3.6c0.8,1.1,1.7,2.2,2.7,3.2C183.2,278.2,188.2,280.9,193.8,281.9L193.8,281.9z"/>
				<path class="st1" d="M188.8,262.6c-4.9-1-8.1-5.8-7.1-10.7c0.9-4.3,4.6-7.3,9-7.3c0.7,0,1.3,0.6,1.3,1.4s-0.6,1.3-1.4,1.3l0,0
					c-3.5-0.1-6.5,2.6-6.7,6.2c-0.1,3.2,2.2,6,5.3,6.6c0.2,0,0.4,0.1,0.7,0.1c0.7,0.1,1.3,0.7,1.2,1.4c-0.1,0.7-0.7,1.3-1.4,1.2
					C189.4,262.7,189.1,262.7,188.8,262.6z M215.8,258.1c0.7-4-1.4-8-5-9.8c-0.7-0.3-1.5,0.1-1.7,0.8c-0.2,0.6,0,1.3,0.6,1.6
					c3.2,1.6,4.5,5.4,2.9,8.6c-1.3,2.6-4.1,4-6.9,3.5c-0.2,0-0.4-0.1-0.6-0.1c-0.7-0.3-1.5,0.1-1.7,0.8s0.1,1.5,0.8,1.7
					c0.1,0,0.1,0,0.2,0.1c0.3,0.1,0.6,0.1,0.9,0.2C210.2,266.4,214.9,263.2,215.8,258.1C215.8,258.2,215.8,258.2,215.8,258.1
					L215.8,258.1z M202.3,263.6c0.1-0.7-0.4-1.4-1.1-1.5l-7.4-1.3c-0.7-0.1-1.4,0.4-1.5,1.1c-0.1,0.7,0.4,1.4,1.1,1.5l7.4,1.3
					C201.4,264.9,202.2,264.4,202.3,263.6C202.3,263.7,202.3,263.7,202.3,263.6L202.3,263.6z M199.1,266.9c0.1-0.7-0.4-1.4-1.1-1.5
					c0,0,0,0,0,0l-2.4-0.4c-0.7-0.1-1.4,0.4-1.5,1.1c-0.1,0.7,0.4,1.4,1.1,1.5l0,0l2.4,0.4C198.3,268.1,199,267.6,199.1,266.9
					C199.1,266.9,199.1,266.9,199.1,266.9L199.1,266.9z"/>
				<path class="st1" d="M198,258.3c-5.7-1-9.6-6.5-8.6-12.2s6.5-9.6,12.2-8.6c3.8,0.7,7,3.4,8.2,7.1c0.2,0.7-0.1,1.5-0.8,1.7
					c-0.7,0.2-1.5-0.1-1.7-0.8c0,0,0,0,0,0c-1.3-4.1-5.8-6.4-10-5.1c-4.1,1.3-6.4,5.8-5.1,10s5.8,6.4,10,5.1
					c1.5-0.5,2.8-1.4,3.8-2.6c0.5-0.5,1.4-0.6,1.9-0.1c0.5,0.4,0.6,1.2,0.2,1.7C205.8,257.5,201.9,259,198,258.3z"/>
				<path class="st3" d="M241.1,117.3c0-2.7-0.7-5.3-2.2-7.4c-1.6-2.6-4.2-3.7-7.1-4.2c-4.4-0.9-9.1,2.5-11,6.2
					c-2.1,4-0.9,7.6,1.7,10.5c1.4,1.8,3.4,3.2,5.6,3.8c1.8,0.6,5,1.1,6.6-0.3C238.3,124.9,241,120.9,241.1,117.3z"/>
				<path class="st1" d="M231.9,124.8c-0.1,0-0.2,0-0.3,0c-1.2,0-2.4-0.2-3.6-0.6c-1.9-0.7-3.7-1.7-5.3-2.9c-1.5-2.5-1.9-5.5-1-8.2
					c1.3-3.8,4.9-6.2,8.9-5.9c4.7,0.3,7.7,4.7,8.1,9c0.2,2.2-0.6,3.8-1.7,5.6S233.7,123.9,231.9,124.8z"/>
				<path class="st3" d="M233.4,115.8c0.2-0.9,0.1-1.8-0.2-2.6c-0.5-1.3-1.6-2.2-3-2.3H230c-0.7-0.1-1.3,0-1.9,0.2
					c-0.7,0.3-1.3,0.8-1.8,1.5c-0.9,1.2-1.2,2.8-0.7,4.2c0,0.2,0.1,0.3,0.1,0.5c0.4,1.3,1.5,2.3,2.9,2.5h0.1
					c1.3,0.4,2.7-0.1,3.7-1.1C233.1,117.9,233.5,116.9,233.4,115.8z"/>
				<path class="st3" d="M203.3,111.3c0-2.7-0.7-5.3-2.2-7.4c-1.6-2.6-4.2-3.7-7.1-4.2c-4.4-0.9-9.1,2.5-11,6.2
					c-2.1,4-0.9,7.6,1.7,10.5c1.5,1.8,3.4,3.2,5.6,3.8c1.8,0.6,5,1.1,6.6-0.3C200.5,118.9,203.2,115,203.3,111.3z"/>
				<path class="st1" d="M194.1,118.8c-0.1,0-0.2,0-0.3,0c-1.2,0-2.4-0.2-3.6-0.6c-1.9-0.7-3.7-1.6-5.3-2.9c-1.5-2.5-1.9-5.5-1-8.2
					c1.3-3.8,4.9-6.2,8.9-5.9c4.7,0.3,7.7,4.7,8.1,9c0.2,2.2-0.6,3.8-1.7,5.6S196,117.9,194.1,118.8z"/>
				<path class="st3" d="M197.1,109.4c-0.1-1.2-0.7-2.3-1.6-3.1c-1-0.9-2.4-1.3-3.7-0.8c-1.4,0.5-2.3,1.7-2.5,3.2
					c-0.4,1.4-0.2,2.8,0.5,4c0.1,0.2,0.3,0.3,0.4,0.5c0.8,0.8,1.9,1.3,3,1.2c1-0.1,2-0.6,2.7-1.3C196.8,112,197.2,110.7,197.1,109.4
					z"/>
				<path class="st3" d="M213.1,119.8c0.1-0.7,0.1-1.4-0.1-2.1c-0.6-1.2-1.9-1.8-3.2-1.6c-1.1,0.2-2,0.9-2.4,1.9
					c-0.4,0.9-0.1,2,0.7,2.5c0.7,0.4,1.3-0.5,0.9-1.1c0,0.1,0.2-0.3,0.2-0.4c0.1-0.3,0.1-0.2,0.3-0.3s0.7-0.4,1-0.1
					c0,0.8-0.2,1.7,0.2,2.4c0,0,0,0.1,0,0.1c0.2,0.5,0.7,0.7,1.2,0.5c0.1-0.1,0.2-0.1,0.3-0.2l0.1-0.1
					C212.8,120.9,213.1,120.3,213.1,119.8z"/>
				<path class="st3" d="M213.4,136.3c-0.3-0.4-0.8-0.5-1.1-0.2c-1.4,0.9-1.3,2.4-1.9,3.9c-1,2-3.5,2.8-5.5,1.8
					c-0.2-0.1-0.3-0.2-0.5-0.3c-1.3-0.9-2.1-2.3-2.1-3.9c0-1.4,0.3-2.7-0.5-4c-0.1-0.2-0.4-0.2-0.6-0.1c-1.6,1.4-2.1,4.1-1.7,6.1
					c0.6,2.5,2.5,4.5,5,5.3c2.3,0.8,4.9,0.2,6.7-1.4C212.9,142,215,138.3,213.4,136.3z"/>
				<path class="st4" d="M256.8,154.3c3.1-2.1,3.5-5.7-0.7-8.3c-3.7-2.4-10.2-3.1-14.1-1.7c-5.6,2-4,7.8,1.9,10.2l0.5,0.2
					c2.8,1.2,5.9,1.5,8.9,0.9C254.6,155.5,255.8,155.1,256.8,154.3z"/>
				<path class="st4" d="M175.8,140c4-2,4.2-5.6-1.3-8.4c-5-2.6-13.3-3.6-18.3-2.4c-7.1,1.7-4.7,7.6,2.9,10.4
					c0.2,0.1,0.5,0.2,0.7,0.2c3.7,1.4,7.7,1.9,11.6,1.4C173,141.2,174.5,140.8,175.8,140z"/>
				<path class="st2" d="M76.5,130.7l1.1-0.7c2.2-1.4,5.2-0.8,6.7,1.4l50.4,78.4c1.4,2.2,0.8,5.2-1.4,6.7l-1.1,0.7
					c-2.2,1.4-5.2,0.8-6.7-1.4l-50.4-78.4C73.6,135.1,74.3,132.2,76.5,130.7z"/>
				<circle class="st5" cx="130.5" cy="210.4" r="3.5"/>
				<path class="st6" d="M129.8,214.5c-2.3-0.4-3.8-2.5-3.4-4.8c0.4-2.3,2.5-3.8,4.8-3.4c2.3,0.4,3.8,2.5,3.4,4.8c0,0,0,0,0,0
					C134.2,213.4,132.1,214.9,129.8,214.5z M131,207.5c-1.6-0.3-3.1,0.8-3.4,2.3c-0.3,1.6,0.8,3.1,2.3,3.4c1.6,0.3,3.1-0.8,3.4-2.3
					c0,0,0,0,0,0c0.2-1.5-0.8-3-2.4-3.3V207.5z"/>
				<path class="st1" d="M15.4,220.1c1.5,0.6,3.1,0.7,4.6,0.2c1.8-0.4,3.6-0.9,4-0.9s-0.2,1.4-0.2,2.4c-0.1,4.6-1.8,9-4.9,12.4
					c-4.1,4.2-9.3,8.3-15.6,3.9c-4.3-3,1.5-7.9,2.9-8.2c1.2-0.3,1.1-8,6.6-5c3.4,1.8,3.2-2,2.9-3.8
					C15.7,220.7,15.6,220.4,15.4,220.1z"/>
				<path class="st1" d="M284.3,178c0,0,26.3,15.3,31.3,60c4,35.9-21.1,75.6-21.1,75.6l-5.5-1.9c0,0,10.6-64.6,11.1-67.1
					s-16.5-22.5-19.3-53.7C279.8,180.9,284.3,178,284.3,178z"/>
				<path class="st1" d="M289,305.7c0,0,2,1.6,9.5,2.4c0,0-3,9.6-4.6,11.8s-6.7,7.7-11.5,6.7s-4.2-7.3-1-9c0,0,0.5-8.4,5-7.1
					S288.6,307,289,305.7z"/>
				<path class="st2" d="M258.3,236.1l-1.3-0.5c-2.5-1-3.6-3.9-2.6-6.3l23.3-55.7c1-2.5,3.9-3.6,6.3-2.6l1.3,0.5
					c2.5,1,3.6,3.9,2.6,6.3l-23.3,55.7C263.6,236,260.7,237.1,258.3,236.1z"/>
				<circle class="st5" cx="260.6" cy="228.9" r="3.5"/>
				<path class="st6" d="M259.8,233c-2.3-0.4-3.8-2.5-3.4-4.8c0.4-2.3,2.5-3.8,4.8-3.4c2.3,0.4,3.8,2.5,3.4,4.8c0,0,0,0,0,0
					C264.2,231.9,262.1,233.4,259.8,233z M261.1,226c-1.6-0.3-3.1,0.8-3.3,2.4c-0.3,1.6,0.8,3.1,2.4,3.3c1.6,0.3,3.1-0.8,3.3-2.3
					C263.7,227.8,262.7,226.3,261.1,226L261.1,226z"/>
			</g>
			<g>
				<circle class="st7" cx="137.7" cy="359.4" r="82"/>
				<circle class="st8" cx="137.7" cy="359.4" r="65.6"/>
				<circle class="st1" cx="137.7" cy="359.4" r="62.6"/>
				<circle class="st9" cx="137.7" cy="359.4" r="31.1"/>
				<circle class="st9" cx="137.7" cy="359.4" r="30.1"/>
				<circle class="st10" cx="137.7" cy="359.4" r="28.9"/>
				<circle class="st11" cx="137.7" cy="359.4" r="28.1"/>
				<circle class="st12" cx="137.7" cy="359.4" r="27.9"/>
				<circle class="st13" cx="137.7" cy="359.4" r="18.4"/>
				<circle class="st1" cx="137.7" cy="359.4" r="17.4"/>
				<path class="st14" d="M153.1,272.2c-25.6-4.6-52,1.8-72.8,17.5c-3.4,2.6-4.1,7.5-1.5,10.9c0.1,0.2,0.3,0.4,0.5,0.5l0,0
					c1.4,1.5,3.6,1.6,5.2,0.4c34.9-28.9,86.6-24.1,115.5,10.8c2.8,3.4,5.4,7.1,7.7,10.9c1,1.7,3.2,2.4,5,1.4l0,0
					c3.8-2,5.3-6.8,3.2-10.6c-0.1-0.2-0.2-0.4-0.3-0.5C201.4,291.7,178.8,276.8,153.1,272.2z"/>
				<path class="st13" d="M133.9,376.3c-9.4-2.1-15.3-11.4-13.2-20.8c2.1-9.4,11.4-15.3,20.8-13.2c9.4,2.1,15.3,11.4,13.2,20.8
					l10.2,2.3c3.3-15-6.1-29.9-21.2-33.3c-15-3.3-29.9,6.1-33.3,21.2c-3.3,15,6.1,29.9,21.1,33.3L133.9,376.3z"/>
				<path class="st15" d="M134.7,376.5c-9.5-1.7-15.8-10.7-14.1-20.1c1.7-9.5,10.7-15.8,20.1-14.1s15.8,10.7,14.1,20.1c0,0,0,0,0,0
					l10.4,1.8c2.7-15.2-7.5-29.6-22.6-32.3c-15.2-2.7-29.6,7.5-32.3,22.6c-2.7,15.2,7.5,29.6,22.6,32.3L134.7,376.5z"/>
				<circle class="st10" cx="158.1" cy="369.4" r="1"/>
				<circle class="st10" cx="155.1" cy="373.8" r="1"/>
				<circle class="st10" cx="151.3" cy="377.3" r="1.1"/>
				<circle class="st11" cx="151.3" cy="377.3" r="1"/>
				<circle class="st10" cx="146.8" cy="379.9" r="1"/>
				<circle class="st10" cx="140.5" cy="381.7" r="1"/>
			</g>
		</g>
	</g>
</g>
</svg>
