<?xml version="1.0" encoding="utf-8"?>
<!-- Generator: Adobe Illustrator 22.1.0, SVG Export Plug-In . SVG Version: 6.00 Build 0)  -->
<svg version="1.1" id="图层_1" xmlns="http://www.w3.org/2000/svg" xmlns:xlink="http://www.w3.org/1999/xlink" x="0px" y="0px"
	 viewBox="0 0 323.9 448.4" style="enable-background:new 0 0 323.9 448.4;" xml:space="preserve">
<style type="text/css">
	.st0{fill:none;stroke:#CDCFD3;stroke-miterlimit:10;}
	.st1{fill:#FFFFFF;}
	.st2{fill:#2374C3;}
	.st3{fill:#48474F;}
	.st4{fill:#FF7872;}
	.st5{fill:#F6921E;}
	.st6{fill:#F05A24;}
	.st7{fill:#303030;}
	.st8{fill:#6D6D6D;}
	.st9{opacity:0.2;fill:#4A7EFF;enable-background:new    ;}
	.st10{fill:#4A7EFF;}
	.st11{fill:#69F4FF;}
	.st12{fill:#E84646;}
	.st13{fill:#8E2828;}
	.st14{fill:#DADADA;}
	.st15{fill:#C1B7B4;}
</style>
<title>资源 7</title>
<g>
	<path class="st0" d="M133.3,23.9c0.6,0.3,1.4,0.2,1.8-0.4l4.3-6.5c0.4-0.6,0.3-1.5-0.4-1.9c-0.6-0.4-1.5-0.3-1.9,0.4l-4.3,6.5
		C132.4,22.7,132.7,23.6,133.3,23.9z"/>
	<path class="st0" d="M117.1,20c5,3.3,11.8,2,15.1-3c2.3-3.4,2.5-7.7,0.5-11.3c-0.4-0.7-1.2-0.9-1.9-0.6c-0.7,0.4-0.9,1.2-0.6,1.9
		c0.8,1.4,1.1,3.1,1,4.7c-0.4,4.5-4.4,7.8-8.9,7.4c-4.5-0.4-7.8-4.4-7.4-8.9s4.4-7.8,8.9-7.4c0.7,0,1.3-0.5,1.4-1.1
		c0.1-0.8-0.4-1.5-1.1-1.6c-4-0.4-7.9,1.4-10.2,4.8C110.7,9.9,112.1,16.7,117.1,20z"/>
	<path class="st0" d="M320.7,206.1c-9.4-32-27.5-46-36.3-51.1c-0.6-0.5-1.2-1-1.9-1.5l0.4-1.8c0.6-2.6-1-5.2-3.6-5.8l-1.3-0.3
		c-1.8-0.4-3.6,0.3-4.8,1.6c-4.5-2.6-9.3-4.8-14.4-6.4c-4.5-45.1-41.7-80.6-87.6-82.3c-0.4-5.5-1.9-10.8-4.5-15.7
		c-2.7-4.9-6.3-9.2-10.6-12.6c-4.5-3.7-9.7-6.5-15.2-8.4l0.3-0.4c0.4-0.6,0.3-1.5-0.4-1.9c0,0,0,0,0,0c-0.6-0.4-1.5-0.3-1.9,0.4
		c0,0,0,0,0,0l-1.4,2.1c-0.4,0.6-0.2,1.5,0.4,1.9c0.6,0.4,1.5,0.2,1.9-0.4l0.2-0.2c0.1,0,0.1,0.1,0.2,0.1c5.4,1.8,10.5,4.6,15,8.2
		c4.1,3.3,7.6,7.4,10.1,12c2.4,4.6,3.8,9.6,4.2,14.8c-0.6,0-1.1,0-1.7,0c-47.6,0-86.6,36.3-91.1,82.7c-0.5,0.2-0.9,0.3-1.4,0.5
		l-0.7-0.7c-1.8-2-4.9-2.1-6.8-0.2l-1,0.9c-1.3,1.2-1.7,2.9-1.4,4.5c-3.8,2-7.4,4.3-10.7,6.9c0-0.1,0-0.3,0-0.4
		c0,0-23.5,3.1-48.4,32.4c-10.5,12.4-5.9,21.3-0.6,31.1c6.1,11.4,14.8,22,17.2,24.7c-0.3,0-0.6-0.1-0.9-0.1c0.2,0.3,0.3,0.5,0.4,0.8
		c0.6,1.7,1.5,5.5-2.2,4.3c-6-2-4.5,5.6-5.7,6.1c-1.3,0.6-6.2,6.4-1.4,8.6c6.9,3.2,11.3-1.7,14.6-6.5c0.8-1.2,1.4-2.5,1.8-3.8
		c4.9,21.3,23.9,37.1,46.7,37.1h8.5c3.5,0,6.8,1.9,8.4,5c1.6,3,4.8,4.9,8.3,5h10.9v1.4c0,3.5,2.9,6.4,6.4,6.4h14.5
		c3.5,0,6.4-2.9,6.4-6.4v-1.4h1.1c2.1,0,3.9-1.7,3.9-3.9c0-1,0.8-1.9,1.9-1.9h43.2c1,0,1.9,0.8,1.9,1.9c0,2.1,1.7,3.9,3.9,3.9h1.1
		v1.4c0,3.5,2.9,6.4,6.4,6.4h14.5c3.5,0,6.4-2.9,6.4-6.4v-1.4h10.9c3.5,0,6.7-1.9,8.3-5c1.7-3.1,4.9-5,8.4-5h8.6
		c22.8,0,41.8-15.9,46.7-37.1c0.1,10.8,0.2,21.5,0.3,27.7c-0.7-0.2-1-0.3-1-0.3c-0.1,1.3,2.8,5.7-1.8,5.2s-3.7,7.8-3.7,7.8
		c-2.8,2.2-2.4,8.6,2.6,8.7c4.9,0.1,9.1-6.2,10.2-8.6s2.5-12.4,2.5-12.4c-0.2,0-0.4,0-0.7,0C319.7,264.9,328.6,232.8,320.7,206.1z
		 M27.2,192.4c-2.2,7.2-3.4,14.9-3.4,22.8c0,2.8,0.2,5.6,0.5,8.3c-3.8-10.3-7.9-22-7.9-23.5C16.3,198.5,20.1,197.1,27.2,192.4z"/>
</g>
<g>
	<circle class="st1" cx="167.8" cy="149.9" r="91.5"/>
	<path class="st1" d="M54.7,152.5c0,0-23.5,3.1-48.4,32.4c-10.5,12.4-5.8,21.3-0.6,31.1c7.1,13.2,17.8,25.4,17.8,25.4l6.8-1.8
		c0,0-13.9-36.7-13.9-39.5s13-5.5,36.4-28.6C54.3,165.3,55,158.9,54.7,152.5z"/>
	<path class="st1" d="M170.7,63.5h-0.2c-0.5,0-0.9-0.4-0.9-0.9c0.2-6.6-1.3-13.1-4.4-19c-2.5-4.6-6-8.7-10.1-12
		c-4.5-3.6-9.6-6.4-15-8.2c-0.5-0.2-0.7-0.7-0.5-1.2c0.2-0.4,0.6-0.6,1-0.5c5.7,1.9,10.9,4.8,15.5,8.5c4.4,3.4,8,7.7,10.6,12.6
		c3.2,6.1,4.8,13,4.6,19.9C171.4,63.1,171.1,63.5,170.7,63.5z"/>
	<path class="st1" d="M139.1,15.2c-0.6-0.4-1.5-0.3-1.9,0.4l-4.3,6.5c-0.4,0.7-0.2,1.5,0.5,1.9c0.6,0.3,1.4,0.2,1.8-0.4l4.3-6.5
		C139.9,16.4,139.7,15.6,139.1,15.2z"/>
	<path class="st1" d="M132.2,17c-3.3,5-10.1,6.4-15.1,3c-5-3.3-6.4-10.1-3-15.1c2.2-3.4,6.1-5.2,10.2-4.8c0.8,0.1,1.3,0.8,1.1,1.6
		c-0.1,0.7-0.7,1.2-1.4,1.1c-4.5-0.4-8.5,2.9-8.9,7.4s2.9,8.5,7.4,8.9c4.5,0.4,8.5-2.9,8.9-7.4c0.2-1.6-0.2-3.3-1-4.7
		c-0.4-0.7-0.1-1.5,0.6-1.9s1.5-0.1,1.9,0.6C134.7,9.3,134.5,13.6,132.2,17z"/>
	<path class="st1" d="M140.8,19.5c-0.6-0.4-1.5-0.3-1.9,0.4c0,0,0,0,0,0l-1.4,2.1c-0.4,0.6-0.2,1.5,0.4,1.9c0.6,0.4,1.5,0.2,1.9-0.4
		l0,0l1.4-2.1C141.6,20.8,141.4,19.9,140.8,19.5C140.8,19.5,140.8,19.5,140.8,19.5z"/>
	<path class="st1" d="M234.3,286.5H102.2c-43.3,0-78.4-27.9-78.4-71.2l0,0c0-43.3,35.1-78.4,78.4-78.4h132.1
		c43.3,0,78.4,35.1,78.4,78.4l0,0C312.7,258.5,277.6,286.5,234.3,286.5z"/>
	<path class="st1" d="M197.8,255.7c-6,0-10.9-4.9-10.9-10.9c0-5.4,4-10,9.4-10.7c0.9-0.1,1.6,0.6,1.7,1.5c0,0.8-0.5,1.5-1.3,1.7
		c-4.2,0.6-7.1,4.5-6.5,8.7c0.5,3.8,3.8,6.6,7.6,6.6c0.3,0,0.5,0,0.8,0c0.9-0.1,1.7,0.5,1.7,1.4c0.1,0.9-0.5,1.7-1.4,1.7l0,0
		C198.5,255.7,198.1,255.7,197.8,255.7z M228.8,244.8c0-4.9-3.2-9.1-7.9-10.5c-0.9-0.2-1.7,0.4-1.9,1.2c-0.2,0.8,0.3,1.6,1,1.9
		c4.1,1.2,6.5,5.4,5.3,9.5c-0.9,3.3-4,5.6-7.4,5.6c-0.3,0-0.5,0-0.8,0c-0.9-0.1-1.7,0.5-1.7,1.4c-0.1,0.9,0.5,1.7,1.4,1.7
		c0.4,0,0.7,0.1,1.1,0.1C223.9,255.7,228.8,250.8,228.8,244.8C228.7,244.8,228.7,244.8,228.8,244.8L228.8,244.8z M213.9,254.1
		c0-0.9-0.7-1.6-1.6-1.6h-9.1c-0.9-0.1-1.7,0.6-1.7,1.5c-0.1,0.9,0.6,1.7,1.5,1.7c0.1,0,0.2,0,0.3,0h9.1
		C213.2,255.7,213.9,255,213.9,254.1L213.9,254.1z M210.9,258.5c0-0.9-0.7-1.6-1.6-1.6h0h-2.9c-0.9-0.1-1.7,0.6-1.7,1.5
		s0.6,1.7,1.5,1.7c0.1,0,0.2,0,0.3,0h2.9C210.2,260.1,210.9,259.4,210.9,258.5L210.9,258.5z"/>
	<path class="st1" d="M207.8,248.6c-7,0-12.6-5.7-12.6-12.7c0-7,5.7-12.6,12.7-12.6c4.7,0,8.9,2.6,11.1,6.7c0.4,0.8,0,1.8-0.8,2.1
		c-0.7,0.3-1.6,0.1-2-0.6c-2.5-4.6-8.2-6.4-12.8-3.9s-6.4,8.2-3.9,12.8s8.2,6.4,12.8,3.9c1.7-0.9,3-2.3,3.9-3.9
		c0.4-0.8,1.4-1.1,2.2-0.7s1.1,1.4,0.7,2.2C216.8,246.1,212.5,248.6,207.8,248.6z"/>
	<path class="st1" d="M133.4,304.9h-14.5c-3.5,0-6.4-2.9-6.4-6.4v-1.8c0-3.5,2.9-6.4,6.4-6.4h14.5c3.5,0,6.4,2.9,6.4,6.4v1.8
		C139.9,302,137,304.9,133.4,304.9z"/>
	<path class="st1" d="M203.1,290.3h14.5c3.5,0,6.4,2.9,6.4,6.4v1.8c0,3.5-2.9,6.4-6.4,6.4h-14.5c-3.5,0-6.4-2.9-6.4-6.4v-1.8
		C196.7,293.1,199.6,290.3,203.1,290.3z"/>
	<path class="st2" d="M308.2,239.2h5.4c-15.1,0-32.4-12.2-32.4-27.3l0,0c0-5.6-4.5-10.1-10.1-10.1H135.6c-5.6,0-10.1,4.5-10.1,10.1
		l0,0l0,0c0,15.1-12.2,27.3-27.3,27.3h0H28.4c0,26.5,21.5,47.9,47.9,47.9h8.6c3.5,0,6.8,1.9,8.4,5l0,0c1.6,3,4.8,4.9,8.3,5h39.3
		c2.1,0,3.9-1.7,3.9-3.9l0,0l0,0c0-1,0.8-1.9,1.9-1.9c0,0,0,0,0,0h43.1c1,0,1.9,0.8,1.9,1.9l0,0l0,0c0,2.1,1.7,3.9,3.9,3.9h0h39.3
		c3.5,0,6.7-1.9,8.3-5l0,0c1.7-3.1,4.9-5,8.4-5h8.6C286.7,287.1,308.2,265.7,308.2,239.2z"/>
	<path class="st1" d="M208.3,270.6c-1.4,0-2.8-0.1-4.2-0.3c-1.4-0.2-2.8-0.6-4.1-1c-1.3-0.4-2.6-1-3.9-1.6c-1.3-0.6-2.5-1.3-3.6-2.1
		c-2.3-1.6-4.3-3.6-6.1-5.8c-0.9-1.1-1.6-2.3-2.3-3.5c-0.7-1.2-1.2-2.5-1.7-3.9c-0.5-1.3-0.8-2.7-1.1-4.1l-0.1-0.5v-0.3v-0.3
		l-0.1-1.1l-0.1-1c0-0.4,0-0.7,0-1c0-0.7,0-1.4,0-2.1v-6.3v-16.8v-0.3h0.3l54.5-0.2h0.2V242c0,0.7,0,1.4,0,2.1c0,0.4,0,0.7,0,1.1
		l-0.1,1.1l-0.1,1.1v0.3v0.3l-0.1,0.5c-0.3,1.4-0.6,2.8-1.1,4.1c-0.5,1.3-1.1,2.6-1.8,3.9c-0.7,1.2-1.5,2.4-2.3,3.5
		c-1.7,2.2-3.8,4.2-6.1,5.8c-1.2,0.8-2.4,1.5-3.6,2.1c-1.3,0.6-2.6,1.1-3.9,1.6c-1.3,0.4-2.7,0.7-4.1,0.9
		C211.2,270.5,209.8,270.6,208.3,270.6z M208.3,270.5c1.4,0,2.8-0.1,4.2-0.3c1.4-0.2,2.7-0.6,4.1-1c2.7-0.9,5.2-2.2,7.4-3.8
		c2.3-1.6,4.2-3.6,5.9-5.9c0.8-1.1,1.6-2.3,2.2-3.5c0.6-1.2,1.2-2.5,1.6-3.8c0.4-1.3,0.8-2.6,1-4l0.1-0.5l0.1-0.3v-0.3l0.1-1
		c0-0.7,0.1-1.4,0.1-2.1s0-1.4,0-2.1v-23.1l0.5,0.4l-54.5-0.2l0.3-0.3v16.8v6.3c0,0.7,0,1.4,0,2.1c0,0.3,0,0.7,0,1s0,0.7,0.1,1
		l0.1,1v0.3v0.3l0.1,0.5c0.5,2.7,1.4,5.4,2.7,7.9c0.7,1.2,1.4,2.4,2.2,3.5c0.8,1.1,1.8,2.2,2.8,3.1c1,1,2.1,1.9,3.2,2.7
		C197.1,268.7,202.7,270.5,208.3,270.5z"/>
	<path class="st1" d="M200.1,252.3c-5,0-9.1-4-9.1-9c0-4.6,3.4-8.5,7.9-9.1c0.7-0.1,1.4,0.4,1.5,1.1s-0.4,1.4-1.1,1.5
		c-3.5,0.5-6,3.7-5.5,7.2c0.4,3.2,3.2,5.6,6.4,5.6c0.2,0,0.4,0,0.6,0c0.7-0.1,1.4,0.5,1.5,1.2c0.1,0.7-0.5,1.4-1.2,1.5
		C200.7,252.3,200.4,252.3,200.1,252.3z M225.9,243.2c0-4.1-2.7-7.6-6.6-8.7c-0.7-0.2-1.4,0.2-1.6,0.9c-0.2,0.7,0.2,1.4,0.9,1.6
		c3.4,1,5.4,4.5,4.4,8c-0.8,2.8-3.3,4.7-6.2,4.7c-0.2,0-0.4,0-0.7,0c-0.7-0.1-1.4,0.5-1.5,1.2c-0.1,0.7,0.5,1.4,1.2,1.5
		c0.3,0,0.6,0,0.9,0C221.8,252.3,225.9,248.3,225.9,243.2z M213.6,251c0-0.7-0.6-1.3-1.3-1.3h-7.6c-0.7,0-1.3,0.6-1.3,1.3
		s0.6,1.3,1.3,1.3h7.6C213,252.3,213.6,251.7,213.6,251L213.6,251z M211,254.7c0-0.7-0.6-1.3-1.3-1.3h-2.4c-0.7,0-1.3,0.6-1.3,1.3
		c0,0.7,0.6,1.3,1.3,1.3h2.4C210.4,256.1,211,255.5,211,254.7C211,254.7,211,254.7,211,254.7z"/>
	<path class="st1" d="M208.4,246.4c-5.8,0-10.6-4.7-10.6-10.6c0-5.8,4.7-10.6,10.6-10.6c3.9,0,7.5,2.2,9.3,5.6
		c0.3,0.6,0.1,1.5-0.6,1.8s-1.5,0.1-1.8-0.6c-2-3.9-6.8-5.3-10.7-3.3s-5.3,6.8-3.3,10.7s6.8,5.3,10.7,3.3c1.4-0.7,2.5-1.9,3.3-3.3
		c0.3-0.6,1.2-0.9,1.8-0.5c0.6,0.3,0.9,1.2,0.5,1.8C215.9,244.3,212.3,246.5,208.4,246.4z"/>
	<path class="st3" d="M188.1,100.8c-0.1-1-0.4-3-0.8-2.8c-1.1,0.7-0.4,3.9-1.3,5.9s-3,2.9-4.9,4.1l0,0c-1.5,0.3-3,0.3-4.5,0.1
		c-2.4-0.2-4-1.2-6.1-2c-1.8-1.7-2.9-3.9-3.3-6.3c0-0.3-0.4-0.3-0.4,0c-0.9,3.9,0.9,6.9,3.8,9.1c1.7,1.5,3.9,2.5,6.2,2.8
		c1.9,0.3,5.1,0.3,6.4-1.4C186.6,108.8,188.6,104.4,188.1,100.8z"/>
	<path class="st3" d="M226.3,100.1c-0.1-1-0.4-3-0.8-2.8c-1.1,0.7-0.4,3.9-1.3,5.9s-3,2.9-4.9,4.1l0,0c-1.5,0.3-3,0.3-4.5,0.1
		c-2.4-0.2-4-1.2-6.1-2c-1.8-1.7-2.9-3.9-3.3-6.3c0-0.3-0.4-0.3-0.4,0c-0.9,3.9,0.9,6.9,3.8,9.1c1.7,1.5,3.9,2.5,6.2,2.8
		c1.9,0.3,5.1,0.3,6.4-1.4C224.9,108.1,226.9,103.7,226.3,100.1z"/>
	<path class="st3" d="M199.2,107.4c0-0.7-0.2-1.4-0.5-2.1c-0.8-1-2.2-1.5-3.4-1c-1,0.4-1.8,1.2-2,2.3c-0.3,1,0.2,2,1.2,2.4
		c0.4,0.1,0.8-0.1,0.9-0.5c0.1-0.3,0-0.5-0.2-0.7c0.1,0.1,0.1-0.3,0.1-0.4c0.1-0.3,0.1-0.2,0.3-0.4s0.6-0.5,0.9-0.3
		c0.1,0.8,0.1,1.7,0.6,2.3l0.1,0.1c0.3,0.4,0.8,0.6,1.3,0.3c0.1-0.1,0.2-0.2,0.3-0.3l0.1-0.1C199.1,108.5,199.3,108,199.2,107.4z"/>
	<path class="st3" d="M202.3,123.6c-0.3-0.3-0.8-0.3-1.2,0c-1.2,1.1-0.9,2.6-1.2,4.2c-0.7,2.2-3,3.4-5.2,2.7
		c-0.2-0.1-0.3-0.1-0.5-0.2c-1.5-0.6-2.5-1.9-2.8-3.5c-0.3-1.4-0.2-2.7-1.1-3.9c-0.1-0.2-0.4-0.2-0.6,0c0,0,0,0,0,0
		c-1.4,1.7-1.4,4.4-0.6,6.3c1.1,2.4,3.3,4,5.9,4.4c2.4,0.3,4.9-0.6,6.4-2.6C202.9,129.3,204.3,125.4,202.3,123.6z"/>
	<path class="st4" d="M248.2,133.9c2.7-2.6,2.4-6.2-2.1-8.1c-4.1-1.7-10.6-1.3-14.2,0.8c-5.1,2.9-2.6,8.3,3.6,9.7l0.6,0.1
		c3,0.7,6.1,0.5,9-0.6C246.3,135.4,247.4,134.7,248.2,133.9z"/>
	<path class="st4" d="M166,133.9c3.6-2.6,3.2-6.2-2.7-8.1c-5.3-1.7-13.7-1.3-18.4,0.8c-6.7,2.9-3.4,8.3,4.7,9.7l0.7,0.1
		c3.9,0.7,7.9,0.5,11.7-0.6C163.4,135.4,164.8,134.8,166,133.9z"/>
	<path class="st2" d="M66.8,141.5l1-0.9c2-1.8,5-1.7,6.8,0.2l63.5,68.4c1.8,2,1.7,5-0.2,6.8l-1,0.9c-2,1.8-5,1.7-6.8-0.2l-63.5-68.4
		C64.8,146.4,64.9,143.3,66.8,141.5z"/>
	<circle class="st5" cx="133.6" cy="211" r="3.5"/>
	<path class="st6" d="M133.6,215.2c-2.3,0-4.2-1.9-4.2-4.2c0-2.3,1.9-4.2,4.2-4.2c2.3,0,4.2,1.9,4.2,4.2
		C137.8,213.3,135.9,215.2,133.6,215.2z M133.6,208.1c-1.6,0-2.9,1.3-2.9,2.9s1.3,2.9,2.9,2.9s2.9-1.3,2.9-2.9v0
		C136.5,209.4,135.2,208.1,133.6,208.1z"/>
	<path class="st1" d="M22,240.6c1.5,0.3,3.1,0.1,4.5-0.6c1.7-0.7,3.4-1.5,3.8-1.6s0.1,1.4,0.2,2.4c0.7,4.5-0.2,9.2-2.7,13
		c-3.3,4.9-7.7,9.8-14.6,6.6c-4.8-2.2,0.1-8,1.4-8.6c1.1-0.5-0.3-8.1,5.7-6.1c3.6,1.2,2.8-2.5,2.2-4.3
		C22.3,241.1,22.2,240.8,22,240.6z"/>
	<path class="st1" d="M279.4,152.4c0,0,28.5,10.5,41.3,53.7c10.2,34.7-7.7,78.1-7.7,78.1l-5.7-0.9c0,0-0.8-65.5-0.8-68
		s-20.2-19.3-28.4-49.6C275.5,156,279.4,152.4,279.4,152.4z"/>
	<path class="st1" d="M306.2,277.3c0,0,2.2,1.2,9.7,0.7c0,0-1.3,10-2.5,12.4s-5.3,8.7-10.2,8.6s-5.4-6.5-2.6-8.7
		c0,0-0.9-8.4,3.7-7.8S306.1,278.7,306.2,277.3z"/>
	<path class="st2" d="M263.9,214.1l-1.3-0.3c-2.6-0.6-4.2-3.2-3.6-5.8l13.3-58.9c0.6-2.6,3.2-4.2,5.8-3.6l1.3,0.3
		c2.6,0.6,4.2,3.2,3.6,5.8l-13.3,58.9C269.1,213.1,266.5,214.7,263.9,214.1z"/>
	<circle class="st5" cx="264.9" cy="206.6" r="3.5"/>
	<path class="st6" d="M264.9,210.8c-2.3,0-4.2-1.9-4.2-4.2c0-2.3,1.9-4.2,4.2-4.2c2.3,0,4.2,1.9,4.2,4.2c0,0,0,0,0,0
		C269.1,208.9,267.2,210.8,264.9,210.8C264.9,210.8,264.9,210.8,264.9,210.8z M264.9,203.7c-1.6,0-2.9,1.3-2.9,2.9
		c0,1.6,1.3,2.9,2.9,2.9s2.9-1.3,2.9-2.9v0C267.8,205,266.5,203.7,264.9,203.7z"/>
</g>
<g>
	<circle class="st7" cx="166.6" cy="356.5" r="82"/>
	<circle class="st8" cx="166.6" cy="356.5" r="65.6"/>
	<circle class="st1" cx="166.6" cy="356.5" r="62.6"/>
	<circle class="st9" cx="166.6" cy="356.5" r="31.1"/>
	<circle class="st9" cx="166.6" cy="356.5" r="30.1"/>
	<circle class="st10" cx="166.6" cy="356.5" r="28.9"/>
	<circle class="st11" cx="166.6" cy="356.5" r="28.1"/>
	<circle class="st12" cx="166.6" cy="356.5" r="27.9"/>
	<circle class="st13" cx="166.6" cy="356.5" r="18.4"/>
	<circle class="st1" cx="166.6" cy="356.5" r="17.4"/>
	<path class="st14" d="M166.6,268c-26,0-50.9,10.8-68.6,29.9c-2.9,3.2-2.7,8.1,0.5,11c0.2,0.2,0.4,0.3,0.5,0.5l0,0
		c1.6,1.2,3.9,1,5.2-0.5c29.3-34.5,81.1-38.7,115.6-9.4c3.4,2.9,6.5,6,9.4,9.4c1.3,1.5,3.6,1.8,5.2,0.5l0,0c3.4-2.6,4-7.6,1.4-11
		c-0.1-0.2-0.3-0.4-0.4-0.5C217.5,278.8,192.6,267.9,166.6,268z"/>
	<path class="st13" d="M165.8,373.8c-9.6-0.5-17-8.6-16.5-18.2c0.5-9.6,8.6-17,18.2-16.5c9.6,0.5,17,8.6,16.5,18.2l10.5,0.5
		c0.7-15.4-11.2-28.4-26.6-29.1c-15.4-0.7-28.4,11.2-29.1,26.6c-0.7,15.4,11.2,28.4,26.6,29.1L165.8,373.8z"/>
	<path class="st15" d="M166.6,373.8c-9.6,0-17.4-7.8-17.3-17.4s7.8-17.4,17.4-17.3c9.6,0,17.3,7.8,17.3,17.4h10.5
		c0-15.4-12.5-27.9-27.9-27.9s-27.9,12.5-27.9,27.9c0,15.4,12.5,27.9,27.9,27.9c0,0,0,0,0,0L166.6,373.8z"/>
	<circle class="st10" cx="188.4" cy="362.9" r="1"/>
	<circle class="st10" cx="186.2" cy="367.7" r="1"/>
	<circle class="st10" cx="183" cy="371.8" r="1.1"/>
	<circle class="st11" cx="183" cy="371.8" r="1"/>
	<circle class="st10" cx="179.1" cy="375.1" r="1"/>
	<circle class="st10" cx="173.2" cy="378" r="1"/>
</g>
</svg>
