<svg xmlns="http://www.w3.org/2000/svg" viewBox="0 0 323.86 304.9"><defs><style>.cls-1{fill:#fff;}.cls-2{fill:#2374c3;}.cls-3{fill:#48474f;}.cls-4{fill:#ff7872;}.cls-5{fill:#f6921e;}.cls-6{fill:#f05a24;}</style></defs><title>图层 19 (2)</title><g id="图层_2" data-name="图层 2"><g id="角色-身体"><g id="图层_19" data-name="图层 19"><g id="图层_12" data-name="图层 12"><g id="角色"><circle class="cls-1" cx="167.8" cy="149.89" r="91.5"/><path class="cls-1" d="M54.68,152.48s-23.54,3.13-48.36,32.39c-10.54,12.41-5.85,21.3-.63,31.07,7.08,13.24,17.8,25.44,17.8,25.44l6.75-1.79s-13.91-36.74-13.91-39.54,13-5.54,36.39-28.55A63.93,63.93,0,0,0,54.68,152.48Z"/><path class="cls-1" d="M170.67,63.54l-.19,0a.9.9,0,0,1-.88-.91,38.44,38.44,0,0,0-4.37-19,39.58,39.58,0,0,0-10.11-12,48.57,48.57,0,0,0-15-8.23.9.9,0,0,1,.5-1.72,48.94,48.94,0,0,1,15.54,8.51A41.34,41.34,0,0,1,166.8,42.8a40.23,40.23,0,0,1,4.6,19.87A.91.91,0,0,1,170.67,63.54Z"/><path class="cls-1" d="M139.05,15.17a1.38,1.38,0,0,0-1.91.38l-4.33,6.5a1.38,1.38,0,0,0,2.29,1.53l4.33-6.5A1.38,1.38,0,0,0,139.05,15.17Z"/><path class="cls-1" d="M132.21,17a10.91,10.91,0,1,1-8-16.91,1.38,1.38,0,0,1-.27,2.74A8.15,8.15,0,1,0,130.32,7a1.37,1.37,0,1,1,2.42-1.3A10.9,10.9,0,0,1,132.21,17Z"/><path class="cls-1" d="M140.79,19.49a1.37,1.37,0,0,0-1.91.39L137.47,22a1.37,1.37,0,0,0,2.29,1.52l1.41-2.11A1.38,1.38,0,0,0,140.79,19.49Z"/><path class="cls-1" d="M234.31,286.47H102.24c-43.31,0-78.42-27.92-78.42-71.23h0a78.43,78.43,0,0,1,78.42-78.43H234.31a78.43,78.43,0,0,1,78.42,78.43h0C312.73,258.55,277.62,286.47,234.31,286.47Z"/><path class="cls-1" d="M197.76,255.68a10.9,10.9,0,0,1-1.5-21.69,1.6,1.6,0,0,1,.44,3.16,7.71,7.71,0,0,0,1.06,15.34c.26,0,.53,0,.79,0a1.59,1.59,0,1,1,.32,3.17A10.32,10.32,0,0,1,197.76,255.68Zm31-10.9a11,11,0,0,0-7.9-10.48,1.6,1.6,0,0,0-.88,3.07,7.71,7.71,0,0,1-2.12,15.12c-.26,0-.53,0-.79,0a1.59,1.59,0,1,0-.32,3.17,10.32,10.32,0,0,0,1.11.06A10.91,10.91,0,0,0,228.74,244.78Zm-14.81,9.3a1.6,1.6,0,0,0-1.6-1.59h-9.06a1.6,1.6,0,1,0,0,3.19h9.06A1.6,1.6,0,0,0,213.93,254.08Zm-3.06,4.46a1.6,1.6,0,0,0-1.6-1.6h-2.94a1.6,1.6,0,1,0,0,3.19h2.94A1.6,1.6,0,0,0,210.87,258.54Z"/><path class="cls-1" d="M207.8,248.63A12.66,12.66,0,1,1,219,230a1.6,1.6,0,0,1-2.81,1.51,9.47,9.47,0,1,0,0,8.89,1.59,1.59,0,0,1,2.81,1.5A12.63,12.63,0,0,1,207.8,248.63Z"/><rect class="cls-1" x="112.51" y="290.26" width="27.33" height="14.64" rx="6.42" ry="6.42" transform="translate(252.36 595.17) rotate(180)"/><rect class="cls-1" x="196.7" y="290.26" width="27.33" height="14.64" rx="6.42" ry="6.42"/><path class="cls-2" d="M308.16,239.19h5.44c-15.07,0-32.38-12.22-32.38-27.3h0a10.08,10.08,0,0,0-10.08-10.08H135.59a10.08,10.08,0,0,0-10.08,10.08h0a27.3,27.3,0,0,1-27.3,27.3H28.39a47.93,47.93,0,0,0,47.93,47.92h8.55a9.59,9.59,0,0,1,8.44,5h0a9.44,9.44,0,0,0,8.3,4.95h39.32a3.89,3.89,0,0,0,3.89-3.89h0a1.88,1.88,0,0,1,1.88-1.88h43.15a1.88,1.88,0,0,1,1.88,1.88h0a3.89,3.89,0,0,0,3.89,3.89h39.32a9.44,9.44,0,0,0,8.3-4.95h0a9.58,9.58,0,0,1,8.44-5h8.55A47.93,47.93,0,0,0,308.16,239.19Z"/><path class="cls-1" d="M208.34,270.57a31,31,0,0,1-4.19-.32,28.61,28.61,0,0,1-4.09-1,27.44,27.44,0,0,1-3.9-1.58,27.94,27.94,0,0,1-3.61-2.15,27.43,27.43,0,0,1-6.05-5.83,28.61,28.61,0,0,1-2.3-3.54,28.19,28.19,0,0,1-1.71-3.85,25.36,25.36,0,0,1-1.1-4.08l-.1-.52,0-.26,0-.26-.14-1.05L181,245.1c0-.35,0-.7,0-1,0-.71,0-1.41,0-2.11v-6.3l0-16.81v-.29h.28l54.47-.17H236v23.57c0,.7,0,1.4,0,2.11,0,.36,0,.71,0,1.07l-.09,1.06-.15,1.06,0,.26,0,.26-.1.53a26.45,26.45,0,0,1-1.12,4.1,27.58,27.58,0,0,1-1.75,3.88,30.55,30.55,0,0,1-2.33,3.55,27.62,27.62,0,0,1-6.11,5.81,26,26,0,0,1-3.64,2.13,27.59,27.59,0,0,1-3.92,1.56,28.65,28.65,0,0,1-4.1.94A31,31,0,0,1,208.34,270.57Zm0-.09a30.73,30.73,0,0,0,4.18-.34,27.1,27.1,0,0,0,4.07-1,26.72,26.72,0,0,0,7.42-3.8,27.06,27.06,0,0,0,5.89-5.86,29.17,29.17,0,0,0,2.2-3.52,27.88,27.88,0,0,0,1.62-3.82,26.48,26.48,0,0,0,1-4l.08-.51.05-.26,0-.26.12-1c0-.69.12-1.38.12-2.07s0-1.39,0-2.09V218.83l.46.45-54.47-.17.28-.28,0,16.81v6.3c0,.7,0,1.4,0,2.1,0,.34,0,.69,0,1s0,.69.08,1l.12,1,0,.26,0,.26.09.52a26.87,26.87,0,0,0,2.7,7.87,29.56,29.56,0,0,0,2.22,3.54,27.54,27.54,0,0,0,2.76,3.15,26.49,26.49,0,0,0,3.2,2.69A26.86,26.86,0,0,0,208.34,270.48Z"/><path class="cls-1" d="M200.06,252.33a9.09,9.09,0,0,1-1.25-18.1,1.33,1.33,0,0,1,.36,2.64,6.43,6.43,0,0,0,.89,12.8c.22,0,.44,0,.65,0a1.33,1.33,0,1,1,.27,2.65C200.68,252.32,200.37,252.33,200.06,252.33Zm25.85-9.09a9.13,9.13,0,0,0-6.59-8.74,1.33,1.33,0,1,0-.73,2.56,6.43,6.43,0,0,1-1.77,12.61c-.22,0-.45,0-.66,0a1.33,1.33,0,1,0-.27,2.65c.3,0,.62,0,.93,0A9.1,9.1,0,0,0,225.91,243.24ZM213.55,251a1.34,1.34,0,0,0-1.33-1.33h-7.56a1.33,1.33,0,1,0,0,2.66h7.56A1.33,1.33,0,0,0,213.55,251ZM211,254.72a1.34,1.34,0,0,0-1.34-1.33h-2.45a1.33,1.33,0,0,0,0,2.66h2.45A1.33,1.33,0,0,0,211,254.72Z"/><path class="cls-1" d="M208.44,246.45a10.56,10.56,0,1,1,9.32-15.52,1.33,1.33,0,1,1-2.35,1.25,7.9,7.9,0,1,0,0,7.42,1.33,1.33,0,0,1,2.35,1.26A10.55,10.55,0,0,1,208.44,246.45Z"/><path class="cls-3" d="M226.34,100.14a13,13,0,0,0-3.49-7c-2.06-2.23-4.79-2.86-7.73-3-4.51-.14-8.5,4.06-9.78,8-1.39,4.31.48,7.65,3.52,10a11.54,11.54,0,0,0,6.23,2.8c1.9.29,5.08.26,6.44-1.41C224.91,108.09,226.86,103.73,226.34,100.14Z"/><path class="cls-1" d="M218.62,109.07a2.14,2.14,0,0,1-.27.09,10.79,10.79,0,0,1-3.63,0,18.87,18.87,0,0,1-5.69-1.93,9.81,9.81,0,0,1-2.4-8A8.73,8.73,0,0,1,214.36,92c4.67-.49,8.41,3.27,9.58,7.43.6,2.13,0,3.81-.75,5.77S220.25,107.88,218.62,109.07Z"/><path class="cls-3" d="M218.54,100a4.2,4.2,0,0,0-.64-2.51,3.75,3.75,0,0,0-3.34-1.8l-.22,0a3.74,3.74,0,0,0-1.86.58A3.67,3.67,0,0,0,211,98.05a4.51,4.51,0,0,0,0,4.28c.06.16.12.32.19.47a3.62,3.62,0,0,0,3.25,2h.12a3.66,3.66,0,0,0,3.42-1.72A4.11,4.11,0,0,0,218.54,100Z"/><path class="cls-3" d="M188.07,100.81a13,13,0,0,0-3.48-7c-2.07-2.24-4.79-2.87-7.73-3-4.51-.13-8.51,4.06-9.79,8-1.38,4.31.48,7.64,3.53,10a11.47,11.47,0,0,0,6.23,2.8c1.9.29,5.07.26,6.44-1.41C186.64,108.75,188.6,104.4,188.07,100.81Z"/><path class="cls-1" d="M180.36,109.74l-.27.09a10.85,10.85,0,0,1-3.64,0,18.74,18.74,0,0,1-5.68-1.94,9.72,9.72,0,0,1-2.4-7.94,8.71,8.71,0,0,1,7.72-7.34c4.67-.49,8.42,3.27,9.59,7.43.59,2.13,0,3.81-.76,5.77S182,108.55,180.36,109.74Z"/><path class="cls-3" d="M181.62,100a5.17,5.17,0,0,0-2.08-2.8,3.77,3.77,0,0,0-3.8-.18,4,4,0,0,0-2,3.56A5.27,5.27,0,0,0,175,104.4a3.09,3.09,0,0,0,.48.4,3.69,3.69,0,0,0,3.13.66,4.35,4.35,0,0,0,2.46-1.81A4.51,4.51,0,0,0,181.62,100Z"/><path class="cls-3" d="M199.16,107.43a5.35,5.35,0,0,0-.5-2.09,3,3,0,0,0-3.42-1,3.13,3.13,0,0,0-2,2.3A2,2,0,0,0,194.4,109a.74.74,0,0,0,.72-1.23c.06.06.13-.32.15-.42.08-.28.06-.15.26-.39s.61-.47.94-.29c.13.8.06,1.74.61,2.32l.07.09a.91.91,0,0,0,1.55,0l.09-.13A1.79,1.79,0,0,0,199.16,107.43Z"/><path class="cls-3" d="M202.33,123.63a.84.84,0,0,0-1.16,0c-1.25,1.1-.86,2.62-1.25,4.15a4.11,4.11,0,0,1-5.63,2.5,4.6,4.6,0,0,1-2.76-3.48c-.27-1.39-.2-2.73-1.15-3.87a.39.39,0,0,0-.56,0c-1.37,1.65-1.39,4.42-.63,6.34a7.54,7.54,0,0,0,5.86,4.35,6.94,6.94,0,0,0,6.39-2.56C202.91,129.33,204.29,125.38,202.33,123.63Z"/><path class="cls-4" d="M248.24,133.86c2.74-2.61,2.44-6.2-2.09-8.07-4.11-1.7-10.55-1.27-14.16.77-5.15,2.89-2.57,8.33,3.61,9.72l.56.11a15,15,0,0,0,9-.62A7.27,7.27,0,0,0,248.24,133.86Z"/><path class="cls-4" d="M166,133.86c3.56-2.61,3.17-6.2-2.73-8.07-5.34-1.7-13.72-1.27-18.42.77-6.7,2.89-3.35,8.33,4.7,9.72l.72.11a25,25,0,0,0,11.67-.62A10.17,10.17,0,0,0,166,133.86Z"/><rect class="cls-2" x="96.9" y="127.27" width="11" height="102.99" rx="4.82" ry="4.82" transform="translate(-94.3 117.51) rotate(-42.9)"/><circle class="cls-5" cx="133.62" cy="211.02" r="3.53"/><path class="cls-6" d="M133.62,215.18a4.16,4.16,0,1,1,4.16-4.16A4.17,4.17,0,0,1,133.62,215.18Zm0-7.06a2.9,2.9,0,1,0,2.9,2.9A2.9,2.9,0,0,0,133.62,208.12Z"/><path class="cls-1" d="M22,240.55A6.79,6.79,0,0,0,26.5,240c1.68-.72,3.38-1.53,3.76-1.6s.06,1.39.23,2.36a18.49,18.49,0,0,1-2.71,13c-3.32,4.87-7.69,9.75-14.63,6.55-4.75-2.18.12-8,1.43-8.61,1.13-.5-.34-8.06,5.68-6.05,3.64,1.21,2.8-2.53,2.18-4.26A3,3,0,0,0,22,240.55Z"/><path class="cls-1" d="M279.44,152.42s28.54,10.46,41.27,53.65c10.21,34.66-7.66,78.13-7.66,78.13l-5.74-.94s-.77-65.5-.77-68-20.16-19.32-28.37-49.56C275.48,156,279.44,152.42,279.44,152.42Z"/><path class="cls-1" d="M306.2,277.34s2.24,1.23,9.74.67c0,0-1.34,10-2.46,12.43s-5.26,8.73-10.19,8.62-5.37-6.49-2.57-8.73c0,0-.93-8.41,3.69-7.84S306.09,278.68,306.2,277.34Z"/><rect class="cls-2" x="265.43" y="144.82" width="11" height="70.04" rx="4.82" ry="4.82" transform="translate(495.67 414.87) rotate(-167.29)"/><circle class="cls-5" cx="264.89" cy="206.62" r="3.53"/><path class="cls-6" d="M264.89,210.77a4.16,4.16,0,1,1,4.16-4.15A4.15,4.15,0,0,1,264.89,210.77Zm0-7.05a2.9,2.9,0,1,0,2.9,2.9A2.9,2.9,0,0,0,264.89,203.72Z"/></g></g></g></g></g></svg>