<?xml version="1.0" encoding="utf-8"?>
<!-- Generator: Adobe Illustrator 22.1.0, SVG Export Plug-In . SVG Version: 6.00 Build 0)  -->
<svg version="1.1" id="图层_1" xmlns="http://www.w3.org/2000/svg" xmlns:xlink="http://www.w3.org/1999/xlink" x="0px" y="0px"
	 viewBox="0 0 325.4 449" style="enable-background:new 0 0 325.4 449;" xml:space="preserve">
<style type="text/css">
	.st0{fill:none;stroke:#CDCFD3;stroke-linecap:round;stroke-linejoin:round;stroke-miterlimit:10;}
	.st1{fill:#FFFFFF;}
	.st2{fill:#2374C3;}
	.st3{fill:#48474F;}
	.st4{fill:#FF7872;}
	.st5{fill:#F6921E;}
	.st6{fill:#F05A24;}
	.st7{fill:#303030;}
	.st8{fill:#6D6D6D;}
	.st9{opacity:0.2;fill:#4A7EFF;enable-background:new    ;}
	.st10{fill:#4A7EFF;}
	.st11{fill:#69F4FF;}
	.st12{fill:#E84646;}
	.st13{fill:#8E2828;}
	.st14{fill:#DADADA;}
	.st15{fill:#C1B7B4;}
</style>
<title>资源 9</title>
<g>
	<path class="st0" d="M134.3,24.5c0.6,0.3,1.4,0.2,1.8-0.4l4.3-6.5c0.4-0.6,0.3-1.5-0.4-1.9c-0.6-0.4-1.5-0.3-1.9,0.4l-4.3,6.5
		C133.4,23.3,133.6,24.1,134.3,24.5z"/>
	<path class="st0" d="M118.1,20.6c5,3.3,11.8,2,15.1-3c2.3-3.4,2.5-7.7,0.5-11.3c-0.4-0.7-1.2-0.9-1.9-0.6c-0.7,0.4-0.9,1.2-0.6,1.9
		c0.8,1.4,1.1,3.1,1,4.7c-0.4,4.5-4.4,7.8-8.9,7.4c-4.5-0.4-7.8-4.4-7.4-8.9s4.4-7.8,8.9-7.4c0.7,0,1.3-0.5,1.4-1.1
		c0.1-0.8-0.4-1.5-1.1-1.6c-4-0.4-7.9,1.4-10.2,4.8C111.7,10.5,113.1,17.2,118.1,20.6z"/>
	<path class="st0" d="M321.7,206.6c-9.4-32-27.5-46-36.3-51.1c-1-0.8-2-1.7-3.1-2.4l0.4-1.8c0.6-2.6-1.1-5.2-3.7-5.8l-1.3-0.3
		c-1.9-0.4-3.8,0.3-4.9,1.8c-4.1-2.3-8.5-4.1-13-5.6c-4.5-45.1-41.7-80.6-87.6-82.3c-0.4-5.5-1.9-10.8-4.5-15.7
		c-2.7-4.9-6.3-9.2-10.6-12.6c-4.5-3.7-9.7-6.5-15.2-8.4l0.3-0.4c0.4-0.6,0.3-1.5-0.4-1.9c0,0,0,0,0,0c-0.6-0.4-1.5-0.3-1.9,0.4
		c0,0,0,0,0,0l-1.4,2.1c-0.4,0.6-0.2,1.5,0.4,1.9c0.6,0.4,1.5,0.2,1.9-0.4l0.2-0.2c0.1,0,0.1,0.1,0.2,0.1c5.4,1.8,10.5,4.6,15,8.2
		c4.1,3.3,7.6,7.4,10.1,12c2.4,4.6,3.8,9.6,4.2,14.8c-0.6,0-1.1,0-1.7,0c-47.6,0-86.6,36.3-91.1,82.7c-0.5,0.2-0.9,0.3-1.4,0.5
		l-0.7-0.7c-1.8-2-4.9-2.1-6.8-0.2l-1,0.9c-1.3,1.2-1.7,2.9-1.4,4.5c-3.8,2-7.4,4.3-10.7,6.9c0-0.1,0-0.3,0-0.4
		c0,0-23.5,3.1-48.4,32.4c-10.5,12.4-5.9,21.3-0.6,31.1c6.1,11.4,14.8,22,17.2,24.7c-0.3,0-0.6-0.1-0.9-0.1c0.2,0.3,0.3,0.5,0.4,0.8
		c0.6,1.7,1.5,5.5-2.2,4.3c-6-2-4.5,5.6-5.7,6.1c-1.3,0.6-6.2,6.4-1.4,8.6c6.9,3.2,11.3-1.7,14.6-6.5c0.8-1.2,1.4-2.5,1.8-3.8
		c4.9,21.3,23.9,37.1,46.7,37.1h8.5c3.5,0,6.8,1.9,8.4,5c1.6,3,4.8,4.9,8.3,5h10.9v1.4c0,3.5,2.9,6.4,6.4,6.4h14.5
		c3.5,0,6.4-2.9,6.4-6.4v-1.4h1.1c2.1,0,3.9-1.7,3.9-3.9c0-1,0.8-1.9,1.9-1.9h43.2c1,0,1.9,0.8,1.9,1.9c0,2.1,1.7,3.9,3.9,3.9h1.1
		v1.4c0,3.5,2.9,6.4,6.4,6.4h14.5c3.5,0,6.4-2.9,6.4-6.4v-1.4h10.9c3.5,0,6.7-1.9,8.3-5c1.7-3.1,4.9-5,8.4-5h8.6
		c22.8,0,41.8-15.9,46.7-37.1c0.1,10.8,0.2,21.5,0.3,27.7c-0.7-0.2-1-0.3-1-0.3c-0.1,1.3,2.8,5.7-1.8,5.2s-3.7,7.8-3.7,7.8
		c-2.8,2.2-2.4,8.6,2.6,8.7c4.9,0.1,9.1-6.2,10.2-8.6s2.5-12.4,2.5-12.4c-0.2,0-0.4,0-0.7,0C320.7,265.4,329.6,233.4,321.7,206.6z
		 M28.2,193c-2.2,7.2-3.4,14.9-3.4,22.8c0,2.8,0.2,5.6,0.5,8.3c-3.8-10.3-7.9-22-7.9-23.5C17.3,199.1,21.1,197.6,28.2,193z"/>
</g>
<g>
	<circle class="st1" cx="168.8" cy="150.4" r="91.5"/>
	<path class="st1" d="M55.7,153c0,0-23.5,3.1-48.4,32.4c-10.5,12.4-5.8,21.3-0.6,31.1c7.1,13.2,17.8,25.4,17.8,25.4l6.8-1.8
		c0,0-13.9-36.7-13.9-39.5s13-5.5,36.4-28.6C55.3,165.8,56,159.4,55.7,153z"/>
	<path class="st1" d="M171.7,64.1h-0.2c-0.5,0-0.9-0.4-0.9-0.9c0.2-6.6-1.3-13.1-4.4-19c-2.5-4.6-6-8.7-10.1-12
		c-4.5-3.6-9.6-6.4-15-8.2c-0.5-0.2-0.7-0.7-0.5-1.2c0.2-0.4,0.6-0.6,1-0.5c5.7,1.9,10.9,4.8,15.5,8.5c4.4,3.4,8,7.7,10.6,12.6
		c3.2,6.1,4.8,13,4.6,19.9C172.4,63.6,172.1,64,171.7,64.1z"/>
	<path class="st1" d="M140,15.7c-0.6-0.4-1.5-0.3-1.9,0.4l-4.3,6.5c-0.4,0.7-0.2,1.5,0.5,1.9c0.6,0.3,1.4,0.2,1.8-0.4l4.3-6.5
		C140.8,17,140.7,16.1,140,15.7z"/>
	<path class="st1" d="M133.2,17.5c-3.3,5-10.1,6.4-15.1,3c-5-3.3-6.4-10.1-3-15.1c2.2-3.4,6.1-5.2,10.2-4.8c0.8,0.1,1.3,0.8,1.1,1.6
		c-0.1,0.7-0.7,1.2-1.4,1.1c-4.5-0.4-8.5,2.9-8.9,7.4s2.9,8.5,7.4,8.9c4.5,0.4,8.5-2.9,8.9-7.4c0.2-1.6-0.2-3.3-1-4.7
		c-0.4-0.7-0.1-1.5,0.6-1.9s1.5-0.1,1.9,0.6C135.7,9.8,135.5,14.2,133.2,17.5z"/>
	<path class="st1" d="M141.8,20c-0.6-0.4-1.5-0.3-1.9,0.4c0,0,0,0,0,0l-1.4,2.1c-0.4,0.6-0.2,1.5,0.4,1.9c0.6,0.4,1.5,0.2,1.9-0.4
		l0,0l1.4-2.1C142.6,21.3,142.4,20.5,141.8,20C141.8,20,141.8,20,141.8,20z"/>
	<path class="st1" d="M235.3,287H103.2c-43.3,0-78.4-27.9-78.4-71.2l0,0c0-43.3,35.1-78.4,78.4-78.4h132.1
		c43.3,0,78.4,35.1,78.4,78.4l0,0C313.7,259.1,278.6,287,235.3,287z"/>
	<path class="st1" d="M198.7,256.2c-6,0-10.9-4.9-10.9-10.9c0-5.4,4-10,9.4-10.7c0.9-0.1,1.6,0.6,1.7,1.5c0,0.8-0.5,1.5-1.3,1.7
		c-4.2,0.6-7.1,4.5-6.5,8.7c0.5,3.8,3.8,6.6,7.6,6.6c0.3,0,0.5,0,0.8,0c0.9-0.1,1.7,0.5,1.7,1.4c0.1,0.9-0.5,1.7-1.4,1.7l0,0
		C199.5,256.2,199.1,256.2,198.7,256.2z M229.7,245.3c0-4.9-3.2-9.1-7.9-10.5c-0.9-0.2-1.7,0.4-1.9,1.2c-0.2,0.8,0.3,1.6,1,1.9
		c4.1,1.2,6.5,5.4,5.3,9.5c-0.9,3.3-4,5.6-7.4,5.6c-0.3,0-0.5,0-0.8,0c-0.9-0.1-1.7,0.5-1.7,1.4c-0.1,0.9,0.5,1.7,1.4,1.7
		c0.4,0,0.7,0.1,1.1,0.1C224.9,256.2,229.7,251.3,229.7,245.3C229.7,245.3,229.7,245.3,229.7,245.3L229.7,245.3z M214.9,254.6
		c0-0.9-0.7-1.6-1.6-1.6h-9.1c-0.9-0.1-1.7,0.6-1.7,1.5c-0.1,0.9,0.6,1.7,1.5,1.7c0.1,0,0.2,0,0.3,0h9.1
		C214.2,256.2,214.9,255.5,214.9,254.6L214.9,254.6z M211.9,259.1c0-0.9-0.7-1.6-1.6-1.6h0h-2.9c-0.9-0.1-1.7,0.6-1.7,1.5
		s0.6,1.7,1.5,1.7c0.1,0,0.2,0,0.3,0h2.9C211.1,260.7,211.9,260,211.9,259.1L211.9,259.1z"/>
	<path class="st1" d="M208.8,249.2c-7,0-12.6-5.7-12.6-12.7c0-7,5.7-12.6,12.7-12.6c4.7,0,8.9,2.6,11.1,6.7c0.4,0.8,0,1.8-0.8,2.1
		c-0.7,0.3-1.6,0.1-2-0.6c-2.5-4.6-8.2-6.4-12.8-3.9s-6.4,8.2-3.9,12.8s8.2,6.4,12.8,3.9c1.7-0.9,3-2.3,3.9-3.9
		c0.4-0.8,1.4-1.1,2.2-0.7s1.1,1.4,0.7,2.2C217.8,246.6,213.5,249.2,208.8,249.2z"/>
	<path class="st1" d="M134.4,305.5h-14.5c-3.5,0-6.4-2.9-6.4-6.4v-1.8c0-3.5,2.9-6.4,6.4-6.4h14.5c3.5,0,6.4,2.9,6.4,6.4v1.8
		C140.8,302.6,138,305.5,134.4,305.5z"/>
	<path class="st1" d="M204.1,290.8h14.5c3.5,0,6.4,2.9,6.4,6.4v1.8c0,3.5-2.9,6.4-6.4,6.4h-14.5c-3.5,0-6.4-2.9-6.4-6.4v-1.8
		C197.7,293.7,200.6,290.8,204.1,290.8z"/>
	<path class="st2" d="M309.1,239.7h5.4c-15.1,0-32.4-12.2-32.4-27.3l0,0c0-5.6-4.5-10.1-10.1-10.1H136.6c-5.6,0-10.1,4.5-10.1,10.1
		l0,0l0,0c0,15.1-12.2,27.3-27.3,27.3h0H29.4c0,26.5,21.5,47.9,47.9,47.9h8.6c3.5,0,6.8,1.9,8.4,5l0,0c1.6,3,4.8,4.9,8.3,5h39.3
		c2.1,0,3.9-1.7,3.9-3.9l0,0l0,0c0-1,0.8-1.9,1.9-1.9c0,0,0,0,0,0h43.1c1,0,1.9,0.8,1.9,1.9l0,0l0,0c0,2.1,1.7,3.9,3.9,3.9h0h39.3
		c3.5,0,6.7-1.9,8.3-5l0,0c1.7-3.1,4.9-5,8.4-5h8.5C287.7,287.7,309.1,266.2,309.1,239.7z"/>
	<path class="st1" d="M209.3,271.1c-1.4,0-2.8-0.1-4.2-0.3c-1.4-0.2-2.8-0.6-4.1-1c-1.3-0.4-2.6-1-3.9-1.6c-1.3-0.6-2.5-1.3-3.6-2.1
		c-2.3-1.6-4.3-3.6-6.1-5.8c-0.9-1.1-1.6-2.3-2.3-3.5c-0.7-1.2-1.2-2.5-1.7-3.9c-0.5-1.3-0.8-2.7-1.1-4.1l-0.1-0.5V248v-0.3
		l-0.1-1.1l-0.1-1c0-0.4,0-0.7,0-1c0-0.7,0-1.4,0-2.1v-6.3v-16.8v-0.3h0.3l54.5-0.2h0.2v23.6c0,0.7,0,1.4,0,2.1c0,0.4,0,0.7,0,1.1
		l-0.1,1.1l-0.1,1.1v0.3v0.3l-0.1,0.5c-0.3,1.4-0.6,2.8-1.1,4.1c-0.5,1.3-1.1,2.6-1.8,3.9c-0.7,1.2-1.5,2.4-2.3,3.5
		c-1.7,2.2-3.8,4.2-6.1,5.8c-1.2,0.8-2.4,1.5-3.6,2.1c-1.3,0.6-2.6,1.1-3.9,1.6c-1.3,0.4-2.7,0.7-4.1,0.9
		C212.2,271,210.8,271.1,209.3,271.1z M209.3,271c1.4,0,2.8-0.1,4.2-0.3c1.4-0.2,2.7-0.6,4.1-1c2.7-0.9,5.2-2.2,7.4-3.8
		c2.3-1.6,4.2-3.6,5.9-5.9c0.8-1.1,1.6-2.3,2.2-3.5c0.6-1.2,1.2-2.5,1.6-3.8c0.4-1.3,0.8-2.6,1-4l0.1-0.5l0.1-0.3v-0.3l0.1-1
		c0-0.7,0.1-1.4,0.1-2.1s0-1.4,0-2.1v-23.1l0.5,0.4l-54.5-0.2l0.3-0.3v16.8v6.3c0,0.7,0,1.4,0,2.1c0,0.3,0,0.7,0,1s0,0.7,0.1,1
		l0.1,1v0.3v0.3l0.1,0.5c0.5,2.7,1.4,5.4,2.7,7.9c0.7,1.2,1.4,2.4,2.2,3.5c0.8,1.1,1.8,2.2,2.8,3.1c1,1,2.1,1.9,3.2,2.7
		C198.1,269.2,203.6,271,209.3,271z"/>
	<path class="st1" d="M201,252.9c-5,0-9.1-4-9.1-9c0-4.6,3.4-8.5,7.9-9.1c0.7-0.1,1.4,0.4,1.5,1.1s-0.4,1.4-1.1,1.5
		c-3.5,0.5-6,3.7-5.5,7.2c0.4,3.2,3.2,5.6,6.4,5.6c0.2,0,0.4,0,0.6,0c0.7-0.1,1.4,0.5,1.5,1.2c0.1,0.7-0.5,1.4-1.2,1.5
		C201.7,252.9,201.4,252.9,201,252.9z M226.9,243.8c0-4.1-2.7-7.6-6.6-8.7c-0.7-0.2-1.4,0.2-1.6,0.9c-0.2,0.7,0.2,1.4,0.9,1.6
		c3.4,1,5.4,4.5,4.4,8c-0.8,2.8-3.3,4.7-6.2,4.7c-0.2,0-0.4,0-0.7,0c-0.7-0.1-1.4,0.5-1.5,1.2c-0.1,0.7,0.5,1.4,1.2,1.5
		c0.3,0,0.6,0,0.9,0C222.8,252.9,226.9,248.8,226.9,243.8z M214.5,251.5c0-0.7-0.6-1.3-1.3-1.3h-7.6c-0.7,0-1.3,0.6-1.3,1.3
		s0.6,1.3,1.3,1.3h7.6C213.9,252.9,214.5,252.3,214.5,251.5L214.5,251.5z M212,255.3c0-0.7-0.6-1.3-1.3-1.3h-2.4
		c-0.7,0-1.3,0.6-1.3,1.3c0,0.7,0.6,1.3,1.3,1.3h2.4C211.4,256.6,212,256,212,255.3C212,255.3,212,255.3,212,255.3z"/>
	<path class="st1" d="M209.4,247c-5.8,0-10.6-4.7-10.6-10.6c0-5.8,4.7-10.6,10.6-10.6c3.9,0,7.5,2.2,9.3,5.6
		c0.3,0.6,0.1,1.5-0.6,1.8s-1.5,0.1-1.8-0.6c-2-3.9-6.8-5.3-10.7-3.3s-5.3,6.8-3.3,10.7s6.8,5.3,10.7,3.3c1.4-0.7,2.5-1.9,3.3-3.3
		c0.3-0.6,1.2-0.9,1.8-0.5c0.6,0.3,0.9,1.2,0.5,1.8C216.9,244.8,213.3,247,209.4,247z"/>
	<path class="st3" d="M227.3,100.7c-0.4-2.6-1.6-5.1-3.5-7c-2.1-2.2-4.8-2.9-7.7-3c-4.5-0.1-8.5,4.1-9.8,8c-1.4,4.3,0.5,7.7,3.5,10
		c1.7,1.5,3.9,2.5,6.2,2.8c1.9,0.3,5.1,0.3,6.4-1.4C225.9,108.6,227.8,104.3,227.3,100.7z"/>
	<path class="st1" d="M219.6,109.6c-0.1,0-0.2,0.1-0.3,0.1c-1.2,0.2-2.4,0.2-3.6,0c-2-0.3-3.9-1-5.7-1.9c-2-2.2-2.8-5.1-2.4-8
		c0.7-3.9,3.8-6.8,7.7-7.2c4.7-0.5,8.4,3.3,9.6,7.4c0.6,2.1,0,3.8-0.8,5.8S221.2,108.4,219.6,109.6z"/>
	<path class="st3" d="M219.5,100.5c0.1-0.9-0.2-1.8-0.6-2.5c-0.7-1.2-2-1.8-3.3-1.8h-0.2c-0.7,0-1.3,0.2-1.9,0.6
		c-0.7,0.4-1.2,1-1.5,1.8c-0.7,1.3-0.7,2.9,0,4.3c0.1,0.2,0.1,0.3,0.2,0.5c0.6,1.2,1.9,2,3.2,2h0.1c1.4,0.1,2.7-0.5,3.4-1.7
		C219.6,102.7,219.8,101.6,219.5,100.5z"/>
	<path class="st3" d="M189.1,101.4c-0.4-2.6-1.6-5.1-3.5-7c-2.1-2.2-4.8-2.9-7.7-3c-4.5-0.1-8.5,4.1-9.8,8c-1.4,4.3,0.5,7.6,3.5,10
		c1.7,1.5,3.9,2.5,6.2,2.8c1.9,0.3,5.1,0.3,6.4-1.4C187.6,109.3,189.6,104.9,189.1,101.4z"/>
	<path class="st1" d="M181.3,110.3l-0.3,0.1c-1.2,0.2-2.4,0.2-3.6,0c-2-0.3-3.9-1-5.7-1.9c-1.9-2.2-2.8-5.1-2.4-7.9
		c0.6-3.9,3.8-6.9,7.7-7.3c4.7-0.5,8.4,3.3,9.6,7.4c0.6,2.1,0,3.8-0.8,5.8S183,109.1,181.3,110.3z"/>
	<path class="st3" d="M182.6,100.5c-0.3-1.1-1.1-2.1-2.1-2.8c-1.1-0.7-2.6-0.8-3.8-0.2c-1.3,0.7-2,2.1-2,3.6
		c-0.1,1.4,0.4,2.8,1.3,3.8c0.1,0.1,0.3,0.3,0.5,0.4c0.9,0.7,2,0.9,3.1,0.7c1-0.3,1.9-0.9,2.5-1.8
		C182.8,103.1,183,101.8,182.6,100.5z"/>
	<path class="st3" d="M200.1,108c0-0.7-0.2-1.4-0.5-2.1c-0.8-1-2.2-1.5-3.4-1c-1,0.4-1.8,1.2-2,2.3c-0.3,1,0.2,2,1.2,2.4
		c0.4,0.1,0.8-0.1,0.9-0.5c0.1-0.3,0-0.5-0.2-0.7c0.1,0.1,0.1-0.3,0.1-0.4c0.1-0.3,0.1-0.2,0.3-0.4s0.6-0.5,0.9-0.3
		c0.1,0.8,0.1,1.7,0.6,2.3l0.1,0.1c0.3,0.4,0.8,0.6,1.3,0.3c0.1-0.1,0.2-0.2,0.3-0.3l0.1-0.1C200.1,109.1,200.3,108.5,200.1,108z"/>
	<path class="st3" d="M203.3,124.2c-0.3-0.3-0.8-0.3-1.2,0c-1.2,1.1-0.9,2.6-1.2,4.2c-0.7,2.2-3,3.4-5.2,2.7
		c-0.2-0.1-0.3-0.1-0.5-0.2c-1.5-0.6-2.5-1.9-2.8-3.5c-0.3-1.4-0.2-2.7-1.1-3.9c-0.1-0.2-0.4-0.2-0.6,0c0,0,0,0,0,0
		c-1.4,1.7-1.4,4.4-0.6,6.3c1.1,2.4,3.3,4,5.9,4.4c2.4,0.3,4.9-0.6,6.4-2.6C203.9,129.9,205.3,125.9,203.3,124.2z"/>
	<path class="st4" d="M249.2,134.4c2.7-2.6,2.4-6.2-2.1-8.1c-4.1-1.7-10.6-1.3-14.2,0.8c-5.1,2.9-2.6,8.3,3.6,9.7l0.6,0.1
		c3,0.7,6.1,0.5,9-0.6C247.3,135.9,248.4,135.3,249.2,134.4z"/>
	<path class="st4" d="M167,134.4c3.6-2.6,3.2-6.2-2.7-8.1c-5.3-1.7-13.7-1.3-18.4,0.8c-6.7,2.9-3.4,8.3,4.7,9.7l0.7,0.1
		c3.9,0.7,7.9,0.5,11.7-0.6C164.4,136,165.8,135.3,167,134.4z"/>
	<path class="st2" d="M67.8,142l1-0.9c2-1.8,5-1.7,6.8,0.2l63.5,68.4c1.8,2,1.7,5-0.2,6.8l-1,0.9c-2,1.8-5,1.7-6.8-0.2l-63.5-68.4
		C65.8,146.9,65.9,143.9,67.8,142z"/>
	<circle class="st5" cx="134.6" cy="211.6" r="3.5"/>
	<path class="st6" d="M134.6,215.7c-2.3,0-4.2-1.9-4.2-4.2c0-2.3,1.9-4.2,4.2-4.2c2.3,0,4.2,1.9,4.2,4.2
		C138.8,213.9,136.9,215.7,134.6,215.7z M134.6,208.7c-1.6,0-2.9,1.3-2.9,2.9s1.3,2.9,2.9,2.9s2.9-1.3,2.9-2.9v0
		C137.5,210,136.2,208.7,134.6,208.7z"/>
	<path class="st1" d="M23,241.1c1.5,0.3,3.1,0.1,4.5-0.6c1.7-0.7,3.4-1.5,3.8-1.6s0.1,1.4,0.2,2.4c0.7,4.5-0.2,9.2-2.7,13
		c-3.3,4.9-7.7,9.8-14.6,6.6c-4.8-2.2,0.1-8,1.4-8.6c1.1-0.5-0.3-8.1,5.7-6.1c3.6,1.2,2.8-2.5,2.2-4.3
		C23.3,241.6,23.2,241.3,23,241.1z"/>
	<path class="st1" d="M280.4,153c0,0,28.5,10.5,41.3,53.7c10.2,34.7-7.7,78.1-7.7,78.1l-5.7-0.9c0,0-0.8-65.5-0.8-68
		s-20.2-19.3-28.4-49.6C276.5,156.5,280.4,153,280.4,153z"/>
	<path class="st1" d="M307.2,277.9c0,0,2.2,1.2,9.7,0.7c0,0-1.3,10-2.5,12.4s-5.3,8.7-10.2,8.6s-5.4-6.5-2.6-8.7
		c0,0-0.9-8.4,3.7-7.8S307.1,279.2,307.2,277.9z"/>
	<path class="st2" d="M263.7,214l-1.3-0.3c-2.6-0.6-4.2-3.2-3.7-5.8l13.3-59.2c0.6-2.6,3.2-4.2,5.8-3.7l1.3,0.3
		c2.6,0.6,4.2,3.2,3.7,5.8l-13.3,59.2C268.9,213,266.3,214.6,263.7,214z"/>
	<circle class="st5" cx="265.9" cy="207.2" r="3.5"/>
	<path class="st6" d="M265.9,211.3c-2.3,0-4.2-1.9-4.2-4.2c0-2.3,1.9-4.2,4.2-4.2c2.3,0,4.2,1.9,4.2,4.2c0,0,0,0,0,0
		C270,209.5,268.2,211.3,265.9,211.3C265.9,211.3,265.9,211.3,265.9,211.3z M265.9,204.3c-1.6,0-2.9,1.3-2.9,2.9
		c0,1.6,1.3,2.9,2.9,2.9s2.9-1.3,2.9-2.9v0C268.8,205.6,267.5,204.3,265.9,204.3z"/>
</g>
<g>
	<circle class="st7" cx="167.6" cy="357" r="82"/>
	<circle class="st8" cx="167.6" cy="357" r="65.6"/>
	<circle class="st1" cx="167.6" cy="357" r="62.6"/>
	<circle class="st9" cx="167.6" cy="357" r="31.1"/>
	<circle class="st9" cx="167.6" cy="357" r="30.1"/>
	<circle class="st10" cx="167.6" cy="357" r="28.9"/>
	<circle class="st11" cx="167.6" cy="357" r="28.1"/>
	<circle class="st12" cx="167.6" cy="357" r="27.9"/>
	<circle class="st13" cx="167.6" cy="357" r="18.4"/>
	<circle class="st1" cx="167.6" cy="357" r="17.4"/>
	<path class="st14" d="M167.6,268.5c-26,0-50.9,10.8-68.6,29.9c-2.9,3.2-2.7,8.1,0.5,11c0.2,0.2,0.4,0.3,0.5,0.5l0,0
		c1.6,1.2,3.9,1,5.2-0.5c29.3-34.5,81.1-38.7,115.6-9.4c3.4,2.9,6.5,6,9.4,9.4c1.3,1.5,3.6,1.8,5.2,0.5l0,0c3.4-2.6,4-7.6,1.4-11
		c-0.1-0.2-0.3-0.4-0.4-0.5C218.5,279.3,193.6,268.5,167.6,268.5z"/>
	<path class="st13" d="M166.8,374.4c-9.6-0.5-17-8.6-16.5-18.2c0.5-9.6,8.6-17,18.2-16.5c9.6,0.5,17,8.6,16.5,18.2l10.5,0.5
		c0.7-15.4-11.2-28.4-26.6-29.1c-15.4-0.7-28.4,11.2-29.1,26.6c-0.7,15.4,11.2,28.4,26.6,29.1L166.8,374.4z"/>
	<path class="st15" d="M167.6,374.4c-9.6,0-17.4-7.8-17.3-17.4s7.8-17.4,17.4-17.3c9.6,0,17.3,7.8,17.3,17.4h10.5
		c0-15.4-12.5-27.9-27.9-27.9s-27.9,12.5-27.9,27.9c0,15.4,12.5,27.9,27.9,27.9c0,0,0,0,0,0L167.6,374.4z"/>
	<circle class="st10" cx="189.4" cy="363.4" r="1"/>
	<circle class="st10" cx="187.2" cy="368.2" r="1"/>
	<circle class="st10" cx="184" cy="372.3" r="1.1"/>
	<circle class="st11" cx="184" cy="372.3" r="1"/>
	<circle class="st10" cx="180" cy="375.7" r="1"/>
	<circle class="st10" cx="174.2" cy="378.6" r="1"/>
</g>
</svg>
