<svg xmlns="http://www.w3.org/2000/svg" viewBox="0 0 62.13 62.13"><defs><style>.cls-1,.cls-2{fill:#4a7eff;}.cls-1{opacity:0.2;}.cls-3{fill:#69f4ff;}.cls-4{fill:#e84646;}.cls-5{fill:#8e2828;}.cls-6{fill:#828282;}.cls-7{fill:#fff;}.cls-8{fill:#c1b7b4;}</style></defs><title>图层 17 (2)</title><g id="图层_2" data-name="图层 2"><g id="角色-车轴"><g id="图层_17" data-name="图层 17"><g id="图层_10" data-name="图层 10"><g id="车轴"><circle class="cls-1" cx="31.07" cy="31.07" r="31.07"/><circle class="cls-1" cx="31.07" cy="31.07" r="30.06"/><circle class="cls-2" cx="31.07" cy="31.07" r="28.94"/><circle class="cls-3" cx="31.07" cy="31.07" r="28.11"/><circle class="cls-4" cx="31.07" cy="31.07" r="27.88"/><circle class="cls-5" cx="31.07" cy="31.07" r="18.38"/><circle class="cls-6" cx="31.07" cy="31.07" r="17.38"/><circle class="cls-7" cx="31.07" cy="31.07" r="17.1"/><path class="cls-5" d="M30.27,48.43A17.38,17.38,0,1,1,48.43,31.87l10.49.48A27.88,27.88,0,1,0,29.78,58.92Z"/><path class="cls-8" d="M31.07,48.45A17.38,17.38,0,1,1,48.45,31.07H59A27.89,27.89,0,1,0,31.07,59Z"/><circle class="cls-2" cx="52.85" cy="37.47" r="0.96"/><circle class="cls-2" cx="50.65" cy="42.3" r="0.96"/><circle class="cls-2" cx="47.49" cy="46.4" r="1.09"/><circle class="cls-3" cx="47.49" cy="46.4" r="0.96"/><circle class="cls-2" cx="43.54" cy="49.76" r="0.96"/><circle class="cls-2" cx="37.67" cy="52.63" r="0.96"/></g></g></g></g></g></svg>