<svg xmlns="http://www.w3.org/2000/svg" viewBox="0 0 163.93 170.41"><defs><style>.cls-1{fill:#303030;}.cls-2{fill:#6d6d6d;}.cls-3{fill:#fff;}.cls-4{fill:#dadada;}</style></defs><title>图层 18 (2)</title><g id="图层_2" data-name="图层 2"><g id="角色-车轮"><g id="图层_18" data-name="图层 18"><g id="图层_11" data-name="图层 11"><g id="车轮"><circle class="cls-1" cx="81.97" cy="88.45" r="81.97"/><circle class="cls-2" cx="81.97" cy="88.45" r="65.63"/><circle class="cls-3" cx="81.97" cy="88.45" r="62.62"/><path class="cls-4" d="M82,0A93.56,93.56,0,0,0,13.34,29.85a7.83,7.83,0,0,0,.95,11.51h0a3.76,3.76,0,0,0,5.17-.55,82,82,0,0,1,125,0,3.76,3.76,0,0,0,5.17.55h0a7.82,7.82,0,0,0,1-11.51A93.56,93.56,0,0,0,82,0Z"/></g></g></g></g></g></svg>