<svg xmlns="http://www.w3.org/2000/svg" xmlns:xlink="http://www.w3.org/1999/xlink" viewBox="0 0 509.09 500.46"><defs><style>.cls-1{fill:none;}.cls-2{opacity:0.2;}.cls-3{fill:#efc38b;}.cls-4{opacity:0.3;}.cls-5{fill:#dbb384;}.cls-6{isolation:isolate;}.cls-7{clip-path:url(#clip-path);}.cls-8{fill:#e9e244;}.cls-9{fill:#e4942e;}.cls-10,.cls-61{fill:#fff;}.cls-11{clip-path:url(#clip-path-2);}.cls-12{clip-path:url(#clip-path-3);}.cls-13{clip-path:url(#clip-path-4);}.cls-14{clip-path:url(#clip-path-5);}.cls-15{clip-path:url(#clip-path-6);}.cls-16{clip-path:url(#clip-path-7);}.cls-17{clip-path:url(#clip-path-8);}.cls-18{clip-path:url(#clip-path-9);}.cls-19{clip-path:url(#clip-path-10);}.cls-20{clip-path:url(#clip-path-11);}.cls-21{clip-path:url(#clip-path-12);}.cls-22{clip-path:url(#clip-path-13);}.cls-23{clip-path:url(#clip-path-14);}.cls-24{clip-path:url(#clip-path-15);}.cls-25{clip-path:url(#clip-path-16);}.cls-26{clip-path:url(#clip-path-17);}.cls-27{clip-path:url(#clip-path-18);}.cls-28{clip-path:url(#clip-path-19);}.cls-29{clip-path:url(#clip-path-20);}.cls-30{clip-path:url(#clip-path-21);}.cls-31{clip-path:url(#clip-path-22);}.cls-32{clip-path:url(#clip-path-23);}.cls-33{clip-path:url(#clip-path-24);}.cls-34{clip-path:url(#clip-path-25);}.cls-35{clip-path:url(#clip-path-26);}.cls-36{clip-path:url(#clip-path-27);}.cls-37{clip-path:url(#clip-path-28);}.cls-38{clip-path:url(#clip-path-29);}.cls-39{clip-path:url(#clip-path-30);}.cls-40{clip-path:url(#clip-path-31);}.cls-41{clip-path:url(#clip-path-32);}.cls-42{clip-path:url(#clip-path-33);}.cls-43{clip-path:url(#clip-path-34);}.cls-44{clip-path:url(#clip-path-35);}.cls-45{clip-path:url(#clip-path-36);}.cls-46{clip-path:url(#clip-path-37);}.cls-47{clip-path:url(#clip-path-38);}.cls-48{clip-path:url(#clip-path-39);}.cls-49{clip-path:url(#clip-path-40);}.cls-50{clip-path:url(#clip-path-41);}.cls-51{clip-path:url(#clip-path-42);}.cls-52{clip-path:url(#clip-path-43);}.cls-53{clip-path:url(#clip-path-44);}.cls-54{clip-path:url(#clip-path-45);}.cls-55{clip-path:url(#clip-path-46);}.cls-56{clip-path:url(#clip-path-47);}.cls-57{clip-path:url(#clip-path-48);}.cls-58{clip-path:url(#clip-path-49);}.cls-59{clip-path:url(#clip-path-50);}.cls-60{clip-path:url(#clip-path-51);}.cls-61,.cls-62,.cls-63,.cls-64{stroke:#f9b57d;stroke-miterlimit:10;}.cls-62{fill:#d1e230;}.cls-63{fill:#e03232;}.cls-64{fill:#3268e0;}.cls-65{font-size:30px;fill:#470b08;font-family:FZXS24--GB1-0, FZXS24;}</style><clipPath id="clip-path"><path class="cls-1" d="M342.58,35.17l-4.91-3.33a1,1,0,0,0,.95-1l4.91,3.33A1,1,0,0,1,342.58,35.17Z"/></clipPath><clipPath id="clip-path-2"><path class="cls-1" d="M343.58,9.78l-4.91-3.33a.57.57,0,0,1,.55-.59l4.9,3.33A.58.58,0,0,0,343.58,9.78Z"/></clipPath><clipPath id="clip-path-3"><path class="cls-1" d="M337.77,12.17l-4.91-3.33a.57.57,0,0,1,.55-.59l4.9,3.33A.58.58,0,0,0,337.77,12.17Z"/></clipPath><clipPath id="clip-path-4"><path class="cls-1" d="M331.73,34.74l-4.9-3.33h.22c1.07,0,1.58-.59,1.51-1.75l4.9,3.33c.07,1.17-.43,1.75-1.51,1.76Z"/></clipPath><clipPath id="clip-path-5"><path class="cls-1" d="M326.43,34.51l-4.9-3.34a1.8,1.8,0,0,0,1,.27h.23l4.9,3.33h-.22A1.9,1.9,0,0,1,326.43,34.51Z"/></clipPath><clipPath id="clip-path-6"><path class="cls-1" d="M329.9,27.67,325,24.33q1.49,0,1.5-1.62L331.4,26C331.4,27.12,330.9,27.66,329.9,27.67Z"/></clipPath><clipPath id="clip-path-7"><path class="cls-1" d="M324.31,36.35,319.4,33a3.41,3.41,0,0,1-1.21-3.17l4.91,3.33A3.43,3.43,0,0,0,324.31,36.35Z"/></clipPath><clipPath id="clip-path-8"><path class="cls-1" d="M333.67,18.63l-4.91-3.33a13.68,13.68,0,0,1-5-5.75l4.9,3.33A13.78,13.78,0,0,0,333.67,18.63Z"/></clipPath><clipPath id="clip-path-9"><path class="cls-1" d="M323.12,21l-4.91-3.34A1.85,1.85,0,0,1,320,15.78l4.91,3.34A1.84,1.84,0,0,0,323.12,21Z"/></clipPath><clipPath id="clip-path-10"><path class="cls-1" d="M320.82,18.08l-4.91-3.33A18.32,18.32,0,0,0,322.15,6l4.91,3.33A18.45,18.45,0,0,1,320.82,18.08Z"/></clipPath><clipPath id="clip-path-11"><path class="cls-1" d="M313.63,36.29,308.72,33a1.88,1.88,0,0,1-.7-1l-.33-1,4.91,3.34c.11.32.22.65.32,1A2,2,0,0,0,313.63,36.29Z"/></clipPath><clipPath id="clip-path-12"><path class="cls-1" d="M307.57,23.81l4.91,3.33a3.16,3.16,0,0,0-1.8-.57h-.22l-4.91-3.34h.22A3.22,3.22,0,0,1,307.57,23.81Z"/></clipPath><clipPath id="clip-path-13"><path class="cls-1" d="M311.68,31.73l-4.91-3.33c-.63-1.67-1.31-3.35-2.06-5l4.9,3.34C310.37,28.39,311.05,30.07,311.68,31.73Z"/></clipPath><clipPath id="clip-path-14"><path class="cls-1" d="M297.43,32.1l-4.91-3.34c1.14.07,3.08.16,5.27.15.93,0,1.9,0,2.88-.08,2.17-.11,4.59-.3,6.1-.43l4.91,3.33c-1.51.13-3.93.33-6.11.43-1,.05-1.94.08-2.87.08C300.51,32.25,298.56,32.16,297.43,32.1Z"/></clipPath><clipPath id="clip-path-15"><path class="cls-1" d="M294.34,34.71l-4.91-3.34a1.78,1.78,0,0,1-.42-2.46c1-1.49,2.2-3.29,2.95-4.63,1.2-2.15,2.31-4.72,2.73-5.71l4.91,3.34c-.42,1-1.54,3.55-2.73,5.71-.75,1.34-1.94,3.14-3,4.62A1.8,1.8,0,0,0,294.34,34.71Z"/></clipPath><clipPath id="clip-path-16"><path class="cls-1" d="M291.35,20l-4.9-3.34a.48.48,0,0,1,.46-.5l4.91,3.33A.49.49,0,0,0,291.35,20Z"/></clipPath><clipPath id="clip-path-17"><path class="cls-1" d="M293.75,11.05l-4.91-3.34a.48.48,0,0,1,.47-.5l4.91,3.33A.49.49,0,0,0,293.75,11.05Z"/></clipPath><clipPath id="clip-path-18"><path class="cls-1" d="M287.21,34.86l-4.9-3.33A7.91,7.91,0,0,1,279,25.46l4.91,3.33A7.92,7.92,0,0,0,287.21,34.86Z"/></clipPath><clipPath id="clip-path-19"><path class="cls-1" d="M278.6,35.32,273.7,32a1,1,0,0,0,.95-1l4.91,3.33A1,1,0,0,1,278.6,35.32Z"/></clipPath><clipPath id="clip-path-20"><path class="cls-1" d="M283.86,25,279,21.7a1,1,0,0,0,.95-1L284.81,24A1,1,0,0,1,283.86,25Z"/></clipPath><clipPath id="clip-path-21"><path class="cls-1" d="M272.59,33.51l-4.91-3.34c.09-.06,1.74-1.33,2.7-2.17s2.64-2.43,2.73-2.52l4.9,3.34c-.09.08-1.77,1.67-2.73,2.52S272.68,33.44,272.59,33.51Z"/></clipPath><clipPath id="clip-path-22"><path class="cls-1" d="M277.8,15.93l-4.9-3.34a4,4,0,0,0,.46-1l4.9,3.34A3.79,3.79,0,0,1,277.8,15.93Z"/></clipPath><clipPath id="clip-path-23"><path class="cls-1" d="M267.19,35l-4.91-3.34a8.75,8.75,0,0,0,2.49-6.28l4.9,3.34A8.72,8.72,0,0,1,267.19,35Z"/></clipPath><clipPath id="clip-path-24"><path class="cls-1" d="M278.26,14.9l-4.9-3.34a2.88,2.88,0,0,0,.09-1.43l4.91,3.33A2.88,2.88,0,0,1,278.26,14.9Z"/></clipPath><clipPath id="clip-path-25"><path class="cls-1" d="M274.46,16.41l-4.91-3.34a.45.45,0,0,1,.43-.46l4.91,3.33A.45.45,0,0,0,274.46,16.41Z"/></clipPath><clipPath id="clip-path-26"><path class="cls-1" d="M261.89,21.37l4.9,3.34a.94.94,0,0,0-.59-.18l-4.9-3.34A1.08,1.08,0,0,1,261.89,21.37Z"/></clipPath><clipPath id="clip-path-27"><path class="cls-1" d="M262.22,37.1l-4.91-3.33A48.87,48.87,0,0,0,260.1,21.2l4.9,3.33A48.34,48.34,0,0,1,262.22,37.1Z"/></clipPath><clipPath id="clip-path-28"><path class="cls-1" d="M269.76,11.2l-4.91-3.34a.44.44,0,0,1,.43-.46l4.91,3.33A.45.45,0,0,0,269.76,11.2Z"/></clipPath><clipPath id="clip-path-29"><path class="cls-1" d="M260.38,13.81l4.91,3.33a1.1,1.1,0,0,0-.61-.19l-4.91-3.33A1,1,0,0,1,260.38,13.81Z"/></clipPath><clipPath id="clip-path-30"><path class="cls-1" d="M265,22.88l-4.91-3.33a1,1,0,0,1-.4-.59,39.59,39.59,0,0,0-1.77-5.33L262.83,17a41.18,41.18,0,0,1,1.77,5.34A1,1,0,0,0,265,22.88Z"/></clipPath><clipPath id="clip-path-31"><path class="cls-1" d="M260,6.5l4.9,3.34a1.24,1.24,0,0,0-.7-.22l-4.91-3.33A1.26,1.26,0,0,1,260,6.5Z"/></clipPath><clipPath id="clip-path-32"><path class="cls-1" d="M264.7,15.43l-4.91-3.34a.94.94,0,0,1-.4-.61,32.07,32.07,0,0,0-1.68-5.18l4.9,3.33a30.48,30.48,0,0,1,1.68,5.18A1,1,0,0,0,264.7,15.43Z"/></clipPath><clipPath id="clip-path-33"><path class="cls-1" d="M255,34.87l-4.9-3.33a1,1,0,0,0,.95-1l4.9,3.33A1,1,0,0,1,255,34.87Z"/></clipPath><clipPath id="clip-path-34"><path class="cls-1" d="M244,34.73l-4.9-3.33a8.75,8.75,0,0,0,2.48-6.29l4.91,3.34A8.77,8.77,0,0,1,244,34.73Z"/></clipPath><clipPath id="clip-path-35"><path class="cls-1" d="M246.61,10.53,241.7,7.2a.45.45,0,0,1,.43-.46L247,10.07A.45.45,0,0,0,246.61,10.53Z"/></clipPath><clipPath id="clip-path-36"><path class="cls-1" d="M240.34,32.07l-4.91-3.33a1,1,0,0,0,.95-1L241.29,31A1,1,0,0,1,240.34,32.07Z"/></clipPath><clipPath id="clip-path-37"><path class="cls-1" d="M234.76,11.21l-4.9-3.34a.45.45,0,0,1,.43-.46l4.9,3.34A.45.45,0,0,0,234.76,11.21Z"/></clipPath><clipPath id="clip-path-38"><path class="cls-1" d="M201.2,37.38l4.91,3.33a1.87,1.87,0,0,0-1.06-.33l-4.91-3.33A1.85,1.85,0,0,1,201.2,37.38Z"/></clipPath><clipPath id="clip-path-39"><path class="cls-1" d="M200.2,44.37,195.29,41a2.16,2.16,0,0,1-.92-1.81,2.08,2.08,0,0,1,2-2.15l4.9,3.33a2.1,2.1,0,0,0-2,2.16A2.18,2.18,0,0,0,200.2,44.37Z"/></clipPath><clipPath id="clip-path-40"><path class="cls-1" d="M213.07,38.78l-4.9-3.33a2.17,2.17,0,0,1-.93-1.81,2.09,2.09,0,0,1,2-2.15c4.12,0,7.48-3.66,7.48-8.11a8.08,8.08,0,0,0-3.45-6.79l4.91,3.33a8.11,8.11,0,0,1,3.45,6.8c0,4.45-3.37,8.08-7.49,8.1a2.09,2.09,0,0,0-2,2.16A2.16,2.16,0,0,0,213.07,38.78Z"/></clipPath><clipPath id="clip-path-41"><path class="cls-1" d="M205.38,32.05l4.9,3.33a1.77,1.77,0,0,0-1.06-.32l-4.9-3.34A1.87,1.87,0,0,1,205.38,32.05Z"/></clipPath><clipPath id="clip-path-42"><path class="cls-1" d="M215.39,13l4.91,3.33a12.58,12.58,0,0,0-1.11-.67,2,2,0,0,0-.87-.21l-4.91-3.33a1.83,1.83,0,0,1,.87.21A10.55,10.55,0,0,1,215.39,13Z"/></clipPath><clipPath id="clip-path-43"><path class="cls-1" d="M217.24,19.36,212.34,16a2.23,2.23,0,0,1-.72-2.75,2,2,0,0,1,1.79-1.21l4.91,3.33a2,2,0,0,0-1.79,1.22A2.23,2.23,0,0,0,217.24,19.36Z"/></clipPath><clipPath id="clip-path-44"><path class="cls-1" d="M196,39.08l-4.9-3.34a2.17,2.17,0,0,1-.93-1.81,2.1,2.1,0,0,1,2-2.15l4.9,3.34a2.09,2.09,0,0,0-2,2.15A2.2,2.2,0,0,0,196,39.08Z"/></clipPath><clipPath id="clip-path-45"><path class="cls-1" d="M197.9,26.86,193,23.53a9.06,9.06,0,0,0,5.15,1.58,9.55,9.55,0,0,0,8-4.63,2,2,0,0,1,1.65-.95,1.84,1.84,0,0,1,1.06.33l4.9,3.33a1.87,1.87,0,0,0-1.06-.33,2,2,0,0,0-1.65,1,9.56,9.56,0,0,1-8,4.63A9,9,0,0,1,197.9,26.86Z"/></clipPath><clipPath id="clip-path-46"><path class="cls-1" d="M211.6,12.68l-4.91-3.33a2.14,2.14,0,0,1-.57-.59,9.9,9.9,0,0,0-2.77-2.88l4.9,3.34A9.9,9.9,0,0,1,211,12.09,2.14,2.14,0,0,0,211.6,12.68Z"/></clipPath><clipPath id="clip-path-47"><path class="cls-1" d="M188.21,33.71l-4.91-3.34a6.93,6.93,0,0,0,4,1.23,1.87,1.87,0,0,1,1.06.33l4.9,3.33a1.77,1.77,0,0,0-1.06-.32A7.07,7.07,0,0,1,188.21,33.71Z"/></clipPath><clipPath id="clip-path-48"><path class="cls-1" d="M205.48,2.25l4.91,3.33a12.89,12.89,0,0,0-7.3-2.25L198.19,0A12.86,12.86,0,0,1,205.48,2.25Z"/></clipPath><clipPath id="clip-path-49"><path class="cls-1" d="M195.77,30.5l-4.91-3.33A14.84,14.84,0,0,1,184.58,16l4.91,3.34A14.79,14.79,0,0,0,195.77,30.5Z"/></clipPath><clipPath id="clip-path-50"><path class="cls-1" d="M189.79,14.82l-4.9-3.34C186.29,5,191.72,0,198.19,0l4.9,3.33C196.63,3.37,191.19,8.28,189.79,14.82Z"/></clipPath><clipPath id="clip-path-51"><path class="cls-1" d="M186.08,37.34,181.17,34a12.52,12.52,0,0,1-5.32-10.42,12.3,12.3,0,0,1,9-12.11l4.9,3.34a12.28,12.28,0,0,0-9,12.11A12.49,12.49,0,0,0,186.08,37.34Z"/></clipPath></defs><title>1-1-合聚变文字</title><g id="图层_2" data-name="图层 2"><g id="中间层"><g id="_1-1-合聚变文字" data-name="1-1-合聚变文字"><g id="_1-3-文字装饰BG" data-name="1-3-文字装饰BG"><g class="cls-2"><path class="cls-3" d="M103.58,114.72c-21.74,25.51-30.15,48.34-30.5,49.3l22.5,8.17c.07-.2,7.63-20.38,26.85-42.68A171.54,171.54,0,0,1,206,76v90H230V46l-14.43,3C159.23,60.83,123.58,91.27,103.58,114.72Z"/><path class="cls-3" d="M61,207.87c-.76,4.58-17.93,112.73,39.72,167.53l16.49-17.34C77.89,320.7,80.8,248.29,83.38,221.8h48.85l3.05,191.57,23.93-.35-3-191.22H206V448.64H230V197.86H62.64Z"/><path class="cls-3" d="M390.32,126.23l17.52-16.3C372.78,72.25,335.47,57.63,310.35,52c-27.64-6.19-47.15-3.22-48-3.09l3.75,23.64C266.77,72.44,331.51,63,390.32,126.23Z"/><path class="cls-3" d="M263.72,232.7H465.44l.64-11.29c2.09-37.15-28.2-75.2-29.49-76.8l-3.6-4.45H263.72Zm23.93-68.61H421.29c6.82,9.65,17.23,27.45,20.16,44.68H287.65Z"/><path class="cls-3" d="M466.17,273.93l-.44-11.51H261.86V458.28l13.74-2.06c44.38-6.66,82-20.87,112-42.24a184.33,184.33,0,0,0,56.93-65.29C467.5,304.5,466.24,275.63,466.17,273.93ZM429,326.27H361.85V286.36h79.9C440.72,297.71,437.69,308.26,429,326.27Zm-91.07-39.91v39.91H285.79V286.36ZM285.79,350.2h52.13v64.25a255.62,255.62,0,0,1-52.13,15.73Zm87.85,44.31q-5.67,4-11.79,7.73v-52H416A161.24,161.24,0,0,1,373.64,394.51Z"/></g><g class="cls-4"><path class="cls-5" d="M10.65,440.38c-4.06-1.37-9-5.76-10.34-10.75-.94-3.59.28-6.77,3.52-9.21l.38-.29,0-.5c0-.06.3-5.8,3.61-7.42,1.69-.83,4-.44,6.82,1.16l.57.32.53-.25c.06,0,6.13-2.81,10.05-.2,2.15,1.44,3.34,4.36,3.56,8.69l.11,2.18,1.78-1a5.61,5.61,0,0,1,4.75,0c2.33,1.1,4.31,4.05,5.73,8.52l.11.35.28.26a21.08,21.08,0,0,0,5.42,3.45A16.68,16.68,0,0,0,54,437.12l-1,.45c-4.75,2.06-10.15,2.13-16,.2l-1.16-.38-.24,1.13A6.65,6.65,0,0,1,31.77,443c-2.11.77-4.84.34-8.14-1.26a9.8,9.8,0,0,0,1.69-1.33c2.06-2.05,4-6,1.79-13.17a12.58,12.58,0,0,0-7.9-8.57c-3.75-1.25-7.87-.43-10.26,2a7.3,7.3,0,0,0-1.42,7.84,7.57,7.57,0,0,0,3.76,4.58c3.29,1.58,7-.14,7.12-.22a1.11,1.11,0,0,0,.39-1.6,1.32,1.32,0,0,0-1.65-.61c-.06,0-2.88,1.32-5.08.26A4.75,4.75,0,0,1,9.79,428a5,5,0,0,1,1-5.51,7.9,7.9,0,0,1,8-1.55,9.78,9.78,0,0,1,6.09,6.71c1.52,4.86,1.08,8.52-1.31,10.89a8.39,8.39,0,0,1-2.78,1.78,1,1,0,0,0-.68.24A15.8,15.8,0,0,1,10.65,440.38Z"/></g><g id="中间层-云" class="cls-4"><path class="cls-5" d="M437.68,149.34c3.74-.24,8.33-3.05,9.53-7.31.86-3.07-.27-6.31-3.25-9.36l-.35-.36,0-.47c0-.05-.28-5.41-3.33-7.73-1.56-1.19-3.67-1.4-6.28-.64l-.53.16-.48-.37c-.06,0-5.64-4.11-9.25-2.68-2,.78-3.08,3.17-3.28,7.1l-.1,2-1.64-1.37a6,6,0,0,0-4.38-1.22c-2.14.43-4,2.65-5.27,6.42l-.1.29-.26.17a13.69,13.69,0,0,1-5,1.82,14.18,14.18,0,0,1-5.91-.26c.28.22.58.44.89.66a22.77,22.77,0,0,0,14.76,4.19l1.07-.06.22,1.1a8.79,8.79,0,0,0,3.51,5c1.94,1.24,4.45,1.53,7.49.88a12.77,12.77,0,0,1-1.55-1.65c-1.9-2.4-3.73-6.52-1.65-12.57,1.23-3.59,3.82-5.7,7.27-5.91a11.51,11.51,0,0,1,9.44,4.43,7.62,7.62,0,0,1,1.31,7.58,4.76,4.76,0,0,1-3.46,3.27c-3,.64-6.41-1.87-6.55-2a1.19,1.19,0,0,1-.36-1.57,1,1,0,0,1,1.52-.16c.06,0,2.65,1.94,4.67,1.51a3,3,0,0,0,2.1-2.12,5.33,5.33,0,0,0-.91-5.33,9,9,0,0,0-7.33-3.41c-2.64.16-4.63,1.82-5.6,4.66-1.4,4.09-1,7.57,1.2,10.34a11.42,11.42,0,0,0,2.56,2.34,1.27,1.27,0,0,1,.63.39A15.8,15.8,0,0,0,437.68,149.34Z"/></g></g><g id="_1-9-云创logo" data-name="1-9-云创logo"><g class="cls-6"><g class="cls-6"><g class="cls-7"><g class="cls-6"><path class="cls-8" d="M342.58,35.17l-4.91-3.33a.87.87,0,0,0,.28-.05l4.9,3.34a.8.8,0,0,1-.27,0"/><path class="cls-8" d="M342.85,35.13,338,31.79l.15-.07L343,35.06l-.16.07"/><path class="cls-8" d="M343,35.06l-4.91-3.34.12-.07,4.9,3.33-.11.08"/><path class="cls-9" d="M343.12,35l-4.9-3.33.09-.09,4.91,3.34a.39.39,0,0,1-.1.08"/><path class="cls-9" d="M343.22,34.9l-4.91-3.34.09-.09,4.91,3.33-.09.1"/><path class="cls-9" d="M343.31,34.8l-4.91-3.33.08-.12,4.9,3.33-.07.12"/><path class="cls-9" d="M343.38,34.68l-4.9-3.33a1,1,0,0,0,.07-.15l4.91,3.33a.53.53,0,0,1-.08.15"/><path class="cls-9" d="M343.46,34.53l-4.91-3.33a1,1,0,0,0,.07-.39l4.91,3.33a1.23,1.23,0,0,1-.07.39"/></g></g></g><polygon class="cls-9" points="339.91 37.44 335 34.11 335.01 31.85 339.91 35.19 339.91 37.44"/><polygon class="cls-8" points="339.91 35.19 335.01 31.85 337.67 31.84 342.58 35.17 339.91 35.19"/><polygon class="cls-8" points="344.12 9.19 339.22 5.86 341.33 5.85 346.24 9.18 344.12 9.19"/><polygon class="cls-9" points="343.53 34.14 338.62 30.81 338.67 6.45 343.57 9.78 343.53 34.14"/><path class="cls-10" d="M346.24,9.18l-.05,26V37a.45.45,0,0,1-.43.46h-2.24l-3.61,0V35.18h2.67a1,1,0,0,0,.95-1l.05-24.36a.58.58,0,0,1,.54-.59Z"/><g class="cls-6"><g class="cls-11"><g class="cls-6"><path class="cls-9" d="M343.58,9.78l-4.91-3.33a.51.51,0,0,1,0-.22l4.91,3.33a.54.54,0,0,0,0,.22"/><path class="cls-9" d="M343.62,9.56l-4.91-3.33,0-.09,4.91,3.33a.36.36,0,0,0,0,.09"/><path class="cls-9" d="M343.66,9.47l-4.91-3.33.05-.07,4.9,3.34,0,.06"/><path class="cls-9" d="M343.7,9.41l-4.9-3.34a.12.12,0,0,1,.05-.05l4.9,3.33-.05.06"/><path class="cls-9" d="M343.75,9.35,338.85,6l0,0,4.91,3.33-.06,0"/><path class="cls-8" d="M343.81,9.3,338.9,6l.07,0,4.9,3.34-.06,0"/><path class="cls-8" d="M343.87,9.26,339,5.92l.09,0L344,9.22l-.09,0"/><path class="cls-8" d="M344,9.22l-4.9-3.33a.41.41,0,0,1,.16,0l4.9,3.33a.45.45,0,0,0-.16,0"/></g></g></g><polygon class="cls-8" points="338.31 11.58 333.41 8.25 335.53 8.24 340.43 11.57 338.31 11.58"/><polygon class="cls-9" points="337.73 31.19 332.83 27.86 332.86 8.84 337.77 12.17 337.73 31.19"/><g class="cls-6"><g class="cls-12"><g class="cls-6"><path class="cls-9" d="M337.77,12.17l-4.91-3.33a.85.85,0,0,1,0-.23L337.81,12a.54.54,0,0,0,0,.22"/><path class="cls-9" d="M337.81,12,332.9,8.61a.56.56,0,0,1,.05-.08l4.9,3.33,0,.09"/><path class="cls-9" d="M337.85,11.86,333,8.53a.16.16,0,0,1,0-.07l4.91,3.34,0,.06"/><path class="cls-9" d="M337.9,11.8,333,8.46a.12.12,0,0,1,.05-.05l4.9,3.33,0,.06"/><path class="cls-9" d="M337.94,11.74,333,8.41l0-.05L338,11.69l-.06.05"/><path class="cls-8" d="M338,11.69l-4.91-3.33.07,0,4.91,3.34-.07,0"/><path class="cls-8" d="M338.07,11.65l-4.91-3.34.09,0,4.9,3.33a.2.2,0,0,0-.08,0"/><path class="cls-8" d="M338.15,11.61l-4.9-3.33a.41.41,0,0,1,.16,0l4.9,3.33a.45.45,0,0,0-.16,0"/></g></g></g><path class="cls-10" d="M340.43,11.57l0,19a.58.58,0,0,1-.55.59h-2.12l0-19a.58.58,0,0,1,.54-.59Z"/></g><g class="cls-6"><polygon class="cls-8" points="333.47 31.88 328.56 28.54 330.86 28.53 335.77 31.86 333.47 31.88"/><polygon class="cls-9" points="333.46 32.99 328.56 29.66 328.56 28.54 333.47 31.88 333.46 32.99"/><g class="cls-6"><g class="cls-13"><g class="cls-6"><path class="cls-8" d="M331.73,34.74l-4.9-3.33h.22a2.17,2.17,0,0,0,.65-.09l4.9,3.33a1.81,1.81,0,0,1-.65.1h-.22"/><path class="cls-8" d="M332.6,34.65l-4.9-3.33.22-.1,4.91,3.33a.94.94,0,0,1-.23.1"/><path class="cls-8" d="M332.83,34.55l-4.91-3.33.15-.09,4.9,3.33a.42.42,0,0,1-.14.09"/><path class="cls-9" d="M333,34.46l-4.9-3.33a.47.47,0,0,0,.1-.1l4.91,3.34-.11.09"/><path class="cls-9" d="M333.08,34.37,328.17,31l.1-.1,4.9,3.33a.87.87,0,0,1-.09.11"/><path class="cls-9" d="M333.17,34.26l-4.9-3.33.08-.13,4.91,3.33a.6.6,0,0,1-.09.13"/><path class="cls-9" d="M333.26,34.13l-4.91-3.33a.66.66,0,0,0,.09-.19l4.91,3.33-.09.19"/><path class="cls-9" d="M333.35,33.94l-4.91-3.33a2.29,2.29,0,0,0,.12-.95l4.9,3.33a2.13,2.13,0,0,1-.11.95"/></g></g></g><polygon class="cls-8" points="327.7 34.76 322.8 31.43 326.83 31.41 331.73 34.74 327.7 34.76"/><g class="cls-6"><g class="cls-14"><path class="cls-8" d="M326.43,34.51l-4.9-3.34,0,0,4.9,3.33,0,0"/><path class="cls-8" d="M326.47,34.53l-4.9-3.33a1.13,1.13,0,0,0,.22.11l4.9,3.33a.91.91,0,0,1-.22-.11"/><path class="cls-8" d="M326.69,34.64l-4.9-3.33a2.06,2.06,0,0,0,.78.13h.23l4.9,3.33h-.22a2.08,2.08,0,0,1-.79-.13"/></g></g><g class="cls-6"><g class="cls-15"><g class="cls-6"><path class="cls-8" d="M329.9,27.67,325,24.33a1.91,1.91,0,0,0,.61-.09l4.91,3.33a2.23,2.23,0,0,1-.62.1"/><path class="cls-8" d="M330.52,27.57l-4.91-3.33.23-.1,4.9,3.34a.85.85,0,0,1-.22.09"/><path class="cls-8" d="M330.74,27.48l-4.9-3.34a1.1,1.1,0,0,0,.14-.09l4.9,3.34-.14.09"/><path class="cls-9" d="M330.88,27.39,326,24.05l.11-.1,4.9,3.34-.11.1"/><path class="cls-9" d="M331,27.29,326.09,24l.09-.1,4.91,3.33a.52.52,0,0,1-.1.11"/><path class="cls-9" d="M331.09,27.18l-4.91-3.33a.55.55,0,0,0,.09-.14l4.91,3.34-.09.13"/><path class="cls-9" d="M331.18,27.05l-4.91-3.34a1.14,1.14,0,0,0,.1-.19l4.9,3.33a1.21,1.21,0,0,1-.09.2"/><path class="cls-9" d="M331.27,26.85l-4.9-3.33a2.46,2.46,0,0,0,.13-.81L331.4,26a2.15,2.15,0,0,1-.13.81"/></g></g></g><polygon class="cls-9" points="328.63 29.79 323.73 26.45 323.73 24.34 328.63 27.67 328.63 29.79"/><polygon class="cls-8" points="328.63 27.67 323.73 24.34 325 24.33 329.9 27.67 328.63 27.67"/><polygon class="cls-9" points="331.4 26.04 326.5 22.71 326.5 18.04 331.41 21.37 331.4 26.04"/><g class="cls-6"><g class="cls-16"><path class="cls-9" d="M324.31,36.35,319.4,33a3.41,3.41,0,0,1-1.21-3.17l4.91,3.33a3.43,3.43,0,0,0,1.21,3.18"/></g></g><g class="cls-6"><g class="cls-17"><path class="cls-9" d="M333.67,18.63l-4.91-3.33a13.68,13.68,0,0,1-5-5.75l4.9,3.33a13.78,13.78,0,0,0,5,5.75"/></g></g><polygon class="cls-8" points="324.88 19.11 319.98 15.78 329.27 15.73 334.18 19.07 324.88 19.11"/><polygon class="cls-9" points="323.1 33.17 318.19 29.84 318.21 17.69 323.12 21.02 323.1 33.17"/><path class="cls-10" d="M334.18,19.07V25.9q.1,3.87-3.27,3.89h-2.27V27.67h1.26c1,0,1.5-.55,1.5-1.63V21.37l-4.5,0h-.15a.92.92,0,0,0-.88.77l0,10.75q-.11,1.88,1.62,1.86h.22l4,0H332c1.08,0,1.58-.59,1.51-1.76V31.88l2.3,0v1.62c.07,2.24-1,3.36-3.33,3.38h-.25l-5.53,0h-.22q-3.46,0-3.34-3.72l0-12.14a1.84,1.84,0,0,1,1.77-1.91Z"/><g class="cls-6"><g class="cls-18"><g class="cls-6"><path class="cls-9" d="M323.12,21l-4.91-3.34a2,2,0,0,1,.14-.73l4.9,3.34a2.15,2.15,0,0,0-.13.73"/><path class="cls-9" d="M323.25,20.3,318.35,17a1.43,1.43,0,0,1,.13-.28L323.39,20a2.44,2.44,0,0,0-.14.28"/><path class="cls-9" d="M323.39,20l-4.91-3.34c0-.07.09-.14.14-.21l4.91,3.33a1.64,1.64,0,0,0-.14.22"/><path class="cls-9" d="M323.53,19.8l-4.91-3.33.16-.18,4.91,3.33-.16.18"/><path class="cls-9" d="M323.69,19.62l-4.91-3.33.18-.16,4.91,3.34-.18.15"/><path class="cls-8" d="M323.87,19.47,319,16.13a1.64,1.64,0,0,1,.22-.14l4.9,3.34a1.28,1.28,0,0,0-.21.14"/><path class="cls-8" d="M324.08,19.33,319.18,16a1.39,1.39,0,0,1,.28-.12l4.91,3.33a1.51,1.51,0,0,0-.29.13"/><path class="cls-8" d="M324.37,19.2l-4.91-3.33a1.54,1.54,0,0,1,.52-.09l4.91,3.34a1.77,1.77,0,0,0-.52.08"/></g></g></g><polygon class="cls-8" points="327.06 9.28 322.15 5.95 325.26 5.93 330.17 9.27 327.06 9.28"/><g class="cls-6"><g class="cls-19"><path class="cls-9" d="M320.82,18.08l-4.91-3.33a19.68,19.68,0,0,0,1.79-1.59l4.91,3.33a20.93,20.93,0,0,1-1.79,1.59"/><path class="cls-9" d="M322.61,16.49l-4.91-3.33a18.08,18.08,0,0,0,1.54-1.74l4.91,3.33a17.09,17.09,0,0,1-1.54,1.74"/><path class="cls-9" d="M324.15,14.75l-4.91-3.33a17.67,17.67,0,0,0,1.32-2l4.91,3.33a16,16,0,0,1-1.32,2"/><path class="cls-9" d="M325.47,12.79l-4.91-3.33a19.16,19.16,0,0,0,1.31-2.73l4.9,3.33a19.13,19.13,0,0,1-1.3,2.73"/><path class="cls-9" d="M326.77,10.06l-4.9-3.33c.1-.26.19-.52.28-.78l4.91,3.33c-.09.27-.19.53-.29.78"/></g></g><polygon class="cls-9" points="320.81 20.5 315.91 17.17 315.91 14.75 320.82 18.08 320.81 20.5"/><path class="cls-10" d="M330.17,9.27a16.47,16.47,0,0,0,6.2,8.49v2.42q-5.64-2.71-7.71-7.3a17.1,17.1,0,0,1-7.84,7.62V18.08a18.45,18.45,0,0,0,6.24-8.8Z"/></g><g class="cls-6"><g class="cls-6"><g class="cls-20"><path class="cls-9" d="M313.63,36.29,308.72,33a1.88,1.88,0,0,1-.7-1l-.33-1,4.91,3.34c.11.32.22.65.32,1a2,2,0,0,0,.71,1"/></g></g><g class="cls-6"><g class="cls-21"><path class="cls-8" d="M310.46,26.58l-4.91-3.34h.22a3,3,0,0,1,1.13.22l4.91,3.33a3,3,0,0,0-1.13-.21h-.22"/><path class="cls-8" d="M311.81,26.78l-4.91-3.33a3.39,3.39,0,0,1,.57.29l4.9,3.33a3.29,3.29,0,0,0-.56-.29"/><path class="cls-8" d="M312.37,27.07l-4.9-3.33.1.07,4.91,3.33-.11-.07"/></g></g><g class="cls-6"><g class="cls-22"><path class="cls-9" d="M311.68,31.73l-4.91-3.33c-.63-1.67-1.31-3.35-2.06-5l4.9,3.34c.76,1.7,1.44,3.38,2.07,5"/></g></g><polygon class="cls-8" points="309.62 26.69 304.71 23.35 305.55 23.24 310.46 26.57 309.62 26.69"/><g class="cls-6"><g class="cls-23"><path class="cls-8" d="M297.43,32.1l-4.91-3.34c1.14.07,3.08.16,5.27.15.93,0,1.9,0,2.88-.08,2.17-.11,4.59-.3,6.1-.43l4.91,3.33c-1.51.13-3.93.33-6.11.43-1,.05-1.94.08-2.87.08-2.19,0-4.14-.08-5.27-.14"/></g></g><g class="cls-6"><g class="cls-24"><path class="cls-9" d="M294.34,34.71l-4.91-3.34a1.78,1.78,0,0,1-.62-2.09l4.91,3.33a1.78,1.78,0,0,0,.62,2.1"/><path class="cls-9" d="M293.72,32.61l-4.91-3.33a1.15,1.15,0,0,1,.12-.25l4.91,3.33a1.42,1.42,0,0,0-.12.25"/><path class="cls-9" d="M293.84,32.36,288.93,29l.08-.12c.92-1.35,2-2.95,2.73-4.24l4.9,3.34c-.74,1.28-1.81,2.89-2.73,4.23l-.07.12"/><path class="cls-9" d="M296.64,28l-4.9-3.34.22-.39c1.2-2.15,2.31-4.72,2.73-5.71l4.91,3.34c-.42,1-1.54,3.55-2.73,5.71l-.23.39"/></g></g><polygon class="cls-8" points="291.82 19.48 286.91 16.15 312.99 16.02 317.89 19.35 291.82 19.48"/><polygon class="cls-9" points="291.35 21.95 286.44 18.61 286.44 16.66 291.35 19.99 291.35 21.95"/><g class="cls-6"><g class="cls-25"><g class="cls-6"><path class="cls-9" d="M291.35,20l-4.9-3.34a.63.63,0,0,1,0-.19l4.91,3.33a.45.45,0,0,0,0,.2"/><path class="cls-9" d="M291.39,19.79l-4.91-3.33a.16.16,0,0,1,0-.07l4.9,3.33,0,.07"/><path class="cls-9" d="M291.42,19.72l-4.9-3.33,0-.06,4.91,3.33,0,.06"/><path class="cls-9" d="M291.46,19.66l-4.91-3.33.05,0,4.9,3.34,0,0"/><path class="cls-9" d="M291.5,19.62l-4.9-3.34,0,0,4.91,3.34-.05,0"/><path class="cls-8" d="M291.55,19.58l-4.91-3.34.06,0,4.91,3.34-.06,0"/><path class="cls-8" d="M291.61,19.54,286.7,16.2l.08,0,4.9,3.33-.07,0"/><path class="cls-8" d="M291.68,19.5l-4.9-3.33.13,0,4.91,3.33-.14,0"/></g></g></g><path class="cls-10" d="M317.89,19.35v2.47L303,21.89c-.51,1.15-2,4.46-3.14,6.43-.62,1.08-1.58,2.52-2.44,3.78,1.13.06,3.08.15,5.27.14.93,0,1.9,0,2.87-.08,2.18-.1,4.6-.3,6.11-.43-.63-1.66-1.31-3.34-2.07-5l.85-.11h.22A3.17,3.17,0,0,1,313.31,28a46.07,46.07,0,0,1,3.21,8.46h-2.34a1.54,1.54,0,0,1-1.26-1.2c-.1-.32-.21-.65-.32-1l-7.2.48c-1,.06-2.07.09-3.14.1-2.83,0-5.64-.13-6.65-.19a2.35,2.35,0,0,1-.2.27h-.23a1.71,1.71,0,0,1-1.27-2.72c1-1.48,2.21-3.28,3-4.62,1.19-2.16,2.31-4.73,2.73-5.71l-8.25,0V20a.49.49,0,0,1,.47-.51Z"/></g><g class="cls-6"><polygon class="cls-8" points="294.22 10.54 289.31 7.21 310.34 7.1 315.25 10.44 294.22 10.54"/><polygon class="cls-9" points="293.74 13.01 288.84 9.67 288.84 7.71 293.75 11.05 293.74 13.01"/><path class="cls-10" d="M315.25,10.43V12.9l-21.5.11v-2a.49.49,0,0,1,.47-.51Z"/><g class="cls-6"><g class="cls-26"><g class="cls-6"><path class="cls-9" d="M293.75,11.05l-4.91-3.34a.43.43,0,0,1,0-.19l4.9,3.33a.64.64,0,0,0,0,.2"/><path class="cls-9" d="M293.78,10.85l-4.9-3.33,0-.07,4.91,3.33a.25.25,0,0,0,0,.07"/><path class="cls-9" d="M293.82,10.78l-4.91-3.33,0-.06,4.91,3.33a.21.21,0,0,0,0,.06"/><path class="cls-9" d="M293.86,10.72,289,7.39l0,0,4.91,3.33,0,.05"/><path class="cls-9" d="M293.9,10.67,289,7.34l.05,0L294,10.63l-.05,0"/><path class="cls-8" d="M294,10.63,289,7.3l.06,0L294,10.6l-.05,0"/><path class="cls-8" d="M294,10.6l-4.9-3.34.07,0,4.91,3.33-.08,0"/><path class="cls-8" d="M294.08,10.56l-4.91-3.33a.34.34,0,0,1,.14,0l4.91,3.33-.14,0"/></g></g></g></g><g class="cls-6"><g class="cls-6"><g class="cls-27"><path class="cls-9" d="M287.21,34.86l-4.9-3.33A7.91,7.91,0,0,1,279,25.46l4.91,3.33a7.92,7.92,0,0,0,3.32,6.07"/></g></g><path class="cls-10" d="M283.89,28.79c.1.1,2,2,3,2.8s2.22,1.68,2.29,1.73v2.53A7.76,7.76,0,0,1,283.89,28.79Z"/><g class="cls-6"><g class="cls-28"><g class="cls-6"><path class="cls-8" d="M278.6,35.32,273.7,32a.87.87,0,0,0,.28,0l4.9,3.34a.82.82,0,0,1-.28,0"/><path class="cls-8" d="M278.88,35.28,274,31.94l.15-.06L279,35.21l-.16.07"/><path class="cls-8" d="M279,35.21l-4.91-3.33.12-.08,4.9,3.33-.11.08"/><path class="cls-9" d="M279.15,35.13l-4.9-3.33.09-.08,4.91,3.33a.39.39,0,0,1-.1.08"/><path class="cls-9" d="M279.25,35.05l-4.91-3.33.09-.1L279.34,35l-.09.1"/><path class="cls-9" d="M279.34,35l-4.91-3.33.08-.12,4.9,3.34-.07.11"/><path class="cls-9" d="M279.41,34.84l-4.9-3.34a1.07,1.07,0,0,0,.07-.15l4.91,3.34-.08.15"/><path class="cls-9" d="M279.49,34.69l-4.91-3.34a1,1,0,0,0,.07-.39l4.91,3.33a1.29,1.29,0,0,1-.07.4"/></g></g></g><g class="cls-6"><g class="cls-29"><g class="cls-6"><path class="cls-8" d="M283.86,25,279,21.7a.87.87,0,0,0,.28-.05l4.9,3.34a.8.8,0,0,1-.27,0"/><path class="cls-8" d="M284.13,25l-4.9-3.34.15-.06,4.91,3.33-.16.07"/><path class="cls-8" d="M284.29,24.92l-4.91-3.33.12-.08,4.9,3.33-.11.08"/><path class="cls-9" d="M284.4,24.84l-4.9-3.33a.76.76,0,0,0,.09-.09l4.91,3.34a.39.39,0,0,1-.1.08"/><path class="cls-9" d="M284.5,24.76l-4.91-3.34.09-.09,4.91,3.33-.09.1"/><path class="cls-9" d="M284.59,24.66l-4.91-3.33.08-.12,4.9,3.34-.07.11"/><path class="cls-9" d="M284.66,24.55l-4.9-3.34.07-.15,4.91,3.34a1.09,1.09,0,0,1-.08.15"/><path class="cls-9" d="M284.74,24.4l-4.91-3.34a1,1,0,0,0,.07-.39L284.81,24a1.34,1.34,0,0,1-.07.4"/></g></g></g><polygon class="cls-8" points="277.27 35.33 272.37 32 273.7 31.99 278.61 35.32 277.27 35.33"/><polygon class="cls-9" points="277.27 37.59 272.36 34.25 272.37 32 277.27 35.33 277.27 37.59"/><polygon class="cls-9" points="284.81 24 279.9 20.67 279.91 19.13 284.81 22.46 284.81 24"/><polygon class="cls-9" points="279.56 34.29 274.65 30.96 274.67 23.98 279.57 27.31 279.56 34.29"/><polygon class="cls-9" points="284.81 20.61 279.91 17.28 279.91 14.81 284.82 18.15 284.81 20.61"/><polygon class="cls-8" points="285.25 15.89 280.35 12.56 282.58 12.54 287.49 15.88 285.25 15.89"/><polygon class="cls-9" points="272.59 35.93 267.68 32.6 267.68 30.17 272.59 33.51 272.59 35.93"/><g class="cls-6"><g class="cls-30"><g class="cls-6"><path class="cls-8" d="M272.59,33.51l-4.91-3.34,0,0,4.91,3.34,0,0"/><path class="cls-9" d="M272.63,33.48l-4.91-3.34c.27-.2,1.77-1.35,2.66-2.14s2.64-2.43,2.73-2.52l4.9,3.34c-.09.08-1.77,1.67-2.73,2.52s-2.38,1.93-2.65,2.14"/></g></g></g><path class="cls-10" d="M278,28.82q-.47,5.48-5.42,7.11V33.51c.09-.07,1.74-1.33,2.69-2.17S277.92,28.9,278,28.82Z"/><polygon class="cls-8" points="277.1 25.07 272.2 21.73 278.95 21.7 283.86 25.03 277.1 25.07"/><polygon class="cls-8" points="280.99 15.91 276.09 12.58 280.35 12.56 285.25 15.89 280.99 15.91"/><polygon class="cls-9" points="274.44 27.34 269.53 24 269.53 22.2 274.44 25.54 274.44 27.34"/><polygon class="cls-8" points="277.11 20.65 272.2 17.32 279.91 17.28 284.81 20.61 277.11 20.65"/><polygon class="cls-9" points="267.19 37.77 262.28 34.44 262.28 31.64 267.19 34.98 267.19 37.77"/><g class="cls-6"><g class="cls-31"><path class="cls-9" d="M277.8,15.93l-4.9-3.34a.41.41,0,0,0,.05-.09l4.91,3.33-.06.1"/><path class="cls-9" d="M277.86,15.83,273,12.5a4,4,0,0,0,.31-.62l4.9,3.34a4.32,4.32,0,0,1-.3.61"/><path class="cls-9" d="M278.16,15.22l-4.9-3.34a3,3,0,0,0,.1-.32l4.9,3.34a2.33,2.33,0,0,1-.1.32"/></g></g><g class="cls-6"><g class="cls-32"><path class="cls-9" d="M267.19,35l-4.91-3.34.06-.05,4.91,3.33-.06.06"/><path class="cls-9" d="M267.25,34.92l-4.91-3.33a8.67,8.67,0,0,0,.64-.72l4.9,3.33a6.25,6.25,0,0,1-.63.72"/><path class="cls-9" d="M267.88,34.2,263,30.87a9,9,0,0,0,.59-.88l4.9,3.33a6.75,6.75,0,0,1-.59.88"/><path class="cls-9" d="M268.47,33.32,263.57,30a8.26,8.26,0,0,0,.57-1.2l4.91,3.33a8.3,8.3,0,0,1-.58,1.2"/><path class="cls-9" d="M269.05,32.12l-4.91-3.33a9.46,9.46,0,0,0,.63-3.43l4.9,3.34a9.4,9.4,0,0,1-.62,3.42"/></g></g><polygon class="cls-8" points="277.12 15.93 272.21 12.6 272.9 12.59 277.8 15.93 277.12 15.93"/><polygon class="cls-8" points="278.36 13.46 273.45 10.13 276.4 10.11 281.31 13.45 278.36 13.46"/><g class="cls-6"><g class="cls-33"><path class="cls-9" d="M278.26,14.9l-4.9-3.34a2.88,2.88,0,0,0,.09-1.43l4.91,3.33a2.88,2.88,0,0,1-.1,1.44"/></g></g><polygon class="cls-9" points="274.44 25.54 269.53 22.2 269.55 14.87 274.45 18.2 274.44 25.54"/><polygon class="cls-9" points="269.68 28.7 264.77 25.36 264.82 21.6 269.73 24.94 269.68 28.7"/><polygon class="cls-8" points="275 15.94 270.1 12.61 272.21 12.6 277.12 15.93 275 15.94"/><polygon class="cls-8" points="274.88 15.94 269.98 12.61 270.1 12.61 275 15.94 274.88 15.94"/><polygon class="cls-9" points="274.45 18.2 269.55 14.87 269.55 13.2 274.45 16.53 274.45 18.2"/><polygon class="cls-9" points="274.45 16.53 269.55 13.2 269.55 13.07 274.45 16.41 274.45 16.53"/><g class="cls-6"><g class="cls-34"><g class="cls-6"><path class="cls-9" d="M274.46,16.41l-4.91-3.34a.57.57,0,0,1,0-.18l4.91,3.34a.48.48,0,0,0,0,.18"/><path class="cls-9" d="M274.49,16.23l-4.91-3.34,0-.06,4.91,3.33,0,.07"/><path class="cls-9" d="M274.52,16.16l-4.91-3.33,0-.05,4.91,3.33,0,.05"/><path class="cls-9" d="M274.56,16.11l-4.91-3.33,0,0,4.9,3.34,0,0"/><path class="cls-9" d="M274.59,16.07l-4.9-3.34s0,0,0,0L274.64,16l-.05,0"/><path class="cls-8" d="M274.64,16l-4.91-3.34,0,0L274.69,16a.1.1,0,0,0-.05,0"/><path class="cls-8" d="M274.69,16l-4.91-3.33.07,0L274.76,16l-.07,0"/><path class="cls-8" d="M274.76,16l-4.91-3.33.13,0,4.91,3.33-.13,0"/></g></g></g><path class="cls-10" d="M285.25,15.89h2.24V26.81a.44.44,0,0,1-.43.46h-.12l-2.12,0h-2.28v9.8a.44.44,0,0,1-.43.46h-.17l-2.35,0h-2.28V35.33h1.33a1,1,0,0,0,1-1v-7H277.1l-2.66,0V16.41a.45.45,0,0,1,.43-.47h2.91a3.79,3.79,0,0,0,.46-1,2.88,2.88,0,0,0,.1-1.44h2.95v1.47a1.74,1.74,0,0,1-.32,1ZM284.81,24V22.46l-7.7,0v2.57l6.76,0a1,1,0,0,0,.95-1m0-3.39V18.15l-6.75,0a1,1,0,0,0-1,1v1.44l7.71,0"/><g class="cls-6"><g class="cls-35"><path class="cls-8" d="M266.2,24.53l-4.9-3.34a1.22,1.22,0,0,1,.38.07l4.91,3.34a.85.85,0,0,0-.39-.07"/><path class="cls-8" d="M266.59,24.6l-4.91-3.34.17.09,4.91,3.34a.56.56,0,0,0-.17-.09"/><path class="cls-8" d="M266.76,24.69l-4.91-3.34,0,0,4.9,3.34,0,0"/></g></g><polygon class="cls-8" points="265 24.53 260.1 21.2 261.3 21.19 266.2 24.52 265 24.53"/><g class="cls-6"><g class="cls-36"><path class="cls-9" d="M262.22,37.1l-4.91-3.33A48.87,48.87,0,0,0,260.1,21.2l4.9,3.33a48.34,48.34,0,0,1-2.78,12.57"/></g></g><path class="cls-10" d="M266.2,24.53a1.16,1.16,0,0,1,1.11,1.32,61.22,61.22,0,0,1-1.86,10,1.65,1.65,0,0,1-1.57,1.27h-1.66A48.34,48.34,0,0,0,265,24.53Z"/><polygon class="cls-9" points="269.73 24.94 264.82 21.6 264.85 9.66 269.75 12.99 269.73 24.94"/><polygon class="cls-9" points="269.75 12.99 264.85 9.66 264.85 9.15 269.75 12.48 269.75 12.99"/><polygon class="cls-8" points="270.19 10.73 265.28 7.39 284.07 7.3 288.97 10.64 270.19 10.73"/><polygon class="cls-9" points="269.75 12.48 264.85 9.15 264.85 7.86 269.76 11.2 269.75 12.48"/><g class="cls-6"><g class="cls-37"><g class="cls-6"><path class="cls-9" d="M269.76,11.2l-4.91-3.34a.57.57,0,0,1,0-.18L269.79,11a.48.48,0,0,0,0,.18"/><path class="cls-9" d="M269.79,11l-4.91-3.34,0-.07L269.82,11l0,.07"/><path class="cls-9" d="M269.82,11l-4.91-3.34a.1.1,0,0,0,0-.05l4.91,3.34a.1.1,0,0,0,0,0"/><path class="cls-9" d="M269.86,10.9,265,7.56l0,0,4.9,3.33,0,.05"/><path class="cls-9" d="M269.89,10.85,265,7.52l0,0,4.91,3.34-.05,0"/><path class="cls-8" d="M269.94,10.82,265,7.48l.05,0L270,10.78a.1.1,0,0,0-.05,0"/><path class="cls-8" d="M270,10.78l-4.91-3.33.07,0,4.91,3.33-.07,0"/><path class="cls-8" d="M270.06,10.75l-4.91-3.33a.3.3,0,0,1,.13,0l4.91,3.33-.13,0"/></g></g></g><path class="cls-10" d="M289,10.64V12.9L273.7,13a1,1,0,0,0-.92.78L272.72,29a9.62,9.62,0,0,1-5.53,8.78V35a8.72,8.72,0,0,0,2.48-6.28l.06-3.76,0-12V11.2a.45.45,0,0,1,.43-.47Z"/><g class="cls-6"><g class="cls-38"><path class="cls-8" d="M264.68,17l-4.91-3.33a1.09,1.09,0,0,1,.4.07l4.9,3.34a1,1,0,0,0-.39-.08"/><path class="cls-8" d="M265.07,17l-4.9-3.34.18.09,4.91,3.34a.66.66,0,0,0-.19-.09"/><path class="cls-8" d="M265.26,17.12l-4.91-3.34,0,0,4.91,3.33,0,0"/></g></g><g class="cls-6"><g class="cls-39"><path class="cls-9" d="M265,22.88l-4.91-3.33a1,1,0,0,1-.4-.59,39.59,39.59,0,0,0-1.77-5.33L262.83,17a41.18,41.18,0,0,1,1.77,5.34,1,1,0,0,0,.4.58"/></g></g><path class="cls-10" d="M264.68,17a1.14,1.14,0,0,1,1,.68,20.76,20.76,0,0,1,1.72,5.4H265.5a.94.94,0,0,1-.9-.74A41.18,41.18,0,0,0,262.83,17Z"/><polygon class="cls-8" points="262.83 16.96 257.92 13.63 259.77 13.62 264.68 16.95 262.83 16.96"/></g><g class="cls-6"><g class="cls-6"><g class="cls-40"><path class="cls-8" d="M264.23,9.62l-4.91-3.33a1.39,1.39,0,0,1,.46.08l4.91,3.34a1.22,1.22,0,0,0-.46-.09"/><path class="cls-8" d="M264.69,9.71l-4.91-3.34.21.11,4.9,3.33-.2-.1"/><path class="cls-8" d="M264.89,9.81,260,6.48l0,0,4.9,3.34,0,0"/></g></g><g class="cls-6"><g class="cls-41"><path class="cls-9" d="M264.7,15.43l-4.91-3.34a.94.94,0,0,1-.4-.61,32.07,32.07,0,0,0-1.68-5.18l4.9,3.33a30.48,30.48,0,0,1,1.68,5.18,1,1,0,0,0,.41.62"/></g></g><path class="cls-10" d="M264.23,9.62a1.3,1.3,0,0,1,1.18.79,26.42,26.42,0,0,1,1.8,5.16h-2a1,1,0,0,1-.91-.77,30.48,30.48,0,0,0-1.68-5.18Z"/><polygon class="cls-8" points="262.61 9.63 257.71 6.3 259.32 6.29 264.23 9.62 262.61 9.63"/></g><g class="cls-6"><g class="cls-6"><g class="cls-42"><g class="cls-6"><path class="cls-8" d="M255,34.87l-4.9-3.33a.81.81,0,0,0,.27-.05l4.91,3.33a.87.87,0,0,1-.28,0"/><path class="cls-8" d="M255.26,34.82l-4.91-3.33.16-.07,4.9,3.34a.67.67,0,0,1-.15.06"/><path class="cls-8" d="M255.41,34.76l-4.9-3.34.11-.07,4.91,3.33-.12.08"/><path class="cls-9" d="M255.53,34.68l-4.91-3.33.1-.09,4.91,3.34-.1.08"/><path class="cls-9" d="M255.63,34.6l-4.91-3.34.09-.1,4.9,3.34-.08.1"/><path class="cls-9" d="M255.71,34.5l-4.9-3.34.07-.11,4.91,3.33a.83.83,0,0,1-.08.12"/><path class="cls-9" d="M255.79,34.38l-4.91-3.33.08-.15,4.9,3.33a.52.52,0,0,1-.07.15"/><path class="cls-9" d="M255.86,34.23,251,30.9a1.23,1.23,0,0,0,.07-.39l4.9,3.33a1,1,0,0,1-.07.39"/></g></g></g><polygon class="cls-9" points="253.93 37.13 249.03 33.8 249.03 31.54 253.94 34.88 253.93 37.13"/><polygon class="cls-8" points="253.94 34.88 249.03 31.54 250.08 31.54 254.98 34.87 253.94 34.88"/><polygon class="cls-9" points="255.94 33.84 251.03 30.51 251.04 24.35 255.95 27.68 255.94 33.84"/><polygon class="cls-9" points="255.95 25.42 251.04 22.09 251.05 16.65 255.96 19.98 255.95 25.42"/><polygon class="cls-8" points="249.58 25.45 244.68 22.12 251.04 22.09 255.95 25.42 249.58 25.45"/><polygon class="cls-9" points="244.04 37.52 239.13 34.19 239.14 31.39 244.04 34.73 244.04 37.52"/><g class="cls-6"><g class="cls-43"><path class="cls-9" d="M244,34.73l-4.9-3.33.06-.07,4.9,3.34-.06.06"/><path class="cls-9" d="M244.1,34.67l-4.9-3.34a8.62,8.62,0,0,0,.63-.71L244.74,34a8.67,8.67,0,0,1-.64.72"/><path class="cls-9" d="M244.74,34l-4.91-3.33a7.5,7.5,0,0,0,.59-.88l4.91,3.33a9,9,0,0,1-.59.88"/><path class="cls-9" d="M245.33,33.07l-4.91-3.33a9.5,9.5,0,0,0,.58-1.2l4.9,3.33a8.26,8.26,0,0,1-.57,1.2"/><path class="cls-9" d="M245.9,31.87,241,28.54a9.67,9.67,0,0,0,.62-3.43l4.91,3.34a9.4,9.4,0,0,1-.63,3.42"/></g></g><polygon class="cls-9" points="255.97 17.72 251.06 14.39 251.07 8.95 255.97 12.28 255.97 17.72"/><polygon class="cls-9" points="246.53 28.45 241.62 25.11 241.68 21.35 246.58 24.69 246.53 28.45"/><polygon class="cls-8" points="249.62 17.75 244.71 14.42 251.06 14.39 255.97 17.72 249.62 17.75"/><polygon class="cls-9" points="246.58 24.69 241.68 21.35 241.7 9 246.6 12.33 246.58 24.69"/><polygon class="cls-9" points="246.6 12.33 241.7 9 241.7 8.9 246.6 12.23 246.6 12.33"/><polygon class="cls-8" points="247.04 10.07 242.13 6.74 254.02 6.68 258.93 10.01 247.04 10.07"/><polygon class="cls-9" points="246.6 12.23 241.7 8.9 241.7 7.2 246.61 10.53 246.6 12.23"/><g class="cls-6"><g class="cls-44"><g class="cls-6"><path class="cls-9" d="M246.61,10.53,241.7,7.2a.57.57,0,0,1,0-.18l4.91,3.34a.47.47,0,0,0,0,.17"/><path class="cls-9" d="M246.64,10.36,241.73,7l0-.06,4.9,3.33,0,.07"/><path class="cls-9" d="M246.67,10.29,241.77,7l0-.06,4.91,3.34,0,0"/><path class="cls-9" d="M246.71,10.24,241.8,6.9l0,0,4.91,3.33,0,.05"/><path class="cls-9" d="M246.75,10.19l-4.91-3.33,0,0,4.91,3.34,0,0"/><path class="cls-8" d="M246.79,10.16l-4.91-3.34.06,0,4.9,3.33-.05,0"/><path class="cls-8" d="M246.84,10.12l-4.9-3.33.07,0,4.9,3.33-.07,0"/><path class="cls-8" d="M246.91,10.09,242,6.76a.25.25,0,0,1,.12,0L247,10.07l-.13,0"/></g></g></g><path class="cls-10" d="M247,10.07,258.93,10v2.26l-.05,22.58v1.8a.45.45,0,0,1-.43.46h-4.52V34.88h1a1,1,0,0,0,1-1l0-6.16-6.38,0v1A9.62,9.62,0,0,1,244,37.52V34.73a8.77,8.77,0,0,0,2.49-6.28l.05-3.76,0-12.36v-1.8A.45.45,0,0,1,247,10.07ZM256,25.42V20l-6.35,0,0,5.44,6.37,0m0-7.7V12.28l-5.32,0h-.14a.93.93,0,0,0-.88.73v4.72l6.34,0"/></g><g class="cls-6"><g class="cls-6"><g class="cls-45"><g class="cls-6"><path class="cls-8" d="M240.34,32.07l-4.91-3.33a.87.87,0,0,0,.28,0L240.62,32a.92.92,0,0,1-.28,0"/><path class="cls-8" d="M240.62,32l-4.91-3.33.15-.07L240.77,32l-.15.06"/><path class="cls-8" d="M240.77,32l-4.91-3.34.12-.07,4.9,3.33-.11.08"/><path class="cls-9" d="M240.88,31.88,236,28.55l.1-.09L241,31.8a.39.39,0,0,1-.1.08"/><path class="cls-9" d="M241,31.8l-4.9-3.34.08-.09,4.91,3.33-.09.1"/><path class="cls-9" d="M241.07,31.7l-4.91-3.33.08-.12,4.9,3.33a.75.75,0,0,1-.07.12"/><path class="cls-9" d="M241.14,31.58l-4.9-3.33a1,1,0,0,0,.07-.15l4.91,3.33a.53.53,0,0,1-.08.15"/><path class="cls-9" d="M241.22,31.43l-4.91-3.33a1.05,1.05,0,0,0,.07-.4L241.29,31a1.23,1.23,0,0,1-.07.39"/></g></g></g><polygon class="cls-8" points="237.43 32.09 232.52 28.75 235.43 28.74 240.34 32.07 237.43 32.09"/><polygon class="cls-9" points="241.29 31.04 236.38 27.7 236.4 20 241.31 23.34 241.29 31.04"/><polygon class="cls-9" points="234.76 34.35 229.85 31.02 229.82 28.76 234.73 32.1 234.76 34.35"/><polygon class="cls-8" points="237.45 21.1 232.54 17.77 236.4 17.75 241.31 21.08 237.45 21.1"/><polygon class="cls-9" points="241.31 21.08 236.4 17.75 236.42 9.64 241.32 12.97 241.31 21.08"/><polygon class="cls-9" points="234.73 32.1 229.82 28.76 229.87 20.04 234.78 23.37 234.73 32.1"/><polygon class="cls-8" points="241.33 10.71 236.42 7.38 239.09 7.37 243.99 10.7 241.33 10.71"/><polygon class="cls-9" points="234.78 23.37 229.87 20.04 229.84 17.78 234.75 21.11 234.78 23.37"/><polygon class="cls-8" points="237.47 10.73 232.56 7.4 236.42 7.38 241.33 10.71 237.47 10.73"/><polygon class="cls-9" points="234.75 21.11 229.84 17.78 229.89 9.67 234.8 13 234.75 21.11"/><polygon class="cls-8" points="235.35 10.74 230.44 7.41 232.56 7.4 237.47 10.73 235.35 10.74"/><polygon class="cls-8" points="235.19 10.75 230.29 7.41 230.44 7.41 235.35 10.74 235.19 10.75"/><polygon class="cls-9" points="234.8 13 229.89 9.67 229.86 7.88 234.76 11.21 234.8 13"/><path class="cls-10" d="M241.33,10.72l2.66,0V13l0,8.11v2.26l0,8.72v1.8a.45.45,0,0,1-.43.46h-2.24l-3.86,0-2.66,0,0-2.26.05-8.73,0-2.25L234.8,13l0-1.79a.45.45,0,0,1,.43-.46h6.14Zm0,20.32v-7.7l-3.86,0v8.72h2.91a1,1,0,0,0,.95-1m0-10V13l-2.91,0a1,1,0,0,0-.95,1V21.1l3.86,0"/><g class="cls-6"><g class="cls-46"><g class="cls-6"><path class="cls-9" d="M234.76,11.21l-4.9-3.34a.47.47,0,0,1,0-.17L234.8,11a.58.58,0,0,0,0,.18"/><path class="cls-9" d="M234.8,11,229.89,7.7l0-.07L234.83,11l0,.07"/><path class="cls-9" d="M234.83,11l-4.91-3.33,0,0,4.9,3.33,0,.05"/><path class="cls-9" d="M234.86,10.91,230,7.58l0,0,4.9,3.34,0,0"/><path class="cls-9" d="M234.9,10.87,230,7.53l0,0L235,10.83l0,0"/><path class="cls-8" d="M235,10.83,230,7.5l.05,0L235,10.8l-.05,0"/><path class="cls-8" d="M235,10.8l-4.91-3.34.07,0,4.91,3.34a.09.09,0,0,0-.07,0"/><path class="cls-8" d="M235.07,10.77l-4.91-3.34.13,0,4.9,3.34a.25.25,0,0,0-.12,0"/></g></g></g></g><g class="cls-6"><g class="cls-6"><g class="cls-47"><path class="cls-8" d="M205.05,40.38l-4.91-3.33a1.77,1.77,0,0,1,.69.13l4.91,3.33a2,2,0,0,0-.69-.13"/><path class="cls-8" d="M205.74,40.51l-4.91-3.33a1.3,1.3,0,0,1,.31.16l4.91,3.33-.31-.16"/><path class="cls-8" d="M206.05,40.67l-4.91-3.33.06,0,4.91,3.33-.06,0"/></g></g><polygon class="cls-8" points="201.26 40.4 196.36 37.07 200.14 37.05 205.05 40.38 201.26 40.4"/><path class="cls-10" d="M205.05,40.38a2.06,2.06,0,0,1,2,2.14,2.08,2.08,0,0,1-2,2.15l-3.78,0a2.05,2.05,0,0,1-2-2.13,2.1,2.1,0,0,1,2-2.16Z"/><g class="cls-6"><g class="cls-48"><g class="cls-6"><path class="cls-9" d="M200.2,44.37,195.29,41a2.16,2.16,0,0,1-.92-1.81,2.21,2.21,0,0,1,.15-.82l4.91,3.33a2.31,2.31,0,0,0-.16.83,2.18,2.18,0,0,0,.93,1.81"/><path class="cls-9" d="M199.43,41.73l-4.91-3.33a1.48,1.48,0,0,1,.15-.31l4.91,3.33a1.77,1.77,0,0,0-.15.31"/><path class="cls-9" d="M199.58,41.42l-4.91-3.33a2.13,2.13,0,0,1,.16-.25l4.91,3.34a2,2,0,0,0-.16.24"/><path class="cls-9" d="M199.74,41.18l-4.91-3.34.18-.2L199.92,41a1.71,1.71,0,0,0-.18.2"/><path class="cls-9" d="M199.92,41,195,37.64l.2-.18,4.91,3.34a1.12,1.12,0,0,0-.2.18"/><path class="cls-8" d="M200.12,40.8l-4.91-3.34.24-.15,4.91,3.33-.24.16"/><path class="cls-8" d="M200.36,40.64l-4.91-3.33.33-.15,4.9,3.34a1.83,1.83,0,0,0-.32.14"/><path class="cls-8" d="M200.68,40.5l-4.9-3.34a1.85,1.85,0,0,1,.58-.09l4.9,3.33a1.91,1.91,0,0,0-.58.1"/></g></g></g></g><g class="cls-6"><g class="cls-6"><g class="cls-49"><g class="cls-6"><path class="cls-9" d="M213.07,38.78l-4.9-3.33a2.17,2.17,0,0,1-.93-1.81,2.44,2.44,0,0,1,.16-.82l4.9,3.33a2.54,2.54,0,0,0-.15.83,2.16,2.16,0,0,0,.92,1.8"/><path class="cls-9" d="M212.3,36.15l-4.9-3.33a1.87,1.87,0,0,1,.15-.32l4.9,3.34-.15.31"/><path class="cls-9" d="M212.45,35.84l-4.9-3.34.16-.24,4.91,3.34a1.46,1.46,0,0,0-.17.24"/><path class="cls-9" d="M212.62,35.6l-4.91-3.34.18-.2,4.91,3.34a1.12,1.12,0,0,0-.18.2"/><path class="cls-9" d="M212.8,35.4l-4.91-3.34.2-.18L213,35.22a1.12,1.12,0,0,0-.2.18"/><path class="cls-8" d="M213,35.22l-4.91-3.34c.08-.05.16-.11.24-.15l4.91,3.33a1.43,1.43,0,0,0-.24.16"/><path class="cls-8" d="M213.24,35.06l-4.91-3.33a1.66,1.66,0,0,1,.33-.15l4.9,3.34a1.83,1.83,0,0,0-.32.14"/><path class="cls-8" d="M213.56,34.92l-4.9-3.34a1.81,1.81,0,0,1,.58-.09,7.15,7.15,0,0,0,2.17-.36l4.91,3.33a6.87,6.87,0,0,1-2.18.36,1.91,1.91,0,0,0-.58.1"/><path class="cls-8" d="M216.32,34.46l-4.91-3.33a6.66,6.66,0,0,0,1.22-.54l4.9,3.34a7.27,7.27,0,0,1-1.21.53"/><path class="cls-8" d="M217.53,33.93l-4.9-3.34a6.64,6.64,0,0,0,.9-.59l4.91,3.33a7.94,7.94,0,0,1-.91.6"/><path class="cls-9" d="M218.44,33.33,213.53,30a8.21,8.21,0,0,0,.77-.67l4.9,3.33a6,6,0,0,1-.76.67"/><path class="cls-9" d="M219.2,32.66l-4.9-3.33a8.09,8.09,0,0,0,.67-.76l4.91,3.33a7.08,7.08,0,0,1-.68.76"/><path class="cls-9" d="M219.88,31.9,215,28.57a8,8,0,0,0,.61-.91L220.49,31a9.62,9.62,0,0,1-.61.91"/><path class="cls-9" d="M220.49,31l-4.91-3.33a8.55,8.55,0,0,0,.57-1.18l4.91,3.33a8,8,0,0,1-.57,1.18"/><path class="cls-9" d="M221.06,29.81l-4.91-3.33a8.58,8.58,0,0,0,.57-3.1,8.08,8.08,0,0,0-3.45-6.79l4.91,3.33a8.11,8.11,0,0,1,3.45,6.8,8.74,8.74,0,0,1-.57,3.09"/></g></g></g><g class="cls-6"><g class="cls-50"><path class="cls-8" d="M209.22,35.06l-4.9-3.34a1.91,1.91,0,0,1,.68.13l4.91,3.33a1.76,1.76,0,0,0-.69-.12"/><path class="cls-8" d="M209.91,35.18,205,31.85a1.91,1.91,0,0,1,.32.16l4.9,3.33-.31-.16"/><path class="cls-8" d="M210.22,35.34,205.32,32l.06,0,4.9,3.33-.06,0"/></g></g><g class="cls-6"><g class="cls-51"><path class="cls-8" d="M218.32,15.4l-4.91-3.33a1.87,1.87,0,0,1,.69.13l4.9,3.33a1.79,1.79,0,0,0-.68-.13"/><path class="cls-8" d="M219,15.53l-4.9-3.33.18.08c.26.14.52.28.77.44L220,16.06c-.25-.16-.51-.31-.77-.45l-.19-.08"/><path class="cls-8" d="M220,16.06l-4.91-3.34.34.23,4.91,3.33-.34-.22"/></g></g><g class="cls-6"><g class="cls-52"><g class="cls-6"><path class="cls-9" d="M217.24,19.36,212.34,16a2.24,2.24,0,0,1-.77-2.63l4.91,3.33a2.22,2.22,0,0,0,.76,2.63"/><path class="cls-9" d="M216.48,16.73l-4.91-3.33.05-.12.1-.2,4.91,3.34a1.24,1.24,0,0,0-.1.2.37.37,0,0,0-.05.11"/><path class="cls-9" d="M216.63,16.42l-4.91-3.34.16-.24,4.91,3.34a1.43,1.43,0,0,0-.16.24"/><path class="cls-9" d="M216.79,16.18l-4.91-3.34.18-.2L217,16a1.8,1.8,0,0,0-.18.2"/><path class="cls-9" d="M217,16l-4.91-3.34.2-.17,4.91,3.33a1.12,1.12,0,0,0-.2.18"/><path class="cls-8" d="M217.17,15.8l-4.91-3.33a1.67,1.67,0,0,1,.24-.16l4.91,3.33-.24.16"/><path class="cls-8" d="M217.41,15.64l-4.91-3.33a2.41,2.41,0,0,1,.33-.15l4.9,3.34a1.83,1.83,0,0,0-.32.14"/><path class="cls-8" d="M217.73,15.5l-4.9-3.34a1.9,1.9,0,0,1,.58-.09l4.91,3.33a2,2,0,0,0-.59.1"/></g></g></g><path class="cls-10" d="M218.32,15.4a2,2,0,0,1,.87.21,11.75,11.75,0,0,1,4.64,4.46,13.06,13.06,0,0,1,1.78,6.63c0,6.81-5.16,12.38-11.47,12.41a2.05,2.05,0,0,1-2-2.13,2.09,2.09,0,0,1,2-2.16c4.12,0,7.48-3.65,7.49-8.1a8,8,0,0,0-4.19-7.24,2.21,2.21,0,0,1-.91-2.86A2,2,0,0,1,218.32,15.4Z"/><polygon class="cls-8" points="197.11 35.12 192.21 31.78 204.31 31.72 209.22 35.05 197.11 35.12"/><path class="cls-10" d="M209.22,35.06a2.05,2.05,0,0,1,2,2.13,2.09,2.09,0,0,1-2,2.15l-12.11.06a2.05,2.05,0,0,1-2-2.13,2.09,2.09,0,0,1,2-2.15Z"/><g class="cls-6"><g class="cls-53"><g class="cls-6"><path class="cls-9" d="M196,39.08l-4.9-3.34a2.17,2.17,0,0,1-.93-1.81,2.49,2.49,0,0,1,.16-.82l4.9,3.34a2.44,2.44,0,0,0-.15.82,2.2,2.2,0,0,0,.92,1.81"/><path class="cls-9" d="M195.27,36.45l-4.9-3.34a1.77,1.77,0,0,1,.15-.31l4.9,3.33-.15.32"/><path class="cls-9" d="M195.42,36.13l-4.9-3.33a1.43,1.43,0,0,1,.16-.24l4.91,3.33-.17.24"/><path class="cls-9" d="M195.59,35.89l-4.91-3.33.18-.21,4.91,3.34a1.12,1.12,0,0,0-.18.2"/><path class="cls-9" d="M195.77,35.69l-4.91-3.34.2-.17L196,35.51a1.71,1.71,0,0,0-.2.18"/><path class="cls-8" d="M196,35.51l-4.91-3.33.24-.16,4.91,3.33a2,2,0,0,0-.24.16"/><path class="cls-8" d="M196.21,35.35,191.3,32a1.36,1.36,0,0,1,.33-.14l4.9,3.33-.32.14"/><path class="cls-8" d="M196.53,35.21l-4.9-3.33a1.81,1.81,0,0,1,.58-.1l4.9,3.34a1.9,1.9,0,0,0-.58.09"/></g></g></g><g class="cls-6"><g class="cls-54"><g class="cls-6"><path class="cls-8" d="M197.9,26.86,193,23.53l.29.19,4.91,3.34-.29-.2"/><path class="cls-8" d="M198.19,27.06l-4.91-3.34a10,10,0,0,0,1.53.77l4.91,3.34a9.13,9.13,0,0,1-1.53-.77"/><path class="cls-8" d="M199.72,27.83l-4.91-3.34a9,9,0,0,0,6.17.15l4.9,3.34a9,9,0,0,1-6.16-.15"/><path class="cls-8" d="M205.88,28,201,24.64a9,9,0,0,0,1.56-.69l4.91,3.34a10,10,0,0,1-1.57.69"/><path class="cls-8" d="M207.45,27.29,202.54,24a9,9,0,0,0,1.17-.76l4.91,3.33a12.4,12.4,0,0,1-1.17.77"/><path class="cls-9" d="M208.62,26.52l-4.91-3.33a11.38,11.38,0,0,0,1-.86l4.9,3.33a9.78,9.78,0,0,1-1,.86"/><path class="cls-9" d="M209.59,25.66l-4.9-3.33a11.59,11.59,0,0,0,.86-1l4.91,3.33a9.08,9.08,0,0,1-.87,1"/><path class="cls-9" d="M210.46,24.68l-4.91-3.33a10.45,10.45,0,0,0,.61-.87l.12-.18,4.91,3.34a.83.83,0,0,0-.13.18c-.19.3-.39.59-.6.86"/><path class="cls-9" d="M211.19,23.64l-4.91-3.34.18-.2,4.91,3.34a.86.86,0,0,0-.18.2"/><path class="cls-9" d="M211.37,23.44l-4.91-3.34.2-.17,4.91,3.33a1.12,1.12,0,0,0-.2.18"/><path class="cls-8" d="M211.57,23.26l-4.91-3.33.24-.16,4.91,3.33a1.43,1.43,0,0,0-.24.16"/><path class="cls-8" d="M211.81,23.1l-4.91-3.33a1.3,1.3,0,0,1,.32-.14L212.13,23l-.32.14"/><path class="cls-8" d="M212.13,23l-4.91-3.33a1.7,1.7,0,0,1,.59-.1,1.79,1.79,0,0,1,.68.13L213.4,23a1.8,1.8,0,0,0-.69-.13,2,2,0,0,0-.58.1"/><path class="cls-8" d="M213.4,23l-4.91-3.33a1.37,1.37,0,0,1,.32.16l4.9,3.33L213.4,23"/><path class="cls-8" d="M213.71,23.15l-4.9-3.33.06,0,4.9,3.33-.06,0"/></g></g></g><g class="cls-6"><g class="cls-55"><path class="cls-9" d="M211.6,12.68l-4.91-3.33a2.14,2.14,0,0,1-.57-.59,9.9,9.9,0,0,0-2.77-2.88l4.9,3.34A9.9,9.9,0,0,1,211,12.09a2.14,2.14,0,0,0,.57.59"/></g></g><g class="cls-6"><g class="cls-56"><path class="cls-8" d="M188.21,33.71l-4.91-3.34.23.15,4.9,3.34-.22-.15"/><path class="cls-8" d="M188.43,33.86l-4.9-3.34a6.55,6.55,0,0,0,1.18.6l4.91,3.33a7.32,7.32,0,0,1-1.19-.59"/><path class="cls-8" d="M189.62,34.45l-4.91-3.33a6.73,6.73,0,0,0,2.58.48,1.91,1.91,0,0,1,.68.13l4.91,3.33a1.76,1.76,0,0,0-.69-.12,6.91,6.91,0,0,1-2.57-.49"/><path class="cls-8" d="M192.88,35.06,188,31.73a1.91,1.91,0,0,1,.32.16l4.9,3.33-.31-.16"/><path class="cls-8" d="M193.19,35.22l-4.9-3.33.06,0,4.9,3.33-.06,0"/></g></g><g class="cls-6"><g class="cls-57"><path class="cls-8" d="M203.09,3.33,198.19,0a12.61,12.61,0,0,1,4.72.89l4.91,3.33a13,13,0,0,0-4.73-.89"/><path class="cls-8" d="M207.82,4.22,202.91.89A13.25,13.25,0,0,1,205.07,2L210,5.32a13.72,13.72,0,0,0-2.16-1.1"/><path class="cls-8" d="M210,5.32,205.07,2l.41.27,4.91,3.33L210,5.32"/></g></g><g class="cls-6"><g class="cls-58"><path class="cls-9" d="M195.77,30.5l-4.91-3.33A14.84,14.84,0,0,1,184.58,16l4.91,3.34a14.79,14.79,0,0,0,6.28,11.12"/></g></g><g class="cls-6"><g class="cls-59"><g class="cls-6"><path class="cls-9" d="M189.79,14.82l-4.9-3.34a15.25,15.25,0,0,1,.69-2.33l4.91,3.33a15.07,15.07,0,0,0-.7,2.34"/><path class="cls-9" d="M190.49,12.48l-4.91-3.33a14.93,14.93,0,0,1,1-2.17l4.9,3.34a15.88,15.88,0,0,0-1,2.16"/><path class="cls-9" d="M191.52,10.32,186.62,7a14.41,14.41,0,0,1,1.11-1.65l4.91,3.33a14.61,14.61,0,0,0-1.12,1.66"/><path class="cls-9" d="M192.64,8.66l-4.91-3.33A13.69,13.69,0,0,1,189,3.93l4.91,3.34a13.57,13.57,0,0,0-1.23,1.39"/><path class="cls-9" d="M193.87,7.27,189,3.93a14.51,14.51,0,0,1,1.39-1.21l4.91,3.33a13.34,13.34,0,0,0-1.39,1.22"/><path class="cls-8" d="M195.26,6.05l-4.91-3.33A14.7,14.7,0,0,1,192,1.63L196.91,5a13.76,13.76,0,0,0-1.65,1.08"/><path class="cls-8" d="M196.91,5,192,1.63a12.78,12.78,0,0,1,2.21-1L199.12,4a13.26,13.26,0,0,0-2.21,1"/><path class="cls-8" d="M199.12,4,194.21.66a12.82,12.82,0,0,1,4-.66l4.9,3.33a12.81,12.81,0,0,0-4,.66"/></g></g></g><g class="cls-6"><g class="cls-60"><g class="cls-6"><path class="cls-9" d="M186.08,37.34,181.17,34a12.52,12.52,0,0,1-5.32-10.42,13.37,13.37,0,0,1,.88-4.72l4.91,3.33a13,13,0,0,0-.88,4.73,12.49,12.49,0,0,0,5.32,10.41"/><path class="cls-9" d="M181.64,22.2l-4.91-3.33a12.16,12.16,0,0,1,.87-1.82l4.91,3.34a11.6,11.6,0,0,0-.87,1.81"/><path class="cls-9" d="M182.51,20.39l-4.91-3.34a12.94,12.94,0,0,1,.93-1.39L183.44,19a12,12,0,0,0-.93,1.39"/><path class="cls-9" d="M183.44,19l-4.91-3.34a12.79,12.79,0,0,1,1-1.17l4.9,3.34a12.85,12.85,0,0,0-1,1.17"/><path class="cls-9" d="M184.47,17.83l-4.9-3.34a12.57,12.57,0,0,1,1.17-1l4.9,3.34a11.24,11.24,0,0,0-1.17,1"/><path class="cls-8" d="M185.64,16.81l-4.9-3.34a10.72,10.72,0,0,1,1.39-.91l4.9,3.33a12.37,12.37,0,0,0-1.39.92"/><path class="cls-8" d="M187,15.89l-4.9-3.33a11.32,11.32,0,0,1,1.85-.82l4.9,3.34a11.28,11.28,0,0,0-1.85.81"/><path class="cls-8" d="M188.88,15.08,184,11.74a9.46,9.46,0,0,1,.91-.26l4.9,3.34a9.46,9.46,0,0,0-.91.26"/></g></g></g><path class="cls-10" d="M203.09,3.33a13.29,13.29,0,0,1,11.22,6.31,2.25,2.25,0,0,1-.52,3,1.84,1.84,0,0,1-1.12.39,2,2,0,0,1-1.64-.92,9.43,9.43,0,0,0-7.94-4.47c-5.33,0-9.67,4.72-9.68,10.46s4.31,10.4,9.64,10.37a9.56,9.56,0,0,0,8-4.63,2,2,0,0,1,1.65-1,1.85,1.85,0,0,1,1.11.37,2.23,2.23,0,0,1,.53,3A13.48,13.48,0,0,1,203,32.74c-7.12,0-13-5.85-13.55-13.36a8.15,8.15,0,0,0-4.76,7.53c0,4.45,3.34,8.05,7.46,8a2.05,2.05,0,0,1,2,2.13,2.09,2.09,0,0,1-2,2.15c-6.31,0-11.43-5.48-11.42-12.29a12.28,12.28,0,0,1,9-12.11C191.19,8.28,196.63,3.37,203.09,3.33Z"/></g></g><g id="_1-5-文字2019" data-name="1-5-文字2019"><g class="cls-6"><polygon class="cls-9" points="405.29 137.03 386.51 124.27 386.54 110.36 405.31 123.12 405.29 137.03"/><polygon class="cls-9" points="405.34 109.22 386.56 96.45 386.59 82.56 405.36 95.32 405.34 109.22"/><polygon class="cls-9" points="353.7 151.2 334.92 138.44 334.95 124.53 353.73 137.29 353.7 151.2"/><polygon class="cls-8" points="353.73 137.29 334.95 124.53 386.51 124.27 405.29 137.03 353.73 137.29"/><polygon class="cls-8" points="366.67 109.41 347.89 96.65 386.56 96.45 405.34 109.22 366.67 109.41"/><polygon class="cls-9" points="353.75 123.38 334.98 110.62 335.05 68.91 353.83 81.67 353.75 123.38"/><polygon class="cls-8" points="353.83 81.67 335.05 68.91 399.5 68.58 418.28 81.34 353.83 81.67"/><path class="cls-10" d="M353.83,81.67l64.45-.33-.13,69.54-64.45.32,0-13.91,51.56-.26,0-13.91-51.56.26Zm51.51,27.55,0-13.9-38.67.19,0,13.9,38.67-.19"/></g><g class="cls-6"><polygon class="cls-8" points="325.2 137.05 306.42 124.29 319.31 124.22 338.09 136.98 325.2 137.05"/><polygon class="cls-9" points="299.4 151.08 280.63 138.32 280.65 124.41 299.43 137.17 299.4 151.08"/><polygon class="cls-8" points="299.43 137.17 280.65 124.41 293.54 124.35 312.32 137.11 299.43 137.17"/><polygon class="cls-9" points="312.32 137.11 293.54 124.35 293.62 82.63 312.4 95.39 312.32 137.11"/><polygon class="cls-10" points="325.3 81.42 325.2 137.05 338.09 136.98 338.06 150.89 299.4 151.08 299.43 137.17 312.32 137.11 312.4 95.39 299.51 95.46 299.53 81.55 325.3 81.42"/><polygon class="cls-9" points="299.51 95.46 280.73 82.7 280.76 68.79 299.53 81.55 299.51 95.46"/><polygon class="cls-8" points="299.53 81.55 280.76 68.79 306.53 68.66 325.3 81.42 299.53 81.55"/></g><g class="cls-6"><polygon class="cls-9" points="270.9 136.93 252.13 124.17 252.18 96.35 270.96 109.11 270.9 136.93"/><polygon class="cls-8" points="245.13 137.06 226.35 124.3 252.13 124.17 270.9 136.93 245.13 137.06"/><polygon class="cls-9" points="258.07 109.18 239.29 96.42 239.31 82.52 258.09 95.28 258.07 109.18"/><polygon class="cls-8" points="245.18 109.24 226.4 96.48 239.29 96.42 258.07 109.18 245.18 109.24"/><polygon class="cls-9" points="245.15 123.15 226.37 110.39 226.4 96.48 245.18 109.24 245.15 123.15"/><polygon class="cls-10" points="258.07 109.18 258.04 123.08 245.15 123.15 245.18 109.24 258.07 109.18"/><polygon class="cls-8" points="232.26 123.21 213.48 110.45 226.37 110.39 245.15 123.15 232.26 123.21"/><path class="cls-10" d="M219.45,81.56l64.45-.32-.13,69.53-64.45.33Zm51.45,55.37.06-27.82-12.89.07,0-13.9-25.78.13-.05,27.8,12.89-.06,0,13.91,25.78-.13"/><polygon class="cls-9" points="219.32 151.09 200.54 138.34 200.67 68.8 219.45 81.56 219.32 151.09"/><polygon class="cls-8" points="219.45 81.56 200.67 68.8 265.12 68.48 283.9 81.24 219.45 81.56"/></g><g class="cls-6"><polygon class="cls-9" points="190.88 109.12 172.1 96.36 172.13 82.47 190.91 95.23 190.88 109.12"/><polygon class="cls-8" points="190.93 81.32 172.16 68.56 185.05 68.49 203.82 81.25 190.93 81.32"/><polygon class="cls-8" points="152.16 137.13 133.38 124.37 184.94 124.12 203.72 136.88 152.16 137.13"/><polygon class="cls-8" points="152.21 109.32 133.43 96.56 172.1 96.36 190.88 109.12 152.21 109.32"/><polygon class="cls-9" points="139.24 151.11 120.47 138.35 120.52 110.53 139.29 123.29 139.24 151.11"/><polygon class="cls-8" points="139.32 109.38 120.54 96.62 133.43 96.56 152.21 109.32 139.32 109.38"/><polygon class="cls-9" points="139.29 123.29 120.52 110.53 120.54 96.62 139.32 109.38 139.29 123.29"/><polygon class="cls-10" points="203.82 81.25 203.8 95.16 203.77 109.06 203.75 122.97 190.85 123.03 152.19 123.22 152.16 137.13 203.72 136.88 203.69 150.79 139.24 151.11 139.29 123.29 139.32 109.38 152.21 109.32 190.88 109.12 190.91 95.23 139.35 95.48 139.37 81.57 190.93 81.32 203.82 81.25"/><polygon class="cls-9" points="139.35 95.48 120.57 82.72 120.59 68.81 139.37 81.57 139.35 95.48"/><polygon class="cls-8" points="139.37 81.57 120.59 68.81 172.16 68.56 190.93 81.32 139.37 81.57"/></g></g><g id="_1-4-合聚变" data-name="1-4-合聚变"><g class="cls-6"><polygon class="cls-10" points="324.26 321.29 324.23 337.71 309.01 337.78 309.04 321.37 324.26 321.29"/><polygon class="cls-9" points="309.01 337.78 286.84 322.71 286.87 306.3 309.04 321.37 309.01 337.78"/><polygon class="cls-8" points="309.04 321.37 286.87 306.3 302.09 306.22 324.26 321.29 309.04 321.37"/></g><g class="cls-6"><polygon class="cls-8" points="324.2 354.13 302.03 339.06 317.25 338.99 339.43 354.06 324.2 354.13"/><polygon class="cls-10" points="339.43 354.06 339.4 370.48 324.17 370.56 308.95 370.63 308.98 354.21 324.2 354.13 339.43 354.06"/><polygon class="cls-9" points="308.95 370.63 286.77 355.56 286.81 339.14 308.98 354.21 308.95 370.63"/><polygon class="cls-8" points="308.98 354.21 286.81 339.14 302.03 339.06 324.2 354.13 308.98 354.21"/></g><g class="cls-6"><polygon class="cls-10" points="309.01 337.78 308.98 354.21 293.76 354.28 293.79 337.86 309.01 337.78"/><polygon class="cls-9" points="293.76 354.28 271.58 339.21 271.61 322.79 293.79 337.86 293.76 354.28"/><polygon class="cls-8" points="293.79 337.86 271.61 322.79 286.84 322.71 309.01 337.78 293.79 337.86"/></g><g class="cls-6"><polygon class="cls-9" points="263.28 370.86 241.11 355.79 241.14 339.37 263.31 354.44 263.28 370.86"/><polygon class="cls-8" points="278.6 321.52 256.42 306.45 271.64 306.38 293.82 321.44 278.6 321.52"/><polygon class="cls-9" points="263.34 338.01 241.17 322.94 241.2 306.53 263.37 321.6 263.34 338.01"/><polygon class="cls-8" points="248.12 338.08 225.94 323.01 241.17 322.94 263.34 338.01 248.12 338.08"/><polygon class="cls-9" points="248.09 354.51 225.91 339.44 225.94 323.01 248.12 338.08 248.09 354.51"/><polygon class="cls-9" points="263.37 321.6 241.2 306.53 241.23 290.1 263.4 305.17 263.37 321.6"/><polygon class="cls-9" points="232.93 321.75 210.75 306.68 210.78 290.25 232.96 305.32 232.93 321.75"/><polygon class="cls-10" points="248.09 354.51 248.06 370.94 232.84 371.01 217.63 371.09 202.4 371.16 202.43 354.74 217.66 354.66 232.87 354.59 248.09 354.51"/><polygon class="cls-8" points="225.91 339.44 210.69 339.52 195.48 339.59 180.26 339.67 202.43 354.74 217.66 354.66 232.87 354.59 248.09 354.51 225.91 339.44"/><polygon class="cls-9" points="202.4 371.16 180.23 356.1 180.26 339.67 202.43 354.74 202.4 371.16"/><polygon class="cls-10" points="232.93 321.75 232.9 338.16 217.69 338.24 202.46 338.31 202.5 321.9 217.72 321.82 232.93 321.75"/><polygon class="cls-9" points="202.46 338.31 180.29 323.24 180.32 306.83 202.5 321.9 202.46 338.31"/><polygon class="cls-8" points="210.75 306.68 195.54 306.75 180.32 306.83 202.5 321.9 217.72 321.82 232.93 321.75 210.75 306.68"/><polygon class="cls-10" points="278.66 288.67 278.63 305.1 278.6 321.52 293.82 321.44 293.79 337.86 278.57 337.93 278.54 354.36 278.5 370.79 263.28 370.86 263.31 354.44 248.09 354.51 248.12 338.08 263.34 338.01 263.37 321.6 263.4 305.17 248.18 305.25 248.15 321.67 232.93 321.75 232.96 305.32 217.75 305.4 202.53 305.47 202.56 289.05 217.78 288.97 232.99 288.89 248.21 288.82 263.43 288.74 278.66 288.67"/><polygon class="cls-8" points="256.48 273.6 241.26 273.68 226.04 273.75 210.81 273.83 195.6 273.9 180.38 273.98 202.56 289.05 217.78 288.97 232.99 288.89 248.21 288.82 263.43 288.74 278.66 288.67 256.48 273.6"/><polygon class="cls-9" points="202.53 305.47 180.35 290.4 180.38 273.98 202.56 289.05 202.53 305.47"/></g><g class="cls-6"><polygon class="cls-10" points="339.61 255.51 339.58 271.94 324.36 272.01 324.39 255.59 339.61 255.51"/><polygon class="cls-8" points="324.39 255.59 302.21 240.52 317.43 240.44 339.61 255.51 324.39 255.59"/><polygon class="cls-9" points="324.36 272.01 302.18 256.95 302.21 240.52 324.39 255.59 324.36 272.01"/><polygon class="cls-10" points="324.36 272.01 324.32 288.44 309.1 288.52 293.88 288.59 278.66 288.67 278.69 272.24 293.91 272.17 309.13 272.09 324.36 272.01"/><polygon class="cls-8" points="302.18 256.95 286.96 257.02 271.74 257.1 256.51 257.17 278.69 272.24 293.91 272.17 309.13 272.09 324.36 272.01 302.18 256.95"/><polygon class="cls-9" points="278.66 288.67 256.48 273.6 256.51 257.17 278.69 272.24 278.66 288.67"/></g><g class="cls-6"><polygon class="cls-9" points="324.45 222.74 302.27 207.67 302.3 191.24 324.48 206.31 324.45 222.74"/><polygon class="cls-9" points="309.19 239.24 287.02 224.17 287.05 207.74 309.23 222.81 309.19 239.24"/><polygon class="cls-8" points="309.23 222.81 287.05 207.74 302.27 207.67 324.45 222.74 309.23 222.81"/><polygon class="cls-8" points="293.97 239.31 271.8 224.24 287.02 224.17 309.19 239.24 293.97 239.31"/><polygon class="cls-9" points="293.94 255.74 271.77 240.67 271.8 224.24 293.97 239.31 293.94 255.74"/><polygon class="cls-10" points="324.45 222.74 324.42 239.16 324.39 255.59 309.16 255.66 293.94 255.74 293.97 239.31 309.19 239.24 309.23 222.81 324.45 222.74"/><polygon class="cls-9" points="294 222.89 271.83 207.82 271.86 191.39 294.03 206.46 294 222.89"/><polygon class="cls-9" points="294.03 206.46 271.86 191.39 271.89 174.98 294.06 190.05 294.03 206.46"/><polygon class="cls-8" points="317.56 174.75 302.33 174.83 287.11 174.9 271.89 174.98 294.06 190.05 309.29 189.97 324.51 189.9 339.73 189.82 317.56 174.75"/><polygon class="cls-10" points="339.73 189.82 339.7 206.23 339.67 222.66 324.45 222.74 324.48 206.31 309.25 206.39 309.23 222.81 294 222.89 294.03 206.46 294.06 190.05 309.29 189.97 324.51 189.9 339.73 189.82"/></g><g class="cls-6"><polygon class="cls-8" points="278.78 222.96 256.6 207.89 271.83 207.82 294 222.89 278.78 222.96"/><polygon class="cls-9" points="248.24 272.39 226.07 257.32 226.1 240.9 248.27 255.97 248.24 272.39"/><polygon class="cls-8" points="263.56 223.04 241.38 207.97 256.6 207.89 278.78 222.96 263.56 223.04"/><polygon class="cls-9" points="248.3 239.54 226.13 224.47 226.14 216.26 248.32 231.33 248.3 239.54"/><polygon class="cls-8" points="233.08 239.62 210.91 224.55 226.13 224.47 248.3 239.54 233.08 239.62"/><polygon class="cls-9" points="248.35 214.9 226.17 199.83 226.19 191.62 248.36 206.69 248.35 214.9"/><polygon class="cls-8" points="233.13 214.98 210.95 199.91 226.17 199.83 248.35 214.9 233.13 214.98"/><polygon class="cls-9" points="202.62 256.19 180.44 241.13 180.47 224.7 202.65 239.77 202.62 256.19"/><polygon class="cls-8" points="202.65 239.77 180.47 224.7 195.69 224.62 217.87 239.69 202.65 239.77"/><polygon class="cls-9" points="195.76 191.77 195.73 208.2 195.69 224.62 217.87 239.69 217.9 223.27 217.93 206.84 195.76 191.77"/><path class="cls-10" d="M278.78,223l15.22-.07,0,16.42-15.22.08-15.22.08,0,16.42,0,16.43-15.22.07,0-16.42-15.22.07-15.21.08-15.22.07,0-16.42,15.22-.08,0-16.42,0-16.43-15.22.08,0-16.42,15.22-.07,15.21-.08,15.22-.07,15.23-.08,15.22-.08,0,16.42-15.22.07,0,16.43Zm-30.43-8.06v-8.21l-15.22.07V215l15.22-.08m0,24.64,0-8.21-15.22.07,0,8.22,15.22-.08"/><polygon class="cls-8" points="256.67 175.06 241.44 175.13 226.22 175.21 211 175.28 195.79 175.36 180.56 175.43 202.74 190.5 217.96 190.43 233.17 190.35 248.4 190.28 263.62 190.2 278.84 190.13 256.67 175.06"/><polygon class="cls-9" points="202.71 206.91 180.53 191.85 180.56 175.43 202.74 190.5 202.71 206.91"/></g><g class="cls-6"><polygon class="cls-10" points="493.69 304.4 493.66 320.83 478.45 320.9 478.48 304.48 493.69 304.4"/><polygon class="cls-9" points="478.45 320.9 456.27 305.83 456.3 289.41 478.48 304.48 478.45 320.9"/><polygon class="cls-8" points="478.48 304.48 456.3 289.41 471.51 289.33 493.69 304.4 478.48 304.48"/></g><g class="cls-6"><polygon class="cls-9" points="463.13 370.24 440.96 355.18 440.99 338.76 463.16 353.83 463.13 370.24"/><polygon class="cls-10" points="508.82 353.61 508.79 370.02 493.56 370.09 478.36 370.17 463.13 370.24 463.16 353.83 478.39 353.76 493.6 353.68 508.82 353.61"/><polygon class="cls-8" points="486.64 338.54 471.42 338.61 456.21 338.69 440.99 338.76 463.16 353.83 478.39 353.76 493.6 353.68 508.82 353.61 486.64 338.54"/><polygon class="cls-8" points="463.22 320.98 441.05 305.91 456.27 305.83 478.45 320.9 463.22 320.98"/><polygon class="cls-10" points="478.45 320.9 478.42 337.33 463.19 337.41 463.22 320.98 478.45 320.9"/><polygon class="cls-9" points="463.19 337.41 441.02 322.34 441.05 305.91 463.22 320.98 463.19 337.41"/><polygon class="cls-10" points="463.19 337.41 463.16 353.83 447.94 353.91 432.72 353.98 432.75 337.56 447.97 337.48 463.19 337.41"/><polygon class="cls-8" points="441.02 322.34 425.8 322.41 410.57 322.49 432.75 337.56 447.97 337.48 463.19 337.41 441.02 322.34"/><polygon class="cls-9" points="432.72 353.98 410.54 338.91 410.57 322.49 432.75 337.56 432.72 353.98"/></g><g class="cls-6"><polygon class="cls-10" points="432.78 321.13 432.75 337.56 417.52 337.63 417.56 321.21 432.78 321.13"/><polygon class="cls-9" points="417.52 337.63 395.35 322.56 395.38 306.14 417.56 321.21 417.52 337.63"/><polygon class="cls-8" points="417.56 321.21 395.38 306.14 410.6 306.06 432.78 321.13 417.56 321.21"/></g><g class="cls-6"><polygon class="cls-9" points="402.33 321.28 380.16 306.21 380.19 289.79 402.36 304.86 402.33 321.28"/><polygon class="cls-10" points="478.51 288.05 478.48 304.48 463.25 304.55 448.03 304.63 432.81 304.7 417.59 304.78 417.56 321.21 402.33 321.28 402.36 304.86 387.14 304.93 387.17 288.51 402.39 288.43 417.62 288.35 432.84 288.28 448.06 288.2 463.29 288.13 478.51 288.05"/><polygon class="cls-8" points="456.33 272.98 441.11 273.06 425.89 273.13 410.66 273.21 395.44 273.29 380.22 273.36 365 273.44 387.17 288.51 402.39 288.43 417.62 288.35 432.84 288.28 448.06 288.2 463.29 288.13 478.51 288.05 456.33 272.98"/><polygon class="cls-9" points="387.14 304.93 364.96 289.86 365 273.44 387.17 288.51 387.14 304.93"/></g><g class="cls-6"><polygon class="cls-10" points="432.72 353.98 432.69 370.4 417.46 370.47 402.24 370.55 387.02 370.62 371.8 370.7 371.83 354.29 387.05 354.21 402.27 354.13 417.49 354.06 432.72 353.98"/><polygon class="cls-9" points="371.8 370.7 349.62 355.63 349.65 339.22 371.83 354.29 371.8 370.7"/><polygon class="cls-8" points="410.54 338.91 395.32 338.99 380.1 339.07 364.87 339.14 349.65 339.22 371.83 354.29 387.05 354.21 402.27 354.13 417.49 354.06 432.72 353.98 410.54 338.91"/></g><g class="cls-6"><polygon class="cls-8" points="493.78 255.12 471.6 240.05 486.83 239.98 509 255.05 493.78 255.12"/><polygon class="cls-9" points="493.75 271.55 471.57 256.48 471.6 240.05 493.78 255.12 493.75 271.55"/><polygon class="cls-10" points="509 255.05 508.97 271.47 493.75 271.55 493.78 255.12 509 255.05"/><polygon class="cls-10" points="493.81 238.7 493.78 255.12 478.57 255.2 478.6 238.77 493.81 238.7"/><polygon class="cls-8" points="478.6 238.77 456.42 223.7 471.63 223.63 493.81 238.7 478.6 238.77"/><polygon class="cls-9" points="478.57 255.2 456.39 240.13 456.42 223.7 478.6 238.77 478.57 255.2"/><polygon class="cls-9" points="448.09 271.78 425.92 256.71 425.95 240.28 448.12 255.35 448.09 271.78"/><polygon class="cls-9" points="448.12 255.35 425.95 240.28 425.98 223.85 448.15 238.92 448.12 255.35"/><polygon class="cls-9" points="448.15 238.92 425.98 223.85 426.01 207.44 448.18 222.51 448.15 238.92"/><polygon class="cls-8" points="486.92 190.71 471.69 190.79 456.49 190.87 441.26 190.94 426.04 191.02 448.21 206.09 463.44 206.01 478.66 205.93 493.87 205.86 509.09 205.78 486.92 190.71"/><polygon class="cls-9" points="417.65 271.93 395.47 256.86 395.5 240.43 417.68 255.5 417.65 271.93"/><polygon class="cls-9" points="417.68 255.5 395.5 240.43 395.53 224.01 417.71 239.08 417.68 255.5"/><polygon class="cls-9" points="417.71 239.08 395.53 224.01 395.56 207.59 417.74 222.66 417.71 239.08"/><polygon class="cls-8" points="433.02 189.74 410.85 174.67 426.07 174.59 448.25 189.66 433.02 189.74"/><polygon class="cls-9" points="432.99 206.16 410.82 191.09 410.85 174.67 433.02 189.74 432.99 206.16"/><polygon class="cls-10" points="402.49 239.15 402.45 255.58 387.23 255.65 387.26 239.23 402.49 239.15"/><polygon class="cls-8" points="387.26 239.23 365.09 224.16 380.31 224.08 402.49 239.15 387.26 239.23"/><polygon class="cls-9" points="387.23 255.65 365.06 240.58 365.09 224.16 387.26 239.23 387.23 255.65"/><polygon class="cls-8" points="372.01 255.73 349.83 240.66 365.06 240.58 387.23 255.65 372.01 255.73"/><polygon class="cls-9" points="371.98 272.15 349.8 257.09 349.83 240.66 372.01 255.73 371.98 272.15"/><polygon class="cls-10" points="387.23 255.65 387.2 272.08 371.98 272.15 372.01 255.73 387.23 255.65"/><polygon class="cls-10" points="448.25 189.66 448.21 206.09 463.44 206.01 478.66 205.93 493.87 205.86 509.09 205.78 509.06 222.21 493.84 222.28 478.63 222.36 463.41 222.44 463.38 238.85 463.35 255.28 463.31 271.7 448.09 271.78 448.12 255.35 448.15 238.92 448.18 222.51 432.96 222.59 432.93 239 432.9 255.43 432.87 271.85 417.65 271.93 417.68 255.5 417.71 239.08 417.74 222.66 402.52 222.74 387.29 222.81 372.07 222.89 372.1 206.46 387.32 206.39 402.55 206.31 417.77 206.24 432.99 206.16 433.02 189.74 448.25 189.66"/><polygon class="cls-9" points="372.07 222.89 349.89 207.82 349.93 191.4 372.1 206.46 372.07 222.89"/><polygon class="cls-8" points="410.82 191.09 395.59 191.17 380.37 191.24 365.15 191.32 349.93 191.4 372.1 206.46 387.32 206.39 402.55 206.31 417.77 206.24 432.99 206.16 410.82 191.09"/></g><g class="cls-6"><polygon class="cls-9" points="141.51 370.78 119.33 355.71 119.36 339.3 141.54 354.37 141.51 370.78"/><polygon class="cls-9" points="141.54 354.37 119.36 339.3 119.39 322.87 141.57 337.94 141.54 354.37"/><polygon class="cls-9" points="141.57 337.94 119.39 322.87 119.42 306.45 141.6 321.52 141.57 337.94"/><polygon class="cls-10" points="156.85 305.01 156.82 321.44 156.79 337.87 156.76 354.29 156.73 370.71 141.51 370.78 141.54 354.37 141.57 337.94 141.6 321.52 141.63 305.09 156.85 305.01"/><polygon class="cls-9" points="141.6 321.52 119.42 306.45 119.45 290.02 141.63 305.09 141.6 321.52"/><polygon class="cls-8" points="141.63 305.09 119.45 290.02 134.68 289.95 156.85 305.01 141.63 305.09"/></g><g class="cls-6"><polygon class="cls-8" points="126.44 288.74 104.26 273.67 119.48 273.6 141.66 288.67 126.44 288.74"/><polygon class="cls-8" points="111.22 288.82 89.04 273.75 104.26 273.67 126.44 288.74 111.22 288.82"/><polygon class="cls-8" points="95.99 288.89 73.82 273.82 89.04 273.75 111.22 288.82 95.99 288.89"/><polygon class="cls-8" points="80.78 288.97 58.61 273.9 73.82 273.82 95.99 288.89 80.78 288.97"/><polygon class="cls-10" points="141.66 288.67 141.63 305.09 126.41 305.17 111.18 305.24 95.96 305.32 80.75 305.39 65.53 305.47 65.56 289.04 80.78 288.97 95.99 288.89 111.22 288.82 126.44 288.74 141.66 288.67"/><polygon class="cls-9" points="65.53 305.47 43.35 290.4 43.38 273.97 65.56 289.04 65.53 305.47"/><polygon class="cls-8" points="65.56 289.04 43.38 273.97 58.61 273.9 80.78 288.97 65.56 289.04"/></g><g class="cls-6"><polygon class="cls-8" points="126.5 255.89 104.32 240.82 119.55 240.74 141.72 255.81 126.5 255.89"/><polygon class="cls-8" points="111.28 255.96 89.1 240.89 104.32 240.82 126.5 255.89 111.28 255.96"/><polygon class="cls-8" points="96.05 256.04 73.88 240.97 89.1 240.89 111.28 255.96 96.05 256.04"/><polygon class="cls-8" points="80.84 256.12 58.67 241.05 73.88 240.97 96.05 256.04 80.84 256.12"/><polygon class="cls-10" points="141.72 255.81 141.69 272.24 126.47 272.31 111.25 272.39 96.02 272.47 80.81 272.54 65.59 272.62 65.62 256.19 80.84 256.12 96.05 256.04 111.28 255.96 126.5 255.89 141.72 255.81"/><polygon class="cls-9" points="65.59 272.62 43.41 257.55 43.45 241.12 65.62 256.19 65.59 272.62"/><polygon class="cls-8" points="65.62 256.19 43.45 241.12 58.67 241.05 80.84 256.12 65.62 256.19"/></g><g class="cls-6"><polygon class="cls-10" points="80.9 223.28 80.87 239.69 65.65 239.76 65.68 223.35 80.9 223.28"/><polygon class="cls-9" points="65.65 239.76 43.48 224.69 43.51 208.28 65.68 223.35 65.65 239.76"/><polygon class="cls-8" points="65.68 223.35 43.51 208.28 58.73 208.21 80.9 223.28 65.68 223.35"/></g><g class="cls-6"><polygon class="cls-8" points="156.97 239.31 134.8 224.24 150.02 224.16 172.2 239.24 156.97 239.31"/><polygon class="cls-10" points="172.2 239.24 172.17 255.66 156.94 255.74 141.72 255.81 141.75 239.39 156.97 239.31 172.2 239.24"/><polygon class="cls-9" points="141.72 255.81 119.55 240.74 119.58 224.32 141.75 239.39 141.72 255.81"/><polygon class="cls-8" points="141.75 239.39 119.58 224.32 134.8 224.24 156.97 239.31 141.75 239.39"/></g><g class="cls-6"><polygon class="cls-10" points="141.78 222.97 141.75 239.39 126.53 239.46 126.56 223.05 141.78 222.97"/><polygon class="cls-9" points="126.53 239.46 104.35 224.39 104.38 207.98 126.56 223.05 126.53 239.46"/><polygon class="cls-8" points="126.56 223.05 104.38 207.98 119.61 207.9 141.78 222.97 126.56 223.05"/><polygon class="cls-10" points="126.59 206.62 126.56 223.05 111.34 223.13 111.37 206.7 126.59 206.62"/><polygon class="cls-9" points="111.34 223.13 89.16 208.06 89.19 191.63 111.37 206.7 111.34 223.13"/><polygon class="cls-8" points="111.37 206.7 89.19 191.63 104.42 191.55 126.59 206.62 111.37 206.7"/></g><g class="cls-6"><polygon class="cls-10" points="96.14 206.78 96.11 223.2 80.9 223.28 80.94 206.85 96.14 206.78"/><polygon class="cls-9" points="80.9 223.28 58.73 208.21 58.76 191.78 80.94 206.85 80.9 223.28"/><polygon class="cls-8" points="80.94 206.85 58.76 191.78 73.97 191.71 96.14 206.78 80.94 206.85"/></g><g class="cls-6"><polygon class="cls-10" points="111.4 190.27 111.37 206.7 96.14 206.78 96.17 190.35 111.4 190.27"/><polygon class="cls-9" points="96.14 206.78 73.97 191.71 74 175.28 96.17 190.35 96.14 206.78"/><polygon class="cls-8" points="96.17 190.35 74 175.28 89.22 175.2 111.4 190.27 96.17 190.35"/></g><g class="cls-6"><polygon class="cls-8" points="50.43 239.84 28.25 224.77 43.48 224.69 65.65 239.76 50.43 239.84"/><polygon class="cls-10" points="65.65 239.76 65.62 256.19 50.4 256.27 35.17 256.34 35.2 239.92 50.43 239.84 65.65 239.76"/><polygon class="cls-9" points="35.17 256.34 13 241.27 13.03 224.85 35.2 239.92 35.17 256.34"/><polygon class="cls-8" points="35.2 239.92 13.03 224.85 28.25 224.77 50.43 239.84 35.2 239.92"/></g><g class="cls-6"><polygon class="cls-8" points="126.35 338.02 104.17 322.95 119.39 322.87 141.57 337.94 126.35 338.02"/><polygon class="cls-8" points="111.12 338.1 88.95 323.03 104.17 322.95 126.35 338.02 111.12 338.1"/><polygon class="cls-8" points="95.9 338.17 73.72 323.1 88.95 323.03 111.12 338.1 95.9 338.17"/><polygon class="cls-8" points="80.69 338.25 58.52 323.18 73.72 323.1 95.9 338.17 80.69 338.25"/><polygon class="cls-10" points="141.57 337.94 141.54 354.37 126.31 354.45 111.09 354.52 95.87 354.6 80.66 354.67 65.44 354.75 65.47 338.32 80.69 338.25 95.9 338.17 111.12 338.1 126.35 338.02 141.57 337.94"/><polygon class="cls-9" points="65.44 354.75 43.26 339.68 43.29 323.25 65.47 338.32 65.44 354.75"/><polygon class="cls-8" points="65.47 338.32 43.29 323.25 58.52 323.18 80.69 338.25 65.47 338.32"/><polygon class="cls-9" points="28.13 290.48 28.1 306.9 28.07 323.33 28.04 339.75 28.01 356.17 50.18 371.24 50.21 354.82 50.24 338.4 50.27 321.97 50.31 305.55 28.13 290.48"/><polygon class="cls-8" points="50.31 305.55 28.13 290.48 43.35 290.4 65.53 305.47 50.31 305.55"/><polygon class="cls-10" points="65.53 305.47 65.5 321.9 65.47 338.32 65.44 354.75 65.41 371.16 50.18 371.24 50.21 354.82 50.24 338.4 50.27 321.97 50.31 305.55 65.53 305.47"/></g></g><g id="_1-3-邀你领略年会不可错过的瞬间" data-name="1-3-邀你领略年会不可错过的瞬间"><polygon class="cls-8" points="486.19 406.4 476.36 395.47 57.83 396.27 68.09 407.19 486.19 406.4"/><polygon class="cls-9" points="67.19 477.48 57.83 467.51 57.83 396.27 67.32 406.36 67.19 477.48"/><polygon class="cls-8" points="67.27 475.92 57.79 465.35 34.52 465.35 44.1 475.94 67.27 475.92"/><polygon class="cls-9" points="44.1 500.46 34.74 490.49 34.52 465.35 44.1 475.94 44.1 500.46"/><rect class="cls-61" x="67.93" y="407.03" width="23.19" height="23.19"/><path class="cls-61" d="M91.28,430.38H67.77V406.87H91.28Zm-23.18-.33H91V407.19H68.1Z"/><rect class="cls-61" x="67.93" y="430.22" width="23.19" height="23.19"/><path class="cls-61" d="M91.28,453.57H67.77V430.05H91.28Zm-23.18-.33H91V430.38H68.1Z"/><rect class="cls-61" x="67.93" y="453.4" width="23.19" height="23.19"/><path class="cls-61" d="M91.28,476.75H67.77V453.24H91.28Zm-23.18-.32H91V453.57H68.1Z"/><rect class="cls-61" x="44.75" y="476.59" width="23.19" height="23.19"/><path class="cls-61" d="M68.1,499.94H44.58V476.43H68.1Zm-23.19-.33H67.77V476.75H44.91Z"/><rect class="cls-61" x="91.12" y="453.4" width="23.19" height="23.19"/><path class="cls-61" d="M114.47,476.75H91V453.24h23.52Zm-23.19-.32h22.86V453.57H91.28Z"/><rect class="cls-61" x="91.12" y="430.22" width="23.19" height="23.19" transform="translate(-339.1 544.52) rotate(-90)"/><path class="cls-61" d="M114.47,453.57H91V430.05h23.52Zm-23.19-.33h22.86V430.38H91.28Z"/><rect class="cls-61" x="114.31" y="453.4" width="23.19" height="23.19" transform="translate(-339.1 590.9) rotate(-90)"/><path class="cls-61" d="M137.66,476.75H114.14V453.24h23.52Zm-23.19-.32h22.86V453.57H114.47Z"/><rect class="cls-61" x="114.31" y="430.22" width="23.19" height="23.19" transform="translate(-315.91 567.71) rotate(-90)"/><path class="cls-61" d="M137.66,453.57H114.14V430.05h23.52Zm-23.19-.33h22.86V430.38H114.47Z"/><rect class="cls-61" x="114.31" y="407.03" width="23.19" height="23.19" transform="translate(-292.73 544.52) rotate(-90)"/><path class="cls-61" d="M137.66,430.38H114.14V406.87h23.52Zm-23.19-.33h22.86V407.19H114.47Z"/><rect class="cls-62" x="91.12" y="407.03" width="23.19" height="23.19"/><path class="cls-61" d="M114.47,430.38H91V406.87h23.52Zm-23.19-.33h22.86V407.19H91.28Z"/><rect class="cls-61" x="137.49" y="407.03" width="23.19" height="23.19"/><path class="cls-61" d="M160.84,430.38H137.33V406.87h23.51Zm-23.18-.33h22.85V407.19H137.66Z"/><rect class="cls-61" x="137.49" y="430.22" width="23.19" height="23.19"/><path class="cls-61" d="M160.84,453.57H137.33V430.05h23.51Zm-23.18-.33h22.85V430.38H137.66Z"/><rect class="cls-61" x="137.49" y="453.4" width="23.19" height="23.19"/><path class="cls-61" d="M160.84,476.75H137.33V453.24h23.51Zm-23.18-.32h22.85V453.57H137.66Z"/><rect class="cls-61" x="207.05" y="407.03" width="23.19" height="23.19"/><path class="cls-61" d="M230.4,430.38H206.89V406.87H230.4Zm-23.18-.33h22.85V407.19H207.22Z"/><rect class="cls-61" x="207.05" y="430.22" width="23.19" height="23.19"/><path class="cls-61" d="M230.4,453.57H206.89V430.05H230.4Zm-23.18-.33h22.85V430.38H207.22Z"/><rect class="cls-61" x="207.05" y="453.4" width="23.19" height="23.19"/><path class="cls-61" d="M230.4,476.75H206.89V453.24H230.4Zm-23.18-.32h22.85V453.57H207.22Z"/><rect class="cls-61" x="183.86" y="407.03" width="23.19" height="23.19"/><path class="cls-61" d="M207.22,430.38H183.7V406.87h23.52ZM184,430.05h22.86V407.19H184Z"/><rect class="cls-61" x="183.86" y="430.22" width="23.19" height="23.19"/><path class="cls-61" d="M207.22,453.57H183.7V430.05h23.52ZM184,453.24h22.86V430.38H184Z"/><rect class="cls-61" x="160.68" y="407.03" width="23.19" height="23.19"/><path class="cls-61" d="M184,430.38H160.51V406.87H184Zm-23.19-.33H183.7V407.19H160.84Z"/><rect class="cls-61" x="160.68" y="430.22" width="23.19" height="23.19"/><path class="cls-61" d="M184,453.57H160.51V430.05H184Zm-23.19-.33H183.7V430.38H160.84Z"/><rect class="cls-61" x="160.68" y="453.4" width="23.19" height="23.19"/><path class="cls-61" d="M184,476.75H160.51V453.24H184Zm-23.19-.32H183.7V453.57H160.84Z"/><rect class="cls-61" x="183.86" y="453.4" width="23.19" height="23.19"/><path class="cls-61" d="M207.22,476.75H183.7V453.24h23.52ZM184,476.43h22.86V453.57H184Z"/><rect class="cls-61" x="230.48" y="407.03" width="23.19" height="23.19"/><path class="cls-61" d="M253.83,430.38H230.32V406.87h23.51Zm-23.18-.33h22.86V407.19H230.65Z"/><rect class="cls-61" x="230.48" y="430.22" width="23.19" height="23.19"/><path class="cls-61" d="M253.83,453.57H230.32V430.05h23.51Zm-23.18-.33h22.86V430.38H230.65Z"/><rect class="cls-63" x="230.48" y="453.4" width="23.19" height="23.19"/><path class="cls-63" d="M253.83,476.75H230.32V453.24h23.51Zm-23.18-.32h22.86V453.57H230.65Z"/><rect class="cls-61" x="253.67" y="453.4" width="23.19" height="23.19"/><path class="cls-61" d="M277,476.75H253.51V453.24H277Zm-23.19-.32h22.86V453.57H253.83Z"/><rect class="cls-61" x="253.67" y="430.22" width="23.19" height="23.19" transform="translate(-176.55 707.07) rotate(-90)"/><path class="cls-61" d="M277,453.57H253.51V430.05H277Zm-23.19-.33h22.86V430.38H253.83Z"/><rect class="cls-61" x="276.86" y="453.4" width="23.19" height="23.19" transform="translate(-176.55 753.45) rotate(-90)"/><path class="cls-61" d="M300.21,476.75H276.69V453.24h23.52ZM277,476.43h22.86V453.57H277Z"/><rect class="cls-61" x="276.86" y="430.22" width="23.19" height="23.19" transform="translate(-153.36 730.26) rotate(-90)"/><path class="cls-61" d="M300.21,453.57H276.69V430.05h23.52ZM277,453.24h22.86V430.38H277Z"/><rect class="cls-61" x="276.86" y="407.03" width="23.19" height="23.19" transform="translate(-130.17 707.07) rotate(-90)"/><path class="cls-61" d="M300.21,430.38H276.69V406.87h23.52ZM277,430.05h22.86V407.19H277Z"/><rect class="cls-61" x="253.67" y="407.03" width="23.19" height="23.19"/><path class="cls-61" d="M277,430.38H253.51V406.87H277Zm-23.19-.33h22.86V407.19H253.83Z"/><rect class="cls-61" x="300.04" y="407.03" width="23.19" height="23.19"/><path class="cls-61" d="M323.39,430.38H299.88V406.87h23.51Zm-23.18-.33h22.86V407.19H300.21Z"/><rect class="cls-61" x="300.04" y="430.22" width="23.19" height="23.19"/><path class="cls-61" d="M323.39,453.57H299.88V430.05h23.51Zm-23.18-.33h22.86V430.38H300.21Z"/><rect class="cls-61" x="300.04" y="453.4" width="23.19" height="23.19"/><path class="cls-61" d="M323.39,476.75H299.88V453.24h23.51Zm-23.18-.32h22.86V453.57H300.21Z"/><rect class="cls-64" x="369.6" y="407.03" width="23.19" height="23.19"/><path class="cls-64" d="M393,430.38H369.44V406.87H393Zm-23.18-.33h22.86V407.19H369.77Z"/><rect class="cls-61" x="369.6" y="430.22" width="23.19" height="23.19"/><path class="cls-61" d="M393,453.57H369.44V430.05H393Zm-23.18-.33h22.86V430.38H369.77Z"/><rect class="cls-61" x="369.6" y="453.4" width="23.19" height="23.19"/><path class="cls-61" d="M393,476.75H369.44V453.24H393Zm-23.18-.32h22.86V453.57H369.77Z"/><rect class="cls-61" x="346.42" y="407.03" width="23.19" height="23.19"/><path class="cls-61" d="M369.77,430.38H346.25V406.87h23.52Zm-23.19-.33h22.86V407.19H346.58Z"/><rect class="cls-61" x="346.42" y="430.22" width="23.19" height="23.19"/><path class="cls-61" d="M369.77,453.57H346.25V430.05h23.52Zm-23.19-.33h22.86V430.38H346.58Z"/><rect class="cls-61" x="323.23" y="407.03" width="23.19" height="23.19"/><path class="cls-61" d="M346.58,430.38H323.07V406.87h23.51Zm-23.19-.33h22.86V407.19H323.39Z"/><rect class="cls-61" x="323.23" y="430.22" width="23.19" height="23.19"/><path class="cls-61" d="M346.58,453.57H323.07V430.05h23.51Zm-23.19-.33h22.86V430.38H323.39Z"/><rect class="cls-61" x="323.23" y="453.4" width="23.19" height="23.19"/><path class="cls-61" d="M346.58,476.75H323.07V453.24h23.51Zm-23.19-.32h22.86V453.57H323.39Z"/><rect class="cls-61" x="346.42" y="453.4" width="23.19" height="23.19"/><path class="cls-61" d="M369.77,476.75H346.25V453.24h23.52Zm-23.19-.32h22.86V453.57H346.58Z"/><rect class="cls-61" x="392.79" y="407.03" width="23.19" height="23.19"/><path class="cls-61" d="M416.14,430.38H392.63V406.87h23.51ZM393,430.05h22.86V407.19H393Z"/><rect class="cls-61" x="392.79" y="430.22" width="23.19" height="23.19"/><path class="cls-61" d="M416.14,453.57H392.63V430.05h23.51ZM393,453.24h22.86V430.38H393Z"/><rect class="cls-61" x="392.79" y="453.4" width="23.19" height="23.19"/><path class="cls-61" d="M416.14,476.75H392.63V453.24h23.51ZM393,476.43h22.86V453.57H393Z"/><rect class="cls-61" x="415.98" y="453.4" width="23.19" height="23.19"/><path class="cls-61" d="M439.33,476.75H415.81V453.24h23.52Zm-23.19-.32H439V453.57H416.14Z"/><rect class="cls-61" x="415.98" y="430.22" width="23.19" height="23.19" transform="translate(-14.24 869.38) rotate(-90)"/><path class="cls-61" d="M439.33,453.57H415.81V430.05h23.52Zm-23.19-.33H439V430.38H416.14Z"/><rect class="cls-61" x="439.16" y="453.4" width="23.19" height="23.19" transform="translate(-14.24 915.75) rotate(-90)"/><path class="cls-61" d="M462.51,476.75H439V453.24h23.51Zm-23.18-.32h22.86V453.57H439.33Z"/><rect class="cls-61" x="439.16" y="430.22" width="23.19" height="23.19" transform="translate(8.95 892.57) rotate(-90)"/><path class="cls-61" d="M462.51,453.57H439V430.05h23.51Zm-23.18-.33h22.86V430.38H439.33Z"/><rect class="cls-61" x="439.16" y="407.03" width="23.19" height="23.19" transform="translate(32.13 869.38) rotate(-90)"/><path class="cls-61" d="M462.51,430.38H439V406.87h23.51Zm-23.18-.33h22.86V407.19H439.33Z"/><rect class="cls-61" x="415.98" y="407.03" width="23.19" height="23.19"/><path class="cls-61" d="M439.33,430.38H415.81V406.87h23.52Zm-23.19-.33H439V407.19H416.14Z"/><rect class="cls-61" x="462.35" y="407.03" width="23.19" height="23.19"/><path class="cls-61" d="M485.7,430.38H462.19V406.87H485.7Zm-23.19-.33h22.86V407.19H462.51Z"/><rect class="cls-61" x="462.35" y="430.22" width="23.19" height="23.19"/><path class="cls-61" d="M485.7,453.57H462.19V430.05H485.7Zm-23.19-.33h22.86V430.38H462.51Z"/><rect class="cls-61" x="462.35" y="453.4" width="23.19" height="23.19"/><path class="cls-61" d="M485.7,476.75H462.19V453.24H485.7Zm-23.19-.32h22.86V453.57H462.51Z"/><text class="cls-65" transform="translate(81.73 452.61)">邀你领略年会不可错过的瞬间</text></g></g></g></g></svg>