<svg xmlns="http://www.w3.org/2000/svg" xmlns:xlink="http://www.w3.org/1999/xlink" viewBox="0 0 1658.67 840.38"><defs><style>.cls-1{fill:none;}.cls-2{clip-path:url(#clip-path);}.cls-3{fill:#696260;}.cls-4{clip-path:url(#clip-path-2);}.cls-5{fill:#f4bd00;}.cls-6{fill:#00a8b5;}.cls-7{fill:#f4d9d3;}.cls-8{fill:#e86321;}.cls-9{fill:#55562e;}.cls-10{fill:#c9bd27;}.cls-11{fill:#152b33;}.cls-12{fill:#793837;}.cls-13{fill:#9ca93b;}.cls-14{fill:#fff;}.cls-15{fill:#a3ad77;}.cls-16{fill:#164657;}.cls-17{fill:#00abb9;}.cls-18{fill:#ff6336;}.cls-19{fill:#e5f7a5;}.cls-20{fill:#a83240;}.cls-21{fill:#fe5f5c;}.cls-22{fill:#2a5969;}.cls-23{fill:#fe5b00;}.cls-24{fill:#1a4a61;}.cls-25{fill:#fe8800;}.cls-26{fill:#003870;}.cls-27{fill:#0058a2;}.cls-28{fill:#c98727;}.cls-29{fill:#ac9e9a;}.cls-30{fill:#5b362f;}.cls-31{fill:#ffa039;stroke:#f2d5d1;stroke-miterlimit:10;stroke-width:5px;}</style><clipPath id="clip-path"><rect class="cls-1" x="173.15" width="1552.44" height="840.38"/></clipPath><clipPath id="clip-path-2"><polygon class="cls-1" points="1474.75 525.21 172.62 525.21 172.62 840.38 1658.67 840.38 1474.75 525.21"/></clipPath></defs><title>1-2-BG+路面</title><g id="图层_2" data-name="图层 2"><g id="中间层"><g id="_1-2-BG_路面" data-name="1-2-BG+路面"><g class="cls-2"><g id="_1-1-背景_路面" data-name="1-1-背景+路面"><g id="_1-1-地面" data-name="1-1-地面"><polygon class="cls-3" points="1511.08 525.21 172.62 525.21 172.62 840.38 1658.67 840.38 1511.08 525.21"/><g class="cls-4"><path class="cls-5" d="M481.17,685.06c0,2.15-1.09,3.9-2.42,3.9H427.06c-1.33,0-2.42-1.75-2.42-3.9h0c0-2.16,1.09-3.91,2.42-3.91h51.69c1.33,0,2.42,1.75,2.42,3.91Z"/><path class="cls-5" d="M597.85,685.06c0,2.15-1.09,3.9-2.42,3.9H543.74c-1.33,0-2.42-1.75-2.42-3.9h0c0-2.16,1.09-3.91,2.42-3.91h51.69c1.33,0,2.42,1.75,2.42,3.91Z"/><path class="cls-5" d="M714.53,685.06c0,2.15-1.09,3.9-2.42,3.9H660.42c-1.33,0-2.42-1.75-2.42-3.9h0c0-2.16,1.09-3.91,2.42-3.91h51.69c1.33,0,2.42,1.75,2.42,3.91Z"/><path class="cls-5" d="M831.21,685.06c0,2.15-1.09,3.9-2.42,3.9H777.1c-1.33,0-2.42-1.75-2.42-3.9h0c0-2.16,1.09-3.91,2.42-3.91h51.69c1.33,0,2.42,1.75,2.42,3.91Z"/><path class="cls-5" d="M947.89,685.06c0,2.15-1.09,3.9-2.42,3.9H893.78c-1.34,0-2.42-1.75-2.42-3.9h0c0-2.16,1.08-3.91,2.42-3.91h51.69c1.33,0,2.42,1.75,2.42,3.91Z"/><path class="cls-5" d="M1064.56,685.06c0,2.15-1.08,3.9-2.41,3.9h-51.69c-1.34,0-2.42-1.75-2.42-3.9h0c0-2.16,1.08-3.91,2.42-3.91h51.69c1.33,0,2.41,1.75,2.41,3.91Z"/><path class="cls-5" d="M1181.24,685.06c0,2.15-1.08,3.9-2.42,3.9h-51.68c-1.34,0-2.42-1.75-2.42-3.9h0c0-2.16,1.08-3.91,2.42-3.91h51.68c1.34,0,2.42,1.75,2.42,3.91Z"/><path class="cls-5" d="M1297.92,685.06c0,2.15-1.08,3.9-2.41,3.9h-51.7c-1.33,0-2.41-1.75-2.41-3.9h0c0-2.16,1.08-3.91,2.41-3.91h51.7c1.33,0,2.41,1.75,2.41,3.91Z"/><path class="cls-5" d="M1414.6,685.06c0,2.15-1.08,3.9-2.42,3.9h-51.69c-1.33,0-2.41-1.75-2.41-3.9h0c0-2.16,1.08-3.91,2.41-3.91h51.69c1.34,0,2.42,1.75,2.42,3.91Z"/><path class="cls-5" d="M1531.28,685.06c0,2.15-1.08,3.9-2.42,3.9h-51.69c-1.33,0-2.42-1.75-2.42-3.9h0c0-2.16,1.09-3.91,2.42-3.91h51.69c1.34,0,2.42,1.75,2.42,3.91Z"/><path class="cls-5" d="M148.66,685.06c0,2.15-1.08,3.9-2.42,3.9H94.55c-1.33,0-2.41-1.75-2.41-3.9h0c0-2.16,1.08-3.91,2.41-3.91h51.69c1.34,0,2.42,1.75,2.42,3.91Z"/><path class="cls-5" d="M265.34,685.06c0,2.15-1.08,3.9-2.42,3.9H211.23c-1.33,0-2.41-1.75-2.41-3.9h0c0-2.16,1.08-3.91,2.41-3.91h51.69c1.34,0,2.42,1.75,2.42,3.91Z"/><path class="cls-5" d="M382,685.06c0,2.15-1.09,3.9-2.42,3.9H327.91c-1.33,0-2.42-1.75-2.42-3.9h0c0-2.16,1.09-3.91,2.42-3.91H379.6c1.33,0,2.42,1.75,2.42,3.91Z"/></g></g><g id="_1-2-BG" data-name="1-2-BG"><path class="cls-6" d="M212.32,344.94V271.49H159.57V222.66H105.09v86H47.48v92H0V526.39H307.73V344.94Zm32.39,136.67H218.4V450.05h26.31Zm0-41.19H218.4V408.85h26.31Zm0-41.19H218.4V367.66h26.31Zm38,82.38H256.41V450.05h26.31Zm0-41.19H256.41V408.85h26.31Zm0-41.19H256.41V367.66h26.31Z"/><path class="cls-7" d="M1159.65,61.44a16.73,16.73,0,0,0-2.75.23c0-.08,0-.15,0-.23,0-13.35-9.15-24.18-20.43-24.18a17.76,17.76,0,0,0-8.89,2.41c-3.69-10-12.1-17-21.91-17-12.48,0-22.71,11.33-23.79,25.78a19,19,0,0,0-2.94-.23c-12.77,0-23.12,12.25-23.12,27.37v9.76h124C1179.84,72.15,1170.8,61.44,1159.65,61.44Z"/><path class="cls-8" d="M1406.54,296.78V209.93h-52.75V152.2h-54.48V254H1241.7V362.67h-47.48V511.32H1502V296.78Zm32.39,161.6h-26.31V421.06h26.31Zm0-48.7h-26.31V372.35h26.31Zm0-48.71h-26.31V323.65h26.31Zm38,97.41h-26.32V421.06h26.32Zm0-48.7h-26.32V372.35h26.32Zm0-48.71h-26.32V323.65h26.32Z"/><path class="cls-8" d="M1098.6,57.73h-52.75V0H991.37V101.75H933.76V210.47H886.28V499.38H1194V144.58H1098.6Zm44.09,113.71H1169v37.33h-26.31Zm0,48.71H1169v37.32h-26.31Zm0,48.7H1169v37.33h-26.31Zm-38-97.41H1131v37.33h-26.31Zm0,48.71H1131v37.32h-26.31Zm0,48.7H1131v37.33h-26.31Z"/><rect class="cls-9" x="738.92" y="323.71" width="9.75" height="66.42"/><polygon class="cls-9" points="714.07 308.06 741.74 366.43 741.74 354.42 727.91 323.7 714.07 308.06"/><path class="cls-10" d="M707.52,293.08a44.75,44.75,0,0,0,8.85,27.19c6.26,8.19,15.31,13.33,25.37,13.33,18.9,0,34.22-18.14,34.22-40.52s-15.32-40.51-34.22-40.51S707.52,270.71,707.52,293.08Z"/><rect class="cls-9" x="1225.41" y="430.75" width="9.75" height="66.42"/><polygon class="cls-9" points="1200.56 415.1 1228.23 473.47 1228.23 461.46 1214.39 430.75 1200.56 415.1"/><path class="cls-10" d="M1194,400.13a44.75,44.75,0,0,0,8.85,27.18c6.26,8.19,15.31,13.33,25.37,13.33,18.9,0,34.21-18.14,34.21-40.51s-15.31-40.52-34.21-40.52S1194,377.75,1194,400.13Z"/><path class="cls-8" d="M632.38,202V138.17H593.6V95.74h-40v74.79H511.21v79.92h-34.9V312.8H390V225.94h-48.4V527.33H485.39v-140H702.51V202ZM536.07,185.3h11v22.9h-11ZM422.38,474.39H396.07V437.07h26.31Zm0-48.7H396.07V388.37h26.31Zm0-48.71H396.07V339.66h26.31Zm38,97.41H434.07V437.07h26.32Zm0-48.7H434.07V388.37h26.32Zm0-48.71H434.07V339.66h26.32Zm35.71-59.1H485.39V312.8h-.29V295h11Zm0-32.54h-11V262.43h11Zm16.24,32.54h-11V295h11Zm0-32.54h-11V262.43h11Zm18.49-44.6h-11v-22.9h11Zm0-32.54h-11V185.3h11Zm5.24,9.64h11v22.9h-11Zm19.74,138.09h-11V333h11Zm0-32.54h-11v-22.9h11Zm16.24,32.54h-11V333h11Zm0-32.54h-11v-22.9h11Zm18.49-44.6h-11v-22.9h11Zm0-32.54h-11v-22.9h11Zm16.24,32.54h-11v-22.9h11Zm0-32.54h-11v-22.9h11Zm49.41,74.55H636.85V293.36h19.34Zm0-35.8H636.85V257.56h19.34Zm0-35.81H636.85V221.76h19.34Zm27.94,71.61H664.78V293.36h19.35Zm0-35.8H664.78V257.56h19.35Zm0-35.81H664.78V221.76h19.35Z"/><rect class="cls-11" x="1056.07" y="431" width="91.68" height="68.38"/><polygon class="cls-5" points="1042.48 431 1056.07 431 1147.74 431 1147.74 384.15 1057.3 384.15 1042.48 431"/><polygon class="cls-12" points="1176.99 330.13 1139.39 283.76 1103.87 330.13 1103.87 500.9 1176.99 500.9 1176.99 330.13"/><polygon class="cls-13" points="1197.52 339.73 1140.15 268.75 1082.3 339.73 1092.11 350.85 1139.91 293.66 1187.71 350.85 1197.52 339.73"/><rect class="cls-14" x="1114.32" y="344.61" width="21.94" height="31.06"/><rect class="cls-15" x="1117.98" y="349.78" width="14.62" height="20.71"/><rect class="cls-14" x="1144.09" y="344.61" width="21.93" height="31.06"/><rect class="cls-15" x="1147.74" y="349.78" width="14.62" height="20.71"/><rect class="cls-14" x="1114.32" y="380.88" width="21.94" height="31.06"/><rect class="cls-15" x="1117.98" y="386.06" width="14.62" height="20.71"/><rect class="cls-14" x="1144.09" y="380.88" width="21.93" height="31.06"/><rect class="cls-15" x="1147.74" y="386.06" width="14.62" height="20.71"/><rect class="cls-14" x="1114.32" y="417.16" width="21.94" height="31.06"/><rect class="cls-15" x="1117.98" y="422.34" width="14.62" height="20.7"/><rect class="cls-14" x="1130.93" y="453.1" width="17.54" height="44.9"/><rect class="cls-15" x="1134.58" y="457.03" width="10.24" height="39.74"/><polygon class="cls-14" points="1146.16 465.19 1146.16 463.57 1140.43 463.57 1140.43 455.36 1138.67 455.36 1138.67 463.57 1132.6 463.57 1132.6 465.19 1138.67 465.19 1138.67 470.39 1132.6 470.39 1132.6 472.01 1138.67 472.01 1138.67 477.2 1132.6 477.2 1132.6 478.83 1138.67 478.83 1138.67 484.01 1132.6 484.01 1132.6 485.64 1138.67 485.64 1138.67 490.83 1132.6 490.83 1132.6 492.45 1138.67 492.45 1138.67 496.57 1140.43 496.57 1140.43 492.45 1146.16 492.45 1146.16 490.83 1140.43 490.83 1140.43 485.64 1146.16 485.64 1146.16 484.01 1140.43 484.01 1140.43 478.83 1146.16 478.83 1146.16 477.2 1140.43 477.2 1140.43 472.01 1146.16 472.01 1146.16 470.39 1140.43 470.39 1140.43 465.19 1146.16 465.19"/><rect class="cls-14" x="1144.09" y="417.16" width="21.93" height="31.06"/><rect class="cls-15" x="1147.74" y="422.34" width="14.62" height="20.7"/><rect class="cls-9" x="1078.85" y="432" width="9.75" height="66.42"/><polygon class="cls-9" points="1113.45 416.36 1085.79 474.73 1085.79 462.72 1099.62 432 1113.45 416.36"/><path class="cls-10" d="M1120,401.38a44.78,44.78,0,0,1-8.85,27.19c-6.26,8.18-15.31,13.32-25.36,13.32-18.9,0-34.22-18.13-34.22-40.51s15.32-40.52,34.22-40.52S1120,379,1120,401.38Z"/><rect class="cls-11" x="925.65" y="345.58" width="91.68" height="68.39"/><polygon class="cls-5" points="912.07 345.58 925.65 345.58 1017.33 345.58 1017.33 298.74 926.89 298.74 912.07 345.58"/><polygon class="cls-16" points="1046.57 244.71 1008.97 198.34 973.46 244.71 973.46 415.48 1046.57 415.48 1046.57 244.71"/><polygon class="cls-13" points="1067.11 254.31 1009.74 183.33 951.88 254.31 961.69 265.43 1009.49 208.24 1057.3 265.43 1067.11 254.31"/><rect class="cls-14" x="983.91" y="259.19" width="21.93" height="31.06"/><rect class="cls-17" x="987.56" y="264.36" width="14.62" height="20.71"/><rect class="cls-14" x="1013.67" y="259.19" width="21.93" height="31.06"/><rect class="cls-17" x="1017.33" y="264.36" width="14.62" height="20.71"/><rect class="cls-14" x="983.91" y="295.46" width="21.93" height="31.06"/><rect class="cls-17" x="987.56" y="300.64" width="14.62" height="20.71"/><rect class="cls-14" x="1013.67" y="295.46" width="21.93" height="31.06"/><rect class="cls-17" x="1017.33" y="300.64" width="14.62" height="20.71"/><rect class="cls-14" x="983.91" y="331.74" width="21.93" height="31.06"/><rect class="cls-17" x="987.56" y="336.92" width="14.62" height="20.71"/><rect class="cls-14" x="1013.67" y="331.74" width="21.93" height="31.06"/><rect class="cls-17" x="1017.33" y="336.92" width="14.62" height="20.71"/><rect class="cls-5" x="1243.06" y="199.98" width="127.91" height="296.31"/><rect class="cls-18" x="1264.6" y="221.26" width="83.48" height="14.55"/><rect class="cls-18" x="1264.6" y="247.31" width="83.48" height="14.55"/><rect class="cls-18" x="1264.6" y="273.36" width="83.48" height="14.55"/><rect class="cls-18" x="1264.6" y="299.4" width="83.48" height="14.55"/><rect class="cls-18" x="1264.6" y="325.45" width="83.48" height="14.55"/><rect class="cls-18" x="1264.6" y="351.5" width="83.48" height="14.55"/><rect class="cls-18" x="1264.6" y="377.55" width="83.48" height="14.55"/><rect class="cls-18" x="1264.6" y="403.59" width="83.48" height="14.55"/><rect class="cls-18" x="1264.6" y="429.65" width="83.48" height="14.55"/><rect class="cls-18" x="1264.6" y="455.69" width="83.48" height="14.55"/><rect class="cls-18" x="1264.6" y="481.74" width="83.48" height="14.55"/><rect class="cls-18" x="1248.38" y="221.26" width="7.7" height="66.65"/><rect class="cls-18" x="1248.38" y="325.45" width="7.7" height="66.65"/><rect class="cls-18" x="1355.19" y="221.26" width="7.71" height="66.65"/><rect class="cls-18" x="1355.19" y="325.45" width="7.71" height="66.65"/><rect class="cls-19" x="621.16" y="413.36" width="164.61" height="83.41"/><path class="cls-20" d="M720.75,497.16V452.7c0-6.45-4.42-11.69-9.88-11.69H691.12c-5.46,0-9.88,5.24-9.88,11.69v44.46"/><polygon class="cls-21" points="803.47 428.39 607.58 428.39 622.39 381.54 786.18 381.54 803.47 428.39"/><rect class="cls-1" x="697.7" y="381.54" width="11.52" height="46.84"/><polygon class="cls-1" points="803.47 428.39 799.76 418.35 799.76 428.39 803.47 428.39"/><rect class="cls-1" x="774.25" y="381.54" width="11.52" height="46.84"/><rect class="cls-1" x="723.22" y="381.54" width="11.52" height="46.84"/><polygon class="cls-1" points="621.16 428.39 632.68 428.39 632.68 381.54 622.39 381.54 621.16 385.44 621.16 428.39"/><rect class="cls-1" x="748.73" y="381.54" width="11.53" height="46.84"/><rect class="cls-1" x="672.19" y="381.54" width="11.52" height="46.84"/><rect class="cls-1" x="646.67" y="381.54" width="11.52" height="46.84"/><polygon class="cls-20" points="607.58 428.39 621.16 428.39 621.16 385.44 607.58 428.39"/><rect class="cls-20" x="632.68" y="381.54" width="13.99" height="46.84"/><rect class="cls-20" x="658.2" y="381.54" width="13.99" height="46.84"/><rect class="cls-20" x="683.71" y="381.54" width="13.99" height="46.84"/><rect class="cls-20" x="709.23" y="381.54" width="13.99" height="46.84"/><rect class="cls-20" x="734.74" y="381.54" width="13.99" height="46.84"/><rect class="cls-20" x="760.26" y="381.54" width="13.99" height="46.84"/><polygon class="cls-20" points="799.76 428.39 799.76 418.35 786.18 381.54 785.77 381.54 785.77 428.39 799.76 428.39"/><rect class="cls-22" x="774.25" y="194.7" width="143.26" height="302.46"/><rect class="cls-19" x="790.33" y="215.39" width="30.3" height="53.39"/><rect class="cls-19" x="830.73" y="215.39" width="30.3" height="53.39"/><rect class="cls-19" x="871.13" y="215.39" width="30.3" height="53.39"/><rect class="cls-19" x="790.33" y="279.12" width="30.3" height="53.39"/><rect class="cls-19" x="830.73" y="279.12" width="30.3" height="53.39"/><rect class="cls-19" x="871.13" y="279.12" width="30.3" height="53.39"/><rect class="cls-19" x="790.33" y="342.85" width="30.3" height="53.39"/><rect class="cls-19" x="830.73" y="342.85" width="30.3" height="53.39"/><rect class="cls-19" x="871.13" y="342.85" width="30.3" height="53.39"/><rect class="cls-19" x="790.33" y="406.59" width="30.3" height="53.39"/><rect class="cls-19" x="830.73" y="406.59" width="30.3" height="53.39"/><rect class="cls-19" x="871.13" y="406.59" width="30.3" height="53.39"/><rect class="cls-9" x="777.19" y="432" width="9.75" height="66.42"/><polygon class="cls-9" points="752.35 416.36 780.01 474.73 780.01 462.72 766.18 432 752.35 416.36"/><path class="cls-10" d="M745.79,401.38a44.72,44.72,0,0,0,8.86,27.19c6.26,8.18,15.3,13.32,25.36,13.32,18.9,0,34.22-18.13,34.22-40.51S798.91,360.86,780,360.86,745.79,379,745.79,401.38Z"/><polygon class="cls-23" points="956.71 413.3 881.77 413.3 881.77 427.63 887.71 427.63 887.71 497.43 949.29 497.43 949.29 427.63 956.71 427.63 956.71 413.3"/><rect class="cls-24" x="905.52" y="441.44" width="24.38" height="56.58"/><polygon class="cls-25" points="1058.06 357.94 934.15 357.94 934.15 381.65 943.97 381.65 943.97 497.05 1045.79 497.05 1045.79 381.65 1058.06 381.65 1058.06 357.94"/><rect class="cls-24" x="973.41" y="439.02" width="40.3" height="59"/><rect class="cls-24" x="953.03" y="387.96" width="13.86" height="21.08"/><rect class="cls-24" x="975.72" y="387.96" width="13.87" height="21.08"/><rect class="cls-24" x="998.42" y="387.96" width="13.87" height="21.08"/><rect class="cls-24" x="1021.11" y="387.96" width="13.86" height="21.08"/><rect class="cls-26" x="468.49" y="413.36" width="164.62" height="83.41"/><polygon class="cls-5" points="650.8 428.39 454.91 428.39 469.72 381.54 633.51 381.54 650.8 428.39"/><rect class="cls-1" x="545.04" y="381.54" width="11.52" height="46.84"/><polygon class="cls-1" points="650.8 428.39 647.09 418.35 647.09 428.39 650.8 428.39"/><rect class="cls-1" x="621.58" y="381.54" width="11.52" height="46.84"/><rect class="cls-1" x="570.55" y="381.54" width="11.52" height="46.84"/><polygon class="cls-1" points="468.49 428.39 480.01 428.39 480.01 381.54 469.72 381.54 468.49 385.44 468.49 428.39"/><rect class="cls-1" x="596.06" y="381.54" width="11.52" height="46.84"/><rect class="cls-1" x="519.52" y="381.54" width="11.53" height="46.84"/><rect class="cls-1" x="494.01" y="381.54" width="11.52" height="46.84"/><polygon class="cls-27" points="589.41 327.52 551.81 281.15 516.3 327.52 516.3 498.28 589.41 498.28 589.41 327.52"/><polygon class="cls-5" points="609.94 337.12 552.58 266.13 494.72 337.12 504.53 348.23 552.33 291.04 600.13 348.23 609.94 337.12"/><rect class="cls-14" x="526.74" y="341.99" width="21.93" height="31.06"/><rect class="cls-17" x="530.4" y="347.17" width="14.62" height="20.71"/><rect class="cls-14" x="556.51" y="341.99" width="21.93" height="31.06"/><rect class="cls-17" x="560.17" y="347.17" width="14.62" height="20.71"/><rect class="cls-14" x="526.74" y="378.27" width="21.93" height="31.06"/><rect class="cls-17" x="530.4" y="383.45" width="14.62" height="20.71"/><rect class="cls-14" x="556.51" y="378.27" width="21.93" height="31.06"/><rect class="cls-17" x="560.17" y="383.45" width="14.62" height="20.71"/><rect class="cls-14" x="526.74" y="414.55" width="21.93" height="31.06"/><rect class="cls-17" x="530.4" y="419.72" width="14.62" height="20.71"/><rect class="cls-14" x="556.51" y="414.55" width="21.93" height="31.06"/><rect class="cls-17" x="560.17" y="419.72" width="14.62" height="20.71"/><path class="cls-28" d="M1511.08,525.21h-1343V504.48s581.69-13.56,749.29-13.56c168.16,0,593.74,13.56,593.74,13.56Z"/><rect class="cls-29" x="172.3" y="517.11" width="1338.78" height="21.97"/><rect class="cls-30" x="191.45" y="402.47" width="3.27" height="149.96"/><circle class="cls-31" cx="192.45" cy="382.06" r="23.24"/><path class="cls-30" d="M176,376.56h4c2.68,0,4.62.85,4.62,3.21a2.91,2.91,0,0,1-1.87,2.82v.09a3,3,0,0,1,2.58,3.11c0,2.59-2.12,3.83-5,3.83H176Zm3.81,5.45c2,0,2.82-.75,2.82-2,0-1.37-.92-1.88-2.77-1.88h-1.81V382Zm.32,6c2,0,3.21-.72,3.21-2.32s-1.13-2.11-3.21-2.11h-2.08V388Z"/><path class="cls-30" d="M187.8,384v-7.45h2.06v7.59c0,3,1.17,3.91,2.8,3.91s2.86-1,2.86-3.91v-7.59h2V384c0,4.26-1.95,5.84-4.85,5.84S187.8,388.27,187.8,384Z"/><path class="cls-30" d="M199.76,387.93l1.21-1.42a5.08,5.08,0,0,0,3.48,1.55c1.58,0,2.47-.75,2.47-1.85s-.89-1.56-2.1-2.09l-1.81-.78a3.76,3.76,0,0,1-2.66-3.43c0-2.06,1.81-3.6,4.29-3.6a5.59,5.59,0,0,1,4,1.65l-1.08,1.31a4.2,4.2,0,0,0-2.88-1.17c-1.33,0-2.2.64-2.2,1.69s1.05,1.54,2.12,2l1.79.76c1.54.66,2.66,1.62,2.66,3.53,0,2.1-1.74,3.8-4.6,3.8A6.51,6.51,0,0,1,199.76,387.93Z"/></g></g></g></g></g></g></svg>