<svg xmlns="http://www.w3.org/2000/svg" viewBox="0 0 610.78 526.99"><defs><style>.cls-1{fill:#5a9e52;}.cls-2{fill:#94c234;}</style></defs><title>3-13-获胜的队伍装饰1</title><g id="图层_2" data-name="图层 2"><g id="中间层"><g id="_3-13-获胜的队伍装饰1" data-name="3-13-获胜的队伍装饰1"><path class="cls-1" d="M395.48,58.24s6.85,23.84,27.41,29.87l11.65-13S413.16,64.41,411.79,48Z"/><circle class="cls-2" cx="413.64" cy="69.75" r="5.96"/><path class="cls-2" d="M401.38,61.26A1.42,1.42,0,1,1,400,59.47,1.62,1.62,0,0,1,401.38,61.26Z"/><path class="cls-2" d="M422,82.65a1.41,1.41,0,1,1-1.25,2.43A1.41,1.41,0,1,1,422,82.65Z"/><path class="cls-2" d="M430.37,73.85a1.13,1.13,0,1,1-1,1.94,1.13,1.13,0,1,1,1-1.94Z"/><path class="cls-2" d="M411.52,54.13a1.14,1.14,0,1,1-2.2,0,1.14,1.14,0,1,1,2.2,0Z"/><path class="cls-1" d="M305.9.37s-24.53-3.73-38.59,12.42l7,16s18.64-14.95,34.15-9.33Z"/><path class="cls-2" d="M285.36,17.48a6,6,0,1,1,7.91-2.93A6,6,0,0,1,285.36,17.48Z"/><path class="cls-2" d="M300.7,4.47a1.61,1.61,0,0,1-1.05-2,1.62,1.62,0,0,1,2.19-.5,1.62,1.62,0,0,1,1.05,2A1.63,1.63,0,0,1,300.7,4.47Z"/><path class="cls-2" d="M272.64,14.28a1.62,1.62,0,0,1-2.24,0,1.62,1.62,0,0,1,.55-2.18,1.61,1.61,0,0,1,2.25,0A1.61,1.61,0,0,1,272.64,14.28Z"/><path class="cls-2" d="M277.14,25.55a1.29,1.29,0,0,1-1.79,0,1.47,1.47,0,0,1,2.23-1.75A1.29,1.29,0,0,1,277.14,25.55Z"/><path class="cls-2" d="M302.93,16.66a1.29,1.29,0,0,1-.83-1.59,1.47,1.47,0,0,1,2.59,1.19A1.3,1.3,0,0,1,302.93,16.66Z"/><path class="cls-1" d="M146.19,6.3S121.66,2.57,107.6,18.72l7,16s18.64-15,34.15-9.33Z"/><path class="cls-2" d="M125.66,23.41a6,6,0,1,1,7.9-2.93A6,6,0,0,1,125.66,23.41Z"/><path class="cls-2" d="M141,10.4a1.62,1.62,0,0,1-1.05-2,1.62,1.62,0,0,1,2.19-.5,1.61,1.61,0,0,1,1.05,2A1.63,1.63,0,0,1,141,10.4Z"/><path class="cls-2" d="M112.94,20.21a1.63,1.63,0,0,1-2.25,0,1.62,1.62,0,0,1,.55-2.18,1.61,1.61,0,0,1,2.25,0A1.62,1.62,0,0,1,112.94,20.21Z"/><path class="cls-2" d="M117.43,31.48a1.3,1.3,0,0,1-1.79,0,1.47,1.47,0,0,1,2.23-1.75A1.29,1.29,0,0,1,117.43,31.48Z"/><path class="cls-2" d="M143.23,22.59a1.3,1.3,0,0,1-.84-1.6,1.47,1.47,0,1,1,.84,1.6Z"/><path class="cls-1" d="M504.77,136.46s24.11,5.82,39.51-9.07l-5.56-16.55s-19.86,13.3-34.83,6.36Z"/><path class="cls-2" d="M526.69,121.18a6,6,0,1,1-8.13,2.24A6,6,0,0,1,526.69,121.18Z"/><path class="cls-2" d="M510.3,132.82a1.42,1.42,0,1,1-2.23.31A1.63,1.63,0,0,1,510.3,132.82Z"/><path class="cls-2" d="M539.09,125.46a1.42,1.42,0,1,1-.74,2.12A1.62,1.62,0,0,1,539.09,125.46Z"/><path class="cls-2" d="M535.58,113.84a1.13,1.13,0,1,1-.59,1.69A1.29,1.29,0,0,1,535.58,113.84Z"/><path class="cls-2" d="M509.12,120.49a1.13,1.13,0,1,1-1.78.25A1.29,1.29,0,0,1,509.12,120.49Z"/><path class="cls-1" d="M524.18,236.35s24.11-5.83,31-26.1l-12.51-12.2S531.09,219,514.6,219.62Z"/><circle class="cls-2" cx="536.45" cy="218.7" r="5.96"/><path class="cls-2" d="M527.44,230.59a1.42,1.42,0,1,1-1.84,1.3A1.63,1.63,0,0,1,527.44,230.59Z"/><path class="cls-2" d="M549.69,210.89a1.42,1.42,0,1,1,.31,2.23A1.62,1.62,0,0,1,549.69,210.89Z"/><path class="cls-2" d="M541.26,202.16a1.13,1.13,0,1,1,.25,1.77A1.28,1.28,0,0,1,541.26,202.16Z"/><path class="cls-2" d="M520.75,220.16a1.13,1.13,0,1,1-1.47,1A1.3,1.3,0,0,1,520.75,220.16Z"/><path class="cls-1" d="M448.54,260S434.35,239.67,413,240.61l-6.81,16.08s23.68,3.21,30.29,18.33Z"/><circle class="cls-2" cx="427.64" cy="255" r="5.96" transform="translate(10.28 526.49) rotate(-63.85)"/><path class="cls-2" d="M442,259.07a1.42,1.42,0,1,1,1.87,1.25A1.62,1.62,0,0,1,442,259.07Z"/><path class="cls-2" d="M415.55,245.5c-1-.15-1.67-.87-1.56-1.62a1.61,1.61,0,0,1,2-1.09c1,.14,1.67.86,1.56,1.61A1.61,1.61,0,0,1,415.55,245.5Z"/><path class="cls-2" d="M410.48,256.52c-.78-.11-1.33-.69-1.25-1.28a1.28,1.28,0,0,1,1.56-.87c.77.11,1.33.68,1.24,1.28A1.26,1.26,0,0,1,410.48,256.52Z"/><path class="cls-2" d="M434.7,269.09a1.13,1.13,0,1,1,1.49,1A1.29,1.29,0,0,1,434.7,269.09Z"/><path class="cls-1" d="M152.35,157.73s-14.19-20.35-35.59-19.41l-6.82,16.08s23.69,3.21,30.3,18.33Z"/><path class="cls-2" d="M125.81,154.63a6,6,0,1,1,7.56,3.72A6,6,0,0,1,125.81,154.63Z"/><path class="cls-2" d="M145.8,156.78a1.42,1.42,0,1,1,1.87,1.25A1.62,1.62,0,0,1,145.8,156.78Z"/><path class="cls-2" d="M119.36,143.21c-1-.15-1.67-.87-1.56-1.62a1.6,1.6,0,0,1,2-1.09c1,.14,1.67.86,1.56,1.61A1.62,1.62,0,0,1,119.36,143.21Z"/><path class="cls-2" d="M114.28,154.23c-.77-.11-1.33-.69-1.24-1.28a1.28,1.28,0,0,1,1.56-.87c.77.11,1.33.68,1.24,1.28A1.28,1.28,0,0,1,114.28,154.23Z"/><path class="cls-2" d="M138.5,166.8a1.14,1.14,0,1,1,1.5,1A1.3,1.3,0,0,1,138.5,166.8Z"/><path class="cls-1" d="M97.58,268.35s24.55-3.55,33.32-23.1L119.58,232s-13.49,19.73-30,18.85Z"/><path class="cls-2" d="M112.26,246a6,6,0,1,1-6.71,5.1A6,6,0,0,1,112.26,246Z"/><path class="cls-2" d="M101.37,262.92c1,.14,1.68.85,1.58,1.6a1.62,1.62,0,0,1-2,1.12c-1-.14-1.68-.85-1.58-1.6A1.62,1.62,0,0,1,101.37,262.92Z"/><path class="cls-2" d="M125.36,245.39a1.42,1.42,0,1,1,.1,2.24A1.63,1.63,0,0,1,125.36,245.39Z"/><path class="cls-2" d="M117.79,235.9a1.12,1.12,0,1,1,1.78,1.25,1.13,1.13,0,1,1-1.78-1.25Z"/><path class="cls-2" d="M95.69,251.91c.78.11,1.34.68,1.26,1.28a1.29,1.29,0,0,1-1.56.89c-.78-.11-1.35-.68-1.26-1.28A1.29,1.29,0,0,1,95.69,251.91Z"/><path class="cls-1" d="M17.38,175s24.55-3.55,33.31-23.1l-11.31-13.3s-13.49,19.72-30,18.85Z"/><path class="cls-2" d="M32.05,152.71a6,6,0,1,1-6.71,5.09A5.95,5.95,0,0,1,32.05,152.71Z"/><path class="cls-2" d="M21.16,169.61c1,.13,1.68.85,1.58,1.6a1.62,1.62,0,0,1-1.95,1.12c-1-.14-1.68-.85-1.58-1.6A1.63,1.63,0,0,1,21.16,169.61Z"/><path class="cls-2" d="M45.16,152.07a1.41,1.41,0,1,1,2.24,1.57,1.42,1.42,0,1,1-2.24-1.57Z"/><path class="cls-2" d="M37.58,142.59a1.13,1.13,0,1,1,1.78,1.25,1.12,1.12,0,1,1-1.78-1.25Z"/><path class="cls-2" d="M15.48,158.6c.78.1,1.35.68,1.26,1.28a1.29,1.29,0,0,1-1.56.89c-.78-.11-1.34-.68-1.26-1.28A1.29,1.29,0,0,1,15.48,158.6Z"/><path class="cls-1" d="M327.35,218.87s24.55-3.55,33.32-23.1l-11.32-13.3s-13.49,19.72-30,18.85Z"/><path class="cls-2" d="M342,196.54a6,6,0,1,1-6.72,5.1A6,6,0,0,1,342,196.54Z"/><path class="cls-2" d="M331.14,213.44c1,.14,1.68.85,1.58,1.6a1.63,1.63,0,0,1-2,1.12c-1-.14-1.69-.85-1.58-1.6A1.62,1.62,0,0,1,331.14,213.44Z"/><path class="cls-2" d="M355.13,195.9a1.42,1.42,0,1,1,.1,2.25A1.63,1.63,0,0,1,355.13,195.9Z"/><path class="cls-2" d="M347.55,186.42a1.13,1.13,0,1,1,.09,1.79A1.29,1.29,0,0,1,347.55,186.42Z"/><path class="cls-2" d="M325.46,202.43c.77.11,1.34.68,1.26,1.28a1.29,1.29,0,0,1-1.56.89c-.78-.11-1.35-.68-1.27-1.28A1.3,1.3,0,0,1,325.46,202.43Z"/><path class="cls-1" d="M577.47,333.81s24.55-3.55,33.31-23.1l-11.32-13.3s-13.49,19.72-30,18.85Z"/><path class="cls-2" d="M592.14,311.48a6,6,0,1,1-6.71,5.1A6,6,0,0,1,592.14,311.48Z"/><path class="cls-2" d="M581.25,328.38c1,.13,1.68.85,1.58,1.6a1.62,1.62,0,0,1-2,1.12c-1-.14-1.68-.85-1.58-1.6A1.62,1.62,0,0,1,581.25,328.38Z"/><path class="cls-2" d="M605.25,310.84a1.42,1.42,0,1,1,.1,2.25A1.62,1.62,0,0,1,605.25,310.84Z"/><path class="cls-2" d="M597.67,301.36a1.12,1.12,0,1,1,.08,1.78A1.27,1.27,0,0,1,597.67,301.36Z"/><path class="cls-2" d="M575.57,317.37a1.13,1.13,0,1,1-.3,2.17c-.78-.11-1.34-.68-1.26-1.28A1.29,1.29,0,0,1,575.57,317.37Z"/><path class="cls-1" d="M377.85,361.75s15.43,19.42,36.73,17.15l5.79-16.48S396.54,360.7,389,346Z"/><path class="cls-2" d="M404.53,363.18a6,6,0,1,1-7.79-3.23A6,6,0,0,1,404.53,363.18Z"/><path class="cls-2" d="M384.44,362.29a1.42,1.42,0,1,1-1.94-1.12A1.62,1.62,0,0,1,384.44,362.29Z"/><path class="cls-2" d="M411.68,374.18a1.42,1.42,0,1,1-.23,2.73c-1-.08-1.72-.75-1.66-1.51A1.62,1.62,0,0,1,411.68,374.18Z"/><path class="cls-2" d="M416.05,362.86c.78.07,1.37.6,1.32,1.2a1.46,1.46,0,1,1-1.32-1.2Z"/><path class="cls-2" d="M391.09,351.83a1.13,1.13,0,1,1-1.55-.9A1.3,1.3,0,0,1,391.09,351.83Z"/><path class="cls-1" d="M63.32,453s15.44,19.42,36.74,17.14l5.79-16.48S82,452,74.47,437.29Z"/><path class="cls-2" d="M90,454.45a6,6,0,1,1-7.79-3.24A6,6,0,0,1,90,454.45Z"/><path class="cls-2" d="M69.92,453.55a1.42,1.42,0,1,1-2-1.12A1.61,1.61,0,0,1,69.92,453.55Z"/><path class="cls-2" d="M97.16,465.45c1,.08,1.72.75,1.66,1.51a1.62,1.62,0,0,1-1.89,1.22c-1-.09-1.73-.76-1.66-1.52A1.61,1.61,0,0,1,97.16,465.45Z"/><path class="cls-2" d="M101.53,454.12c.78.07,1.37.61,1.32,1.21a1.47,1.47,0,0,1-2.82-.24A1.29,1.29,0,0,1,101.53,454.12Z"/><path class="cls-2" d="M76.57,443.1a1.13,1.13,0,1,1-2,.83A1.27,1.27,0,0,1,75,442.2,1.3,1.3,0,0,1,76.57,443.1Z"/><path class="cls-1" d="M296.1,509.66s15.44,19.42,36.73,17.14l5.8-16.47s-23.84-1.72-31.38-16.4Z"/><path class="cls-2" d="M322.79,511.09a6,6,0,1,1-7.79-3.23A6,6,0,0,1,322.79,511.09Z"/><path class="cls-2" d="M302.7,510.19a1.42,1.42,0,1,1-1.95-1.12A1.62,1.62,0,0,1,302.7,510.19Z"/><path class="cls-2" d="M329.93,522.09c1,.08,1.73.76,1.67,1.51a1.63,1.63,0,0,1-1.89,1.22c-1-.08-1.73-.76-1.67-1.51A1.62,1.62,0,0,1,329.93,522.09Z"/><path class="cls-2" d="M334.31,510.77a1.13,1.13,0,1,1-.18,2.17c-.78-.07-1.37-.61-1.32-1.21A1.27,1.27,0,0,1,334.31,510.77Z"/><path class="cls-2" d="M309.35,499.74a1.13,1.13,0,1,1-1.56-.9A1.29,1.29,0,0,1,309.35,499.74Z"/><path class="cls-1" d="M185.53,100.12s15.43,19.42,36.73,17.14l5.8-16.47s-23.84-1.72-31.38-16.4Z"/><path class="cls-2" d="M212.21,101.55a6,6,0,1,1-7.78-3.23A6,6,0,0,1,212.21,101.55Z"/><path class="cls-2" d="M192.13,100.66a1.42,1.42,0,1,1-1.95-1.13A1.61,1.61,0,0,1,192.13,100.66Z"/><path class="cls-2" d="M219.36,112.55c1,.08,1.73.76,1.66,1.51a1.6,1.6,0,0,1-1.88,1.22c-1-.08-1.73-.76-1.67-1.51A1.62,1.62,0,0,1,219.36,112.55Z"/><path class="cls-2" d="M223.74,101.23a1.13,1.13,0,1,1-.18,2.17c-.78-.07-1.37-.61-1.32-1.21A1.28,1.28,0,0,1,223.74,101.23Z"/><path class="cls-2" d="M198.78,90.2a1.14,1.14,0,1,1-1.56-.9A1.29,1.29,0,0,1,198.78,90.2Z"/><path class="cls-1" d="M9.79,343.87s24-6.15,30.67-26.51l-12.67-12S16.48,326.38,0,327.27Z"/><path class="cls-2" d="M22,320.1a6,6,0,1,1-6.14,5.79A6,6,0,0,1,22,320.1Z"/><path class="cls-2" d="M13,338.07a1.42,1.42,0,1,1-.08,2.74,1.42,1.42,0,1,1,.08-2.74Z"/><path class="cls-2" d="M35,318.08a1.61,1.61,0,0,1,2.06-.9,1.84,1.84,0,0,1-1.72,3.12A1.6,1.6,0,0,1,35,318.08Z"/><path class="cls-2" d="M26.42,309.45a1.29,1.29,0,0,1,1.64-.71,1.46,1.46,0,0,1-1.37,2.48A1.3,1.3,0,0,1,26.42,309.45Z"/><path class="cls-2" d="M6.16,327.72c.78,0,1.41.54,1.39,1.14a1.3,1.3,0,0,1-1.46,1.06,1.14,1.14,0,1,1,.07-2.2Z"/></g></g></g></svg>