<svg xmlns="http://www.w3.org/2000/svg" viewBox="0 0 749.43 498.79"><defs><style>.cls-1{fill:#df343a;}.cls-2{fill:#ff9821;}.cls-3{fill:#ffa338;}.cls-4{fill:#f79320;}</style></defs><title>3-14-获胜的队伍装饰2</title><g id="图层_2" data-name="图层 2"><g id="中间层"><path class="cls-1" d="M517.46,206.5l-4.61-8.11s15.7,3.47,25.21-8.74l2.56,6.95A29.21,29.21,0,0,1,517.46,206.5Z"/><path class="cls-2" d="M68.81,109.17l-1,5.22s-1.33-1.65-7.21-1.37-12,.92-15.33-3.14l2.71-9a11.51,11.51,0,0,0,8.25,4.92C62.18,106.7,64.27,106.17,68.81,109.17Z"/><path class="cls-1" d="M671.25,188.64l-6.46-1.83s2.23-1.49,2.54-8.93.2-15.22,5.69-19l11,4.42s-5.37,2.46-7.12,9.84S675.55,183.25,671.25,188.64Z"/><path class="cls-2" d="M373.52,114.12l3.86.89s-1.28.94-1.24,5.33.34,9-2.79,11.34l-6.6-2.28a8.57,8.57,0,0,0,3.91-6C371.48,119,371.14,117.42,373.52,114.12Z"/><path class="cls-3" d="M624.53,125.34l9.19.19s-10.86,11.54-5.32,25.75l-7.18-1.34A28.8,28.8,0,0,1,624.53,125.34Z"/><path class="cls-2" d="M683.47,278.8l-9.67,9.11s-.5-22.91-20.63-32l8.77-5.9A41.68,41.68,0,0,1,683.47,278.8Z"/><path class="cls-1" d="M135.94,174.49l-.48,5.93s-1.68-1.68-8.21-.67-13.27,2.44-17.47-1.7l2-10.31s3.06,4.25,9.79,4.51S130.52,171.68,135.94,174.49Z"/><path class="cls-1" d="M571.23,326,568.08,331s-.72-2.26-7-4.35-12.92-3.9-14.76-9.5l6.45-8.27s.78,5.17,6.64,8.48S567.69,321,571.23,326Z"/><path class="cls-4" d="M545.33,240.41l1.28,1.84s-.89-.09-2.54,1.78-3.27,3.9-5.49,3.7l-1.91-3.47a4.82,4.82,0,0,0,3.93-1C542.62,241.69,543.08,240.9,545.33,240.41Z"/><path class="cls-4" d="M44.14,225.63l-2.92-5.4s2.39.51,7.45-4,10.07-9.58,16-8.37l4.11,10s-5-1.94-11,1.62S50.41,225,44.14,225.63Z"/><path class="cls-1" d="M577.66,85.25,569.92,84s2.38-2,1.69-10.68-1.91-17.63,3.93-22.73l13.32,3.57S583,57.79,582,66.57,581.87,78.41,577.66,85.25Z"/><path class="cls-1" d="M105.11,263.45l11.48-4.37s-7.66,19.74,6.34,34.58l-9.57,1.94A38.53,38.53,0,0,1,105.11,263.45Z"/><path class="cls-1" d="M414,226.58l-5,1.1s4.39-7.67-.48-14.66l4.07-.21A16,16,0,0,1,414,226.58Z"/><path class="cls-4" d="M614.56,255.29l5.09.47s-1.47,1.42-.66,7,2,11.41-1.61,15L608.55,276a11.09,11.09,0,0,0,4-8.35C612.79,261.87,612.1,259.92,614.56,255.29Z"/><path class="cls-4" d="M220.76,204l-12.1.37s13.51-15.93,5.26-34.27l9.54,1.28A38,38,0,0,1,220.76,204Z"/><path class="cls-4" d="M199.36,292.94l-3-3.12s7.5-.28,10.35-6.93l2,2.84A13.67,13.67,0,0,1,199.36,292.94Z"/><path class="cls-1" d="M94.73,374.05,94.24,380s-1.68-1.68-8.2-.67-13.27,2.44-17.47-1.7l2-10.31s3.06,4.25,9.78,4.51S89.3,371.25,94.73,374.05Z"/><path class="cls-4" d="M2.93,425.19,0,419.8s2.4.51,7.46-4,10.07-9.58,16-8.38l4.12,10s-5-1.94-11,1.62S9.19,424.56,2.93,425.19Z"/><path class="cls-1" d="M63.89,463l11.48-4.38s-7.66,19.75,6.34,34.58l-9.57,1.95A38.53,38.53,0,0,1,63.89,463Z"/><path class="cls-4" d="M179.55,403.52l-12.11.37S181,388,172.7,369.62l9.55,1.28A38,38,0,0,1,179.55,403.52Z"/><path class="cls-4" d="M158.14,492.51l-3-3.12s7.51-.29,10.36-6.93l2,2.84A13.63,13.63,0,0,1,158.14,492.51Z"/><path class="cls-1" d="M357.92,323.44l-.48,5.94s-1.68-1.69-8.2-.68S336,331.14,331.77,327l2-10.3s3.07,4.24,9.79,4.51S352.5,320.63,357.92,323.44Z"/><path class="cls-4" d="M266.13,374.58l-2.93-5.4s2.4.51,7.46-4,10.07-9.59,16-8.38l4.12,10s-5-1.94-11,1.63S272.39,373.94,266.13,374.58Z"/><path class="cls-1" d="M327.09,412.41,338.57,408s-7.66,19.75,6.34,34.58l-9.57,1.94A38.5,38.5,0,0,1,327.09,412.41Z"/><path class="cls-4" d="M442.75,352.9l-12.11.37s13.51-15.92,5.26-34.27l9.54,1.28A37.94,37.94,0,0,1,442.75,352.9Z"/><path class="cls-4" d="M421.34,441.89l-3-3.12s7.51-.28,10.36-6.93l2,2.84A13.67,13.67,0,0,1,421.34,441.89Z"/><path class="cls-1" d="M659.45,377.67l-.49,5.94s-1.68-1.69-8.2-.68-13.27,2.44-17.47-1.7l2-10.3s3.06,4.24,9.78,4.51S654,374.86,659.45,377.67Z"/><path class="cls-4" d="M567.65,428.81l-2.93-5.39s2.4.5,7.46-4,10.07-9.59,16-8.38l4.12,10s-5-1.94-11,1.63S573.91,428.17,567.65,428.81Z"/><path class="cls-1" d="M628.61,466.64l11.48-4.38s-7.66,19.75,6.35,34.58l-9.58,2A38.53,38.53,0,0,1,628.61,466.64Z"/><path class="cls-4" d="M744.27,407.13l-12.11.37s13.52-15.92,5.26-34.27l9.55,1.28A38,38,0,0,1,744.27,407.13Z"/><path class="cls-4" d="M722.86,496.12l-3-3.11s7.51-.29,10.36-6.94l2,2.84A13.61,13.61,0,0,1,722.86,496.12Z"/><path class="cls-1" d="M489.42,140.42l-5.05,2.3s2.89-9.12-3.85-15.41l4.26-1.15A17.39,17.39,0,0,1,489.42,140.42Z"/><path class="cls-1" d="M424.67,87.86l-4.94,11.58s-9.12-19.71-30-19.93l5.38-8.45A39.47,39.47,0,0,1,424.67,87.86Z"/><path class="cls-2" d="M212.27,63.5l3.86.89s-1.27.94-1.23,5.34.34,9-2.79,11.34l-6.6-2.28a8.57,8.57,0,0,0,3.9-6C210.23,68.38,209.9,66.81,212.27,63.5Z"/><path class="cls-3" d="M463.29,74.72l9.18.2s-10.86,11.53-5.32,25.75L460,99.33A28.8,28.8,0,0,1,463.29,74.72Z"/><path class="cls-1" d="M416.42,34.63l-7.74-1.21s2.38-2,1.69-10.69S408.46,5.11,414.29,0l13.32,3.57s-5.86,3.6-6.86,12.39S420.62,27.8,416.42,34.63Z"/><path class="cls-1" d="M328.17,89.8l-5.05,2.31S326,83,319.27,76.69l4.27-1.14A17.39,17.39,0,0,1,328.17,89.8Z"/><path class="cls-1" d="M263.42,37.24l-4.94,11.58s-9.11-19.7-30-19.93l5.37-8.44A39.47,39.47,0,0,1,263.42,37.24Z"/><path class="cls-1" d="M152.43,99.1l3,.8s-1,.71-1.11,4.15,0,7-2.52,8.8l-5.1-2a6.71,6.71,0,0,0,3.23-4.6C150.69,102.86,150.47,101.62,152.43,99.1Z"/><path class="cls-1" d="M275.67,244.43l.05,2.86s-.89-.73-4,.05-6.24,1.78-8.44,0l.46-5a6.21,6.21,0,0,0,4.9,1.71C271.9,243.84,273,243.33,275.67,244.43Z"/></g></g></svg>