<svg xmlns="http://www.w3.org/2000/svg" viewBox="0 0 1011.75 699.25"><defs><style>.cls-1{fill:#f2b034;}.cls-2{fill:#3db2c0;}.cls-3{fill:#dd5727;}.cls-4{fill:#3aacdd;}.cls-5{fill:#f06b24;}.cls-6{fill:#c83057;}.cls-7{fill:#eec23c;}.cls-8{fill:#7ea43e;}.cls-9{fill:#378095;}.cls-10{fill:#ca3d27;}.cls-11{fill:#447c3a;}.cls-12{fill:#588b3f;}.cls-13{fill:#e28029;}.cls-14{fill:#ffe089;}.cls-15{fill:#ffb67a;}</style></defs><title>3-16-抽奖区装饰物</title><g id="图层_2" data-name="图层 2"><g id="中间层"><g id="_3-16-抽奖区装饰物" data-name="3-16-抽奖区装饰物"><path class="cls-1" d="M284.3,196.63c-4.5,0-4.51,7,0,7S288.8,196.63,284.3,196.63Z"/><path class="cls-1" d="M386.7,229.1c-4.5,0-4.5,7,0,7S391.21,229.1,386.7,229.1Z"/><path class="cls-1" d="M609,247.74c-4.49,0-4.5,7,0,7S613.53,247.74,609,247.74Z"/><path class="cls-1" d="M164.31,390.51c-4.5,0-4.51,7,0,7S168.81,390.51,164.31,390.51Z"/><path class="cls-1" d="M274.53,395.69c-4.5,0-4.5,7,0,7S279,395.69,274.53,395.69Z"/><path class="cls-1" d="M288.84,481.9c-4.5,0-4.5,7,0,7S293.35,481.9,288.84,481.9Z"/><path class="cls-1" d="M320.3,505.2c-4.5,0-4.51,7,0,7S324.8,505.2,320.3,505.2Z"/><path class="cls-1" d="M170,578.6c-4.5,0-4.5,7,0,7S174.52,578.6,170,578.6Z"/><path class="cls-1" d="M186.32,632.19c-4.5,0-4.5,7,0,7S190.83,632.19,186.32,632.19Z"/><path class="cls-1" d="M226.47,570.77c-4.5,0-4.5,7,0,7S231,570.77,226.47,570.77Z"/><path class="cls-1" d="M326.12,636.85c-4.5,0-4.5,7,0,7S330.63,636.85,326.12,636.85Z"/><path class="cls-1" d="M365.73,671.79c-4.5,0-4.5,7,0,7S370.24,671.79,365.73,671.79Z"/><path class="cls-1" d="M368.15,608.67c-4.49,0-4.5,7,0,7S372.66,608.67,368.15,608.67Z"/><path class="cls-1" d="M665.13,671.79c-4.49,0-4.5,7,0,7S669.64,671.79,665.13,671.79Z"/><path class="cls-1" d="M723.38,624c-4.49,0-4.5,7,0,7S727.89,624,723.38,624Z"/><path class="cls-1" d="M782,558.1c-4.5,0-4.5,7,0,7S786.53,558.1,782,558.1Z"/><path class="cls-1" d="M753.67,409.67c-4.49,0-4.5,7,0,7S758.18,409.67,753.67,409.67Z"/><path class="cls-1" d="M725.71,465.59c-4.49,0-4.5,7,0,7S730.22,465.59,725.71,465.59Z"/><path class="cls-1" d="M736.6,354.34c-4.5,0-4.51,7,0,7S741.1,354.34,736.6,354.34Z"/><path class="cls-1" d="M764.16,245.41c-4.5,0-4.51,7,0,7S768.66,245.41,764.16,245.41Z"/><path class="cls-1" d="M878.33,400.35c-4.5,0-4.51,7,0,7S882.83,400.35,878.33,400.35Z"/><path class="cls-1" d="M654.65,99.78c-4.5,0-4.51,7,0,7S659.15,99.78,654.65,99.78Z"/><path class="cls-1" d="M387.87,94c-4.5,0-4.51,7,0,7S392.37,94,387.87,94Z"/><path class="cls-2" d="M279.62,129.54c-4.49,0-4.5,7,0,7S284.13,129.54,279.62,129.54Z"/><path class="cls-2" d="M661.76,257.06c-4.5,0-4.51,7,0,7S666.26,257.06,661.76,257.06Z"/><path class="cls-2" d="M824.74,247.74c-4.5,0-4.51,7,0,7S829.24,247.74,824.74,247.74Z"/><path class="cls-2" d="M714.06,431.81c-4.49,0-4.5,7,0,7S718.57,431.81,714.06,431.81Z"/><path class="cls-2" d="M330.78,589.08c-4.5,0-4.5,7,0,7S335.29,589.08,330.78,589.08Z"/><path class="cls-2" d="M228.26,642.67c-4.5,0-4.5,7,0,7S232.77,642.67,228.26,642.67Z"/><path class="cls-2" d="M160.69,527.34c-4.5,0-4.5,7,0,7S165.2,527.34,160.69,527.34Z"/><path class="cls-2" d="M758.33,640.34c-4.49,0-4.5,7,0,7S762.84,640.34,758.33,640.34Z"/><path class="cls-2" d="M844.54,401.52c-4.5,0-4.5,7,0,7S849.05,401.52,844.54,401.52Z"/><path class="cls-2" d="M618.12,101.46c-4.5,0-4.5,7,0,7S622.63,101.46,618.12,101.46Z"/><path class="cls-3" d="M145.55,252.4c-4.5,0-4.51,7,0,7S150.05,252.4,145.55,252.4Z"/><path class="cls-3" d="M92.35,624c-4.49,0-4.5,7,0,7S96.86,624,92.35,624Z"/><path class="cls-3" d="M220.59,461.16c-4.5,0-4.51,7,0,7S225.09,461.16,220.59,461.16Z"/><path class="cls-3" d="M297.55,336c-4.5,0-4.51,7,0,7S302.05,336,297.55,336Z"/><path class="cls-3" d="M305.28,283.54c-4.5,0-4.51,7,0,7S309.78,283.54,305.28,283.54Z"/><path class="cls-3" d="M793.28,231.43c-4.49,0-4.5,7,0,7S797.79,231.43,793.28,231.43Z"/><path class="cls-3" d="M684.94,619.37c-4.5,0-4.51,7,0,7S689.44,619.37,684.94,619.37Z"/><path class="cls-3" d="M643.54,596.07c-4.5,0-4.51,7,0,7S648,596.07,643.54,596.07Z"/><path class="cls-3" d="M867.84,628.69c-4.5,0-4.5,7,0,7S872.35,628.69,867.84,628.69Z"/><path class="cls-3" d="M859.69,436.47c-4.5,0-4.51,7,0,7S864.19,436.47,859.69,436.47Z"/><path class="cls-3" d="M256.84,309.13c-4.5,0-4.51,7,0,7S261.34,309.13,256.84,309.13Z"/><path class="cls-3" d="M287.68,654.32c-4.5,0-4.51,7,0,7S292.18,654.32,287.68,654.32Z"/><path class="cls-3" d="M348.37,84.64c-4.49,0-4.5,7,0,7S352.88,84.64,348.37,84.64Z"/><path class="cls-4" d="M308.41,319.34s-13.06,3.62-19.61-4.9l-5.34,4.11a25.63,25.63,0,0,0,24.15,8.4Z"/><path class="cls-4" d="M296.78,441.39s-13.06,3.62-19.62-4.9l-5.34,4.11A25.65,25.65,0,0,0,296,449Z"/><path class="cls-4" d="M706.57,533.67s-13.06,3.62-19.61-4.9l-5.34,4.1a25.63,25.63,0,0,0,24.15,8.4Z"/><path class="cls-4" d="M181.32,177.6s-8,16.14-22.23,15.08l-.67,8.93a34,34,0,0,0,29.72-16.48Z"/><path class="cls-5" d="M691.41,297.86s17.52.88,22.09,14l8.24-2.86a33.2,33.2,0,0,0-26.24-20.18Z"/><path class="cls-5" d="M807.39,351.19s-13.56-9.82-10.38-22.71l-8.08-2a31.66,31.66,0,0,0,10.5,29.79Z"/><path class="cls-6" d="M812.63,415.16s-7,17.19-21.68,17.19v9.23a35.08,35.08,0,0,0,29.27-19.2Z"/><path class="cls-6" d="M599.45,68.29s-15.1,7.42-25.05-1.47l-5.56,6.24a31.81,31.81,0,0,0,31.38,4.69Z"/><path class="cls-6" d="M724.71,641.54s-15.1,7.42-25.05-1.47l-5.56,6.24A31.81,31.81,0,0,0,725.48,651Z"/><path class="cls-7" d="M131.19,470.62s-13.74-7.53-12.3-19.87l-7.73-.9a29.64,29.64,0,0,0,13.24,26.43Z"/><path class="cls-7" d="M271.64,77.35s-17.71-2.81-20.92-16.66l-8.69,2A33.92,33.92,0,0,0,266.5,86.07Z"/><path class="cls-7" d="M220.7,677s-15.74-8.62-14.09-22.75l-8.85-1a33.91,33.91,0,0,0,15.16,30.25Z"/><path class="cls-8" d="M193.39,272.88s.41,16.33-11.47,21.49l3.24,7.44A30.87,30.87,0,0,0,202,276Z"/><path class="cls-8" d="M769.38,122.89s-14.75-7-14-19.94l-8.1-.48a30.87,30.87,0,0,0,15.34,26.71Z"/><path class="cls-8" d="M151.13,343.49s-15.18,6-24.13-3.33l-5.86,5.61a30.87,30.87,0,0,0,30,6.93Z"/><path class="cls-8" d="M282.33,581.61s.41,16.32-11.47,21.48l3.24,7.44A30.85,30.85,0,0,0,291,584.77Z"/><path class="cls-8" d="M411.27,34.78s.38,15.07-10.58,19.84l3,6.87A28.51,28.51,0,0,0,419.27,37.7Z"/><polygon class="cls-7" points="309.72 158.04 298.79 156.3 296.43 166.69 304.56 170.41 309.72 158.04"/><polygon class="cls-7" points="405.15 625.94 394.22 624.19 391.87 634.58 399.99 638.3 405.15 625.94"/><polygon class="cls-7" points="858.77 47.27 848.93 52.35 853.21 62.11 861.95 60.28 858.77 47.27"/><polygon class="cls-7" points="299.25 504.72 289.42 509.81 293.7 519.57 302.44 517.74 299.25 504.72"/><polygon class="cls-8" points="713.11 351.13 703.28 356.22 707.55 365.98 716.3 364.15 713.11 351.13"/><polygon class="cls-8" points="225.88 368.4 216.05 373.49 220.32 383.25 229.06 381.42 225.88 368.4"/><polygon class="cls-8" points="188.8 559.71 178.97 564.8 183.24 574.56 191.98 572.73 188.8 559.71"/><polygon class="cls-4" points="848.71 296.82 840.72 304.47 847.57 312.63 855.44 308.41 848.71 296.82"/><polygon class="cls-4" points="822.2 683.44 814.2 691.09 821.06 699.25 828.93 695.03 822.2 683.44"/><polygon class="cls-8" points="305.76 242.51 295.93 247.59 300.2 257.35 308.95 255.52 305.76 242.51"/><polygon class="cls-6" points="197.68 68.42 186.83 66.21 184.03 76.49 191.99 80.55 197.68 68.42"/><polygon class="cls-6" points="732.57 195.84 721.91 192.86 718.38 202.92 726.03 207.54 732.57 195.84"/><polygon class="cls-6" points="802.26 538.53 791.61 535.56 788.08 545.62 795.73 550.23 802.26 538.53"/><polygon class="cls-5" points="458.17 80.71 448.34 85.8 452.61 95.56 461.36 93.73 458.17 80.71"/><polygon class="cls-5" points="756.25 48.13 745.19 48.45 744.81 59.1 753.48 61.24 756.25 48.13"/><polygon class="cls-5" points="203.4 435.02 192.33 435.34 191.95 445.99 200.63 448.13 203.4 435.02"/><path class="cls-9" d="M83.29,26.69S90,46.13,111.11,42c0,0,.32,6.09-1.87,8.17S88,49.82,83.29,26.69Z"/><path class="cls-9" d="M94.71,48.32s.79,10.47,15.47,13.42l-1.8,7.85S95.66,69,94.77,55Z"/><path class="cls-9" d="M92.25,65.38s-3.77,11.78,19.93,18.94l-1.94,8.47S87.77,87.63,89.46,74.7Z"/><path class="cls-9" d="M85.32,88.81s-1.63,10.44,11.46,18.9c0,0,4.23,1.83,1.93,7.17l-2.5,5.87S83.29,112,80.09,100.61A15.45,15.45,0,0,1,85.32,88.81Z"/><path class="cls-2" d="M111.11,42s.32-3.17-.45-3.32c-1.35-.27-18.35-3.79-15.89,16.32,0,0,1.58-11.37,14-4.54C108.72,50.43,111.2,48.76,111.11,42Z"/><path class="cls-2" d="M110,62.45s.62-2.49-1-2.86S97.73,57.75,92.41,65c0,0-3.36,8.12-2.92,10.59a9.68,9.68,0,0,1,7.16-6.88c6.1-1.6,9.77-.76,11.73.87Z"/><path class="cls-2" d="M112.18,84.32s-18.44-6.67-29.55,7.39c0,0-4.27,5.81-2.22,9.65,0,0-.24-17,29.83-8.57Z"/><path class="cls-2" d="M99.15,110.38s-.73,2-6.38,1.38-16.23,1-21.86,9.58c0,0,10.9-7.84,25.3-.59C96.21,120.75,100.24,113.8,99.15,110.38Z"/><path class="cls-2" d="M92.7,13.68a109.7,109.7,0,0,1,8.75-11.9L93.7,0A19.06,19.06,0,0,1,92,1.91c-5.32,5.08-10.86,19.84-8,28a37.88,37.88,0,0,0,7,12.49S83.76,27.74,92.7,13.68Z"/><path class="cls-10" d="M230.68,127.14s-3.46,8.08,16.69,16.55,18.89,23.76,19.12,26.23c0,0,1-7.75-10.27-13.88s-21.7-7.9-25.51-17.53C230.71,138.51,227.15,131.52,230.68,127.14Z"/><path class="cls-10" d="M243.75,194.58s8.75,14.87,34.12,7l3.83,7.62s-20.41,5.94-34.2-.75C247.5,208.47,242.13,198.12,243.75,194.58Z"/><path class="cls-3" d="M233.41,91.47s9.91,7.08,4.66,18.8-9.73,16.41-9.39,21,3.42,10.11,3.42,10.11a32.27,32.27,0,0,1,6-16c8-11.16,9.54-24.15-.75-35.23Z"/><path class="cls-3" d="M260.66,224.34s16-13.59,17.21-22.74l3.83,7.62s-1.7,11.59-15.59,21.65Z"/><path class="cls-3" d="M264.41,158.85s4.1,8.44,3,14.15-8,10.21-14.7,20.37-5.21,15.1-5.21,15.1-5.38-10.19-3.51-14.7,8.22-13.31,12.13-17.56C259.89,172.11,266.33,164.63,264.41,158.85Z"/><path class="cls-11" d="M722.13,155.23s11.52-16.72,25.67-.87c12.06,13.52-11,37.41-13.32,39.44,0,0,13.45-13.61,11.77-28.69s-21.2-15.51-25.3.57C721,165.68,719.28,161.75,722.13,155.23Z"/><path class="cls-11" d="M734.48,193.8s-15.39,14.27-5.75,29.07a86.18,86.18,0,0,1,12,30.93l2.63-10.19s.51-6.78-6-18.23C732.61,217.16,724.07,209.06,734.48,193.8Z"/><path class="cls-11" d="M723.47,238.48a12.39,12.39,0,0,1,12.3,8.87c3.22,9.57-1,22.87-5.85,28.94,0,0,12.2-42.18-14.83-33.4A11,11,0,0,1,723.47,238.48Z"/><path class="cls-11" d="M773.8,115.48l-3.58-.92a31.24,31.24,0,0,0,1.4,8.3c4.15,13.62-.11,25.42-1.54,30.28,0,0,6.84-16.36,5.9-27.59A49.71,49.71,0,0,0,773.8,115.48Z"/><path class="cls-12" d="M775.45,134.62s-3.72,27.66-32.42,33.5c0,0-19.23,3.57-20.9-12.89,0,0-6,12.74,5.35,17.41s30.81,1.39,42.6-19.5C770.08,153.14,775.43,139,775.45,134.62Z"/><path class="cls-12" d="M743.35,243.61s-3.29,13.68-19,7.54-.91-12.67-.91-12.67a11.21,11.21,0,0,0-9.85,7.1c-3.45,9,8.29,13.82,15.56,15.35s11.29-6.15,11.29-6.15Z"/><path class="cls-12" d="M734.63,267.39a26.44,26.44,0,0,1-26.25,15.36s-4.5,3.55-3.88,8.58C704.93,294.89,725.85,292.78,734.63,267.39Z"/><path class="cls-13" d="M960.62,114.87s-2.08,15.46-21.31,13.41c0,0-1.47-1.42-7.75,9.57,0,0,5.6-2.66,10.81-1.74s8.87,1,14.4-5.14c6.41-7.08,8.23-12.55,8.23-12.55Z"/><path class="cls-13" d="M945.25,148.94s-23-3.95-35.54,3.63c0,0-5.81,6.13-6.2,10.56,0,0,15-12.62,37.09-5.44C940.6,157.69,945.22,150.88,945.25,148.94Z"/><path class="cls-13" d="M920.9,182a49,49,0,0,0-44,3.62l-5.59,10s24.26-15.75,44.33-7.27C915.63,188.35,918.23,186.63,920.9,182Z"/><path class="cls-1" d="M939.31,128.28s-4.09,2.54-.74,8.62,8.88,8.51,6,13.79-4,7-4,7-.33-2.1-3-5.4-9-8.1-6.09-14.44C931.56,137.85,935.32,130.25,939.31,128.28Z"/><path class="cls-1" d="M909.71,152.57s-1.4,22.32,11.19,29.46c0,0-3.46,6.08-5.85,6.52s-9.66-9.71-11.51-24.91C903.54,163.64,902.61,160.77,909.71,152.57Z"/><path class="cls-1" d="M876.89,185.65s-2.34,13.28,17.35,27.69c0,0-5.11,4.4-13.91-.72S865.15,197.46,876.89,185.65Z"/><g id="_编组_" data-name="&lt;编组&gt;"><g id="_编组_2" data-name="&lt;编组&gt;"><path id="_路径_" data-name="&lt;路径&gt;" class="cls-14" d="M368.83,132.63l2.09,28.77a.29.29,0,0,0,.57,0l2.09-28.77a2.38,2.38,0,0,0-2.37-2.56h0A2.39,2.39,0,0,0,368.83,132.63Z"/><path id="_路径_2" data-name="&lt;路径&gt;" class="cls-14" d="M400.41,150.4l-25.68,13.15a.28.28,0,0,0,.22.52l27.32-9.29a2.38,2.38,0,0,0,1.42-3.18h0A2.39,2.39,0,0,0,400.41,150.4Z"/><path id="_路径_3" data-name="&lt;路径&gt;" class="cls-14" d="M396.35,186.42l-22.11-18.53a.29.29,0,0,0-.4.41l19.21,21.53a2.38,2.38,0,0,0,3.48.07h0A2.37,2.37,0,0,0,396.35,186.42Z"/><path id="_路径_4" data-name="&lt;路径&gt;" class="cls-14" d="M361.6,196.72l8.45-27.59a.29.29,0,0,0-.53-.21L357.18,195a2.37,2.37,0,0,0,1.29,3.24h0A2.37,2.37,0,0,0,361.6,196.72Z"/><path id="_路径_5" data-name="&lt;路径&gt;" class="cls-14" d="M338.57,168.73l28.7-3a.29.29,0,0,0,0-.58L338.43,164a2.38,2.38,0,0,0-2.48,2.45h0A2.37,2.37,0,0,0,338.57,168.73Z"/></g><g id="_编组_3" data-name="&lt;编组&gt;"><path id="_路径_6" data-name="&lt;路径&gt;" class="cls-15" d="M346,172.22a1.91,1.91,0,0,0-1.44,2.26,1.85,1.85,0,0,0,2.5,1.26l.9-.37a1.78,1.78,0,0,0,1-2.28h0a1.77,1.77,0,0,0-2.09-1.08Z"/><path id="_路径_7" data-name="&lt;路径&gt;" class="cls-15" d="M367.34,166.84,353,170.45a1.31,1.31,0,0,0-.88,1.79h0a1.32,1.32,0,0,0,1.71.7l13.66-5.64A.24.24,0,0,0,367.34,166.84Z"/><path id="_路径_8" data-name="&lt;路径&gt;" class="cls-15" d="M368.56,163.36l-8.18-10.82a1.23,1.23,0,0,0-1.86-.12h0a1.23,1.23,0,0,0,0,1.73l9.66,9.53A.24.24,0,0,0,368.56,163.36Z"/><path id="_路径_9" data-name="&lt;路径&gt;" class="cls-15" d="M355.28,145.78a1.92,1.92,0,0,0-2.64-.44,1.84,1.84,0,0,0-.2,2.79l2,2a1.65,1.65,0,0,0,2.32,0h0a1.65,1.65,0,0,0,.15-2.16Z"/><path id="_路径_10" data-name="&lt;路径&gt;" class="cls-15" d="M376.55,151l-4.75,11.93a.24.24,0,0,0,.44.21L378.65,152a1.17,1.17,0,0,0-.34-1.54h0A1.15,1.15,0,0,0,376.55,151Z"/><path id="_路径_11" data-name="&lt;路径&gt;" class="cls-15" d="M381.27,147.47l2-3.42a1.93,1.93,0,0,0-.62-2.61,1.85,1.85,0,0,0-2.65.91l-1.5,3.76A1.55,1.55,0,0,0,379,148l0,0A1.53,1.53,0,0,0,381.27,147.47Z"/><path id="_路径_12" data-name="&lt;路径&gt;" class="cls-15" d="M388.41,165.63l-14.5.32a.24.24,0,0,0,0,.48l14.41,1.78a1.27,1.27,0,0,0,1.43-1.24v0A1.28,1.28,0,0,0,388.41,165.63Z"/><path id="_路径_13" data-name="&lt;路径&gt;" class="cls-15" d="M395.93,165.46l-2.1,0a1.68,1.68,0,0,0-1.64,1.66v0a1.68,1.68,0,0,0,1.47,1.67l2.19.27a1.84,1.84,0,0,0,2.07-1.89A1.91,1.91,0,0,0,395.93,165.46Z"/><path id="_路径_14" data-name="&lt;路径&gt;" class="cls-15" d="M371.94,169.06a.24.24,0,0,0-.45.17l3.38,11.85a1.13,1.13,0,0,0,1.4.78h0a1.13,1.13,0,0,0,.72-1.56Z"/><path id="_路径_15" data-name="&lt;路径&gt;" class="cls-15" d="M381,189.25l-1.5-3.34a1.6,1.6,0,0,0-2-.84h0a1.59,1.59,0,0,0-1,1.92l1,3.43a1.91,1.91,0,0,0,2.3,1.37A1.85,1.85,0,0,0,381,189.25Z"/></g></g><g id="_编组_4" data-name="&lt;编组&gt;"><g id="_编组_5" data-name="&lt;编组&gt;"><path id="_路径_16" data-name="&lt;路径&gt;" class="cls-14" d="M36.15,308.15l2.29,31.63a.32.32,0,0,0,.63,0l2.3-31.63a2.62,2.62,0,0,0-2.61-2.81h0A2.62,2.62,0,0,0,36.15,308.15Z"/><path id="_路径_17" data-name="&lt;路径&gt;" class="cls-14" d="M70.86,327.69,42.63,342.13a.31.31,0,0,0,.24.58l30-10.21a2.61,2.61,0,0,0,1.56-3.5h0A2.62,2.62,0,0,0,70.86,327.69Z"/><path id="_路径_18" data-name="&lt;路径&gt;" class="cls-14" d="M66.4,367.28,42.09,346.9a.32.32,0,0,0-.44.46L62.76,371a2.62,2.62,0,0,0,3.84.08h0A2.62,2.62,0,0,0,66.4,367.28Z"/><path id="_路径_19" data-name="&lt;路径&gt;" class="cls-14" d="M28.2,378.6l9.28-30.33a.31.31,0,0,0-.58-.23L23.33,376.71a2.62,2.62,0,0,0,1.42,3.56h0A2.62,2.62,0,0,0,28.2,378.6Z"/><path id="_路径_20" data-name="&lt;路径&gt;" class="cls-14" d="M2.89,347.84l31.54-3.28a.32.32,0,0,0,0-.63L2.73,342.62A2.61,2.61,0,0,0,0,345.31H0A2.63,2.63,0,0,0,2.89,347.84Z"/></g><g id="_编组_6" data-name="&lt;编组&gt;"><path id="_路径_21" data-name="&lt;路径&gt;" class="cls-15" d="M11,351.67a2.09,2.09,0,0,0-1.58,2.48,2,2,0,0,0,2.75,1.39l1-.41a2,2,0,0,0,1.08-2.51h0a2,2,0,0,0-2.3-1.19Z"/><path id="_路径_22" data-name="&lt;路径&gt;" class="cls-15" d="M34.5,345.75l-15.75,4a1.45,1.45,0,0,0-1,2h0a1.45,1.45,0,0,0,1.88.77l15-6.21A.26.26,0,0,0,34.5,345.75Z"/><path id="_路径_23" data-name="&lt;路径&gt;" class="cls-15" d="M35.85,341.93l-9-11.9a1.35,1.35,0,0,0-2-.13h0a1.35,1.35,0,0,0,0,1.9l10.62,10.48A.27.27,0,0,0,35.85,341.93Z"/><path id="_路径_24" data-name="&lt;路径&gt;" class="cls-15" d="M21.25,322.61a2.11,2.11,0,0,0-2.91-.49,2,2,0,0,0-.21,3.07l2.19,2.16a1.8,1.8,0,0,0,2.55,0h0A1.8,1.8,0,0,0,23,325Z"/><path id="_路径_25" data-name="&lt;路径&gt;" class="cls-15" d="M44.63,328.33l-5.22,13.12a.27.27,0,0,0,.48.23l7-12.23a1.28,1.28,0,0,0-.38-1.69h0A1.27,1.27,0,0,0,44.63,328.33Z"/><path id="_路径_26" data-name="&lt;路径&gt;" class="cls-15" d="M49.82,324.46,52,320.7a2.1,2.1,0,0,0-.68-2.86,2,2,0,0,0-2.91,1L46.76,323a1.68,1.68,0,0,0,.61,2l0,0A1.68,1.68,0,0,0,49.82,324.46Z"/><path id="_路径_27" data-name="&lt;路径&gt;" class="cls-15" d="M57.67,344.42l-16,.35a.27.27,0,0,0,0,.53l15.83,2a1.41,1.41,0,0,0,1.58-1.36v0A1.41,1.41,0,0,0,57.67,344.42Z"/><path id="_路径_28" data-name="&lt;路径&gt;" class="cls-15" d="M65.94,344.24l-2.32.05a1.84,1.84,0,0,0-1.8,1.82v0A1.84,1.84,0,0,0,63.44,348l2.4.3a2,2,0,0,0,2.28-2.07A2.09,2.09,0,0,0,65.94,344.24Z"/><path id="_路径_29" data-name="&lt;路径&gt;" class="cls-15" d="M39.56,348.2a.27.27,0,0,0-.5.18l3.72,13a1.25,1.25,0,0,0,1.54.86h0a1.26,1.26,0,0,0,.8-1.72Z"/><path id="_路径_30" data-name="&lt;路径&gt;" class="cls-15" d="M49.54,370.39l-1.65-3.68a1.75,1.75,0,0,0-2.2-.91h0a1.73,1.73,0,0,0-1.06,2.1l1.07,3.77a2.12,2.12,0,0,0,2.53,1.51A2,2,0,0,0,49.54,370.39Z"/></g></g><g id="_编组_7" data-name="&lt;编组&gt;"><g id="_编组_8" data-name="&lt;编组&gt;"><path id="_路径_31" data-name="&lt;路径&gt;" class="cls-14" d="M981.22,438,983,463.1a.25.25,0,0,0,.5,0L985.36,438a2.08,2.08,0,0,0-2.07-2.22h0A2.07,2.07,0,0,0,981.22,438Z"/><path id="_路径_32" data-name="&lt;路径&gt;" class="cls-14" d="M1008.73,453.52,986.36,465a.24.24,0,0,0,.19.45l23.79-8.09a2.08,2.08,0,0,0,1.25-2.77h0A2.08,2.08,0,0,0,1008.73,453.52Z"/><path id="_路径_33" data-name="&lt;路径&gt;" class="cls-14" d="M1005.19,484.89l-19.26-16.14a.25.25,0,0,0-.35.35l16.73,18.76a2.07,2.07,0,0,0,3,.06h0A2.06,2.06,0,0,0,1005.19,484.89Z"/><path id="_路径_34" data-name="&lt;路径&gt;" class="cls-14" d="M974.92,493.86l7.36-24a.25.25,0,0,0-.46-.18l-10.75,22.72a2.07,2.07,0,0,0,1.12,2.82h0A2.07,2.07,0,0,0,974.92,493.86Z"/><path id="_路径_35" data-name="&lt;路径&gt;" class="cls-14" d="M954.86,469.48l25-2.59a.25.25,0,0,0,0-.5l-25.11-1a2.07,2.07,0,0,0-2.16,2.14h0A2.06,2.06,0,0,0,954.86,469.48Z"/></g><g id="_编组_9" data-name="&lt;编组&gt;"><path id="_路径_36" data-name="&lt;路径&gt;" class="cls-15" d="M961.31,472.52a1.67,1.67,0,0,0-1.26,2,1.62,1.62,0,0,0,2.18,1.1l.78-.32a1.55,1.55,0,0,0,.86-2h0a1.57,1.57,0,0,0-1.83-.95Z"/><path id="_路径_37" data-name="&lt;路径&gt;" class="cls-15" d="M979.92,467.83,967.43,471a1.14,1.14,0,0,0-.77,1.56h0a1.15,1.15,0,0,0,1.49.61l11.9-4.92A.21.21,0,0,0,979.92,467.83Z"/><path id="_路径_38" data-name="&lt;路径&gt;" class="cls-15" d="M981,464.8l-7.12-9.43a1.07,1.07,0,0,0-1.62-.1h0a1.08,1.08,0,0,0,0,1.51l8.42,8.3A.21.21,0,0,0,981,464.8Z"/><path id="_路径_39" data-name="&lt;路径&gt;" class="cls-15" d="M969.41,449.49a1.65,1.65,0,0,0-2.3-.38,1.61,1.61,0,0,0-.17,2.43l1.74,1.71a1.43,1.43,0,0,0,2,0h0a1.43,1.43,0,0,0,.13-1.87Z"/><path id="_路径_40" data-name="&lt;路径&gt;" class="cls-15" d="M987.94,454l-4.13,10.39a.21.21,0,0,0,.38.19l5.59-9.69a1,1,0,0,0-.31-1.34h0A1,1,0,0,0,987.94,454Z"/><path id="_路径_41" data-name="&lt;路径&gt;" class="cls-15" d="M992.06,451l1.72-3a1.66,1.66,0,0,0-.54-2.27,1.61,1.61,0,0,0-2.31.8l-1.3,3.27a1.34,1.34,0,0,0,.49,1.6l0,0A1.34,1.34,0,0,0,992.06,451Z"/><path id="_路径_42" data-name="&lt;路径&gt;" class="cls-15" d="M998.28,466.78l-12.64.28a.21.21,0,0,0,0,.42L998.17,469a1.11,1.11,0,0,0,1.25-1.08v0A1.11,1.11,0,0,0,998.28,466.78Z"/><path id="_路径_43" data-name="&lt;路径&gt;" class="cls-15" d="M1004.83,466.63l-1.83,0a1.46,1.46,0,0,0-1.43,1.45v0a1.46,1.46,0,0,0,1.28,1.45l1.9.24a1.62,1.62,0,0,0,1.81-1.64A1.67,1.67,0,0,0,1004.83,466.63Z"/><path id="_路径_44" data-name="&lt;路径&gt;" class="cls-15" d="M983.93,469.77a.21.21,0,0,0-.4.15l3,10.32a1,1,0,0,0,1.22.68h0a1,1,0,0,0,.63-1.36Z"/><path id="_路径_45" data-name="&lt;路径&gt;" class="cls-15" d="M991.84,487.35l-1.31-2.91a1.37,1.37,0,0,0-1.74-.72h0a1.38,1.38,0,0,0-.85,1.67l.85,3a1.68,1.68,0,0,0,2,1.2A1.62,1.62,0,0,0,991.84,487.35Z"/></g></g></g></g></g></svg>