<svg xmlns="http://www.w3.org/2000/svg" viewBox="0 0 841.58 581.64"><defs><style>.cls-1{fill:#f2b034;}.cls-2{fill:#3db2c0;}.cls-3{fill:#dd5727;}.cls-4{fill:#3aacdd;}.cls-5{fill:#f06b24;}.cls-6{fill:#c83057;}.cls-7{fill:#eec23c;}.cls-8{fill:#7ea43e;}.cls-9{fill:#378095;}.cls-10{fill:#ca3d27;}.cls-11{fill:#447c3a;}.cls-12{fill:#588b3f;}.cls-13{fill:#e28029;}.cls-14{fill:#ffe089;}.cls-15{fill:#ffb67a;}</style></defs><title>3-4-领奖装饰</title><g id="图层_2" data-name="图层 2"><g id="中间层"><g id="_3-4-领奖装饰" data-name="3-4-领奖装饰"><path class="cls-1" d="M236.48,163.56c-3.74,0-3.75,5.81,0,5.81S240.23,163.56,236.48,163.56Z"/><path class="cls-1" d="M321.66,190.56c-3.74,0-3.75,5.82,0,5.82S325.41,190.56,321.66,190.56Z"/><path class="cls-1" d="M506.59,206.07c-3.74,0-3.75,5.81,0,5.81S510.34,206.07,506.59,206.07Z"/><path class="cls-1" d="M136.67,324.83c-3.74,0-3.75,5.81,0,5.81S140.42,324.83,136.67,324.83Z"/><path class="cls-1" d="M228.36,329.14c-3.74,0-3.75,5.81,0,5.81S232.1,329.14,228.36,329.14Z"/><path class="cls-1" d="M240.26,400.85c-3.74,0-3.75,5.81,0,5.81S244,400.85,240.26,400.85Z"/><path class="cls-1" d="M266.42,420.23c-3.74,0-3.74,5.81,0,5.81S270.17,420.23,266.42,420.23Z"/><path class="cls-1" d="M141.42,481.28c-3.74,0-3.75,5.81,0,5.81S145.16,481.28,141.42,481.28Z"/><path class="cls-1" d="M155,525.85c-3.74,0-3.74,5.82,0,5.82S158.73,525.85,155,525.85Z"/><path class="cls-1" d="M188.38,474.77c-3.74,0-3.75,5.81,0,5.81S192.13,474.77,188.38,474.77Z"/><path class="cls-1" d="M271.27,529.73c-3.74,0-3.75,5.81,0,5.81S275,529.73,271.27,529.73Z"/><path class="cls-1" d="M304.22,558.8c-3.75,0-3.75,5.82,0,5.82S308,558.8,304.22,558.8Z"/><path class="cls-1" d="M306.23,506.3c-3.74,0-3.75,5.81,0,5.81S310,506.3,306.23,506.3Z"/><path class="cls-1" d="M553.26,558.8c-3.74,0-3.75,5.82,0,5.82S557,558.8,553.26,558.8Z"/><path class="cls-1" d="M601.71,519.07c-3.74,0-3.75,5.81,0,5.81S605.46,519.07,601.71,519.07Z"/><path class="cls-1" d="M650.49,464.23c-3.74,0-3.75,5.81,0,5.81S654.23,464.23,650.49,464.23Z"/><path class="cls-1" d="M626.91,340.77c-3.74,0-3.75,5.81,0,5.81S630.65,340.77,626.91,340.77Z"/><path class="cls-1" d="M603.65,387.28c-3.74,0-3.75,5.81,0,5.81S607.4,387.28,603.65,387.28Z"/><path class="cls-1" d="M612.7,294.74c-3.74,0-3.74,5.81,0,5.81S616.45,294.74,612.7,294.74Z"/><path class="cls-1" d="M635.63,204.13c-3.74,0-3.75,5.81,0,5.81S639.38,204.13,635.63,204.13Z"/><path class="cls-1" d="M730.6,333c-3.75,0-3.75,5.82,0,5.82S734.34,333,730.6,333Z"/><path class="cls-1" d="M544.54,83c-3.74,0-3.75,5.81,0,5.81S548.29,83,544.54,83Z"/><path class="cls-1" d="M322.63,78.15c-3.74,0-3.75,5.82,0,5.82S326.37,78.15,322.63,78.15Z"/><path class="cls-2" d="M232.59,107.75c-3.74,0-3.75,5.81,0,5.81S236.34,107.75,232.59,107.75Z"/><path class="cls-2" d="M550.45,213.82c-3.74,0-3.75,5.82,0,5.82S554.2,213.82,550.45,213.82Z"/><path class="cls-2" d="M686,206.07c-3.74,0-3.75,5.81,0,5.81S689.77,206.07,686,206.07Z"/><path class="cls-2" d="M594,359.18c-3.74,0-3.75,5.81,0,5.81S597.71,359.18,594,359.18Z"/><path class="cls-2" d="M275.14,490c-3.74,0-3.74,5.81,0,5.81S278.89,490,275.14,490Z"/><path class="cls-2" d="M189.87,534.57c-3.74,0-3.75,5.82,0,5.82S193.62,534.57,189.87,534.57Z"/><path class="cls-2" d="M133.66,438.64c-3.74,0-3.74,5.81,0,5.81S137.41,438.64,133.66,438.64Z"/><path class="cls-2" d="M630.78,532.64c-3.74,0-3.74,5.81,0,5.81S634.53,532.64,630.78,532.64Z"/><path class="cls-2" d="M702.49,334c-3.74,0-3.74,5.82,0,5.82S706.24,334,702.49,334Z"/><path class="cls-2" d="M514.16,84.4c-3.75,0-3.75,5.81,0,5.81S517.9,84.4,514.16,84.4Z"/><path class="cls-3" d="M121.07,209.94c-3.74,0-3.75,5.82,0,5.82S124.81,209.94,121.07,209.94Z"/><path class="cls-3" d="M76.82,519.07c-3.74,0-3.75,5.81,0,5.81S80.57,519.07,76.82,519.07Z"/><path class="cls-3" d="M183.48,383.6c-3.74,0-3.74,5.81,0,5.81S187.23,383.6,183.48,383.6Z"/><path class="cls-3" d="M247.5,279.51c-3.74,0-3.75,5.81,0,5.81S251.25,279.51,247.5,279.51Z"/><path class="cls-3" d="M253.93,235.85c-3.74,0-3.75,5.81,0,5.81S257.68,235.85,253.93,235.85Z"/><path class="cls-3" d="M659.86,192.5c-3.75,0-3.75,5.82,0,5.82S663.6,192.5,659.86,192.5Z"/><path class="cls-3" d="M569.73,515.19c-3.74,0-3.74,5.82,0,5.82S573.48,515.19,569.73,515.19Z"/><path class="cls-3" d="M535.3,495.81c-3.75,0-3.75,5.82,0,5.82S539,495.81,535.3,495.81Z"/><path class="cls-3" d="M721.87,523c-3.74,0-3.74,5.81,0,5.81S725.62,523,721.87,523Z"/><path class="cls-3" d="M715.09,363.05c-3.74,0-3.75,5.82,0,5.82S718.84,363.05,715.09,363.05Z"/><path class="cls-3" d="M213.64,257.14c-3.74,0-3.75,5.81,0,5.81S217.39,257.14,213.64,257.14Z"/><path class="cls-3" d="M239.29,544.27c-3.74,0-3.75,5.81,0,5.81S243,544.27,239.29,544.27Z"/><path class="cls-3" d="M289.78,70.4c-3.74,0-3.75,5.82,0,5.82S293.53,70.4,289.78,70.4Z"/><path class="cls-4" d="M256.53,265.63s-10.86,3-16.31-4.07L235.78,265a21.32,21.32,0,0,0,20.09,7Z"/><path class="cls-4" d="M246.86,367.15s-10.86,3-16.31-4.07l-4.45,3.41a21.34,21.34,0,0,0,20.09,7Z"/><path class="cls-4" d="M587.73,443.9s-10.86,3-16.31-4.07L567,443.25a21.29,21.29,0,0,0,20.08,7Z"/><path class="cls-4" d="M150.82,147.72s-6.64,13.44-18.49,12.56l-.56,7.42A28.35,28.35,0,0,0,156.5,154Z"/><path class="cls-5" d="M575.12,247.76s14.57.73,18.37,11.66l6.85-2.38a27.6,27.6,0,0,0-21.82-16.78Z"/><path class="cls-5" d="M671.59,292.12S660.31,284,663,273.23l-6.72-1.65A26.31,26.31,0,0,0,665,296.35Z"/><path class="cls-6" d="M676,345.33s-5.8,14.3-18,14.3v7.67a29.18,29.18,0,0,0,24.34-16Z"/><path class="cls-6" d="M498.62,56.8S486.06,63,477.79,55.58l-4.63,5.19a26.46,26.46,0,0,0,26.1,3.9Z"/><path class="cls-6" d="M602.81,533.63s-12.55,6.17-20.83-1.22l-4.63,5.19a26.46,26.46,0,0,0,26.1,3.9Z"/><path class="cls-7" d="M109.13,391.46S97.7,385.2,98.89,374.94l-6.43-.75a24.65,24.65,0,0,0,11,22Z"/><path class="cls-7" d="M226,64.34S211.22,62,208.55,50.48l-7.23,1.68a28.2,28.2,0,0,0,20.36,19.43Z"/><path class="cls-7" d="M183.58,563.1s-13.09-7.17-11.72-18.92l-7.36-.85a28.21,28.21,0,0,0,12.6,25.16Z"/><path class="cls-8" d="M160.86,227s.34,13.58-9.53,17.88l2.69,6.19a25.69,25.69,0,0,0,14-21.44Z"/><path class="cls-8" d="M640,102.22s-12.26-5.83-11.62-16.58l-6.74-.4a25.67,25.67,0,0,0,12.76,22.22Z"/><path class="cls-8" d="M125.71,285.71s-12.63,5-20.07-2.76l-4.88,4.66a25.69,25.69,0,0,0,25,5.77Z"/><path class="cls-8" d="M234.84,483.78s.34,13.58-9.53,17.88l2.69,6.18a25.67,25.67,0,0,0,14-21.43Z"/><path class="cls-8" d="M342.1,28.93s.31,12.53-8.8,16.5l2.48,5.72a23.74,23.74,0,0,0,13-19.79Z"/><polygon class="cls-7" points="257.63 131.46 248.53 130.01 246.57 138.66 253.33 141.75 257.63 131.46"/><polygon class="cls-7" points="337.01 520.65 327.92 519.2 325.95 527.85 332.71 530.94 337.01 520.65"/><polygon class="cls-7" points="714.33 39.31 706.14 43.54 709.7 51.66 716.97 50.14 714.33 39.31"/><polygon class="cls-7" points="248.92 419.83 240.74 424.06 244.3 432.18 251.57 430.66 248.92 419.83"/><polygon class="cls-8" points="593.17 292.07 584.99 296.3 588.54 304.42 595.82 302.9 593.17 292.07"/><polygon class="cls-8" points="187.89 306.44 179.71 310.67 183.26 318.79 190.54 317.26 187.89 306.44"/><polygon class="cls-8" points="157.04 465.57 148.86 469.8 152.42 477.92 159.69 476.4 157.04 465.57"/><polygon class="cls-4" points="705.96 246.89 699.31 253.26 705.01 260.05 711.56 256.54 705.96 246.89"/><polygon class="cls-4" points="683.91 568.49 677.26 574.85 682.96 581.64 689.51 578.13 683.91 568.49"/><polygon class="cls-8" points="254.33 201.72 246.16 205.95 249.71 214.07 256.99 212.54 254.33 201.72"/><polygon class="cls-6" points="164.43 56.91 155.41 55.07 153.08 63.63 159.69 67 164.43 56.91"/><polygon class="cls-6" points="609.36 162.9 600.49 160.43 597.55 168.79 603.92 172.63 609.36 162.9"/><polygon class="cls-6" points="667.33 447.95 658.46 445.48 655.53 453.85 661.89 457.69 667.33 447.95"/><polygon class="cls-5" points="381.11 67.13 372.93 71.36 376.48 79.48 383.76 77.96 381.11 67.13"/><polygon class="cls-5" points="629.05 40.04 619.85 40.3 619.53 49.16 626.75 50.94 629.05 40.04"/><polygon class="cls-5" points="169.19 361.85 159.98 362.12 159.67 370.98 166.88 372.76 169.19 361.85"/><path class="cls-9" d="M69.28,22.2s5.55,16.17,23.14,12.71c0,0,.27,5.07-1.56,6.79S73.21,41.44,69.28,22.2Z"/><path class="cls-9" d="M78.78,40.2s.66,8.7,12.87,11.15l-1.5,6.54s-10.58-.5-11.32-12.17Z"/><path class="cls-9" d="M76.74,54.38s-3.14,9.8,16.58,15.76l-1.62,7S73,72.89,74.42,62.13Z"/><path class="cls-9" d="M71,73.87s-1.36,8.69,9.53,15.72c0,0,3.52,1.52,1.61,6L80,100.44s-10.75-7.3-13.41-16.75A12.85,12.85,0,0,1,71,73.87Z"/><path class="cls-2" d="M92.42,34.91s.27-2.64-.37-2.76C90.92,31.93,76.78,29,78.83,45.72c0,0,1.31-9.46,11.6-3.77C90.43,42,92.5,40.56,92.42,34.91Z"/><path class="cls-2" d="M91.51,52s.52-2.07-.83-2.38S81.29,48,76.86,54.07c0,0-2.79,6.76-2.42,8.81a8,8,0,0,1,6-5.72c5.07-1.33,8.12-.63,9.75.73Z"/><path class="cls-2" d="M93.32,70.14S78,64.59,68.73,76.28c0,0-3.55,4.84-1.85,8,0,0-.2-14.13,24.82-7.13Z"/><path class="cls-2" d="M82.47,91.82s-.61,1.69-5.3,1.14-13.51.83-18.19,8c0,0,9.07-6.52,21.05-.49C80,100.44,83.38,94.66,82.47,91.82Z"/><path class="cls-2" d="M77.11,11.38a91.43,91.43,0,0,1,7.28-9.9L77.94,0A17.31,17.31,0,0,1,76.5,1.59c-4.42,4.22-9,16.5-6.65,23.25a31.53,31.53,0,0,0,5.82,10.39S69.67,23.08,77.11,11.38Z"/><path class="cls-10" d="M191.88,105.76s-2.87,6.72,13.88,13.76,15.71,19.76,15.9,21.82c0,0,.85-6.44-8.54-11.54s-18.05-6.58-21.22-14.59C191.9,115.21,189,109.4,191.88,105.76Z"/><path class="cls-10" d="M202.75,161.85s7.28,12.37,28.38,5.84l3.19,6.34s-17,4.94-28.45-.62C205.87,173.41,201.41,164.8,202.75,161.85Z"/><path class="cls-3" d="M194.15,76.08S202.4,82,198,91.72s-8.1,13.66-7.81,17.48,2.84,8.41,2.84,8.41a26.8,26.8,0,0,1,5-13.33C204.7,95,206,84.19,197.41,75Z"/><path class="cls-3" d="M216.82,186.61s13.3-11.31,14.31-18.92l3.19,6.34s-1.42,9.64-13,18Z"/><path class="cls-3" d="M219.94,132.13s3.41,7,2.49,11.77-6.61,8.49-12.23,16.95-4.33,12.56-4.33,12.56-4.47-8.48-2.92-12.23,6.84-11.07,10.09-14.61S221.54,136.94,219.94,132.13Z"/><path class="cls-11" d="M600.67,129.12s9.58-13.91,21.35-.72c10,11.24-9.19,31.11-11.08,32.8,0,0,11.19-11.32,9.79-23.86s-17.64-12.9-21,.47C599.69,137.81,598.3,134.55,600.67,129.12Z"/><path class="cls-11" d="M610.94,161.2s-12.8,11.87-4.78,24.19a71.86,71.86,0,0,1,10,25.72l2.18-8.47s.42-5.64-5-15.17C609.39,180.63,602.28,173.9,610.94,161.2Z"/><path class="cls-11" d="M601.79,198.37A10.28,10.28,0,0,1,612,205.75c2.68,8-.8,19-4.86,24.07,0,0,10.15-35.08-12.34-27.78A9.17,9.17,0,0,1,601.79,198.37Z"/><path class="cls-11" d="M643.65,96.06l-3-.77a25.71,25.71,0,0,0,1.16,6.9c3.45,11.33-.1,21.15-1.29,25.19,0,0,5.69-13.61,4.91-22.95A41.1,41.1,0,0,0,643.65,96.06Z"/><path class="cls-12" d="M645,112s-3.09,23-27,27.86c0,0-16,3-17.38-10.72,0,0-5,10.6,4.45,14.49s25.63,1.15,35.43-16.23C640.55,127.38,645,115.64,645,112Z"/><path class="cls-12" d="M618.32,202.64s-2.74,11.37-15.77,6.27-.76-10.54-.76-10.54a9.33,9.33,0,0,0-8.2,5.91c-2.86,7.45,6.89,11.49,12.94,12.76s9.4-5.11,9.4-5.11Z"/><path class="cls-12" d="M611.06,222.42a22,22,0,0,1-21.83,12.77s-3.74,2.95-3.23,7.14C586.36,245.29,603.76,243.53,611.06,222.42Z"/><path class="cls-13" d="M799.05,95.55s-1.73,12.86-17.73,11.15c0,0-1.22-1.18-6.45,8,0,0,4.67-2.21,9-1.44s7.38.81,12-4.28c5.33-5.89,6.84-10.44,6.84-10.44Z"/><path class="cls-13" d="M786.26,123.89s-19.14-3.29-29.56,3c0,0-4.83,5.09-5.16,8.78,0,0,12.44-10.49,30.86-4.52C782.4,131.17,786.24,125.5,786.26,123.89Z"/><path class="cls-13" d="M766,151.41a40.79,40.79,0,0,0-36.6,3l-4.65,8.29s20.18-13.09,36.87-6A16.25,16.25,0,0,0,766,151.41Z"/><path class="cls-1" d="M781.32,106.7s-3.4,2.11-.62,7.18,7.39,7.07,5,11.47-3.3,5.82-3.3,5.82a11.18,11.18,0,0,0-2.46-4.5c-2.18-2.75-7.47-6.73-5.07-12C774.87,114.66,778,108.34,781.32,106.7Z"/><path class="cls-1" d="M756.7,126.91s-1.17,18.56,9.3,24.5c0,0-2.87,5.06-4.86,5.43s-8-8.08-9.57-20.72C751.57,136.12,750.79,133.73,756.7,126.91Z"/><path class="cls-1" d="M729.4,154.42s-1.94,11.05,14.43,23c0,0-4.25,3.65-11.57-.6S719.63,164.25,729.4,154.42Z"/><g id="_编组_" data-name="&lt;编组&gt;"><g id="_编组_2" data-name="&lt;编组&gt;"><path id="_路径_" data-name="&lt;路径&gt;" class="cls-14" d="M306.8,110.32l1.73,23.94a.24.24,0,0,0,.48,0l1.74-23.94a2,2,0,0,0-2-2.13h0A2,2,0,0,0,306.8,110.32Z"/><path id="_路径_2" data-name="&lt;路径&gt;" class="cls-14" d="M333.07,125.11,311.7,136a.24.24,0,0,0,.18.44l22.73-7.73a2,2,0,0,0,1.18-2.65h0A2,2,0,0,0,333.07,125.11Z"/><path id="_路径_3" data-name="&lt;路径&gt;" class="cls-14" d="M329.69,155.06l-18.4-15.41a.24.24,0,0,0-.33.34l16,17.91a2,2,0,0,0,2.9.06h0A2,2,0,0,0,329.69,155.06Z"/><path id="_路径_4" data-name="&lt;路径&gt;" class="cls-14" d="M300.78,163.63l7-22.95a.24.24,0,0,0-.45-.17L297.1,162.2a2,2,0,0,0,1.07,2.7h0A2,2,0,0,0,300.78,163.63Z"/><path id="_路径_5" data-name="&lt;路径&gt;" class="cls-14" d="M281.63,140.35l23.87-2.47a.24.24,0,0,0,0-.48l-24-1a2,2,0,0,0-2.06,2h0A2,2,0,0,0,281.63,140.35Z"/></g><g id="_编组_3" data-name="&lt;编组&gt;"><path id="_路径_6" data-name="&lt;路径&gt;" class="cls-15" d="M287.78,143.25a1.6,1.6,0,0,0-1.2,1.88,1.54,1.54,0,0,0,2.08,1.05l.75-.3a1.48,1.48,0,0,0,.81-1.9h0a1.46,1.46,0,0,0-1.74-.9Z"/><path id="_路径_7" data-name="&lt;路径&gt;" class="cls-15" d="M305.55,138.78l-11.92,3a1.1,1.1,0,0,0-.74,1.49h0a1.09,1.09,0,0,0,1.42.58l11.37-4.69A.2.2,0,0,0,305.55,138.78Z"/><path id="_路径_8" data-name="&lt;路径&gt;" class="cls-15" d="M306.57,135.88l-6.81-9a1,1,0,0,0-1.54-.1h0a1,1,0,0,0,0,1.44l8,7.93A.2.2,0,0,0,306.57,135.88Z"/><path id="_路径_9" data-name="&lt;路径&gt;" class="cls-15" d="M295.52,121.26a1.61,1.61,0,0,0-2.2-.37,1.54,1.54,0,0,0-.16,2.33l1.66,1.63a1.37,1.37,0,0,0,1.93,0h0a1.38,1.38,0,0,0,.12-1.8Z"/><path id="_路径_10" data-name="&lt;路径&gt;" class="cls-15" d="M313.21,125.59l-3.94,9.93a.2.2,0,0,0,.36.17l5.34-9.25a1,1,0,0,0-.29-1.28h0A1,1,0,0,0,313.21,125.59Z"/><path id="_路径_11" data-name="&lt;路径&gt;" class="cls-15" d="M317.14,122.67l1.65-2.85a1.6,1.6,0,0,0-.52-2.17,1.53,1.53,0,0,0-2.2.76l-1.25,3.13a1.29,1.29,0,0,0,.47,1.53h0A1.28,1.28,0,0,0,317.14,122.67Z"/><path id="_路径_12" data-name="&lt;路径&gt;" class="cls-15" d="M323.08,137.77,311,138a.2.2,0,0,0,0,.4l12,1.47a1.06,1.06,0,0,0,1.19-1v0A1.07,1.07,0,0,0,323.08,137.77Z"/><path id="_路径_13" data-name="&lt;路径&gt;" class="cls-15" d="M329.34,137.63l-1.75,0a1.39,1.39,0,0,0-1.36,1.38v0a1.4,1.4,0,0,0,1.22,1.4l1.82.22a1.54,1.54,0,0,0,1.72-1.57A1.58,1.58,0,0,0,329.34,137.63Z"/><path id="_路径_14" data-name="&lt;路径&gt;" class="cls-15" d="M309.38,140.63a.2.2,0,0,0-.38.14l2.81,9.85a1,1,0,0,0,1.17.65h0a1,1,0,0,0,.61-1.29Z"/><path id="_路径_15" data-name="&lt;路径&gt;" class="cls-15" d="M316.93,157.42l-1.25-2.78A1.31,1.31,0,0,0,314,154h0a1.31,1.31,0,0,0-.8,1.59l.81,2.85a1.59,1.59,0,0,0,1.91,1.14A1.54,1.54,0,0,0,316.93,157.42Z"/></g></g><g id="_编组_4" data-name="&lt;编组&gt;"><g id="_编组_5" data-name="&lt;编组&gt;"><path id="_路径_16" data-name="&lt;路径&gt;" class="cls-14" d="M30.07,256.32,32,282.63a.26.26,0,0,0,.52,0l1.91-26.31A2.18,2.18,0,0,0,32.24,254h0A2.18,2.18,0,0,0,30.07,256.32Z"/><path id="_路径_17" data-name="&lt;路径&gt;" class="cls-14" d="M58.94,272.57l-23.48,12a.26.26,0,0,0,.2.48l25-8.5a2.18,2.18,0,0,0,1.3-2.91h0A2.19,2.19,0,0,0,58.94,272.57Z"/><path id="_路径_18" data-name="&lt;路径&gt;" class="cls-14" d="M55.23,305.5,35,288.56a.26.26,0,0,0-.37.37l17.57,19.69a2.17,2.17,0,0,0,3.18.06h0A2.17,2.17,0,0,0,55.23,305.5Z"/><path id="_路径_19" data-name="&lt;路径&gt;" class="cls-14" d="M23.46,314.92l7.72-25.23a.26.26,0,0,0-.49-.19L19.41,313.35a2.18,2.18,0,0,0,1.18,3h0A2.17,2.17,0,0,0,23.46,314.92Z"/><path id="_路径_20" data-name="&lt;路径&gt;" class="cls-14" d="M2.4,289.33l26.24-2.72a.27.27,0,0,0,0-.53L2.27,285A2.18,2.18,0,0,0,0,287.23H0A2.17,2.17,0,0,0,2.4,289.33Z"/></g><g id="_编组_6" data-name="&lt;编组&gt;"><path id="_路径_21" data-name="&lt;路径&gt;" class="cls-15" d="M9.17,292.52a1.74,1.74,0,0,0-1.32,2.06,1.69,1.69,0,0,0,2.29,1.16l.81-.34a1.62,1.62,0,0,0,.9-2.09h0a1.63,1.63,0,0,0-1.91-1Z"/><path id="_路径_22" data-name="&lt;路径&gt;" class="cls-15" d="M28.7,287.6l-13.1,3.3a1.21,1.21,0,0,0-.82,1.64h0a1.21,1.21,0,0,0,1.57.63L28.84,288A.22.22,0,0,0,28.7,287.6Z"/><path id="_路径_23" data-name="&lt;路径&gt;" class="cls-15" d="M29.82,284.42l-7.48-9.9a1.12,1.12,0,0,0-1.7-.11h0a1.12,1.12,0,0,0,0,1.58l8.83,8.72A.22.22,0,0,0,29.82,284.42Z"/><path id="_路径_24" data-name="&lt;路径&gt;" class="cls-15" d="M17.67,268.35a1.74,1.74,0,0,0-2.41-.41,1.69,1.69,0,0,0-.18,2.56l1.82,1.79a1.5,1.5,0,0,0,2.12,0h0a1.51,1.51,0,0,0,.14-2Z"/><path id="_路径_25" data-name="&lt;路径&gt;" class="cls-15" d="M37.12,273.1,32.78,284a.22.22,0,0,0,.4.19L39.05,274a1.07,1.07,0,0,0-.32-1.4l0,0A1.06,1.06,0,0,0,37.12,273.1Z"/><path id="_路径_26" data-name="&lt;路径&gt;" class="cls-15" d="M41.44,269.89l1.81-3.13a1.74,1.74,0,0,0-.57-2.38,1.68,1.68,0,0,0-2.42.83l-1.37,3.44a1.41,1.41,0,0,0,.51,1.68h0A1.4,1.4,0,0,0,41.44,269.89Z"/><path id="_路径_27" data-name="&lt;路径&gt;" class="cls-15" d="M48,286.49l-13.26.29a.22.22,0,0,0,0,.44l13.17,1.63a1.17,1.17,0,0,0,1.32-1.13v0A1.17,1.17,0,0,0,48,286.49Z"/><path id="_路径_28" data-name="&lt;路径&gt;" class="cls-15" d="M54.85,286.34l-1.93,0a1.53,1.53,0,0,0-1.49,1.52v0a1.52,1.52,0,0,0,1.34,1.53l2,.25A1.68,1.68,0,0,0,56.66,288,1.74,1.74,0,0,0,54.85,286.34Z"/><path id="_路径_29" data-name="&lt;路径&gt;" class="cls-15" d="M32.91,289.63a.22.22,0,0,0-.42.15l3.09,10.84a1,1,0,0,0,1.28.71h0a1,1,0,0,0,.67-1.42Z"/><path id="_路径_30" data-name="&lt;路径&gt;" class="cls-15" d="M41.21,308.09,39.83,305a1.44,1.44,0,0,0-1.82-.76h0a1.45,1.45,0,0,0-.89,1.75l.9,3.14a1.74,1.74,0,0,0,2.1,1.25A1.69,1.69,0,0,0,41.21,308.09Z"/></g></g><g id="_编组_7" data-name="&lt;编组&gt;"><g id="_编组_8" data-name="&lt;编组&gt;"><path id="_路径_31" data-name="&lt;路径&gt;" class="cls-14" d="M816.18,364.36l1.52,20.85a.21.21,0,0,0,.41,0l1.51-20.85a1.72,1.72,0,0,0-1.72-1.85h0A1.73,1.73,0,0,0,816.18,364.36Z"/><path id="_路径_32" data-name="&lt;路径&gt;" class="cls-14" d="M839.07,377.24l-18.62,9.52a.21.21,0,0,0,.17.38l19.79-6.73a1.73,1.73,0,0,0,1-2.31h0A1.72,1.72,0,0,0,839.07,377.24Z"/><path id="_路径_33" data-name="&lt;路径&gt;" class="cls-14" d="M836.12,403.33l-16-13.43a.21.21,0,0,0-.29.3l13.92,15.6a1.72,1.72,0,0,0,2.52.06h0A1.73,1.73,0,0,0,836.12,403.33Z"/><path id="_路径_34" data-name="&lt;路径&gt;" class="cls-14" d="M811,410.8l6.11-20a.2.2,0,0,0-.38-.15l-8.94,18.9a1.73,1.73,0,0,0,.93,2.35h0A1.74,1.74,0,0,0,811,410.8Z"/><path id="_路径_35" data-name="&lt;路径&gt;" class="cls-14" d="M794.26,390.52l20.79-2.16a.21.21,0,0,0,0-.41l-20.89-.87a1.71,1.71,0,0,0-1.79,1.78h0A1.72,1.72,0,0,0,794.26,390.52Z"/></g><g id="_编组_9" data-name="&lt;编组&gt;"><path id="_路径_36" data-name="&lt;路径&gt;" class="cls-15" d="M799.62,393a1.38,1.38,0,0,0-1,1.64,1.34,1.34,0,0,0,1.81.92l.65-.27a1.3,1.3,0,0,0,.71-1.66h0a1.3,1.3,0,0,0-1.52-.78Z"/><path id="_路径_37" data-name="&lt;路径&gt;" class="cls-15" d="M815.1,389.14l-10.39,2.62a1,1,0,0,0-.64,1.3h0a1,1,0,0,0,1.24.5l9.9-4.08A.18.18,0,0,0,815.1,389.14Z"/><path id="_路径_38" data-name="&lt;路径&gt;" class="cls-15" d="M816,386.63l-5.93-7.85a.9.9,0,0,0-1.35-.08h0a.89.89,0,0,0,0,1.25l7,6.91A.18.18,0,0,0,816,386.63Z"/><path id="_路径_39" data-name="&lt;路径&gt;" class="cls-15" d="M806.36,373.89a1.38,1.38,0,0,0-1.91-.32,1.33,1.33,0,0,0-.14,2l1.44,1.43a1.2,1.2,0,0,0,1.68,0h0a1.19,1.19,0,0,0,.11-1.56Z"/><path id="_路径_40" data-name="&lt;路径&gt;" class="cls-15" d="M821.77,377.66l-3.43,8.65a.17.17,0,0,0,.31.15l4.65-8.06a.84.84,0,0,0-.25-1.11h0A.84.84,0,0,0,821.77,377.66Z"/><path id="_路径_41" data-name="&lt;路径&gt;" class="cls-15" d="M825.2,375.11l1.43-2.48a1.39,1.39,0,0,0-.45-1.89,1.35,1.35,0,0,0-1.92.66l-1.08,2.73a1.1,1.1,0,0,0,.4,1.33h0A1.12,1.12,0,0,0,825.2,375.11Z"/><path id="_路径_42" data-name="&lt;路径&gt;" class="cls-15" d="M830.37,388.27l-10.51.23a.18.18,0,0,0,0,.35l10.44,1.29a.93.93,0,0,0,1-.9v0A.93.93,0,0,0,830.37,388.27Z"/><path id="_路径_43" data-name="&lt;路径&gt;" class="cls-15" d="M835.82,388.15l-1.52,0a1.21,1.21,0,0,0-1.19,1.2v0a1.22,1.22,0,0,0,1.06,1.22l1.59.19a1.34,1.34,0,0,0,1.5-1.36A1.38,1.38,0,0,0,835.82,388.15Z"/><path id="_路径_44" data-name="&lt;路径&gt;" class="cls-15" d="M818.43,390.76a.17.17,0,0,0-.32.12l2.44,8.58a.83.83,0,0,0,1,.57h0a.83.83,0,0,0,.53-1.13Z"/><path id="_路径_45" data-name="&lt;路径&gt;" class="cls-15" d="M825,405.38,823.92,403a1.14,1.14,0,0,0-1.44-.6h0a1.15,1.15,0,0,0-.71,1.39l.71,2.48a1.38,1.38,0,0,0,1.67,1A1.34,1.34,0,0,0,825,405.38Z"/></g></g></g></g></g></svg>