<svg xmlns="http://www.w3.org/2000/svg" xmlns:xlink="http://www.w3.org/1999/xlink" viewBox="0 0 1197.2 447.79"><defs><style>.cls-1{fill:none;}.cls-2{clip-path:url(#clip-path);}.cls-3{fill:#c63424;}.cls-4{fill:#4146a5;}.cls-5{fill:#fad9be;}.cls-6{fill:#3fd8d4;}.cls-7{fill:#00bbc1;}.cls-8{fill:#0099af;}.cls-9{fill:#815384;}.cls-10{fill:#724973;}.cls-11{fill:#683969;}.cls-12{fill:#ea5d70;}.cls-13{fill:#de4b5e;}.cls-14{fill:#ce3457;}.cls-15{fill:#f23b3b;}.cls-16{fill:#ff6e6e;}.cls-17{fill:#d83030;}.cls-18{fill:#ccb63a;}.cls-19{fill:#e9e244;}.cls-20{fill:#e4942e;}.cls-21{fill:#a1d324;}.cls-22{fill:#b2ef3c;}.cls-23{fill:#87aa18;}</style><clipPath id="clip-path"><polygon class="cls-1" points="20.49 143.22 1197.2 143.22 1197.2 445.96 162.24 445.96 20.49 143.22"/></clipPath></defs><title>4-1-背景+地面</title><g id="图层_2" data-name="图层 2"><g id="中间层"><g id="_4-1-背景_地面" data-name="4-1-背景+地面"><g class="cls-2"><g id="_4-1-BG" data-name="4-1-BG"><rect class="cls-3" y="175.44" width="1197.2" height="174.72"/><rect class="cls-4" y="143.61" width="1197.2" height="38.27"/><rect class="cls-4" y="348.81" width="1197.2" height="98.98"/></g></g><g id="_4-2-气球" data-name="4-2-气球"><g id="_编组_" data-name="&lt;编组&gt;"><path id="_复合路径_" data-name="&lt;复合路径&gt;" class="cls-5" d="M367.65,157.3c-1.78.54-3.79,1.19-5.65.67-2-.56-2.94-2.63-2.87-4.6a5.09,5.09,0,0,1,0-.55,6.65,6.65,0,0,0,4.58-2.31,6.1,6.1,0,0,0,1.56-4.79,2.23,2.23,0,0,0-2.92-1.92c-1.85.66-3.26,3.66-4,5.28a11.58,11.58,0,0,0-.68,1.68,4.85,4.85,0,0,1-3.5-2.78c-1.79-3.93.53-8.25,2.16-11.79,1.77-3.88,3.6-7.73,5.32-11.63a24.72,24.72,0,0,0,2.45-10.78c-.2-8-4-15.42-5.59-23.2a54.52,54.52,0,0,1,1.77-27.7c.4-1.2-1.49-1.71-1.88-.52A56.35,56.35,0,0,0,357,92.85c1.21,5.12,3.22,10,4.37,15.16a27,27,0,0,1,.72,8.06,24.94,24.94,0,0,1-2.38,8.07c-2.22,4.93-4.68,9.77-6.73,14.77-1.53,3.74-2.34,8.58.7,11.83a6.64,6.64,0,0,0,3.55,2,8,8,0,0,0,.14,2.67,5.91,5.91,0,0,0,3.51,4.26c2.34.94,5,.24,7.28-.46C369.37,158.81,368.86,156.93,367.65,157.3Zm-5.37-10.89c1.38-1.3,1.25.35.87,1.38a4.68,4.68,0,0,1-3.42,3,15.94,15.94,0,0,1,1.07-2.1A11,11,0,0,1,362.28,146.41Z"/><g id="_编组_2" data-name="&lt;编组&gt;"><path id="_路径_" data-name="&lt;路径&gt;" class="cls-6" d="M361.73,70.14l-3.73.23-3.73-.23s-3.79,4.19-2.21,5.74c1.25,1.24,3.72,1.6,5.94,1.6s4.69-.36,5.94-1.6C365.51,74.33,361.73,70.14,361.73,70.14Z"/><g id="_编组_3" data-name="&lt;编组&gt;"><ellipse id="_路径_2" data-name="&lt;路径&gt;" class="cls-7" cx="358" cy="35.89" rx="31.73" ry="35.89"/><path id="_路径_3" data-name="&lt;路径&gt;" class="cls-6" d="M353.9,25c-.84,5.95-5.51,10.21-10.45,9.51s-8.25-6.07-7.41-12,5.51-10.2,10.44-9.51S354.73,19.08,353.9,25Z"/><path id="_路径_4" data-name="&lt;路径&gt;" class="cls-8" d="M375,5.59a39.42,39.42,0,0,1,4.37,18.18c0,19.82-14.21,35.89-31.73,35.89a28.94,28.94,0,0,1-17-5.59c5.51,10.59,15.7,17.71,27.36,17.71,17.52,0,31.72-16.07,31.72-35.89C389.72,23.15,383.85,12,375,5.59Z"/></g></g></g><g id="_编组_4" data-name="&lt;编组&gt;"><g id="_编组_5" data-name="&lt;编组&gt;"><path id="_路径_5" data-name="&lt;路径&gt;" class="cls-9" d="M407.5,90.45l-3.47.2-3.48-.2s-3.52,3.9-2.06,5.34c1.17,1.15,3.48,1.5,5.54,1.5s4.37-.35,5.53-1.5C411,94.35,407.5,90.45,407.5,90.45Z"/><g id="_编组_6" data-name="&lt;编组&gt;"><ellipse id="_路径_6" data-name="&lt;路径&gt;" class="cls-10" cx="404.03" cy="58.53" rx="29.56" ry="33.44"/><ellipse id="_路径_7" data-name="&lt;路径&gt;" class="cls-9" cx="391.89" cy="47.24" rx="10.13" ry="8.4" transform="translate(290.58 428.74) rotate(-82)"/><path id="_路径_8" data-name="&lt;路径&gt;" class="cls-11" d="M419.88,30.3A36.75,36.75,0,0,1,424,47.24c0,18.47-13.24,33.44-29.56,33.44a27,27,0,0,1-15.85-5.21C383.67,85.34,393.17,92,404,92c16.32,0,29.56-15,29.56-33.44C433.59,46.66,428.12,36.24,419.88,30.3Z"/></g></g><path id="_路径_9" data-name="&lt;路径&gt;" class="cls-5" d="M415.14,172.75A5.13,5.13,0,0,0,410,168c-1.41.08-1.53,2.3-.11,2.22,3.13-.17,3.86,3.73,1.74,5.53-2.29,1.94-5.46,1.11-7.65-.52-4.06-3-5.73-8.36-5.87-13.22-.33-11.36,6.53-21,9.36-31.65a43.39,43.39,0,0,0,.64-19.3c-.26-1.41-2.43-.93-2.16.48a43,43,0,0,1-2.11,22.91c-2.4,6.59-5.79,12.9-7.21,19.82-1.11,5.42-1.16,11.31,1.15,16.45,2.15,4.78,7.41,10,13.11,8C413.35,177.77,415.38,175.48,415.14,172.75Z"/></g><g id="_编组_7" data-name="&lt;编组&gt;"><path id="_路径_10" data-name="&lt;路径&gt;" class="cls-5" d="M376.91,195.92c1.12-.63,2,1.14.91,1.77-2.23,1.26-2.58,4.31-1.5,6.46,1.39,2.76,4.91,3.21,7.56,2.18,7.14-2.78,6-12,3.41-17.55-2.83-6-7.69-11.21-8.32-18.08-.67-7.25,2.64-13.95,5.41-20.42a39.45,39.45,0,0,0,3.49-11.9,37.92,37.92,0,0,0-1.45-12.66c-.32-1.24,1.62-1.66,1.94-.43a40.36,40.36,0,0,1,1.54,12.59,37.83,37.83,0,0,1-3.28,12.19c-3.29,7.85-8,16.55-4.52,25.17,3,7.36,9.25,13.3,9.27,21.71,0,6.28-4.56,12.82-11.48,11.79a7,7,0,0,1-6-5.71A6.62,6.62,0,0,1,376.91,195.92Z"/><g id="_编组_8" data-name="&lt;编组&gt;"><path id="_路径_11" data-name="&lt;路径&gt;" class="cls-12" d="M390.24,124.15l-2.71.16-2.7-.16s-2.75,3-1.61,4.16c.91.9,2.71,1.17,4.31,1.17s3.41-.27,4.32-1.17C393,127.19,390.24,124.15,390.24,124.15Z"/><g id="_编组_9" data-name="&lt;编组&gt;"><ellipse id="_路径_12" data-name="&lt;路径&gt;" class="cls-13" cx="387.53" cy="99.27" rx="23.04" ry="26.06"/><ellipse id="_路径_13" data-name="&lt;路径&gt;" class="cls-12" cx="378.07" cy="90.47" rx="7.89" ry="6.55" transform="translate(235.88 452.28) rotate(-82)"/><path id="_路径_14" data-name="&lt;路径&gt;" class="cls-14" d="M399.89,77.27a28.68,28.68,0,0,1,3.17,13.2c0,14.39-10.32,26.06-23,26.06a21,21,0,0,1-12.35-4.06c4,7.7,11.4,12.86,19.86,12.86,12.73,0,23-11.66,23-26.06C410.57,90,406.31,81.9,399.89,77.27Z"/></g></g></g></g><g id="_4-3方块" data-name="4-3方块"><rect class="cls-15" x="414.67" y="187.21" width="25.48" height="25.48"/><polygon class="cls-16" points="440.07 187.24 432.97 181.94 407.54 181.94 414.63 187.24 440.07 187.24"/><polygon class="cls-17" points="407.54 207.37 414.63 212.67 414.63 187.15 407.54 181.85 407.54 207.37"/><g id="_4-3方块-2" data-name="4-3方块"><rect class="cls-15" x="432.55" y="184.06" width="43.88" height="43.88"/><polygon class="cls-16" points="476.31 184.12 464.08 174.98 420.26 174.98 432.5 184.12 476.31 184.12"/><polygon class="cls-17" points="420.26 218.79 432.5 227.93 432.5 183.96 420.26 174.83 420.26 218.79"/></g></g><g id="_4-1方块" data-name="4-1方块"><g id="_4-1方块-2" data-name="4-1方块"><rect class="cls-18" x="297.76" y="157.5" width="43.88" height="43.88"/><polygon class="cls-19" points="341.51 157.56 329.28 148.43 285.47 148.43 297.7 157.56 341.51 157.56"/><polygon class="cls-20" points="285.47 192.24 297.7 201.37 297.7 157.41 285.47 148.27 285.47 192.24"/></g><rect class="cls-15" x="325.84" y="179.94" width="43.88" height="43.88"/><polygon class="cls-16" points="369.6 180 357.37 170.87 313.56 170.87 325.79 180 369.6 180"/><polygon class="cls-17" points="313.56 214.68 325.79 223.81 325.79 179.85 313.56 170.72 313.56 214.68"/><rect class="cls-21" x="362.27" y="193.81" width="43.88" height="43.88"/><polygon class="cls-22" points="406.03 193.87 393.8 184.73 349.99 184.73 362.22 193.87 406.03 193.87"/><polygon class="cls-23" points="349.99 228.54 362.22 237.68 362.22 193.71 349.99 184.58 349.99 228.54"/><rect class="cls-18" x="347.61" y="143.77" width="43.88" height="43.88"/><polygon class="cls-19" points="391.36 143.83 379.13 134.69 335.32 134.69 347.55 143.83 391.36 143.83"/><polygon class="cls-20" points="335.32 178.5 347.55 187.64 347.55 143.67 335.32 134.54 335.32 178.5"/></g></g></g></g></svg>