<svg xmlns="http://www.w3.org/2000/svg" xmlns:xlink="http://www.w3.org/1999/xlink" viewBox="0 0 40.62 79.18"><defs><style>.cls-1{fill:#3a1c03;}.cls-2{fill:#4c2906;}.cls-3{fill:#4a7eff;}.cls-4{fill:#3167d3;}.cls-5{fill:#69f4ff;}.cls-6,.cls-7,.cls-8{fill:none;stroke-miterlimit:10;}.cls-6{opacity:0.4;stroke:url(#未命名的渐变_92);}.cls-7{opacity:0.6;stroke:url(#未命名的渐变_92-2);}.cls-8{stroke:url(#未命名的渐变_92-3);}.cls-9{fill:#cffeff;}.cls-10{fill:#fff;}.cls-11{fill:#b8f4f4;}</style><linearGradient id="未命名的渐变_92" x1="8.93" y1="39.59" x2="28.03" y2="39.59" gradientUnits="userSpaceOnUse"><stop offset="0" stop-color="#69f4ff" stop-opacity="0.3"/><stop offset="1" stop-color="#69f4ff"/></linearGradient><linearGradient id="未命名的渐变_92-2" x1="4.37" y1="39.59" x2="33.86" y2="39.59" xlink:href="#未命名的渐变_92"/><linearGradient id="未命名的渐变_92-3" x1="0" y1="39.59" x2="40.62" y2="39.59" xlink:href="#未命名的渐变_92"/></defs><title>1-9-黑科技门装置</title><g id="图层_2" data-name="图层 2"><g id="_1-1-树" data-name="1-1-树"><g id="_1-9-黑科技门装置" data-name="1-9-黑科技门装置"><ellipse class="cls-1" cx="19.6" cy="39.19" rx="6.67" ry="20"/><ellipse class="cls-2" cx="19.44" cy="39.19" rx="5.83" ry="19.48"/><ellipse class="cls-3" cx="18.97" cy="39.59" rx="5.15" ry="18.78"/><path class="cls-4" d="M23.19,39.67c0-7.16-1.52-13.51-3.87-17.56a4.35,4.35,0,0,0-2.81-1.18c-4.46,0-8.08,8.35-8.08,18.66s3.62,18.65,8.08,18.65a4.44,4.44,0,0,0,3-1.34C21.75,52.84,23.19,46.64,23.19,39.67Z"/><path class="cls-5" d="M19.32,22.11a4.35,4.35,0,0,0-2.81-1.18,2.7,2.7,0,0,0-.41.05,4.62,4.62,0,0,1,2.36,1.13c2.35,4.05,3.87,10.4,3.87,17.56,0,7-1.44,13.17-3.68,17.23a4.61,4.61,0,0,1-2.56,1.29,3,3,0,0,0,.42.05,4.44,4.44,0,0,0,3-1.34c2.24-4.06,3.68-10.26,3.68-17.23C23.19,32.51,21.67,26.16,19.32,22.11Z"/><ellipse class="cls-6" cx="18.48" cy="39.59" rx="9.05" ry="21.91"/><ellipse class="cls-7" cx="19.11" cy="39.59" rx="14.24" ry="30.16"/><ellipse class="cls-8" cx="20.31" cy="39.59" rx="19.81" ry="39.09"/><path class="cls-3" d="M14.69,21.41c-3.07,2.75-5.26,9.84-5.26,18.18S11.62,55,14.69,57.77C17.77,55,20,47.9,20,39.59S17.77,24.2,14.69,21.41Z"/><path class="cls-5" d="M13.69,22.13c-3.07,2.64-5.26,9.45-5.26,17.46s2.19,14.81,5.26,17.46C16.77,54.37,19,47.57,19,39.59S16.77,24.81,13.69,22.13Z"/><ellipse class="cls-9" cx="11.6" cy="39.4" rx="2.73" ry="13.41"/><ellipse class="cls-10" cx="10.9" cy="39.4" rx="2.03" ry="10.37"/><path class="cls-11" d="M8.44,40a35.8,35.8,0,0,0,1.74,11.18c.86-.41,1.53-5.67,1.53-12.11,0-5.7-.53-10.47-1.24-11.79a35.22,35.22,0,0,0-2,12.19C8.43,39.61,8.44,39.79,8.44,40Z"/></g></g></g></svg>