<svg xmlns="http://www.w3.org/2000/svg" viewBox="0 0 134.2 229.71"><defs><style>.cls-1{fill:#dfe5f4;}.cls-2{fill:#a7ef35;}.cls-3{fill:#80bc0d;}.cls-4{fill:#cbf47a;}.cls-5{fill:#e54554;}.cls-6{fill:#231f20;opacity:0.2;}.cls-7{fill:#fff;opacity:0.15;}.cls-8{fill:#00edd6;}.cls-9{fill:#00ceb5;}.cls-10{fill:#71ffee;}</style></defs><title>2-1-气球</title><g id="图层_2" data-name="图层 2"><g id="_1-1-树" data-name="1-1-树"><g id="_2-1-气球" data-name="2-1-气球"><path class="cls-1" d="M100.8,114.66c-7.55,8.16-7.11,22.09-3.68,32,1.12,3.22,3.75,10.55,7.84,10.53,2.91,0,6.35-4.3,3.63-6.5-2.33-1.89-5.73,2.22-6.74,3.75-4,6-2,15.49-.17,21.85,2.53,8.91,7.76,16.88,9.44,26.05.81,4.43,0,9-1.3,13.21-1.53,5-5.89,13.91-12.56,12.92-.59-.09-1.88,1.13-1.65,1.16,8.36,1.24,13.77-8.3,16-14.95,5.22-15.28-5.41-28.16-9-42.46a38,38,0,0,1-1-11.59c.08-1.3,1.75-11.58,5.72-8.35,1.49,1.2-.41,4.15-2.27,3.53-1.22-.41-2.2-2.21-2.85-3.22a40,40,0,0,1-3.07-6.14c-4-9.36-4.23-24.24,3.06-32.11.67-.74-1.22,0-1.51.35Z"/><path class="cls-2" d="M134.2,67.64C134,40.81,117.92,19.2,98.36,19.37s-35.23,22.06-35,48.89c.21,24,13.06,43.78,29.75,47.59L90,123.3l15-.14-3-6.83C120.27,114.18,134.42,93.15,134.2,67.64Z"/><path class="cls-3" d="M84.17,112.08a28.66,28.66,0,0,0,9,3.77L90,123.3l15-.14-3-6.83c18.22-2.15,32.37-23.18,32.15-48.69-.11-12.88-3.88-24.54-9.91-33.18C122,57,113.76,98.09,84.17,112.08Z"/><path class="cls-4" d="M91.91,55.8C88.61,68,81.6,76.69,76.24,75.24s-7-12.51-3.72-24.69S82.84,29.66,88.2,31.11,95.21,43.61,91.91,55.8Z"/><path class="cls-1" d="M103.23,116.65a1.26,1.26,0,0,1-1.27,1.24l-9.1-.14a1.25,1.25,0,0,1-1.23-1.27h0a1.26,1.26,0,0,1,1.27-1.24l9.1.14a1.25,1.25,0,0,1,1.23,1.27Z"/><path class="cls-1" d="M60.32,131.05c16,3.89,12.72,24.46,10.67,36.63-.95,5.64-4.74,22.32,6.25,19.07,3.32-1,5.51-7.59,1.17-8.55-5-1.1-4.85,6.48-4.58,9.31.47,4.79,2.13,9.49,3.23,14.15.76,3.23,4.51,16.19-.58,17.71-1.1.33-1.25,2.22.06,1.83,7.52-2.26,3.58-15.25,2.4-20.39-1-4.33-2.61-8.7-3.08-13.12-.1-.9-.17-1.8-.22-2.7,0-.53,0-1.05,0-1.57s.11-.87.16-1.31q.3-2.85,2.91.46c-.41,2.58-3.48,3.38-5.33,2.34-1.16-.65-1.53-2.35-1.74-3.53-.73-4.09.31-8.48,1.07-12.51a115,115,0,0,0,1.88-15.13c.53-10.33-2-21.72-13.37-24.47-1-.26-2.13,1.48-.91,1.78Z"/><path class="cls-5" d="M69.15,69.66C53.49,47.87,27.92,39.47,12,50.88S-4,89.22,11.62,111c14,19.48,35.91,28.25,51.75,21.74l1.75,7.87,12.21-8.78L71,128C84.59,115.73,84,90.38,69.15,69.66Z"/><path class="cls-6" d="M53.88,134.82a28.85,28.85,0,0,0,9.49-2.08l1.75,7.87,12.21-8.78L71,128c13.64-12.25,13.09-37.6-1.8-58.32C61.63,59.2,51.83,51.84,41.92,48.26,53.06,68,70,106.32,53.88,134.82Z"/><path class="cls-7" d="M27.77,84.36c4.33,11.86,3.61,23-1.6,24.92s-12.94-6.17-17.27-18-3.62-23,1.59-24.92S23.44,72.5,27.77,84.36Z"/><path class="cls-1" d="M71.75,127.61a1.25,1.25,0,0,1-.37,1.73l-7.62,5a1.24,1.24,0,0,1-1.73-.36h0a1.26,1.26,0,0,1,.36-1.74l7.62-5a1.26,1.26,0,0,1,1.74.37Z"/><path class="cls-1" d="M72.5,86c-3.86,5.24-4,11.49-3.22,17.74A111.55,111.55,0,0,0,75.06,128c1.07,2.85,5.52,15.76,10,14.89,3.12-.61,4-5.67,2.57-7.8-.1-.14-1.22,1.11-1.3,1.22-5.13,7-3.91,16.13-1.61,23.93a53.67,53.67,0,0,0,5.66,12.6c2.93,4.81,7.1,8.67,9.87,13.59,1.4,2.5,2.37,5.31,1.76,8.15-.66,3.08-3.28,6.8-6.75,6.42-1.59-.18-2.49-2.16-2.78-3.5-.53-2.45,1.71-3.65,3.79-3.66,4.68,0,4.73,6.57,4.33,9.64-.62,4.71-2.3,9.87,2.4,13,.26.17,1.52-1.46,1.45-1.51-6.28-4.16-1.28-12.16-2.4-18.18-.73-3.93-4.35-5.47-7.63-3.48-1.57,1-3.56,3.19-3.42,5.13.34,5.14,4.89,4.54,7.78,1.94,2.36-2.13,5-5.54,4.94-8.86-.07-7.64-7.5-13.59-11.43-19.46-6.34-9.45-12.35-26.44-4.81-36.68l-1.3,1.23c1.27,1.88.63,6.38-2,4-1.53-1.34-2.53-3.47-3.46-5.23a74.12,74.12,0,0,1-6.88-18.08c-2.25-9.9-6.75-23.18-.09-32.23.49-.68-1,.71-1.16.94Z"/><path class="cls-8" d="M94.09,39.81C87.91,13.7,67.46-3.8,48.43.71S19,30,25.16,56.15c5.53,23.33,22.46,39.79,39.59,39.79l-1.39,8L78,100.42l-4.44-6C90.84,88.29,100,64.64,94.09,39.81Z"/><path class="cls-9" d="M55.18,94.25a28.56,28.56,0,0,0,9.57,1.69l-1.39,8L78,100.42l-4.44-6C90.84,88.29,100,64.64,94.09,39.81c-3-12.53-9.23-23.07-17-30.15C79.84,32.18,80.92,74,55.18,94.25Z"/><path class="cls-10" d="M50.23,37.65c-.51,12.62-5.42,22.66-11,22.44s-9.62-10.64-9.11-23.25,5.42-22.66,11-22.44S50.74,25,50.23,37.65Z"/><path class="cls-1" d="M74.51,94.16a1.24,1.24,0,0,1-.94,1.5l-8.86,2a1.27,1.27,0,0,1-1.51-1h0a1.26,1.26,0,0,1,1-1.5l8.86-2a1.24,1.24,0,0,1,1.5.94Z"/></g></g></g></svg>