<svg xmlns="http://www.w3.org/2000/svg" viewBox="0 0 324.7 191.38"><defs><style>.cls-1{fill:#f89712;}.cls-2{fill:#9c38c6;}.cls-3{fill:#802aad;}.cls-4{fill:#fcb316;}.cls-5{fill:#00bbc1;}.cls-6{fill:#0099af;}.cls-7{fill:#0088a7;}.cls-8{fill:#3fd8d4;}.cls-9{fill:#00789e;}.cls-10{fill:#80cc27;}.cls-11{fill:#75b523;}.cls-12{fill:#36c2cc;}.cls-13{fill:#22a7aa;}</style></defs><title>2-10-游戏区礼品</title><g id="图层_2" data-name="图层 2"><g id="_1-1-树" data-name="1-1-树"><g id="_2-10-游戏区礼品" data-name="2-10-游戏区礼品"><g id="_编组_" data-name="&lt;编组&gt;"><path id="_路径_" data-name="&lt;路径&gt;" class="cls-1" d="M64.36,97.5c0-2.44-2.91-4.49-6.91-5.15,2.36-3.29,3-6.8,1.25-8.52s-5.23-1.11-8.52,1.24c-.66-4-2.71-6.9-5.15-6.9s-4.48,2.91-5.14,6.9c-3.29-2.35-6.8-3-8.53-1.24s-1.11,5.23,1.25,8.52c-4,.66-6.91,2.71-6.91,5.15s2.92,4.48,6.91,5.14c-2.36,3.29-3,6.8-1.25,8.52s5.24,1.11,8.53-1.24c.66,4,2.71,6.91,5.14,6.91s4.49-2.92,5.15-6.91c3.29,2.35,6.8,3,8.52,1.24s1.11-5.23-1.25-8.52C61.45,102,64.36,99.93,64.36,97.5Z"/><rect id="_矩形_" data-name="&lt;矩形&gt;" class="cls-2" y="101.74" width="90.07" height="26.33"/><rect id="_矩形_2" data-name="&lt;矩形&gt;" class="cls-2" x="5.27" y="128.06" width="79.54" height="30.39"/><rect id="_矩形_3" data-name="&lt;矩形&gt;" class="cls-3" x="5.27" y="128.06" width="79.54" height="13.16"/><rect id="_矩形_4" data-name="&lt;矩形&gt;" class="cls-4" x="34.09" y="101.74" width="21.88" height="56.72"/><rect id="_矩形_5" data-name="&lt;矩形&gt;" class="cls-2" x="55.97" y="101.74" width="9.62" height="56.72" transform="translate(121.57 260.19) rotate(180)"/><rect id="_路径_2" data-name="&lt;路径&gt;" class="cls-3" x="55.97" y="128.06" width="9.62" height="13.16"/></g><g id="_编组_2" data-name="&lt;编组&gt;"><g id="_编组_3" data-name="&lt;编组&gt;"><g id="_编组_4" data-name="&lt;编组&gt;"><rect id="_矩形_6" data-name="&lt;矩形&gt;" class="cls-5" x="86.33" width="127.25" height="33.48"/><rect id="_矩形_7" data-name="&lt;矩形&gt;" class="cls-6" x="93.77" y="33.48" width="112.37" height="49.84"/><rect id="_矩形_8" data-name="&lt;矩形&gt;" class="cls-7" x="93.77" y="33.48" width="112.37" height="14.18"/></g><g id="_编组_5" data-name="&lt;编组&gt;"><rect id="_矩形_9" data-name="&lt;矩形&gt;" class="cls-8" x="86.33" width="127.25" height="7.83"/><rect id="_矩形_10" data-name="&lt;矩形&gt;" class="cls-8" x="86.33" y="17.84" width="127.25" height="7.83"/></g><g id="_编组_6" data-name="&lt;编组&gt;"><rect id="_矩形_11" data-name="&lt;矩形&gt;" class="cls-9" x="94.29" y="39.8" width="111.85" height="7.83"/><rect id="_矩形_12" data-name="&lt;矩形&gt;" class="cls-7" x="94.29" y="57.64" width="111.85" height="7.83"/><rect id="_矩形_13" data-name="&lt;矩形&gt;" class="cls-7" x="94.29" y="75.49" width="111.85" height="7.83"/></g></g><g id="_编组_7" data-name="&lt;编组&gt;"><g id="_编组_8" data-name="&lt;编组&gt;"><rect id="_矩形_14" data-name="&lt;矩形&gt;" class="cls-10" x="77.34" y="83.32" width="171.14" height="37.2"/><rect id="_矩形_15" data-name="&lt;矩形&gt;" class="cls-10" x="84.78" y="120.51" width="156.26" height="70.87"/><rect id="_矩形_16" data-name="&lt;矩形&gt;" class="cls-11" x="84.78" y="120.51" width="156.26" height="18.6"/></g></g></g><g id="_编组_9" data-name="&lt;编组&gt;"><path id="_复合路径_" data-name="&lt;复合路径&gt;" class="cls-1" d="M312.59,19.46a10,10,0,0,0-6.89-7c-6.12-1.9-12.9,1.75-16.61,5.94a43.65,43.65,0,0,0-6.4,10h-5.26a43.89,43.89,0,0,0-6.39-10c-3.71-4.19-10.5-7.84-16.62-5.94a10,10,0,0,0-6.89,7,14.32,14.32,0,0,0,3.26,12.84c3.36,3.74,8.08,5.4,12.24,6.86l1.6.56a91.63,91.63,0,0,0,12.08,3.47l1.18-5.54,2.17-1,2.18,1,1.18,5.54a91.5,91.5,0,0,0,12.07-3.47l1.6-.56C301.25,37.7,306,36,309.34,32.3A14.31,14.31,0,0,0,312.59,19.46ZM266.76,33.83l-1.66-.58c-3.62-1.27-7.36-2.59-9.66-5.14a8.07,8.07,0,0,1-1.87-7,3.75,3.75,0,0,1,2.71-2.72,6.26,6.26,0,0,1,3.14-.06,13.65,13.65,0,0,1,6.93,4.17c3.21,3.63,5.28,8.13,7.46,12.9l.34.73C271.69,35.49,269.22,34.72,266.76,33.83Zm37.92-5.72c-2.29,2.55-6,3.87-9.66,5.14l-1.65.58c-2.47.89-4.94,1.66-7.39,2.31l.33-.73c2.19-4.77,4.25-9.27,7.46-12.9a13.68,13.68,0,0,1,6.94-4.17,6.27,6.27,0,0,1,3.14.06,3.74,3.74,0,0,1,2.7,2.72A8,8,0,0,1,304.68,28.11Z"/><rect id="_矩形_17" data-name="&lt;矩形&gt;" class="cls-12" x="235.43" y="33.26" width="89.27" height="26.09"/><rect id="_矩形_18" data-name="&lt;矩形&gt;" class="cls-12" x="240.65" y="59.35" width="78.83" height="99.1"/><rect id="_矩形_19" data-name="&lt;矩形&gt;" class="cls-13" x="240.65" y="59.35" width="78.83" height="13.05"/><rect id="_矩形_20" data-name="&lt;矩形&gt;" class="cls-4" x="269.22" y="33.26" width="21.69" height="125.2"/><rect id="_矩形_21" data-name="&lt;矩形&gt;" class="cls-12" x="290.91" y="33.26" width="9.85" height="125.2" transform="translate(591.67 191.71) rotate(180)"/><rect id="_路径_3" data-name="&lt;路径&gt;" class="cls-12" x="290.91" y="59.35" width="9.85" height="99.1"/><rect id="_路径_4" data-name="&lt;路径&gt;" class="cls-13" x="290.91" y="59.35" width="9.85" height="13.05"/></g></g></g></g></svg>