<svg xmlns="http://www.w3.org/2000/svg" xmlns:xlink="http://www.w3.org/1999/xlink" viewBox="0 0 536.98 296.18"><defs><style>.cls-1,.cls-17{fill:none;}.cls-2{fill:#fff;}.cls-3{fill:#6ee1ed;}.cls-4{fill:#6ee5d7;}.cls-5{fill:#3c9e90;}.cls-6{fill:#52b2a6;}.cls-7{fill:#e53ec2;}.cls-8{fill:#ff3171;}.cls-10,.cls-30,.cls-9{opacity:0.63;}.cls-9{fill:url(#Motivo_nuevo_5);}.cls-10{fill:url(#Motivo_nuevo_5-3);}.cls-11{fill:#ce34b1;}.cls-12{fill:#d32668;}.cls-13{fill:#48e5cf;}.cls-14{fill:#4abcac;}.cls-15{fill:#47bab1;}.cls-16{fill:#33998f;}.cls-17{stroke:#000;stroke-miterlimit:10;}.cls-18{fill:#f2d755;}.cls-19{fill:#e5e5e5;}.cls-20{fill:#d3b32d;}.cls-21{fill:#ffed80;}.cls-22{fill:#60d8ca;}.cls-23{opacity:0.16;}.cls-24{fill:#ce3a61;}.cls-25{fill:#f26180;}.cls-26{fill:#2ba08d;}.cls-27{fill:#3abaa8;}.cls-28{fill:#93d142;}.cls-29{fill:#d7ea4e;}.cls-30{fill:url(#Motivo_nuevo_2);}.cls-31{fill:#c9d346;}.cls-32{fill:#8abc3b;}.cls-33{fill:#eacc4b;}.cls-34{fill:#bfea92;}.cls-35{fill:#3aa59b;}.cls-36{fill:#f2cc2f;}.cls-37{fill:#23635d;}.cls-38{fill:#d1b333;}.cls-39{fill:#f4ce2f;}.cls-40,.cls-41,.cls-42{opacity:0.68;}.cls-40{fill:url(#Nueva_muestra_de_motivo_1);}.cls-41{fill:url(#Nueva_muestra_de_motivo_1-3);}.cls-42{fill:url(#Nueva_muestra_de_motivo_1-7);}.cls-43{fill:#c43d67;}.cls-44{fill:#af2e5d;}.cls-45{fill:#ef1b5d;}.cls-46{fill:#f437b0;}.cls-47{opacity:0.54;fill:url(#Nueva_muestra_de_motivo_2);}.cls-48{fill:#ffd252;}</style><pattern id="Motivo_nuevo_5" data-name="Motivo nuevo 5" width="25.66" height="26.56" patternTransform="translate(-29.48 -16.96)" patternUnits="userSpaceOnUse" viewBox="0 0 25.66 26.56"><rect class="cls-1" width="25.66" height="26.56"/><path class="cls-2" d="M12.83,8.28c-6.43,0-6.45,10,0,10S19.28,8.28,12.83,8.28Z"/></pattern><pattern id="Motivo_nuevo_5-3" data-name="Motivo nuevo 5" width="25.66" height="26.56" patternTransform="translate(0.52 -16.98)" patternUnits="userSpaceOnUse" viewBox="0 0 25.66 26.56"><rect class="cls-1" width="25.66" height="26.56"/><path class="cls-2" d="M12.83,8.28c-6.43,0-6.45,10,0,10S19.28,8.28,12.83,8.28Z"/></pattern><pattern id="Motivo_nuevo_2" data-name="Motivo nuevo 2" width="103.14" height="121" patternTransform="translate(-72.59 129.94) scale(0.72 0.74)" patternUnits="userSpaceOnUse" viewBox="0 0 103.14 121"><rect class="cls-1" width="103.14" height="121"/><rect class="cls-2" x="89.51" width="6.63" height="121"/><rect class="cls-2" x="68.89" width="6.63" height="121"/><rect class="cls-2" x="48.26" width="6.63" height="121"/><rect class="cls-2" x="27.63" width="6.63" height="121"/><rect class="cls-2" x="7" width="6.63" height="121"/></pattern><pattern id="Nueva_muestra_de_motivo_1" data-name="Nueva muestra de motivo 1" width="43.96" height="63.24" patternTransform="translate(34.8 15.62) scale(0.56)" patternUnits="userSpaceOnUse" viewBox="0 0 43.96 63.24"><rect class="cls-1" width="43.96" height="63.24"/><polygon class="cls-3" points="41.19 50.01 46.65 56.35 54.97 55.45 50.62 62.6 54.05 70.24 45.91 68.31 39.7 73.93 39.02 65.59 31.76 61.43 39.48 58.2 41.19 50.01"/><polygon class="cls-3" points="-2.77 50.01 2.69 56.35 11.01 55.45 6.66 62.6 10.09 70.24 1.95 68.31 -4.25 73.93 -4.94 65.59 -12.2 61.43 -4.49 58.2 -2.77 50.01"/><polygon class="cls-3" points="19.21 18.39 24.67 24.74 32.99 23.83 28.64 30.99 32.07 38.62 23.93 36.7 17.73 42.32 17.04 33.98 9.78 29.82 17.5 26.58 19.21 18.39"/><polygon class="cls-3" points="41.19 -13.22 46.65 -6.88 54.97 -7.79 50.62 -0.63 54.05 7 45.91 5.08 39.7 10.7 39.02 2.36 31.76 -1.8 39.48 -5.04 41.19 -13.22"/><polygon class="cls-3" points="-2.77 -13.22 2.69 -6.88 11.01 -7.79 6.66 -0.63 10.09 7 1.95 5.08 -4.25 10.7 -4.94 2.36 -12.2 -1.8 -4.49 -5.04 -2.77 -13.22"/></pattern><pattern id="Nueva_muestra_de_motivo_1-3" data-name="Nueva muestra de motivo 1" width="43.96" height="63.24" patternTransform="translate(34.42 15.62) scale(0.56)" patternUnits="userSpaceOnUse" viewBox="0 0 43.96 63.24"><rect class="cls-1" width="43.96" height="63.24"/><polygon class="cls-3" points="41.19 50.01 46.65 56.35 54.97 55.45 50.62 62.6 54.05 70.24 45.91 68.31 39.7 73.93 39.02 65.59 31.76 61.43 39.48 58.2 41.19 50.01"/><polygon class="cls-3" points="-2.77 50.01 2.69 56.35 11.01 55.45 6.66 62.6 10.09 70.24 1.95 68.31 -4.25 73.93 -4.94 65.59 -12.2 61.43 -4.49 58.2 -2.77 50.01"/><polygon class="cls-3" points="19.21 18.39 24.67 24.74 32.99 23.83 28.64 30.99 32.07 38.62 23.93 36.7 17.73 42.32 17.04 33.98 9.78 29.82 17.5 26.58 19.21 18.39"/><polygon class="cls-3" points="41.19 -13.22 46.65 -6.88 54.97 -7.79 50.62 -0.63 54.05 7 45.91 5.08 39.7 10.7 39.02 2.36 31.76 -1.8 39.48 -5.04 41.19 -13.22"/><polygon class="cls-3" points="-2.77 -13.22 2.69 -6.88 11.01 -7.79 6.66 -0.63 10.09 7 1.95 5.08 -4.25 10.7 -4.94 2.36 -12.2 -1.8 -4.49 -5.04 -2.77 -13.22"/></pattern><pattern id="Nueva_muestra_de_motivo_1-7" data-name="Nueva muestra de motivo 1" width="43.96" height="63.24" patternTransform="translate(34.43 15.62) scale(0.56)" patternUnits="userSpaceOnUse" viewBox="0 0 43.96 63.24"><rect class="cls-1" width="43.96" height="63.24"/><polygon class="cls-3" points="41.19 50.01 46.65 56.35 54.97 55.45 50.62 62.6 54.05 70.24 45.91 68.31 39.7 73.93 39.02 65.59 31.76 61.43 39.48 58.2 41.19 50.01"/><polygon class="cls-3" points="-2.77 50.01 2.69 56.35 11.01 55.45 6.66 62.6 10.09 70.24 1.95 68.31 -4.25 73.93 -4.94 65.59 -12.2 61.43 -4.49 58.2 -2.77 50.01"/><polygon class="cls-3" points="19.21 18.39 24.67 24.74 32.99 23.83 28.64 30.99 32.07 38.62 23.93 36.7 17.73 42.32 17.04 33.98 9.78 29.82 17.5 26.58 19.21 18.39"/><polygon class="cls-3" points="41.19 -13.22 46.65 -6.88 54.97 -7.79 50.62 -0.63 54.05 7 45.91 5.08 39.7 10.7 39.02 2.36 31.76 -1.8 39.48 -5.04 41.19 -13.22"/><polygon class="cls-3" points="-2.77 -13.22 2.69 -6.88 11.01 -7.79 6.66 -0.63 10.09 7 1.95 5.08 -4.25 10.7 -4.94 2.36 -12.2 -1.8 -4.49 -5.04 -2.77 -13.22"/></pattern><pattern id="Nueva_muestra_de_motivo_2" data-name="Nueva muestra de motivo 2" width="7.7" height="7.97" patternTransform="translate(4.46 7.12) scale(0.56)" patternUnits="userSpaceOnUse" viewBox="0 0 7.7 7.97"><rect class="cls-1" width="7.7" height="7.97"/><path class="cls-2" d="M3.85,2.48a1.5,1.5,0,0,0,0,3A1.5,1.5,0,0,0,3.85,2.48Z"/></pattern></defs><title>2-2-礼物区</title><g id="图层_2" data-name="图层 2"><g id="_1-1-树" data-name="1-1-树"><g id="_2-2-礼物区" data-name="2-2-礼物区"><path class="cls-1" d="M125.93,57v0h-.46l-1,0h0s.15-.11.31-.25l.26-.21.1-.08c.14-.11.3-.24.48-.4.05.14.09.26.12.37C125.84,56.65,125.89,56.86,125.93,57Z"/><path class="cls-4" d="M178.84,17.18A47,47,0,0,1,166,43.71a42.19,42.19,0,0,1-11.55,8.16l-.38-.06-.67.55h0c-7,3.15-15.9,5.06-27.24,4.67H126l.21-.87c.07-.27.14-.55.2-.83.77-.66,1.74-1.51,2.83-2.54a93.34,93.34,0,0,0,11.91-13.36c8-11.11,13.95-25.89,4.2-39.42C145.39,0,164,9.4,178.84,17.18Z"/><path class="cls-1" d="M126.08,57h0Z"/><path class="cls-1" d="M154.42,51.87l-1,.49.67-.55Z"/><path class="cls-1" d="M124.46,57h0a1.84,1.84,0,0,1,.08-.37,3.44,3.44,0,0,1,.12-.41,1.21,1.21,0,0,1,0-.18c.1-.33.25-.74.44-1.21"/><path class="cls-5" d="M141.19,39.42c-7.29,3.67-11.45,7.92-13.79,11.31,2.24-12.59.79-22.29-2.24-29.65A38.51,38.51,0,0,1,145.39,0C155.14,13.53,149.2,28.31,141.19,39.42Z"/><path class="cls-1" d="M123.18,51.21c.25,1.37.55,2.77.9,4.21l.07.32"/><path class="cls-1" d="M125.75,56.38l-.43.19-.11,0-.29.13-.44.2.26-.28.24-.24.1-.09.5-.49a1.42,1.42,0,0,1,0,.16C125.68,56.15,125.72,56.27,125.75,56.38Z"/><path class="cls-1" d="M129.28,52.78c-1.09,1-2.06,1.88-2.83,2.54,0-.11,0-.22.08-.32C127.26,54.35,128.18,53.6,129.28,52.78Z"/><path class="cls-6" d="M169.74,44.43v14s-5.38-4.87-15.32-6.55A42.19,42.19,0,0,0,166,43.71C167.21,43.89,168.46,44.13,169.74,44.43Z"/><path class="cls-1" d="M126,57.17h-.2L124.48,57"/><path class="cls-1" d="M124.6,57l.4.19h0a.53.53,0,0,1,.1.06l.13.06.28.12,0,0"/><path class="cls-5" d="M169.74,58.42c-12.52,7.45-27.27,4.92-36.45,2a19.2,19.2,0,0,0-6-3.16c5.66.53,18.47,1,26.07-4.93h0l1-.49C164.36,53.55,169.74,58.42,169.74,58.42Z"/><path class="cls-1" d="M126.08,57h0Z"/><path class="cls-6" d="M126,57.24s0-.05,0-.07h0a.39.39,0,0,0,0-.14v0c0-.15-.09-.36-.18-.63,0-.11-.07-.23-.12-.37a1.42,1.42,0,0,0,0-.16c-.11-.3-.24-.66-.42-1.06a21.46,21.46,0,0,0-2-3.58h0c-2.32-3.43-6.49-7.77-13.93-11.51-8-11.12-14-25.9-4.2-39.43a38.43,38.43,0,0,1,20.11,20.81c3,7.36,4.48,17.06,2.24,29.65-.25,1.39-.53,2.81-.87,4.27,0,.1,0,.21-.08.32-.06.28-.13.56-.2.83L126,57h.06"/><path class="cls-1" d="M126,57.17s0,0,0,.07h0l-.12.07-.29.17-.09,0,0,0-.27-.16h0a.41.41,0,0,0-.11-.07l-.1-.06L124.6,57l-.12-.07h0a4.26,4.26,0,0,1,.88,0h0l.3,0h.09l.2,0v0a.39.39,0,0,1,0,.14Z"/><path class="cls-4" d="M124.93,57.23l-.63.09c-11,.38-19.65-1.3-26.5-4.16-.74-.3-1.45-.62-2.14-.95A41,41,0,0,1,84.08,44,43.45,43.45,0,0,1,72.15,19.21C87,11.43,105.05.27,105.05.27c-9.75,13.53-3.81,28.31,4.2,39.43A93.67,93.67,0,0,0,121.14,53c1.19,1.1,2.21,2,3,2.7.07.25.13.5.2.76s.07.31.11.46h0l.12.07Z"/><path class="cls-1" d="M126,57.24l-.87,0H125l-.73,0,.63-.09L124.6,57l-.12-.07h0c0-.15-.08-.31-.11-.46s-.13-.51-.2-.76c.19.15.36.29.52.44l.31.25.07.06.16.13.43.35h0l0,.05.16.13.1.08Z"/><path class="cls-1" d="M126,57.24a.31.31,0,0,1,0-.07"/><path class="cls-6" d="M95.66,52.21C86,54,80.7,58.7,80.7,58.7v-14c1.15-.27,2.28-.48,3.38-.66A41,41,0,0,0,95.66,52.21Z"/><path class="cls-4" d="M126,57.23l-.2-.09-.29-.13a.52.52,0,0,0-.13-.06h0l-.42-.2-.13,0-.05,0-.19-.08-.2-.09c-.07-.26-.13-.51-.2-.76-.8-.69-1.82-1.6-3-2.7,1.2.89,2.18,1.71,2.94,2.38l.64.58.36.34.07.07.17.16.41.41,0,0,.14.14Z"/><path class="cls-1" d="M125.84,57.32l-.32.15-.1.05"/><path class="cls-5" d="M123.16,57.58a19.05,19.05,0,0,0-6,3.16c-9.18,2.87-23.91,5.4-36.43-2,0,0,5.25-4.75,15-6.49.69.33,1.4.65,2.14.95C105.47,58.49,117.67,58.09,123.16,57.58Z"/><path class="cls-1" d="M125.15,57.36h.09c.48-.06.74-.11.74-.11"/><path class="cls-1" d="M126,57.24h0l-.12.07-.29.17-.09,0,0,0-.27-.16h0c-.48.06-1.16.14-2,.22.42-.12.81-.2,1.14-.26l.63-.09H125A4.21,4.21,0,0,1,126,57.24Z"/><ellipse class="cls-5" cx="125.42" cy="56.26" rx="2.81" ry="2.78"/><rect class="cls-7" x="182.12" y="99.19" width="77.95" height="113.52"/><polygon class="cls-7" points="268.5 55.96 268.5 99.19 260.06 99.19 182.12 99.19 182.12 55.96 268.5 55.96"/><rect class="cls-8" x="80.41" y="99.19" width="101.71" height="113.52"/><polygon class="cls-8" points="182.12 55.96 182.12 99.19 80.41 99.19 71.97 99.19 71.97 55.96 182.12 55.96"/><polygon class="cls-9" points="268.5 55.97 268.5 99.2 260.06 99.2 260.06 212.72 182.12 212.72 182.12 55.97 268.5 55.97"/><polygon class="cls-10" points="182.12 55.96 182.12 212.71 80.41 212.71 80.41 99.19 71.97 99.19 71.97 55.96 182.12 55.96"/><rect class="cls-11" x="182.12" y="99.19" width="77.93" height="4.94"/><rect class="cls-12" x="80.37" y="99.19" width="101.75" height="4.94"/><rect class="cls-13" x="115.98" y="55.97" width="19.03" height="156.75"/><rect class="cls-13" x="80.37" y="116.52" width="101.75" height="16.8"/><rect class="cls-14" x="211.67" y="55.96" width="19.03" height="156.75"/><rect class="cls-14" x="182.22" y="116.5" width="77.94" height="16.8"/><path class="cls-15" d="M111.65,189.63c-1.61-.9-.28-2.74,1.31-1.84A101.24,101.24,0,0,0,148.18,200q-1.65-1.6-3.26-3.25a1.59,1.59,0,0,1-.51-.08A138.64,138.64,0,0,1,112,181.43c-1.56-1-.25-2.84,1.31-1.85a135.83,135.83,0,0,0,28.07,13.61,1.45,1.45,0,0,1-.31-.51q-2.56-2.75-5-5.56h0a132.89,132.89,0,0,1-20.93-11.73c-1.53-1-.22-2.89,1.31-1.85a129,129,0,0,0,16.1,9.41c-1.68-2.05-3.29-4.13-4.88-6.23a1.74,1.74,0,0,1-.34-.12,65.77,65.77,0,0,1-11.38-6.76c-1.49-1.1-.18-3,1.31-1.85a63.23,63.23,0,0,0,7.47,4.76c-1.2-1.68-2.36-3.37-3.5-5.07a1.84,1.84,0,0,1-.31-.16l-8.83-5.78c-1.56-1-.24-2.86,1.3-1.84l4.83,3.15c-.51-.81-1-1.62-1.48-2.43a1.59,1.59,0,0,1-.7-.31,99.21,99.21,0,0,1-7.94-6.33c-1.37-1.21.53-2.55,1.89-1.34s2.64,2.25,4,3.31c-2.06-3.63-4-7.32-5.79-11.05-.73-1.54,1.58-2.32,2.32-.76,1.5,3.14,3.12,6.25,4.82,9.33a39.11,39.11,0,0,1,1.26-5.72c.43-1.42,3-.32,2.62,1.1a37.57,37.57,0,0,0-1.54,8.26,1,1,0,0,1-.08.32c.62,1.06,1.25,2.12,1.89,3.17a28.83,28.83,0,0,1,.68-6.05c.32-1.46,2.94-.35,2.62,1.1a27.24,27.24,0,0,0-.47,8.82,1,1,0,0,1-.06.48c1.07,1.64,2.17,3.28,3.3,4.9a69.94,69.94,0,0,1-.72-9.41c0-1.56,2.68-1.07,2.69.49a69.58,69.58,0,0,0,1.29,12.82,1.11,1.11,0,0,1,0,.58c1.46,2,2.94,3.91,4.48,5.82a61.5,61.5,0,0,1-1.61-15.73c0-1.54,2.74-1,2.69.5a61.34,61.34,0,0,0,2.59,19.26,1.32,1.32,0,0,1,.05.47c.82,1,1.66,1.93,2.5,2.88-2.72-9.56-1.63-12.33-1.25-21.62.07-1.54,2.76-1.05,2.7.49-.43,10.56-1.1,14.61,2.53,25.48,1.38,1.47,2.78,2.94,4.22,4.37-3.95-10.4-3.1-20.11-2.44-30.27.1-1.53,2.79-1,2.69.49-.73,11.34-1.09,22.38,4.11,34l0,.08,1.42,1.33a41.48,41.48,0,0,1-.73-23.81c.41-1.43,3-.33,2.62,1.1-2.26,8-1.64,16.76,1.76,25.63a1.25,1.25,0,0,1,.09.47c1.53,1.36,3.07,2.69,4.65,4,1.41,1.17.11,3-1.31,1.85-1.64-1.37-3.25-2.75-4.84-4.16a71.68,71.68,0,0,1-21.78-2.16c-1.72-.44-1.79-2.87-.06-2.43a70.11,70.11,0,0,0,19.19,2.2l-2-1.81a1.19,1.19,0,0,1-.38,0A104.28,104.28,0,0,1,111.65,189.63Z"/><path class="cls-16" d="M91.54,209a55.16,55.16,0,0,1,7.76-4.6s0,0,0,0a34.44,34.44,0,0,1-7.28-4c-1.13-.8.64-2.65,1.75-1.86a32.57,32.57,0,0,0,8.31,4.18c1.31-.12,2.62-.23,3.93-.32a35.11,35.11,0,0,1-8.72-6.93c-.92-1,.83-2.88,1.76-1.86A33.9,33.9,0,0,0,111,202l.14.08c1.34,0,2.68-.09,4-.1a60.11,60.11,0,0,1-11.92-9.08c-1-1,.77-2.83,1.75-1.87a58.53,58.53,0,0,0,15.7,11l2.91.12a68.5,68.5,0,0,1-12.13-11c-.9-1,.85-2.9,1.76-1.86a67,67,0,0,0,15.54,13.19l2.41.22A75.6,75.6,0,0,1,118,189c-.82-1.1,1.29-2.49,2.11-1.4a71.88,71.88,0,0,0,16.09,15.73l2.44.35a51.67,51.67,0,0,1-12.61-16c-.64-1.25,1.46-2.66,2.1-1.4a50,50,0,0,0,15.73,18.26v0c.73.13,1.45.26,2.18.41a73.55,73.55,0,0,1-13.79-19.46c-.62-1.26,1.48-2.67,2.1-1.4a71.88,71.88,0,0,0,16.57,22q1.17.31,2.31.66a92.28,92.28,0,0,1-13.95-21.18c-.61-1.27,1.49-2.68,2.1-1.4A90.25,90.25,0,0,0,157,207.16a1,1,0,0,1,.21,1l.26.09a.77.77,0,0,1,.63.25,31.68,31.68,0,0,1,8.49,5.11c1,.91-.72,2.76-1.76,1.86a29.92,29.92,0,0,0-7.93-4.78,65.05,65.05,0,0,0-27.76,13.92c-1.25,1.05-2.26-.89-1-1.93a67.85,67.85,0,0,1,25-13.38c-.92-.31-1.86-.58-2.81-.83a1,1,0,0,1-.9-.22l0,0c-.53-.14-1.07-.26-1.61-.38a193.44,193.44,0,0,0-21.3,9.47,1.1,1.1,0,1,1-1-1.93q9-4.68,18.31-8.39c-1.93-.36-3.86-.66-5.76-.94a1.41,1.41,0,0,1-.77.7A95.82,95.82,0,0,0,121,215.09c-1.37.86-2.4-1.06-1-1.93a98.84,98.84,0,0,1,14.41-7.59l-.69-.09c-.88-.12-1.77-.22-2.66-.32a82.47,82.47,0,0,0-15.79,8.23c-1.36.9-2.38-1-1-1.93a86.53,86.53,0,0,1,12.09-6.72q-1.39-.11-2.79-.18l0,0a51.35,51.35,0,0,0-16.39,8.51c-1.29,1-2.31-.94-1-1.93a54.26,54.26,0,0,1,11.52-6.79h-3a1.19,1.19,0,0,1-.3.14,53,53,0,0,0-16.22,8.37c-1.31,1-2.33-.95-1-1.93a56.93,56.93,0,0,1,10.72-6.35c-1.65.09-3.31.2-5,.35a1.64,1.64,0,0,1-.29.16,1.52,1.52,0,0,1-.53.39,52.89,52.89,0,0,0-9.49,5.38C91.23,211.82,90.21,209.89,91.54,209Z"/><path class="cls-17" d="M402.48,79.39l-.16.2.06-.25Z"/><path class="cls-18" d="M402.53,78.74a2.13,2.13,0,0,1-.08.32.75.75,0,0,1,0,.16,56,56,0,0,0-9.59-5h0c-15.26-6-21.25,2-21.25,2l-2.1-10.08A25.43,25.43,0,0,1,381.91,64a23.81,23.81,0,0,1,13.66,6.23h0A35.87,35.87,0,0,1,402.53,78.74Z"/><path class="cls-19" d="M395.57,70.19A23.81,23.81,0,0,0,381.91,64a24.53,24.53,0,0,1-2.09-3.66C380.05,60.24,386.87,58.5,395.57,70.19Z"/><path class="cls-2" d="M395.57,70.19c-8.7-11.69-15.52-9.95-15.75-9.89h0a20.16,20.16,0,0,1-.91-14.78h15a14.74,14.74,0,0,0-.65,1.67h0a28.13,28.13,0,0,0-1.29,11.08.17.17,0,0,0,0,.07c0,.21,0,.4.05.61s.05.42.08.64v0c0,.24.06.47.1.7a27.23,27.23,0,0,0,.6,2.9L393,64s0,0,0,0c.07.24.14.48.22.72s.17.54.27.81l.23.63c0,.06.05.13.07.18.08.23.17.45.27.68.21.51.45,1,.7,1.57.09.2.2.41.3.61S395.39,69.86,395.57,70.19Z"/><path class="cls-17" d="M403,79.58c-.15-.08-.29-.18-.44-.28l.07-.08A4.17,4.17,0,0,0,403,79.58Z"/><path class="cls-19" d="M413.24,57.49a44.34,44.34,0,0,0-7.05,11.16c0-.21.07-.43.1-.65s0-.21,0-.32.05-.37.07-.56,0-.26,0-.39.05-.39.07-.58h0c.61-3.64,2.21-10.47,6.1-15.12A26.65,26.65,0,0,1,413.24,57.49Z"/><path class="cls-2" d="M406.68,63.66c0-.27,0-.53,0-.79,0-16.2-12.82-21.08-12.82-21.08l9.12-7.7c5.6,5.93,8.49,11.65,9.64,16.93-3.89,4.65-5.49,11.48-6.1,15.12,0-.29.05-.57.07-.85s0-.44,0-.66,0-.17,0-.25C406.67,64.13,406.68,63.89,406.68,63.66Z"/><path class="cls-17" d="M403,79.58c-.15-.08-.29-.18-.44-.28l.07-.08a1.13,1.13,0,0,1,.1-.13C402.88,79.37,403,79.55,403,79.58Z"/><path class="cls-18" d="M406.69,62.87c0,.26,0,.53,0,.79s0,.47,0,.72c0,.08,0,.16,0,.25s0,.44,0,.66-.05.56-.07.85h0c0,.19,0,.38-.07.58s0,.26,0,.39,0,.37-.07.56,0,.22,0,.32-.06.44-.1.65a64.69,64.69,0,0,0-3.11,8.22c-.07-.15-.13-.3-.19-.44-.14-3-.41-5.76-.77-8.28h0c-2.28-16-8.25-22.62-8.25-22.62H393c-.35-3.84.86-3.73.86-3.73S406.69,46.67,406.69,62.87Z"/><path class="cls-20" d="M420.4,74.12C430.39,67.53,427,62,427,62l1.15-.3.36-.09c.63-.15,1.23-.27,1.81-.37.41-.07.8-.14,1.18-.19h0c.19,0,.36,0,.54-.06.59-.08,1.15-.13,1.66-.17l.51,0a18.59,18.59,0,0,1,3.12,0S442.11,66,420.4,74.12Z"/><path class="cls-18" d="M427,62s3.37,5.52-6.62,12.11h0c-4.55,1.7-10.25,3.53-17.4,5.47,0-.27,0-.55,0-.82l.58-.71.05-.06a60,60,0,0,1,4.61-4.93,52.17,52.17,0,0,1,5.44-4.53l.54-.38,1.06-.73,1.05-.67.07,0c.61-.38,1.22-.74,1.82-1.06l.52-.29c1.12-.6,2.21-1.13,3.28-1.59l.37-.16,1-.38.47-.18.46-.17.45-.16.27-.09.52-.17C426,62.3,426.52,62.15,427,62Z"/><path class="cls-2" d="M437.37,60.83a18.59,18.59,0,0,0-3.12,0l-.51,0c-.51,0-1.07.09-1.66.17-.18,0-.35,0-.54.06h0c-.38,0-.77.12-1.18.19-.58.1-1.18.22-1.81.37l-.36.09L427,62c-.5.14-1,.29-1.52.46l-.52.17-.27.09-.45.16-.46.17-.47.18-1,.38-.37.16c-1.07.46-2.16,1-3.28,1.59l-.52.29c-.6.33-1.21.68-1.82,1.06l-.07,0-1.05.67-1.06.73-.54.38a52.17,52.17,0,0,0-5.44,4.53A60,60,0,0,0,403.61,78l-.05.06-.58.71c-.09.1-.17.21-.26.32a1.13,1.13,0,0,0-.1.13l-.07.08c.15.1.29.2.44.28a5.37,5.37,0,0,1-.51-.19l-.1,0,0-.12a.75.75,0,0,0,0-.16,2.13,2.13,0,0,0,.08-.32c.1-.36.24-.84.41-1.41,0-.15.09-.3.14-.46a64.69,64.69,0,0,1,3.11-8.22,44.34,44.34,0,0,1,7.05-11.16c3.71-4.13,8.49-7.21,14.52-7.3Z"/><path class="cls-20" d="M402.12,68.14c-4.57-12.47-10-10-10.19-9.87a28.13,28.13,0,0,1,1.29-11.08h0a14.74,14.74,0,0,1,.65-1.67S399.84,52.1,402.12,68.14Z"/><path class="cls-21" d="M402.94,77.33c-.17.57-.31,1-.41,1.41a35.87,35.87,0,0,0-7-8.55h0c-.18-.33-.36-.65-.52-1s-.21-.41-.3-.61c-.25-.53-.49-1-.7-1.57-.1-.23-.19-.45-.27-.68,0,0,0-.12-.07-.18l-.23-.63q-.15-.41-.27-.81c-.08-.24-.15-.48-.22-.72,0,0,0,0,0,0l-.21-.74a27.23,27.23,0,0,1-.6-2.9c0-.23-.07-.46-.1-.7v0c0-.22-.05-.43-.08-.64s0-.4-.05-.61a.17.17,0,0,1,0-.07c.21-.1,5.62-2.6,10.19,9.87h0c.36,2.52.63,5.27.77,8.28C402.91,76.72,402.92,77,402.94,77.33Z"/><rect class="cls-14" x="423.57" y="98.94" width="34.13" height="59.98"/><polygon class="cls-14" points="461.4 77.94 461.4 98.94 457.7 98.94 423.57 98.94 423.57 77.94 461.4 77.94"/><rect class="cls-22" x="357.12" y="98.94" width="66.44" height="59.98"/><polygon class="cls-22" points="423.57 77.94 423.57 98.94 357.13 98.94 353.43 98.94 353.43 77.94 423.57 77.94"/><rect class="cls-23" x="357.12" y="98.94" width="100.58" height="3.83"/><rect class="cls-2" x="383.08" y="77.94" width="8.77" height="80.98"/><rect class="cls-19" x="436.84" y="77.94" width="7.09" height="81.21"/><path class="cls-1" d="M406.53,66.15c-.26,1.53-.34,2.5-.34,2.5"/><path class="cls-1" d="M420.4,74.12h0"/><line class="cls-1" x1="402.12" y1="68.15" x2="402.12" y2="68.14"/><path class="cls-1" d="M391.93,58.27h0"/><path class="cls-1" d="M379.82,60.3h0"/><rect class="cls-24" x="432.19" y="45.68" width="14.96" height="127.31" transform="translate(-12.69 134.53) rotate(-17.15)"/><rect class="cls-25" x="446.18" y="39.23" width="28.77" height="127.31" transform="translate(-9.86 140.41) rotate(-17.15)"/><rect class="cls-22" x="464.39" y="37.64" width="2.24" height="127.39" transform="translate(940.49 64.62) rotate(163.3)"/><rect class="cls-22" x="460.56" y="38.91" width="1.44" height="127.65" transform="translate(932.62 68.59) rotate(163.3)"/><rect class="cls-22" x="428.4" y="94.2" width="43.72" height="1.31" transform="translate(908.78 56.32) rotate(163.3)"/><rect class="cls-22" x="429.72" y="98.29" width="43.76" height="1.94" transform="translate(912.68 64.57) rotate(163.3)"/><path class="cls-26" d="M457.84,94.38l.57,1.92a2.45,2.45,0,0,0,.63,1,2.33,2.33,0,0,0,1.45.65,2.2,2.2,0,0,0,.84-.09l1.52-.45a2.31,2.31,0,0,0,1.6-1.72,2.31,2.31,0,0,0,0-1.22l-.57-1.92a2.37,2.37,0,0,0-.89-1.24,2.35,2.35,0,0,0-2-.35l-1.52.46a2.27,2.27,0,0,0-1,.63,2.33,2.33,0,0,0-.45.7A2.37,2.37,0,0,0,457.84,94.38Z"/><path class="cls-22" d="M442.54,91.09l5.6,12.77a20.64,20.64,0,0,1,3.81-3.45A17.53,17.53,0,0,1,459,97.33a2.45,2.45,0,0,1-.63-1l-.57-1.92a2.37,2.37,0,0,1,.08-1.6c-.85-.72-3.9-2.89-9.45-2.68A24.08,24.08,0,0,0,442.54,91.09Z"/><path class="cls-1" d="M459.45,97.27l-.41.06"/><path class="cls-1" d="M458.17,93l-.25-.22"/><path class="cls-22" d="M464.41,94.5a2.31,2.31,0,0,1,0,1.22,17.22,17.22,0,0,1,7-1.39,20.87,20.87,0,0,1,5.81.8l-2.35-13.75A24.35,24.35,0,0,0,469,84.05c-4.55,2.92-5.79,6.35-6.06,7.29a2.37,2.37,0,0,1,.89,1.24Z"/><path class="cls-1" d="M464.45,95.72l-.28.13"/><path class="cls-1" d="M463,91.34l-.06.25"/><path class="cls-27" d="M448.47,90.1c5.55-.21,8.6,2,9.45,2.68a2.33,2.33,0,0,1,.45-.7s-4-7.71-10.27-8.61Z"/><path class="cls-27" d="M462.12,91a2.25,2.25,0,0,1,.83.38c.27-.94,1.51-4.37,6.06-7.29l-1.23-4.11A11.17,11.17,0,0,0,462.12,91Z"/><path class="cls-27" d="M464.1,96.53c.14,0,4.67.33,7.09,3.23l.24-5.43a17.22,17.22,0,0,0-7,1.39A2.35,2.35,0,0,1,464.1,96.53Z"/><path class="cls-1" d="M464.1,96.53h0"/><path class="cls-27" d="M452,100.41l4.16,3.88c.18-2.31,4.26-6.19,4.38-6.31a2.33,2.33,0,0,1-1.45-.65A17.53,17.53,0,0,0,452,100.41Z"/><path class="cls-1" d="M460.5,98h0"/><rect class="cls-28" x="235.48" y="179.02" width="44.03" height="116.87"/><polygon class="cls-28" points="284.28 113.93 284.28 179.02 279.51 179.02 235.48 179.02 235.48 113.93 284.28 113.93"/><rect class="cls-29" x="149.78" y="179.02" width="85.7" height="116.87"/><polygon class="cls-29" points="235.48 113.93 235.48 179.02 149.78 179.02 145.01 179.02 145.01 113.93 235.48 113.93"/><polygon class="cls-30" points="284.2 113.9 284.2 178.99 279.43 178.99 279.43 295.86 235.4 295.86 235.4 113.9 284.2 113.9"/><polygon class="cls-30" points="235.4 113.9 235.4 295.86 149.7 295.86 149.7 178.99 144.93 178.99 144.93 113.9 235.4 113.9"/><rect class="cls-31" x="149.78" y="179.02" width="85.78" height="5.08"/><rect class="cls-32" x="235.48" y="179.02" width="43.83" height="5.08"/><path class="cls-33" d="M209.09,113.24C194.47,104.4,181.52,90.7,174.58,75c-1.93-4.37-3.39-9.32-2.87-14.14.31-2.86,1.67-6.32,5.06-6.44,2.75-.1,5,2,6.68,3.92,5.86,6.91,10.27,15.48,14.06,23.66a209.46,209.46,0,0,1,11,30.26.84.84,0,0,0,1.62-.45A212.73,212.73,0,0,0,199,81.11a137.14,137.14,0,0,0-7.86-14.69c-2.52-4.07-5.24-9-9.15-11.9-2.72-2-6.69-2.67-9.31-.12-2.86,2.78-2.94,7.51-2.51,11.18,1.16,9.9,7.31,19.16,13.28,26.86a91.12,91.12,0,0,0,24.83,22.25.84.84,0,0,0,.85-1.45Z"/><path class="cls-33" d="M209.64,112.82c-2.29-18.83-2-39.18,7.47-56.17,2-3.51,4.53-8.26,8.17-10.27,3.18-1.75,6,.1,6.68,3.38.58,2.73-.23,5.74-.77,8.41A140.35,140.35,0,0,1,223,84.27a216.5,216.5,0,0,1-14.35,27.78.84.84,0,0,0,1.45.85C220.83,95.08,231,75,233.62,54.07c.43-3.37.12-8-3.48-9.66s-7,1.09-9.25,3.7c-6.29,7.45-10.08,17-12.12,26.4C206,87.1,206.41,100.1,208,112.82c.13,1.06,1.81,1.07,1.68,0Z"/><path class="cls-33" d="M209.72,114a72.72,72.72,0,0,1,18.86-19.49,66.17,66.17,0,0,1,11.29-6.33c4.4-1.91,11.42-5.21,15.51-1.33,8.38,8-12.9,16.51-18,18.67a93.7,93.7,0,0,1-29,7.06c-1.07.08-1.08,1.77,0,1.68a95.63,95.63,0,0,0,26.81-6,98.27,98.27,0,0,0,12.3-5.76c3.37-1.86,7.44-3.84,9.81-7,4.23-5.61-.74-12.26-7.15-12-4,.14-8,1.91-11.52,3.5a66,66,0,0,0-10.9,6.15,74.71,74.71,0,0,0-19.46,20.09c-.6.9.85,1.74,1.45.85Z"/><path class="cls-33" d="M209.41,112.62C204.23,104.33,198.8,96,191.8,89.14c-6-5.89-13.83-11.6-22.36-12.83-7.81-1.13-12.06,5.59-9.75,12.76,2.56,8,10.39,14.24,17.58,17.92,9.9,5.06,21,6.35,31.94,7.55,1.07.12,1.06-1.56,0-1.68-10.73-1.18-21.78-2.44-31.48-7.53a39.83,39.83,0,0,1-11.82-9.2c-3.42-4-7.22-10.14-4.15-15.37s10.22-2.47,14.41-.61a47.42,47.42,0,0,1,12.74,8.56c7.73,7.07,13.53,15.93,19.05,24.75.57.92,2,.08,1.45-.84Z"/><path class="cls-33" d="M208.12,113.66C210.4,97,217,79.94,228.38,67.32a31.23,31.23,0,0,1,9.71-7.69c3.26-1.49,6.37-.67,7.49,2.9.79,2.53.2,5.26-.58,7.71-2.66,8.36-7.72,15.91-13.64,22.3-7,7.56-15.4,13.59-23.84,19.44-.88.61,0,2.07.85,1.45,8.67-6,17.33-12.22,24.49-20,6.3-6.89,12.21-15.48,14.33-24.71.8-3.53.66-8.09-2.51-10.48s-6.94-.49-9.76,1.28c-7.91,5-13.63,13.43-18,21.49a94.35,94.35,0,0,0-10.42,32.24c-.15,1.06,1.47,1.52,1.62.45Z"/><path class="cls-33" d="M208.54,113.23c-12.51-15.79-19.2-38.29-15.2-58.29,1-4.85,2.63-10,5.71-13.91,1.81-2.31,4.54-4.23,7.49-2.59,2.65,1.48,3.89,4.6,4.59,7.39,2.56,10.15,3.05,21.33,2.72,31.76a98.91,98.91,0,0,1-7,34.65c-.41,1,1.21,1.43,1.62.45a100.71,100.71,0,0,0,7.13-35.6,137.71,137.71,0,0,0-.76-18.39c-.56-5.32-.92-11.24-3-16.22-1.51-3.67-5.06-7.46-9.42-6.1s-6.69,6.31-8.26,10.08C189.78,57,189.93,69,191.93,80a77.8,77.8,0,0,0,15.43,34.38c.67.85,1.85-.35,1.18-1.19Z"/><rect class="cls-33" x="206.57" y="113.24" width="5.04" height="182.65"/><path class="cls-34" d="M37.47,179.84A84.7,84.7,0,0,1,14.2,177.6a12.81,12.81,0,0,1-3.61-1.28,6.26,6.26,0,0,1-2.74-3.1,2.89,2.89,0,0,1,1.27-3.59,7.35,7.35,0,0,1,4.09-.4C21.25,170.08,29.93,173.88,37.47,179.84Z"/><path class="cls-34" d="M5.05,156c-1.75-.53-3.85-1.39-4.72-3.2A2.77,2.77,0,0,1,1,149.31a5.42,5.42,0,0,1,3.42-.74c7.17.2,15.41,4.52,21.32,11.15l0,.05-.06-.13c-1.77-7.84-.42-15.33,3.65-20.19A4.41,4.41,0,0,1,31.22,138a3,3,0,0,1,2.74.51,4.63,4.63,0,0,1,1.7,3.32,6.91,6.91,0,0,1-.72,3,78.82,78.82,0,0,1-8.84,15.73l-.16-.33A114.6,114.6,0,0,1,5.05,156Z"/><path class="cls-34" d="M46,152.17a7.21,7.21,0,0,1,1.83,5,11.84,11.84,0,0,1-1.24,4.37q-4.1,9.5-8.2,19l0,0c-4.12-9.11-4.77-18.78-1.74-25.91.74-1.74,1.74-3.39,3.44-4.09A5.6,5.6,0,0,1,46,152.17Z"/><path class="cls-34" d="M15.27,129.64c4.2,22.4,15.33,45.24,31.65,64.77,1,1.18,2.27.07,1.29-1.11-15.89-19-26.84-41.33-30.93-63.16C17,128.8,15,128.28,15.27,129.64Z"/><path class="cls-34" d="M22.52,112.72a17.39,17.39,0,0,1,0,6.36c-1,6.75-2.49,13.21-4,19.66l-.15.64c-6.65-8.25-10.09-18.79-8.82-27.18.35-2.27,1.06-4.45,2.65-5.72a5.47,5.47,0,0,1,6.5.12A10.3,10.3,0,0,1,22.52,112.72Z"/><path class="cls-16" d="M526.69,164a67.22,67.22,0,0,1-1.1,10.66l0,0a41.35,41.35,0,0,1,8.88-4.3c1.54-.54,2,2.45.53,3a38.6,38.6,0,0,0-9.8,5.14q-1.22,2-2.46,4a41.73,41.73,0,0,1,12.69-3.64c1.61-.19,2.15,2.79.52,3a40.24,40.24,0,0,0-16.39,5.74l-.17.08c-.9,1.33-1.81,2.65-2.74,3.94a71.54,71.54,0,0,1,17-5.25c1.6-.28,2.13,2.7.52,3a69.9,69.9,0,0,0-21.46,7.58c-.71.92-1.43,1.83-2.15,2.73a81.43,81.43,0,0,1,18.91-4.16c1.61-.16,2.15,2.82.53,3a80.17,80.17,0,0,0-23.42,5.91c-.64.73-1.27,1.47-1.91,2.18a89.26,89.26,0,0,1,22.22-3.27c1.63,0,1.46,3-.15,3a85.2,85.2,0,0,0-26.22,4.7l-2.05,2.11a60.71,60.71,0,0,1,24-1.14c1.63.25,1.48,3.25-.16,3A58.91,58.91,0,0,0,494,217.54h0c-.63.61-1.27,1.22-1.92,1.81a86.57,86.57,0,0,1,28.14.11c1.63.27,1.49,3.27-.16,3a84.26,84.26,0,0,0-32.48.83c-.75.61-1.5,1.2-2.25,1.78a108.3,108.3,0,0,1,29.88,1.13c1.63.29,1.49,3.29-.15,3a106.06,106.06,0,0,0-32.72-.75,1.14,1.14,0,0,1-1.11-.49l-.28.19a.88.88,0,0,1-.67.43,38,38,0,0,1-10.82,4.68c-1.59.38-2.11-2.6-.53-3A35.92,35.92,0,0,0,479,225.92a78.35,78.35,0,0,0,6.33-36.42c-.11-1.93,2.43-1.57,2.54.35A81.68,81.68,0,0,1,483,223.27c.94-.69,1.86-1.41,2.77-2.15a1.15,1.15,0,0,1,.83-.72h.05c.5-.42,1-.86,1.49-1.3a235.81,235.81,0,0,0,6-27.1,1.29,1.29,0,1,1,2.54.34q-1.91,12-4.92,23.48c1.7-1.62,3.34-3.27,4.94-4.92a1.63,1.63,0,0,1-.12-1.23,114.78,114.78,0,0,0,3.58-21.46c.14-1.92,2.69-1.58,2.55.35a118.94,118.94,0,0,1-2.94,19.15l.57-.6c.73-.77,1.45-1.56,2.17-2.36a99.55,99.55,0,0,0,3.3-20.92c.1-1.93,2.65-1.59,2.55.35a104.25,104.25,0,0,1-2.13,16.3c.71-.84,1.42-1.7,2.12-2.56,0,0,0,0,0-.06a61.55,61.55,0,0,0,3.45-21.69c0-1.94,2.52-1.59,2.55.35a65.66,65.66,0,0,1-1.66,15.81c.7-.94,1.38-1.9,2.07-2.86a1.36,1.36,0,0,1,.08-.38,63.89,63.89,0,0,0,3.47-21.45c0-1.94,2.54-1.58,2.55.35a68.27,68.27,0,0,1-1.52,14.74c1.07-1.66,2.13-3.33,3.16-5a1.75,1.75,0,0,1,0-.4,1.82,1.82,0,0,1,0-.77,64.09,64.09,0,0,0,1.57-12.88C524.18,161.69,526.73,162,526.69,164Z"/><path class="cls-15" d="M35.22,161.52a85,85,0,0,1-16.3-16.76A12.66,12.66,0,0,1,17,141.45a6.14,6.14,0,0,1-.09-4.14,2.88,2.88,0,0,1,3.29-1.91,7.32,7.32,0,0,1,3.38,2.34C29.16,143.58,33.33,152.09,35.22,161.52Z"/><path class="cls-15" d="M25.94,122.33c-1-1.53-2-3.55-1.53-5.5a2.76,2.76,0,0,1,2.7-2.21,5.33,5.33,0,0,1,3.08,1.64c5.34,4.79,8.83,13.41,9.05,22.29v.06a.57.57,0,0,1,0-.14c3.71-7.12,9.59-12,15.83-13a4.52,4.52,0,0,1,2.42.1,3.08,3.08,0,0,1,1.76,2.17,4.61,4.61,0,0,1-.85,3.63,6.75,6.75,0,0,1-2.52,1.85A77.89,77.89,0,0,1,39,139.46l.09-.35A114.52,114.52,0,0,1,25.94,122.33Z"/><path class="cls-15" d="M59.6,145.9a7.24,7.24,0,0,1-1.86,5A11.8,11.8,0,0,1,54,153.46l-18.54,9.18a.13.13,0,0,0,0-.06c2.75-9.61,8.51-17.41,15.43-20.89,1.69-.85,3.52-1.45,5.27-.89A5.6,5.6,0,0,1,59.6,145.9Z"/><path class="cls-15" d="M50.75,108.87C39.46,128.67,33.19,153.3,33,178.74c0,1.53,1.68,1.53,1.69,0C34.88,154,41,129.84,52,110.55,52.63,109.37,51.43,107.67,50.75,108.87Z"/><path class="cls-15" d="M67.22,100.65a17.34,17.34,0,0,1-4.14,4.83C58,110,52.64,114,47.29,117.86l-.54.4c.27-10.61,4.46-20.87,10.86-26.44,1.73-1.51,3.68-2.71,5.71-2.66a5.51,5.51,0,0,1,4.89,4.31A10.28,10.28,0,0,1,67.22,100.65Z"/><path class="cls-15" d="M320.54,144.25a10.87,10.87,0,0,1-3.31,3.34c-6.9,4.92-15.86,6.51-24.39,5.92a3.11,3.11,0,0,0,0-.32c0-.21,0-.42.05-.63a30.7,30.7,0,0,1,20.89-14.5c2.46-.43,5.5-.33,6.82,1.74A4.41,4.41,0,0,1,320.54,144.25Z"/><path class="cls-15" d="M288.17,113.2a46.51,46.51,0,0,1-20.89-6.09,8.42,8.42,0,0,1-2.55-2,3.17,3.17,0,0,1-.61-3,3.31,3.31,0,0,1,2.81-1.84,8.68,8.68,0,0,1,3.48.59,45.56,45.56,0,0,1,12.34,6.21,18.33,18.33,0,0,1,5.4,6.09Z"/><path class="cls-15" d="M291.12,152.34l.12.32c-.19.35-.36.7-.52,1.06A22.9,22.9,0,0,1,277.31,149a22,22,0,0,1-7.86-12,3.22,3.22,0,0,1,.22-2.72c.95-1.24,2.94-.77,4.36-.08A34.85,34.85,0,0,1,291.12,152.34Z"/><path class="cls-15" d="M306.77,90.18c1.93-.7,4.52-1,5.64.7,1,1.49.13,3.45-.84,4.94a43.77,43.77,0,0,1-18.7,16l-2.4,1C291.77,104.41,298.59,93.15,306.77,90.18Z"/><path class="cls-15" d="M279.8,119.11a53.75,53.75,0,0,1,10.67,14.8A28.08,28.08,0,0,1,271.15,125a10.53,10.53,0,0,1-2.39-3.68,4.68,4.68,0,0,1,.5-4.2c1.2-1.62,3.6-2,5.56-1.43A12.69,12.69,0,0,1,279.8,119.11Z"/><path class="cls-15" d="M283.76,94.91c-.25-.5-.5-1-.77-1.48a33.12,33.12,0,0,1,11.46-20.87c1.12-.94,2.8-1.83,4-.93s.75,2.45.27,3.69A44.11,44.11,0,0,1,283.76,94.91Z"/><path class="cls-15" d="M318.06,115.68a9.34,9.34,0,0,1-1.88,3.68,40.06,40.06,0,0,1-23.24,15,2,2,0,0,0-.1-.21A36.41,36.41,0,0,1,311,112.4c1.82-.93,4.16-1.68,5.8-.47A3.75,3.75,0,0,1,318.06,115.68Z"/><path class="cls-15" d="M292.56,127.24c-1.27-15.45-5.16-30.84-15.77-42.82-1.14-1.29-3.06.59-1.92,1.88,10.5,11.84,14,27.34,15.1,42.58,1,14.28,2.54,30.75-4.72,43.76A1.35,1.35,0,0,0,287.6,174C295.35,160.08,293.82,142.47,292.56,127.24Z"/><path class="cls-15" d="M277.85,88.55c-6.66-3.46-13.27-9-17-15.36a11.39,11.39,0,0,1-1.7-4.32,4.75,4.75,0,0,1,1.49-4.23,5.13,5.13,0,0,1,5.54-.2,12.1,12.1,0,0,1,4,4.1,46.61,46.61,0,0,1,7.52,19.32C277.79,88.09,277.82,88.32,277.85,88.55Z"/><path class="cls-35" d="M346.52,135.42a82.09,82.09,0,0,0-15.91,7.66q.5-1.68,1-3.36a189.69,189.69,0,0,1,7-18.59c.59-1.35-1.4-2.52-2-1.16-2.92,6.72-6.16,14.08-8.33,21.6A92.1,92.1,0,0,1,319,128.1a1.16,1.16,0,0,0-2,1.17,95.42,95.42,0,0,0,10.52,15A52.51,52.51,0,0,0,325.77,159c.06,1.49,2.37,1.49,2.31,0a43.76,43.76,0,0,1,1.6-12.53,79.12,79.12,0,0,1,17.46-8.77C348.53,137.16,347.93,134.92,346.52,135.42Z"/><path class="cls-36" d="M337.9,115.64c-4.95,0-5,7.7,0,7.7S342.87,115.64,337.9,115.64Z"/><path class="cls-36" d="M317.63,123.34c-5,0-5,7.69,0,7.69S322.59,123.34,317.63,123.34Z"/><path class="cls-36" d="M348.17,132.32c-4.95,0-5,7.7,0,7.7S353.13,132.32,348.17,132.32Z"/><path class="cls-37" d="M389.43,161.26c1.2,1.22.77,3.19.24,4.75q-2.94,8.66-5.89,17.31a19.41,19.41,0,0,1-3-9.66,17.74,17.74,0,0,1,3.1-10.66,5.93,5.93,0,0,1,2.4-2.21A2.94,2.94,0,0,1,389.43,161.26Z"/><path class="cls-37" d="M381.24,183.64l1,1a32.66,32.66,0,0,1-20.56,5.1c-1.47-.12-3.2-.54-3.83-1.91a2.77,2.77,0,0,1,.37-2.72,6.08,6.08,0,0,1,2.19-1.72A22.53,22.53,0,0,1,381.24,183.64Z"/><path class="cls-37" d="M366.13,162.89a107.63,107.63,0,0,0,27.66,33.38c1.24,1,2.52-1,1.28-2a104.56,104.56,0,0,1-26.8-32.38C367.52,160.5,365.38,161.49,366.13,162.89Z"/><path class="cls-37" d="M374,172.84a36.31,36.31,0,0,1-14.7-2.11c-1.48-.53-2.2,1.74-.72,2.27a39.19,39.19,0,0,0,15.93,2.24C376.05,175.14,375.53,172.74,374,172.84Z"/><path class="cls-36" d="M353.9,167.55c-3.8,3.3,1.61,9.55,5.42,6.25S357.71,164.25,353.9,167.55Z"/><path class="cls-36" d="M363.64,157.28c-3.8,3.3,1.61,9.55,5.42,6.25S367.45,154,363.64,157.28Z"/><rect class="cls-38" x="456.54" y="179.91" width="34.14" height="115.98"/><polygon class="cls-38" points="494.37 158.91 494.37 179.91 490.67 179.91 456.54 179.91 456.54 158.91 494.37 158.91"/><polygon class="cls-39" points="456.54 158.91 456.54 179.91 390.09 179.91 386.39 179.91 386.39 158.91 456.54 158.91"/><rect class="cls-39" x="390.09" y="179.91" width="66.44" height="115.98"/><rect class="cls-40" x="456.91" y="180.2" width="34.14" height="115.98"/><polygon class="cls-41" points="494.37 159.2 494.37 180.2 490.67 180.2 456.53 180.2 456.53 159.2 494.37 159.2"/><polygon class="cls-41" points="456.53 159.2 456.53 180.2 390.09 180.2 386.39 180.2 386.39 159.2 456.53 159.2"/><rect class="cls-42" x="390.09" y="180.2" width="66.44" height="115.98"/><rect class="cls-23" x="390.09" y="179.91" width="100.58" height="3.83"/><g id="_编组_" data-name="&lt;编组&gt;"><path class="cls-25" d="M289.46,192a79.16,79.16,0,0,0,13.06-.76h0c-1-.25-1.9-.51-2.8-.79A19.53,19.53,0,0,0,289.46,192Z"/><path class="cls-43" d="M328.16,165.94l-25.64,25.32c35.28-2.13,37.65-27.42,37.65-27.42s-4.95-1-12.06,1.85Z"/><path class="cls-25" d="M274.22,149.41c.19.6-3.82,5.67,26.2,37.61a7.94,7.94,0,0,1,2.09,4.22v0l-16-30h0C280.82,151.18,274.45,149.46,274.22,149.41Z"/><path class="cls-25" d="M302.53,191.19v.07c8.79-15.85,18.32-22.69,25.59-25.57,7.11-2.81,12.06-1.85,12.06-1.85l-5.93-19.3C312.07,152.33,303,189.41,302.53,191.19Z"/><path class="cls-43" d="M274.22,149.4h0c.23.05,6.6,1.77,12.28,11.82,4.61,8.16,16,30,16,30v-.07a69,69,0,0,0-11-53.19Z"/></g><rect class="cls-19" x="350.64" y="191.85" width="46.03" height="104.04"/><rect class="cls-2" x="258.08" y="191.85" width="92.56" height="104.04"/><rect class="cls-25" x="290.16" y="191.85" width="11.2" height="104.04"/><rect class="cls-25" x="258.08" y="233.09" width="92.56" height="11.4"/><rect class="cls-43" x="350.64" y="233.09" width="46.03" height="11.4"/><rect class="cls-43" x="374.09" y="191.85" width="11.2" height="104.04"/><g id="_编组_2" data-name="&lt;编组&gt;"><path class="cls-25" d="M316.85,192.5a145.49,145.49,0,0,1-15.38-.58h0c1.14-.2,2.24-.4,3.3-.61A34.71,34.71,0,0,1,316.85,192.5Z"/><path class="cls-44" d="M271.3,172.67l30.17,19.25c-41.52-1.62-44.32-20.85-44.32-20.85a42,42,0,0,1,14.2,1.41Z"/><path class="cls-44" d="M348.52,178.63c.11,11.23-17.91,13.65-31.67,13.87a34.71,34.71,0,0,0-12.06-1.19c23-4.59,29.11-13.73,29.11-13.73A41.36,41.36,0,0,1,348.52,178.63Z"/><path class="cls-44" d="M326.29,149.11c-.22.46-13.38,27-22.34,39.59-1.54,1.84-2.37,3.05-2.47,3.2s0,0,0,0l10.37-33.82h0C318.52,150.46,326,149.15,326.29,149.11Z"/><path class="cls-25" d="M301.45,191.87l0,0c-10.34-12-21.56-17.25-30.12-19.44a42,42,0,0,0-14.2-1.41l7-14.66C290.23,162.32,301,190.52,301.45,191.87Z"/><path class="cls-25" d="M326.29,149.11h0c-.27,0-7.77,1.35-14.45,9-5.43,6.2-10.31,16.57-10.37,33.82l0,0c-.46-1.44-10.08-32.51,10.75-52.19Z"/><path class="cls-25" d="M347.75,165.06l.77,13.57a41.36,41.36,0,0,0-14.62-1c-8.76.77-20.49,4.1-32.43,14.34,0,0,0,0,0,0,.77-.91,1.6-2,2.47-3.2A68.3,68.3,0,0,1,347.75,165.06Z"/><path class="cls-25" d="M351.56,215s-10.66.9-10.92,9.81a17.55,17.55,0,0,0-.49-1.69c-1.89-5.7-10.12-24.24-38.6-31.22l-.08,0a145.49,145.49,0,0,0,15.38.58C325.57,194.78,337.55,200.72,351.56,215Z"/></g><path class="cls-19" d="M340.15,223.16l-1.5,1.69c-8.77-24.09-35.44-32.41-37.1-32.91C330,198.92,338.26,217.46,340.15,223.16Z"/><path class="cls-1" d="M301.47,191.92l.08,0"/><rect class="cls-45" x="60.9" y="167.59" width="22.74" height="45.14"/><rect class="cls-46" x="17.16" y="167.59" width="43.73" height="45.14"/><rect class="cls-47" x="17.17" y="167.59" width="66.47" height="45.14"/><path class="cls-48" d="M33.9,186.8A10,10,0,0,1,36,182.92c.73-.82,3.52-3.49,4.67-1.68,1,1.57-1,3.12-2.24,3.79a9.49,9.49,0,0,1-4.75,1.18.47.47,0,1,0,0,.93,10.23,10.23,0,0,0,6.57-2.21c1.27-1.06,2.27-3,1-4.46s-3.37-.41-4.6.53A10.65,10.65,0,0,0,33,186.55c-.17.58.76.82.92.25Z"/><path class="cls-48" d="M33.74,186.59a15.29,15.29,0,0,0-5-4c-1.43-.62-3.47-.53-4.07,1.15s.71,2.9,2.07,3.47a12.43,12.43,0,0,0,6.89.41c.6-.12.35-1-.26-.9a12.48,12.48,0,0,1-4.31.13,9.63,9.63,0,0,1-1.57-.36,3.54,3.54,0,0,1-1.4-.76c-.74-1.53-.56-2.36.56-2.48,2.2-.69,5.13,2.52,6.4,4,.4.45,1.08-.21.68-.66Z"/><path class="cls-48" d="M33.37,186.55a8.22,8.22,0,0,0-1.85,3.72,15.15,15.15,0,0,1-.8,2.47,4.18,4.18,0,0,1-1,1.39c-1.05.87-3.34.86-3.05-1.1.09-.58-.84-.83-.92-.24a2.53,2.53,0,0,0,3.77,2.59c3.18-1.49,2.33-5.91,4.49-8.18a.47.47,0,0,0-.68-.65Z"/><path class="cls-48" d="M33.28,187.25c1.77,1.89,1,4.83,2.4,7a4,4,0,0,0,4.26,2,2.83,2.83,0,0,0,2.15-3.32c-.29-1.22-1.73-2.25-2.76-1.1-.41.45.27,1.11.68.66,1,.3,1.4.85,1.08,1.64l-.87,1a2.42,2.42,0,0,1-2.59-.21,5.25,5.25,0,0,1-2-3.52c-.35-1.75-.41-3.45-1.7-4.83-.42-.44-1.1.21-.68.66Z"/><rect class="cls-48" x="32.27" y="167.59" width="2.16" height="45.14"/><rect class="cls-48" x="17.17" y="186.49" width="66.68" height="1.54"/></g></g></g></svg>