<svg xmlns="http://www.w3.org/2000/svg" viewBox="0 0 176.55 302.19"><defs><style>.cls-1{fill:#dfe5f4;}.cls-2{fill:#a7ef35;}.cls-3{fill:#80bc0d;}.cls-4{fill:#cbf47a;}.cls-5{fill:#e54554;}.cls-6{fill:#231f20;opacity:0.2;}.cls-7{fill:#fff;opacity:0.15;}.cls-8{fill:#00edd6;}.cls-9{fill:#00ceb5;}.cls-10{fill:#71ffee;}</style></defs><title>2-9-气球</title><g id="图层_2" data-name="图层 2"><g id="_1-1-树" data-name="1-1-树"><g id="_2-9-气球" data-name="2-9-气球"><path class="cls-1" d="M132.61,150.84c-9.94,10.73-9.36,29.06-4.85,42.06,1.47,4.24,4.93,13.87,10.32,13.84,3.82,0,8.35-5.64,4.77-8.55-3.06-2.48-7.54,2.93-8.87,4.94-5.22,7.86-2.58,20.37-.21,28.75,3.32,11.71,10.2,22.19,12.41,34.26,1.06,5.83,0,11.79-1.71,17.38-2,6.63-7.75,18.3-16.52,17-.77-.12-2.48,1.48-2.18,1.52,11,1.64,18.12-10.92,21.1-19.66,6.86-20.1-7.13-37-11.78-55.85a49.6,49.6,0,0,1-1.27-15.26c.1-1.71,2.29-15.23,7.52-11,2,1.59-.54,5.47-3,4.65-1.6-.54-2.89-2.91-3.75-4.23a52.53,52.53,0,0,1-4-8.08c-5.23-12.32-5.56-31.89,4-42.25.89-1-1.61.06-2,.47Z"/><path class="cls-2" d="M176.54,89c-.31-35.29-21.42-63.72-47.15-63.49s-46.34,29-46,64.31c.28,31.55,17.18,57.6,39.14,62.61l-4.09,9.79L138.2,162l-3.95-9C158.21,150.21,176.84,122.54,176.54,89Z"/><path class="cls-3" d="M110.72,147.45a38.12,38.12,0,0,0,11.78,5l-4.09,9.79L138.2,162l-3.95-9c24-2.83,42.59-30.5,42.29-64.06-.14-16.94-5.1-32.28-13-43.65C160.49,75,149.66,129,110.72,147.45Z"/><path class="cls-4" d="M120.91,73.41c-4.34,16-13.57,27.48-20.61,25.57S91.07,82.53,95.41,66.5,109,39,116,40.92,125.26,57.37,120.91,73.41Z"/><path class="cls-1" d="M135.8,153.46a1.64,1.64,0,0,1-1.67,1.62l-12-.17a1.66,1.66,0,0,1-1.62-1.68h0a1.64,1.64,0,0,1,1.67-1.62l12,.17a1.65,1.65,0,0,1,1.62,1.68Z"/><path class="cls-1" d="M79.35,172.4c21.07,5.11,16.73,32.17,14,48.18-1.24,7.42-6.23,29.37,8.22,25.09,4.37-1.29,7.24-10,1.54-11.24-6.55-1.45-6.38,8.52-6,12.24.61,6.3,2.8,12.48,4.24,18.62,1,4.25,5.94,21.29-.76,23.3-1.44.44-1.64,2.91.08,2.4,9.89-3,4.7-20.06,3.16-26.82-1.31-5.69-3.44-11.44-4-17.26-.13-1.18-.23-2.37-.29-3.55,0-.69,0-1.38,0-2.07l.21-1.72q.39-3.75,3.83.6c-.54,3.4-4.58,4.45-7,3.08-1.53-.86-2-3.08-2.28-4.64-1-5.38.4-11.16,1.4-16.45a149.93,149.93,0,0,0,2.47-19.92c.7-13.59-2.63-28.56-17.58-32.19-1.39-.33-2.81,2-1.2,2.35Z"/><path class="cls-5" d="M91,91.64C70.36,63,36.73,51.92,15.83,66.94S-5.31,117.37,15.29,146c18.42,25.61,47.24,37.15,68.08,28.59L85.67,185l16.07-11.55-8.41-5.07C111.28,152.24,110.55,118.89,91,91.64Z"/><path class="cls-6" d="M70.88,177.36a38,38,0,0,0,12.49-2.74L85.67,185l16.07-11.55-8.41-5.07c18-16.12,17.22-49.47-2.37-76.72C81.08,77.88,68.19,68.2,55.14,63.49,69.81,89.5,92.08,139.87,70.88,177.36Z"/><path class="cls-7" d="M36.53,111c5.69,15.6,4.75,30.28-2.1,32.78s-17-8.12-22.72-23.72S7,89.76,13.8,87.25,30.83,95.38,36.53,111Z"/><path class="cls-1" d="M94.39,167.87a1.65,1.65,0,0,1-.49,2.28l-10,6.53a1.64,1.64,0,0,1-2.28-.48h0a1.65,1.65,0,0,1,.48-2.29l10-6.52a1.66,1.66,0,0,1,2.29.48Z"/><path class="cls-1" d="M95.38,113.17c-5.08,6.9-5.3,15.12-4.25,23.34a146.46,146.46,0,0,0,7.62,31.87c1.4,3.75,7.26,20.74,13.09,19.59,4.1-.8,5.26-7.46,3.37-10.26-.12-.18-1.6,1.46-1.71,1.61-6.75,9.16-5.14,21.22-2.11,31.48a70.19,70.19,0,0,0,7.45,16.58c3.84,6.32,9.34,11.4,13,17.88,1.84,3.27,3.12,7,2.31,10.72-.87,4-4.32,8.94-8.88,8.43-2.09-.23-3.28-2.83-3.66-4.6-.7-3.21,2.25-4.8,5-4.81,6.16,0,6.22,8.65,5.69,12.69-.81,6.19-3,13,3.17,17.09.34.22,2-1.93,1.9-2-8.27-5.48-1.69-16-3.16-23.92-1-5.17-5.72-7.2-10-4.58-2.06,1.26-4.67,4.2-4.5,6.75.46,6.76,6.43,6,10.23,2.55,3.11-2.8,6.55-7.29,6.51-11.65-.09-10.06-9.87-17.89-15-25.6-8.34-12.43-16.25-34.78-6.32-48.25l-1.71,1.61c1.66,2.47.82,8.39-2.69,5.3-2-1.76-3.33-4.56-4.55-6.88a97.48,97.48,0,0,1-9-23.79c-3-13-8.88-30.49-.12-42.39.65-.89-1.3.93-1.52,1.23Z"/><path class="cls-8" d="M123.78,52.37C115.64,18,88.75-5,63.7.93S25,39.52,33.1,73.86c7.28,30.7,29.54,52.34,52.07,52.35l-1.82,10.46,19.26-4.57-5.84-7.88C119.5,116.14,131.52,85,123.78,52.37Z"/><path class="cls-9" d="M72.58,124a37.92,37.92,0,0,0,12.59,2.22l-1.82,10.46,19.26-4.57-5.84-7.88c22.73-8.08,34.75-39.19,27-71.85C119.88,35.89,111.64,22,101.37,12.7,105,42.34,106.46,97.4,72.58,124Z"/><path class="cls-10" d="M66.08,49.53C65.41,66.13,59,79.35,51.66,79.05s-12.66-14-12-30.59S46.81,18.65,54.1,19,66.75,32.94,66.08,49.53Z"/><path class="cls-1" d="M98,123.87a1.63,1.63,0,0,1-1.24,2l-11.66,2.67a1.66,1.66,0,0,1-2-1.24h0a1.66,1.66,0,0,1,1.25-2l11.66-2.66a1.63,1.63,0,0,1,2,1.24Z"/></g></g></g></svg>