<svg xmlns="http://www.w3.org/2000/svg" viewBox="0 0 171.42 372.3"><defs><style>.cls-1{fill:#f6bc9f;}.cls-2{fill:#313033;}.cls-3{fill:#67616d;}</style></defs><title>3-1-演讲区手1</title><g id="图层_2" data-name="图层 2"><g id="_1-1-树" data-name="1-1-树"><g id="_3-1-演讲区手1" data-name="3-1-演讲区手1"><path class="cls-1" d="M162.12,9.83a5.46,5.46,0,0,0-10.26-3.25l-.26.49a5.45,5.45,0,0,0-9.86-4.44,5.43,5.43,0,0,0-9.42,1.11v0l-8,19.25-1.56-2.17a5.38,5.38,0,0,0-1.5-1.43l-14-9a5.48,5.48,0,1,0-5.91,9.22L113,27.18l9.9,23.57-5.7,13.92a5.48,5.48,0,0,0,2.93,7.12l20.59,8.71a5.47,5.47,0,0,0,7.14-2.82l7.16-16.16,10.22-17.76a5.2,5.2,0,0,0,.26-.53s0,0,0-.06v0a5.36,5.36,0,0,0,.29-.94.61.61,0,0,0,0-.11l5.42-27.29a5.48,5.48,0,0,0-9.2-5Z"/><path class="cls-2" d="M134.18,64.89c-11-3-19.32-9.52-23.56.92L54.81,202.94a21.66,21.66,0,0,0-.88,2.69C41,255.65,22.26,315,13.06,330.64A21.52,21.52,0,0,0,2,344.08c-3.25,11.65-3.67,21.71,8.37,25.06,15.11,4.2,24.43,4,30.51.62,9.75-5.4,16.28-16.45,37.86-85.95C88,253.74,95.63,225,97.37,218.39L152.64,82.55c4.56-11.2-4.44-12.22-16-16.84A24.62,24.62,0,0,0,134.18,64.89Z"/><path class="cls-3" d="M150,90.37c.73-1.71,3.14-8.11,3.14-8.11,4.66-11.47,3.56-9.54-16.42-17.25-.82-.31-3.33-1.14-4.14-1.42-13.35-4.74-18.92-8.08-22.44,1.53l-4.78,13.34s38.17,14.12,40.09,15C148.37,94.77,149.25,92.08,150,90.37Z"/></g></g></g></svg>