<svg xmlns="http://www.w3.org/2000/svg" viewBox="0 0 230.34 400.72"><defs><style>.cls-1{fill:#937a5b;}.cls-2{fill:#c5b08d;}.cls-3{fill:#d74527;}.cls-4{fill:#4e352e;}.cls-5{fill:#fcb64e;}.cls-6{fill:#ffdf81;}.cls-7{fill:#cd8d7f;}.cls-8{fill:#e5beac;}.cls-9{fill:#4888e5;}.cls-10{fill:#4ebcf9;}.cls-11{fill:#f7ebe6;}.cls-12{fill:#6d4d41;}.cls-13{fill:#ed472b;}</style></defs><title>3-10-跳舞的人1</title><g id="图层_2" data-name="图层 2"><g id="_1-1-树" data-name="1-1-树"><g id="_3-10-跳舞的人1" data-name="3-10-跳舞的人1"><path class="cls-1" d="M228.82,387c-.54-1.61-.66-1.69-2.76-1.43-1.09.13-1.42,1-2.13,1.62s-1.56.81-2.18,1.52a4,4,0,0,1-.75.71c-1.07,0-2.14.09-3.31.15-1.95.1-3.81-.31-5.77-.18-5,.32-9.22,5.6-6.49,9,2.48,3.13,12.82,2.24,16.51,2a12.54,12.54,0,0,0,3.65-.68,7.33,7.33,0,0,0,4.4-9.14C229.59,389.36,229.17,388,228.82,387Z"/><path class="cls-2" d="M64.42,386.92a23,23,0,0,0,3.89-.05c2.29-1,4.57-2,6.8-3.22a31.32,31.32,0,0,1,11.52-3.49,18,18,0,0,1,5.84-.76l.43,0c7.76-1.12,8.83-5.73,7.52-10.94a71,71,0,0,0-3.27-7.27c-1.5-1.34-3-1.57-4.36-.89-6.41,3.1-12.09,8.72-17.46,13.39a5.2,5.2,0,0,0-1.91,5.4,35.88,35.88,0,0,0-9.8,4.92A1.6,1.6,0,0,0,64.42,386.92Z"/><path class="cls-1" d="M51.15,390.88c3.25-.47,6.49-1,9.7-1.75q2.44-.54,4.86-1.19c1.16-.46,2.32-.94,3.47-1.44.95-6,8.21-12.21,13.9-15.47a15.06,15.06,0,0,1,6.91-3A24.25,24.25,0,0,1,95.25,367a23.09,23.09,0,0,1,2.7-4.24v0c-.37-.73-.74-1.46-1.13-2.18q-2.25-2.79-4.54-5.55a6.8,6.8,0,0,0-3.16-2.13h0c-2-.64-3,2.18-1.38,3.25,5.31,3.47-13.16,12.11-14.43,12.65A95.49,95.49,0,0,0,61,374.62c-10.84,6.52-15,10.21-28.87,5.67-1.41-.46-6.75,7.63-5.56,8.37C34,393.24,43,392.05,51.15,390.88Z"/><path class="cls-2" d="M208.52,396.83a116.31,116.31,0,0,0-8.11-9.51,91.5,91.5,0,0,1-8.43-9.1c-7.37-9.73-9.27,1.3-7.39,5.24a5.3,5.3,0,0,0,1.78,2c3.35,2.39,7.28,3.75,10.66,6.22s3.72,3.25,7,5.69C205.19,398.28,209.32,397.81,208.52,396.83Z"/><path class="cls-1" d="M228.31,384.34a5.72,5.72,0,0,0-2-2.51,12.62,12.62,0,0,0-3.46-2.72,1.55,1.55,0,0,0-2.1,2.1,10.74,10.74,0,0,1,.74,1.55,2.38,2.38,0,0,0,.11,2.39,1.71,1.71,0,0,0,.21.26c-1.23,6-17.51,4.24-21.56.49-2.26-2.09-3.92-4.83-6-7.07-3-3.12-6.79-5.1-6.67-10a1.35,1.35,0,0,0-2-1.16c-.17.13-.29.27-.44.4-.61,1.81-1.2,3.61-1.74,5.43.24,1.56.49,3.12.68,4.68a6.2,6.2,0,0,1,1.39,1.41,10,10,0,0,1,1.44,3.08,8.73,8.73,0,0,1,2.83-1.14c4.66,5.75,7.65,12,15.88,13.68,5.39,1.08,15.57.82,20.35-2.81l.15-.12a3.3,3.3,0,0,0,.3-.22,8.15,8.15,0,0,0,.72-.72h0a6.24,6.24,0,0,0,1.37-2.36A6.34,6.34,0,0,0,228.31,384.34Z"/><path class="cls-1" d="M229.44,388.38a1.41,1.41,0,0,0-2.69,0c-4.28,10.33-21.22,6.87-25.89,2.75-3.44-3-6.19-6.37-10.08-8.87-.92-.6-2-1.4-1.13-.69,7.81,6.3,12.44,20,24.08,18.89C220,399.89,232.28,397,229.44,388.38Z"/><path class="cls-3" d="M189.18,138.9c-10.13-11.07-21.1-17-37.15-13.5-5.28,1.15-6.18,7.29-3.51,11a7.6,7.6,0,0,0,2.63,9.1c3.6,2.57,12.68,8.9,21.85,13.1-4.2,5.66,3.43,13.32,9.52,9.72a1.75,1.75,0,0,0,3.22,1.12,53.94,53.94,0,0,0,4.29-7.07c1.05-2.11,5.47-2.69,6.65-6.16,1.92-5.68-1.59-10.38-5-14.47C190.82,140.74,190,139.8,189.18,138.9Z"/><path class="cls-4" d="M174.14,78.31c-9.11-6.38-18.21-12.86-25.25-21.59-7.59-9.42-10-19.23-11.19-31-.41-4.23-6.26-6.28-8.49-3C99.77,15.77,71.66,40,75.18,69.93a.74.74,0,0,0-.06,1.2C89.48,84,99.84,100.69,117.38,109.81c16.75,8.71,32.46,7.07,48.41-2.7,5.42-3.32,14.51-8.2,16.41-14.85S178.9,81.65,174.14,78.31Z"/><path class="cls-5" d="M82.53,60.45a13.51,13.51,0,0,0-5.93-1.94,1.44,1.44,0,0,0-.82-.24c-.68,0-1.32.06-2,.09-.49,0-1,0-1.47.07a98.91,98.91,0,0,0-36.89,8.78C27.67,70.65-2.25,79.27.13,90.71c2.32,11.16,16,7.85,23.93,5.76,6.43-1,25.08-6.24,30.14-7.84C65.08,85.22,84.46,79.54,86,66.46,86.26,64,84.43,61.68,82.53,60.45Z"/><path class="cls-6" d="M44.88,27.51c-8.16,10.63-23.1,26.49-31.34,37C7.3,72.52.67,80.59.17,91.06c-.13,2.86,2,4.75,4.37,5.74l1.06.44a2.59,2.59,0,0,0,1.46.13c3.47,2.45,8.86.09,12.19-2.73A45.35,45.35,0,0,0,33.4,72.3c3-10.57,6-27.49,12.3-37.21A1.32,1.32,0,0,0,45,33.22c.81-1.41,1.62-2.8,2.46-4.19C48.51,27.32,46,26,44.88,27.51Z"/><path class="cls-6" d="M121,149.17v0a18.52,18.52,0,0,1-5.3-.38,4.61,4.61,0,0,0-4,1.06c-2.4-.1-4.8-.31-7-.33-2.68,0-5.38-.06-8.07,0-42.47-9.23-32.68,10.09-43.41,30.82a176.75,176.75,0,0,0-16,43.22c-3.34,15.33-7.72,28.73-7.66,44.34,0,2.42,6.69,4.68,8.27,3.77,3.07,3.7,8.69,5.39,14.09,3.78,12.08-3.57,14.44-16.92,20.4-26.21,13.06-20.36,28.91,5,48.88-52.31,3.34-9.58-.55-26.77-9.47-33.54-.32-.24-.64-.42-1-.63a6.33,6.33,0,0,0-1.73-5.87h2.36a4.51,4.51,0,0,0,1.88.81,24.88,24.88,0,0,0,8.94.19C127.3,157.17,125.79,149.2,121,149.17Z"/><path class="cls-5" d="M113.24,157.7a24.88,24.88,0,0,0,8.94.19c5.12-.72,3.61-8.69-1.18-8.72v0a18.52,18.52,0,0,1-5.3-.38,4.61,4.61,0,0,0-4,1.06c-2.4-.1-4.8-.31-7-.33-2.68,0-5.38-.06-8.07,0-42.47-9.23-32.68,10.09-43.41,30.82A193.12,193.12,0,0,0,42.64,204.6c9.1,4.23,17.74,12.15,23.43,18.94,8,9.54,6,20.13,2.2,30.46a36.6,36.6,0,0,1-.75,4.33,84.62,84.62,0,0,1,4.76-9.09c13.06-20.36,28.91,5,48.88-52.31,3.34-9.58-.55-26.77-9.47-33.54-.32-.24-.64-.42-1-.63a6.33,6.33,0,0,0-1.73-5.87h2.36A4.51,4.51,0,0,0,113.24,157.7Z"/><path class="cls-6" d="M75,297.55c4.81-12.24.32-26.19-6-37.8-5.1-9.44-9-10.53-20.8-10.1-10.64.39-17.83,10.19-18.58,20.16-1.08,14.35,2.05,19.79,7.69,32.72,7.59,17.43,14,20.92,21.34,52.3.29,1.21,2.4.68,2.4-.65s0-2.88-.07-4.31c.18.13.35.28.54.41,7.61,5.06,24.54,8.14,24.83-.6.19-5.65-8.46-14.59-8.91-19.83C76.36,317,72.11,304.82,75,297.55Z"/><path class="cls-7" d="M93.58,192.21l-.56.6a.11.11,0,0,0,.15.16l.61-.57C93.9,192.28,93.7,192.08,93.58,192.21Z"/><path class="cls-6" d="M166.4,276c-.09-5.86.63-10.28-.38-16a92.19,92.19,0,0,1-.85-20c.63-14.28,9.81-25.57,8.86-39.9s-16.1-37-28.56-44.45a29.83,29.83,0,0,0-7.11-4.15c-25.46-10.43-48.61,36.11-45.63,60.1C94.67,227.23,99,222,103.26,237.06c4.18,14.74,16.73,31,22.64,45.05,4.07,9.68,10.95,20.13,22,20.42a13.6,13.6,0,0,0,11-5.06c.83-.37,1.67-.74,2.5-1.13l-1-1.28c.13-.26.24-.53.36-.8,3.67-3.19,5.09-8.88,4.78-15A6,6,0,0,0,166.4,276Z"/><path class="cls-5" d="M123.89,228.22c11.92-10.5,31.83-6.18,42.13,5.38,2.38-11.42,8.81-21.37,8-33.5-1-14.44-16.1-37-28.56-44.45a29.83,29.83,0,0,0-7.11-4.15c-25.46-10.43-48.61,36.11-45.63,60.1C94.67,227.23,99,222,103.26,237.06c1.84,6.48,5.29,13.25,9.09,20C112.25,246.45,115.79,235.36,123.89,228.22Z"/><path class="cls-6" d="M209.82,360.36c-1.44-5.23-7.44-9.1-10.7-13.36a59.81,59.81,0,0,1-4.75-7.18c-.18-.53-.39-1.06-.56-1.61-3-9.31-7.81-29.41-11.49-38.46-3.08-7.57-8.24-14-13.64-20-3.73-4.18-10.67-15.46-17.15-14.35-15.54,2.67-23.69,23.88-16.62,37.16,8.69,16.3,33.45,38,42.83,53,6,9.56,7.13,14.05,7.13,14.05,2.1,2.61,9.2-3.1,11.91-1.11,3.43,2.52,7.27,2.78,10.9,4.8,1.22.68,2.74-1.08,1.56-2a10.94,10.94,0,0,1-2.07-2.35,2.45,2.45,0,0,0,1.05-3.73c-.62-.84-1.21-1.69-1.8-2.53a8.57,8.57,0,0,0,1.52.22A2,2,0,0,0,209.82,360.36Z"/><path class="cls-8" d="M88.41,349.88c-2.1-5.75-9.49-7.43-11.39-12.53-1.59-4.28-6.63-6-10.15-2.68-2.89,2.72-5.71,5.75-7.18,9.43a1.1,1.1,0,0,0-.93.55c-4.38,7.46-11.33,12.58-17.41,18.49-3.76,3.66-10.27,7.55-11.06,13.25-.62,4.54-5.1,9.17-.88,10.77,5.48,2.08,17.81-2,22.13-4.9,6.52-4.44,12.41-8.75,20.14-10.79,5.66-1.49,11.16-2.4,14.8-7.48A15.3,15.3,0,0,0,88.41,349.88Z"/><path class="cls-8" d="M225.52,380.94c-2-3.91-3.26-1.89-5.68-5.71l-1.15-1.81c-1.92-3.48-4-6.87-6.08-10.27-1.88-3.06-6-8.72-8.56-10.94s-4.51-1.22-8.17-1.74c-4.3-.62-8,3.13-9.95,6.6a17.17,17.17,0,0,0-1.06,12.48c1,3.53,3.16,7,6.57,8.7a7.44,7.44,0,0,0,.83.36c5.12,1.89,0,.61,2,5.71a13.57,13.57,0,0,0,2.7,4.29c4.91,5.43,18.6,6.1,25.19,2.69C226.77,388.89,227.77,385.32,225.52,380.94Z"/><path class="cls-6" d="M150.48,150c-3.59-5-8.52-12.65-13.12-18.29.72-1.3,2.14-24.53,2.79-25.92,5.58-5.71,11-11.62,9.35-20.21a19.36,19.36,0,0,0-8-11.74c-3.7-4.22-8.73-7.58-13.21-10.24A78.48,78.48,0,0,0,94.24,52.74c-5.67-.4-13,.2-18.38,3.23a17.2,17.2,0,0,0-9,4.75C55.81,71.91,65.55,90.61,71,102.63c2.32,5.12-2.71,29.46.94,35.72-8.61,6.23-7.79,22.42-12.17,31.7,5.43.16,15.12-2.53,19-1.07,8.3,3.11,15.66,8.91,21.31,15.67a67.42,67.42,0,0,1,5.25,7.39c-.66-12,26.48-22.11,33.63-25.76,7-3.56,10.72-8.16,22.92,4.42A102.08,102.08,0,0,0,150.48,150Z"/><path class="cls-9" d="M150.48,150c-3.59-5-8.52-12.65-13.12-18.29a11.17,11.17,0,0,0,.43-2.4c-4.46-.34-8.28-3.56-10.1-7.88-4.21-9.95-2-26.65,2.59-36.27,2.19-4.57,5.88-9.92,10.81-11.76a41.52,41.52,0,0,0-5.81-5.17l-.07.1a79.5,79.5,0,0,0-9.84,17.17c-.73,1.75-1.49,3.47-2.24,5.15-5.84,13.09-14.14,25.19-30.19,22.83-16.77-2.46-25.68-14.41-23.08-31C71,75.05,75.11,61.45,82,53.65A23.15,23.15,0,0,0,75.86,56l-.16,0c-3.42,9.07-6.18,18.55-12.37,26.17A131.18,131.18,0,0,0,71,102.63c2.32,5.12-3.2,29.56.46,35.83-8.62,6.22-21.83,30-26.21,39.28,5.43.16,29.64-10.22,33.56-8.76,8.3,3.11,15.66,8.91,21.31,15.67a67.42,67.42,0,0,1,5.25,7.39c-.66-12,26.48-22.11,33.63-25.76,7-3.56,10.72-8.16,22.92,4.42A102.08,102.08,0,0,0,150.48,150Z"/><path class="cls-3" d="M196.7,151.82a.22.22,0,0,1,0-.08c-.1-1.24-2.06-1.73-2.35-.31-.07.36-.15.71-.23,1.07-13.84,8.16-34.34-1.09-45.78-9.89-2.69-2.07-6.08,1-5.93,3.84-6.29,12.27-13,25.62-28.87,26.28-.17,0-.32,0-.49,0-7,.68-15.68-3.57-20.14-7.45s-15.85-13.19-18-18.62c-1.2-3.07-2.68-5.54-3.46-8.19-4.31,2.68-2.42,11.08-7.24,15.22-12.73,10.91-29.48,33.08-20.43,50.89,4.29,8.45,13.76,13.91,23.66,16.48,23.06,9.56,53,4.54,75.23-3.24C171.08,207.86,199.41,185.13,196.7,151.82Z"/><path class="cls-3" d="M157.52,148.56a70.51,70.51,0,0,1-9.19-5.95c-2.69-2.07-6.08,1-5.93,3.84-1.74,3.41-3.53,6.89-5.53,10.16C143.8,158.75,151.07,154.58,157.52,148.56Z"/><path class="cls-10" d="M115.61,175.64c16.68-4.77,28.75-17.8,31.75-33.55-2.47-.82-5.09,1.87-5,4.36.18,3.15-5.39,10.12-7.15,12.71-7.49,11-21.88,15.7-34.77,12.63-16.09-3.83-24.65-18.47-29-33.33a2.93,2.93,0,0,0-2.26,2.77C68.33,160.86,97.47,180.81,115.61,175.64Z"/><path class="cls-5" d="M100.05,49.43a13.86,13.86,0,0,1-5.19-5.23C85.64,58.78,79.67,89.25,100,91.42c10.47,1.11,18.91-8.79,21.92-17.8,2.34-7,4-19.31,1-27.6A19.09,19.09,0,0,1,100.05,49.43Z"/><path class="cls-11" d="M131.75,43.86c-.71-.11-1.28.85-.53,1.25,6.07,3.24,8.61,11,3.27,16.19a10.93,10.93,0,0,1-9.71,2.76c-2.52-.45-4.55-2.09-7-2.52-.47-.08-1,.3-.84.84,1.28,3.83,6.26,5.34,10,5.38a13.85,13.85,0,0,0,10.89-5.15C143,56.12,140.67,45.16,131.75,43.86Z"/><path class="cls-5" d="M151,84.92c-2.25-5.37-16.46-6-18.32.42-3.37,11.73-1.44,26.16.41,44.36.82,8,2,16.42,12.41,16.69,9.76.25,11.63-11.94,12.64-19.32C159.88,114.48,155.92,96.62,151,84.92Z"/><path class="cls-6" d="M175.69,86c.95-4.23-3-7.41-7.33-3.89A9.67,9.67,0,0,0,166,85.54c-4.5,9.12-8.91,18.29-14,27.12-4.45,7.78-11,15.16-11.15,24.55,0,2.68.45,5.53,2.21,7.55,7.54,8.66,21-7.06,23.42-13.56C171.75,117,172.39,100.74,175.69,86Z"/><path class="cls-6" d="M63.6,21.52c-3-4.85-10.17-6.55-14.52-2.42-2.53,2.41-3.94,6-5.54,9a80.69,80.69,0,0,0-5.23,11,1,1,0,0,0,0,.77c-.24.39-.48.79-.7,1.23a2.72,2.72,0,0,0,4.69,2.74c2.27-3.13,6.92-3,10.27-3.59a17.8,17.8,0,0,0,8.58-3.77A11.7,11.7,0,0,0,63.6,21.52Z"/><path class="cls-6" d="M180.62,62.92c-5-2.05-10,.24-14.41,2.67a2.6,2.6,0,0,0-1.31,2.27c.09,2.37.11,4.73.08,7.09a4.09,4.09,0,0,0-3,4.69c.62,5,.8,10,1.55,15l-.06.49a1.07,1.07,0,0,0,.27.91c.05.28.08.57.13.85.4,2.1,3.19,1.64,3.81,0,.42-1.12.79-2.27,1.15-3.41,3,.87,5.7-.29,7.21-3.37,1-2,.88-4.34,2-6.37a24.12,24.12,0,0,1,3.66-4.23c1.66-1.82,3.41-3.84,4.09-6.27A8.36,8.36,0,0,0,180.62,62.92Z"/><path class="cls-9" d="M125.58,111.91c-2.84-11.53-16-15.24-27.16-15.08-6.08.08-11.91,1.77-16.28,6.19a15.78,15.78,0,0,0-1.49,1.74c-.13-7.57-3.34-15.08-7.34-21.67a32.07,32.07,0,0,0-8-5.15c-.8-.35-1.68-.7-2.59-1-2.1,7.47-3.09,15.41-4.11,23-.77,5.76-.92,10.85,4.75,13.92,6,3.27,13.75,3.75,20.12,6.6a76.89,76.89,0,0,1,23.39,16.45,4.92,4.92,0,0,0,6.89,0,60.3,60.3,0,0,0,12.69-20.54A3.93,3.93,0,0,0,125.58,111.91Z"/><path class="cls-10" d="M125.6,111.93l0,0a17,17,0,0,0-8.13-10.67c-.73,1.09-1.5,2.14-2.31,3.13-9.39.12-18.21,1.34-27.54-1.62-8.24-2.61-13.51-7.55-18.18-14.24a35.46,35.46,0,0,1,.44-6c.09-.58.2-1.19.33-1.84a33.5,33.5,0,0,0-4.11-2.35,38.41,38.41,0,0,1-5,6.4l-.23.2c-.94,5-1.59,10-2.25,15-.77,5.76-.92,10.85,4.75,13.92,6,3.27,13.75,3.75,20.12,6.6a76.89,76.89,0,0,1,23.39,16.45,4.92,4.92,0,0,0,6.89,0,60.41,60.41,0,0,0,12.54-20.15A36.73,36.73,0,0,1,125.6,111.93Zm-32.66,1.58c-11.81-1.73-19.69-8.18-22.43-17.61C79.14,107,97.12,110.41,111,108.58A21.84,21.84,0,0,1,92.94,113.51Z"/><path class="cls-6" d="M99.76,12.56c-8.16,8.83-16.23,30.56-9.39,42.5a25.37,25.37,0,0,0,5.25,10.56c7.45,8.93,18.7,6.34,26.4-.91a42.89,42.89,0,0,0,13-28C136.39,17.55,117.66-6.8,99.76,12.56Z"/><path class="cls-11" d="M102.35,45.93c-.42-1.18-2.42-1.47-2.69,0-1.18,6.28-4,12.52-11.49,12.37-7.79-.16-12-8.3-9.86-15.19.33-1-1.32-1.79-1.8-.76-4,8.51.59,18.27,10.12,19.85C95.38,63.64,105.73,55.34,102.35,45.93Z"/><path class="cls-12" d="M119.78,1.58a9.25,9.25,0,0,0-3-.81,4.43,4.43,0,0,0-3.19-.72C100,1.82,91.9,10.4,84.4,21.1c-6.83,9.76-18.23,23.13-18.25,35.53a1.21,1.21,0,0,0,.61,1A4,4,0,0,0,71,60.05c10.7-1.7,20.74-7.09,30.61-11.39,9.3-4,19.83-7.87,28.28-13.53C145.26,24.84,132.42,7.19,119.78,1.58Z"/><path class="cls-7" d="M125.12,42.84c-5,2.19-7.7,9.74-3.88,14.13,2,2.25,5.65-.14,4.88-2.83-.43-1.5-1.28-3-1.28-4.58a6.81,6.81,0,0,1,2.08-4.39C128.19,43.9,126.58,42.21,125.12,42.84Z"/><path class="cls-13" d="M174.4,92.81c-1.82-.53-3.46.75-5.33.5a11.32,11.32,0,0,1-4.66-2.23A1.63,1.63,0,0,0,162,92.9c.67,2.81,3.41,4.63,6.11,5.18s6.77.41,7.72-2.67A2.16,2.16,0,0,0,174.4,92.81Z"/><path class="cls-13" d="M174.14,104.64c-1.86-1.16-4.32-.78-6.41-1.3a20.63,20.63,0,0,1-7.67-3.74c-1.2-.94-2.92.72-1.7,1.7a23.85,23.85,0,0,0,7.79,4.28c2.31.73,5.86,1.78,8,.24A.7.7,0,0,0,174.14,104.64Z"/><path class="cls-13" d="M41.07,41.33a6,6,0,0,1-2.14-3.47,6.87,6.87,0,0,1,.67-4.23c.77-1.14-.68-2.21-1.72-1.72a6.11,6.11,0,0,0-3.7,6.49C34.46,41.25,36,44.22,39,45A2.2,2.2,0,0,0,41.07,41.33Z"/><path class="cls-13" d="M40.67,48.1c-1.35-.24-2.62-.07-3.88-.76C33.85,45.73,34.45,42.79,34,40a1.08,1.08,0,0,0-1.79-.47c-2.5,2.15-1.47,6.3.27,8.63s5.65,4.37,8.67,3.12a1.74,1.74,0,0,0,1.19-1.57C42.38,48.76,41.48,48.24,40.67,48.1Z"/><path class="cls-2" d="M36.68,366.31c-1.07,1.14-2.23,2.34-3.41,3.44,7.79-.36,14.57,3.57,19,10,2.08,3,7.06.18,5-2.9A24.33,24.33,0,0,0,36.68,366.31Z"/><path class="cls-2" d="M55.12,369.32c2.44,2.65,4.17,6,6.59,8.66,1.24-.82,2.49-1.59,3.77-2.3-3.62-8.42-12.46-15.6-21.64-16.14l-2.66,2.19a1.27,1.27,0,0,0,.82.36C47.25,362.47,51.63,365.53,55.12,369.32Z"/><path class="cls-2" d="M61.05,361.21c3.31,3.55,5.58,8.44,9.33,11.49a1.53,1.53,0,0,0,.88.36c.46-.16.92-.32,1.39-.45a1.33,1.33,0,0,0,.29-1.4c-1.59-5-6.34-10.31-10.19-13.81a30.44,30.44,0,0,0-9.88-6.06q-1,1.1-2.13,2.13A31.63,31.63,0,0,1,61.05,361.21Z"/><path class="cls-2" d="M78,371.66c2.7-9,5.66-19,7.18-28.63A34.38,34.38,0,0,1,82,337.68c-4.27,10.37-6,23-6.4,33.93a1,1,0,0,0,0,.31C76.41,371.81,77.2,371.72,78,371.66Z"/><path class="cls-2" d="M223.35,380a2.72,2.72,0,0,0,1-3.3,12.85,12.85,0,0,0-6.15-6.43l.1,0a1.28,1.28,0,0,0,.86-1.52c-.45-3-4.4-5.78-6.68-7.53-2.79-2.13-6.47-3.71-9.94-2.32-2.74,1.1-4.21,3.65-5.29,6.24a149.81,149.81,0,0,0-5.15,15.69c-.38,1.28,1.59,2.18,2.2.93,1.44-2.95,2.91-5.81,4.17-8.84.65-1.57,1.28-3.15,2-4.7,1.2-2.74,1.41-4,4.67-4.31,4.08-.34,5.48,2.65,8.24,5a13.77,13.77,0,0,0-5.86.62c-7,2.4-11.18,9.54-12.84,16.37a1,1,0,0,0,1.75.74c3.1-4.05,5.42-9.24,10-11.82,6-3.35,9.74.43,13.68,4.39a25.89,25.89,0,0,0-7.54-.27c-6.37.82-12.83,4.55-15.05,10.8-.48,1.33,1.23,1.9,2.1,1.22,4.69-3.63,8.87-7.28,15.17-7.39,5.34-.1,9,4,13.95,4a1.14,1.14,0,0,0,1.09-1.42C229.24,383,226.57,381.07,223.35,380Z"/></g></g></g></svg>