<svg xmlns="http://www.w3.org/2000/svg" viewBox="0 0 251.4 435.06"><defs><style>.cls-1{fill:#504d5a;}.cls-2{fill:#6f6a77;}.cls-3{fill:#ffdf81;}.cls-4{fill:#db335e;}.cls-5{fill:#ad285e;}.cls-6{fill:#a4a6a3;}.cls-7{fill:#27afac;}.cls-8{fill:#3bdbdb;}.cls-9{fill:#f7ebe6;}.cls-10{fill:#d3c5c5;}.cls-11{fill:#fcb64e;}.cls-12{fill:#5e294e;}</style></defs><title>3-11-跳舞的人2</title><g id="图层_2" data-name="图层 2"><g id="_1-1-树" data-name="1-1-树"><g id="_3-11-跳舞的人2" data-name="3-11-跳舞的人2"><path class="cls-1" d="M229.24,386.8c4.63-5.18,9.15-9.27,6.45-17.06a13.74,13.74,0,0,0-10.54-8.89c-2.79-3.68-7.17-6.19-11.91-4.81-6.82,2-7.31,8.6-5.74,14.51,1.78,6.67,1.91,11.14-.2,17.79-1.26,4-2.59,7.71-2.24,11.93a18,18,0,0,0,10.78,14.85c5.46,2.36,14,2.54,16.72-4C236.63,401.28,220,397.17,229.24,386.8Z"/><path class="cls-2" d="M111.28,374.17a23.89,23.89,0,0,0-5.42-1c-15.37-1-11.21,9-11.71,19.51-.34,7.08-4.79,12.23-7.34,18.51C84.05,418,84.89,425,90.23,430.26c3.1,3,7.77,5.37,11.94,4.63,3.55.53,7.23-.16,9.38-2.36,3.13-3.19,3.27-7.93,1.86-11.95-.84-2.4-2.37-4.31-3.59-6.51a9,9,0,0,1-.78-1.82c1.55-3.4,5.57-5.37,9-8.15,3.11-2.49,4.69-6.06,5.72-9.83C126.48,384.43,120,376.84,111.28,374.17Z"/><path class="cls-3" d="M224.24,178.32c-3.06-1.66-7.46.85-10.22,1.9-5,1.92-10,3.87-15,5.8-2.69,1-2.08,4.41-.15,5.54.46,2.48,2.3,5,3.88,6.63a3,3,0,0,0,1.14.76,1.28,1.28,0,0,0,.45.41,34.58,34.58,0,0,0,17,4.15,2,2,0,0,0,2.16-1.67c.9-5.34,1.86-10.68,2.7-16C226.55,183.18,227.08,179.86,224.24,178.32Z"/><path class="cls-3" d="M27.84,37c4.09-3.87,11.26-8.67,17.47-8l.17-.31c2.35-2.8,5.75-4.95,6.14-9,.32-3.31-1.54-6.86-4.77-7.51a23.84,23.84,0,0,0,0-8.23,7,7,0,0,0-.41-1.27c-2.09-4.82-8.95-2.52-13,.77-6,4.93-12.24,11.92-14.52,19.52s2.9,11.36,6.5,16.45C26.23,38.6,27.05,37.77,27.84,37Z"/><path class="cls-4" d="M205.23,177.49c-7.74-4.39-15.23.72-19.42,7.29-11.59-.23-26.68-.08-37,2.88-1.13-2.64-2.39-5.13-3.44-7.24-4.08-8.18-10.25-16.32-17.79-21.6.26-2.83,1.05-5.73,2.49-7.39.4-.47,1.46-.33,1.93-.85,1.29-1.44,2.23-1.75,2.64-3.65,1.82-8.54-13.71-10.39-23.64-10.6l-3.66-.5c-6.12-.83-32.52-1.56-28.81,4.66,4.84,8.14,29.57,23,34.82,30.93,3.86,5.82,8.73,10.84,13.1,16.22,2.24,7,5,14.07,9.28,19.07,2.46,2.85-4.64,3.41-1.51,2.84,7.18,3.29,28.18,2.32,34.66.24a106.29,106.29,0,0,0,14.87-6.56c.09.1.17.21.26.3a9.24,9.24,0,0,0,6.49,2.79,13.92,13.92,0,0,0,3.46-.39l.75-.23.8-.25c2.76.87,6.81-.89,8-3.48a65.23,65.23,0,0,0,3.62-10,25.5,25.5,0,0,0,1-4.74,11.36,11.36,0,0,0-.15-2.47A6.16,6.16,0,0,0,205.23,177.49Z"/><path class="cls-5" d="M140.87,172.75a53.94,53.94,0,0,0-12.93-13.65c-5.32,2.27-9.13,6.78-9,7.68.26,1.42,15.13-1.2,21,5.12A7.39,7.39,0,0,0,140.87,172.75Z"/><path class="cls-4" d="M154,147.54a68.76,68.76,0,0,0-31.41-9.43c-2.27-.12-2.25,3.37,0,3.51l.42,0c-1.63,2.81-2.21,6.4-2.6,9.52-.34,2.83-1.37,8.16,1.62,9.78a.9.9,0,0,0,.42.08,1.07,1.07,0,0,0,1.18.12c9.84-4.48,19.33-8.42,30-10.62A1.66,1.66,0,0,0,154,147.54Z"/><path class="cls-5" d="M121,270.63c-9.65-17.33-20.77-32-25.77-51.69a115.25,115.25,0,0,1-3.58-30.55c.12-6.44,2-14.63-3.22-19.68-4.25-4.12-9.91-3.09-14.91-1.1-9.84,3.92-19.13,10.63-28,16.38-12.76,8.3-30.71,21.8-33.35,38.08-8.28-2.93-15.09,9.21-6.69,13.37a475.48,475.48,0,0,0,113.62,39.61c-.28-.51-.55-1-.82-1.55C120,274.56,121.86,272.26,121,270.63Z"/><path class="cls-6" d="M118.38,245.61c-9.52-2.83-22.42-4.71-33.2-1.83-1.79,1.93-4,3.66-5.51,5.13-2.82,2.78-8,8.74-8,8.74,14.14,4.85,32.8-1.46,46.76-4.51C122.28,252.29,121.91,246.66,118.38,245.61Z"/><path class="cls-7" d="M243.63,266.93C231,253.46,212,245.59,195.24,238.77c-9-3.65-17.93-7.3-26.85-11-8.61-3.61-16.53-8-24.72-12.25-7.44-5.76-17-8.45-22.37-2.87.88,3.94,2.21,7.82,2.84,10.27a148,148,0,0,0,30.38,58A394.56,394.56,0,0,0,213,283.65,60.28,60.28,0,0,0,223,287.27c6.76,1.69,15.33,2.66,21-2.28C250,279.85,248.51,272.13,243.63,266.93Z"/><path class="cls-8" d="M196.07,328.94a5.69,5.69,0,0,0,0-1.3c-1.4-10.29-6.36-20.2-10.4-29.7q-6.21-14.56-13.45-28.65c-8.87-17.32-18.29-39.5-34-51.75-12.67-9.87-30.88-11.34-42,1.72-.4.47-.78,1-1.14,1.48a2.21,2.21,0,0,0-.76.73c-11.9,19.45-5.52,45.4,10.15,60.94,9.12,9.06,21,13.73,32,20,6.2,3.54,12.58,7.78,16.79,13.69,3.1,4.35,4.27,9.18,9.08,12.07a3.22,3.22,0,0,0,1.59.41c.73,2.77,1.44,5.21,3.66,7.46a20.08,20.08,0,0,0,9.92,5.45c7.34,1.7,17.54-.42,18.9-9.22A7.09,7.09,0,0,0,196.07,328.94Z"/><path class="cls-9" d="M73.15,219.81c.49,7.66,1.3,30-1.53,37.84,7.18-6,16.07-10.17,24.42-14,12.2-5.67,24.35-10.91,37.23-14.89q7.18-2.22,14.46-4c-1.92-13.36-8.62-35-14.27-46.43-6.17-12.52-17.07-18.73-29.5-24a1.73,1.73,0,0,0-.65-.14,15.61,15.61,0,0,0-13.19-.88,34.22,34.22,0,0,0-8.39,1.2c-11,3.08-25.12,13.75-27.21,25.72A7.78,7.78,0,0,0,53.3,191.4C59.82,199.35,66.51,207,72.57,215,72.82,216.59,73,218.18,73.15,219.81Z"/><path class="cls-10" d="M85.88,190.78C87.14,183.2,93,176,96.59,169.26c2.64-4.94,5.5-9.77,8.53-14.49l-1.16-.5a1.73,1.73,0,0,0-.65-.14,15.61,15.61,0,0,0-13.19-.88,34.22,34.22,0,0,0-8.39,1.2c-11,3.08-25.12,13.75-27.21,25.72A7.78,7.78,0,0,0,53.3,191.4C59.82,199.35,66.51,207,72.57,215c.25,1.56.47,3.15.58,4.78.49,7.66,1.3,30-1.53,37.84,7.18-6,16.07-10.17,24.42-14q4.83-2.25,9.67-4.38C100,223.59,85.68,192,85.88,190.78Z"/><path class="cls-11" d="M103.31,154.13a15.54,15.54,0,0,0-12.68-1c7.67,6.68,16.27,14.25,26,17.44,4.05,1.33,6.27,2.56,6.1-.74-.13-2.59-2.38-5.6-3.94-7.86a88.57,88.57,0,0,0-14.8-7.66A1.73,1.73,0,0,0,103.31,154.13Z"/><path class="cls-3" d="M122.31,111.13c-3.44-15.9-20-20.64-31.88-10.45-12.5,10.7-15.09,32.14-6.78,45.39a1.82,1.82,0,0,0,1.27.86c.15.22.3.44.46.64a15.24,15.24,0,0,0,16.13,5.28C117.19,148.88,125.69,126.68,122.31,111.13Z"/><path class="cls-11" d="M117.48,135.44a.93.93,0,0,0-.8-1.39c-2.41.24-4.81,2.56-5.73,4.77-1.11,2.67-.82,7.23,2.29,8.29a2.4,2.4,0,0,0,2.89-1.64c.42-1.07.06-1.8-.19-2.85a8.81,8.81,0,0,1-.06-2.46,8.87,8.87,0,0,1,.17-2.31A16.43,16.43,0,0,1,117.48,135.44Z"/><path class="cls-11" d="M94.18,116.42c2.74-7.56,10.85-14.14,20.19-17.89-6.77-4.75-16.29-4.39-23.94,2.15-12.5,10.7-15.09,32.14-6.78,45.39a1.82,1.82,0,0,0,1.27.86c.15.22.3.44.46.64a15.24,15.24,0,0,0,16.13,5.28,19.89,19.89,0,0,0,1.89-.62C93.66,145,90.1,127.68,94.18,116.42Z"/><path class="cls-12" d="M128.44,88.33a18.35,18.35,0,0,0-24.25-2.81,11.55,11.55,0,0,0-4.8,4.42,52.45,52.45,0,0,0-8.31-.82A16.2,16.2,0,0,0,76,97.21c-8.21,14.28,3.12,31.23,1.23,46.14a1.08,1.08,0,0,0,1.83.76,34.26,34.26,0,0,0,5.6-10.29c1.48,6.83,5,12.65,11.41,14.1,1.3.29,2.33-1.71,1-2.29-5.91-2.51-6.47-12.56-6-17.94a23.73,23.73,0,0,1,6.09-14.16,18.41,18.41,0,0,1,3.73-3.08c-3.11,10.1,8.26,15.81,16.68,15.62a3.79,3.79,0,0,1-.45-.07,10,10,0,0,1-3.43-1.74c-1.62-1.32-3.45-3.58-3.71-5.72a5.25,5.25,0,0,1,1.44-3.84c2.21-2.5,6.25-2.66,9.12-1.28,1.49.71,2.26.85,2.45,2.54a43.5,43.5,0,0,1,0,5c3.6-4.49,8.8-10.73,10.12-16.47A17.86,17.86,0,0,0,128.44,88.33Z"/><path class="cls-8" d="M182.84,321.3a25.6,25.6,0,0,0-5.41.68,23.13,23.13,0,0,0-5.84-1.41c-8.86-.91-16.71,3.42-23.13,9.15-7.72,6.87-13.12,15.88-19.07,24.22-3.63,5.07-7.51,11.36-12.17,16.52a37.32,37.32,0,0,0-2.91,9.63c-1,8.14,2.06,12.58,8.83,14.43,11.1-12.82,24.82-22.61,39.7-30.65,10.63-5.74,29.12-8.28,35-20.16C203.21,332.69,194.5,321.15,182.84,321.3Z"/><path class="cls-7" d="M223,363.81a15.6,15.6,0,0,0,9.64,8.33,38.82,38.82,0,0,0,4.78,1.19c3.36-8.07,4.39-17.71,6.11-26.26,2-9.76,3.54-19.49,4.73-29.38,1.24-10.28,3.12-21.12,3.12-31.5,0-6.87-2.31-13.95-9.62-16-4.39-1.26-7.63-.69-10.05,1.05a7.44,7.44,0,0,0-7.66-.3c-14.27,7.54-15.25,25.91-12.6,39.88C214.76,328.09,223.91,346.06,223,363.81Z"/><path class="cls-4" d="M4.69,235.17c10.89-15.38,27.68-27,43-37.18,18.23-12.13,37-23.9,56.32-34.35-.12-.32-.25-.65-.39-1-3.6-8.62-11.42-20.3-17.83-26-1.57-1.41-4-2.45-6.15-1.63-2.36.92-5,2-7.75,3.27-1.5.1-3.14.23-4.8.29-3.09-4.79-6.76-9.23-8.82-14.86-3.08-8.45-4.26-17.41-4.85-26.34-1.31-19.76-.13-40.51-7.38-59.27.34-.71.68-1.43,1-2.14,1.25-2.55-1.23-4.71-3.67-3.67-20.61,8.79-22.8,40.38-25,59.42-1.48,12.51-1.68,24.79,3.43,36.52s13.4,21.59,16.65,34a7,7,0,0,0,.82,1.9c-3.52,4.21-6.63,8.63-9.27,12.46C20.62,190.21,12.85,205,3.92,219,.07,225-2.84,232.38,4.69,235.17Z"/><path class="cls-5" d="M35.56,136.66c-5.24-4.55-10.47-9.09-15.63-13.7a48.28,48.28,0,0,0,1.91,5.22c5.06,11.64,13.4,21.59,16.65,34a7,7,0,0,0,.82,1.9c-3.52,4.21-6.63,8.63-9.27,12.46s-5.12,7.71-7.55,11.65c8.09-3.83,16.2-7.66,23.34-12.86,6.08-4.42,11.55-9.22,11.85-15.73C51.83,151,43.15,143.25,35.56,136.66Z"/><path class="cls-5" d="M51.26,60a91.21,91.21,0,0,0-5.19-21.93c.34-.71.68-1.43,1-2.14,1.25-2.55-1.23-4.71-3.67-3.67-15.53,6.62-20.6,26.2-23.11,43.59C28.62,70.33,40.23,63.87,51.26,60Z"/><path class="cls-4" d="M43.17,27.67C34,26.41,26,36.85,21.72,43.75c-4.14,6.65-8,18.75-2.92,25.81a1.86,1.86,0,0,0,2.85.37,16.89,16.89,0,0,0,3-3.08,5,5,0,0,0,1.71-.59C32.16,63,38,59.67,43.82,56.32c3.76-2.17,7.21-4.5,8.51-8.9C54.41,40.44,51.38,28.79,43.17,27.67Z"/><path class="cls-3" d="M84.76,118.34a5.94,5.94,0,0,0-8.06-2.11,12.42,12.42,0,0,0-4.53,4.49,7.82,7.82,0,0,0,.77,8.47,6.86,6.86,0,0,0,8.29,2.2h0A6.75,6.75,0,0,0,85.74,127a11.57,11.57,0,0,0,.46-3A11.14,11.14,0,0,0,84.76,118.34Z"/><path class="cls-8" d="M156.24,226.7c-2.52-3.77-6-5.71-9-9-1.14-1.27-1.36-.95-.88.64.21.71-.54,2.89-1.51,4-1.66,2.44-3.43,3.18-6.34,4.65-3.49,1.77-7.13,3.22-10.46,5.3-2.37,1.48-5.89,3.6-6,6.82a3.84,3.84,0,0,0,3,3.87c3.2.89,6.9-1.55,9.45-3.09a65.08,65.08,0,0,0,9.08-6.35,21.21,21.21,0,0,0,1.85-1.83c0,.58-.05,1.14-.08,1.68-.26,4.93-1.14,7-4.28,10.8-4.25,5.07-.4,14.22,6.93,11.91,7.67-2.41,12.25-10.88,12-18.76A20.5,20.5,0,0,0,156.24,226.7Z"/></g></g></g></svg>