<svg xmlns="http://www.w3.org/2000/svg" viewBox="0 0 197.84 423.53"><defs><style>.cls-1{fill:#750c37;}.cls-2{fill:#15677a;}.cls-3{fill:#f9d1aa;}.cls-4{fill:#f4ae87;}.cls-5{fill:#9130e5;}.cls-6{fill:#6f26bc;}.cls-7{fill:#20809e;}.cls-8{fill:#960b3d;}.cls-9{fill:#8c5454;}.cls-10{fill:#cd8d7f;}.cls-11{fill:#f5e4b1;}.cls-12{fill:#f4b3f1;}</style></defs><title>3-12-跳舞的人3</title><g id="图层_2" data-name="图层 2"><g id="_1-1-树" data-name="1-1-树"><g id="_3-12-跳舞的人3" data-name="3-12-跳舞的人3"><path class="cls-1" d="M72.19,17.66C68.3,19.08,63,19.14,58.78,19.37c-4.61.24-8.43,4.47-7,9.21,2,6.86,2,14.28,4.89,20.82,1.73,3.9,7.42,3.14,9.36,0,3.32-5.4,3.15-12.06,1.73-18.25.58-.29,1.16-.58,1.71-.92,2.65-1.6,4.32-3.92,6.64-5.9C79.05,21.78,75.89,16.3,72.19,17.66Z"/><path class="cls-2" d="M161.15,345.56c-11.17-15.43-13.78-22.25-20.6-40.18-4-10.44-5.07-22.82-15.78-28.86a29.15,29.15,0,0,0-6.59-2.63,73.61,73.61,0,0,0,10.54-20.37c5.48-17,20.3-45.25,19.13-63.1-.39-5.82-1.2-11.8-4.16-16.82-3.21-5.44-8.79-9-15.24-7.94-4.73.75-8.93,3.48-12.53,6.64-23,20.24-44.31,68.86-45.59,98.1a6.35,6.35,0,0,0,2.84,5.9,14.69,14.69,0,0,0,.38,2.33c1,4.09,3.82,8.61,7.62,10.87.12.19.23.38.36.57,8.39,12.34,20.59,21,31.78,30.62,17,14.58,40.06,39.17,44.16,49C161.84,364.37,156.68,350.78,161.15,345.56Z"/><path class="cls-3" d="M153,333.42c-.39.24-.8.46-1.17.74a30.18,30.18,0,0,0-10.53,14c7.89,8.74,14.18,16.81,16.13,21.51,4.37-5.33-.79-18.92,3.68-24.14C157.78,340.91,155.2,337,153,333.42Z"/><path class="cls-4" d="M75.24,64.65c-14.41-2.44-31.46-19.33-43.61-27.1-1.18-1-1.93,4.25-3.07,3.19a1.46,1.46,0,0,0-2.18,1.95l.07.08a1.32,1.32,0,0,0,.36,1.58c1.29,1.15-.75,2.6.48,3.8,8.64,11,19.75,22.43,29.57,32.41,7.2,7.31,18.46,21.69,30,19.61,3-.55,5-3.73,5-6.69a7.92,7.92,0,0,0,.48-1.54C94.5,80.57,91,67.3,75.24,64.65Z"/><path class="cls-3" d="M36.75,41.27c-4.4-7.09-13.87-7.71-20-2.61a15.37,15.37,0,0,0-5,7A35.19,35.19,0,0,0,3,62.18c-1.32,6.31.42,13.32,5.76,17.27,4,3,10.78,3.79,13.93-1,1.63-2.47.93-5,.18-7.63-1-3.54-2.19-7-3.2-10.54a12.93,12.93,0,0,0,10.8.11A13.22,13.22,0,0,0,36.75,41.27Z"/><path class="cls-5" d="M143.57,172.43c-10.68-9.21-18.27-17-20.22-31.57-1.42-10.63-1.21-22.36-3.95-32.84-2.34-16.58-13.1-34.16-29.6-38.81-7.27-2-16.47-10.57-24.89-6.56,1,3.31-1.32,15.19-2,20.92,3.18,6.61,2.24,10.5-.42,16.91a28.05,28.05,0,0,0-1.3,4.23c-1.43,9.76-4,20.55-.54,26.18C71,147.57,93,157.92,110.92,190.3a3.94,3.94,0,0,0,1.16,3.08c3.13,3.12,12.36-.13,16.16-1.87A80.26,80.26,0,0,0,142,184a5.55,5.55,0,0,0,1.27-7.36A2.55,2.55,0,0,0,143.57,172.43Z"/><path class="cls-6" d="M143.57,172.43c-10.68-9.21-18.27-17-20.22-31.57-1.42-10.63-1.21-22.36-3.95-32.84a55.09,55.09,0,0,0-3.14-12c-2.67.1-5.34.24-8,.45-5.56.44-11.47.48-17.17,1.24l-2.43.9a80.57,80.57,0,0,1,8.76,18.63,72.33,72.33,0,0,1,4.71,24.09v0a120.75,120.75,0,0,1,0,18.44c11,6.33,21.9,12.75,32.25,20.16,2.18,1.57,4.38,3.14,6.58,4.7.36-.25.75-.47,1.1-.73a5.55,5.55,0,0,0,1.27-7.36A2.55,2.55,0,0,0,143.57,172.43Z"/><path class="cls-7" d="M143.57,172.43c-7.35-6.34-13.24-12-16.83-19.66-2.86,2.23-5.5,4-7.38,5.26-7,4.56-15.53,9.15-23.83,10a136.42,136.42,0,0,1,15.39,22.28,3.94,3.94,0,0,0,1.16,3.08c3.13,3.12,12.36-.13,16.16-1.87A80.26,80.26,0,0,0,142,184a5.55,5.55,0,0,0,1.27-7.36A2.55,2.55,0,0,0,143.57,172.43Z"/><path class="cls-2" d="M143.57,172.43c-7.35-6.34-13.24-12-16.83-19.66-2.86,2.23-5.5,4-7.38,5.26a91.31,91.31,0,0,1-10.3,5.86c8.6,5.05,17.11,10.26,25.26,16.1,2.18,1.57,4.38,3.14,6.58,4.7.36-.25.75-.47,1.1-.73a5.55,5.55,0,0,0,1.27-7.36A2.55,2.55,0,0,0,143.57,172.43Z"/><path class="cls-7" d="M170.19,193.09c-1.16-19-23.24-25.3-38.36-30-3.08-1-4.93,2.62-3.65,5a1.24,1.24,0,0,0-.44.23c-18.32,14.44-30.79,31.41-45,50q-10.73,14-20.88,28.53c-5.37,7.67-11.68,16.9-11.8,26.81-.09,7.08,4.42,14.14,11.87,13.92,8.43-.25,15.78-10.11,21.46-15.37A291.56,291.56,0,0,1,113.81,248C132,235.25,171.87,220.51,170.19,193.09Z"/><path class="cls-2" d="M170.19,193.09c-1.16-19-23.24-25.3-38.36-30-3.08-1-4.93,2.62-3.65,5a1.24,1.24,0,0,0-.44.23c-1.4,1.1-4.85.43-4.85,4,9.47,2.22,19.38,9,23.09,17.18,5.85,13,1.72,29.35-4.09,41.67C157.19,221.48,171.2,209.58,170.19,193.09Z"/><path class="cls-7" d="M107.21,371.58c-4.69-5.54-4.69-5.54-7.3-11.11-3.76-8-2.89-16-3-24.6a162.92,162.92,0,0,0-8.16-50.47c-2.2-6.54-6.77-16.27-14.16-18a5.85,5.85,0,0,0-1.11-.89c-8.28-5.09-18.1,2.76-20.17,10.69-3,11.65,7.12,23,12,32.73,13.38,26.61,21,54.91,17.2,76.88-.26,1.49,1.56,10.35,1.89,8.79.63-2.92,1.15-5.84,1.59-8.75a4,4,0,0,0,4.48-1.14c3.2-4,7.3-5.29,11.88-6.52a8.33,8.33,0,0,0,6.66.07C110.66,378.55,108.38,373,107.21,371.58Z"/><path class="cls-3" d="M99.91,360.47a28.31,28.31,0,0,1-1.15-2.85,18.09,18.09,0,0,0-3.9.39,28.52,28.52,0,0,0-12,6.2,80.41,80.41,0,0,1-.32,22.59c-.26,1.49,1.56,10.35,1.89,8.79.63-2.92,1.15-5.84,1.59-8.75a4,4,0,0,0,4.48-1.14c3.2-4,7.3-5.29,11.88-6.52a8.33,8.33,0,0,0,6.66.07c1.62-.7-.66-6.28-1.83-7.67C102.52,366,102.52,366,99.91,360.47Z"/><path class="cls-3" d="M100.8,365.65c-1.75-3.24-7.58-1.93-7.22,2,0,.47.13.92.21,1.36a20.34,20.34,0,0,0-2.74-1c-5.94-1.59-9,5.95-5.81,9.48a8.46,8.46,0,0,0-.25,2.79c-.2.74-.42,1.48-.65,2.2-.82,1.77-1.56,3.65-2.27,5.56a37.6,37.6,0,0,1-5.93,8.46c-2.15,2.36-5.59,4.78-7.79,7.56a7.57,7.57,0,0,0-2.86,1.77,7.05,7.05,0,0,0-1.26,8.93c5,7.76,20.38,2.6,25.27-2.7,5.14-5.57,5-13.78,13-17,5.4-2.17,11.56-.47,15.23-6.25C125.53,376.48,104.65,372.76,100.8,365.65Z"/><path class="cls-3" d="M189.61,191.37c-1.43-4.88-6-8.83-9.27-12.46-4.92-5.47-9.93-10.84-14.73-16.41-1.08-1.24-3.27.42-2.3,1.77,2.14,3,4.22,6,6.29,9a3.1,3.1,0,0,0-1.68,4.15c2.43,6-2.78,11.8-2.35,18s5.85,9.2,7,14.85c.64,3.27,4.64,3.57,6.79,1.8C185.39,207.08,192.15,200,189.61,191.37Z"/><path class="cls-3" d="M119.4,108a54.08,54.08,0,0,0-1.75-7.86c-.88-2.21-1.71-4.44-2.46-6.7-5-11.26-13.75-21-25.39-24.25-7.27-2-16.47-10.57-24.89-6.56,1,3.31-1.32,15.19-2,20.92,3.18,6.61,2.24,10.5-.42,16.91a27.31,27.31,0,0,0-1.29,4.2c-.47,3.22-1.07,6.56-1.53,9.8a53.59,53.59,0,0,0,1.47,10.85,33.75,33.75,0,0,0,6.44,10.16,24,24,0,0,0,4.32,3.58c-6.78-9.57,0-19.77,7.19-29.23,7.74,2.9,16.26,3,23.88,7.42a64.3,64.3,0,0,1,19.7,17.14C121.9,125.6,121.59,116.42,119.4,108Z"/><path class="cls-4" d="M122.67,134.4c-.77-8.8-1.08-18-3.27-26.38a54.08,54.08,0,0,0-1.75-7.86c-.88-2.21-1.71-4.44-2.46-6.7-.23-.51-.48-1-.72-1.53a43.07,43.07,0,0,0-4-2.18,26.78,26.78,0,0,0-15.28-5.31c-6-2.67-14.29,4.31-9.72,10.51,4.33,5.88,9.17,12.73,12.34,20a31.86,31.86,0,0,1,5.18,2.34A64.3,64.3,0,0,1,122.67,134.4Z"/><path class="cls-4" d="M88.49,51.38l-.24.23a2.67,2.67,0,0,0-1.75-1.34c-10.8-2.38-22,3.54-28.45,12-2.3-.18-4.81,1.78-3.93,4.48a101,101,0,0,0,5.55,10.67c4.44,8.8,2.25,14.5,2.85,24.19a1.56,1.56,0,0,0,2.78.87,2.6,2.6,0,0,0,.69-.21c7.82-3.83,17.25-20.82,19.79-29.09,1.22-4-1.8-11.68,4.4-20.51C90.92,51.62,89.37,50.64,88.49,51.38Z"/><path class="cls-4" d="M59.67,77.43c8.27.91,15.4,12.37,19.74,8.21C80.1,85,81.64,69,82.28,68.31c1.86-3.49,3.31-7.26,4.93-10.9A44.68,44.68,0,0,1,75,63.47c-6.37,2-14.52,3.91-20.77,1.06a3.13,3.13,0,0,0-.08,2.23A101,101,0,0,0,59.67,77.43Z"/><path class="cls-3" d="M70.66,20.69A36.66,36.66,0,0,0,51.83,37.93C47.9,45.7,42.58,55.4,51.4,65.88c15.57,18.49,40.05-2.3,46.13-16,6.18-13.93-2-31.66-18.65-30.91A26.31,26.31,0,0,0,70.66,20.69Z"/><path class="cls-4" d="M85.4,40.2c-.1-.1-.79-.65-1.6-1.26a8.55,8.55,0,0,0,.7-3.16A10.15,10.15,0,0,0,82.61,29a24.56,24.56,0,0,0-3.1-3.28c-1.11-6.37-10.4-10.11-13.83-2.94-1.59,3.32-2.18,6.19-.54,9.68a9.78,9.78,0,0,0,2.74,3.75l.42.46c0,.09,0,.15-.06.24a10.82,10.82,0,0,0,.4,8.94,6.27,6.27,0,0,0,1.92,2,8.84,8.84,0,0,0-1.12,1.62A13.45,13.45,0,0,0,68.26,58c.91,5,4.47,9.66,10,9.18,1.85-.16,4-2,3.11-4.07-2.55-6.37,3.23-5.82,5.87-10.66A10.19,10.19,0,0,0,85.4,40.2Z"/><path class="cls-8" d="M91.3,64.45c-2.17-.78-2.38-.5-3.53.52.06-.1,4.36-2.65,4.41-2.76,1-2.27-3.41-2.21-4.4-4.46-.62-1.4,6.38-1.28,5.11-2.39.11-.11,2-1.89,2.11-2,.66-.73-4-2.58-3.83-3.58.94-6.65-9.06-7.85-13.66-10.6A1.17,1.17,0,0,0,76.1,41c3.05,3.16-.35,4.23-2.29,6.74a11.55,11.55,0,0,0-2.71,7.81A9.16,9.16,0,0,0,74,61.87a11.85,11.85,0,0,0,2.36,1.67c-1,3-1,5.79,2.48,8.51,2.66,2,5,1.45,8.14,1.53,3.42.09,5.81,2,9.11,2.26a2.19,2.19,0,0,0,2.08-1.59C99.61,69.64,95.42,65.92,91.3,64.45Z"/><path class="cls-3" d="M174.42,177.43a1.29,1.29,0,0,0,.21-1.78c-.42-.54-.79-1.09-1.18-1.64-3.86-12.66-10.42-24.22-15.83-36.23-2.69-6-5.61-17.91-7.71-24.1-3-8.7-4.34-3.43-10.51-8.6C127.2,94.87,114,85.2,101.34,75.67,94,67.17,82,69.53,76.41,76.51c-7.7,9.66,5.23,21,13.55,24.31,4.9,2,14,2.89,17.83,6.47,4.79,4.52,9.7,8.9,14.57,13.32,5.18,4.7,9.33,7.73,14.57,9.1a65.78,65.78,0,0,0,6.29,17.15c5.25,10.08,13.09,10.84,24.7,30.6,1.55,2.56,1.47-.74,3.31,1.65,1.17,1.52,3.81.74,3.27-1.38C174.48,177.63,174.44,177.53,174.42,177.43Z"/><path class="cls-9" d="M122.44,390.89c-7.19-9-16.56-1.75-22.8,4.36-4.17,4.07-8,8.53-12,12.77C83,413,77.41,421,70,415.08c-2.85-2.26-6.25-9.12-1.62-11-7.61,3.15-11.63,7.72-12.75,16A2.09,2.09,0,0,0,57,422.52c4.68,1,11.2,1.66,16.28,0a18.39,18.39,0,0,0,9-3.29c6.68-4.53,17.37-18.52,27.28-22.6-.34,3.52-1.83,7.2-2.51,10.58A87.89,87.89,0,0,0,105.58,418c-.11,1.36,2.2,1.69,2.4.33.92-6.51,2.07-17.39,7.4-21.78a4.47,4.47,0,0,0,.87-1,9.19,9.19,0,0,1,3.58,1.4,1.6,1.6,0,0,0,2.16-.56l1-1.54A3.41,3.41,0,0,0,122.44,390.89Z"/><path class="cls-3" d="M177.2,364.77c2.78-4.79,8.41-7.12,7.78-13.61-1.2-12.49-15.78-6.11-23.83-7-1.49,2.87-3.11,5.73-3.84,8.83a73.63,73.63,0,0,0-1.78,11.16c.23.57.46,1.14.66,1.71.42,1.8,1,3.65,1.55,5.51a35.94,35.94,0,0,1,.5,9.82c-.24,3-1.41,6.87-1.43,10.25a7.14,7.14,0,0,0-1.12,3,6.72,6.72,0,0,0,4.28,7.45c8.33,2.88,16.84-10,17.42-16.83C178,377.91,173.11,371.8,177.2,364.77Z"/><path class="cls-9" d="M195.46,353.32c-10.28-3.81-14.38,6.7-16.48,14.75-1.41,5.37-2.31,10.87-3.5,16.29-1.41,6.39-2,15.63-11,14.46-3.43-.45-9.58-4.38-6.73-8.21-4.68,6.3-5.72,12-2.58,19.28a2,2,0,0,0,2.39,1.35c4.32-1.47,10-4.14,13.28-8a17.51,17.51,0,0,0,5.73-7.09c3.23-7,5.1-23.66,11.19-31.84,1.44,3,2,6.77,3.13,9.87a85.37,85.37,0,0,0,4.11,9.59c.58,1.16,2.63.3,2.12-.91-2.44-5.76-6.84-15.21-4.64-21.42a4,4,0,0,0,.23-1.22,8.56,8.56,0,0,1,3.61-.61,1.54,1.54,0,0,0,1.49-1.53l0-1.72A3.25,3.25,0,0,0,195.46,353.32Z"/><path class="cls-8" d="M116,96.58c.34.06.67.15,1,.21,4.65.83,9.38,1,13.78,2.88a24.39,24.39,0,0,1,4.6,2.59c2.83-2.82,3.76-7.57,3.23-11.63a17.13,17.13,0,0,0-3.5-8.21c-1-1.4-3-2.51-3.76-4.07-1.73-3.69-.8-3,1.66-5.45,4.37-4.43,8.77-7.69,5.82-14.72-2.34-5.58-8.72-11.08-14.73-15,4.25-5,4.36-12.67.74-18.26a18.2,18.2,0,0,0-15.06-8.33,13,13,0,0,0,.17-2.37c-.15-6.6-5.36-12.27-11.67-13.77s-14.37,1.23-16.39,8h0a11.56,11.56,0,0,0-1.65-.74c-5.82-2-12.65-.08-15.64,5.6-4.29,8.13,2.69,15.13,9.66,15.24a14.39,14.39,0,0,0,.49,9.55A17.45,17.45,0,0,0,87,48.38a19.14,19.14,0,0,0,.92,12.18c.27.61.6,1.14.91,1.69A14.3,14.3,0,0,0,86.31,73C88.46,87.44,104.43,90.62,116,96.58Z"/><path class="cls-10" d="M54.85,37.32c-1.74,2.65-4.44,3.32-7.3,4.17-3.64,1.08-2.07,6.18,1.54,5.58,4.25-.71,7.18-4.77,8.48-8.6C58.13,36.81,55.74,36,54.85,37.32Z"/><path class="cls-11" d="M23.11,62.88c-2-6.31-8.87-10.47-15-7A16.33,16.33,0,0,0,.23,72.05c.1.86,1.41.91,1.37,0A14.42,14.42,0,0,1,7.39,59.43c2.36-1.65,5.67-2.66,8.31-1.1,2.32,1.36,3.44,4,5.37,5.74A1.23,1.23,0,0,0,23.11,62.88Z"/><path class="cls-11" d="M9.88,48.13C4.06,48.75,0,54.05,0,59.69a.66.66,0,0,0,1.31,0c.34-5.42,5.15-10.48,10.89-9.28,4.26.89,5.26,4.09,8,6.75a.81.81,0,0,0,1.37-.56C22.31,51.11,14.33,47.66,9.88,48.13Z"/><path class="cls-11" d="M175.6,171c-2-1.07-5.11,1.55-6.4,3a13.51,13.51,0,0,0-3.26,7.46c-.15,1.19,1.88,1.47,2.11.28a12,12,0,0,1,3.19-6.1,12.83,12.83,0,0,1,2.57-2.14c.81-.48,1.62-.72,2-1.61A.65.65,0,0,0,175.6,171Z"/><path class="cls-11" d="M174.8,168.16c-1.75-.62-4.08.12-5.83.56a36.09,36.09,0,0,0-6.13,2.19c-.88.4-.11,1.66.75,1.28a34.72,34.72,0,0,1,6.2-2c1.71-.37,3.6-.22,5.14-1.06A.54.54,0,0,0,174.8,168.16Z"/><path class="cls-11" d="M169.2,161.85c-1.56-1-3.85.23-5.26,1.06a12.2,12.2,0,0,0-4.32,4.39.87.87,0,0,0,1.49.88,10.28,10.28,0,0,1,4-3.77c1.32-.69,3.11-.71,4.2-1.72A.54.54,0,0,0,169.2,161.85Z"/><path class="cls-12" d="M82.11,49.63A1.35,1.35,0,0,0,81.32,52c4.27,3.4,10.85,4.14,12.51,10.28,1.36,5.07-2.33,10.2-6.49,12.65C82.14,78,75,78.18,70.16,74.28a11.92,11.92,0,0,1,.9-19.5c1.2-.79,0-2.53-1.23-1.83a13.83,13.83,0,0,0-5.54,18.64C68.2,79.1,77.15,82.13,85.1,80,92,78.09,98.62,71.9,98.55,64.33,98.48,56.32,89.87,49.24,82.11,49.63Z"/></g></g></g></svg>