<svg xmlns="http://www.w3.org/2000/svg" viewBox="0 0 190.62 438"><defs><style>.cls-1{fill:#2e2b3d;}.cls-2{fill:#cbeaad;}.cls-3{fill:#f4ae87;}.cls-4{fill:#4c4c8c;}.cls-5{fill:#383875;}.cls-6{fill:#e7ffd2;}.cls-7{fill:#f9d1aa;}.cls-8{fill:#fff;}.cls-9{fill:#4e4560;}.cls-10{fill:#cd8d7f;}.cls-11{fill:#541b04;}.cls-12{fill:#e5beac;}.cls-13{fill:#6f6a77;}</style></defs><title>3-13-跳舞的人4</title><g id="图层_2" data-name="图层 2"><g id="_1-1-树" data-name="1-1-树"><g id="_3-13-跳舞的人4" data-name="3-13-跳舞的人4"><path class="cls-1" d="M115.19,422c-4.35-4.7-8.75-8.07-11.94-13.88A85.87,85.87,0,0,1,97,393.61c-1.29-3.91-2.42-8-6.12-10.35-5.29-3.4-11.65-1-13.92,4.69-1.66,4.17-1.61,10.18-.48,15.87-2.34,7.13-6.27,14.79-3.72,20.91a8,8,0,0,0,6.72,5,27.93,27.93,0,0,0,3.22-.33c-.09.22.1.84.71,2.28,3.29,7.71,13,6.45,19.81,5.79,5.4-.52,15.76-1.84,15.34-9.35C118.38,425.61,116.8,423.74,115.19,422Z"/><path class="cls-1" d="M185.72,422c-4.35-4.7-8.75-8.07-11.94-13.88a85.87,85.87,0,0,1-6.29-14.51c-1.18-3.57-2.24-7.26-5.23-9.68-.45.54-.89,1.08-1.31,1.64-4.15,5.55-6.79,12-10.89,17.47a6.87,6.87,0,0,1-3.73,2.63c-2.33,6.59-5.41,13.47-3.08,19.06a8,8,0,0,0,6.72,5,27.93,27.93,0,0,0,3.22-.33c-.09.22.1.84.71,2.28,3.29,7.71,13,6.45,19.81,5.79,5.4-.52,15.76-1.84,15.34-9.35C188.91,425.61,187.33,423.74,185.72,422Z"/><path class="cls-2" d="M91.34,167.74c-3.77-8.26-9.6-16.11-14.86-23.82-.5-1.35-1-2.57-1.28-3.52-.66-2-1.51-4.73-2.55-7.71-.49-5.49-1.41-10.87-4.15-15.75a18.87,18.87,0,0,0-10-8.5c-4.07-3-3.15-9.7-8.87-6s-12.42,16.18-11,23.22C39.23,132,42,138.93,45.49,145c1.47,4.25,3.31,8.36,4.8,11.86,3.55,8.35,7.91,17.41,16.45,21.5a5.21,5.21,0,0,0,3.77.18c4.75,5.56,10.54,8.84,16.7,5.75C93.64,181.06,94,173.66,91.34,167.74Z"/><path class="cls-3" d="M86.57,178c-2.27-11-13.91-18.2-24.8-12.57-6.34,3.27-7.3,9.1-11.76,14-4.71,5.17-15,5.09-21.52,5.62,5.88,8.15,7.8,20.41,2.83,29.68,7.3-4.45,14.83-8.55,22.5-12.28,8.92-4.34,18.93-6.75,27.66-11.19C88,187.92,89,182.07,86.57,178Z"/><path class="cls-2" d="M84,173.51c-1.56-7.3-10.09-12.12-17.23-11.18-5.08.67-12.27,4.74-13,10.29,0,.42.44.7.8.61,4.25-1.18,7-3.22,11.61-1.77,4.23,1.34,6.41,4,9.65,6.78A4.91,4.91,0,0,0,84,173.51Z"/><path class="cls-3" d="M43.69,197.51c-1.7-4.42-7-6.86-10.7-9.42-3.42-2.37-6.56-5.21-11-4.48-3.86.63-6.38,3.32-8.84,6.12a181.31,181.31,0,0,0-12,15,2.55,2.55,0,0,0-.46,1.6C-.95,209,.37,212.63,4,213.72c8.46,2.55,15.74,11.68,24.89,4.57,4-3.09,6.86-7.65,10.55-11.09C42.5,204.35,45.43,202,43.69,197.51Z"/><path class="cls-4" d="M96.8,305.88q-3.63-24.6-7.23-49.21c2.52-12,5.61-24,4.35-36.33-1.17-11.52-5.69-24.29-15.88-30.87-10.71-6.92-22.77-4.29-30,6-7.82,11.15-14.51,26.63-15.89,40.21a41,41,0,0,0,2.74,20c3.14,7.73,8.93,14.13,11.64,22,4.94,14.43,1.66,30.34,7.69,44.63,4.64,11,15.55,21,28.34,18.64C100.77,337.6,98.89,320,96.8,305.88Z"/><path class="cls-4" d="M73.71,384.39c.75,4.55.18,12.2.43,18.35a4.37,4.37,0,0,0,3,4,25.31,25.31,0,0,0,13.52.67c4.33-.95,6.69-3.36,9-5.94-4.19-9.34-2.64-42.54-2.34-63.15.21-14-7.73-35.23-26-28.58-15,5.47-14.19,25.33-11,37.82,2.62,10.19,7.5,19.61,11,29.49C72.22,379.48,73,381.93,73.71,384.39Z"/><path class="cls-5" d="M175.79,304.92q-11.34-22.14-22.64-44.29c-1.47-12.18-2.38-24.49-7.54-35.81-4.8-10.53-13.19-21.17-24.94-24.13-12.38-3.12-23,3.24-26.49,15.32C90.36,229.09,89,245.9,92,259.21a41.13,41.13,0,0,0,9,18c5.46,6.31,13,10.51,18.1,17.13,9.31,12.09,11.32,28.2,21.61,39.8,7.92,8.92,21.47,14.92,32.83,8.56C189.73,333.69,182.31,317.66,175.79,304.92Z"/><path class="cls-5" d="M164.42,308.78c-15.78,2.45-18.83,22.1-18.11,35,.6,10.5,3.56,20.69,5.08,31.06q.57,3.85.88,7.67c-.2,6.23-5.7,10.19-5.44,16.45-.16,2-.35,4-.61,6-.22,1.67,7.12,5.44,8.63,4.38.27-.19.5-.39.75-.58,3.55,2.38,9.71,2.32,10.76-2.54,6.52-30.37,13.37-42.57,18-64.35C187.29,328.18,183.62,305.8,164.42,308.78Z"/><path class="cls-6" d="M144.47,149.86c-9.77-10.68-26.83-12.05-40.39-13-12.91-.91-33.49-3-36.94,13.67a7.31,7.31,0,0,0-.15,1.18,2,2,0,0,0-.77,3.65c9,6.44-5.7,18.5-9.93,23.08s-7.38,10.13-6.52,16.65A13.68,13.68,0,0,0,58,206.29c3,1.28,5.55.74,8.7,1,4.69.44,4.87,1.69,6.92,6.14,11.28,24.48,40.11,32.26,61,13.7,11.71-10.39,13.9-27,15.92-41.73C152.22,173.41,153.36,159.57,144.47,149.86Z"/><path class="cls-2" d="M141.45,165.91c-4.81,2.07-9.91,4.43-13.66,8.19-3,3-4,7.33-8.43,8.19-.55,9-4.76,23.06,6.52,24.55C135,208,142.37,202.19,149,196c.62-3.56,1.11-7.12,1.58-10.58,1-7.42,1.84-15.53.24-22.94C147.63,163.55,144.47,164.61,141.45,165.91Z"/><path class="cls-4" d="M109.36,224.48c-11.73-1.15-21.87-8.7-29.94-16.78-4.91-4.91-16.77-15.21-25.57-26.28-2.93,4-18.52,35.7-17.83,40.88.66,5,15.79-5.21,20.5-3.24,3,1.27,5.32-1.3,8.48-1,4.68.44,3.77-1.57,5.82,2.89,4,8.6,11.67,30.2,19.93,30.2,9.92,0,15.22-9.93,20.1-9.93,6.83,0,14.64-5.93,23.79-14.05a35.86,35.86,0,0,0,7.59-9.67C133.68,223,118.16,225.35,109.36,224.48Z"/><path class="cls-6" d="M165.1,93.05a16.67,16.67,0,0,0-6-8.84,2.57,2.57,0,0,0-.75-.63c-10.77-5.76-20.53-10-33-11.07a94.68,94.68,0,0,0-37,3.88c-16.1,5.25-31.89,15.77-40.78,30.54-1.68,2.79-3.6,12.34-3.39,15,.78,9.92,3.83,16.16,7.57,22.7,4.46,7.8,11.62,19.22,19.41,24,9.1,5.61,15.12-1,21.66-6.56,13.37-11.38,26.75-3.35,39.2,1.35,23.9,9,30.7-19,33.29-36.42C166.89,116.28,168,103.72,165.1,93.05Z"/><path class="cls-2" d="M159.12,84.21a2.57,2.57,0,0,0-.75-.63,131.87,131.87,0,0,0-13-6.19c-3.66,4.63-6,10.29-9.15,15.11q.66,10.29,1.31,20.59c1.09,17.29,1.3,34.65,1.13,52C157.2,167,163,142.7,165.28,127c1.61-10.76,2.69-23.32-.18-34A16.67,16.67,0,0,0,159.12,84.21Z"/><path class="cls-7" d="M114.46,70.15C107.74,61.1,106.7,37.81,90,40.78,82.12,42.19,63.69,55.86,72.5,64.61c1.54,7-1.09,13.68-3.5,20.81a3.79,3.79,0,0,0,1,3.7c9.4,9.71,22.6,16.09,35.67,8.74C115.86,92.11,121.92,80.2,114.46,70.15Z"/><path class="cls-3" d="M106.39,85.75c3.67-4.22,5.76-10,7-16,0-.34,0-.67.08-1C107.6,58.88,105.89,38,90,40.78,82.12,42.19,63.69,55.86,72.5,64.61c.92,4.22.33,8.3-.8,12.43A142.61,142.61,0,0,0,83.24,87C90.68,92.84,99.79,93.32,106.39,85.75Z"/><path class="cls-6" d="M187.73,135.71c-3.77-8.26-9.6-16.12-14.86-23.82-.5-1.36-1-2.57-1.27-3.52-.67-2-1.52-4.73-2.56-7.71-.49-5.49-1.41-10.88-4.14-15.75a18.92,18.92,0,0,0-10-8.51c-4.08-3-8.92-3.59-14.63.08s-6.67,10.08-5.2,17.12c.57,6.33,3.35,13.29,6.82,19.37,1.48,4.24,3.31,8.35,4.8,11.86,3.55,8.35,7.91,17.41,16.45,21.5a5.21,5.21,0,0,0,3.77.18c4.75,5.56,10.55,8.83,16.71,5.74C190,149,190.42,141.62,187.73,135.71Z"/><path class="cls-2" d="M159.1,143.81c5.75-2.33,10.19-6.75,14.8-11.91.77-.86,1.62-1.74,2.49-2.65-2.88-4.64-6.64-8.33-12.78-8.87-5.74-.5-11.71,1.68-16.86,4.62C149.68,131.87,153.18,139.18,159.1,143.81Z"/><path class="cls-6" d="M185.23,127.8c-7.18-5-18.56-4.87-26.34-1.52-8.9,3.83-8.24,12.14-8.75,21.12a1.44,1.44,0,0,0,2.81.38c2-8.89,15.39-13,22.86-10.72,10.44,3.22,6.49,14.88-.39,20.76a1.55,1.55,0,0,0,.68,2.59C191.53,163.11,194.81,134.52,185.23,127.8Z"/><path class="cls-3" d="M184.33,142.27c-4.07-10.43-16.75-15.63-26.55-8.27-5.7,4.29-5.68,10.19-9.26,15.76-3.78,5.88-13.92,7.51-20.28,9.12,7.15,7.06,11.08,18.82,7.73,28.8,6.45-5.6,13.19-10.9,20.14-15.86,8.07-5.77,17.54-9.81,25.4-15.64C187.4,151.82,187.37,145.89,184.33,142.27Z"/><path class="cls-3" d="M145.3,168.66c-2.42-4.08-8.06-5.6-12.13-7.51-3.76-1.77-7.33-4-11.58-2.59-3.7,1.27-5.73,4.34-7.69,7.51a182.7,182.7,0,0,0-9.33,16.75,2.57,2.57,0,0,0-.19,1.65c-1.19,2.91.72,6.31,4.48,6.78,8.77,1.11,17.47,8.9,25.31.36,3.4-3.71,5.49-8.69,8.55-12.69C145.26,175.6,147.77,172.84,145.3,168.66Z"/><path class="cls-3" d="M109.5,34.85c-4.17-5.82-9.32-11-14.06-16.38-3.75-4.23-7.38-8.64-12.91-10.55A14.49,14.49,0,0,0,70.27,9a16.54,16.54,0,0,0-3.9,2c-8.8,6.17-10.34,18.81-8.5,30.64a61.38,61.38,0,0,0,.2,16.21c1.67,11.54,7.05,24,20.64,24,10.68,0,23.38-8.07,30.29-15.81C117.46,56.55,116.64,44.79,109.5,34.85Z"/><path class="cls-8" d="M103.28,100.7a4.29,4.29,0,0,0-3-4,120.59,120.59,0,0,1-17.15-6.58c-4.65-2.26-9.2-5.41-14.28-6.5a2.06,2.06,0,0,0-2.48,1.88c-2.38.82-3.55,4.4-.74,6.07,10.57,6.32,21.38,12.29,32,18.48a3.81,3.81,0,0,0,5.68-3.27C103.37,104.74,103.39,102.75,103.28,100.7Z"/><path class="cls-8" d="M122.51,74.27c-2.25-2.75-6.1-3-8.33-.15-1.79,2.24-2.47,5.71-3.5,8.35-1.77,4.49-3.59,9-5.52,13.41a3.13,3.13,0,0,0-.19.54,1.61,1.61,0,0,0-.31,2.28,37.36,37.36,0,0,0,5.38,5.58c2.27,2,5.45-.79,4-3.09a31.37,31.37,0,0,0,8.55-12.81C124,84.46,125.47,77.87,122.51,74.27Zm-6.85,16.56a41.34,41.34,0,0,1,3-7.17,36.26,36.26,0,0,1-1.93,5.25C116.38,89.58,116,90.21,115.66,90.83Z"/><path class="cls-9" d="M114.22,97.83c-1-1.12-2.6-.59-3.33.43s-1.65,2.26-2.45,3.41a4.83,4.83,0,0,0-2.24-.73,4.22,4.22,0,0,0-3,1.08,4.83,4.83,0,0,0-2.59.65,5.16,5.16,0,0,0-2.45,3.06c-1.37-.44-2.74-.9-4.09-1.39a2.67,2.67,0,0,0-3,1.22c-1.11,2.21-1.93,4.69-1.17,7.14a5.5,5.5,0,0,0,5.08,4c2.82,0,4.21-2.15,5.9-4a5.76,5.76,0,0,0,1.69.82c3.54,1.06,6.65-1.35,7.55-4.69.07-.32.1-.64.14-1h0c0,.09,0,.16,0,.26l0-.26,4.25.09a2.65,2.65,0,0,0,2.63-2.63A11.77,11.77,0,0,0,114.22,97.83Z"/><path class="cls-7" d="M112.83,42.15c-7.29-6-20.89-.73-28.49,1.79-8.28,2.75-18.51,6.47-22.12,15.2a16.43,16.43,0,0,0-1.08,4.48,13.06,13.06,0,0,0,2.35,13.43c6.4,7.5,17.31,7.24,25.69,4s19.28-9.31,24.48-17.13C117.85,57.56,119.42,47.58,112.83,42.15Z"/><path class="cls-10" d="M86.88,46.56c-.78-2-2.33-3.39-3.16-5.38-.66-1.57-1.15-3-2.57-4a1.09,1.09,0,0,0-1.57.64c-.6,1.61-.13,3.19.2,4.82.39,2-.15,3.82.29,5.77C81.1,52.92,88.5,50.76,86.88,46.56Z"/><path class="cls-11" d="M93.9,10.6c-1-1.55-6-5.49-6.34-6.39A5.89,5.89,0,0,0,82,0C72.86.22,59.1,7.09,53.49,14.46c-2,2.67-2.43,5.66-2,9a45.94,45.94,0,0,0,1.85,6.33c1.63,5.64,1.68,9.86,1.94,15.5,0,.8,1.21,1.26,1.61.44a34.1,34.1,0,0,0,2.94-10.64c.26-1.72.24-4,.33-6.33a41.91,41.91,0,0,0,6.14-4.38c1.53-1.26,2.92-2.63,4.35-4s3.16-2.46,4.12-4.34a5.08,5.08,0,0,0,.51-1.65l.45-.18a26.38,26.38,0,0,1-6,11.69A.92.92,0,0,0,71,27.18a37.59,37.59,0,0,0,6.71-6.26,31.47,31.47,0,0,0,3.38-5.8,13.22,13.22,0,0,1-.62,6.07c-.42,1.11,1.18,1.92,1.94,1.13,2.79-2.88,5.13-5.63,6.28-9.37,3.88,3.72,7.07,8.44,11.65,11.19a.52.52,0,0,0,.75-.57C99.62,18.91,96.56,14.67,93.9,10.6ZM62.4,20.08c-.36.5-.76,1-1.15,1.46A7.24,7.24,0,0,1,63.68,18c.08-.06.2-.11.29-.17C63.47,18.61,62.92,19.35,62.4,20.08Z"/><path class="cls-12" d="M107.31,19.2a6.64,6.64,0,0,0-2.19.4,9.11,9.11,0,0,0-4.29,2.1,8.16,8.16,0,0,0-2,9.39,9.12,9.12,0,0,0,8,5.54c3.29.12,6.31-2.33,7.68-5.18C117.06,26.15,113.59,19.12,107.31,19.2Z"/><path class="cls-3" d="M60.62,43.73a6.45,6.45,0,0,0-7.26-2.36,5.17,5.17,0,0,0-4.18,2.42c-3.45,5.4-.3,15.76,7,15.47C63.74,59,64.08,48.43,60.62,43.73Z"/><path class="cls-2" d="M76.51,156.84C73.34,158.52,70,160.08,67,162c-2.54,1.62-5.8,4.05-7.05,6.83a2.17,2.17,0,0,0,2.93,2.94c2.59-1.25,4.94-4.07,6.91-6.15a58.5,58.5,0,0,1,7.64-7.2A.92.92,0,0,0,76.51,156.84Z"/><path class="cls-13" d="M167.72,404.27c-2.4-1.42-5.19.08-7.82.26a28.54,28.54,0,0,1-10.43-1.25.87.87,0,0,0-.66,1.58,23.39,23.39,0,0,0,10.48,3.47c2.87.21,7.36.54,8.86-2.43A1.22,1.22,0,0,0,167.72,404.27Z"/></g></g></g></svg>