<svg xmlns="http://www.w3.org/2000/svg" xmlns:xlink="http://www.w3.org/1999/xlink" viewBox="0 0 1544.83 1108.19"><defs><style>.cls-1{fill:#2b2b2b;}.cls-2{fill:#4f4f4f;}.cls-3{fill:#636363;}.cls-4{fill:#7f7f7f;}.cls-5{fill:url(#未命名的渐变_4);}.cls-6{fill:#3f3f3f;}.cls-7{fill:#696b7a;}</style><linearGradient id="未命名的渐变_4" x1="2084.19" y1="982.67" x2="3425.48" y2="208.28" gradientTransform="matrix(-1, 0, 0, 1, 3545.72, 0)" gradientUnits="userSpaceOnUse"><stop offset="0" stop-color="#fff" stop-opacity="0.8"/><stop offset="1" stop-color="#fff" stop-opacity="0"/></linearGradient></defs><title>3-14-灯光2</title><g id="图层_2" data-name="图层 2"><g id="_1-1-树" data-name="1-1-树"><g id="_3-14-灯光2" data-name="3-14-灯光2"><polygon class="cls-1" points="1504.25 1105.1 1505.55 1103.95 1505.55 1019.2 1504.25 1020.35 1504.25 1105.1"/><rect class="cls-2" x="1489.3" y="1020.34" width="14.95" height="84.75" transform="translate(2993.54 2125.44) rotate(-180)"/><polygon class="cls-3" points="1489.3 1020.32 1504.25 1020.32 1505.62 1019.23 1490.67 1019.23 1489.3 1020.32"/><ellipse class="cls-1" cx="1496.77" cy="1026.43" rx="1.95" ry="2.12"/><circle class="cls-3" cx="1496.46" cy="1026.33" r="1.95"/><circle class="cls-4" cx="1496.15" cy="1026.33" r="1.49"/><polygon class="cls-5" points="0 416.56 1437.36 1024.52 1455.76 992.65 240.49 0 0 416.56"/><rect class="cls-6" x="1461.05" y="988.62" width="53.71" height="87.68" transform="translate(3125.99 260.13) rotate(120)"/><ellipse class="cls-6" cx="1449.94" cy="1010.54" rx="26.85" ry="15.46" transform="matrix(0.5, -0.87, 0.87, 0.5, -150.18, 1760.95)"/><ellipse class="cls-7" cx="1525.87" cy="1054.38" rx="26.85" ry="15.46" transform="translate(-150.18 1848.63) rotate(-60)"/><path class="cls-2" d="M1537.8,1061.27c6.83-11.82,7.13-25,.66-28.69s-17.7,3.09-24.52,14.91-7.12,25-.66,28.69S1531,1073.09,1537.8,1061.27Z"/><path class="cls-6" d="M1535.57,1060c6.43-11.13,7.07-23.43,1.72-28a7.77,7.77,0,0,1,1.17.55c6.47,3.73,6.17,16.87-.66,28.69s-18,18.65-24.52,14.91a7.64,7.64,0,0,1-1-.74C1518.81,1077.82,1529.15,1071.11,1535.57,1060Z"/><polygon class="cls-1" points="1483.61 1108.19 1484.91 1107.05 1484.91 1022.3 1483.61 1023.44 1483.61 1108.19"/><rect class="cls-2" x="1468.66" y="1023.44" width="14.95" height="84.75" transform="translate(2952.27 2131.62) rotate(-180)"/><polygon class="cls-3" points="1468.66 1023.41 1483.61 1023.41 1484.98 1022.32 1470.03 1022.32 1468.66 1023.41"/><ellipse class="cls-1" cx="1476.13" cy="1029.52" rx="1.95" ry="2.12"/><circle class="cls-3" cx="1475.82" cy="1029.42" r="1.95"/><circle class="cls-4" cx="1475.51" cy="1029.42" r="1.49"/></g></g></g></svg>