<svg xmlns="http://www.w3.org/2000/svg" viewBox="0 0 275.82 569.82"><defs><style>.cls-1{fill:#ffb287;}.cls-2{fill:#283543;}.cls-3{fill:#ede5d0;}.cls-4{fill:#f25130;}.cls-5{fill:#e2422d;}.cls-6{fill:#242c34;}.cls-7{fill:#3f252f;}.cls-8{fill:#f58d6c;}.cls-9{fill:#4c3840;}.cls-10{fill:#7e474a;}.cls-11{fill:#eb5151;}.cls-12{fill:#d04141;}.cls-13{fill:#ff7e7e;}.cls-14{fill:#fff;}</style></defs><title>3-15-抽奖的人</title><g id="图层_2" data-name="图层 2"><g id="_1-1-树" data-name="1-1-树"><g id="_3-15-抽奖的人" data-name="3-15-抽奖的人"><path class="cls-1" d="M30.71,73.7l-1.56-2L26.3,68V54.19l3.15-14.48s-7.55,0-9.44,10.7l-2.52,3.15S3.64,36.56,1.12,38.45,1.12,51,1.12,51A64.56,64.56,0,0,0,2.38,63.63c1.26,5,16.37,7.56,16.37,7.56l2.83,7.24Z"/><path class="cls-1" d="M252.1,42.82l.84-2.4,1.55-4.37-4.36-13.14-7.55-12.76s7.17-2.38,12.34,7.19l3.38,2.19S266.09-1,269.07,0s4,12,4,12a64.52,64.52,0,0,1,2.77,12.34c.39,5.18-13.15,12.33-13.15,12.33l-.41,7.76Z"/><path class="cls-2" d="M230.45,329s-26.76,197.37-26.76,221.93c.95,0-4.72.94-4.72.94s3.78,5.67,14.17,9.45c7.55,3.77-22.67.94-26.45-1.89.95-2.84,6.61-9.45,6.61-9.45-1.88-1.88,1.34-179.35,1.34-179.35s-41.94,130.25-48.55,186H147l-6.61,3.78,12.28,9.45s-20.31,0-21.25-4.73c.94-4.72,1.89-8.5,1.89-8.5s28.17-207.76,30.37-225.7C175.36,321.45,230.45,329,230.45,329Z"/><path class="cls-3" d="M170.64,184.51S143.73,199.62,140.89,202s-7.4,6.77-7.4,6.77l15.74,18.89s27.71,63.59,14.48,103.25c0,0,30.85,13.85,66.74-1.89,1.45-9.49,8.81-13.22,0-113.95-1.26-8.19,2.52-22.67,2.52-22.67l-47.22-5.67Z"/><path class="cls-1" d="M187.64,174.59s-1.89,9.45,3.3,16.53c-.94.47-7.08,4.25-7.08,4.25l-13.69-6.61,2.36-14.17Z"/><path class="cls-4" d="M195.19,189.23s4.41,9.45,4.41,13.85c-1.26,0-12.59-5-12.59-5l-10.7,12s-9.45-9.44-8.82-19.52c-1.89,5,2.52,20.78,7.56,23.93,5-1.26,12-12.6,12-12.6l17.63,6.93S202.12,196.79,195.19,189.23Z"/><polygon class="cls-4" points="193.31 202.93 191.89 212.84 182.44 208.12 187.01 198.05 193.31 202.93"/><path class="cls-4" d="M187,208.13S202.89,277.51,204,310l11.89,11.82,8.27-17s-23.17-77-32.64-99.51C188.81,207.77,187,208.13,187,208.13Z"/><path class="cls-5" d="M203.38,300.46c-1.86-20.15-7.07-47.91-11.13-67.72l8.06-3.33c7.15,21.13,15.56,48.21,20.25,63.5C214.89,295.37,208.68,298.08,203.38,300.46Z"/><path class="cls-6" d="M232,324.59s-35.88,12.59-67.36,1c-1.1,5.58-1.58,10.39-1.58,10.39s35.58,10.38,66.74-1.89C230.45,334,232,324.59,232,324.59Z"/><path class="cls-2" d="M223.05,338l2.36-11.8-6.13,1.89-1.42,13.22S222.11,338.44,223.05,338Z"/><path class="cls-2" d="M178.43,339.39l-2.83-10.86,6.61.94,1.41,13.22S179.38,339.86,178.43,339.39Z"/><path class="cls-7" d="M197.07,78.2S209.78,85,210.32,94s-6.39,33.22-6.39,33.22S183.45,91,197.07,78.2Z"/><path class="cls-1" d="M137.66,152.2c15.1,25.78,43.08,28.57,55.73,22.78s24.13-23.95,18.34-36.6-6.54-22.8-7.42-39.8S187,73.21,187,73.21s-30.24-14.95-55.48,9.21S137.66,152.2,137.66,152.2Z"/><path class="cls-8" d="M136.91,142s-16.57-15.21-17.41-1.33S151.11,169.14,136.91,142Z"/><path class="cls-8" d="M141.3,104.24s-1,23.07.89,33.39,9.73,31.74,40.4,36.7c11-2.07,24-10.57,24-10.57a29.13,29.13,0,0,1-21.66,14.71c-15.62,2.15-36.11-5.47-47-23.25-8.32-16-15.43-45.94-15.43-45.94Z"/><path class="cls-7" d="M161.41,89.42s22.51,16.4,32.12,6.6,27.6-36,8.62-51.95-72,6.57-86.12,41.24c3.24,5.11,7.87,5.39,7.87,5.39S115,98.09,115.32,106c1.24,6.63,12.61,30.82,12.61,30.82s7.46,3.19,13.94,13.42l4-3-13.71-30.61Z"/><path class="cls-9" d="M183.27,43s19.43-2.1,21.31,12c-1.81,14.83-68.42,25.73-69.11,22s28.81-21.39,25.72-21.57-27.37,12.73-34.56,23.22C127.88,73.18,142.59,49.84,183.27,43Z"/><path class="cls-9" d="M128.9,96.06s-9.81-.46-8.5,9.59c1.75,9.4,6.28,9.13,9.28,6.85s21.09-18.8,13.46-16.81A31.87,31.87,0,0,1,128.9,96.06Z"/><path class="cls-10" d="M176.71,116.67s-14.82,1.65-21,5.52c-.07-3.27,9.25-9.09,12.62-9.76S176.71,116.67,176.71,116.67Z"/><path class="cls-10" d="M190.37,112.82s11-.5,16,1.63c-.32-2.41-7.82-5.6-10.36-5.71S190.37,112.82,190.37,112.82Z"/><path class="cls-10" d="M169.23,127.19c.38,2,1.7,3.49,2.94,3.26s1.94-2.07,1.56-4.1-1.69-3.49-2.93-3.26S168.86,125.16,169.23,127.19Z"/><path class="cls-10" d="M195.79,122.24c.38,2,1.69,3.49,2.93,3.25s1.94-2.06,1.57-4.09-1.7-3.49-2.94-3.26S195.41,120.21,195.79,122.24Z"/><path id="_路径_" data-name="&lt;路径&gt;" class="cls-11" d="M206.73,118.85v0c-.52-2.83-2.84-5.08-5.63-4.57a4.28,4.28,0,0,0-3.32,4.12h0a4.27,4.27,0,0,0-4.56-2.68c-2.78.51-4.16,3.44-3.65,6.27v0c.1.62,1.26,6.87,10.77,10.41h0C208,125.72,206.85,119.46,206.73,118.85Z"/><path class="cls-12" d="M196.85,130.8a24.83,24.83,0,0,0,3.49,1.6h0c7.65-6.67,6.51-12.93,6.39-13.54v0a6.9,6.9,0,0,0-.28-1A17.52,17.52,0,0,1,196.85,130.8Z"/><path class="cls-13" d="M190.16,122.5s-1-5.37,4-6.36C194.17,116.14,190.89,117.69,190.16,122.5Z"/><path id="_路径_2" data-name="&lt;路径&gt;" class="cls-11" d="M177.06,123.44l0,0c-1-2.7-3.64-4.53-6.29-3.57a4.26,4.26,0,0,0-2.57,4.61h0a4.25,4.25,0,0,0-4.92-1.89c-2.65,1-3.52,4.08-2.54,6.78l0,.05c.2.59,2.39,6.56,12.31,8.47h0C179.44,130,177.28,124,177.06,123.44Z"/><path class="cls-12" d="M169.36,136.84a23.67,23.67,0,0,0,3.69,1h0c6.38-7.84,4.22-13.82,4-14.4l0,0a5.79,5.79,0,0,0-.45-1A17.43,17.43,0,0,1,169.36,136.84Z"/><path class="cls-13" d="M161.4,129.77s-1.93-5.12,2.87-6.94C164.27,122.83,161.31,124.91,161.4,129.77Z"/><path class="cls-8" d="M190.14,135.82l17.8-7.54s-.22,16.43-13.11,15.09C190.59,143.23,190.14,135.82,190.14,135.82Z"/><path class="cls-14" d="M200.85,148.15s-9.44,3.31-24.55-1.41a16.23,16.23,0,0,0,16.53,12.74A10.67,10.67,0,0,0,200.85,148.15Z"/><path class="cls-3" d="M149.23,227.64S54,109,18.12,76.85l10.39-9.44s55.71,42.5,128.43,131.27Z"/><path class="cls-3" d="M215.49,194c0-2.83,30.22-103.88,33.06-155.82l17,3.78s-.94,68-37.77,181.32c-7.56-5.67-14.17-33-14.17-33"/></g></g></g></svg>