<svg xmlns="http://www.w3.org/2000/svg" viewBox="0 0 296.98 236.86"><defs><style>.cls-1{fill:#28d2b7;}.cls-2{fill:#24ba9d;}.cls-3{fill:#405a73;}.cls-4{fill:#355066;}.cls-5{fill:#334c60;}.cls-6{fill:#2c4454;}.cls-7{fill:#4f6a7f;}.cls-8{fill:#415b6d;}.cls-9{fill:#22c6a6;}.cls-10{fill:#1baa8f;}.cls-11{fill:#be1622;}.cls-12{fill:#a31123;}.cls-13{fill:#ffc84a;}.cls-14{fill:#fe8b28;}.cls-15{fill:#fda738;}.cls-16{fill:#ffe467;}.cls-17{fill:#ed7d29;}.cls-18{fill:#eab242;}.cls-19{fill:#af1225;}.cls-20{fill:#e5bdbd;}.cls-21{fill:#e4413a;}.cls-22{fill:#d13030;}.cls-23{fill:#e30613;}.cls-24{fill:#cf0611;}.cls-25{fill:#700309;opacity:0.39;}.cls-26{fill:#e2a437;}</style></defs><title>3-16-抽奖的礼物</title><g id="图层_2" data-name="图层 2"><g id="_1-1-树" data-name="1-1-树"><g id="_3-16-抽奖的礼物" data-name="3-16-抽奖的礼物"><path class="cls-1" d="M115.06,112.92a21.15,21.15,0,0,0-10.9-10.38,9.77,9.77,0,0,0-4.56-.76c-2.42.29-4.3,1.86-6,3.38q-6,5.48-11.43,11.38c-1.8,2-10.51,9.66-9.88,12.11.77,3,30.88-2,35.13-2.64,2.5-.4,5.14-.89,7-2.4C117.6,121,116.83,116.41,115.06,112.92Zm-11.27,7.55c-.37,1.21-2,1.72-3.45,2-6.81,1.52-14.59,3.86-21.62,4.07,5.09-4.54,12.46-8.11,18.76-11.32a4.9,4.9,0,0,1,3.14-.76c1.75.36,2.24,2.21,2.76,3.68A3.66,3.66,0,0,1,103.79,120.47Z"/><path class="cls-1" d="M31.43,123.61c1.81,1.51,4.45,2,6.94,2.4,4.25.68,34.37,5.62,35.14,2.64.63-2.45-8.08-10.14-9.89-12.11q-5.41-5.9-11.42-11.38c-1.67-1.52-3.55-3.09-6-3.38a9.75,9.75,0,0,0-4.56.76,21.12,21.12,0,0,0-10.9,10.38C29,116.41,28.23,121,31.43,123.61Zm11-5.43c.53-1.47,1-3.32,2.77-3.68a4.87,4.87,0,0,1,3.13.76c6.3,3.21,13.68,6.78,18.77,11.32-7-.21-14.81-2.55-21.63-4.07-1.42-.32-3.07-.83-3.44-2A3.65,3.65,0,0,1,42.45,118.18Z"/><path class="cls-2" d="M69.42,124.05a1.59,1.59,0,0,1,.56-1.54,1.57,1.57,0,0,1,1.34-.05,2.31,2.31,0,0,1,1,.83,2,2,0,0,1,1.12-1.19,1.9,1.9,0,0,1,1.74.14,2,2,0,0,1,.69,1.4,6.8,6.8,0,0,1-1.65,5.24c-.91,1.05-2.51,1.52-3.31.21A10.93,10.93,0,0,1,69.42,124.05Z"/><path class="cls-2" d="M67.12,126.58c-7-.21-14.81-2.55-21.63-4.07-1.42-.32-3.07-.83-3.44-2a3.65,3.65,0,0,1,.4-2.29c.53-1.47,1-3.32,2.77-3.68a7.62,7.62,0,0,0-5.92,7.61,2.61,2.61,0,0,0,.43,1.48,4.14,4.14,0,0,0,2.47,1.2A77.54,77.54,0,0,0,67.12,126.58Z"/><path class="cls-2" d="M103.63,124.79a4.16,4.16,0,0,0,2.48-1.2,2.6,2.6,0,0,0,.42-1.48,7.61,7.61,0,0,0-5.91-7.61c1.75.36,2.23,2.21,2.76,3.68a3.73,3.73,0,0,1,.41,2.29c-.37,1.21-2,1.72-3.45,2-6.81,1.52-14.59,3.86-21.62,4.07A77.5,77.5,0,0,0,103.63,124.79Z"/><rect class="cls-3" x="6.51" y="145.29" width="137.2" height="88.91"/><rect class="cls-4" x="58.55" y="145.29" width="85.16" height="14.39"/><rect class="cls-5" x="6.51" y="145.29" width="52.04" height="88.91"/><rect class="cls-6" x="6.51" y="145.29" width="52.04" height="14.39"/><rect class="cls-7" y="128.05" width="150.36" height="23.76"/><rect class="cls-8" y="128.05" width="58.77" height="23.76"/><rect class="cls-1" x="90.06" y="128.05" width="22.99" height="106.15"/><rect class="cls-9" x="90.06" y="151.81" width="22.99" height="7.87"/><rect class="cls-2" x="21.56" y="128.05" width="18.08" height="106.15"/><rect class="cls-10" x="21.56" y="151.82" width="18.08" height="7.86"/><path class="cls-11" d="M270.31,85.33c-2.9-6.7-7.63-12.93-14.26-16a10.94,10.94,0,0,0-6-1.16c-3.16.44-5.62,2.86-7.8,5.19q-7.84,8.45-14.95,17.54c-2.36,3-13.76,14.86-12.93,18.64,1,4.58,40.41-3,46-4.07,3.27-.61,6.72-1.36,9.09-3.69C273.64,97.7,272.63,90.7,270.31,85.33ZM255.56,97c-.48,1.86-2.64,2.65-4.5,3.14-8.92,2.35-19.1,6-28.3,6.27,6.66-7,16.31-12.49,24.55-17.43,1.25-.75,2.68-1.52,4.1-1.17,2.29.55,2.93,3.41,3.63,5.66A6.59,6.59,0,0,1,255.56,97Z"/><path class="cls-11" d="M160.89,101.8c2.36,2.33,5.82,3.08,9.08,3.69,5.56,1.05,45,8.65,46,4.07.83-3.78-10.57-15.61-12.93-18.64q-7.08-9.09-14.95-17.54c-2.18-2.33-4.64-4.75-7.8-5.19a10.89,10.89,0,0,0-6,1.16c-6.64,3.05-11.37,9.28-14.26,16C157.71,90.7,156.71,97.7,160.89,101.8Zm14.42-8.37c.69-2.25,1.33-5.11,3.62-5.66,1.42-.35,2.85.42,4.1,1.17,8.24,4.94,17.89,10.44,24.55,17.43-9.2-.32-19.38-3.92-28.29-6.27-1.87-.49-4-1.28-4.51-3.14A6.5,6.5,0,0,1,175.31,93.43Z"/><path class="cls-12" d="M210.6,102.48a2.67,2.67,0,0,1,.73-2.37,1.74,1.74,0,0,1,1.75-.08,3.1,3.1,0,0,1,1.29,1.27,3,3,0,0,1,1.47-1.83,2.14,2.14,0,0,1,2.28.23,3.19,3.19,0,0,1,.9,2.15,11.68,11.68,0,0,1-2.16,8.07c-1.19,1.62-3.28,2.33-4.33.31A19.15,19.15,0,0,1,210.6,102.48Z"/><path class="cls-12" d="M207.58,106.37c-9.2-.32-19.38-3.92-28.29-6.27-1.87-.49-4-1.28-4.51-3.14a6.5,6.5,0,0,1,.53-3.53c.69-2.25,1.33-5.11,3.62-5.66-4.93,1.4-8,6.59-7.74,11.71a4.59,4.59,0,0,0,.55,2.29,5.19,5.19,0,0,0,3.24,1.85A86.5,86.5,0,0,0,207.58,106.37Z"/><path class="cls-12" d="M255.35,103.62a5.19,5.19,0,0,0,3.25-1.85,4.59,4.59,0,0,0,.55-2.29c.21-5.12-2.81-10.31-7.74-11.71,2.29.55,2.93,3.41,3.62,5.66a6.5,6.5,0,0,1,.53,3.53c-.49,1.86-2.64,2.65-4.51,3.14-8.91,2.35-19.09,6-28.29,6.27A86.45,86.45,0,0,0,255.35,103.62Z"/><rect class="cls-13" x="204.14" y="131.86" width="86.17" height="105.01"/><rect class="cls-14" x="141.13" y="131.86" width="63.01" height="105.01" transform="translate(345.27 368.72) rotate(180)"/><rect class="cls-15" x="136.36" y="108.78" width="67.78" height="23.84" transform="translate(340.5 241.41) rotate(180)"/><rect class="cls-11" x="159.92" y="108.78" width="17.89" height="23.84" transform="translate(337.74 241.41) rotate(180)"/><rect class="cls-16" x="204.14" y="108.78" width="92.84" height="23.84"/><polygon class="cls-17" points="167.71 139.44 141.12 139.44 141.12 132.62 167.71 132.62 204.14 132.62 204.14 139.44 167.71 139.44"/><polygon class="cls-18" points="240.5 139.44 204.14 139.44 204.14 132.62 240.5 132.62 290.31 132.62 290.31 139.44 240.5 139.44"/><rect class="cls-11" x="241.68" y="139.44" width="17.89" height="97.42" transform="translate(501.25 376.3) rotate(180)"/><rect class="cls-19" x="241.68" y="132.62" width="17.89" height="6.82" transform="translate(501.25 272.06) rotate(180)"/><rect class="cls-11" x="161.46" y="139.44" width="17.89" height="97.42" transform="translate(340.81 376.3) rotate(180)"/><rect class="cls-19" x="161.46" y="132.62" width="17.89" height="6.82" transform="translate(340.81 272.06) rotate(180)"/><rect class="cls-11" x="243.21" y="108.78" width="17.89" height="23.84" transform="translate(504.32 241.41) rotate(180)"/><g id="_编组_" data-name="&lt;编组&gt;"><path id="_路径_" data-name="&lt;路径&gt;" class="cls-20" d="M139.49,28.15v96a3,3,0,0,1-3,3H77.6a3,3,0,0,1-3-3v-96Z"/><path id="_路径_2" data-name="&lt;路径&gt;" class="cls-20" d="M139.49,28.15v96a3,3,0,0,1-3,3H77.6a3,3,0,0,1-3-3v-96Z"/><g id="_编组_2" data-name="&lt;编组&gt;"><path id="_路径_3" data-name="&lt;路径&gt;" class="cls-21" d="M139.49,28.15v96a3,3,0,0,1-3,3H121.65v-99Z"/><path id="_路径_4" data-name="&lt;路径&gt;" class="cls-22" d="M139.49,33.28v5.41a12.82,12.82,0,0,1-3,.17H121.65V33.28Z"/><polygon id="_路径_5" data-name="&lt;路径&gt;" class="cls-21" points="121.65 115.38 121.65 123.53 74.61 113.53 74.61 105.39 121.65 115.38"/><polygon id="_路径_6" data-name="&lt;路径&gt;" class="cls-21" points="121.65 95.5 121.65 103.65 74.61 93.65 74.61 85.51 121.65 95.5"/><polygon id="_路径_7" data-name="&lt;路径&gt;" class="cls-21" points="121.65 75.62 121.65 83.77 74.61 73.77 74.61 65.63 121.65 75.62"/><polygon id="_路径_8" data-name="&lt;路径&gt;" class="cls-21" points="121.65 55.74 121.65 63.89 74.61 53.89 74.61 45.75 121.65 55.74"/><polygon id="_路径_9" data-name="&lt;路径&gt;" class="cls-21" points="121.65 35.87 121.65 44.01 74.61 34.01 74.61 28.15 85.35 28.15 121.65 35.87"/><polygon id="_路径_10" data-name="&lt;路径&gt;" class="cls-21" points="139.49 111.59 139.49 119.73 121.65 123.53 121.65 115.38 139.49 111.59"/><polygon id="_路径_11" data-name="&lt;路径&gt;" class="cls-21" points="139.49 91.71 139.49 99.85 121.65 103.65 121.65 95.5 139.49 91.71"/><polygon id="_路径_12" data-name="&lt;路径&gt;" class="cls-21" points="139.49 71.83 139.49 79.97 121.65 83.77 121.65 75.62 139.49 71.83"/><polygon id="_路径_13" data-name="&lt;路径&gt;" class="cls-21" points="139.49 51.95 139.49 60.1 121.65 63.89 121.65 55.74 139.49 51.95"/><line id="_路径_14" data-name="&lt;路径&gt;" class="cls-21" x1="139.49" y1="79.97" x2="139.49" y2="71.83"/><line id="_路径_15" data-name="&lt;路径&gt;" class="cls-21" x1="139.49" y1="119.73" x2="139.49" y2="111.59"/><line id="_路径_16" data-name="&lt;路径&gt;" class="cls-21" x1="139.49" y1="60.1" x2="139.49" y2="51.95"/><line id="_路径_17" data-name="&lt;路径&gt;" class="cls-21" x1="139.49" y1="99.85" x2="139.49" y2="91.71"/><polygon id="_路径_18" data-name="&lt;路径&gt;" class="cls-21" points="139.49 32.07 139.49 40.22 121.65 44.01 121.65 35.87 139.49 32.07"/></g><path id="_矩形_" data-name="&lt;矩形&gt;" class="cls-23" d="M75.7,27h62.71a3.12,3.12,0,0,1,3.12,3.12V33.2a0,0,0,0,1,0,0H72.58a0,0,0,0,1,0,0V30.07A3.12,3.12,0,0,1,75.7,27Z"/><path id="_矩形_2" data-name="&lt;矩形&gt;" class="cls-24" d="M120.55,27h17.85a3.12,3.12,0,0,1,3.12,3.12V33.2a0,0,0,0,1,0,0h-21a0,0,0,0,1,0,0V27A0,0,0,0,1,120.55,27Z"/><rect id="_矩形_3" data-name="&lt;矩形&gt;" class="cls-25" x="74.61" y="33.2" width="64.88" height="5.76"/><g id="_编组_3" data-name="&lt;编组&gt;"><rect id="_矩形_4" data-name="&lt;矩形&gt;" class="cls-13" x="91.25" y="26.95" width="6.86" height="100.18"/><path id="_路径_19" data-name="&lt;路径&gt;" class="cls-13" d="M98.12,123v4.14H91.26V27h2.81v90c0,3.33,1.81,6,4.05,6Z"/></g><g id="_编组_4" data-name="&lt;编组&gt;"><rect id="_矩形_5" data-name="&lt;矩形&gt;" class="cls-13" x="127.14" y="26.95" width="6.86" height="100.18"/><path id="_路径_20" data-name="&lt;路径&gt;" class="cls-13" d="M134,123v4.14h-6.86V27H130v90c0,3.33,1.82,6,4.05,6Z"/></g><g id="_编组_5" data-name="&lt;编组&gt;"><g id="_编组_6" data-name="&lt;编组&gt;"><path id="_路径_21" data-name="&lt;路径&gt;" class="cls-26" d="M106.05,22.7S103.75.19,93.47,0c0,0-2.33,2.38-1.76,4a1.68,1.68,0,0,0,.63.74c4.79,3.56,7.9,8.78,8.24,13.74.18,2.51.15,4.63-.36,5.33Z"/><path class="cls-13" d="M106.06,22.77V22.7s-2.41-2.33-5.18-5.56c-.63-.73-1.28-1.51-1.92-2.32l0,0a43,43,0,0,1-5-7.63,10.33,10.33,0,0,1-1.27-5A3.64,3.64,0,0,1,93.47,0S84,2.52,83.46,8.62a6.14,6.14,0,0,0-2.36,1.49,11.44,11.44,0,0,0-2.65,4.82c-1.07,3.63,2,8.3,6.42,9.82,6,2.06,13.4,2.33,17.9,2.26A3.25,3.25,0,0,0,106.06,22.77Z"/></g><g id="_编组_7" data-name="&lt;编组&gt;"><path id="_路径_22" data-name="&lt;路径&gt;" class="cls-26" d="M105.83,22.7S108.13.19,118.41,0c0,0,2.33,2.38,1.76,4a1.68,1.68,0,0,1-.63.74c-4.79,3.56-7.9,8.78-8.24,13.74-.18,2.51-.14,4.63.36,5.33Z"/><path class="cls-13" d="M133.43,14.93a11.44,11.44,0,0,0-2.65-4.82,6.18,6.18,0,0,0-2.35-1.49c-.53-6.1-10-8.62-10-8.62a3.64,3.64,0,0,1,.84,2.2,10.26,10.26,0,0,1-1.27,5h0a42.68,42.68,0,0,1-5,7.64l0,0c-.64.81-1.29,1.59-1.92,2.32-2.77,3.23-5.18,5.56-5.18,5.56v.07A3.25,3.25,0,0,0,109.11,27c4.5.07,11.85-.2,17.9-2.26C131.48,23.23,134.5,18.56,133.43,14.93Z"/></g><g id="_编组_8" data-name="&lt;编组&gt;"><rect id="_矩形_6" data-name="&lt;矩形&gt;" class="cls-26" x="100.82" y="14.61" width="9.18" height="12.41" rx="1.46" ry="1.46"/><path id="_路径_23" data-name="&lt;路径&gt;" class="cls-13" d="M108.65,23.85a8.66,8.66,0,0,0,1.35-.08V21.91a1.06,1.06,0,0,0-1.07-1.06,11.19,11.19,0,0,1-2-.17,13.64,13.64,0,0,1-4.5-1.71,1.07,1.07,0,0,0-1.63.9v0a1.05,1.05,0,0,0,.38.83A14.92,14.92,0,0,0,108.65,23.85Z"/></g></g></g></g></g></g></svg>