<svg xmlns="http://www.w3.org/2000/svg" viewBox="0 0 200.02 603.86"><defs><style>.cls-1{fill:#ffbfa4;}.cls-2{fill:#ff4b06;}.cls-3{fill:#424dbf;}.cls-4{fill:#f83a1f;}.cls-5{fill:#242449;}.cls-6{fill:#f17187;}.cls-7{fill:#fff;}</style></defs><title>3-17-游戏区人1</title><g id="图层_2" data-name="图层 2"><g id="_1-1-树" data-name="1-1-树"><g id="_3-17-游戏区人1" data-name="3-17-游戏区人1"><polygon class="cls-1" points="131.94 414.17 75.89 393.56 87.44 491.75 80.75 576.47 80.57 577.03 80.7 577.05 80.25 582.69 90.14 584.49 90.14 584.49 90.14 584.49 116.85 502.84 129.92 422.44 129.92 422.44 131.94 414.17"/><polygon class="cls-2" points="91.17 582.15 79.7 581.86 76.77 591.53 77.06 591.62 76.99 591.63 95.95 602.86 104.96 603.86 106.11 593.56 103.67 591.78 91.17 582.15"/><polygon class="cls-1" points="170.12 415.86 152.79 589.08 143.06 591.46 131.06 493.71 111.74 403.29 170.12 415.86"/><polygon class="cls-2" points="153.27 587.89 167.97 596.22 166.59 603.16 140.33 599.2 141.88 589.21 153.27 587.89"/><path class="cls-3" d="M196.4,458.08C200,455.62,200,451.33,200,447a107.16,107.16,0,0,0-3.31-24.14c-3.52-14.7-7.51-32.41-9.26-51.46-4.54-49.24-20.09-82.28-20.09-82.28l-5-13.38q-1.49-2.61-3.11-5.16c-6.26-9.83-17.14-26.54-28.78-29.28l-.74-.16c-12.23-2.69-27.91-1.44-39,4.5a38.82,38.82,0,0,0-5.82,4.13c-5.41,4.36-9.81,6.72-12.15,13.37-2,5.77-2.49,12.07-3.61,18.05-2.26,12.14-3.61,24.44-5.43,36.66-3.39,22.91-6.27,45.9-9.9,68.78-1.87,11.78-3.75,23.58-4.64,35.47-.78,10.52-10.27,21.21-15.6,30.63-1.86,3.29,24.8,11.79,27.18,12.34,11.06,2.58,22.82,1.92,34.22,2q37.47.17,74.88-2.31c8.28-.55,18.49-2.13,25.84-6.25C196,458.37,196.19,458.23,196.4,458.08Z"/><path class="cls-4" d="M116,239.82s-14.07-3.8-16,27.95S94.8,379.85,90.26,401.88s-11.33,65.23-11.33,65.23l43.08,1.5,49.24-3.89s-16.85-31.1-19.44-53.13,1.95-104.95-9.07-136S129.42,240.38,116,239.82Z"/><polygon class="cls-3" points="179.67 310.53 182.91 314.41 194.57 298.22 147.93 246.39 130.43 241.21 138.85 263.88 179.67 310.53"/><polygon class="cls-1" points="140.68 297.12 130.45 289.31 133.59 284.79 141.78 288.58 142.28 285.75 150.22 293.5 147.59 298.64 140.68 297.12"/><polygon class="cls-3" points="180.78 295.12 180.33 296.13 148.41 289.97 143.71 300.44 182.91 314.41 180.78 295.12"/><path class="cls-5" d="M135.62,214.67c2.13,6.39-1,13.21-3.66,19-2.4,5.17-3.23,8.57,2.86,10,3.43.79,9.52,2.25,12.53-.38,2.27-2,1-8.13-.11-10.57-.85-1.87-3.09-2.81-3.89-4.7a6.72,6.72,0,0,1-.39-2.48,34.59,34.59,0,0,1,1.41-10.21,34.19,34.19,0,0,0,1.77-6.78c.29-3.38-2.1-7.32-3.36-10.42-2.33-5.78-10.47-13.54-17.28-9a9.92,9.92,0,0,0-3.21,4.48,8.24,8.24,0,0,0-.89,3.2c-.06,4.43,4,5.18,6.79,7.29A22.28,22.28,0,0,1,135.62,214.67Z"/><path class="cls-1" d="M122.66,239.61c5.91-1.39,10.53-6.35,12.75-12s2.34-11.92,1.72-18c-2-20.1-27-18.81-35.51-3.4C94.25,219.67,105.48,243.66,122.66,239.61Z"/><path class="cls-1" d="M122.66,237.44l-.3,6.87a1.41,1.41,0,0,1-.28.95,1.44,1.44,0,0,1-1.08.26l-5.59-.19a6.21,6.21,0,0,1-2.71-.51c-1.78-1-2.15-3.38-1.86-5.39s1-4,.57-6c3.86,1.9,7.52-2.39,11.37-.49Z"/><path class="cls-5" d="M114.59,174.81c-6.56,2.23-10.77,8.87-17.18,11.52-3.67,1.52-8,1.71-11,4.33-6.71,5.85-1.31,18.14-6.83,25.13-1.15,1.46-2.7,2.56-3.85,4-2.48,3.13-2.81,7.4-3,11.39a12.35,12.35,0,0,0,.1,2.78c.86,9.21,14.23,8.63,19.55,8,5.83-.65,3.89-3.89,3.89-3.89l-.22-.26a11.14,11.14,0,0,1,3.92-10.11,13.75,13.75,0,0,0,3.15-2.77c1.73-2.64.08-6.13.33-9.27,1-12.65,22.26-9.94,28.25-19C139,185.71,127,170.6,114.59,174.81Z"/><path class="cls-6" d="M184,0,1.17,14.86A1.3,1.3,0,0,0,0,16.32L11.48,152.54a1.32,1.32,0,0,0,1.39,1.26l41.34-3.35,31.66,36.77a1.48,1.48,0,0,0,2.61-1l-2.64-38.3,71.49-5.81c21.93-1.78,38.09-22.23,36.12-45.68l-8-95.12A1.35,1.35,0,0,0,184,0Z"/><polygon class="cls-1" points="45.49 152.45 49.33 139 55.15 140.39 54.56 150.18 57.61 149.56 52.93 160.66 46.69 160.04 45.49 152.45"/><polygon class="cls-3" points="96.81 254.53 54.28 220.18 55.78 157.44 43.33 156.82 25.15 230.51 67.73 284.23 96.81 254.53"/><path class="cls-7" d="M38.77,64.8H36.63l-1.69,4.5H30V90.15H23.64V71.82L21.7,75.4l-3.7-5,9.76-18.07,5.59,1.39L30,59.93V65.6l4.75-12.78h6.3l-2.23,6H52.18V69.3H46.59V64.8H45.24V90.15H37l1.77-2.4Zm-6.77,7h5.72l-.46,14H31.5Zm14.46,0h5.68v14H46.46Z"/><path class="cls-7" d="M55.11,54.29H88.75v6H55.11Zm.8,35.9h32v-25h-6v18.2h-20V65.22h-6Zm7.36-27.95H80.55v19H63.27Zm4.46,7.44h1.89V67.41H67.73Zm0,6.39h1.89V73.8H67.73Zm6.51-8.66v2.27h1.89V67.41Zm1.89,8.66V73.8H74.24v2.27Z"/><path class="cls-7" d="M94.46,55.39l11.6-1.56v5.46l-2.4.34v4.79h5c-.54-3.32-1-6.93-1.47-11l6.27-.76c.46,4.42.88,8.16,1.51,11.73h7.78v5.43h-6.69c.17.88.42,1.76.63,2.64l2.19-2.35,4.37,3.78L118.59,79c.84,2.65,1.8,5.51,3,8.7L123.71,89l-8,1.8c-.8-2.18-1.52-4.28-2.19-6.39l-5.46,5.93-4.25-4L111.61,78c-.72-2.6-1.39-5.29-2-8.15h-6v4.66l3.87-.88v5.89l-3.87.88v9.83H95.72L97.19,88V81.87l-3.53.8V76.78l3.53-.8V69.85H92.82V64.42h4.37V60.51l-2.73.34ZM115.6,55h5.63v6.35H115.6Z"/><path class="cls-7" d="M134,52.44a41.17,41.17,0,0,1,2.48,3.87l2.1-1.93L142,58.54V55.22h6.09V52.86h6.35v2.36h6.35V59.8h-6.35v1.26h5.59v4.2h-5.59v1.27h7v4.62H141.53V66.53h6.6V65.26h-5.34v-4.2h5.34V59.8H142v-.63l-3,2.77a34.6,34.6,0,0,1,1.93,11.44A37.33,37.33,0,0,1,136.44,91l-7.23-2.65,2.11-1.6a22.46,22.46,0,0,0,3.15-8.19l-2.86,2.9-3.53-4.54,6.6-6.06a35.41,35.41,0,0,0-.76-4.12l-3.32,3.07-3.66-4.66,4.71-4.33a28.36,28.36,0,0,0-2.86-4.59Zm8.45,37.79v-18H160.7v18h-6.77l1.18-1.93V85h-6.94v5.21Zm5.71-10h1.35V77h-1.35ZM153.81,77v3.24h1.3V77Z"/></g></g></g></svg>