<svg xmlns="http://www.w3.org/2000/svg" viewBox="0 0 222.37 610.21"><defs><style>.cls-1{fill:#ce7361;}.cls-2{fill:#7eacf1;}.cls-3{fill:#f5be52;}.cls-4{fill:#2f3787;}.cls-5{fill:#302a81;}.cls-6{fill:#f6d5d5;}.cls-7{fill:#f17187;}</style></defs><title>3-18-游戏区人2</title><g id="图层_2" data-name="图层 2"><g id="_1-1-树" data-name="1-1-树"><g id="_3-18-游戏区人2" data-name="3-18-游戏区人2"><polygon class="cls-1" points="16.63 196.88 14.59 183.05 20.46 181.92 23.96 191.08 26.48 189.25 26.8 201.3 20.85 203.3 16.63 196.88"/><polygon class="cls-2" points="105.46 269.73 52.56 255.97 28.06 198.19 16.46 202.76 30.27 277.39 91.21 308.78 105.46 269.73"/><polygon class="cls-3" points="75.72 594.94 75.02 601.87 88.17 610.21 99.93 608.79 89.58 596.35 76.43 588.01 75.72 594.94"/><polygon class="cls-4" points="75.21 383.57 73.08 404.61 91.86 498.65 75.22 592.64 88.69 596.78 132.23 485.04 134.62 450.88 128.72 380.11 75.21 383.57"/><polygon class="cls-4" points="177.26 390.73 177.69 479.63 160.17 594.14 147.29 594.05 139.87 488.24 122.95 382.36 177.26 390.73"/><polygon class="cls-3" points="147.33 599.49 164.93 608.79 174.93 606.79 159.93 592.79 147.38 592.52 147.33 599.49"/><path class="cls-3" d="M188.12,377.68c-9.3-28.78-10.29-59-13-89-.8-8.85-1.65-17.89-5.33-26-4.23-9.28-11.22-14.18-19.37-16.85-10.37-3.41-22.6-3.22-33.38-3.87-10.22-.32-19.27,38.12-29.7,56.76-6.4,11.42-13,21.52-17.3,34-4.14,12-8.11,24.13-10.52,36.57-3.64,18.78-12.93,31.9-4.05,38.29.81.26,1.59.53,2.34.8a217.93,217.93,0,0,0,45,11.1,179.46,179.46,0,0,0,41.11.78c18.71-1.84,36.85-4.49,53.34-14.25Q192.69,391.86,188.12,377.68Z"/><path class="cls-1" d="M112.05,213.37c5.82-17.59,31.49-23.71,37.46-3.27,1.79,6.14,2.87,12.66,1.65,18.94s-5,12.31-10.91,14.89l-.1,0c.23,1.63.45,3.26.68,4.89a1.5,1.5,0,0,1-.1,1,1.47,1.47,0,0,1-1.07.48l-5.84.87a6.31,6.31,0,0,1-2.9,0c-2-.65-2.88-3.09-3-5.22,0-.51,0-1,0-1.54C116.43,240.52,108.24,224.87,112.05,213.37Z"/><path class="cls-5" d="M143.32,183.34c4.7-.7,8.7,3.86,13,6.25,3.61,2,7.7,2.52,11.44,4.17s7.41,5.09,7.49,9.41c3.79-2,7.9-4,12.14-3.18s8.19,5.89,6.5,10.07c-1.52,3.74-6.4,4.62-8,8.3-2.57,5.83,4.37,14.88-.37,18.74-1.14.93-2.69,1.15-3.81,2.11-1.39,1.19-1.83,3.23-2.45,5-2.81,8.23-11.1,13.6-19.28,12.5a21.75,21.75,0,0,1-11-12.95c-2.19-6.8,1.45-9.18,2.06-15.56a27.82,27.82,0,0,0-5.94-19.77c-2.86-3.53-7-6.57-11.27-7-1.75-.17-1.2,1.3-3.18-.06a8.84,8.84,0,0,1-2.24-3.85C133.19,193.78,137.14,184.26,143.32,183.34Z"/><path class="cls-5" d="M92.49,192.38c-2.43.68-5.06.58-7.37,1.59-3.47,1.52-3.26,5.12-4.24,8.25-1.09,3.46-2.67,8.11-4.95,10.81-1.65,1.94-4,3.05-6,4.54s-3.85,3.71-3.81,6.41,1.76,4.86,2,7.41c.3,3.81-.36,5.76.82,9.65.6,2,1.28,4.14,2.79,5.51,2,1.81,4.82,1.77,7.3,1.36s5.06-1.11,7.51-.28c5.31,1.78,4.32,7.16,5.74,11.66,2.15,6.86,10.1,10.86,16.18,8.42,5.16-2.06,8.14-8,7.91-14-.12-3-1.3-5.72-1.38-8.68s1.53-6.81-1.06-9.08a20.69,20.69,0,0,1-2-1.47,4.18,4.18,0,0,1-.87-1.88,8.21,8.21,0,0,1,1.36-6.74c1-1.3,2.43-2.25,3-3.81.7-1.8.14-3.9,0-5.89-.28-4.79,2.34-9.5,6.34-11.35,2.63-1.22,5-1.94,7.31-3.8.35-.28,5.58-4.91,5.72-3.91a10.6,10.6,0,0,0-2.28-4.66,20.82,20.82,0,0,0-6-5.91c-7.71-4.44-8.08,5.89-14.27,4.53-1.49-.33-2.61-1.7-4-2.51-2.54-1.54-5.65-1-8.25.16S95.22,191.62,92.49,192.38Z"/><path class="cls-6" d="M212.11,76.78A34.44,34.44,0,0,0,177.49,42.9c0-.6,0-1.19,0-1.79a41.78,41.78,0,0,0-73.71-26.27A38.64,38.64,0,0,0,36.53,39.26c-.87,0-1.75-.08-2.64-.07a34.46,34.46,0,0,0-9.55,67.4,33.36,33.36,0,0,0,31.43,45.94,35.54,35.54,0,0,0,4.16-.33l.59,35.66c0,1.55,2,2.13,2.59,1.33L85.2,157.11a33.32,33.32,0,0,0,47.08-11.91,37.23,37.23,0,0,0,56.44-32.51c0-.89-.07-1.78-.15-2.65A34.46,34.46,0,0,0,212.11,76.78Z"/><path class="cls-7" d="M144.28,85.51c-5.08.09-5,8,.14,7.91S149.38,85.43,144.28,85.51Z"/><path class="cls-7" d="M108.7,86.1c-5.09.09-5,8,.13,7.91S113.8,86,108.7,86.1Z"/><path class="cls-7" d="M64.22,86.84c-5.09.08-5,8,.13,7.9S69.32,86.75,64.22,86.84Z"/><polygon class="cls-1" points="179.49 146.02 171.79 134.35 166.66 137.43 170.17 146.59 167.07 146.91 174.87 156.09 180.64 153.62 179.49 146.02"/><polygon class="cls-2" points="154.32 250.47 191.48 213.26 171.19 153.87 182.88 149.54 222.37 214.36 171.47 277.44 154.32 250.47"/></g></g></g></svg>