<svg xmlns="http://www.w3.org/2000/svg" viewBox="0 0 197.96 655.59"><defs><style>.cls-1{fill:#242449;}.cls-2{fill:#302b41;}.cls-3{fill:#73acf3;}.cls-4{fill:#ffbfa4;}.cls-5{fill:#424dbf;}.cls-6{fill:#fff;}</style></defs><title>3-19-游戏区人3</title><g id="图层_2" data-name="图层 2"><g id="_1-1-树" data-name="1-1-树"><g id="_3-19-游戏区人3" data-name="3-19-游戏区人3"><polygon class="cls-1" points="162.47 637.11 163.52 645.3 148.21 655.59 138.97 648.46 146.1 639.22 161.42 628.93 162.47 637.11"/><polygon class="cls-2" points="162.99 634.37 151.18 529.99 165.39 413.13 162.19 388.27 98.71 385.86 96.42 426.32 107.08 530.14 147.17 639.7 162.99 634.37"/><polygon class="cls-3" points="92.75 270.37 60.82 279.06 23.89 344.5 41.39 360.7 66.01 331.54 92.75 270.37"/><polygon class="cls-2" points="52.13 397.56 51.97 502.89 73.17 638.49 88.43 638.34 96.82 512.94 116.45 387.43 52.13 397.56"/><polygon class="cls-2" points="88.41 644.78 71.98 653.19 63.65 645.02 71.82 636.69 88.32 636.52 88.41 644.78"/><path class="cls-3" d="M172,433.38c-.15-4.56-.4-8.37-.44-9.73-.33-12.25-1.42-24.46-3-36.62-1.37-10.9-3.11-37.94-5-48.77-1.54-8.94-6.91-31.26-10.78-39.55-9.64-20.62-6.66-22.53-49-28.65-18.56-2.68-22.95,8.88-38.12,22.18-1.49,1.31-1.41,9.12-1.76,11.19-.61,3.64-1.26,7.28-2,10.9-.59,2.84-1.24,5.68-2,8.49h0s-12.73,58-21.15,70.27-25.83,29.52,3.28,40a105.29,105.29,0,0,0,15.72,4.1s23.8-2.65,36-2.55a207.54,207.54,0,0,1,33.68,3.13c7.41,1.24,15,3,21.61,6.5,6.32,3.31,10.89,8.17,17.31,11.59a3.33,3.33,0,0,0,2,.56C172.09,455.94,172.26,443,172,433.38Z"/><path class="cls-4" d="M143.56,165.46s-6.07-3-6-3.79,1-11.75,1-11.75l4-2.28,1.68-4.67s-4.55-8-3.71-10.3,6.9,8,6.9,8l2.22,6.33.57,10.23Z"/><polygon class="cls-4" points="78.9 322.2 91.31 312.74 87.5 307.26 77.57 311.86 76.97 308.43 67.33 317.81 70.53 324.05 78.9 322.2"/><polygon class="cls-3" points="77.33 325.54 67.37 312.53 33.1 333.2 41.55 360.8 77.33 325.54"/><path class="cls-4" d="M103.77,275.88c2.13,1.05,7.18,1.43,12.44-.63a2.76,2.76,0,0,0,1.76-2.58,70.92,70.92,0,0,0-.77-9.54c3.94-1.39,8.5-3.47,9.19-7.6a11.78,11.78,0,0,0-.23-3.92q-1.39-8.06-2.78-16.1a14.38,14.38,0,0,0-1.68-5.35c-1.77-2.79-5.2-4-8.46-4.58-8.31-1.44-17.36.36-23.81,5.8a13,13,0,0,0-4,5.3c-1.16,3.26-.29,6.85.59,10.2l2.43,9.27c.94,3.55,2.28,7.59,5.71,8.93,1.81.7,4,.5,5.61,1.54C102.65,268.47,102.26,272.79,103.77,275.88Z"/><path class="cls-1" d="M55.81,222.36a33,33,0,0,0-2.68-3.84c-2.13-2.63-4.75-4.88-6.47-7.8s-2.32-6.86-.26-9.55c1.33-1.73,3.48-2.6,5.58-3.21a40.55,40.55,0,0,1,21.31-.4c6.64,1.69,12.59,4.49,19.27,2,6.28-2.34,10.81-1.39,17.38,1,7.1,2.53,16.63,3.13,23.06,6.71a18.87,18.87,0,0,1,6.5,6.4,28.61,28.61,0,0,1,.08,30.22,41.37,41.37,0,0,1-4.45,5.61c-3.35,3.63-7.36,8.12-12,9.46-.11-4.12,3.65-17.12.48-20.5-5-5.36-16.39-3.49-22.62-2.17-6.8,1.44-12.86,6.25-19.6,7.28-4.85.74-11-1.63-15.17-4.14C61.16,236.28,58.79,227.25,55.81,222.36Z"/><polygon class="cls-3" points="127.28 274.06 159.92 256.89 137.52 165.46 152.95 157.12 191.93 256.89 150.2 307.26 127.28 274.06"/><path class="cls-5" d="M24.78.28,172.91,0a24.83,24.83,0,0,1,24.87,24.78l.18,95.48a24.81,24.81,0,0,1-24.63,24.87l-23.81.19-27.06,38.12a1.41,1.41,0,0,1-2.57-.79l-.63-37.28-94.26,0A24.83,24.83,0,0,1,.18,120.56L0,25.16A24.83,24.83,0,0,1,24.78.28Z"/><path class="cls-6" d="M53.14,53a41,41,0,0,1,2.48,3.86l2.1-1.93,3.44,4.16V55.75h6.1V53.4h6.35v2.35H80v4.58H73.61v1.26H79.2V65.8H73.61v1.26h7v4.62H60.66V67.06h6.6V65.8H61.92V61.59h5.34V60.33h-6.1V59.7l-3,2.78a34.54,34.54,0,0,1,1.93,11.43,37.39,37.39,0,0,1-4.5,17.57l-7.23-2.65,2.11-1.59A22.58,22.58,0,0,0,53.6,79l-2.86,2.9L47.21,77.4l6.6-6.05a34.65,34.65,0,0,0-.76-4.12l-3.32,3.06-3.66-4.66,4.71-4.33a28.27,28.27,0,0,0-2.86-4.58Zm8.44,37.79v-18H79.83v18H73.06l1.18-1.94V85.55H67.3v5.22Zm5.72-10h1.35V77.57H67.3Zm5.64-3.23V80.8h1.3V77.57Z"/><path class="cls-6" d="M84.4,54.66h15.89v4.62H99.12v7.15l2.56-13h5.09l-1,5.17h10.8v8.28h-4V64.16h-1v5.71c0,4,4.37,13.62,6.64,17.16l-4.58,4.12a50.52,50.52,0,0,1-5.13-11.56,69.23,69.23,0,0,1-5.21,11.56l-4.16-3.7v3.32H91.51l1.81-2.27V76.31h-9V70.67h9V59.28H84.4Zm.8,14.67h7.15v-9H85.2ZM85.2,87h7.23V77.53H85.2Zm3.2-21.31V63.78h1v1.89ZM88.4,83V81.14h1V83Zm10.72-6.68v9.92c2.35-3.91,6.18-12.91,6.18-16.36V64.16h-.59L103.83,69H99.12v1.72h1.47v5.64Z"/><path class="cls-6" d="M133.54,52.6l5,2.94L137,57.14h13.32c-1.34,6.55-6.56,12.36-12.06,16.81h11.3V90.68H128.58V80.47a27.68,27.68,0,0,1-5.09,2.39l-4-5.21a58.18,58.18,0,0,0,11.77-6.35l-3.87-4.24L124,70.55l-3.75-4.29Zm-1.81,9.92-.12.12,4.66,4.63a27.15,27.15,0,0,0,4.25-4.75Zm10.93,22.4V79.71h-7.14v5.21Z"/></g></g></g></svg>