<svg xmlns="http://www.w3.org/2000/svg" viewBox="0 0 80.56 199.29"><defs><style>.cls-1{fill:#fff;}.cls-2{fill:#242e35;}.cls-3{fill:#35434f;}.cls-4{fill:#f4c092;}.cls-5{opacity:0.11;}.cls-6{fill:#ffcc9a;}.cls-7{fill:#f4f4f4;}.cls-8{fill:#323e49;}.cls-9{fill:#3d4d5c;}</style></defs><title>3-2-演讲区手2</title><g id="图层_2" data-name="图层 2"><g id="_1-1-树" data-name="1-1-树"><g id="_3-2-演讲区手2" data-name="3-2-演讲区手2"><rect class="cls-1" x="38.71" y="72.71" width="6.3" height="31.4" transform="translate(-50.32 121.13) rotate(-84.21)"/><rect class="cls-2" x="-17.23" y="126.55" width="107.07" height="35.38" transform="translate(-110.86 165.81) rotate(-84.21)"/><rect class="cls-3" x="-26.14" y="134.49" width="107.07" height="17.69" transform="translate(-117.98 156.13) rotate(-84.21)"/><path class="cls-4" d="M45.47,6.81a5.24,5.24,0,0,1,.7,2.62c.23,2.63.46,5.26.58,7.89.09,2,.12,4,0,6a73.36,73.36,0,0,0-.23,8.38,12.82,12.82,0,0,0,2.92,7.69A108,108,0,0,1,49.75,22a8.81,8.81,0,0,1,.78-3.57,3,3,0,0,1,3-1.68,2.41,2.41,0,0,1,1.21.66,3.38,3.38,0,0,1,.87,1.41,8.9,8.9,0,0,1,.28,3c-.13,6.61-.32,13.28.61,20,.07.45.15.9.25,1.34.54,2.51,1.49,4.89,1.42,7.48C58,58.62,57.07,66.55,54.49,74c-1,2.81-2.2,5.68-2.18,8.61l.19.88.11.54A2.66,2.66,0,0,1,51,86a7.68,7.68,0,0,1-2.61.52c-4.61.39-9.32.7-14,1l-6.78.52c0-.79,0-1.6,0-2.4a13.46,13.46,0,0,0-1.16-5.87,25.47,25.47,0,0,0-2.62-3.75c-1.53-2.06-2.75-4.33-4.1-6.51a67.43,67.43,0,0,0-6.7-8.4,7.4,7.4,0,0,1-1.57-4c-.19-1.42-.18-2.87-.38-4.3A28.9,28.9,0,0,0,8.23,44.8c-1.13-2.41-2.36-4.94-4.59-6.4a11.22,11.22,0,0,1-1.41-.95A1.87,1.87,0,0,1,1.52,36c.09-1,1.23-1.54,2.22-1.77,3.25-.73,6.91-.38,9.49,1.72,4,3.28,4.23,9.59,7.86,13.32a59.79,59.79,0,0,0,.66-18.45q-.09-.72-.15-1.44c-.06-.57-.1-1.15-.13-1.72a110.38,110.38,0,0,1,.77-17.32A13,13,0,0,1,22.86,7,4.41,4.41,0,0,1,25,4.52,2.69,2.69,0,0,1,28,5a4.35,4.35,0,0,1,.78,2.79l.93,20.27c0,.28,0,.57.05.85a15.2,15.2,0,0,0,.42,3.15,6.6,6.6,0,0,0,2,3.43q-.23-2.34-.42-4.68A217.75,217.75,0,0,1,31.35,5a8.3,8.3,0,0,1,.56-2.72,3.17,3.17,0,0,1,1.91-2,3.34,3.34,0,0,1,3.49.54,6.87,6.87,0,0,1,.88,3.1c0,3.68.11,6.62.08,10.3l2,20.34c.35-1.94-.25-19.34-.36-23.64a6.93,6.93,0,0,1,.52-3.51,3.24,3.24,0,0,1,2.39-1.7A2.83,2.83,0,0,1,45.47,6.81Z"/><path class="cls-5" d="M54.74,17.44q-2,6.35-4.09,12.71a19.59,19.59,0,0,0-1,3.91c0,.36,1.44,2.28,3.6,5l.57.7c.88,1.09,1.86,2.29,2.89,3.54,5.91,7.24,13.3,16.36,12.61,18.06-3,7.31-6.56,14.44-11.58,20.51-.77.92-1.57,1.84-2.33,2.79a16,16,0,0,0-2.72,4.52l-.23,1.43a2.67,2.67,0,0,1-2.22,1.28,7.92,7.92,0,0,1-2.63-.43c-4.39-1.23-8.84-2.56-13.28-3.86-2.16-.63-4.31-1.26-6.45-1.86l-.27-.07c1.05-2.61,2.12-5.36,1.82-8.15A25.62,25.62,0,0,0,28.33,73c-.72-2.46-1.07-5-1.57-7.53A66.2,66.2,0,0,0,23.42,55.3a7.49,7.49,0,0,1-.09-4.25c.32-1.41.84-2.76,1.15-4.17a28.94,28.94,0,0,0,.16-8.57c-.07-.86-.14-1.73-.27-2.59q-.09-.69-.24-1.38a9.59,9.59,0,0,0-1.55-3.64,11.7,11.7,0,0,1-1-1.36l0,0a1.92,1.92,0,0,1-.14-1.65l0-.05c.45-.87,1.69-.95,2.67-.82a13,13,0,0,1,5.66,2.12,9.3,9.3,0,0,1,2,1.9,8,8,0,0,1,.62.9C33.74,34,33.9,36.57,34,39.21c0,.47,0,.94,0,1.42a17.39,17.39,0,0,0,1.06,6.2.61.61,0,0,0,0,.12l0-.08c.78-1.25,1.51-2.56,2.19-3.9l.27-.53A61.28,61.28,0,0,0,42.2,29.9c.32-1.33.7-2.63,1.12-3.92.09-.29.18-.57.28-.86.91-2.65,2-5.24,3.15-7.8.09,2,.12,4,0,6a73.36,73.36,0,0,0-.23,8.38,12.82,12.82,0,0,0,2.92,7.69A108,108,0,0,1,49.75,22a8.81,8.81,0,0,1,.78-3.57,3,3,0,0,1,3-1.68A2.41,2.41,0,0,1,54.74,17.44Z"/><path class="cls-6" d="M23.89,28c.44-.92,1.7-1,2.7-.87,3.3.44,6.61,2,8.29,4.92,2.64,4.49.62,10.46,2.71,15.22a59.41,59.41,0,0,0,7.06-17c1.62-6.65,4.62-12.87,7.63-19A12.71,12.71,0,0,1,54,8.32a4.35,4.35,0,0,1,2.84-1.61,2.67,2.67,0,0,1,2.72,1.53,4.34,4.34,0,0,1-.25,2.89q-3.11,9.66-6.2,19.31a19.21,19.21,0,0,0-1,3.92,6.51,6.51,0,0,0,.69,3.91A214.2,214.2,0,0,1,62.66,9.41a8.25,8.25,0,0,1,1.47-2.35,3.16,3.16,0,0,1,2.5-1.26c1.16,0,2.71.64,3.09,1.72a7.06,7.06,0,0,1-.26,3.22c-1.32,3.44-2.21,6.24-3.52,9.68L60.69,40.17c1-1.69,6.53-18.21,7.92-22.27a7,7,0,0,1,1.72-3.11A3.26,3.26,0,0,1,73.16,14a2.86,2.86,0,0,1,2.1,2,5.22,5.22,0,0,1-.26,2.7,106.65,106.65,0,0,1-4.27,13.22,71.14,71.14,0,0,0-3.14,7.76,12.74,12.74,0,0,0,0,8.23A107.27,107.27,0,0,1,74,31.78a8.66,8.66,0,0,1,2-3.07,2.64,2.64,0,0,1,4.62,2.14,8.88,8.88,0,0,1-.8,2.95c-2.44,6.15-4.94,12.34-6.42,19-.66,3-.38,6-1.52,8.85-2.94,7.31-6.56,14.43-11.58,20.51-1.89,2.29-4,4.55-5,7.3L55,90.87a2.69,2.69,0,0,1-2.23,1.27,7.85,7.85,0,0,1-2.62-.42c-6.63-1.86-13.38-3.94-20-5.8,1-2.61,2.12-5.35,1.83-8.15a25.54,25.54,0,0,0-1.15-4.43c-.71-2.46-1.06-5-1.57-7.53A66.9,66.9,0,0,0,25.88,55.6a7.35,7.35,0,0,1-.09-4.26c.31-1.4.83-2.76,1.14-4.16a29,29,0,0,0,.16-8.58C26.88,36,26.61,33.14,25,31a11.38,11.38,0,0,1-1-1.39A1.9,1.9,0,0,1,23.89,28Z"/><path class="cls-7" d="M54.58,11l3.19.84a.49.49,0,0,0,.61-.37l.43-1.75a2,2,0,0,0-1.43-2.08A2.34,2.34,0,0,0,55,8.26a3.93,3.93,0,0,0-.57,1.6l-.15.55A.51.51,0,0,0,54.58,11Z"/><path class="cls-7" d="M64.16,10l3.23,1.4a.55.55,0,0,0,.71-.3l.72-1.78a2.1,2.1,0,0,0-1.18-2.43A2.5,2.5,0,0,0,65,7.16a4.17,4.17,0,0,0-.85,1.59l-.25.57A.53.53,0,0,0,64.16,10Z"/><path class="cls-7" d="M69.88,18.4l3.23,1.39a.54.54,0,0,0,.71-.29l.72-1.78a2.1,2.1,0,0,0-1.18-2.43,2.51,2.51,0,0,0-2.66.24,4.29,4.29,0,0,0-.85,1.6l-.25.56A.54.54,0,0,0,69.88,18.4Z"/><path class="cls-7" d="M75.62,31.87l2.91,1.25a.48.48,0,0,0,.63-.26l.65-1.61a1.87,1.87,0,0,0-1.06-2.18,2.23,2.23,0,0,0-2.39.22,3.63,3.63,0,0,0-.77,1.43l-.22.51A.48.48,0,0,0,75.62,31.87Z"/><path class="cls-7" d="M26.87,32.79l1.6-.83c.13-.07.09-.35-.11-.61l-1.23-1.71s-1-1.34-2.05-1.1c0,0-.82.25-.25,1.7a9.57,9.57,0,0,0,1.07,1.64l.39.55C26.48,32.7,26.74,32.86,26.87,32.79Z"/><rect class="cls-1" x="40.22" y="69.39" width="6.3" height="31.4" transform="translate(-49.61 106.88) rotate(-76.18)"/><rect class="cls-8" x="-23.46" y="121.9" width="107.07" height="35.38" transform="translate(-112.66 135.45) rotate(-76.18)"/><rect class="cls-9" x="-32.16" y="128.61" width="107.07" height="17.69" transform="translate(-117.2 125.38) rotate(-76.18)"/></g></g></g></svg>