<svg xmlns="http://www.w3.org/2000/svg" viewBox="0 0 217.14 632.5"><defs><style>.cls-1{fill:#afafb0;}.cls-2{fill:#39c0a6;}.cls-3{fill:#2f3787;}.cls-4{fill:#ce7361;}.cls-5{fill:#302a81;}.cls-6{fill:#2fb19a;}.cls-7{fill:#fff;}</style></defs><title>3-20-游戏区人4</title><g id="图层_2" data-name="图层 2"><g id="_1-1-树" data-name="1-1-树"><g id="_3-20-游戏区人4" data-name="3-20-游戏区人4"><polygon class="cls-1" points="129.1 435.92 132.04 504.15 123.42 620.16 110.51 621.08 94.84 515.71 73.15 426.55 129.1 435.92"/><polygon class="cls-2" points="110.97 626.51 125.42 632.5 137.29 630.15 124.43 618.54 110.48 619.53 110.97 626.51"/><polygon class="cls-1" points="37.76 411.78 34.93 463.35 43.33 616.69 56.25 617.34 75.61 516.77 92.69 406.48 37.76 411.78"/><polygon class="cls-2" points="55.9 622.78 41.58 629.07 27.29 630.15 43.29 615.15 56.25 615.8 55.9 622.78"/><path class="cls-3" d="M112.88,259.85l-40.32-4.31s-22.43,2.39-37.64,55.66c-8.47,29.63-11,76.32-11.67,111.91.95,5.08,6.49,27.32,29.88,23.55,40.16-6.48,61.54-13,79-9.72,14.9,3.24,13.64-17.28,12-32.93l-5.94-48.45Z"/><path class="cls-4" d="M105.09,209.67c-10.16-2.24-20.62-4.25-30.79-2.23-2.23.44-4.62,1.21-5.83,3.14a8.76,8.76,0,0,0-.94,2.45c-2.57,9.54-5.83,23.69.45,32.48a15.7,15.7,0,0,0,4.54,4.09,22.36,22.36,0,0,0,7.52,3,40.44,40.44,0,0,1-2.28,6.93C80.09,263,90.94,263.41,93,260l.33-8.73a21.4,21.4,0,0,0,3.8-2,24.53,24.53,0,0,0,9.47-12.87c1.93-5.65,4.65-11,6.41-16.77.65-2.1,1.16-4.49.05-6.39s-3.71-2.7-6-3.21Z"/><path class="cls-5" d="M71.27,215.13c5-3.23,12.56-4.62,17.28-4.28,14.28,1,19.51,11.52,20.27,24.65,3.93-5,11.32-11.29,11.76-17.72.37-5.27-.36-12.45-3.31-17-2.76-4.25-9.82-6.59-14-9.06l-11.87-7a8.2,8.2,0,0,0-2.61-1.14,8,8,0,0,0-3.34.38l-28.05,7.25c-1.8.46-3.84,1.14-4.51,2.87a5.94,5.94,0,0,0,.08,3.34c1.06,4.85,3.1,9.82,3.6,14.73.58,2.86,2.28,17.5,7.34,15.81,1.48-2.42,1.71-5.42,2.86-8A11.65,11.65,0,0,1,71.27,215.13Z"/><polygon class="cls-3" points="72.56 255.54 57.66 260.07 3.24 317.08 0 335.87 26.02 378.83 33.04 363.08 22.03 331.34 39.52 319.03 62.84 266.55 72.56 255.54"/><path class="cls-6" d="M14.74,71.43C14.74,32,60.05,0,115.94,0s101.2,32,101.2,71.43-45.31,71.44-101.2,71.44c-2.22,0-4.42-.06-6.61-.16a1.55,1.55,0,0,0-1.59,1.83l8.07,44a1.55,1.55,0,0,1-2.67,1.31L60.48,131.32A1.72,1.72,0,0,0,60,131C32.72,118.16,14.74,96.28,14.74,71.43Z"/><path class="cls-7" d="M159,80.17c-5.83,0-5.84-9.07,0-9.07S164.84,80.17,159,80.17Z"/><path class="cls-7" d="M118.17,80.17c-5.83,0-5.84-9.07,0-9.07S124,80.17,118.17,80.17Z"/><path class="cls-7" d="M67.15,80.17c-5.84,0-5.85-9.07,0-9.07S73,80.17,67.15,80.17Z"/><polygon class="cls-3" points="104.33 263.3 132.04 233.36 125.51 152.22 137.69 146.88 154.25 229.19 149.18 249.7 118.11 292.56 104.33 263.3"/><polygon class="cls-4" points="137.69 146.88 137.69 128.27 129.18 123.3 125.08 130.85 125.08 138.42 120.67 140.24 125.51 152.22 137.69 146.88"/></g></g></g></svg>