<svg xmlns="http://www.w3.org/2000/svg" viewBox="0 0 311.95 598.57"><defs><style>.cls-1{fill:#ef6c74;}.cls-2{fill:#73acf3;}.cls-3{fill:#5966d6;}.cls-4{fill:#242449;}.cls-5{fill:#ffbfa4;}.cls-6{fill:#fff;}</style></defs><title>3-21-游戏区人5</title><g id="图层_2" data-name="图层 2"><g id="_1-1-树" data-name="1-1-树"><g id="_3-21-游戏区人5" data-name="3-21-游戏区人5"><polygon class="cls-1" points="100.25 228.71 50.12 265.29 6.41 246.4 0 258.19 33.1 280.74 51.66 287.67 100.25 264.28 100.25 228.71"/><path class="cls-2" d="M134.77.09l153.5,12.76a25.81,25.81,0,0,1,23.59,27.86l-8.22,98.95a25.82,25.82,0,0,1-27.72,23.6l-24.68-1.91-31.4,37.12a1.47,1.47,0,0,1-2.59-1.05l2.63-38.67-97.67-8.35a25.81,25.81,0,0,1-23.52-27.86l8.21-98.86A25.82,25.82,0,0,1,134.77.09Z"/><polygon class="cls-3" points="121.3 408.19 177.92 389.19 163.56 487.01 168.16 578.48 168.16 578.48 168.16 578.48 168.16 578.48 157.85 578.48 157.85 578.48 157.85 578.48 133.85 497.25 123.09 416.51 123.09 416.51 121.3 408.19"/><polygon class="cls-1" points="157.25 577.26 168.72 577.3 171.37 587.06 171.08 587.13 171.15 587.14 151.88 597.83 142.84 598.58 141.99 588.24 144.47 586.53 157.25 577.26"/><polygon class="cls-3" points="77.25 408.78 89.66 582.97 99.42 584.18 114.07 487.71 135.98 397.89 77.25 408.78"/><polygon class="cls-1" points="89.17 581.22 74.24 589.13 75.42 596.1 101.78 592.9 100.53 582.87 89.17 581.22"/><path class="cls-1" d="M193.36,436.45C194.54,408,169.1,317.36,169.1,317.36h0a160.88,160.88,0,0,1-6-25.85c-.88-6.18-19.4-76.42-18.17-76.51-12.76.93-37.36-2.09-46.81,7-.27.26-.52.53-.77.81-7.37,8.4-11.19,25.41-14.68,35.88a281.78,281.78,0,0,0-10.49,42.16c-2.09,12.5-3.34,25.12-4.22,37.76-.76,10.86-.16,21.67-.53,32.36-.41,11.83-4,24.66-6.61,36.17a200.25,200.25,0,0,1-10.73,34c12.67,5.61,26.78,7.12,40.63,7.17s27.68-1.28,41.53-1.07c11.71.18,23.57,1.46,35-.89,9.13-1.87,17.55-5.93,26-9.85Z"/><path class="cls-4" d="M101.28,185.2c-5.82,2.87-11.89,10.29-11.51,17.19.18,3.32,2,5.91,2.07,9.47.13,7,10.78,14.39,4.26,21.17-3.35,3.48-8.59,4.17-13.4,4.65a3.52,3.52,0,0,1-1.74-.12,2.48,2.48,0,0,1-1.3-2.39,10.15,10.15,0,0,1,.68-2.8c3.07-9.62-1.56-20.84-2.1-30.65S80,181.38,88,175c5.38,1.64,9.39,3.91,12,8.88Z"/><path class="cls-5" d="M104.9,227c-6.63-.83-12.27-5.73-15.36-11.66s-4-12.77-4-19.46c-.1-22.24,27.42-23.74,38.49-7.86C133.69,201.81,124.19,229.38,104.9,227Z"/><path class="cls-4" d="M138.23,229.66c-3.42-1-6.81-2-9.45-4.93-4.28-4.66-5.55-13.45-7.57-19.26-2.12-6.13-4.63-12.75-10.2-16.07-3.63-2.17-7.29-2-11.28-1.29-2.73.49-2.63,1.54-5.22.53-2-.77-4.14-3.82-4.93-5.69-1.33-3.16-.69-6.9,1-9.89a16.12,16.12,0,0,1,11.19-8.45c17.65-3.87,33,4,41.41,20.36,4,7.85,4.07,17.47,8.21,25,2.55,4.63,6.37,7.31,8.68,12.32,6,13,17,29,19.19,43.25a2,2,0,0,1-.19,1.54c-.66.87-2,.24-2.87-.43l-15-11.76a26.84,26.84,0,0,1-5.4-5.13c-3.63-5-3.72-12.43-8.59-16.27C144.58,231.38,141.39,230.57,138.23,229.66Z"/><path class="cls-1" d="M220.88,202.72c3.33.62,12-1.71,14-4.77,4.6-7.07-6.32-4.9-10.27-5a21.38,21.38,0,0,0,1.11-4.09c.16-1.28-11.56,2.06-12.69,3.29-2.71,2.94-1.48,5.17-1.23,8.9C214.83,201.54,217.86,202.15,220.88,202.72Z"/><polygon class="cls-1" points="128.69 273.82 192.75 263.16 222.25 203.34 210.52 193.68 179.3 235.1 146.69 233.72 116.5 235.02 128.69 273.82"/><path class="cls-6" d="M139.59,62.38l2.26.17.51-6.74,6.71.5-.51,6.75,1.84.14L150,69l-1.84-.14L147.73,74l1.84-.36L149.09,80l-1.84.37-1,12.83-8.43-.64,1.87-1.84.68-9.05-2.82.5.47-6.29,2.83-.5.52-7-2.26-.17Zm12.46-3.1,6.54.49.23-3.1,6.62.5-.23,3.1,6.46.49-.36,4.73-2-.14L169.06,69l2.39.18-.38,5.07-14-1.06,5.46,2-1,1.78,10,.75-.35,4.61-2.1-.16a19.17,19.17,0,0,1-3.5,6.19L169.55,91l-3.27,4.18-5.19-3.25a17.88,17.88,0,0,1-8.63,2.17l-3-5a16.31,16.31,0,0,0,5.67-.84l-4.95-3.11,2.22-4.18-2.77-.21.35-4.61,4.78.36,1.72-3.28-6.08-.46.38-5.07,2.6.19.28-3.68-2-.16Zm10.7,22.43L159,81.43l-1.08,1.94L160.43,85A11,11,0,0,0,162.75,81.71Zm-3.25-13.4,3.48.27.28-3.69-3.48-.27Z"/><path class="cls-6" d="M177,64.36l8.47.64,1.62-6.91,6.9,1.23-1.48,6.22,12.87,1L203,97.36l-9-.68,2.16-1.74,1.7-22.63-6.83-.52-5.77,24.56-6.84-1.06,5.57-24-7.51-.57Z"/><path class="cls-6" d="M213.94,79.08l5.59,1.44L215,98.13l-5.74-1.53Zm-.87-7.94,6.41.48L219,78l-6.42-.48Zm.66-8.81,6.41.49-.48,6.41-6.41-.48Zm6.47,4.24,2.22.17.4-5.24,4.86.37-.4,5.24,4.11.31L231,73l-4.36-.33L226,76l4.82.36-1.73,23-5.58-.42,1.08-1.39L225.81,81l-.75,0-3.24,17.84-5.17-.86,4.89-25.64-1.76-.13Zm12.42,9.16,11.78.89L240,85.14l3.06.23-.39,5.2-3.1-.23-.74,9.72-6.66-.5,1.16-1.43.62-8.22-3.18-.24.39-5.2,3.39.26,1.89-3.82-4.19-.32Zm2.06-13.42,5,.38L238.34,67l6.24.47-.39,5.2-7.46-.56-.72,2.3L231,74Z"/><path class="cls-6" d="M250.93,76c1.15,1.52,2.15,2.77,3.07,3.94a35.36,35.36,0,0,0,1.51-5.49l-8.09-.62.43-5.61,14.42,1.09A58.3,58.3,0,0,1,258,85.44c1.25,2,2.6,4.16,4.31,7.16L256.76,96c-.86-1.54-1.6-2.82-2.28-4a29.58,29.58,0,0,1-6.9,7.66L244,94.93a34.58,34.58,0,0,0,7-8.54c-1.29-2-2.78-4-4.91-7ZM270.2,64.28c.2,3.47.45,6.86.83,10.18l7.88.59-.38,5.07-6.88-.52.6,3.84,2.31-2.65,4.08,3.39-5.17,6c.68,3.3,1.48,6.69,2.44,10.14l1.58,1.34-7.8,1.18c-.64-2.2-1.15-4.3-1.63-6.4l-4.75,5.5L259,98.72l7.66-8.87c-.69-3.72-1.18-7.3-1.55-10.74l-3.31-.25.38-5.07,2.44.18q-.35-4.69-.45-9.14Zm2.28,2.66,5.49.41-.38,5L272.1,72Z"/></g></g></g></svg>