<svg xmlns="http://www.w3.org/2000/svg" viewBox="0 0 1154.52 482.89"><defs><style>.cls-1{fill:#eee4d6;}.cls-2{fill:#c63424;}.cls-3{fill:#fcd588;}</style></defs><title>3-22-游戏区人装饰物</title><g id="图层_2" data-name="图层 2"><g id="_1-1-树" data-name="1-1-树"><g id="_3-22-游戏区人装饰物" data-name="3-22-游戏区人装饰物"><path class="cls-1" d="M5,407.57c-1.35,0-3.14-.9-4.88-4.09a.61.61,0,0,1,.24-.84.62.62,0,0,1,.85.24c.93,1.72,2.44,3.7,4.25,3.42.85-.13,2.33-.85,4.1-3.88a9.37,9.37,0,0,1-6-6.58c-.79-3.91,1.44-7.58,5.56-9.14a31,31,0,0,0,6.47-3.59c.16-1.8,1-9.76,3.92-11a2.52,2.52,0,0,1,2.69.53,3.23,3.23,0,0,1,1.28,3.17c-.39,2.54-3.34,5.58-6.74,8.05-.46,2.33-.95,4.5-1.46,6.49a5.3,5.3,0,0,1,3.6,1.07c2.45,1.9,3,5.89,2.12,8.65-.68,2.15-2.1,3.42-3.9,3.5a19.35,19.35,0,0,1-6.36-.7c-1.61,2.83-3.32,4.42-5.11,4.69A3.39,3.39,0,0,1,5,407.57Zm6.35-5.86a18.26,18.26,0,0,0,5.72.59c1.76-.08,2.52-1.87,2.77-2.63.75-2.36.32-5.73-1.7-7.29a4.15,4.15,0,0,0-3.18-.77A55.2,55.2,0,0,1,11.31,401.71Zm3.93-16.85a30.76,30.76,0,0,1-5.7,3C6,389.2,4.09,392.3,4.77,395.59c.43,2.13,2.09,4.44,5.35,5.72a51.06,51.06,0,0,0,3.43-9.38,12.75,12.75,0,0,0-2.8,1.36.62.62,0,1,1-.67-1.05,13.05,13.05,0,0,1,3.84-1.72C14.36,388.82,14.81,386.94,15.24,384.86Zm5.15-11.73a.83.83,0,0,0-.4.08c-1.61.71-2.65,5.38-3.07,8.9,2.76-2.15,5-4.59,5.31-6.52a2,2,0,0,0-.82-2A1.79,1.79,0,0,0,20.39,373.13Z"/><path class="cls-2" d="M362.42,36.39l.26,1,.64-.83c4.79-6.21,2.32-33.14-1-36.22a1.08,1.08,0,0,0-1.15-.3c-.5.18-1.1.78-1.65,3.37l-.06,0L339.58,37.19l-.21-.22c-1.79-1.68-5-2.21-8.23-1.35-4.39,1.18-7.31,4.58-6.51,7.59a4.18,4.18,0,0,0,1.21,2c1.78,1.68,5,2.2,8.22,1.34,4.4-1.18,7.32-4.58,6.51-7.58a4.19,4.19,0,0,0-.34-.85l18.88-32c0,.26-.07.53-.1.81C357.72,17.51,362.23,35.63,362.42,36.39Z"/><polygon class="cls-1" points="1036.88 461.57 1039.93 482.89 1026.54 469.28 1010.33 478.65 1022.67 463.61 1006.53 452.09 1026.13 455.78 1027.38 443.14 1032.87 454.82 1066.52 450 1036.88 461.57"/><path class="cls-3" d="M1128.83,184.86c-2.45.49-6-.29-10.51-5.3A1.15,1.15,0,0,1,1120,178c2.41,2.68,6,5.62,9.1,4.35,1.46-.58,3.83-2.52,5.73-8.71-7.13-1.13-11.59-5.13-13.52-9.32-3.09-6.69-.62-14.23,6.14-18.78a57.8,57.8,0,0,0,10.12-9.17c-.48-3.32-2.29-18,2.39-21.51,1-.72,2.6-1.33,5.08-.18a6,6,0,0,1,3.62,5.16c.38,4.74-3.64,11.45-8.71,17.33q.21,6.59.1,12.3a9.7,9.7,0,0,1,6.93.4c5.2,2.38,7.88,9.33,7.46,14.66-.32,4.15-2.34,7-5.53,7.93a35.15,35.15,0,0,1-11.76,1.43c-1.68,5.77-4.09,9.35-7.19,10.6A6.31,6.31,0,0,1,1128.83,184.86Zm9-13.21a33.72,33.72,0,0,0,10.54-1.37c3.14-.88,3.75-4.41,3.86-5.89.36-4.56-1.84-10.44-6.13-12.4a7.64,7.64,0,0,0-6,0A101.46,101.46,0,0,1,1137.78,171.65Zm0-32a56.76,56.76,0,0,1-9,7.81c-5.79,3.89-7.93,10.28-5.33,15.91,1.68,3.65,5.64,7.1,12,8a93.65,93.65,0,0,0,2.21-18.33,24,24,0,0,0-4.47,3.64,1.14,1.14,0,0,1-1.62,0,1.15,1.15,0,0,1,0-1.63,23.86,23.86,0,0,1,6.18-4.7C1137.84,147.17,1137.84,143.6,1137.75,139.67Zm4.32-23.26a1.53,1.53,0,0,0-.69.31c-2.59,2-2.51,10.79-1.77,17.31,4.06-5,7.08-10.37,6.79-14a3.62,3.62,0,0,0-2.3-3.25A3.29,3.29,0,0,0,1142.07,116.41Z"/><path class="cls-1" d="M627.79,85.39a1.14,1.14,0,0,0,0-.61l11.59-10.09.41.34,3.56-3.13L630.66,61l-4,3.23.56.47L616,74.43a6.11,6.11,0,0,0-3.31-2.09c-2.33-.69-4.43-.33-4.78.83a1.37,1.37,0,0,0,.12,1,5.69,5.69,0,0,0,3.43,2.31c2.34.69,4.44.32,4.78-.84a1.25,1.25,0,0,0,0-.61l11.44-10,11.17,9.23-11.36,9.89a6,6,0,0,0-3.3-2.09c-2.34-.69-4.44-.33-4.78.83a1.42,1.42,0,0,0,.11,1A5.75,5.75,0,0,0,623,86.23C625.35,86.92,627.44,86.55,627.79,85.39Z"/></g></g></g></svg>