<svg xmlns="http://www.w3.org/2000/svg" viewBox="0 0 158.8 272.91"><defs><style>.cls-1{fill:#f58d6c;}.cls-2{fill:#fff;}.cls-3{fill:#242e35;}.cls-4{fill:#ffb287;}.cls-5{fill:#f4f4f4;}.cls-6{fill:#323e49;}</style></defs><title>3-3三-演讲区手4</title><g id="图层_2" data-name="图层 2"><g id="_1-1-树" data-name="1-1-树"><g id="_3-3三-演讲区手4" data-name="3-3三-演讲区手4"><path class="cls-1" d="M105.31,56.73a6.06,6.06,0,0,1,.13,3.14c-.4,3-.8,6.06-1.32,9.07-.4,2.28-.87,4.54-1.47,6.78a80.42,80.42,0,0,0-2.36,9.41,14.76,14.76,0,0,0,1.36,9.43A125.42,125.42,0,0,1,106.33,75a10,10,0,0,1,1.77-3.84A3.46,3.46,0,0,1,111.92,70a2.81,2.81,0,0,1,1.2,1,4.21,4.21,0,0,1,.63,1.82,10.5,10.5,0,0,1-.45,3.51c-1.82,7.45-3.71,15-4.35,22.8,0,.53-.06,1.06-.06,1.58,0,3,.46,5.91-.27,8.81-2.21,8.86-5.22,17.61-10,25.38-1.81,2.93-3.92,5.87-4.63,9.19l0,1.05v.64a3.09,3.09,0,0,1-2.35,1.81,9.11,9.11,0,0,1-3.08-.07c-5.31-.72-10.71-1.55-16.08-2.34-2.61-.39-5.22-.77-7.8-1.12.22-.89.45-1.8.63-2.71a15.47,15.47,0,0,0,.16-6.93,28.56,28.56,0,0,0-2-4.9c-1.21-2.72-2-5.59-3-8.4A78,78,0,0,0,55,110a8.55,8.55,0,0,1-.79-4.87c.14-1.66.52-3.3.66-5a33.69,33.69,0,0,0-1.19-9.86c-.67-3-1.43-6.19-3.58-8.4A13.09,13.09,0,0,1,48.7,80.5a2.21,2.21,0,0,1-.43-1.87c.36-1.12,1.79-1.42,3-1.43,3.86,0,7.91,1.3,10.3,4.33,3.74,4.73,2.38,11.9,5.53,17a69.28,69.28,0,0,0,5.39-20.7c0-.56.12-1.11.19-1.67s.18-1.32.29-2a128.57,128.57,0,0,1,5.23-19.39,15.59,15.59,0,0,1,1.52-3.56,5.1,5.1,0,0,1,3-2.29,3.09,3.09,0,0,1,3.36,1.32,5.07,5.07,0,0,1,.18,3.36q-2,11.56-4,23.14c-.06.33-.12.66-.17,1a18.14,18.14,0,0,0-.31,3.67,7.55,7.55,0,0,0,1.41,4.38q.33-2.7.7-5.4a252.09,252.09,0,0,1,6-29.29,9.59,9.59,0,0,1,1.32-2.93,3.69,3.69,0,0,1,2.67-1.84c1.32-.2,3.2.3,3.82,1.49a8.09,8.09,0,0,1,.21,3.73c-1,4.15-1.54,7.51-2.5,11.66L92.44,86.77C93.33,84.67,97,64.83,98,60a8.23,8.23,0,0,1,1.47-3.85,3.8,3.8,0,0,1,3.13-1.32A3.29,3.29,0,0,1,105.31,56.73Z"/><rect class="cls-2" x="74.57" y="125.85" width="7.3" height="36.38" transform="translate(-76.19 199.01) rotate(-81.09)"/><rect class="cls-3" x="6.43" y="186.63" width="124.04" height="40.99" transform="translate(-146.77 242.67) rotate(-81.09)"/><path class="cls-4" d="M45.36,90.09c.11-1.17,1.44-1.78,2.59-2,3.76-.83,8-.41,11,2,4.66,3.83,4.85,11.13,9,15.47a69,69,0,0,0,.86-21.36c-.9-7.88-.12-15.84.69-23.73a15.23,15.23,0,0,1,.73-3.79,5.12,5.12,0,0,1,2.45-2.89,3.12,3.12,0,0,1,3.57.58,5.11,5.11,0,0,1,.89,3.25q.48,11.73,1,23.47a22.68,22.68,0,0,0,.51,4.65,7.57,7.57,0,0,0,2.32,4,247.91,247.91,0,0,1-.86-35.32,9.53,9.53,0,0,1,.67-3.14A3.65,3.65,0,0,1,83,48.9c1.24-.48,3.19-.39,4,.64a8.13,8.13,0,0,1,1,3.61c-.06,4.26.1,7.66,0,11.92l2.19,23.58c.42-2.24-.18-22.41-.28-27.38a8.17,8.17,0,0,1,.61-4.08,3.81,3.81,0,0,1,2.78-1.95,3.3,3.3,0,0,1,3.08,1.32,6.12,6.12,0,0,1,.8,3,125,125,0,0,1,.64,16.07,80.68,80.68,0,0,0-.31,9.7,14.71,14.71,0,0,0,3.34,8.93,124.87,124.87,0,0,1,.41-20.09,10.17,10.17,0,0,1,.92-4.13,3.07,3.07,0,0,1,5.88.48,10.44,10.44,0,0,1,.31,3.53c-.19,7.66-.45,15.39.6,23.2.47,3.49,2,6.7,1.88,10.22-.28,9.13-1.36,18.32-4.39,26.93-1.15,3.25-2.59,6.57-2.57,10l.33,1.66a3.08,3.08,0,0,1-1.91,2.27,9.12,9.12,0,0,1-3,.59c-7.94.63-16.12,1.07-24.07,1.69.1-3.26.17-6.67-1.27-9.59a29.94,29.94,0,0,0-3-4.36c-1.77-2.39-3.17-5-4.72-7.56a77,77,0,0,0-7.71-9.77,8.69,8.69,0,0,1-1.8-4.59c-.22-1.66-.19-3.34-.42-5a33.25,33.25,0,0,0-3.25-9.39c-1.29-2.8-2.71-5.74-5.28-7.44a14.29,14.29,0,0,1-1.64-1.11A2.18,2.18,0,0,1,45.36,90.09Z"/><path class="cls-5" d="M72,59.4l3.8-.36a.57.57,0,0,0,.52-.64l-.23-2.07a2.29,2.29,0,0,0-2.4-1.7,2.71,2.71,0,0,0-2.4,1.62,4.51,4.51,0,0,0,0,2l.06.67A.57.57,0,0,0,72,59.4Z"/><path class="cls-5" d="M82,54.48,86,54.7a.62.62,0,0,0,.66-.6l.07-2.22a2.43,2.43,0,0,0-2.25-2.17A2.9,2.9,0,0,0,81.72,51a4.92,4.92,0,0,0-.29,2.07l0,.71A.62.62,0,0,0,82,54.48Z"/><path class="cls-5" d="M91.54,61.3l4.07.23a.62.62,0,0,0,.65-.6l.08-2.23a2.44,2.44,0,0,0-2.26-2.17,2.88,2.88,0,0,0-2.79,1.33A4.8,4.8,0,0,0,91,59.94l0,.71A.62.62,0,0,0,91.54,61.3Z"/><path class="cls-5" d="M103.16,73.65l3.66.2a.55.55,0,0,0,.59-.54l.07-2a2.19,2.19,0,0,0-2-2,2.6,2.6,0,0,0-2.51,1.19,4.23,4.23,0,0,0-.26,1.87l0,.64A.56.56,0,0,0,103.16,73.65Z"/><path class="cls-5" d="M50.53,94.14l1.4-1.54c.12-.13,0-.41-.36-.62l-2-1.37s-1.65-1-2.66-.38c0,0-.8.61.39,2a11.18,11.18,0,0,0,1.83,1.36l.64.45C50.06,94.2,50.41,94.27,50.53,94.14Z"/><rect class="cls-2" x="85.72" y="126.22" width="7.3" height="36.38" transform="translate(-44.25 249.23) rotate(-96.36)"/><rect class="cls-6" x="34.68" y="188.5" width="124.04" height="40.99" transform="translate(-100.3 328.25) rotate(-96.36)"/><path class="cls-2" d="M91.12,9.76h0a.71.71,0,1,0-1.41-.13h0L87,31a1.49,1.49,0,1,0,3,.26Z"/><path class="cls-2" d="M90.88,5.79a.67.67,0,0,0,.73-.62h0l.3-4.55h0A.58.58,0,0,0,91.39,0a.57.57,0,0,0-.61.51h0L90.27,5h0A.68.68,0,0,0,90.88,5.79Z"/><path class="cls-2" d="M54.06,16h0a.71.71,0,1,0-1.25.66h0L62.1,36.09a1.49,1.49,0,1,0,2.64-1.39Z"/><path class="cls-2" d="M51.7,12.82a.67.67,0,0,0,.28-.91h0l-2.22-4h0a.56.56,0,0,0-1,.52h0l2,4.09h0A.67.67,0,0,0,51.7,12.82Z"/><path class="cls-2" d="M124.72,20h0a.71.71,0,1,1,1.12.87h0L113.28,38.35a1.49,1.49,0,1,1-2.35-1.83Z"/><path class="cls-2" d="M127.61,17.27a.67.67,0,0,1-.12-.95h0l2.88-3.54h0a.56.56,0,1,1,.88.69h0l-2.72,3.67h0A.67.67,0,0,1,127.61,17.27Z"/><path class="cls-2" d="M158.8,54.28c-5.39-1.18-9.11-7.71-8.53-15.24h0c-.75,7.51-5.57,13.28-11.08,13.5,5.44,1.2,9.19,7.84,8.51,15.45C148.38,60.38,153.24,54.5,158.8,54.28Z"/><path class="cls-2" d="M42.69,56.59C31,54,22.84,39.8,24.12,23.42h0C22.49,39.77,12,52.33,0,52.8c11.84,2.61,20,17,18.53,33.63C20,69.85,30.57,57.07,42.69,56.59Z"/></g></g></g></svg>