<svg xmlns="http://www.w3.org/2000/svg" viewBox="0 0 120.8 192.36"><defs><style>.cls-1{fill:#fff;}.cls-2{fill:#242e35;}.cls-3{fill:#35434f;}.cls-4{fill:#f4c092;}.cls-5{opacity:0.11;}.cls-6{fill:#ffcc9a;}.cls-7{fill:#f4f4f4;}.cls-8{fill:#323e49;}.cls-9{fill:#3d4d5c;}</style></defs><title>3-4-演讲区手3</title><g id="图层_2" data-name="图层 2"><g id="_1-1-树" data-name="1-1-树"><g id="_3-4-演讲区手3" data-name="3-4-演讲区手3"><rect class="cls-1" x="57.77" y="69.01" width="6.3" height="31.4" transform="translate(7.37 174.26) rotate(-113.4)"/><rect class="cls-2" x="29.77" y="118.47" width="107.07" height="35.38" transform="translate(-8.58 266.68) rotate(-113.4)"/><rect class="cls-3" x="21.55" y="130.87" width="107.07" height="17.69" transform="translate(-23.33 264.1) rotate(-113.4)"/><path class="cls-4" d="M24.27,11.71a5.21,5.21,0,0,1,1.9,1.94c1.48,2.18,3,4.37,4.35,6.61,1.05,1.69,2.05,3.42,2.95,5.2a69.89,69.89,0,0,0,3.89,7.43,12.76,12.76,0,0,0,6.3,5.29A106.92,106.92,0,0,1,35.44,22.9a8.58,8.58,0,0,1-1.06-3.49,3,3,0,0,1,1.8-2.93,2.37,2.37,0,0,1,1.37,0,3.72,3.72,0,0,1,1.45.81,8.88,8.88,0,0,1,1.73,2.53C43.84,25.63,46.93,31.55,51,37q.42.54.87,1.05c1.7,1.92,3.69,3.54,4.89,5.83,3.66,7,6.75,14.34,8.13,22.1.52,2.93.85,6,2.3,8.58l.59.69.36.41a2.69,2.69,0,0,1-.47,2.52,7.87,7.87,0,0,1-2,1.73C61.84,82.48,57.88,85,54,87.62c-1.9,1.25-3.8,2.5-5.67,3.76-.37-.7-.74-1.41-1.15-2.11a13.49,13.49,0,0,0-3.88-4.56,25.54,25.54,0,0,0-4.11-2c-2.35-1-4.52-2.44-6.76-3.68A66.25,66.25,0,0,0,22.46,75a7.39,7.39,0,0,1-3.3-2.69c-.87-1.15-1.56-2.42-2.43-3.57A28.8,28.8,0,0,0,10.3,63c-2.17-1.56-4.48-3.17-7.13-3.36a10.86,10.86,0,0,1-1.71-.14,1.85,1.85,0,0,1-1.34-.95c-.42-.93.33-2,1.08-2.62,2.48-2.23,5.84-3.71,9.12-3.13,5.13.9,8.37,6.3,13.36,7.79a59.28,59.28,0,0,0-8.43-16.42c-.28-.39-.56-.79-.83-1.19s-.64-1-.95-1.44A111,111,0,0,1,5.7,26.09a13,13,0,0,1-1.06-3.17,4.35,4.35,0,0,1,.61-3.2,2.68,2.68,0,0,1,2.93-1.08,4.45,4.45,0,0,1,2.05,2.06q5.34,8.61,10.69,17.23l.45.73a16.87,16.87,0,0,0,1.91,2.54,6.55,6.55,0,0,0,3.43,2q-1.35-1.93-2.65-3.88a218.47,218.47,0,0,1-13-22.3,8.17,8.17,0,0,1-.83-2.65,3.15,3.15,0,0,1,.66-2.72,3.36,3.36,0,0,1,3.31-1.23,7,7,0,0,1,2.29,2.28c1.76,3.23,3.32,5.72,5.09,9L33.24,38.45C32.61,36.59,23.6,21.68,21.4,18a7,7,0,0,1-1.26-3.32A3.25,3.25,0,0,1,21.4,12,2.83,2.83,0,0,1,24.27,11.71Z"/><path class="cls-5" d="M37.55,16.46Q38.87,23,40.18,29.55a19.62,19.62,0,0,0,1.07,3.89c.14.33,2.37,1.29,5.55,2.57l.85.34L51.9,38c8.69,3.44,19.58,7.79,19.82,9.62,1,7.82,1.31,15.8-.11,23.55-.22,1.18-.47,2.37-.67,3.56A16.49,16.49,0,0,0,70.76,80l.51,1.36A2.68,2.68,0,0,1,70,83.6a8.15,8.15,0,0,1-2.5.91c-4.44,1.07-9,2.08-13.48,3.11-2.19.5-4.38,1-6.54,1.52l-.28.07c-.35-2.79-.75-5.71-2.38-8a25.33,25.33,0,0,0-3.16-3.31c-1.82-1.8-3.37-3.86-5-5.81a66.35,66.35,0,0,0-7.89-7.28,7.53,7.53,0,0,1-2.16-3.68c-.41-1.38-.61-2.81-1-4.19a28.56,28.56,0,0,0-4-7.56c-.47-.72-1-1.44-1.49-2.13-.29-.38-.58-.74-.89-1.09a9.59,9.59,0,0,0-3.13-2.42A11.69,11.69,0,0,1,14.42,43h0a1.91,1.91,0,0,1-.93-1.37v-.06c0-1,1-1.65,1.93-2a12.89,12.89,0,0,1,6-.9,9.16,9.16,0,0,1,2.69.67,8.14,8.14,0,0,1,1,.49c2.24,1.31,3.65,3.51,5,5.78.25.4.49.81.73,1.21a17.53,17.53,0,0,0,3.95,4.9l.1.08V51.7c.07-1.47.07-3,0-4.47,0-.2,0-.4,0-.6a60.76,60.76,0,0,0-2.13-13.17c-.37-1.31-.67-2.64-.94-4,0-.29-.11-.59-.16-.88a83.56,83.56,0,0,1-1.06-8.35c1.05,1.69,2.05,3.42,2.95,5.2a69.89,69.89,0,0,0,3.89,7.43,12.76,12.76,0,0,0,6.3,5.29A106.92,106.92,0,0,1,35.44,22.9a8.58,8.58,0,0,1-1.06-3.49,3,3,0,0,1,1.8-2.93A2.37,2.37,0,0,1,37.55,16.46Z"/><path class="cls-6" d="M15.76,40.7c-.07-1,1-1.7,1.93-2.08,3.09-1.22,6.77-1.43,9.64.26,4.48,2.63,5.64,8.83,9.78,12A59.15,59.15,0,0,0,35,32.52C33.13,25.92,32.72,19,32.35,12.2a13.34,13.34,0,0,1,.1-3.34,4.4,4.4,0,0,1,1.7-2.78,2.67,2.67,0,0,1,3.12,0,4.32,4.32,0,0,1,1.2,2.64q2,9.94,4,19.89a19,19,0,0,0,1.06,3.88,6.53,6.53,0,0,0,2.52,3.08,213.22,213.22,0,0,1-5.5-30,8,8,0,0,1,.14-2.77A3.18,3.18,0,0,1,42.26.5c1-.57,2.67-.76,3.53,0a7,7,0,0,1,1.34,2.94c.53,3.64,1.12,6.53,1.65,10.17l5,19.8c.06-2-3.18-19.08-3.94-23.31a7,7,0,0,1,0-3.55,3.24,3.24,0,0,1,2.1-2,2.83,2.83,0,0,1,2.8.71,5.23,5.23,0,0,1,1.1,2.48,107.58,107.58,0,0,1,2.71,13.62,70.32,70.32,0,0,0,1.05,8.32,12.78,12.78,0,0,0,4,7.16,108,108,0,0,1-2.36-17.19A8.57,8.57,0,0,1,61.55,16a2.65,2.65,0,0,1,5.08-.39,9.06,9.06,0,0,1,.73,3c.88,6.55,1.71,13.18,3.65,19.7.87,2.91,2.61,5.44,3,8.46,1,7.82,1.31,15.8-.11,23.55-.53,2.92-1.31,5.95-.84,8.84l.5,1.37a2.66,2.66,0,0,1-1.32,2.19,7.73,7.73,0,0,1-2.5.91c-6.69,1.61-13.6,3.09-20.29,4.7-.36-2.79-.76-5.71-2.38-8A26,26,0,0,0,43.9,77c-1.83-1.8-3.38-3.86-5-5.81A65.65,65.65,0,0,0,31,63.86a7.47,7.47,0,0,1-2.15-3.68c-.41-1.38-.62-2.81-1-4.19a29.15,29.15,0,0,0-4-7.56c-1.48-2.21-3.09-4.53-5.51-5.64a10.91,10.91,0,0,1-1.55-.72A1.87,1.87,0,0,1,15.76,40.7Z"/><path class="cls-7" d="M34.29,11l3.19-.82a.51.51,0,0,0,.36-.62l-.49-1.74a2,2,0,0,0-2.26-1.12,2.35,2.35,0,0,0-1.84,1.7A4,4,0,0,0,33.54,10l.14.56A.5.5,0,0,0,34.29,11Z"/><path class="cls-7" d="M42.16,5.4,45.66,5a.53.53,0,0,0,.47-.6L45.9,2.53A2.11,2.11,0,0,0,43.68,1a2.5,2.5,0,0,0-2.2,1.52,4.13,4.13,0,0,0,0,1.8l.06.62A.54.54,0,0,0,42.16,5.4Z"/><path class="cls-7" d="M51.24,9.92l3.49-.36a.53.53,0,0,0,.48-.6L55,7.05a2.08,2.08,0,0,0-2.21-1.54A2.5,2.5,0,0,0,50.55,7a4.3,4.3,0,0,0,0,1.81l.06.61A.53.53,0,0,0,51.24,9.92Z"/><path class="cls-7" d="M62.82,18.88,66,18.55a.48.48,0,0,0,.43-.54l-.21-1.71a1.89,1.89,0,0,0-2-1.39,2.24,2.24,0,0,0-2,1.36,3.71,3.71,0,0,0,0,1.62l.06.55A.48.48,0,0,0,62.82,18.88Z"/><path class="cls-7" d="M20.71,43.46l1-1.5c.08-.13-.09-.35-.39-.49l-1.91-.89s-1.55-.67-2.32,0c0,0-.6.62.6,1.61a9.5,9.5,0,0,0,1.74.91l.61.29C20.32,43.57,20.63,43.59,20.71,43.46Z"/><rect class="cls-1" x="57.47" y="65.37" width="6.3" height="31.4" transform="translate(-1.48 161) rotate(-105.37)"/><rect class="cls-8" x="22.06" y="117.45" width="107.07" height="35.38" transform="translate(-34.68 243.84) rotate(-105.37)"/><rect class="cls-9" x="13.42" y="128.67" width="107.07" height="17.69" transform="translate(-47.89 238.52) rotate(-105.37)"/></g></g></g></svg>