<svg xmlns="http://www.w3.org/2000/svg" viewBox="0 0 61.15 340.31"><defs><style>.cls-1{fill:#ffb287;}.cls-2{fill:#2f40b8;}.cls-3{fill:#ef4e3c;}</style></defs><title>3-5-演讲区手5</title><g id="图层_2" data-name="图层 2"><g id="_1-1-树" data-name="1-1-树"><g id="_3-5-演讲区手5" data-name="3-5-演讲区手5"><path class="cls-1" d="M58.18,11a4.88,4.88,0,0,0-6.41,2.57l-7.05,16.5-3.17-11.2a.08.08,0,0,0,0,0c0-.07-.05-.14-.07-.21a4,4,0,0,0-.25-.6l-.15-.27a5,5,0,0,0-.32-.48L40.57,17a5,5,0,0,0-.56-.57l-.12-.09A5.68,5.68,0,0,0,39.3,16L39,15.83a4.25,4.25,0,0,0-.49-.21l-.32-.11a4.16,4.16,0,0,0-.59-.13l-.26,0h0a5.89,5.89,0,0,0-.84,0h-.08c-.07,0-.13,0-.19,0a6,6,0,0,0-.61.12l-.3.09a4,4,0,0,0-.6.25l-.19.08a6.36,6.36,0,0,0-.69.46l-.2.18a4.16,4.16,0,0,0-.42.42,2,2,0,0,0-.19.22,5.5,5.5,0,0,0-.34.5c0,.08-.1.15-.14.23l0,.06-1.23,2.42-.88-3a4.88,4.88,0,0,0-4.68-3.54,4.32,4.32,0,0,0-.62,0c-.21,0-.41-.07-.63-.08a4.9,4.9,0,0,0-5,4.79l-.09,4.32-1,3.53L11.44,3.68a5.19,5.19,0,0,0-9.93,3L8.87,30.91a5.35,5.35,0,0,0-.33,1.22L6.74,47.41a4.12,4.12,0,0,0,0,.86s0,.1,0,.16a5.31,5.31,0,0,0,.16.87l.05.15a5.09,5.09,0,0,0,.34.84.18.18,0,0,1,0,.07,6.19,6.19,0,0,0,.51.75.1.1,0,0,1,0,0L16,60.56l-.22,18a4.88,4.88,0,0,0,4.78,4.94l19.94.42a4.9,4.9,0,0,0,5-4.71L46,63.46,48.53,46,60.75,17.4A4.88,4.88,0,0,0,58.18,11Z"/><path class="cls-2" d="M30.69,72c-9.3.46-17.47-2.41-18.07,6.79l-8,120.94a18,18,0,0,0,0,2.32c2.87,42.19,3.63,93.14.52,107.66A17.63,17.63,0,0,0,0,323c.49,9.88,2.75,17.81,13,17.3,12.83-.63,20-3.19,23.87-7.39,6.17-6.71,8.4-17,7.22-76.54-.5-25.77-2-50-2.38-55.64L49.59,80.92C50.24,71,43,72.56,32.77,72A18.05,18.05,0,0,0,30.69,72Z"/><path class="cls-3" d="M49.54,87.68c.12-1.52.34-7.12.34-7.12.66-10.11.31-8.32-17.2-9.16-.72,0-2.88,0-3.59,0-11.59-.23-16.78-1.38-17,7l-.27,11.59s33.3,1.12,35,1.3C49.42,91.51,49.41,89.19,49.54,87.68Z"/></g></g></g></svg>