<svg xmlns="http://www.w3.org/2000/svg" viewBox="0 0 335.79 205.65"><defs><style>.cls-1{fill:#2f2f7c;}</style></defs><title>3-6-演讲区手6</title><g id="图层_2" data-name="图层 2"><g id="_1-1-树" data-name="1-1-树"><g id="_3-6-演讲区手6" data-name="3-6-演讲区手6"><path class="cls-1" d="M238.25,153.77a66,66,0,0,1-1.43-8.53c-.7-2.46-1.38-4.94-2.07-7.41-.92-3.28-2.58-6.42-2.91-9.41-.39-3.48.41-6.74.44-10.07.07-5.73-.68-11.74-.67-17.69,0-2.07.54-4.14.67-6.28a57.94,57.94,0,0,1,2.69-15c.11-.77-.17-1.73,0-3.14,1-.29,3.11-.29,4.49-.89,2.08-.92,5-4.25,6.48-6.72.7-1.18,2.6-5.26,2.47-6.5-.19-1.82-3.8-3.94-3.81-5.38,0-1,2.24-3,3.14-4,2.62-2.86,4.68-4.68,6.94-7.62,1-1.28,2.51-4.11,1.12-4.92-1.11-.66-3.46,1.77-4.25,2.46-3.4,3-6,6.34-9.19,9-.57.47-1.39,1.39-2.24,1.12-.21-2.09.83-3.53,1.35-5.15s.74-3.33,1.34-5.38c.38-1.31,1.2-2.67,1.79-4.7.27-.92,1.13-4.62-1.12-4.7,0,0-.19,0-.22,0-2.94,1.91-3.55,6.74-5.15,10.08-.38.77-.81,1.51-1.06,2.15-.87,2.31-.92,4.93-2.3,6.58-1.67-1.76-4.76-.81-5.16.9-.73-1-.83-1.82-2.46-1.58-1.47.23-1.66,2.51-2.23,3.81-1.8,4.07-3.94,7.54-4.49,12.32-.19,1.69.24,3.68-.22,6.27-.1.58-.69,1.27-.89,2-.5,1.8-.45,4.2-1.13,5.82-.3.74-1.17,1.45-1.56,2.24-.63,1.28-1.17,3-1.8,4.71-.55,1.51-1.09,3.3-1.56,4.92a177.31,177.31,0,0,0-4.93,21.5c-.68,4.23-1.41,8.37-1.12,12.09.52,6.69,2,13.54,2.46,20.6.18,2.78.14,5.7.23,8.51s.47,5.69.45,8.52c-.06,6.23-2.4,12.2-2.47,18.36a90.29,90.29,0,0,0,1.12,16.8c.46,2.32,1.1,4.31,1.66,6.23a74.35,74.35,0,0,1,35.63-29.86A89.1,89.1,0,0,1,238.25,153.77Z"/><path class="cls-1" d="M35.05,67.67c-1.12,4-10,17.4-10,17.4s-4.46,72.37-4.36,86.34a11.62,11.62,0,0,0-3.69-.8,10.4,10.4,0,0,0-8.68,3.31,11.17,11.17,0,0,0-2.87-.58,11.69,11.69,0,0,0-4.4.59c.66-11.16,5.5-89.89,5.51-92.2,0-3.27-3.34-15.82-3-19.83S2.27,51.49,1.34,47.16-1.4,38.1,1.88,38c2.23-.07,4,9.51,4.36,10.85s.69,5,2.35,4.72S8.33,41.13,8.21,39s-1.36-7.94.72-9c2.77-1.36,2.75,3.38,3.14,5s.64,7.91.89,9.94S12.5,53,14,52.73c2.61-.4,1.74-11.28.85-19.2s4.3-5.06,4.56-3c.18,1.52.93,8,1,9.78s.62,6.74.65,8.26,0,4.09,1.63,3.12,1-11,.85-12.6-1.9-6.72,1-7.67c3.61-1.17,3.46,6.94,3.87,9A84.7,84.7,0,0,1,28.83,58c-.61,6.63,2,8,2.31,4.23a11.13,11.13,0,0,1,6.38-9.36c2.47-1.13,3.62.82,1.49,3.51S36.17,63.61,35.05,67.67Z"/><path class="cls-1" d="M57.92,23.25c2.13,2.14,3.94,3.87,5.34,5.51,1,1.18,2,2.36,2.95,3.52a8.38,8.38,0,0,1-2.07-1.08,3.84,3.84,0,0,0-2.94-.58c-1,.09-1.88.65-1.17,1.92a6.93,6.93,0,0,0,2.8,1.89c1.24.53,2.47,1.16,3.69,1.7S69,37.31,70.26,38a7.35,7.35,0,0,1,2.21,1.82c.58.87.21,1.23-.06,2.16a26.48,26.48,0,0,0-.51,4.35,20.4,20.4,0,0,1-.66,3c-.73,2.64-2.67,5.32-3.81,7.82-2.31,5-5.49,9.56-7.81,14.77-.59,1.32-.89,2.69-1.45,4.06s-1.34,2.43-1.89,3.68A56.15,56.15,0,0,0,53.4,88a72,72,0,0,0-1.24,7.1c5.12,2.84,10.35,5.45,15.19,8.79.12.08.22.18.33.26.07-.23.14-.47.2-.71a55.5,55.5,0,0,1,2.37-7.24c1-2.23,2.46-4,3.31-6.09a43.68,43.68,0,0,0,2-7.39c1-4.85,1.79-10,2.56-15.7.91-6.72,1.71-13.57,3.55-20.11a24.22,24.22,0,0,1,1.49-3.64c.57-1.17.83-2.29,1.45-3.33a6.61,6.61,0,0,0,1.31-3.87c-.11-2.61-1.82-4.92-3.26-7-1-1.49-2.3-2.67-3.4-4-.63-.78-1-1.74-1.53-2.39S76.46,21.8,76,21.14a27.89,27.89,0,0,1-1.27-2.8c-.92-1.8-1.44-3.86-2.53-5.6-.44-.69-1.76-2.27-2.59-1.72s1,4.47,1.28,5.15.66,1.95.86,2.53,1.51,3.92,0,2.13c-.4-.46-1.18-2.26-1.49-2.76a81.24,81.24,0,0,1-4.31-7.36c-.54-1-2.22-3.33-3.35-2-.77.88.57,2.55,1.09,3.66.67,1.42,1.24,2.6,1.63,3.43.57,1.19,1,2.5,1.54,3.58s1.76,2.09,1.64,3.43c-2.06-1.47-3.66-4-5.21-6-.56-.76-1.19-1.41-1.72-2.13-.4-.55-2.7-6-4.57-4.6-.81.6,0,2.5.27,3.12A24.28,24.28,0,0,0,58.82,16c2.2,3.44,3.27,5.54,5.84,8.58-2.22-1.2-3.81-3-6.11-5.24-1-1-3.48-3.17-4.39-1.94C53.37,18.5,56.91,22.23,57.92,23.25Z"/><path class="cls-1" d="M304.68,121a65.75,65.75,0,0,0,1.43-8.53c.7-2.46,1.38-4.93,2.07-7.41.92-3.27,2.58-6.42,2.91-9.4.39-3.48-.41-6.74-.44-10.07-.07-5.73.68-11.75.67-17.7,0-2.07-.54-4.14-.67-6.27a58.1,58.1,0,0,0-2.69-15c-.11-.77.17-1.72,0-3.13-1-.3-3.11-.3-4.49-.9-2.08-.92-5-4.25-6.48-6.72-.7-1.17-2.6-5.25-2.47-6.49.19-1.83,3.8-4,3.81-5.38,0-1-2.24-3-3.14-4-2.62-2.86-4.68-4.68-6.94-7.61-1-1.28-2.51-4.12-1.12-4.93,1.11-.66,3.45,1.77,4.25,2.47,3.4,3,6,6.34,9.18,9,.58.47,1.4,1.39,2.24,1.12.22-2.09-.82-3.52-1.34-5.15s-.74-3.32-1.35-5.37c-.37-1.32-1.19-2.68-1.78-4.71-.27-.92-1.13-4.61,1.12-4.7a.81.81,0,0,1,.22,0c2.94,1.92,3.55,6.74,5.15,10.08.38.78.81,1.51,1.05,2.16.88,2.3.93,4.92,2.31,6.57,1.67-1.75,4.76-.81,5.15.9.74-1,.84-1.82,2.47-1.57,1.47.23,1.66,2.5,2.23,3.81,1.8,4.07,3.94,7.54,4.49,12.31.19,1.7-.24,3.69.22,6.28.1.58.69,1.26.89,2,.5,1.8.45,4.2,1.13,5.82.3.75,1.17,1.45,1.56,2.25.63,1.27,1.17,3,1.79,4.7.56,1.51,1.1,3.31,1.57,4.93a176.87,176.87,0,0,1,4.92,21.5c.69,4.22,1.42,8.36,1.13,12.08-.52,6.69-2,13.54-2.46,20.61-.18,2.77-.14,5.69-.23,8.51s-.47,5.69-.45,8.52c.06,6.22,2.4,12.19,2.47,18.36a89.34,89.34,0,0,1-1.13,16.79c-.46,2.33-1.09,4.31-1.65,6.23a77.67,77.67,0,0,0-10.39-13.16A76.35,76.35,0,0,0,296.65,143,89.1,89.1,0,0,0,304.68,121Z"/><path class="cls-1" d="M115,76.76c.25,3.4,5.18,15.37,5.18,15.37s-7.89,58-10.17,69.07a9.66,9.66,0,0,1,3,0,8.36,8.36,0,0,1,6.35,4,9,9,0,0,1,2.37,0,9.4,9.4,0,0,1,3.39,1.15c1.24-8.94,9.82-72.06,10.17-73.89.5-2.59,5.15-12,5.53-15.23s2.64-8,4.06-11.33,3.61-6.74,1-7.34c-1.76-.41-4.67,6.9-5.16,7.91s-1.35,3.89-2.61,3.36,2.17-9.81,2.59-11.44,2.33-6.08.84-7.22c-2-1.51-2.7,2.24-3.28,3.5s-1.75,6.16-2.27,7.73-.88,6.34-2.06,5.91c-2-.73.4-9.21,2.36-15.34s-2.61-4.69-3.14-3.08c-.39,1.17-2,6.19-2.31,7.59s-1.55,5.25-1.81,6.44-.64,3.24-1.79,2.22.92-8.91,1.31-10.12,2.57-5,.41-6.23c-2.67-1.5-3.84,5-4.49,6.5a69.09,69.09,0,0,0-3.09,13.87c-.57,5.35-2.87,6.07-2.5,3a9,9,0,0,0-3.58-8.42c-1.78-1.29-3,.08-1.74,2.55S114.71,73.37,115,76.76Z"/></g></g></g></svg>