<svg xmlns="http://www.w3.org/2000/svg" viewBox="0 0 268.18 229.6"><defs><style>.cls-1{fill:#1f1f56;}</style></defs><title>3-7-演讲区手7</title><g id="图层_2" data-name="图层 2"><g id="_1-1-树" data-name="1-1-树"><g id="_3-7-演讲区手7" data-name="3-7-演讲区手7"><path class="cls-1" d="M220.66,166.68a81,81,0,0,1-1.73-10.35c-.85-3-1.68-6-2.51-9-1.11-4-3.13-7.79-3.53-11.41-.47-4.22.5-8.17.54-12.21.08-7-.83-14.25-.81-21.47,0-2.5.65-5,.81-7.61a70.49,70.49,0,0,1,3.26-18.2c.14-.92-.2-2.08,0-3.79,1.24-.36,3.77-.36,5.44-1.09,2.53-1.12,6.11-5.15,7.87-8.15.84-1.43,3.14-6.37,3-7.88-.23-2.22-4.61-4.78-4.62-6.52,0-1.19,2.71-3.69,3.81-4.89,3.18-3.47,5.67-5.67,8.42-9.23,1.2-1.55,3-5,1.35-6-1.34-.81-4.19,2.14-5.16,3-4.12,3.59-7.29,7.7-11.13,10.87-.7.56-1.69,1.68-2.72,1.35-.26-2.53,1-4.27,1.63-6.24s.9-4,1.63-6.52c.46-1.59,1.45-3.25,2.17-5.71.33-1.11,1.37-5.6-1.36-5.7,0,0-.23,0-.26,0-3.57,2.32-4.31,8.18-6.25,12.23-.46.94-1,1.83-1.28,2.61-1.07,2.8-1.13,6-2.8,8-2-2.13-5.77-1-6.25,1.09-.89-1.25-1-2.21-3-1.91-1.78.28-2,3-2.71,4.62-2.18,4.93-4.77,9.14-5.43,14.94-.24,2.05.29,4.46-.27,7.61-.13.7-.84,1.53-1.09,2.44-.6,2.18-.54,5.09-1.36,7.06-.37.9-1.42,1.76-1.9,2.72-.77,1.55-1.42,3.67-2.18,5.71-.67,1.83-1.32,4-1.89,6a214.12,214.12,0,0,0-6,26.08c-.83,5.12-1.71,10.15-1.36,14.66.62,8.11,2.46,16.42,3,25,.2,3.37.16,6.9.27,10.32s.57,6.9.54,10.33c-.06,7.55-2.91,14.79-3,22.27-.07,7.05.25,14.74,1.36,20.37.56,2.82,1.34,5.23,2,7.56a93.64,93.64,0,0,1,12.6-16,92.63,92.63,0,0,1,30.61-20.25A108.72,108.72,0,0,1,220.66,166.68Z"/><path class="cls-1" d="M69.81,86.32c1.72,4.81,13.64,20.17,13.64,20.17s11.83,87.14,12.94,104.05a14.72,14.72,0,0,1,4.4-1.3,12.59,12.59,0,0,1,10.79,3.23,13.6,13.6,0,0,1,8.79-.63c-1.78-13.44-14.63-108.24-14.85-111-.32-4,2.64-19.44,1.91-24.26s.6-12.7,1.33-18,2.52-11.2-1.47-11c-2.7.11-4,11.86-4.3,13.52s-.38,6.16-2.42,5.91-.79-15.07-.83-17.6.93-9.73-1.68-10.78c-3.46-1.4-3,4.32-3.35,6.37s-.07,9.62-.19,12.1,1.26,9.53-.61,9.38c-3.2-.25-3.11-13.49-2.74-23.15S85.52,37.51,85.4,40c-.09,1.85-.42,9.77-.3,11.92s-.15,8.21,0,10,.37,5-1.69,3.92S81.12,52.66,81.2,50.76s1.71-8.3-1.91-9.18c-4.46-1.1-3.57,8.69-3.89,11.21A104.46,104.46,0,0,0,76.48,74.1c1.32,8-1.72,9.92-2.43,5.33a13.43,13.43,0,0,0-8.54-10.75C62.42,67.52,61.2,70,64,73.05S68.09,81.52,69.81,86.32Z"/><path class="cls-1" d="M234.27,123c2.58,2.6,4.77,4.69,6.47,6.68,1.23,1.43,2.41,2.87,3.58,4.27a10.24,10.24,0,0,1-2.51-1.31,4.69,4.69,0,0,0-3.57-.7c-1.19.11-2.28.79-1.42,2.32.56,1,2.48,1.89,3.4,2.3,1.5.64,3,1.41,4.48,2.06a49,49,0,0,1,4.53,2.26,8.45,8.45,0,0,1,2.68,2.21c.71,1.05.26,1.49-.07,2.61a32.37,32.37,0,0,0-.62,5.28,24,24,0,0,1-.8,3.65c-.89,3.21-3.24,6.45-4.63,9.49-2.79,6-6.65,11.59-9.46,17.91-.71,1.6-1.08,3.27-1.76,4.93-.62,1.51-1.62,2.94-2.29,4.46a66.6,66.6,0,0,0-3.49,10.09,83,83,0,0,0-1.51,8.61c6.21,3.44,12.55,6.61,18.43,10.66.14.1.26.22.39.32.09-.29.17-.57.25-.86a66.64,66.64,0,0,1,2.87-8.78c1.25-2.71,3-4.83,4-7.39a53,53,0,0,0,2.36-9c1.27-5.88,2.17-12.07,3.1-19,1.11-8.15,2.08-16.45,4.31-24.39a31.41,31.41,0,0,1,1.8-4.41c.7-1.42,1-2.79,1.77-4,.91-1.54,1.67-2.82,1.59-4.69-.13-3.17-2.22-6-4-8.45-1.26-1.81-2.79-3.24-4.12-4.87-.77-1-1.2-2.12-1.86-2.9-.78-.94-1.48-1.07-2.09-1.87a29.94,29.94,0,0,1-1.54-3.4c-1.12-2.19-1.75-4.68-3.08-6.79-.52-.83-2.13-2.75-3.13-2.08s1.26,5.41,1.55,6.24.8,2.37,1,3.07,1.83,4.76,0,2.58c-.48-.56-1.43-2.74-1.81-3.34a101.56,101.56,0,0,1-5.22-8.94c-.66-1.25-2.69-4-4.06-2.45-.94,1.07.68,3.09,1.32,4.44.8,1.72,1.5,3.15,2,4.16.7,1.44,1.17,3,1.87,4.34s2.13,2.53,2,4.16c-2.49-1.78-4.43-4.8-6.3-7.28-.69-.92-1.45-1.71-2.1-2.58-.48-.67-3.27-7.29-5.54-5.59-1,.74,0,3,.33,3.79a27.45,27.45,0,0,0,2,3.46c2.66,4.18,4,6.72,7.08,10.41-2.69-1.46-4.62-3.67-7.41-6.36-1.22-1.16-4.22-3.84-5.33-2.35C228.75,117.21,233,121.74,234.27,123Z"/><path class="cls-1" d="M22,146.74a81,81,0,0,0,1.73-10.35c.85-3,1.68-6,2.51-9,1.11-4,3.13-7.79,3.53-11.4.47-4.22-.5-8.18-.54-12.22-.08-7,.83-14.24.81-21.46,0-2.51-.65-5-.81-7.61a70.33,70.33,0,0,0-3.26-18.2c-.14-.93.2-2.09,0-3.8-1.24-.36-3.77-.36-5.44-1.09-2.53-1.12-6.11-5.15-7.87-8.15-.84-1.42-3.14-6.37-3-7.87.23-2.22,4.61-4.79,4.62-6.53,0-1.19-2.71-3.69-3.81-4.88C7.27,20.72,4.78,18.51,2,15,.83,13.4-1,10,.68,9,2,8.17,4.87,11.12,5.84,12,10,15.55,13.13,19.66,17,22.83c.7.57,1.69,1.68,2.72,1.36.26-2.53-1-4.28-1.63-6.25s-.9-4-1.63-6.52C16,9.83,15,8.17,14.26,5.72,13.93,4.6,12.89.12,15.61,0c.06,0,.24,0,.27,0,3.57,2.33,4.31,8.18,6.25,12.23.46.94,1,1.83,1.28,2.62,1.07,2.79,1.13,6,2.8,8,2-2.13,5.77-1,6.25,1.09.9-1.25,1-2.21,3-1.91,1.78.28,2,3,2.71,4.62,2.18,4.94,4.77,9.14,5.44,14.94.23,2-.3,4.47.26,7.61.13.7.84,1.53,1.09,2.44.6,2.19.54,5.1,1.36,7.06.38.9,1.42,1.76,1.9,2.73.77,1.54,1.42,3.66,2.18,5.7.67,1.83,1.32,4,1.89,6a213.52,213.52,0,0,1,6,26.07c.83,5.13,1.71,10.15,1.36,14.66-.62,8.11-2.46,16.42-3,25-.2,3.37-.16,6.91-.27,10.32s-.57,6.9-.54,10.34c.06,7.55,2.91,14.78,3,22.26.07,7.06-.25,14.75-1.36,20.38-.56,2.81-1.34,5.22-2,7.55a94.13,94.13,0,0,0-12.61-16,92.81,92.81,0,0,0-30.61-20.26A108,108,0,0,0,22,146.74Z"/><path class="cls-1" d="M131.13,84c.31,4.11,6.28,18.63,6.28,18.63s-9.56,70.38-12.33,83.77a12,12,0,0,1,3.7-.06,10.16,10.16,0,0,1,7.7,4.84,11.11,11.11,0,0,1,2.88,0,11.27,11.27,0,0,1,4.11,1.4c1.5-10.84,11.91-87.4,12.34-89.62.61-3.15,6.24-14.56,6.71-18.47s3.2-9.76,4.92-13.75,4.37-8.17,1.23-8.9c-2.13-.49-5.66,8.37-6.26,9.59s-1.63,4.72-3.16,4.09,2.63-11.91,3.15-13.89,2.82-7.37,1-8.75c-2.39-1.83-3.28,2.72-4,4.24s-2.12,7.48-2.75,9.38-1.07,7.69-2.5,7.17c-2.43-.88.49-11.17,2.86-18.61s-3.17-5.68-3.81-3.74c-.47,1.43-2.43,7.52-2.8,9.22s-1.88,6.36-2.2,7.81-.77,3.93-2.16,2.68,1.11-10.8,1.59-12.26,3.11-6.09.49-7.56c-3.24-1.82-4.66,6-5.44,7.88A83.32,83.32,0,0,0,139,75.89c-.69,6.49-3.48,7.36-3,3.63a10.86,10.86,0,0,0-4.34-10.21c-2.15-1.56-3.63.1-2.1,3.09S130.83,79.86,131.13,84Z"/></g></g></g></svg>