<svg xmlns="http://www.w3.org/2000/svg" xmlns:xlink="http://www.w3.org/1999/xlink" viewBox="0 0 1544.83 1108.19"><defs><style>.cls-1{fill:#2b2b2b;}.cls-2{fill:#4f4f4f;}.cls-3{fill:#636363;}.cls-4{fill:#7f7f7f;}.cls-5{fill:url(#未命名的渐变_4);}.cls-6{fill:#3f3f3f;}.cls-7{fill:#696b7a;}</style><linearGradient id="未命名的渐变_4" x1="83.31" y1="982.67" x2="1424.59" y2="208.28" gradientUnits="userSpaceOnUse"><stop offset="0" stop-color="#fff" stop-opacity="0.8"/><stop offset="1" stop-color="#fff" stop-opacity="0"/></linearGradient></defs><title>3-8-灯光1</title><g id="图层_2" data-name="图层 2"><g id="_1-1-树" data-name="1-1-树"><g id="_3-8-灯光1" data-name="3-8-灯光1"><polygon class="cls-1" points="40.58 1105.1 39.28 1103.95 39.28 1019.2 40.58 1020.35 40.58 1105.1"/><rect class="cls-2" x="40.58" y="1020.34" width="14.95" height="84.75"/><polygon class="cls-3" points="55.53 1020.32 40.58 1020.32 39.21 1019.23 54.16 1019.23 55.53 1020.32"/><ellipse class="cls-1" cx="48.06" cy="1026.43" rx="1.95" ry="2.12"/><circle class="cls-3" cx="48.38" cy="1026.33" r="1.95"/><circle class="cls-4" cx="48.68" cy="1026.33" r="1.49"/><polygon class="cls-5" points="1544.83 416.56 107.47 1024.52 89.07 992.65 1304.35 0 1544.83 416.56"/><rect class="cls-6" x="30.07" y="988.62" width="53.71" height="87.68" transform="translate(922.6 466.93) rotate(60)"/><ellipse class="cls-6" cx="94.9" cy="1010.54" rx="15.46" ry="26.85" transform="translate(-492.56 182.83) rotate(-30)"/><ellipse class="cls-7" cx="18.96" cy="1054.38" rx="15.46" ry="26.85" transform="translate(-524.65 150.74) rotate(-30)"/><path class="cls-2" d="M7,1061.27c-6.83-11.82-7.13-25-.66-28.69s17.7,3.09,24.52,14.91,7.13,25,.66,28.69S13.85,1073.09,7,1061.27Z"/><path class="cls-6" d="M9.26,1060c-6.43-11.13-7.07-23.43-1.71-28a7.44,7.44,0,0,0-1.18.55c-6.47,3.73-6.17,16.87.66,28.69s18,18.65,24.52,14.91a7.64,7.64,0,0,0,1.05-.74C26,1077.82,15.69,1071.11,9.26,1060Z"/><polygon class="cls-1" points="61.22 1108.19 59.92 1107.05 59.92 1022.3 61.22 1023.44 61.22 1108.19"/><rect class="cls-2" x="61.22" y="1023.44" width="14.95" height="84.75"/><polygon class="cls-3" points="76.17 1023.41 61.22 1023.41 59.85 1022.32 74.8 1022.32 76.17 1023.41"/><ellipse class="cls-1" cx="68.7" cy="1029.52" rx="1.95" ry="2.12"/><circle class="cls-3" cx="69.01" cy="1029.42" r="1.95"/><circle class="cls-4" cx="69.32" cy="1029.42" r="1.49"/></g></g></g></svg>