<svg xmlns="http://www.w3.org/2000/svg" viewBox="0 0 5733.66 194.08"><defs><style>.cls-1{fill:#961b3b;}.cls-2{fill:#bc2445;}.cls-3{fill:#700f2d;}</style></defs><title>3-9-幕布</title><g id="图层_2" data-name="图层 2"><g id="_1-1-树" data-name="1-1-树"><g id="_3-9-幕布" data-name="3-9-幕布"><path id="_路径_" data-name="&lt;路径&gt;" class="cls-1" d="M0,0V175.61c0,10.16,13.75,18.47,30.56,18.47s30.56-8.31,30.56-18.47V0Z"/><path id="_路径_2" data-name="&lt;路径&gt;" class="cls-2" d="M47.32,0V175.61c0,10.16,13.75,18.47,30.56,18.47s30.57-8.31,30.57-18.47V0Z"/><path id="_路径_3" data-name="&lt;路径&gt;" class="cls-1" d="M94.64,0V175.61c0,10.16,13.76,18.47,30.57,18.47s30.56-8.31,30.56-18.47V0Z"/><path id="_路径_4" data-name="&lt;路径&gt;" class="cls-3" d="M142,0V175.61c0,10.16,13.75,18.47,30.56,18.47s30.56-8.31,30.56-18.47V0Z"/><path id="_路径_5" data-name="&lt;路径&gt;" class="cls-1" d="M189.29,0V175.61c0,10.16,13.75,18.47,30.56,18.47s30.56-8.31,30.56-18.47V0Z"/><path id="_路径_6" data-name="&lt;路径&gt;" class="cls-2" d="M236.61,0V175.61c0,10.16,13.75,18.47,30.56,18.47s30.56-8.31,30.56-18.47V0Z"/><path id="_路径_7" data-name="&lt;路径&gt;" class="cls-1" d="M283.93,0V175.61c0,10.16,13.75,18.47,30.56,18.47s30.57-8.31,30.57-18.47V0Z"/><path id="_路径_8" data-name="&lt;路径&gt;" class="cls-3" d="M331.25,0V175.61c0,10.16,13.76,18.47,30.57,18.47s30.56-8.31,30.56-18.47V0Z"/><path id="_路径_9" data-name="&lt;路径&gt;" class="cls-1" d="M378.57,0V175.61c0,10.16,13.76,18.47,30.57,18.47s30.56-8.31,30.56-18.47V0Z"/><path id="_路径_10" data-name="&lt;路径&gt;" class="cls-2" d="M425.9,0V175.61c0,10.16,13.75,18.47,30.56,18.47S487,185.77,487,175.61V0Z"/><path id="_路径_11" data-name="&lt;路径&gt;" class="cls-1" d="M473.22,0V175.61c0,10.16,13.75,18.47,30.56,18.47s30.56-8.31,30.56-18.47V0Z"/><path id="_路径_12" data-name="&lt;路径&gt;" class="cls-3" d="M520.54,0V175.61c0,10.16,13.75,18.47,30.56,18.47s30.56-8.31,30.56-18.47V0Z"/><path id="_路径_13" data-name="&lt;路径&gt;" class="cls-1" d="M567.86,0V175.61c0,10.16,13.76,18.47,30.56,18.47S629,185.77,629,175.61V0Z"/><path id="_路径_14" data-name="&lt;路径&gt;" class="cls-2" d="M615.18,0V175.61c0,10.16,13.76,18.47,30.57,18.47s30.56-8.31,30.56-18.47V0Z"/><path id="_路径_15" data-name="&lt;路径&gt;" class="cls-1" d="M662.51,0V175.61c0,10.16,13.75,18.47,30.56,18.47s30.56-8.31,30.56-18.47V0Z"/><path id="_路径_16" data-name="&lt;路径&gt;" class="cls-3" d="M709.83,0V175.61c0,10.16,13.75,18.47,30.56,18.47S771,185.77,771,175.61V0Z"/><path id="_路径_17" data-name="&lt;路径&gt;" class="cls-1" d="M757.15,0V175.61c0,10.16,13.75,18.47,30.56,18.47s30.56-8.31,30.56-18.47V0Z"/><path id="_路径_18" data-name="&lt;路径&gt;" class="cls-2" d="M804.47,0V175.61c0,10.16,13.75,18.47,30.56,18.47s30.57-8.31,30.57-18.47V0Z"/><path id="_路径_19" data-name="&lt;路径&gt;" class="cls-1" d="M851.79,0V175.61c0,10.16,13.76,18.47,30.57,18.47s30.56-8.31,30.56-18.47V0Z"/><path id="_路径_20" data-name="&lt;路径&gt;" class="cls-3" d="M993.76,0V175.61c0,10.16,13.75,18.47,30.56,18.47s30.56-8.31,30.56-18.47V0Z"/><path id="_路径_21" data-name="&lt;路径&gt;" class="cls-3" d="M899.12,0V175.61c0,10.16,13.75,18.47,30.56,18.47s30.56-8.31,30.56-18.47V0Z"/><path id="_路径_22" data-name="&lt;路径&gt;" class="cls-2" d="M946.44,0V175.61c0,10.16,13.75,18.47,30.56,18.47s30.56-8.31,30.56-18.47V0Z"/><path id="_路径_23" data-name="&lt;路径&gt;" class="cls-2" d="M1043,0V175.61c0,10.16,13.75,18.47,30.56,18.47s30.56-8.31,30.56-18.47V0Z"/><path id="_路径_24" data-name="&lt;路径&gt;" class="cls-1" d="M1090.35,0V175.61c0,10.16,13.75,18.47,30.56,18.47s30.56-8.31,30.56-18.47V0Z"/><path id="_路径_25" data-name="&lt;路径&gt;" class="cls-3" d="M1137.67,0V175.61c0,10.16,13.75,18.47,30.56,18.47s30.57-8.31,30.57-18.47V0Z"/><path id="_路径_26" data-name="&lt;路径&gt;" class="cls-1" d="M1185,0V175.61c0,10.16,13.76,18.47,30.57,18.47s30.56-8.31,30.56-18.47V0Z"/><path id="_路径_27" data-name="&lt;路径&gt;" class="cls-2" d="M1232.32,0V175.61c0,10.16,13.75,18.47,30.56,18.47s30.56-8.31,30.56-18.47V0Z"/><path id="_路径_28" data-name="&lt;路径&gt;" class="cls-1" d="M1279.64,0V175.61c0,10.16,13.75,18.47,30.56,18.47s30.56-8.31,30.56-18.47V0Z"/><path id="_路径_29" data-name="&lt;路径&gt;" class="cls-3" d="M1327,0V175.61c0,10.16,13.75,18.47,30.56,18.47s30.56-8.31,30.56-18.47V0Z"/><path id="_路径_30" data-name="&lt;路径&gt;" class="cls-1" d="M1374.28,0V175.61c0,10.16,13.75,18.47,30.56,18.47s30.57-8.31,30.57-18.47V0Z"/><path id="_路径_31" data-name="&lt;路径&gt;" class="cls-2" d="M1421.6,0V175.61c0,10.16,13.76,18.47,30.57,18.47s30.56-8.31,30.56-18.47V0Z"/><path id="_路径_32" data-name="&lt;路径&gt;" class="cls-1" d="M1468.93,0V175.61c0,10.16,13.75,18.47,30.56,18.47s30.56-8.31,30.56-18.47V0Z"/><path id="_路径_33" data-name="&lt;路径&gt;" class="cls-3" d="M1516.25,0V175.61c0,10.16,13.75,18.47,30.56,18.47s30.56-8.31,30.56-18.47V0Z"/><path id="_路径_34" data-name="&lt;路径&gt;" class="cls-1" d="M1563.57,0V175.61c0,10.16,13.75,18.47,30.56,18.47s30.56-8.31,30.56-18.47V0Z"/><path id="_路径_35" data-name="&lt;路径&gt;" class="cls-2" d="M1610.89,0V175.61c0,10.16,13.75,18.47,30.56,18.47s30.56-8.31,30.56-18.47V0Z"/><path id="_路径_36" data-name="&lt;路径&gt;" class="cls-1" d="M1658.21,0V175.61c0,10.16,13.76,18.47,30.56,18.47s30.57-8.31,30.57-18.47V0Z"/><path id="_路径_37" data-name="&lt;路径&gt;" class="cls-3" d="M1705.53,0V175.61c0,10.16,13.76,18.47,30.57,18.47s30.56-8.31,30.56-18.47V0Z"/><path id="_路径_38" data-name="&lt;路径&gt;" class="cls-1" d="M1752.86,0V175.61c0,10.16,13.75,18.47,30.56,18.47s30.56-8.31,30.56-18.47V0Z"/><path id="_路径_39" data-name="&lt;路径&gt;" class="cls-2" d="M1800.18,0V175.61c0,10.16,13.75,18.47,30.56,18.47s30.56-8.31,30.56-18.47V0Z"/><path id="_路径_40" data-name="&lt;路径&gt;" class="cls-1" d="M1847.5,0V175.61c0,10.16,13.75,18.47,30.56,18.47s30.56-8.31,30.56-18.47V0Z"/><path id="_路径_41" data-name="&lt;路径&gt;" class="cls-3" d="M1989.47,0V175.61c0,10.16,13.75,18.47,30.56,18.47s30.56-8.31,30.56-18.47V0Z"/><path id="_路径_42" data-name="&lt;路径&gt;" class="cls-3" d="M1894.82,0V175.61c0,10.16,13.75,18.47,30.56,18.47s30.57-8.31,30.57-18.47V0Z"/><path id="_路径_43" data-name="&lt;路径&gt;" class="cls-2" d="M1942.14,0V175.61c0,10.16,13.76,18.47,30.57,18.47s30.56-8.31,30.56-18.47V0Z"/><path id="_路径_44" data-name="&lt;路径&gt;" class="cls-2" d="M2029.61,0V175.61c0,10.16,13.75,18.47,30.56,18.47s30.57-8.31,30.57-18.47V0Z"/><path id="_路径_45" data-name="&lt;路径&gt;" class="cls-1" d="M2076.93,0V175.61c0,10.16,13.76,18.47,30.57,18.47s30.56-8.31,30.56-18.47V0Z"/><path id="_路径_46" data-name="&lt;路径&gt;" class="cls-3" d="M2124.26,0V175.61c0,10.16,13.75,18.47,30.56,18.47s30.56-8.31,30.56-18.47V0Z"/><path id="_路径_47" data-name="&lt;路径&gt;" class="cls-1" d="M2171.58,0V175.61c0,10.16,13.75,18.47,30.56,18.47s30.56-8.31,30.56-18.47V0Z"/><path id="_路径_48" data-name="&lt;路径&gt;" class="cls-2" d="M2218.9,0V175.61c0,10.16,13.75,18.47,30.56,18.47s30.56-8.31,30.56-18.47V0Z"/><path id="_路径_49" data-name="&lt;路径&gt;" class="cls-1" d="M2266.22,0V175.61c0,10.16,13.75,18.47,30.56,18.47s30.56-8.31,30.56-18.47V0Z"/><path id="_路径_50" data-name="&lt;路径&gt;" class="cls-3" d="M2313.54,0V175.61c0,10.16,13.76,18.47,30.56,18.47s30.57-8.31,30.57-18.47V0Z"/><path id="_路径_51" data-name="&lt;路径&gt;" class="cls-1" d="M2360.86,0V175.61c0,10.16,13.76,18.47,30.57,18.47s30.56-8.31,30.56-18.47V0Z"/><path id="_路径_52" data-name="&lt;路径&gt;" class="cls-2" d="M2408.19,0V175.61c0,10.16,13.75,18.47,30.56,18.47s30.56-8.31,30.56-18.47V0Z"/><path id="_路径_53" data-name="&lt;路径&gt;" class="cls-1" d="M2455.51,0V175.61c0,10.16,13.75,18.47,30.56,18.47s30.56-8.31,30.56-18.47V0Z"/><path id="_路径_54" data-name="&lt;路径&gt;" class="cls-3" d="M2502.83,0V175.61c0,10.16,13.75,18.47,30.56,18.47s30.56-8.31,30.56-18.47V0Z"/><path id="_路径_55" data-name="&lt;路径&gt;" class="cls-1" d="M2550.15,0V175.61c0,10.16,13.75,18.47,30.56,18.47s30.57-8.31,30.57-18.47V0Z"/><path id="_路径_56" data-name="&lt;路径&gt;" class="cls-2" d="M2597.47,0V175.61c0,10.16,13.76,18.47,30.57,18.47s30.56-8.31,30.56-18.47V0Z"/><path id="_路径_57" data-name="&lt;路径&gt;" class="cls-1" d="M2644.8,0V175.61c0,10.16,13.75,18.47,30.56,18.47s30.56-8.31,30.56-18.47V0Z"/><path id="_路径_58" data-name="&lt;路径&gt;" class="cls-3" d="M2692.12,0V175.61c0,10.16,13.75,18.47,30.56,18.47s30.56-8.31,30.56-18.47V0Z"/><path id="_路径_59" data-name="&lt;路径&gt;" class="cls-1" d="M2739.44,0V175.61c0,10.16,13.75,18.47,30.56,18.47s30.56-8.31,30.56-18.47V0Z"/><path id="_路径_60" data-name="&lt;路径&gt;" class="cls-2" d="M2786.76,0V175.61c0,10.16,13.75,18.47,30.56,18.47s30.57-8.31,30.57-18.47V0Z"/><path id="_路径_61" data-name="&lt;路径&gt;" class="cls-1" d="M2834.08,0V175.61c0,10.16,13.76,18.47,30.56,18.47s30.57-8.31,30.57-18.47V0Z"/><path id="_路径_62" data-name="&lt;路径&gt;" class="cls-3" d="M2976.05,0V175.61c0,10.16,13.75,18.47,30.56,18.47s30.56-8.31,30.56-18.47V0Z"/><path id="_路径_63" data-name="&lt;路径&gt;" class="cls-3" d="M2881.4,0V175.61c0,10.16,13.76,18.47,30.57,18.47s30.56-8.31,30.56-18.47V0Z"/><path id="_路径_64" data-name="&lt;路径&gt;" class="cls-2" d="M2928.73,0V175.61c0,10.16,13.75,18.47,30.56,18.47s30.56-8.31,30.56-18.47V0Z"/><path id="_路径_65" data-name="&lt;路径&gt;" class="cls-2" d="M3021.53,0V175.61c0,10.16,13.76,18.47,30.56,18.47s30.57-8.31,30.57-18.47V0Z"/><path id="_路径_66" data-name="&lt;路径&gt;" class="cls-1" d="M3068.85,0V175.61c0,10.16,13.76,18.47,30.57,18.47s30.56-8.31,30.56-18.47V0Z"/><path id="_路径_67" data-name="&lt;路径&gt;" class="cls-3" d="M3116.18,0V175.61c0,10.16,13.75,18.47,30.56,18.47s30.56-8.31,30.56-18.47V0Z"/><path id="_路径_68" data-name="&lt;路径&gt;" class="cls-1" d="M3163.5,0V175.61c0,10.16,13.75,18.47,30.56,18.47s30.56-8.31,30.56-18.47V0Z"/><path id="_路径_69" data-name="&lt;路径&gt;" class="cls-2" d="M3210.82,0V175.61c0,10.16,13.75,18.47,30.56,18.47s30.56-8.31,30.56-18.47V0Z"/><path id="_路径_70" data-name="&lt;路径&gt;" class="cls-1" d="M3258.14,0V175.61c0,10.16,13.76,18.47,30.56,18.47s30.57-8.31,30.57-18.47V0Z"/><path id="_路径_71" data-name="&lt;路径&gt;" class="cls-3" d="M3305.46,0V175.61c0,10.16,13.76,18.47,30.57,18.47s30.56-8.31,30.56-18.47V0Z"/><path id="_路径_72" data-name="&lt;路径&gt;" class="cls-1" d="M3352.79,0V175.61c0,10.16,13.75,18.47,30.56,18.47s30.56-8.31,30.56-18.47V0Z"/><path id="_路径_73" data-name="&lt;路径&gt;" class="cls-2" d="M3400.11,0V175.61c0,10.16,13.75,18.47,30.56,18.47s30.56-8.31,30.56-18.47V0Z"/><path id="_路径_74" data-name="&lt;路径&gt;" class="cls-1" d="M3447.43,0V175.61c0,10.16,13.75,18.47,30.56,18.47s30.56-8.31,30.56-18.47V0Z"/><path id="_路径_75" data-name="&lt;路径&gt;" class="cls-3" d="M3494.75,0V175.61c0,10.16,13.75,18.47,30.56,18.47s30.57-8.31,30.57-18.47V0Z"/><path id="_路径_76" data-name="&lt;路径&gt;" class="cls-1" d="M3542.07,0V175.61c0,10.16,13.76,18.47,30.57,18.47s30.56-8.31,30.56-18.47V0Z"/><path id="_路径_77" data-name="&lt;路径&gt;" class="cls-2" d="M3589.4,0V175.61c0,10.16,13.75,18.47,30.56,18.47s30.56-8.31,30.56-18.47V0Z"/><path id="_路径_78" data-name="&lt;路径&gt;" class="cls-1" d="M3636.72,0V175.61c0,10.16,13.75,18.47,30.56,18.47s30.56-8.31,30.56-18.47V0Z"/><path id="_路径_79" data-name="&lt;路径&gt;" class="cls-3" d="M3684,0V175.61c0,10.16,13.75,18.47,30.56,18.47s30.56-8.31,30.56-18.47V0Z"/><path id="_路径_80" data-name="&lt;路径&gt;" class="cls-2" d="M3718.24,0V175.61c0,10.16,13.76,18.47,30.57,18.47s30.56-8.31,30.56-18.47V0Z"/><path id="_路径_81" data-name="&lt;路径&gt;" class="cls-1" d="M3765.57,0V175.61c0,10.16,13.75,18.47,30.56,18.47s30.56-8.31,30.56-18.47V0Z"/><path id="_路径_82" data-name="&lt;路径&gt;" class="cls-3" d="M3812.89,0V175.61c0,10.16,13.75,18.47,30.56,18.47s30.56-8.31,30.56-18.47V0Z"/><path id="_路径_83" data-name="&lt;路径&gt;" class="cls-1" d="M3860.21,0V175.61c0,10.16,13.75,18.47,30.56,18.47s30.56-8.31,30.56-18.47V0Z"/><path id="_路径_84" data-name="&lt;路径&gt;" class="cls-2" d="M3907.53,0V175.61c0,10.16,13.75,18.47,30.56,18.47s30.57-8.31,30.57-18.47V0Z"/><path id="_路径_85" data-name="&lt;路径&gt;" class="cls-1" d="M3954.85,0V175.61c0,10.16,13.76,18.47,30.57,18.47s30.56-8.31,30.56-18.47V0Z"/><path id="_路径_86" data-name="&lt;路径&gt;" class="cls-3" d="M4002.18,0V175.61c0,10.16,13.75,18.47,30.56,18.47s30.56-8.31,30.56-18.47V0Z"/><path id="_路径_87" data-name="&lt;路径&gt;" class="cls-1" d="M4049.5,0V175.61c0,10.16,13.75,18.47,30.56,18.47s30.56-8.31,30.56-18.47V0Z"/><path id="_路径_88" data-name="&lt;路径&gt;" class="cls-2" d="M4096.82,0V175.61c0,10.16,13.75,18.47,30.56,18.47s30.56-8.31,30.56-18.47V0Z"/><path id="_路径_89" data-name="&lt;路径&gt;" class="cls-1" d="M4144.14,0V175.61c0,10.16,13.75,18.47,30.56,18.47s30.56-8.31,30.56-18.47V0Z"/><path id="_路径_90" data-name="&lt;路径&gt;" class="cls-3" d="M4191.46,0V175.61c0,10.16,13.76,18.47,30.56,18.47s30.57-8.31,30.57-18.47V0Z"/><path id="_路径_91" data-name="&lt;路径&gt;" class="cls-1" d="M4238.78,0V175.61c0,10.16,13.76,18.47,30.57,18.47s30.56-8.31,30.56-18.47V0Z"/><path id="_路径_92" data-name="&lt;路径&gt;" class="cls-2" d="M4286.11,0V175.61c0,10.16,13.75,18.47,30.56,18.47s30.56-8.31,30.56-18.47V0Z"/><path id="_路径_93" data-name="&lt;路径&gt;" class="cls-1" d="M4333.43,0V175.61c0,10.16,13.75,18.47,30.56,18.47s30.56-8.31,30.56-18.47V0Z"/><path id="_路径_94" data-name="&lt;路径&gt;" class="cls-3" d="M4380.75,0V175.61c0,10.16,13.75,18.47,30.56,18.47s30.56-8.31,30.56-18.47V0Z"/><path id="_路径_95" data-name="&lt;路径&gt;" class="cls-2" d="M4424.11,0V175.61c0,10.16,13.75,18.47,30.56,18.47s30.56-8.31,30.56-18.47V0Z"/><path id="_路径_96" data-name="&lt;路径&gt;" class="cls-1" d="M4471.43,0V175.61c0,10.16,13.76,18.47,30.56,18.47s30.57-8.31,30.57-18.47V0Z"/><path id="_路径_97" data-name="&lt;路径&gt;" class="cls-3" d="M4518.75,0V175.61c0,10.16,13.76,18.47,30.57,18.47s30.56-8.31,30.56-18.47V0Z"/><path id="_路径_98" data-name="&lt;路径&gt;" class="cls-1" d="M4566.08,0V175.61c0,10.16,13.75,18.47,30.56,18.47s30.56-8.31,30.56-18.47V0Z"/><path id="_路径_99" data-name="&lt;路径&gt;" class="cls-2" d="M4602.92,0V175.61c0,10.16,13.76,18.47,30.57,18.47s30.56-8.31,30.56-18.47V0Z"/><path id="_路径_100" data-name="&lt;路径&gt;" class="cls-1" d="M4650.25,0V175.61c0,10.16,13.75,18.47,30.56,18.47s30.56-8.31,30.56-18.47V0Z"/><path id="_路径_101" data-name="&lt;路径&gt;" class="cls-3" d="M4697.57,0V175.61c0,10.16,13.75,18.47,30.56,18.47s30.56-8.31,30.56-18.47V0Z"/><path id="_路径_102" data-name="&lt;路径&gt;" class="cls-1" d="M4744.89,0V175.61c0,10.16,13.75,18.47,30.56,18.47s30.56-8.31,30.56-18.47V0Z"/><path id="_路径_103" data-name="&lt;路径&gt;" class="cls-2" d="M4792.21,0V175.61c0,10.16,13.75,18.47,30.56,18.47s30.56-8.31,30.56-18.47V0Z"/><path id="_路径_104" data-name="&lt;路径&gt;" class="cls-1" d="M4839.53,0V175.61c0,10.16,13.76,18.47,30.56,18.47s30.57-8.31,30.57-18.47V0Z"/><path id="_路径_105" data-name="&lt;路径&gt;" class="cls-3" d="M4886.85,0V175.61c0,10.16,13.76,18.47,30.57,18.47s30.56-8.31,30.56-18.47V0Z"/><path id="_路径_106" data-name="&lt;路径&gt;" class="cls-1" d="M4934.18,0V175.61c0,10.16,13.75,18.47,30.56,18.47s30.56-8.31,30.56-18.47V0Z"/><path id="_路径_107" data-name="&lt;路径&gt;" class="cls-2" d="M4981.5,0V175.61c0,10.16,13.75,18.47,30.56,18.47s30.56-8.31,30.56-18.47V0Z"/><path id="_路径_108" data-name="&lt;路径&gt;" class="cls-1" d="M5028.82,0V175.61c0,10.16,13.75,18.47,30.56,18.47s30.56-8.31,30.56-18.47V0Z"/><path id="_路径_109" data-name="&lt;路径&gt;" class="cls-3" d="M5076.14,0V175.61c0,10.16,13.76,18.47,30.56,18.47s30.57-8.31,30.57-18.47V0Z"/><path id="_路径_110" data-name="&lt;路径&gt;" class="cls-1" d="M5123.46,0V175.61c0,10.16,13.76,18.47,30.57,18.47s30.56-8.31,30.56-18.47V0Z"/><path id="_路径_111" data-name="&lt;路径&gt;" class="cls-2" d="M5170.79,0V175.61c0,10.16,13.75,18.47,30.56,18.47s30.56-8.31,30.56-18.47V0Z"/><path id="_路径_112" data-name="&lt;路径&gt;" class="cls-1" d="M5218.11,0V175.61c0,10.16,13.75,18.47,30.56,18.47s30.56-8.31,30.56-18.47V0Z"/><path id="_路径_113" data-name="&lt;路径&gt;" class="cls-3" d="M5265.43,0V175.61c0,10.16,13.75,18.47,30.56,18.47s30.56-8.31,30.56-18.47V0Z"/><path id="_路径_114" data-name="&lt;路径&gt;" class="cls-2" d="M5308.79,0V175.61c0,10.16,13.75,18.47,30.56,18.47s30.56-8.31,30.56-18.47V0Z"/><path id="_路径_115" data-name="&lt;路径&gt;" class="cls-1" d="M5356.11,0V175.61c0,10.16,13.75,18.47,30.56,18.47s30.57-8.31,30.57-18.47V0Z"/><path id="_路径_116" data-name="&lt;路径&gt;" class="cls-3" d="M5403.43,0V175.61c0,10.16,13.76,18.47,30.57,18.47s30.56-8.31,30.56-18.47V0Z"/><path id="_路径_117" data-name="&lt;路径&gt;" class="cls-1" d="M5450.76,0V175.61c0,10.16,13.75,18.47,30.56,18.47s30.56-8.31,30.56-18.47V0Z"/><path id="_路径_118" data-name="&lt;路径&gt;" class="cls-3" d="M5487.21,0V175.61c0,10.16,13.75,18.47,30.56,18.47s30.56-8.31,30.56-18.47V0Z"/><path id="_路径_119" data-name="&lt;路径&gt;" class="cls-2" d="M5530.57,0V175.61c0,10.16,13.75,18.47,30.56,18.47s30.56-8.31,30.56-18.47V0Z"/><path id="_路径_120" data-name="&lt;路径&gt;" class="cls-1" d="M5577.89,0V175.61c0,10.16,13.75,18.47,30.56,18.47s30.56-8.31,30.56-18.47V0Z"/><path id="_路径_121" data-name="&lt;路径&gt;" class="cls-3" d="M5625.21,0V175.61c0,10.16,13.76,18.47,30.56,18.47s30.57-8.31,30.57-18.47V0Z"/><path id="_路径_122" data-name="&lt;路径&gt;" class="cls-1" d="M5672.53,0V175.61c0,10.16,13.76,18.47,30.57,18.47s30.56-8.31,30.56-18.47V0Z"/></g></g></g></svg>