<svg xmlns="http://www.w3.org/2000/svg" viewBox="0 0 120.69 103.15"><defs><style>.cls-1{fill:#ccb63a;}.cls-2{fill:#e9e244;}.cls-3{fill:#e4942e;}.cls-4{fill:#f23b3b;}.cls-5{fill:#ff6e6e;}.cls-6{fill:#d83030;}.cls-7{fill:#a1d324;}.cls-8{fill:#b2ef3c;}.cls-9{fill:#87aa18;}</style></defs><title>4-1方块 (2)</title><g id="图层_2" data-name="图层 2"><g id="_1-1-树" data-name="1-1-树"><g id="_4-1方块" data-name="4-1方块"><g id="_4-1方块-2" data-name="4-1方块"><rect class="cls-1" x="12.29" y="22.96" width="43.88" height="43.88"/><polygon class="cls-2" points="56.04 23.02 43.81 13.89 0 13.89 12.23 23.02 56.04 23.02"/><polygon class="cls-3" points="0 57.7 12.23 66.83 12.23 22.87 0 13.73 0 57.7"/></g><rect class="cls-4" x="40.37" y="45.41" width="43.88" height="43.88"/><polygon class="cls-5" points="84.13 45.46 71.9 36.33 28.09 36.33 40.31 45.46 84.13 45.46"/><polygon class="cls-6" points="28.09 80.14 40.31 89.27 40.31 45.31 28.09 36.17 28.09 80.14"/><rect class="cls-7" x="76.8" y="59.27" width="43.88" height="43.88"/><polygon class="cls-8" points="120.56 59.33 108.33 50.2 64.52 50.2 76.75 59.33 120.56 59.33"/><polygon class="cls-9" points="64.52 94 76.75 103.14 76.75 59.17 64.52 50.04 64.52 94"/><rect class="cls-1" x="62.14" y="9.23" width="43.88" height="43.88"/><polygon class="cls-2" points="105.89 9.29 93.66 0.15 49.85 0.15 62.08 9.29 105.89 9.29"/><polygon class="cls-3" points="49.85 43.97 62.08 53.1 62.08 9.13 49.85 0 49.85 43.97"/></g></g></g></svg>