<svg xmlns="http://www.w3.org/2000/svg" xmlns:xlink="http://www.w3.org/1999/xlink" viewBox="0 0 749.5 340"><defs><style>.cls-1,.cls-14{fill:none;}.cls-2{fill:#fff;}.cls-16,.cls-3{font-size:18px;font-family:SourceHanSansCN-Regular-GBpc-EUC-H, Source Han Sans CN;}.cls-17,.cls-3,.cls-6{fill:#333;}.cls-4{letter-spacing:-0.5em;}.cls-5{font-size:32px;font-family:SourceHanSansCN-Bold-GBpc-EUC-H, Source Han Sans CN;font-weight:700;}.cls-17,.cls-6{font-size:20px;}.cls-6{font-family:SourceHanSansCN-Normal-GBpc-EUC-H, Source Han Sans CN;}.cls-7{letter-spacing:-0.5em;}.cls-8{letter-spacing:-0.46em;}.cls-9{letter-spacing:-0.04em;}.cls-10{letter-spacing:-0.04em;}.cls-11{letter-spacing:-0.46em;}.cls-12{fill:#0db535;}.cls-13{clip-path:url(#clip-path);}.cls-14{stroke:#ede6e6;stroke-miterlimit:10;}.cls-15{fill:#f2f0f0;}.cls-16{fill:#999;}.cls-17{font-family:SourceHanSansCN-Medium-GBpc-EUC-H, Source Han Sans CN;}.cls-18{clip-path:url(#clip-path-2);}.cls-19{fill:#b7b7b7;}.cls-20{fill:#c63424;}</style><clipPath id="clip-path"><rect class="cls-1" x="613.22" y="198.74" width="46.44" height="46.51"/></clipPath><clipPath id="clip-path-2"><rect class="cls-1" x="461.62" y="73.15" width="22.31" height="24"/></clipPath></defs><title>4-2-弹窗</title><g id="图层_2" data-name="图层 2"><g id="_1-1-树" data-name="1-1-树"><g id="_4-2-弹窗" data-name="4-2-弹窗"><path class="cls-2" d="M30,0H719.5a30,30,0,0,1,30,30V340a0,0,0,0,1,0,0H0a0,0,0,0,1,0,0V30A30,30,0,0,1,30,0Z"/><text class="cls-3" transform="translate(50 58.58)">年会入场时间<tspan class="cls-4" x="108" y="0">：</tspan><tspan class="cls-5"><tspan x="0" y="38.4" xml:space="preserve">1月15日   14:30</tspan></tspan></text><text class="cls-3" transform="translate(50 158.58)">年会地点<tspan class="cls-4" x="72" y="0">：</tspan><tspan class="cls-5"><tspan x="0" y="38.4" xml:space="preserve">车公庙  乐咖啡</tspan></tspan></text><text class="cls-6" transform="translate(50 239.2)">地址<tspan class="cls-7" x="40" y="0">：</tspan><tspan x="50" y="0">福田区泰然九路海松大厦B座1层 乐咖</tspan><tspan class="cls-8" x="378.48" y="0">啡</tspan><tspan class="cls-9" x="389.2" y="0">（</tspan><tspan x="408.48" y="0">可停</tspan><tspan class="cls-10" x="448.48" y="0">车</tspan><tspan class="cls-11" x="467.76" y="0">）</tspan><tspan x="0" y="24">乘车</tspan><tspan class="cls-7" x="40" y="24">：</tspan><tspan x="50" y="24">地铁9号线下沙站C出口步行200m</tspan><tspan x="0" y="48" xml:space="preserve">           地铁1号线车公庙站D2出口步行1000m</tspan></text><g id="导航图标"><circle class="cls-12" cx="638.46" cy="221.6" r="40"/><g class="cls-13"><path class="cls-2" d="M659.54,201l-15.82,43.09a1.67,1.67,0,0,1-3.21-.27L636.7,223a1.68,1.68,0,0,0-1.34-1.34l-20.77-3.81a1.67,1.67,0,0,1-.28-3.21l43.09-15.82a1.67,1.67,0,0,1,2.14,1,1.63,1.63,0,0,1,0,1.15Zm-4.7,3a.42.42,0,0,0-.1-.43.42.42,0,0,0-.44-.1l-31.66,11.43a.42.42,0,0,0,.06.81l16.43,3.13a.42.42,0,0,1,.33.34l3,17a.42.42,0,0,0,.38.35.42.42,0,0,0,.42-.28Z"/></g><rect class="cls-2" x="627.15" y="226.11" width="3.95" height="10.89" rx="1.48" ry="1.48" transform="translate(117.48 -201.61) rotate(20.04)"/></g><line class="cls-14" x1="54.43" y1="121.73" x2="694.43" y2="121.73"/><rect class="cls-15" x="497.49" y="73.15" width="32" height="24" rx="4" ry="4"/><rect class="cls-15" x="556.74" y="73.15" width="32" height="24" rx="4" ry="4"/><rect class="cls-15" x="632.57" y="73.15" width="32" height="24" rx="4" ry="4"/><text class="cls-16" transform="translate(591.65 95.68)">min</text><text class="cls-17" transform="translate(502.13 92.81)">72</text><text class="cls-17" transform="translate(561.37 92.81)">22</text><text class="cls-17" transform="translate(637.21 92.81)">33</text><text class="cls-16" transform="translate(533.15 95.68)">h</text><text class="cls-16" transform="translate(668.23 95.68)">sec</text><g class="cls-18"><path class="cls-19" d="M482.53,94.55h-1.4V92a7.62,7.62,0,0,0-4.56-6.83,7.65,7.65,0,0,0,4.56-6.83V75.75h1.4a1.38,1.38,0,0,0,1.39-1.29,1.37,1.37,0,0,0-1.39-1.28H463a1.29,1.29,0,1,0,0,2.57h1.39v2.57A7.62,7.62,0,0,0,469,85.15,7.63,7.63,0,0,0,464.41,92v2.57H463a1.29,1.29,0,1,0,0,2.57h19.49a1.39,1.39,0,0,0,1.4-1.29,1.37,1.37,0,0,0-1.38-1.28ZM466.27,92a6,6,0,0,1,3.52-5.3,1.61,1.61,0,0,0,1-1.54,1.78,1.78,0,0,0-1-1.54,6,6,0,0,1-3.52-5.3V75.75h13v2.57a6,6,0,0,1-3.52,5.3,1.61,1.61,0,0,0-1,1.54,1.78,1.78,0,0,0,1,1.54,6,6,0,0,1,3.52,5.3v2.57h-13Z"/></g><path class="cls-20" d="M474.82,88.15A13.64,13.64,0,0,1,473,87l-.19-.25-.19.16a5.85,5.85,0,0,1-1.86,1.11A4.48,4.48,0,0,0,468.13,92v.85h9.28V92a4.24,4.24,0,0,0-2.59-3.84Zm-2.05-4.62.28-.25a9,9,0,0,1,1.86-1.2,3.56,3.56,0,0,0,1.57-1.28h-7.42a5.76,5.76,0,0,0,1.57,1.28,9,9,0,0,1,1.86,1.2Z"/></g></g></g></svg>