<svg xmlns="http://www.w3.org/2000/svg" viewBox="0 0 107.31 208.85"><defs><style>.cls-1{fill:#fad9be;}.cls-2{fill:#3fd8d4;}.cls-3{fill:#00bbc1;}.cls-4{fill:#0099af;}.cls-5{fill:#815384;}.cls-6{fill:#724973;}.cls-7{fill:#683969;}.cls-8{fill:#ea5d70;}.cls-9{fill:#de4b5e;}.cls-10{fill:#ce3457;}</style></defs><title>4-2-气球</title><g id="图层_2" data-name="图层 2"><g id="_1-1-树" data-name="1-1-树"><g id="_4-2-气球" data-name="4-2-气球"><g id="_编组_" data-name="&lt;编组&gt;"><path id="_复合路径_" data-name="&lt;复合路径&gt;" class="cls-1" d="M41.38,157.3c-1.78.54-3.8,1.19-5.65.67-2-.56-2.94-2.63-2.87-4.6a5.09,5.09,0,0,1,0-.55,6.65,6.65,0,0,0,4.58-2.31A6.1,6.1,0,0,0,39,145.72a2.23,2.23,0,0,0-2.92-1.92c-1.85.66-3.26,3.66-4,5.28a11.58,11.58,0,0,0-.68,1.68A4.85,4.85,0,0,1,27.9,148c-1.79-3.93.53-8.25,2.16-11.79,1.77-3.88,3.6-7.73,5.32-11.63a24.86,24.86,0,0,0,2.45-10.78c-.2-8-4-15.42-5.59-23.2A54.52,54.52,0,0,1,34,62.88c.39-1.2-1.49-1.71-1.88-.52a56.35,56.35,0,0,0-1.39,30.49C32,98,34,102.87,35.11,108a26.7,26.7,0,0,1,.71,8.06,24.45,24.45,0,0,1-2.38,8.07c-2.21,4.93-4.67,9.77-6.72,14.77-1.53,3.74-2.34,8.58.7,11.83a6.64,6.64,0,0,0,3.55,2,7.78,7.78,0,0,0,.14,2.67,5.91,5.91,0,0,0,3.51,4.26c2.34.94,5,.24,7.28-.46C43.1,158.81,42.59,156.93,41.38,157.3ZM36,146.41c1.38-1.3,1.25.35.86,1.38a4.65,4.65,0,0,1-3.41,3,15.94,15.94,0,0,1,1.07-2.1A10.61,10.61,0,0,1,36,146.41Z"/><g id="_编组_2" data-name="&lt;编组&gt;"><path id="_路径_" data-name="&lt;路径&gt;" class="cls-2" d="M35.45,70.14l-3.72.23L28,70.14s-3.79,4.19-2.22,5.74c1.26,1.24,3.73,1.6,5.95,1.6s4.69-.36,5.94-1.6C39.24,74.33,35.45,70.14,35.45,70.14Z"/><g id="_编组_3" data-name="&lt;编组&gt;"><ellipse id="_路径_2" data-name="&lt;路径&gt;" class="cls-3" cx="31.73" cy="35.89" rx="31.73" ry="35.89"/><path id="_路径_3" data-name="&lt;路径&gt;" class="cls-2" d="M27.62,25c-.83,5.95-5.51,10.21-10.44,9.51s-8.25-6.07-7.41-12S15.28,12.31,20.21,13,28.46,19.08,27.62,25Z"/><path id="_路径_4" data-name="&lt;路径&gt;" class="cls-4" d="M48.74,5.59A39.42,39.42,0,0,1,53.1,23.77c0,19.82-14.2,35.89-31.72,35.89a28.94,28.94,0,0,1-17-5.59c5.51,10.59,15.7,17.71,27.36,17.71,17.52,0,31.72-16.07,31.72-35.89C63.45,23.15,57.58,12,48.74,5.59Z"/></g></g></g><g id="_编组_4" data-name="&lt;编组&gt;"><g id="_编组_5" data-name="&lt;编组&gt;"><path id="_路径_5" data-name="&lt;路径&gt;" class="cls-5" d="M81.23,90.45l-3.47.2-3.48-.2s-3.52,3.9-2.06,5.34c1.17,1.15,3.47,1.5,5.54,1.5s4.37-.35,5.53-1.5C84.76,94.35,81.23,90.45,81.23,90.45Z"/><g id="_编组_6" data-name="&lt;编组&gt;"><ellipse id="_路径_6" data-name="&lt;路径&gt;" class="cls-6" cx="77.76" cy="58.53" rx="29.56" ry="33.44"/><ellipse id="_路径_7" data-name="&lt;路径&gt;" class="cls-5" cx="65.62" cy="47.24" rx="10.13" ry="8.4" transform="translate(9.71 105.64) rotate(-82)"/><path id="_路径_8" data-name="&lt;路径&gt;" class="cls-7" d="M93.61,30.3a36.74,36.74,0,0,1,4.06,16.94c0,18.47-13.23,33.44-29.55,33.44a27.08,27.08,0,0,1-15.86-5.21C57.4,85.34,66.89,92,77.76,92c16.32,0,29.55-15,29.55-33.44C107.31,46.66,101.85,36.24,93.61,30.3Z"/></g></g><path id="_路径_9" data-name="&lt;路径&gt;" class="cls-1" d="M88.87,172.75A5.13,5.13,0,0,0,83.73,168c-1.41.08-1.54,2.3-.11,2.22,3.13-.17,3.86,3.73,1.74,5.53-2.29,1.94-5.46,1.11-7.65-.52-4.06-3-5.73-8.36-5.87-13.22-.33-11.36,6.53-21,9.36-31.65a43.68,43.68,0,0,0,.64-19.3c-.26-1.41-2.43-.93-2.16.48a43,43,0,0,1-2.11,22.91c-2.4,6.59-5.79,12.9-7.21,19.82-1.11,5.42-1.16,11.31,1.15,16.45,2.15,4.78,7.41,10,13.11,8C87.08,177.77,89.11,175.48,88.87,172.75Z"/></g><g id="_编组_7" data-name="&lt;编组&gt;"><path id="_路径_10" data-name="&lt;路径&gt;" class="cls-1" d="M50.64,195.92c1.12-.63,2,1.14.91,1.77C49.32,199,49,202,50.05,204.15c1.39,2.76,4.91,3.21,7.56,2.18,7.14-2.78,6-12,3.41-17.55-2.83-6-7.7-11.21-8.32-18.08-.67-7.25,2.64-13.95,5.41-20.42a39.45,39.45,0,0,0,3.49-11.9,37.92,37.92,0,0,0-1.45-12.66c-.32-1.24,1.62-1.66,1.94-.43a40.36,40.36,0,0,1,1.54,12.59,38.09,38.09,0,0,1-3.28,12.19c-3.29,7.85-8,16.55-4.53,25.17,3,7.36,9.26,13.3,9.28,21.71,0,6.28-4.56,12.82-11.49,11.79a7,7,0,0,1-6-5.71A6.6,6.6,0,0,1,50.64,195.92Z"/><g id="_编组_8" data-name="&lt;编组&gt;"><path id="_路径_11" data-name="&lt;路径&gt;" class="cls-8" d="M64,124.15l-2.71.16-2.71-.16s-2.74,3-1.6,4.16c.91.9,2.71,1.17,4.31,1.17s3.41-.27,4.32-1.17C66.72,127.19,64,124.15,64,124.15Z"/><g id="_编组_9" data-name="&lt;编组&gt;"><ellipse id="_路径_12" data-name="&lt;路径&gt;" class="cls-9" cx="61.26" cy="99.27" rx="23.04" ry="26.06"/><ellipse id="_路径_13" data-name="&lt;路径&gt;" class="cls-8" cx="51.8" cy="90.47" rx="7.89" ry="6.55" transform="translate(-45 129.18) rotate(-82)"/><path id="_路径_14" data-name="&lt;路径&gt;" class="cls-10" d="M73.62,77.27a28.68,28.68,0,0,1,3.17,13.2c0,14.39-10.32,26.06-23,26.06a21,21,0,0,1-12.35-4.06c4,7.7,11.4,12.86,19.86,12.86,12.72,0,23-11.66,23-26.06C84.3,90,80,81.9,73.62,77.27Z"/></g></g></g></g></g></g></svg>