<svg xmlns="http://www.w3.org/2000/svg" viewBox="0 0 1334.57 1238.85"><defs><style>.cls-1{isolation:isolate;}.cls-16,.cls-17,.cls-2{fill:#fff;}.cls-3{fill:#e4942e;}.cls-4{fill:#e9e244;}.cls-5{fill:#9d6730;}.cls-6{fill:#81ca25;}.cls-7{fill:#75b21d;}.cls-8{fill:#8c9893;}.cls-9{fill:#a5afaa;}.cls-10{fill:#7e8783;}.cls-11{fill:#777f7b;}.cls-12{fill:#b0b5b3;}.cls-13{fill:#9fa5a2;}.cls-14{fill:#bdc1bf;}.cls-15{fill:#008458;}.cls-16{font-size:35.02px;font-family:SourceHanSansCN-Medium-GBpc-EUC-H, Source Han Sans CN;}.cls-17{font-size:25.02px;font-family:SourceHanSansCN-Normal-GBpc-EUC-H, Source Han Sans CN;}.cls-18{letter-spacing:-0.04em;}.cls-19{fill:#fff8f8;}.cls-20{fill:#eadfdf;}</style></defs><title>资源 272</title><g id="图层_2" data-name="图层 2"><g id="_1-1-树" data-name="1-1-树"><g id="_1-3-方块" data-name="1-3-方块"><g class="cls-1"><polygon class="cls-2" points="736.77 543.41 744.05 581.48 709.76 593.24 702.48 555.18 736.77 543.41"/><polygon class="cls-3" points="709.76 593.24 688.66 586.54 681.38 548.48 702.48 555.18 709.76 593.24"/><polygon class="cls-4" points="702.48 555.18 681.38 548.48 715.67 536.71 736.77 543.41 702.48 555.18"/></g></g><g id="_1-4-方块" data-name="1-4-方块"><g class="cls-1"><polygon class="cls-2" points="1327.14 431.88 1334.57 470.74 1299.57 482.74 1292.14 443.89 1327.14 431.88"/><polygon class="cls-3" points="1299.57 482.74 1278.03 475.91 1270.6 437.06 1292.14 443.89 1299.57 482.74"/><polygon class="cls-4" points="1292.14 443.89 1270.6 437.06 1305.61 425.05 1327.14 431.88 1292.14 443.89"/></g></g><g id="_1-2-方块" data-name="1-2-方块"><g class="cls-1"><polygon class="cls-2" points="308.43 100.21 313.22 125.29 290.63 133.04 285.83 107.96 308.43 100.21"/><polygon class="cls-3" points="290.63 133.04 276.72 128.62 271.93 103.55 285.83 107.96 290.63 133.04"/><polygon class="cls-4" points="285.83 107.96 271.93 103.55 294.52 95.79 308.43 100.21 285.83 107.96"/></g></g><g id="_1-0-树" data-name="1-0-树"><rect class="cls-5" x="855.94" y="1136.55" width="17.04" height="102.26"/><circle class="cls-6" cx="864.47" cy="1110.98" r="76.69"/><path class="cls-7" d="M909.36,1049.05a76.44,76.44,0,0,1-106.83,106.82,76.53,76.53,0,1,0,106.83-106.82Z"/><rect class="cls-5" x="770.73" y="1051.33" width="17.04" height="187.47"/><circle class="cls-6" cx="779.25" cy="1025.77" r="76.69"/><path class="cls-7" d="M824.14,963.84a76.43,76.43,0,0,1-106.82,106.82A76.53,76.53,0,1,0,824.14,963.84Z"/></g><g id="_1-5-指路牌" data-name="1-5-指路牌"><path class="cls-8" d="M1197.48,301.1h22.25a5,5,0,0,1,5,5v932.7a0,0,0,0,1,0,0h-32.25a0,0,0,0,1,0,0V306.1A5,5,0,0,1,1197.48,301.1Z"/><path class="cls-9" d="M1197.48,301.1h1.41a0,0,0,0,1,0,0v937.75a0,0,0,0,1,0,0h-6.41a0,0,0,0,1,0,0V306.1a5,5,0,0,1,5-5Z"/><path class="cls-10" d="M1219.73,301.1h5a0,0,0,0,1,0,0v937.75a0,0,0,0,1,0,0h0a5,5,0,0,1-5-5V301.1A0,0,0,0,1,1219.73,301.1Z" transform="translate(2444.46 1539.95) rotate(180)"/><rect class="cls-11" x="1162.8" y="367.99" width="73.59" height="11.38"/><rect class="cls-12" x="1162.8" y="366.45" width="73.59" height="11.38"/><rect class="cls-8" x="1224.64" y="366.45" width="3.15" height="11.38"/><rect class="cls-13" x="1221.87" y="366.45" width="2.77" height="11.38"/><rect class="cls-14" x="1191.13" y="366.45" width="3.15" height="11.38"/><rect class="cls-8" x="1166.22" y="366.45" width="3.15" height="11.38"/><rect class="cls-11" x="1162.8" y="463.62" width="73.59" height="11.38"/><rect class="cls-12" x="1162.8" y="462.08" width="73.59" height="11.38"/><rect class="cls-8" x="1224.64" y="462.08" width="3.15" height="11.38"/><rect class="cls-13" x="1221.87" y="462.08" width="2.77" height="11.38"/><rect class="cls-14" x="1191.13" y="462.08" width="3.15" height="11.38"/><rect class="cls-8" x="1166.22" y="462.08" width="3.15" height="11.38"/><rect class="cls-2" x="807.34" y="345.09" width="355.72" height="148.23" rx="5" ry="5"/><path class="cls-15" d="M1158.06,348.09a2,2,0,0,1,2,2V488.32a2,2,0,0,1-2,2H812.34a2,2,0,0,1-2-2V350.09a2,2,0,0,1,2-2h345.72m0-6H812.34a8,8,0,0,0-8,8V488.32a8,8,0,0,0,8,8h345.72a8,8,0,0,0,8-8V350.09a8,8,0,0,0-8-8Z"/><rect class="cls-15" x="818.71" y="356.66" width="332.97" height="125.08" rx="6" ry="6"/><text class="cls-16" transform="translate(845.69 413.19)">云创年会</text><text class="cls-17" transform="translate(845.69 448.9)"><tspan class="cls-18">Y</tspan><tspan x="12.16" y="0">unChuang</tspan></text><rect class="cls-2" x="1032.56" y="410.92" width="74.61" height="17.51" transform="translate(16.6 879.43) rotate(-45)"/><polygon class="cls-2" points="1096.24 393.3 1096.24 428.68 1115.01 409.91 1115.01 374.53 1079.63 374.53 1060.87 393.3 1096.24 393.3"/></g><g id="_1-1-方块" data-name="1-1-方块"><g class="cls-1"><polygon class="cls-2" points="55.4 383.5 62.68 421.56 28.38 433.33 21.1 395.27 55.4 383.5"/><polygon class="cls-3" points="28.38 433.33 7.28 426.63 0 388.57 21.1 395.27 28.38 433.33"/><polygon class="cls-4" points="21.1 395.27 0 388.57 34.3 376.8 55.4 383.5 21.1 395.27"/></g></g><g id="_1-6-云" data-name="1-6-云"><path class="cls-19" d="M1240.71,59.06a38.29,38.29,0,0,0-18.91,5,38.45,38.45,0,0,0-32.45-17.83l-.33,0a43.63,43.63,0,0,0-86.69.2,43.42,43.42,0,0,0-45.45-10.6A47.45,47.45,0,0,0,963.44,46a46.15,46.15,0,0,0-66.85,41.32,48.42,48.42,0,0,0,.3,5.14h379.77C1276.66,71.9,1260.24,59.06,1240.71,59.06Z"/><g id="顶层-云"><path class="cls-20" d="M1004.81,5a47.47,47.47,0,0,1,46,35.84,43.68,43.68,0,0,1,14.35-2.46c12.18,0,27.36,8.75,35.28,16.8a43.69,43.69,0,0,1,1.9-8.68c-2.84-2.44-5.08-5-11.17-8.27a44.58,44.58,0,0,0-20-4.83,43.62,43.62,0,0,0-14.34,2.46,47.44,47.44,0,0,0-79.06-22.42A47.13,47.13,0,0,1,1004.81,5Z"/><path class="cls-20" d="M1139.63,12.68A43.64,43.64,0,0,1,1183,51.22l.33,0A38.49,38.49,0,0,1,1215.74,69a38.39,38.39,0,0,1,18.91-5c17.89,0,33.17,10.79,35.6,28.41h6.41c0-20.55-16.42-33.39-36-33.39a38.29,38.29,0,0,0-18.91,5,38.45,38.45,0,0,0-32.45-17.83l-.33,0a43.62,43.62,0,0,0-73.91-26A43.41,43.41,0,0,1,1139.63,12.68Z"/><path class="cls-20" d="M936.75,46.07c7.42,0,19.77,4,26,7.11a47.48,47.48,0,0,1,.79-7.21,87.09,87.09,0,0,0-10.43-3.71,43.62,43.62,0,0,0-10.27-1.17A46.07,46.07,0,0,0,910.6,54.18,46,46,0,0,1,936.75,46.07Z"/></g></g></g></g></svg>