<svg xmlns="http://www.w3.org/2000/svg" xmlns:xlink="http://www.w3.org/1999/xlink" viewBox="0 0 213.91 1339.2"><defs><style>.cls-1{fill:none;}.cls-2{clip-path:url(#clip-path);}.cls-3{fill:#ffd16c;}.cls-4{fill:#7dd8cd;}.cls-5{fill:#4c9b8f;}.cls-6{fill:#e4942e;}.cls-7{fill:#7f4506;}</style><clipPath id="clip-path"><rect class="cls-1" x="66.84" y="5.2" width="147.07" height="1334"/></clipPath></defs><title>门 (2)</title><g id="图层_2" data-name="图层 2"><g id="_1-1-树" data-name="1-1-树"><g id="门"><g class="cls-2"><rect class="cls-3" x="141.49" width="72.42" height="1339.2"/><polygon class="cls-4" points="40.85 603.58 40.85 1088.28 40.71 1088.3 66.84 1143.11 66.84 643.96 40.85 603.58"/><rect class="cls-5" x="66.84" y="643.96" width="7.12" height="499.16"/><polygon class="cls-4" points="91.34 681.86 66.96 643.99 66.96 1143.14 91.34 1194.29 91.34 681.86"/><polygon class="cls-6" points="0 4.7 0 1038.56 24.52 1090.33 40.85 1088.28 40.85 603.32 91.23 681.58 91.23 1231.2 142.37 1339.2 142.37 0 0 4.7"/><polygon class="cls-6" points="0 4.7 0 1038.56 24.52 1090.33 40.85 1088.28 40.85 603.32 91.23 681.58 91.23 1231.2 142.37 1339.2 142.37 0 0 4.7"/><polygon class="cls-7" points="40.85 603.33 24.94 578.62 24.94 1090.48 40.85 1088.28 40.85 603.33"/></g></g></g></g></svg>